ISO-10303-21;
HEADER;
FILE_DESCRIPTION (( 'STEP AP203' ),
    '1' );
FILE_NAME ('camera_mount_2_Domyúlna_sldprt.STEP',
    '2018-11-05T16:57:49',
    ( '' ),
    ( '' ),
    'SwSTEP 2.0',
    'SolidWorks 2016',
    '' );
FILE_SCHEMA (( 'CONFIG_CONTROL_DESIGN' ));
ENDSEC;

DATA;
#1 = EDGE_CURVE ( 'NONE', #700, #61, #464, .T. ) ;
#2 = CARTESIAN_POINT ( 'NONE',  ( 10.24999999999999600, 12.25000000000000000, 0.0000000000000000000 ) ) ;
#3 = ORIENTED_EDGE ( 'NONE', *, *, #1, .F. ) ;
#4 = FACE_OUTER_BOUND ( 'NONE', #93, .T. ) ;
#5 = PERSON_AND_ORGANIZATION_ROLE ( 'design_supplier' ) ;
#6 = VERTEX_POINT ( 'NONE', #10 ) ;
#7 = FACE_BOUND ( 'NONE', #362, .T. ) ;
#8 = AXIS2_PLACEMENT_3D ( 'NONE', #357, #691, #24 ) ;
#9 = EDGE_CURVE ( 'NONE', #512, #172, #590, .T. ) ;
#10 = CARTESIAN_POINT ( 'NONE',  ( -12.50000000000000000, 58.99999999999997200, 0.0000000000000000000 ) ) ;
#11 = ORIENTED_EDGE ( 'NONE', *, *, #179, .F. ) ;
#12 = EDGE_LOOP ( 'NONE', ( #432, #112, #622, #538 ) ) ;
#13 = FACE_BOUND ( 'NONE', #562, .T. ) ;
#14 = DIRECTION ( 'NONE',  ( -0.0000000000000000000, 0.0000000000000000000, -1.000000000000000000 ) ) ;
#15 = ORIENTED_EDGE ( 'NONE', *, *, #453, .T. ) ;
#16 = CARTESIAN_POINT ( 'NONE',  ( -7.500000000000000900, 59.00000000000000700, 0.0000000000000000000 ) ) ;
#17 = ADVANCED_FACE ( 'NONE', ( #521 ), #292, .T. ) ;
#18 = EDGE_CURVE ( 'NONE', #495, #350, #482, .T. ) ;
#19 = CARTESIAN_POINT ( 'NONE',  ( 4.999999999999999100, 53.99999999999999300, 4.000000000000000000 ) ) ;
#20 = ORIENTED_EDGE ( 'NONE', *, *, #485, .F. ) ;
#21 = CARTESIAN_POINT ( 'NONE',  ( -10.24999999999999800, 35.75000000000000000, 4.000000000000000000 ) ) ;
#22 = ORIENTED_EDGE ( 'NONE', *, *, #262, .F. ) ;
#23 = VECTOR ( 'NONE', #448, 1000.000000000000000 ) ;
#24 = DIRECTION ( 'NONE',  ( -7.381802025433222800E-017, 1.000000000000000000, 0.0000000000000000000 ) ) ;
#25 = EDGE_CURVE ( 'NONE', #724, #203, #322, .T. ) ;
#26 = DATE_AND_TIME ( #493, #435 ) ;
#27 = CARTESIAN_POINT ( 'NONE',  ( 12.50000000000000000, 58.99999999999997200, 4.000000000000000000 ) ) ;
#28 = DIRECTION ( 'NONE',  ( -0.0000000000000000000, -0.0000000000000000000, -1.000000000000000000 ) ) ;
#29 = CARTESIAN_POINT ( 'NONE',  ( -7.499999999999965400, 64.00000000000000000, 4.000000000000000000 ) ) ;
#30 = CARTESIAN_POINT ( 'NONE',  ( 11.49999999999999800, 35.75000000000000000, 0.0000000000000000000 ) ) ;
#31 = EDGE_LOOP ( 'NONE', ( #479, #553, #161, #256 ) ) ;
#32 = DIRECTION ( 'NONE',  ( 1.000000000000000000, 0.0000000000000000000, 0.0000000000000000000 ) ) ;
#33 = VERTEX_POINT ( 'NONE', #120 ) ;
#34 = CARTESIAN_POINT ( 'NONE',  ( -12.50000000000000000, 0.0000000000000000000, 0.0000000000000000000 ) ) ;
#35 = DIRECTION ( 'NONE',  ( 0.0000000000000000000, 0.0000000000000000000, 1.000000000000000000 ) ) ;
#36 = AXIS2_PLACEMENT_3D ( 'NONE', #317, #593, #319 ) ;
#37 = CARTESIAN_POINT ( 'NONE',  ( 7.499999999999965400, 64.00000000000000000, 0.0000000000000000000 ) ) ;
#38 = PLANE ( 'NONE',  #685 ) ;
#39 = VERTEX_POINT ( 'NONE', #572 ) ;
#40 = DIRECTION ( 'NONE',  ( 7.381802025433222800E-017, -1.000000000000000000, 0.0000000000000000000 ) ) ;
#41 = VERTEX_POINT ( 'NONE', #283 ) ;
#42 = ORIENTED_EDGE ( 'NONE', *, *, #195, .F. ) ;
#43 = CARTESIAN_POINT ( 'NONE',  ( -11.49999999999999800, 35.75000000000000000, 0.0000000000000000000 ) ) ;
#44 = AXIS2_PLACEMENT_3D ( 'NONE', #462, #298, #641 ) ;
#45 = APPROVAL_STATUS ( 'not_yet_approved' ) ;
#46 = PRODUCT_DEFINITION ( 'UNKNOWN', '', #429, #224 ) ;
#47 = ORIENTED_EDGE ( 'NONE', *, *, #95, .T. ) ;
#48 = FACE_BOUND ( 'NONE', #342, .T. ) ;
#49 = EDGE_CURVE ( 'NONE', #586, #509, #168, .T. ) ;
#50 = EDGE_LOOP ( 'NONE', ( #286, #182, #367, #343 ) ) ;
#51 = EDGE_CURVE ( 'NONE', #629, #41, #491, .T. ) ;
#52 = DIRECTION ( 'NONE',  ( 0.0000000000000000000, 0.0000000000000000000, 1.000000000000000000 ) ) ;
#53 = VECTOR ( 'NONE', #458, 1000.000000000000000 ) ;
#54 = VECTOR ( 'NONE', #693, 1000.000000000000000 ) ;
#55 = ADVANCED_FACE ( 'NONE', ( #77, #48, #7, #609 ), #290, .T. ) ;
#56 = EDGE_CURVE ( 'NONE', #700, #495, #580, .T. ) ;
#57 = CARTESIAN_POINT ( 'NONE',  ( 11.49999999999999800, 35.75000000000000000, 4.000000000000000000 ) ) ;
#58 = APPROVAL ( #45, 'UNSPECIFIED' ) ;
#59 = PERSON_AND_ORGANIZATION ( #719, #445 ) ;
#60 = ADVANCED_FACE ( 'NONE', ( #711 ), #285, .T. ) ;
#61 = VERTEX_POINT ( 'NONE', #563 ) ;
#62 = EDGE_LOOP ( 'NONE', ( #125, #594, #686, #248 ) ) ;
#63 = FACE_OUTER_BOUND ( 'NONE', #105, .T. ) ;
#64 = DIRECTION ( 'NONE',  ( 1.254016970585644000E-016, 1.000000000000000000, -0.0000000000000000000 ) ) ;
#65 = VERTEX_POINT ( 'NONE', #623 ) ;
#66 = LINE ( 'NONE', #94, #677 ) ;
#67 = CARTESIAN_POINT ( 'NONE',  ( -4.999999999999999100, 53.99999999999999300, 4.000000000000000000 ) ) ;
#68 = ORIENTED_EDGE ( 'NONE', *, *, #95, .F. ) ;
#69 = LINE ( 'NONE', #255, #173 ) ;
#70 = CARTESIAN_POINT ( 'NONE',  ( 8.999999999999998200, 35.75000000000000000, 4.000000000000000000 ) ) ;
#71 = EDGE_CURVE ( 'NONE', #33, #103, #107, .T. ) ;
#72 = DIRECTION ( 'NONE',  ( -1.254016970585644000E-016, -1.000000000000000000, 0.0000000000000000000 ) ) ;
#73 = ORIENTED_EDGE ( 'NONE', *, *, #347, .T. ) ;
#74 = CIRCLE ( 'NONE', #466, 1.250000000000001100 ) ;
#75 = DIRECTION ( 'NONE',  ( 1.000000000000000000, 0.0000000000000000000, 0.0000000000000000000 ) ) ;
#76 = ADVANCED_FACE ( 'NONE', ( #428 ), #457, .F. ) ;
#77 = FACE_OUTER_BOUND ( 'NONE', #407, .T. ) ;
#78 = DIRECTION ( 'NONE',  ( -1.476360405086644600E-016, -1.000000000000000000, 0.0000000000000000000 ) ) ;
#79 = DIRECTION ( 'NONE',  ( -0.0000000000000000000, -0.0000000000000000000, -1.000000000000000000 ) ) ;
#80 = LOCAL_TIME ( 17, 57, 49.00000000000000000, #692 ) ;
#81 = CARTESIAN_POINT ( 'NONE',  ( -12.50000000000000000, 0.0000000000000000000, 4.000000000000000000 ) ) ;
#82 = EDGE_CURVE ( 'NONE', #495, #334, #721, .T. ) ;
#83 = ORIENTED_EDGE ( 'NONE', *, *, #713, .T. ) ;
#84 = DIRECTION ( 'NONE',  ( -0.0000000000000000000, -0.0000000000000000000, -1.000000000000000000 ) ) ;
#85 = VERTEX_POINT ( 'NONE', #131 ) ;
#86 = DIRECTION ( 'NONE',  ( 1.000000000000000000, 0.0000000000000000000, 0.0000000000000000000 ) ) ;
#87 = ORIENTED_EDGE ( 'NONE', *, *, #453, .F. ) ;
#88 = DIRECTION ( 'NONE',  ( 0.0000000000000000000, -0.0000000000000000000, 1.000000000000000000 ) ) ;
#89 =( GEOMETRIC_REPRESENTATION_CONTEXT ( 3 ) GLOBAL_UNCERTAINTY_ASSIGNED_CONTEXT ( ( #715 ) ) GLOBAL_UNIT_ASSIGNED_CONTEXT ( ( #669, #275, #555 ) ) REPRESENTATION_CONTEXT ( 'NONE', 'WORKASPACE' ) );
#90 = VECTOR ( 'NONE', #196, 1000.000000000000000 ) ;
#91 = DIRECTION ( 'NONE',  ( 1.000000000000000000, 0.0000000000000000000, 0.0000000000000000000 ) ) ;
#92 = VERTEX_POINT ( 'NONE', #642 ) ;
#93 = EDGE_LOOP ( 'NONE', ( #134, #184, #142, #235 ) ) ;
#94 = CARTESIAN_POINT ( 'NONE',  ( -8.999999999999998200, 35.75000000000000000, 4.000000000000000000 ) ) ;
#95 = EDGE_CURVE ( 'NONE', #334, #349, #261, .T. ) ;
#96 = FACE_OUTER_BOUND ( 'NONE', #415, .T. ) ;
#97 = LINE ( 'NONE', #30, #223 ) ;
#98 = PLANE ( 'NONE',  #565 ) ;
#99 = CC_DESIGN_PERSON_AND_ORGANIZATION_ASSIGNMENT ( #657, #559, ( #46 ) ) ;
#100 = ORIENTED_EDGE ( 'NONE', *, *, #498, .T. ) ;
#101 = DIRECTION ( 'NONE',  ( -0.0000000000000000000, -0.0000000000000000000, -1.000000000000000000 ) ) ;
#102 = VECTOR ( 'NONE', #603, 1000.000000000000000 ) ;
#103 = VERTEX_POINT ( 'NONE', #141 ) ;
#104 = DIRECTION ( 'NONE',  ( -1.000000000000000000, 0.0000000000000000000, 0.0000000000000000000 ) ) ;
#105 = EDGE_LOOP ( 'NONE', ( #272, #705, #501, #659 ) ) ;
#106 = EDGE_CURVE ( 'NONE', #287, #527, #198, .T. ) ;
#107 = LINE ( 'NONE', #67, #689 ) ;
#108 = CARTESIAN_POINT ( 'NONE',  ( 0.0000000000000000000, 0.0000000000000000000, 0.0000000000000000000 ) ) ;
#109 = LOCAL_TIME ( 17, 57, 49.00000000000000000, #431 ) ;
#110 = MANIFOLD_SOLID_BREP ( 'Dodanie-wyciπgniÍcie1', #536 ) ;
#111 = ORIENTED_EDGE ( 'NONE', *, *, #307, .T. ) ;
#112 = ORIENTED_EDGE ( 'NONE', *, *, #148, .F. ) ;
#113 = AXIS2_PLACEMENT_3D ( 'NONE', #699, #404, #88 ) ;
#114 = DIRECTION ( 'NONE',  ( -1.000000000000000000, 0.0000000000000000000, 0.0000000000000000000 ) ) ;
#115 = VECTOR ( 'NONE', #461, 1000.000000000000000 ) ;
#116 = CARTESIAN_POINT ( 'NONE',  ( 11.49999999999999800, 35.75000000000000000, 4.000000000000000000 ) ) ;
#117 = CC_DESIGN_APPROVAL ( #358, ( #672 ) ) ;
#118 = DIRECTION ( 'NONE',  ( -7.381802025433222800E-017, -1.000000000000000000, 0.0000000000000000000 ) ) ;
#119 = EDGE_CURVE ( 'NONE', #400, #92, #371, .T. ) ;
#120 = CARTESIAN_POINT ( 'NONE',  ( -4.999999999999999100, 53.99999999999999300, 4.000000000000000000 ) ) ;
#121 = ORIENTED_EDGE ( 'NONE', *, *, #384, .T. ) ;
#122 = ORIENTED_EDGE ( 'NONE', *, *, #570, .T. ) ;
#123 = DIRECTION ( 'NONE',  ( -0.0000000000000000000, -0.0000000000000000000, -1.000000000000000000 ) ) ;
#124 = FACE_OUTER_BOUND ( 'NONE', #368, .T. ) ;
#125 = ORIENTED_EDGE ( 'NONE', *, *, #485, .T. ) ;
#126 = DIRECTION ( 'NONE',  ( -1.000000000000000000, 0.0000000000000000000, 0.0000000000000000000 ) ) ;
#127 = ADVANCED_FACE ( 'NONE', ( #625 ), #241, .F. ) ;
#128 = APPROVAL_PERSON_ORGANIZATION ( #340, #58, #324 ) ;
#129 = DIRECTION ( 'NONE',  ( -1.000000000000000000, 0.0000000000000000000, 0.0000000000000000000 ) ) ;
#130 = AXIS2_PLACEMENT_3D ( 'NONE', #227, #678, #393 ) ;
#131 = CARTESIAN_POINT ( 'NONE',  ( 11.49999999999999800, 35.75000000000000000, 0.0000000000000000000 ) ) ;
#132 = ORIENTED_EDGE ( 'NONE', *, *, #703, .T. ) ;
#133 = APPROVAL ( #225, 'UNSPECIFIED' ) ;
#134 = ORIENTED_EDGE ( 'NONE', *, *, #664, .F. ) ;
#135 = DIRECTION ( 'NONE',  ( 7.381802025433222800E-017, 1.000000000000000000, -0.0000000000000000000 ) ) ;
#136 = CARTESIAN_POINT ( 'NONE',  ( 4.999999999999999100, 53.99999999999999300, 0.0000000000000000000 ) ) ;
#137 = DIRECTION ( 'NONE',  ( 0.0000000000000000000, 0.0000000000000000000, -1.000000000000000000 ) ) ;
#138 = DATE_AND_TIME ( #265, #212 ) ;
#139 = CARTESIAN_POINT ( 'NONE',  ( -6.350976936741761000E-015, 12.50000000000000500, 0.0000000000000000000 ) ) ;
#140 = CARTESIAN_POINT ( 'NONE',  ( -12.50000000000000000, 0.0000000000000000000, 4.000000000000000000 ) ) ;
#141 = CARTESIAN_POINT ( 'NONE',  ( -4.999999999999999100, 53.99999999999999300, 0.0000000000000000000 ) ) ;
#142 = ORIENTED_EDGE ( 'NONE', *, *, #269, .T. ) ;
#143 = DIRECTION ( 'NONE',  ( 1.000000000000000000, -1.476360405086644600E-016, 0.0000000000000000000 ) ) ;
#144 = VECTOR ( 'NONE', #651, 1000.000000000000000 ) ;
#145 = ORIENTED_EDGE ( 'NONE', *, *, #179, .T. ) ;
#146 = CYLINDRICAL_SURFACE ( 'NONE', #447, 4.999999999999988500 ) ;
#147 = ORIENTED_EDGE ( 'NONE', *, *, #307, .F. ) ;
#148 = EDGE_CURVE ( 'NONE', #320, #6, #314, .T. ) ;
#149 = CARTESIAN_POINT ( 'NONE',  ( 8.999999999999998200, 35.75000000000000000, 0.0000000000000000000 ) ) ;
#150 = CARTESIAN_POINT ( 'NONE',  ( 12.50000000000000000, 0.0000000000000000000, 0.0000000000000000000 ) ) ;
#151 = ORIENTED_EDGE ( 'NONE', *, *, #262, .T. ) ;
#152 = VECTOR ( 'NONE', #591, 1000.000000000000000 ) ;
#153 = VECTOR ( 'NONE', #681, 1000.000000000000000 ) ;
#154 = CARTESIAN_POINT ( 'NONE',  ( -8.999999999999994700, 12.25000000000000000, 0.0000000000000000000 ) ) ;
#155 = DIRECTION ( 'NONE',  ( 0.0000000000000000000, 0.0000000000000000000, 1.000000000000000000 ) ) ;
#156 = PRODUCT ( 'camera_mount_2_Domyúlna_sldprt', 'camera_mount_2_Domyúlna_sldprt', '', ( #492 ) ) ;
#157 = AXIS2_PLACEMENT_3D ( 'NONE', #516, #188, #72 ) ;
#158 = CIRCLE ( 'NONE', #437, 4.999999999999999100 ) ;
#159 = APPROVAL_STATUS ( 'not_yet_approved' ) ;
#160 = ORIENTED_EDGE ( 'NONE', *, *, #668, .T. ) ;
#161 = ORIENTED_EDGE ( 'NONE', *, *, #51, .T. ) ;
#162 = EDGE_CURVE ( 'NONE', #349, #268, #667, .T. ) ;
#163 = VECTOR ( 'NONE', #581, 1000.000000000000000 ) ;
#164 = ORIENTED_EDGE ( 'NONE', *, *, #82, .T. ) ;
#165 = ORIENTED_EDGE ( 'NONE', *, *, #25, .F. ) ;
#166 = EDGE_CURVE ( 'NONE', #564, #85, #97, .T. ) ;
#167 = ORIENTED_EDGE ( 'NONE', *, *, #56, .F. ) ;
#168 = LINE ( 'NONE', #240, #23 ) ;
#169 = ADVANCED_FACE ( 'NONE', ( #355 ), #250, .F. ) ;
#170 = CALENDAR_DATE ( 2018, 5, 11 ) ;
#171 = CARTESIAN_POINT ( 'NONE',  ( -12.50000000000000000, 0.0000000000000000000, 4.000000000000000000 ) ) ;
#172 = VERTEX_POINT ( 'NONE', #295 ) ;
#173 = VECTOR ( 'NONE', #420, 1000.000000000000000 ) ;
#174 = CARTESIAN_POINT ( 'NONE',  ( 7.500000000000000900, 59.00000000000000700, 4.000000000000000000 ) ) ;
#175 = EDGE_LOOP ( 'NONE', ( #489, #15, #587, #476 ) ) ;
#176 = LINE ( 'NONE', #548, #102 ) ;
#177 = ORIENTED_EDGE ( 'NONE', *, *, #381, .F. ) ;
#178 = EDGE_CURVE ( 'NONE', #172, #502, #209, .T. ) ;
#179 = EDGE_CURVE ( 'NONE', #266, #564, #329, .T. ) ;
#180 = DIRECTION ( 'NONE',  ( -0.0000000000000000000, -0.0000000000000000000, -1.000000000000000000 ) ) ;
#181 = ADVANCED_FACE ( 'NONE', ( #386 ), #310, .F. ) ;
#182 = ORIENTED_EDGE ( 'NONE', *, *, #247, .F. ) ;
#183 = DIRECTION ( 'NONE',  ( -0.0000000000000000000, -0.0000000000000000000, -1.000000000000000000 ) ) ;
#184 = ORIENTED_EDGE ( 'NONE', *, *, #332, .F. ) ;
#185 = ORIENTED_EDGE ( 'NONE', *, *, #166, .F. ) ;
#186 = DIRECTION ( 'NONE',  ( 0.0000000000000000000, 0.0000000000000000000, 1.000000000000000000 ) ) ;
#187 = CARTESIAN_POINT ( 'NONE',  ( -7.499999999999965400, 64.00000000000000000, 4.000000000000000000 ) ) ;
#188 = DIRECTION ( 'NONE',  ( -1.000000000000000000, 1.254016970585644000E-016, 0.0000000000000000000 ) ) ;
#189 = DIRECTION ( 'NONE',  ( -0.0000000000000000000, -0.0000000000000000000, -1.000000000000000000 ) ) ;
#190 = AXIS2_PLACEMENT_3D ( 'NONE', #687, #472, #529 ) ;
#191 = CARTESIAN_POINT ( 'NONE',  ( -7.499999999999965400, 64.00000000000000000, 0.0000000000000000000 ) ) ;
#192 = ORIENTED_EDGE ( 'NONE', *, *, #369, .T. ) ;
#193 = ORIENTED_EDGE ( 'NONE', *, *, #713, .F. ) ;
#194 = CARTESIAN_POINT ( 'NONE',  ( -11.49999999999999800, 35.75000000000000000, 4.000000000000000000 ) ) ;
#195 = EDGE_CURVE ( 'NONE', #509, #221, #418, .T. ) ;
#196 = DIRECTION ( 'NONE',  ( -1.476360405086644600E-016, -1.000000000000000000, 0.0000000000000000000 ) ) ;
#197 = CIRCLE ( 'NONE', #535, 4.999999999999988500 ) ;
#198 = LINE ( 'NONE', #463, #727 ) ;
#199 = EDGE_CURVE ( 'NONE', #512, #65, #291, .T. ) ;
#200 = DIRECTION ( 'NONE',  ( -1.000000000000000000, 0.0000000000000000000, 0.0000000000000000000 ) ) ;
#201 = CARTESIAN_POINT ( 'NONE',  ( -12.50000000000000000, 58.99999999999997200, 4.000000000000000000 ) ) ;
#202 = CARTESIAN_POINT ( 'NONE',  ( 4.999999999999993800, 12.50000000000000500, 0.0000000000000000000 ) ) ;
#203 = VERTEX_POINT ( 'NONE', #446 ) ;
#204 = DIRECTION ( 'NONE',  ( 1.000000000000000000, 0.0000000000000000000, 0.0000000000000000000 ) ) ;
#205 = ORIENTED_EDGE ( 'NONE', *, *, #210, .F. ) ;
#206 = LINE ( 'NONE', #194, #115 ) ;
#207 = CARTESIAN_POINT ( 'NONE',  ( -7.500000000000000900, 59.00000000000000700, 4.000000000000000000 ) ) ;
#208 = ORIENTED_EDGE ( 'NONE', *, *, #599, .T. ) ;
#209 = LINE ( 'NONE', #27, #635 ) ;
#210 = EDGE_CURVE ( 'NONE', #527, #564, #74, .T. ) ;
#211 = DIRECTION ( 'NONE',  ( 0.0000000000000000000, 0.0000000000000000000, 1.000000000000000000 ) ) ;
#212 = LOCAL_TIME ( 17, 57, 49.00000000000000000, #582 ) ;
#213 = ORIENTED_EDGE ( 'NONE', *, *, #82, .F. ) ;
#214 = ORIENTED_EDGE ( 'NONE', *, *, #270, .F. ) ;
#215 = DIRECTION ( 'NONE',  ( 1.000000000000000000, 0.0000000000000000000, 0.0000000000000000000 ) ) ;
#216 = ORIENTED_EDGE ( 'NONE', *, *, #49, .F. ) ;
#217 = ADVANCED_FACE ( 'NONE', ( #274 ), #330, .T. ) ;
#218 = AXIS2_PLACEMENT_3D ( 'NONE', #718, #52, #215 ) ;
#219 = ORIENTED_EDGE ( 'NONE', *, *, #712, .T. ) ;
#220 = VECTOR ( 'NONE', #263, 1000.000000000000000 ) ;
#221 = VERTEX_POINT ( 'NONE', #191 ) ;
#222 = FACE_OUTER_BOUND ( 'NONE', #50, .T. ) ;
#223 = VECTOR ( 'NONE', #135, 1000.000000000000000 ) ;
#224 = DESIGN_CONTEXT ( 'detailed design', #604, 'design' ) ;
#225 = APPROVAL_STATUS ( 'not_yet_approved' ) ;
#226 = ADVANCED_FACE ( 'NONE', ( #63 ), #510, .F. ) ;
#227 = CARTESIAN_POINT ( 'NONE',  ( -4.999999999999999100, 53.99999999999999300, 4.000000000000000000 ) ) ;
#228 = PERSON_AND_ORGANIZATION_ROLE ( 'creator' ) ;
#229 = ORIENTED_EDGE ( 'NONE', *, *, #725, .T. ) ;
#230 = AXIS2_PLACEMENT_3D ( 'NONE', #21, #186, #204 ) ;
#231 = VECTOR ( 'NONE', #351, 1000.000000000000000 ) ;
#232 = DIRECTION ( 'NONE',  ( -1.000000000000000000, 7.381802025433222800E-017, 0.0000000000000000000 ) ) ;
#233 = DIRECTION ( 'NONE',  ( -1.000000000000000000, 0.0000000000000000000, 0.0000000000000000000 ) ) ;
#234 = LINE ( 'NONE', #43, #470 ) ;
#235 = ORIENTED_EDGE ( 'NONE', *, *, #106, .T. ) ;
#236 = EDGE_CURVE ( 'NONE', #309, #221, #496, .T. ) ;
#237 = ADVANCED_FACE ( 'NONE', ( #488 ), #520, .F. ) ;
#238 = DIRECTION ( 'NONE',  ( 7.381802025433222800E-017, 1.000000000000000000, -0.0000000000000000000 ) ) ;
#239 = CIRCLE ( 'NONE', #356, 5.000000000000000000 ) ;
#240 = CARTESIAN_POINT ( 'NONE',  ( 7.499999999999965400, 64.00000000000000000, 4.000000000000000000 ) ) ;
#241 = CYLINDRICAL_SURFACE ( 'NONE', #244, 1.250000000000001100 ) ;
#242 = DIRECTION ( 'NONE',  ( -0.0000000000000000000, -0.0000000000000000000, -1.000000000000000000 ) ) ;
#243 = CARTESIAN_POINT ( 'NONE',  ( 12.50000000000000000, 0.0000000000000000000, 4.000000000000000000 ) ) ;
#244 = AXIS2_PLACEMENT_3D ( 'NONE', #696, #303, #363 ) ;
#245 = DATE_AND_TIME ( #170, #109 ) ;
#246 = CARTESIAN_POINT ( 'NONE',  ( -12.50000000000000000, 58.99999999999997200, 4.000000000000000000 ) ) ;
#247 = EDGE_CURVE ( 'NONE', #299, #268, #206, .T. ) ;
#248 = ORIENTED_EDGE ( 'NONE', *, *, #148, .T. ) ;
#249 = CC_DESIGN_PERSON_AND_ORGANIZATION_ASSIGNMENT ( #331, #600, ( #156 ) ) ;
#250 = PLANE ( 'NONE',  #434 ) ;
#251 = ORIENTED_EDGE ( 'NONE', *, *, #379, .T. ) ;
#252 = DIRECTION ( 'NONE',  ( -1.000000000000000000, 0.0000000000000000000, 0.0000000000000000000 ) ) ;
#253 = CARTESIAN_POINT ( 'NONE',  ( 11.49999999999999800, 12.25000000000000000, 4.000000000000000000 ) ) ;
#254 = DIRECTION ( 'NONE',  ( 1.476360405086644600E-016, 1.000000000000000000, 0.0000000000000000000 ) ) ;
#255 = CARTESIAN_POINT ( 'NONE',  ( 4.999999999999993800, 12.50000000000000500, 4.000000000000000000 ) ) ;
#256 = ORIENTED_EDGE ( 'NONE', *, *, #607, .T. ) ;
#257 = EDGE_LOOP ( 'NONE', ( #279, #654, #392, #508 ) ) ;
#258 = CIRCLE ( 'NONE', #304, 1.250000000000001100 ) ;
#259 = CC_DESIGN_PERSON_AND_ORGANIZATION_ASSIGNMENT ( #327, #5, ( #429 ) ) ;
#260 = AXIS2_PLACEMENT_3D ( 'NONE', #473, #525, #86 ) ;
#261 = LINE ( 'NONE', #414, #281 ) ;
#262 = EDGE_CURVE ( 'NONE', #92, #646, #197, .T. ) ;
#263 = DIRECTION ( 'NONE',  ( -0.0000000000000000000, -0.0000000000000000000, -1.000000000000000000 ) ) ;
#264 = APPROVAL_ROLE ( '' ) ;
#265 = CALENDAR_DATE ( 2018, 5, 11 ) ;
#266 = VERTEX_POINT ( 'NONE', #460 ) ;
#267 = EDGE_LOOP ( 'NONE', ( #87, #665, #382, #396 ) ) ;
#268 = VERTEX_POINT ( 'NONE', #573 ) ;
#269 = EDGE_CURVE ( 'NONE', #203, #287, #530, .T. ) ;
#270 = EDGE_CURVE ( 'NONE', #299, #700, #385, .T. ) ;
#271 = ORIENTED_EDGE ( 'NONE', *, *, #455, .F. ) ;
#272 = ORIENTED_EDGE ( 'NONE', *, *, #162, .F. ) ;
#273 = LINE ( 'NONE', #313, #438 ) ;
#274 = FACE_OUTER_BOUND ( 'NONE', #684, .T. ) ;
#275 =( NAMED_UNIT ( * ) PLANE_ANGLE_UNIT ( ) SI_UNIT ( $, .RADIAN. ) );
#276 = CALENDAR_DATE ( 2018, 5, 11 ) ;
#277 = EDGE_CURVE ( 'NONE', #376, #720, #726, .T. ) ;
#278 = ADVANCED_FACE ( 'NONE', ( #96 ), #146, .F. ) ;
#279 = ORIENTED_EDGE ( 'NONE', *, *, #195, .T. ) ;
#280 = ORIENTED_EDGE ( 'NONE', *, *, #51, .F. ) ;
#281 = VECTOR ( 'NONE', #637, 1000.000000000000000 ) ;
#282 = SHAPE_DEFINITION_REPRESENTATION ( #542, #576 ) ;
#283 = CARTESIAN_POINT ( 'NONE',  ( 4.999999999999999100, 53.99999999999999300, 4.000000000000000000 ) ) ;
#284 = CALENDAR_DATE ( 2018, 5, 11 ) ;
#285 = PLANE ( 'NONE',  #412 ) ;
#286 = ORIENTED_EDGE ( 'NONE', *, *, #703, .F. ) ;
#287 = VERTEX_POINT ( 'NONE', #297 ) ;
#288 = DIRECTION ( 'NONE',  ( 0.0000000000000000000, 0.0000000000000000000, 1.000000000000000000 ) ) ;
#289 = CYLINDRICAL_SURFACE ( 'NONE', #380, 1.250000000000001100 ) ;
#290 = PLANE ( 'NONE',  #389 ) ;
#291 = LINE ( 'NONE', #421, #709 ) ;
#292 = CYLINDRICAL_SURFACE ( 'NONE', #544, 4.999999999999999100 ) ;
#293 = PLANE ( 'NONE',  #157 ) ;
#294 = CARTESIAN_POINT ( 'NONE',  ( -4.999999999999999100, 53.99999999999999300, 4.000000000000000000 ) ) ;
#295 = CARTESIAN_POINT ( 'NONE',  ( 12.50000000000000000, 58.99999999999997200, 4.000000000000000000 ) ) ;
#296 = VECTOR ( 'NONE', #706, 1000.000000000000000 ) ;
#297 = CARTESIAN_POINT ( 'NONE',  ( 8.999999999999994700, 12.25000000000000000, 4.000000000000000000 ) ) ;
#298 = DIRECTION ( 'NONE',  ( -0.0000000000000000000, 0.0000000000000000000, -1.000000000000000000 ) ) ;
#299 = VERTEX_POINT ( 'NONE', #526 ) ;
#300 = CARTESIAN_POINT ( 'NONE',  ( -4.999999999999994700, 12.50000000000000400, 4.000000000000000000 ) ) ;
#301 = VECTOR ( 'NONE', #628, 1000.000000000000000 ) ;
#302 = CARTESIAN_POINT ( 'NONE',  ( -10.24999999999999600, 12.25000000000000000, 4.000000000000000000 ) ) ;
#303 = DIRECTION ( 'NONE',  ( -0.0000000000000000000, -0.0000000000000000000, -1.000000000000000000 ) ) ;
#304 = AXIS2_PLACEMENT_3D ( 'NONE', #710, #704, #200 ) ;
#305 = CARTESIAN_POINT ( 'NONE',  ( 12.50000000000000000, 58.99999999999997200, 0.0000000000000000000 ) ) ;
#306 = EDGE_LOOP ( 'NONE', ( #165, #551, #545, #653 ) ) ;
#307 = EDGE_CURVE ( 'NONE', #398, #103, #624, .T. ) ;
#308 = LINE ( 'NONE', #150, #144 ) ;
#309 = VERTEX_POINT ( 'NONE', #316 ) ;
#310 = PLANE ( 'NONE',  #518 ) ;
#311 = ORIENTED_EDGE ( 'NONE', *, *, #18, .F. ) ;
#312 = VECTOR ( 'NONE', #238, 1000.000000000000000 ) ;
#313 = CARTESIAN_POINT ( 'NONE',  ( -4.999999999999999100, 53.99999999999999300, 0.0000000000000000000 ) ) ;
#314 = LINE ( 'NONE', #246, #540 ) ;
#315 = DIRECTION ( 'NONE',  ( -1.000000000000000000, 0.0000000000000000000, 0.0000000000000000000 ) ) ;
#316 = CARTESIAN_POINT ( 'NONE',  ( -7.499999999999965400, 64.00000000000000000, 4.000000000000000000 ) ) ;
#317 = CARTESIAN_POINT ( 'NONE',  ( -7.500000000000000900, 59.00000000000000700, 0.0000000000000000000 ) ) ;
#318 = APPROVAL_PERSON_ORGANIZATION ( #723, #133, #670 ) ;
#319 = DIRECTION ( 'NONE',  ( -1.000000000000000000, 0.0000000000000000000, 0.0000000000000000000 ) ) ;
#320 = VERTEX_POINT ( 'NONE', #201 ) ;
#321 = ORIENTED_EDGE ( 'NONE', *, *, #162, .T. ) ;
#322 = CIRCLE ( 'NONE', #401, 1.250000000000001100 ) ;
#323 = ADVANCED_FACE ( 'NONE', ( #456 ), #328, .F. ) ;
#324 = APPROVAL_ROLE ( '' ) ;
#325 = CC_DESIGN_DATE_AND_TIME_ASSIGNMENT ( #26, #430, ( #46 ) ) ;
#326 = CIRCLE ( 'NONE', #218, 4.999999999999988500 ) ;
#327 = PERSON_AND_ORGANIZATION ( #719, #445 ) ;
#328 = CYLINDRICAL_SURFACE ( 'NONE', #426, 4.999999999999999100 ) ;
#329 = LINE ( 'NONE', #253, #54 ) ;
#330 = PLANE ( 'NONE',  #554 ) ;
#331 = PERSON_AND_ORGANIZATION ( #719, #445 ) ;
#332 = EDGE_CURVE ( 'NONE', #203, #39, #176, .T. ) ;
#333 = EDGE_CURVE ( 'NONE', #61, #334, #655, .T. ) ;
#334 = VERTEX_POINT ( 'NONE', #154 ) ;
#335 = LINE ( 'NONE', #57, #312 ) ;
#336 = ORIENTED_EDGE ( 'NONE', *, *, #119, .F. ) ;
#337 = CARTESIAN_POINT ( 'NONE',  ( 7.500000000000000900, 59.00000000000000700, 0.0000000000000000000 ) ) ;
#338 = DIRECTION ( 'NONE',  ( 0.0000000000000000000, 0.0000000000000000000, 1.000000000000000000 ) ) ;
#339 = ADVANCED_FACE ( 'NONE', ( #480 ), #499, .T. ) ;
#340 = PERSON_AND_ORGANIZATION ( #719, #445 ) ;
#341 = AXIS2_PLACEMENT_3D ( 'NONE', #352, #403, #75 ) ;
#342 = EDGE_LOOP ( 'NONE', ( #251, #111, #100, #151 ) ) ;
#343 = ORIENTED_EDGE ( 'NONE', *, *, #1, .T. ) ;
#344 = EDGE_CURVE ( 'NONE', #309, #320, #239, .T. ) ;
#345 = VECTOR ( 'NONE', #531, 1000.000000000000000 ) ;
#346 = VECTOR ( 'NONE', #183, 1000.000000000000000 ) ;
#347 = EDGE_CURVE ( 'NONE', #172, #586, #701, .T. ) ;
#348 = COORDINATED_UNIVERSAL_TIME_OFFSET ( 1, 0, .AHEAD. ) ;
#349 = VERTEX_POINT ( 'NONE', #387 ) ;
#350 = VERTEX_POINT ( 'NONE', #474 ) ;
#351 = DIRECTION ( 'NONE',  ( -1.000000000000000000, -0.0000000000000000000, -0.0000000000000000000 ) ) ;
#352 = CARTESIAN_POINT ( 'NONE',  ( -10.24999999999999600, 12.25000000000000000, 4.000000000000000000 ) ) ;
#353 = VECTOR ( 'NONE', #694, 1000.000000000000000 ) ;
#354 = CARTESIAN_POINT ( 'NONE',  ( -10.24999999999999800, 35.75000000000000000, 4.000000000000000000 ) ) ;
#355 = FACE_OUTER_BOUND ( 'NONE', #62, .T. ) ;
#356 = AXIS2_PLACEMENT_3D ( 'NONE', #638, #465, #411 ) ;
#357 = CARTESIAN_POINT ( 'NONE',  ( -11.49999999999999800, 35.75000000000000000, 4.000000000000000000 ) ) ;
#358 = APPROVAL ( #159, 'UNSPECIFIED' ) ;
#359 = EDGE_LOOP ( 'NONE', ( #121, #658, #505, #73, #365, #374 ) ) ;
#360 = ORIENTED_EDGE ( 'NONE', *, *, #381, .T. ) ;
#361 = CARTESIAN_POINT ( 'NONE',  ( 11.49999999999999800, 35.75000000000000000, 4.000000000000000000 ) ) ;
#362 = EDGE_LOOP ( 'NONE', ( #47, #321, #132, #433 ) ) ;
#363 = DIRECTION ( 'NONE',  ( -1.000000000000000000, 0.0000000000000000000, 0.0000000000000000000 ) ) ;
#364 = CARTESIAN_POINT ( 'NONE',  ( -8.999999999999998200, 35.75000000000000000, 4.000000000000000000 ) ) ;
#365 = ORIENTED_EDGE ( 'NONE', *, *, #413, .T. ) ;
#366 = DIRECTION ( 'NONE',  ( -0.0000000000000000000, -0.0000000000000000000, -1.000000000000000000 ) ) ;
#367 = ORIENTED_EDGE ( 'NONE', *, *, #270, .T. ) ;
#368 = EDGE_LOOP ( 'NONE', ( #514, #3, #660, #164 ) ) ;
#369 = EDGE_CURVE ( 'NONE', #41, #33, #378, .T. ) ;
#370 = LINE ( 'NONE', #149, #90 ) ;
#371 = LINE ( 'NONE', #300, #346 ) ;
#372 = DIRECTION ( 'NONE',  ( 1.476360405086644600E-016, -1.000000000000000000, 0.0000000000000000000 ) ) ;
#373 = PERSON_AND_ORGANIZATION ( #719, #445 ) ;
#374 = ORIENTED_EDGE ( 'NONE', *, *, #344, .T. ) ;
#375 = CARTESIAN_POINT ( 'NONE',  ( 11.49999999999999800, 35.75000000000000000, 4.000000000000000000 ) ) ;
#376 = VERTEX_POINT ( 'NONE', #171 ) ;
#377 = EDGE_CURVE ( 'NONE', #266, #724, #335, .T. ) ;
#378 = CIRCLE ( 'NONE', #617, 4.999999999999999100 ) ;
#379 = EDGE_CURVE ( 'NONE', #646, #398, #680, .T. ) ;
#380 = AXIS2_PLACEMENT_3D ( 'NONE', #302, #84, #126 ) ;
#381 = EDGE_CURVE ( 'NONE', #33, #400, #661, .T. ) ;
#382 = ORIENTED_EDGE ( 'NONE', *, *, #25, .T. ) ;
#383 = EDGE_LOOP ( 'NONE', ( #185, #11, #679, #219 ) ) ;
#384 = EDGE_CURVE ( 'NONE', #320, #376, #666, .T. ) ;
#385 = LINE ( 'NONE', #524, #353 ) ;
#386 = FACE_OUTER_BOUND ( 'NONE', #708, .T. ) ;
#387 = CARTESIAN_POINT ( 'NONE',  ( -8.999999999999998200, 35.75000000000000000, 0.0000000000000000000 ) ) ;
#388 = DIRECTION ( 'NONE',  ( 1.000000000000000000, 0.0000000000000000000, 0.0000000000000000000 ) ) ;
#389 = AXIS2_PLACEMENT_3D ( 'NONE', #16, #14, #397 ) ;
#390 = PERSON_AND_ORGANIZATION_ROLE ( 'classification_officer' ) ;
#391 = ADVANCED_FACE ( 'NONE', ( #222 ), #468, .T. ) ;
#392 = ORIENTED_EDGE ( 'NONE', *, *, #413, .F. ) ;
#393 = DIRECTION ( 'NONE',  ( -3.762050911756932500E-016, 1.000000000000000000, 0.0000000000000000000 ) ) ;
#394 = VECTOR ( 'NONE', #467, 1000.000000000000000 ) ;
#395 = DIRECTION ( 'NONE',  ( 0.0000000000000000000, 0.0000000000000000000, 1.000000000000000000 ) ) ;
#396 = ORIENTED_EDGE ( 'NONE', *, *, #332, .T. ) ;
#397 = DIRECTION ( 'NONE',  ( -1.000000000000000000, 0.0000000000000000000, 0.0000000000000000000 ) ) ;
#398 = VERTEX_POINT ( 'NONE', #522 ) ;
#399 = CC_DESIGN_APPROVAL ( #133, ( #429 ) ) ;
#400 = VERTEX_POINT ( 'NONE', #695 ) ;
#401 = AXIS2_PLACEMENT_3D ( 'NONE', #454, #395, #566 ) ;
#402 = ADVANCED_FACE ( 'NONE', ( #547 ), #293, .T. ) ;
#403 = DIRECTION ( 'NONE',  ( 0.0000000000000000000, 0.0000000000000000000, 1.000000000000000000 ) ) ;
#404 = DIRECTION ( 'NONE',  ( 0.0000000000000000000, 1.000000000000000000, 0.0000000000000000000 ) ) ;
#405 = DIRECTION ( 'NONE',  ( -1.000000000000000000, 0.0000000000000000000, 0.0000000000000000000 ) ) ;
#406 = ORIENTED_EDGE ( 'NONE', *, *, #668, .F. ) ;
#407 = EDGE_LOOP ( 'NONE', ( #20, #656, #42, #193, #513, #406 ) ) ;
#408 = VECTOR ( 'NONE', #469, 1000.000000000000000 ) ;
#409 = CARTESIAN_POINT ( 'NONE',  ( -7.499999999999965400, 64.00000000000000000, 4.000000000000000000 ) ) ;
#410 = DIRECTION ( 'NONE',  ( 1.000000000000000000, 0.0000000000000000000, 0.0000000000000000000 ) ) ;
#411 = DIRECTION ( 'NONE',  ( -1.000000000000000000, 0.0000000000000000000, 0.0000000000000000000 ) ) ;
#412 = AXIS2_PLACEMENT_3D ( 'NONE', #116, #232, #118 ) ;
#413 = EDGE_CURVE ( 'NONE', #586, #309, #504, .T. ) ;
#414 = CARTESIAN_POINT ( 'NONE',  ( -8.999999999999998200, 35.75000000000000000, 0.0000000000000000000 ) ) ;
#415 = EDGE_LOOP ( 'NONE', ( #22, #336, #229, #122 ) ) ;
#416 = AXIS2_PLACEMENT_3D ( 'NONE', #557, #338, #388 ) ;
#417 = CARTESIAN_POINT ( 'NONE',  ( 12.50000000000000000, 0.0000000000000000000, 4.000000000000000000 ) ) ;
#418 = LINE ( 'NONE', #578, #634 ) ;
#419 = VECTOR ( 'NONE', #64, 1000.000000000000000 ) ;
#420 = DIRECTION ( 'NONE',  ( -0.0000000000000000000, -0.0000000000000000000, -1.000000000000000000 ) ) ;
#421 = CARTESIAN_POINT ( 'NONE',  ( 12.50000000000000000, 0.0000000000000000000, 4.000000000000000000 ) ) ;
#422 = CARTESIAN_POINT ( 'NONE',  ( -12.50000000000000000, 0.0000000000000000000, 0.0000000000000000000 ) ) ;
#423 = DATE_AND_TIME ( #276, #639 ) ;
#424 = DIRECTION ( 'NONE',  ( -0.0000000000000000000, -0.0000000000000000000, -1.000000000000000000 ) ) ;
#425 = EDGE_LOOP ( 'NONE', ( #83, #216, #643, #613 ) ) ;
#426 = AXIS2_PLACEMENT_3D ( 'NONE', #478, #366, #104 ) ;
#427 = CYLINDRICAL_SURFACE ( 'NONE', #610, 5.000000000000000000 ) ;
#428 = FACE_OUTER_BOUND ( 'NONE', #267, .T. ) ;
#429 = PRODUCT_DEFINITION_FORMATION_WITH_SPECIFIED_SOURCE ( 'ANY', '', #156, .NOT_KNOWN. ) ;
#430 = DATE_TIME_ROLE ( 'creation_date' ) ;
#431 = COORDINATED_UNIVERSAL_TIME_OFFSET ( 1, 0, .AHEAD. ) ;
#432 = ORIENTED_EDGE ( 'NONE', *, *, #630, .T. ) ;
#433 = ORIENTED_EDGE ( 'NONE', *, *, #333, .T. ) ;
#434 = AXIS2_PLACEMENT_3D ( 'NONE', #532, #410, #137 ) ;
#435 = LOCAL_TIME ( 17, 57, 49.00000000000000000, #611 ) ;
#436 = EDGE_LOOP ( 'NONE', ( #160, #605, #616, #633 ) ) ;
#437 = AXIS2_PLACEMENT_3D ( 'NONE', #337, #155, #507 ) ;
#438 = VECTOR ( 'NONE', #588, 1000.000000000000000 ) ;
#439 = DIRECTION ( 'NONE',  ( 0.0000000000000000000, 0.0000000000000000000, 1.000000000000000000 ) ) ;
#440 = ADVANCED_FACE ( 'NONE', ( #13, #608, #589, #569 ), #636, .F. ) ;
#441 = APPLICATION_PROTOCOL_DEFINITION ( 'international standard', 'config_control_design', 1994, #604 ) ;
#442 = CIRCLE ( 'NONE', #230, 1.250000000000001100 ) ;
#443 = CARTESIAN_POINT ( 'NONE',  ( -12.50000000000000000, 0.0000000000000000000, 4.000000000000000000 ) ) ;
#444 = ORIENTED_EDGE ( 'NONE', *, *, #199, .T. ) ;
#445 = ORGANIZATION ( 'UNSPECIFIED', 'UNSPECIFIED', '' ) ;
#446 = CARTESIAN_POINT ( 'NONE',  ( 8.999999999999998200, 35.75000000000000000, 4.000000000000000000 ) ) ;
#447 = AXIS2_PLACEMENT_3D ( 'NONE', #640, #242, #405 ) ;
#448 = DIRECTION ( 'NONE',  ( -0.0000000000000000000, -0.0000000000000000000, -1.000000000000000000 ) ) ;
#449 = ORIENTED_EDGE ( 'NONE', *, *, #178, .F. ) ;
#450 = FACE_OUTER_BOUND ( 'NONE', #257, .T. ) ;
#451 = CARTESIAN_POINT ( 'NONE',  ( 1.102479254703360300E-015, 53.99999999999999300, 4.000000000000000000 ) ) ;
#452 = CC_DESIGN_PERSON_AND_ORGANIZATION_ASSIGNMENT ( #59, #228, ( #429 ) ) ;
#453 = EDGE_CURVE ( 'NONE', #85, #39, #597, .T. ) ;
#454 = CARTESIAN_POINT ( 'NONE',  ( 10.24999999999999800, 35.75000000000000000, 4.000000000000000000 ) ) ;
#455 = EDGE_CURVE ( 'NONE', #350, #299, #442, .T. ) ;
#456 = FACE_OUTER_BOUND ( 'NONE', #550, .T. ) ;
#457 = CYLINDRICAL_SURFACE ( 'NONE', #567, 1.250000000000001100 ) ;
#458 = DIRECTION ( 'NONE',  ( 3.762050911756932500E-016, -1.000000000000000000, 0.0000000000000000000 ) ) ;
#459 = ADVANCED_FACE ( 'NONE', ( #124 ), #289, .F. ) ;
#460 = CARTESIAN_POINT ( 'NONE',  ( 11.49999999999999600, 12.25000000000000400, 4.000000000000000000 ) ) ;
#461 = DIRECTION ( 'NONE',  ( -0.0000000000000000000, -0.0000000000000000000, -1.000000000000000000 ) ) ;
#462 = CARTESIAN_POINT ( 'NONE',  ( -7.500000000000000900, 59.00000000000000700, 4.000000000000000000 ) ) ;
#463 = CARTESIAN_POINT ( 'NONE',  ( 8.999999999999994700, 12.25000000000000000, 4.000000000000000000 ) ) ;
#464 = LINE ( 'NONE', #690, #153 ) ;
#465 = DIRECTION ( 'NONE',  ( 0.0000000000000000000, 0.0000000000000000000, 1.000000000000000000 ) ) ;
#466 = AXIS2_PLACEMENT_3D ( 'NONE', #2, #439, #556 ) ;
#467 = DIRECTION ( 'NONE',  ( -0.0000000000000000000, -0.0000000000000000000, -1.000000000000000000 ) ) ;
#468 = PLANE ( 'NONE',  #8 ) ;
#469 = DIRECTION ( 'NONE',  ( -0.0000000000000000000, -0.0000000000000000000, -1.000000000000000000 ) ) ;
#470 = VECTOR ( 'NONE', #40, 1000.000000000000000 ) ;
#471 = PERSON_AND_ORGANIZATION ( #719, #445 ) ;
#472 = DIRECTION ( 'NONE',  ( 0.0000000000000000000, 0.0000000000000000000, 1.000000000000000000 ) ) ;
#473 = CARTESIAN_POINT ( 'NONE',  ( -10.24999999999999800, 35.75000000000000000, 0.0000000000000000000 ) ) ;
#474 = CARTESIAN_POINT ( 'NONE',  ( -8.999999999999998200, 35.75000000000000000, 4.000000000000000000 ) ) ;
#475 = CARTESIAN_POINT ( 'NONE',  ( 8.999999999999994700, 12.25000000000000000, 0.0000000000000000000 ) ) ;
#476 = ORIENTED_EDGE ( 'NONE', *, *, #210, .T. ) ;
#477 = DIRECTION ( 'NONE',  ( -0.0000000000000000000, -0.0000000000000000000, -1.000000000000000000 ) ) ;
#478 = CARTESIAN_POINT ( 'NONE',  ( 1.102479254703360300E-015, 53.99999999999999300, 4.000000000000000000 ) ) ;
#479 = ORIENTED_EDGE ( 'NONE', *, *, #379, .F. ) ;
#480 = FACE_OUTER_BOUND ( 'NONE', #663, .T. ) ;
#481 = DIRECTION ( 'NONE',  ( 0.0000000000000000000, -1.000000000000000000, 0.0000000000000000000 ) ) ;
#482 = LINE ( 'NONE', #626, #571 ) ;
#483 = CARTESIAN_POINT ( 'NONE',  ( 4.999999999999999100, 53.99999999999999300, 4.000000000000000000 ) ) ;
#484 = DIRECTION ( 'NONE',  ( -0.0000000000000000000, -0.0000000000000000000, -1.000000000000000000 ) ) ;
#485 = EDGE_CURVE ( 'NONE', #6, #720, #631, .T. ) ;
#486 = DIRECTION ( 'NONE',  ( 0.0000000000000000000, -0.0000000000000000000, -1.000000000000000000 ) ) ;
#487 = EDGE_LOOP ( 'NONE', ( #716, #280, #614, #177 ) ) ;
#488 = FACE_OUTER_BOUND ( 'NONE', #436, .T. ) ;
#489 = ORIENTED_EDGE ( 'NONE', *, *, #166, .T. ) ;
#490 = PRODUCT_RELATED_PRODUCT_CATEGORY ( 'detail', '', ( #156 ) ) ;
#491 = LINE ( 'NONE', #19, #419 ) ;
#492 = MECHANICAL_CONTEXT ( 'NONE', #615, 'mechanical' ) ;
#493 = CALENDAR_DATE ( 2018, 5, 11 ) ;
#494 = DATE_TIME_ROLE ( 'classification_date' ) ;
#495 = VERTEX_POINT ( 'NONE', #534 ) ;
#496 = LINE ( 'NONE', #187, #345 ) ;
#497 = CC_DESIGN_SECURITY_CLASSIFICATION ( #672, ( #429 ) ) ;
#498 = EDGE_CURVE ( 'NONE', #103, #92, #273, .T. ) ;
#499 = PLANE ( 'NONE',  #130 ) ;
#500 = EDGE_CURVE ( 'NONE', #376, #512, #698, .T. ) ;
#501 = ORIENTED_EDGE ( 'NONE', *, *, #455, .T. ) ;
#502 = VERTEX_POINT ( 'NONE', #305 ) ;
#503 = ORIENTED_EDGE ( 'NONE', *, *, #119, .T. ) ;
#504 = LINE ( 'NONE', #409, #231 ) ;
#505 = ORIENTED_EDGE ( 'NONE', *, *, #9, .T. ) ;
#506 = AXIS2_PLACEMENT_3D ( 'NONE', #523, #288, #114 ) ;
#507 = DIRECTION ( 'NONE',  ( -1.000000000000000000, 0.0000000000000000000, 0.0000000000000000000 ) ) ;
#508 = ORIENTED_EDGE ( 'NONE', *, *, #49, .T. ) ;
#509 = VERTEX_POINT ( 'NONE', #37 ) ;
#510 = CYLINDRICAL_SURFACE ( 'NONE', #579, 1.250000000000001100 ) ;
#511 = DIRECTION ( 'NONE',  ( -1.476360405086644600E-016, 1.000000000000000000, -0.0000000000000000000 ) ) ;
#512 = VERTEX_POINT ( 'NONE', #417 ) ;
#513 = ORIENTED_EDGE ( 'NONE', *, *, #574, .F. ) ;
#514 = ORIENTED_EDGE ( 'NONE', *, *, #333, .F. ) ;
#515 = ADVANCED_FACE ( 'NONE', ( #552 ), #427, .T. ) ;
#516 = CARTESIAN_POINT ( 'NONE',  ( 4.999999999999999100, 53.99999999999999300, 4.000000000000000000 ) ) ;
#517 = VECTOR ( 'NONE', #91, 1000.000000000000000 ) ;
#518 = AXIS2_PLACEMENT_3D ( 'NONE', #243, #315, #35 ) ;
#519 = VECTOR ( 'NONE', #682, 1000.000000000000000 ) ;
#520 = PLANE ( 'NONE',  #113 ) ;
#521 = FACE_OUTER_BOUND ( 'NONE', #425, .T. ) ;
#522 = CARTESIAN_POINT ( 'NONE',  ( 4.999999999999999100, 53.99999999999999300, 0.0000000000000000000 ) ) ;
#523 = CARTESIAN_POINT ( 'NONE',  ( 7.500000000000000900, 59.00000000000000700, 4.000000000000000000 ) ) ;
#524 = CARTESIAN_POINT ( 'NONE',  ( -11.49999999999999800, 35.75000000000000000, 4.000000000000000000 ) ) ;
#525 = DIRECTION ( 'NONE',  ( 0.0000000000000000000, 0.0000000000000000000, 1.000000000000000000 ) ) ;
#526 = CARTESIAN_POINT ( 'NONE',  ( -11.49999999999999800, 35.75000000000000000, 4.000000000000000000 ) ) ;
#527 = VERTEX_POINT ( 'NONE', #475 ) ;
#528 = CIRCLE ( 'NONE', #36, 5.000000000000000000 ) ;
#529 = DIRECTION ( 'NONE',  ( -1.000000000000000000, 0.0000000000000000000, 0.0000000000000000000 ) ) ;
#530 = LINE ( 'NONE', #70, #539 ) ;
#531 = DIRECTION ( 'NONE',  ( -0.0000000000000000000, -0.0000000000000000000, -1.000000000000000000 ) ) ;
#532 = CARTESIAN_POINT ( 'NONE',  ( -12.50000000000000000, 0.0000000000000000000, 4.000000000000000000 ) ) ;
#533 = CC_DESIGN_PERSON_AND_ORGANIZATION_ASSIGNMENT ( #471, #390, ( #672 ) ) ;
#534 = CARTESIAN_POINT ( 'NONE',  ( -8.999999999999994700, 12.25000000000000400, 4.000000000000000000 ) ) ;
#535 = AXIS2_PLACEMENT_3D ( 'NONE', #139, #632, #688 ) ;
#536 = CLOSED_SHELL ( 'NONE', ( #440, #55, #169, #237, #181, #17, #673, #515, #323, #339, #278, #402, #226, #391, #459, #217, #76, #561, #127, #60 ) ) ;
#537 = CARTESIAN_POINT ( 'NONE',  ( 4.999999999999993800, 12.50000000000000400, 4.000000000000000000 ) ) ;
#538 = ORIENTED_EDGE ( 'NONE', *, *, #236, .T. ) ;
#539 = VECTOR ( 'NONE', #78, 1000.000000000000000 ) ;
#540 = VECTOR ( 'NONE', #79, 1000.000000000000000 ) ;
#541 = CARTESIAN_POINT ( 'NONE',  ( 7.499999999999965400, 64.00000000000000000, 4.000000000000000000 ) ) ;
#542 = PRODUCT_DEFINITION_SHAPE ( 'NONE', 'NONE',  #46 ) ;
#543 = DATE_AND_TIME ( #284, #80 ) ;
#544 = AXIS2_PLACEMENT_3D ( 'NONE', #174, #123, #233 ) ;
#545 = ORIENTED_EDGE ( 'NONE', *, *, #599, .F. ) ;
#546 = DIRECTION ( 'NONE',  ( 1.000000000000000000, 0.0000000000000000000, 0.0000000000000000000 ) ) ;
#547 = FACE_OUTER_BOUND ( 'NONE', #31, .T. ) ;
#548 = CARTESIAN_POINT ( 'NONE',  ( 8.999999999999998200, 35.75000000000000000, 4.000000000000000000 ) ) ;
#549 = SECURITY_CLASSIFICATION_LEVEL ( 'unclassified' ) ;
#550 = EDGE_LOOP ( 'NONE', ( #147, #621, #192, #645 ) ) ;
#551 = ORIENTED_EDGE ( 'NONE', *, *, #377, .F. ) ;
#552 = FACE_OUTER_BOUND ( 'NONE', #12, .T. ) ;
#553 = ORIENTED_EDGE ( 'NONE', *, *, #570, .F. ) ;
#554 = AXIS2_PLACEMENT_3D ( 'NONE', #364, #674, #372 ) ;
#555 =( NAMED_UNIT ( * ) SI_UNIT ( $, .STERADIAN. ) SOLID_ANGLE_UNIT ( ) );
#556 = DIRECTION ( 'NONE',  ( -1.000000000000000000, 0.0000000000000000000, 0.0000000000000000000 ) ) ;
#557 = CARTESIAN_POINT ( 'NONE',  ( -10.24999999999999600, 12.25000000000000000, 0.0000000000000000000 ) ) ;
#558 = ORIENTED_EDGE ( 'NONE', *, *, #106, .F. ) ;
#559 = PERSON_AND_ORGANIZATION_ROLE ( 'creator' ) ;
#560 = ORIENTED_EDGE ( 'NONE', *, *, #498, .F. ) ;
#561 = ADVANCED_FACE ( 'NONE', ( #4 ), #38, .T. ) ;
#562 = EDGE_LOOP ( 'NONE', ( #271, #311, #167, #214 ) ) ;
#563 = CARTESIAN_POINT ( 'NONE',  ( -11.49999999999999800, 12.25000000000000000, 0.0000000000000000000 ) ) ;
#564 = VERTEX_POINT ( 'NONE', #648 ) ;
#565 = AXIS2_PLACEMENT_3D ( 'NONE', #29, #481, #486 ) ;
#566 = DIRECTION ( 'NONE',  ( -1.000000000000000000, 0.0000000000000000000, 0.0000000000000000000 ) ) ;
#567 = AXIS2_PLACEMENT_3D ( 'NONE', #683, #180, #129 ) ;
#568 = LINE ( 'NONE', #422, #517 ) ;
#569 = FACE_BOUND ( 'NONE', #306, .T. ) ;
#570 = EDGE_CURVE ( 'NONE', #629, #646, #69, .T. ) ;
#571 = VECTOR ( 'NONE', #511, 1000.000000000000000 ) ;
#572 = CARTESIAN_POINT ( 'NONE',  ( 8.999999999999998200, 35.75000000000000000, 0.0000000000000000000 ) ) ;
#573 = CARTESIAN_POINT ( 'NONE',  ( -11.49999999999999800, 35.75000000000000000, 0.0000000000000000000 ) ) ;
#574 = EDGE_CURVE ( 'NONE', #65, #502, #308, .T. ) ;
#575 = ORIENTED_EDGE ( 'NONE', *, *, #71, .F. ) ;
#576 = ADVANCED_BREP_SHAPE_REPRESENTATION ( 'camera_mount_2_Domyùlna_sldprt', ( #110, #606 ), #89 ) ;
#577 = CARTESIAN_POINT ( 'NONE',  ( -8.999999999999994700, 12.25000000000000000, 4.000000000000000000 ) ) ;
#578 = CARTESIAN_POINT ( 'NONE',  ( -7.499999999999965400, 64.00000000000000000, 0.0000000000000000000 ) ) ;
#579 = AXIS2_PLACEMENT_3D ( 'NONE', #354, #28, #252 ) ;
#580 = CIRCLE ( 'NONE', #341, 1.250000000000001100 ) ;
#581 = DIRECTION ( 'NONE',  ( 1.254016970585644000E-016, 1.000000000000000000, -0.0000000000000000000 ) ) ;
#582 = COORDINATED_UNIVERSAL_TIME_OFFSET ( 1, 0, .AHEAD. ) ;
#583 = DIRECTION ( 'NONE',  ( -0.0000000000000000000, -0.0000000000000000000, -1.000000000000000000 ) ) ;
#584 = DIRECTION ( 'NONE',  ( -1.000000000000000000, -0.0000000000000000000, -0.0000000000000000000 ) ) ;
#585 = DIRECTION ( 'NONE',  ( -1.000000000000000000, 0.0000000000000000000, 0.0000000000000000000 ) ) ;
#586 = VERTEX_POINT ( 'NONE', #541 ) ;
#587 = ORIENTED_EDGE ( 'NONE', *, *, #664, .T. ) ;
#588 = DIRECTION ( 'NONE',  ( 3.762050911756932500E-016, -1.000000000000000000, 0.0000000000000000000 ) ) ;
#589 = FACE_BOUND ( 'NONE', #487, .T. ) ;
#590 = LINE ( 'NONE', #627, #301 ) ;
#591 = DIRECTION ( 'NONE',  ( 1.000000000000000000, 0.0000000000000000000, 0.0000000000000000000 ) ) ;
#592 = CARTESIAN_POINT ( 'NONE',  ( 8.999999999999998200, 35.75000000000000000, 4.000000000000000000 ) ) ;
#593 = DIRECTION ( 'NONE',  ( 0.0000000000000000000, 0.0000000000000000000, 1.000000000000000000 ) ) ;
#594 = ORIENTED_EDGE ( 'NONE', *, *, #277, .F. ) ;
#595 = CC_DESIGN_APPROVAL ( #58, ( #46 ) ) ;
#596 = ORIENTED_EDGE ( 'NONE', *, *, #18, .T. ) ;
#597 = CIRCLE ( 'NONE', #190, 1.250000000000001100 ) ;
#598 = CARTESIAN_POINT ( 'NONE',  ( -12.50000000000000000, 0.0000000000000000000, 0.0000000000000000000 ) ) ;
#599 = EDGE_CURVE ( 'NONE', #287, #266, #258, .T. ) ;
#600 = PERSON_AND_ORGANIZATION_ROLE ( 'design_owner' ) ;
#601 = VECTOR ( 'NONE', #101, 1000.000000000000000 ) ;
#602 = APPROVAL_PERSON_ORGANIZATION ( #373, #358, #264 ) ;
#603 = DIRECTION ( 'NONE',  ( -0.0000000000000000000, -0.0000000000000000000, -1.000000000000000000 ) ) ;
#604 = APPLICATION_CONTEXT ( 'configuration controlled 3d designs of mechanical parts and assemblies' ) ;
#605 = ORIENTED_EDGE ( 'NONE', *, *, #199, .F. ) ;
#606 = AXIS2_PLACEMENT_3D ( 'NONE', #108, #211, #546 ) ;
#607 = EDGE_CURVE ( 'NONE', #41, #398, #707, .T. ) ;
#608 = FACE_OUTER_BOUND ( 'NONE', #359, .T. ) ;
#609 = FACE_BOUND ( 'NONE', #175, .T. ) ;
#610 = AXIS2_PLACEMENT_3D ( 'NONE', #207, #484, #585 ) ;
#611 = COORDINATED_UNIVERSAL_TIME_OFFSET ( 1, 0, .AHEAD. ) ;
#612 = EDGE_CURVE ( 'NONE', #350, #349, #66, .T. ) ;
#613 = ORIENTED_EDGE ( 'NONE', *, *, #178, .T. ) ;
#614 = ORIENTED_EDGE ( 'NONE', *, *, #725, .F. ) ;
#615 = APPLICATION_CONTEXT ( 'configuration controlled 3d designs of mechanical parts and assemblies' ) ;
#616 = ORIENTED_EDGE ( 'NONE', *, *, #500, .F. ) ;
#617 = AXIS2_PLACEMENT_3D ( 'NONE', #451, #618, #676 ) ;
#618 = DIRECTION ( 'NONE',  ( 0.0000000000000000000, 0.0000000000000000000, 1.000000000000000000 ) ) ;
#619 = LINE ( 'NONE', #375, #601 ) ;
#620 = APPROVAL_DATE_TIME ( #138, #133 ) ;
#621 = ORIENTED_EDGE ( 'NONE', *, *, #607, .F. ) ;
#622 = ORIENTED_EDGE ( 'NONE', *, *, #344, .F. ) ;
#623 = CARTESIAN_POINT ( 'NONE',  ( 12.50000000000000000, 0.0000000000000000000, 0.0000000000000000000 ) ) ;
#624 = CIRCLE ( 'NONE', #650, 4.999999999999999100 ) ;
#625 = FACE_OUTER_BOUND ( 'NONE', #652, .T. ) ;
#626 = CARTESIAN_POINT ( 'NONE',  ( -8.999999999999998200, 35.75000000000000000, 4.000000000000000000 ) ) ;
#627 = CARTESIAN_POINT ( 'NONE',  ( 12.50000000000000000, 0.0000000000000000000, 4.000000000000000000 ) ) ;
#628 = DIRECTION ( 'NONE',  ( 0.0000000000000000000, 1.000000000000000000, 0.0000000000000000000 ) ) ;
#629 = VERTEX_POINT ( 'NONE', #537 ) ;
#630 = EDGE_CURVE ( 'NONE', #221, #6, #528, .T. ) ;
#631 = LINE ( 'NONE', #34, #296 ) ;
#632 = DIRECTION ( 'NONE',  ( 0.0000000000000000000, 0.0000000000000000000, 1.000000000000000000 ) ) ;
#633 = ORIENTED_EDGE ( 'NONE', *, *, #277, .T. ) ;
#634 = VECTOR ( 'NONE', #584, 1000.000000000000000 ) ;
#635 = VECTOR ( 'NONE', #583, 1000.000000000000000 ) ;
#636 = PLANE ( 'NONE',  #44 ) ;
#637 = DIRECTION ( 'NONE',  ( -1.476360405086644600E-016, 1.000000000000000000, -0.0000000000000000000 ) ) ;
#638 = CARTESIAN_POINT ( 'NONE',  ( -7.500000000000000900, 59.00000000000000700, 4.000000000000000000 ) ) ;
#639 = LOCAL_TIME ( 17, 57, 49.00000000000000000, #348 ) ;
#640 = CARTESIAN_POINT ( 'NONE',  ( -6.350976936741761000E-015, 12.50000000000000500, 4.000000000000000000 ) ) ;
#641 = DIRECTION ( 'NONE',  ( -1.000000000000000000, 0.0000000000000000000, 0.0000000000000000000 ) ) ;
#642 = CARTESIAN_POINT ( 'NONE',  ( -4.999999999999994700, 12.50000000000000400, 0.0000000000000000000 ) ) ;
#643 = ORIENTED_EDGE ( 'NONE', *, *, #347, .F. ) ;
#644 = CARTESIAN_POINT ( 'NONE',  ( -11.49999999999999800, 12.25000000000000000, 4.000000000000000000 ) ) ;
#645 = ORIENTED_EDGE ( 'NONE', *, *, #71, .T. ) ;
#646 = VERTEX_POINT ( 'NONE', #202 ) ;
#647 = CARTESIAN_POINT ( 'NONE',  ( 1.102479254703360300E-015, 53.99999999999999300, 0.0000000000000000000 ) ) ;
#648 = CARTESIAN_POINT ( 'NONE',  ( 11.49999999999999800, 12.25000000000000000, 0.0000000000000000000 ) ) ;
#649 = DIRECTION ( 'NONE',  ( -0.0000000000000000000, -0.0000000000000000000, -1.000000000000000000 ) ) ;
#650 = AXIS2_PLACEMENT_3D ( 'NONE', #647, #702, #32 ) ;
#651 = DIRECTION ( 'NONE',  ( 0.0000000000000000000, 1.000000000000000000, 0.0000000000000000000 ) ) ;
#652 = EDGE_LOOP ( 'NONE', ( #205, #558, #208, #145 ) ) ;
#653 = ORIENTED_EDGE ( 'NONE', *, *, #269, .F. ) ;
#654 = ORIENTED_EDGE ( 'NONE', *, *, #236, .F. ) ;
#655 = CIRCLE ( 'NONE', #416, 1.250000000000001100 ) ;
#656 = ORIENTED_EDGE ( 'NONE', *, *, #630, .F. ) ;
#657 = PERSON_AND_ORGANIZATION ( #719, #445 ) ;
#658 = ORIENTED_EDGE ( 'NONE', *, *, #500, .T. ) ;
#659 = ORIENTED_EDGE ( 'NONE', *, *, #247, .T. ) ;
#660 = ORIENTED_EDGE ( 'NONE', *, *, #56, .T. ) ;
#661 = LINE ( 'NONE', #294, #53 ) ;
#662 = ORIENTED_EDGE ( 'NONE', *, *, #612, .T. ) ;
#663 = EDGE_LOOP ( 'NONE', ( #560, #575, #360, #503 ) ) ;
#664 = EDGE_CURVE ( 'NONE', #39, #527, #370, .T. ) ;
#665 = ORIENTED_EDGE ( 'NONE', *, *, #712, .F. ) ;
#666 = LINE ( 'NONE', #443, #519 ) ;
#667 = CIRCLE ( 'NONE', #260, 1.250000000000001100 ) ;
#668 = EDGE_CURVE ( 'NONE', #720, #65, #568, .T. ) ;
#669 =( LENGTH_UNIT ( ) NAMED_UNIT ( * ) SI_UNIT ( .MILLI., .METRE. ) );
#670 = APPROVAL_ROLE ( '' ) ;
#671 = APPROVAL_DATE_TIME ( #543, #358 ) ;
#672 = SECURITY_CLASSIFICATION ( '', '', #549 ) ;
#673 = ADVANCED_FACE ( 'NONE', ( #450 ), #98, .F. ) ;
#674 = DIRECTION ( 'NONE',  ( -1.000000000000000000, -1.476360405086644600E-016, 0.0000000000000000000 ) ) ;
#675 = ORIENTED_EDGE ( 'NONE', *, *, #574, .T. ) ;
#676 = DIRECTION ( 'NONE',  ( 1.000000000000000000, 0.0000000000000000000, 0.0000000000000000000 ) ) ;
#677 = VECTOR ( 'NONE', #649, 1000.000000000000000 ) ;
#678 = DIRECTION ( 'NONE',  ( 1.000000000000000000, 3.762050911756932500E-016, -0.0000000000000000000 ) ) ;
#679 = ORIENTED_EDGE ( 'NONE', *, *, #377, .T. ) ;
#680 = LINE ( 'NONE', #136, #163 ) ;
#681 = DIRECTION ( 'NONE',  ( -0.0000000000000000000, -0.0000000000000000000, -1.000000000000000000 ) ) ;
#682 = DIRECTION ( 'NONE',  ( -0.0000000000000000000, -1.000000000000000000, -0.0000000000000000000 ) ) ;
#683 = CARTESIAN_POINT ( 'NONE',  ( 10.24999999999999800, 35.75000000000000000, 4.000000000000000000 ) ) ;
#684 = EDGE_LOOP ( 'NONE', ( #68, #213, #596, #662 ) ) ;
#685 = AXIS2_PLACEMENT_3D ( 'NONE', #592, #143, #254 ) ;
#686 = ORIENTED_EDGE ( 'NONE', *, *, #384, .F. ) ;
#687 = CARTESIAN_POINT ( 'NONE',  ( 10.24999999999999800, 35.75000000000000000, 0.0000000000000000000 ) ) ;
#688 = DIRECTION ( 'NONE',  ( 1.000000000000000000, 0.0000000000000000000, 0.0000000000000000000 ) ) ;
#689 = VECTOR ( 'NONE', #189, 1000.000000000000000 ) ;
#690 = CARTESIAN_POINT ( 'NONE',  ( -11.49999999999999800, 12.25000000000000000, 4.000000000000000000 ) ) ;
#691 = DIRECTION ( 'NONE',  ( 1.000000000000000000, 7.381802025433222800E-017, -0.0000000000000000000 ) ) ;
#692 = COORDINATED_UNIVERSAL_TIME_OFFSET ( 1, 0, .AHEAD. ) ;
#693 = DIRECTION ( 'NONE',  ( -0.0000000000000000000, -0.0000000000000000000, -1.000000000000000000 ) ) ;
#694 = DIRECTION ( 'NONE',  ( 7.381802025433222800E-017, -1.000000000000000000, 0.0000000000000000000 ) ) ;
#695 = CARTESIAN_POINT ( 'NONE',  ( -4.999999999999994700, 12.50000000000000400, 4.000000000000000000 ) ) ;
#696 = CARTESIAN_POINT ( 'NONE',  ( 10.24999999999999600, 12.25000000000000000, 4.000000000000000000 ) ) ;
#697 = ORIENTED_EDGE ( 'NONE', *, *, #9, .F. ) ;
#698 = LINE ( 'NONE', #140, #152 ) ;
#699 = CARTESIAN_POINT ( 'NONE',  ( -12.50000000000000000, 0.0000000000000000000, 4.000000000000000000 ) ) ;
#700 = VERTEX_POINT ( 'NONE', #644 ) ;
#701 = CIRCLE ( 'NONE', #506, 4.999999999999999100 ) ;
#702 = DIRECTION ( 'NONE',  ( 0.0000000000000000000, 0.0000000000000000000, 1.000000000000000000 ) ) ;
#703 = EDGE_CURVE ( 'NONE', #268, #61, #234, .T. ) ;
#704 = DIRECTION ( 'NONE',  ( 0.0000000000000000000, 0.0000000000000000000, 1.000000000000000000 ) ) ;
#705 = ORIENTED_EDGE ( 'NONE', *, *, #612, .F. ) ;
#706 = DIRECTION ( 'NONE',  ( -0.0000000000000000000, -1.000000000000000000, -0.0000000000000000000 ) ) ;
#707 = LINE ( 'NONE', #483, #220 ) ;
#708 = EDGE_LOOP ( 'NONE', ( #675, #449, #697, #444 ) ) ;
#709 = VECTOR ( 'NONE', #424, 1000.000000000000000 ) ;
#710 = CARTESIAN_POINT ( 'NONE',  ( 10.24999999999999600, 12.25000000000000000, 4.000000000000000000 ) ) ;
#711 = FACE_OUTER_BOUND ( 'NONE', #383, .T. ) ;
#712 = EDGE_CURVE ( 'NONE', #724, #85, #619, .T. ) ;
#713 = EDGE_CURVE ( 'NONE', #502, #509, #158, .T. ) ;
#714 = APPROVAL_DATE_TIME ( #423, #58 ) ;
#715 = UNCERTAINTY_MEASURE_WITH_UNIT (LENGTH_MEASURE( 1.000000000000000100E-005 ), #669, 'distance_accuracy_value', 'NONE');
#716 = ORIENTED_EDGE ( 'NONE', *, *, #369, .F. ) ;
#717 = CC_DESIGN_DATE_AND_TIME_ASSIGNMENT ( #245, #494, ( #672 ) ) ;
#718 = CARTESIAN_POINT ( 'NONE',  ( -6.350976936741761000E-015, 12.50000000000000500, 4.000000000000000000 ) ) ;
#719 = PERSON ( 'UNSPECIFIED', 'UNSPECIFIED', 'UNSPECIFIED', ('UNSPECIFIED'), ('UNSPECIFIED'), ('UNSPECIFIED') ) ;
#720 = VERTEX_POINT ( 'NONE', #598 ) ;
#721 = LINE ( 'NONE', #577, #408 ) ;
#722 = APPLICATION_PROTOCOL_DEFINITION ( 'international standard', 'config_control_design', 1994, #615 ) ;
#723 = PERSON_AND_ORGANIZATION ( #719, #445 ) ;
#724 = VERTEX_POINT ( 'NONE', #361 ) ;
#725 = EDGE_CURVE ( 'NONE', #400, #629, #326, .T. ) ;
#726 = LINE ( 'NONE', #81, #394 ) ;
#727 = VECTOR ( 'NONE', #477, 1000.000000000000000 ) ;
ENDSEC;
END-ISO-10303-21;
