ISO-10303-21;
HEADER;
FILE_DESCRIPTION (( 'STEP AP203' ),
    '1' );
FILE_NAME ('camera_mount_1_Domyúlna_sldprt.STEP',
    '2018-11-05T16:57:48',
    ( '' ),
    ( '' ),
    'SwSTEP 2.0',
    'SolidWorks 2016',
    '' );
FILE_SCHEMA (( 'CONFIG_CONTROL_DESIGN' ));
ENDSEC;

DATA;
#1 = DIRECTION ( 'NONE',  ( -0.0000000000000000000, -0.0000000000000000000, -1.000000000000000000 ) ) ;
#2 = CARTESIAN_POINT ( 'NONE',  ( 0.0000000000000000000, 23.74999999999999600, 0.0000000000000000000 ) ) ;
#3 = CARTESIAN_POINT ( 'NONE',  ( 6.000000000000000000, 19.49999999999999600, 0.0000000000000000000 ) ) ;
#4 = VECTOR ( 'NONE', #493, 1000.000000000000000 ) ;
#5 = APPLICATION_PROTOCOL_DEFINITION ( 'international standard', 'config_control_design', 1994, #682 ) ;
#6 = AXIS2_PLACEMENT_3D ( 'NONE', #940, #192, #354 ) ;
#7 = ORIENTED_EDGE ( 'NONE', *, *, #152, .T. ) ;
#8 = ADVANCED_FACE ( 'NONE', ( #99 ), #196, .F. ) ;
#9 = VERTEX_POINT ( 'NONE', #871 ) ;
#10 = ORIENTED_EDGE ( 'NONE', *, *, #549, .T. ) ;
#11 = APPROVAL_ROLE ( '' ) ;
#12 = FACE_BOUND ( 'NONE', #766, .T. ) ;
#13 = DIRECTION ( 'NONE',  ( -0.0000000000000000000, -0.0000000000000000000, -1.000000000000000000 ) ) ;
#14 = CYLINDRICAL_SURFACE ( 'NONE', #35, 1.750000000000000400 ) ;
#15 = ADVANCED_FACE ( 'NONE', ( #785 ), #864, .F. ) ;
#16 = DATE_AND_TIME ( #249, #64 ) ;
#17 = ADVANCED_FACE ( 'NONE', ( #899 ), #125, .T. ) ;
#18 = EDGE_CURVE ( 'NONE', #512, #308, #396, .T. ) ;
#19 = VERTEX_POINT ( 'NONE', #729 ) ;
#20 = ORIENTED_EDGE ( 'NONE', *, *, #453, .T. ) ;
#21 = DIRECTION ( 'NONE',  ( -0.0000000000000000000, 1.000000000000000000, -0.0000000000000000000 ) ) ;
#22 = ORIENTED_EDGE ( 'NONE', *, *, #400, .T. ) ;
#23 = PERSON_AND_ORGANIZATION ( #537, #234 ) ;
#24 = AXIS2_PLACEMENT_3D ( 'NONE', #345, #651, #426 ) ;
#25 = DIRECTION ( 'NONE',  ( -0.0000000000000000000, -0.0000000000000000000, -1.000000000000000000 ) ) ;
#26 = FACE_OUTER_BOUND ( 'NONE', #500, .T. ) ;
#27 = CIRCLE ( 'NONE', #535, 1.750000000000000400 ) ;
#28 = VECTOR ( 'NONE', #935, 1000.000000000000100 ) ;
#29 = ORIENTED_EDGE ( 'NONE', *, *, #599, .F. ) ;
#30 = ORIENTED_EDGE ( 'NONE', *, *, #707, .F. ) ;
#31 = CYLINDRICAL_SURFACE ( 'NONE', #519, 1.000000000000000000 ) ;
#32 = VERTEX_POINT ( 'NONE', #647 ) ;
#33 = CIRCLE ( 'NONE', #338, 12.25000000000000000 ) ;
#34 = APPROVAL_PERSON_ORGANIZATION ( #424, #786, #77 ) ;
#35 = AXIS2_PLACEMENT_3D ( 'NONE', #780, #717, #124 ) ;
#36 = PLANE ( 'NONE',  #136 ) ;
#37 = ORIENTED_EDGE ( 'NONE', *, *, #681, .T. ) ;
#38 = ORIENTED_EDGE ( 'NONE', *, *, #232, .T. ) ;
#39 = AXIS2_PLACEMENT_3D ( 'NONE', #727, #505, #649 ) ;
#40 = LINE ( 'NONE', #162, #488 ) ;
#41 = VERTEX_POINT ( 'NONE', #580 ) ;
#42 = DIRECTION ( 'NONE',  ( -1.000000000000000000, 0.0000000000000000000, 0.0000000000000000000 ) ) ;
#43 = LOCAL_TIME ( 17, 57, 48.00000000000000000, #685 ) ;
#44 = CIRCLE ( 'NONE', #90, 1.000000000000000000 ) ;
#45 = DIRECTION ( 'NONE',  ( 1.000000000000000000, 0.0000000000000000000, 0.0000000000000000000 ) ) ;
#46 = ORIENTED_EDGE ( 'NONE', *, *, #861, .T. ) ;
#47 = ORIENTED_EDGE ( 'NONE', *, *, #558, .F. ) ;
#48 = DIRECTION ( 'NONE',  ( 0.0000000000000000000, 0.0000000000000000000, 1.000000000000000000 ) ) ;
#49 = VECTOR ( 'NONE', #21, 1000.000000000000000 ) ;
#50 = AXIS2_PLACEMENT_3D ( 'NONE', #614, #164, #314 ) ;
#51 = EDGE_CURVE ( 'NONE', #140, #607, #93, .T. ) ;
#52 = DIRECTION ( 'NONE',  ( -0.0000000000000000000, -0.0000000000000000000, -1.000000000000000000 ) ) ;
#53 = CIRCLE ( 'NONE', #659, 1.750000000000000400 ) ;
#54 = CARTESIAN_POINT ( 'NONE',  ( -6.000000000000000000, 19.49999999999999600, 2.500000000000000000 ) ) ;
#55 = EDGE_CURVE ( 'NONE', #550, #538, #593, .T. ) ;
#56 = DIRECTION ( 'NONE',  ( 0.0000000000000000000, 0.0000000000000000000, 1.000000000000000000 ) ) ;
#57 = VERTEX_POINT ( 'NONE', #658 ) ;
#58 = ORIENTED_EDGE ( 'NONE', *, *, #763, .T. ) ;
#59 = CARTESIAN_POINT ( 'NONE',  ( 5.000000000000000000, 19.49999999999999600, 2.500000000000000000 ) ) ;
#60 = VERTEX_POINT ( 'NONE', #720 ) ;
#61 = CARTESIAN_POINT ( 'NONE',  ( 9.250000000000000000, 15.71881079789549000, 2.500000000000000000 ) ) ;
#62 = EDGE_CURVE ( 'NONE', #626, #32, #711, .T. ) ;
#63 = CARTESIAN_POINT ( 'NONE',  ( -12.50000000000000000, 6.499999999999998200, 2.500000000000000000 ) ) ;
#64 = LOCAL_TIME ( 17, 57, 48.00000000000000000, #257 ) ;
#65 = CARTESIAN_POINT ( 'NONE',  ( -6.000000000000000900, 27.99999999999999600, 0.0000000000000000000 ) ) ;
#66 = CARTESIAN_POINT ( 'NONE',  ( -9.250000000000000000, 15.71881079789549000, 2.500000000000000000 ) ) ;
#67 = CARTESIAN_POINT ( 'NONE',  ( 4.000000000000000900, 27.99999999999999600, 2.500000000000000000 ) ) ;
#68 = DIRECTION ( 'NONE',  ( -0.0000000000000000000, -0.0000000000000000000, -1.000000000000000000 ) ) ;
#69 = AXIS2_PLACEMENT_3D ( 'NONE', #83, #693, #602 ) ;
#70 = CYLINDRICAL_SURFACE ( 'NONE', #247, 1.000000000000000000 ) ;
#71 = CIRCLE ( 'NONE', #888, 12.25000000000000000 ) ;
#72 = DIRECTION ( 'NONE',  ( 0.0000000000000000000, 0.0000000000000000000, 1.000000000000000000 ) ) ;
#73 = EDGE_LOOP ( 'NONE', ( #159, #654, #213, #434 ) ) ;
#74 = VERTEX_POINT ( 'NONE', #269 ) ;
#75 = MECHANICAL_CONTEXT ( 'NONE', #682, 'mechanical' ) ;
#76 = CIRCLE ( 'NONE', #627, 12.25000000000000000 ) ;
#77 = APPROVAL_ROLE ( '' ) ;
#78 = ADVANCED_FACE ( 'NONE', ( #735 ), #262, .F. ) ;
#79 = FACE_OUTER_BOUND ( 'NONE', #147, .T. ) ;
#80 = EDGE_CURVE ( 'NONE', #254, #242, #536, .T. ) ;
#81 = APPLICATION_CONTEXT ( 'configuration controlled 3d designs of mechanical parts and assemblies' ) ;
#82 = EDGE_CURVE ( 'NONE', #84, #149, #617, .T. ) ;
#83 = CARTESIAN_POINT ( 'NONE',  ( 0.0000000000000000000, 23.74999999999999600, 2.500000000000000000 ) ) ;
#84 = VERTEX_POINT ( 'NONE', #63 ) ;
#85 = ORIENTED_EDGE ( 'NONE', *, *, #487, .F. ) ;
#86 = ADVANCED_FACE ( 'NONE', ( #284 ), #139, .F. ) ;
#87 = DIRECTION ( 'NONE',  ( -1.000000000000000000, 0.0000000000000000000, 0.0000000000000000000 ) ) ;
#88 = LINE ( 'NONE', #66, #130 ) ;
#89 = ORIENTED_EDGE ( 'NONE', *, *, #326, .F. ) ;
#90 = AXIS2_PLACEMENT_3D ( 'NONE', #517, #191, #792 ) ;
#91 = ADVANCED_FACE ( 'NONE', ( #879 ), #689, .F. ) ;
#92 = FACE_BOUND ( 'NONE', #225, .T. ) ;
#93 = CIRCLE ( 'NONE', #668, 1.000000000000000000 ) ;
#94 = AXIS2_PLACEMENT_3D ( 'NONE', #447, #815, #528 ) ;
#95 = DIRECTION ( 'NONE',  ( 1.000000000000000000, 0.0000000000000000000, 0.0000000000000000000 ) ) ;
#96 = ORIENTED_EDGE ( 'NONE', *, *, #547, .F. ) ;
#97 = VERTEX_POINT ( 'NONE', #802 ) ;
#98 = CYLINDRICAL_SURFACE ( 'NONE', #261, 1.000000000000000000 ) ;
#99 = FACE_OUTER_BOUND ( 'NONE', #557, .T. ) ;
#100 = EDGE_CURVE ( 'NONE', #242, #149, #809, .T. ) ;
#101 = DIRECTION ( 'NONE',  ( 0.0000000000000000000, -0.0000000000000000000, -1.000000000000000000 ) ) ;
#102 = LINE ( 'NONE', #410, #271 ) ;
#103 = DIRECTION ( 'NONE',  ( 0.0000000000000000000, -1.000000000000000000, 0.0000000000000000000 ) ) ;
#104 = ORIENTED_EDGE ( 'NONE', *, *, #467, .F. ) ;
#105 = ORIENTED_EDGE ( 'NONE', *, *, #874, .T. ) ;
#106 = ADVANCED_FACE ( 'NONE', ( #333 ), #115, .T. ) ;
#107 = FACE_BOUND ( 'NONE', #460, .T. ) ;
#108 = CARTESIAN_POINT ( 'NONE',  ( -4.000000000000000000, 19.49999999999999600, 2.500000000000000000 ) ) ;
#109 = EDGE_LOOP ( 'NONE', ( #787, #857 ) ) ;
#110 = LINE ( 'NONE', #867, #553 ) ;
#111 = DIRECTION ( 'NONE',  ( -1.000000000000000000, 0.0000000000000000000, 0.0000000000000000000 ) ) ;
#112 = EDGE_CURVE ( 'NONE', #60, #170, #186, .T. ) ;
#113 =( GEOMETRIC_REPRESENTATION_CONTEXT ( 3 ) GLOBAL_UNCERTAINTY_ASSIGNED_CONTEXT ( ( #429 ) ) GLOBAL_UNIT_ASSIGNED_CONTEXT ( ( #752, #746, #370 ) ) REPRESENTATION_CONTEXT ( 'NONE', 'WORKASPACE' ) );
#114 = PLANE ( 'NONE',  #231 ) ;
#115 = CYLINDRICAL_SURFACE ( 'NONE', #331, 12.25000000000000000 ) ;
#116 = ORIENTED_EDGE ( 'NONE', *, *, #878, .F. ) ;
#117 = AXIS2_PLACEMENT_3D ( 'NONE', #684, #377, #382 ) ;
#118 = EDGE_LOOP ( 'NONE', ( #559, #347, #765, #29 ) ) ;
#119 = CIRCLE ( 'NONE', #39, 1.000000000000000000 ) ;
#120 = CARTESIAN_POINT ( 'NONE',  ( 12.50000000000000000, -1.530808498934191300E-015, 2.500000000000000000 ) ) ;
#121 = VECTOR ( 'NONE', #594, 1000.000000000000000 ) ;
#122 = CARTESIAN_POINT ( 'NONE',  ( 0.0000000000000000000, 23.74999999999999600, 0.0000000000000000000 ) ) ;
#123 = DIRECTION ( 'NONE',  ( -0.0000000000000000000, -0.0000000000000000000, -1.000000000000000000 ) ) ;
#124 = DIRECTION ( 'NONE',  ( -1.000000000000000000, 0.0000000000000000000, 0.0000000000000000000 ) ) ;
#125 = PLANE ( 'NONE',  #402 ) ;
#126 = ORIENTED_EDGE ( 'NONE', *, *, #823, .F. ) ;
#127 = CARTESIAN_POINT ( 'NONE',  ( -5.000000000000000900, 27.99999999999999600, 2.500000000000000000 ) ) ;
#128 = ORIENTED_EDGE ( 'NONE', *, *, #624, .T. ) ;
#129 = EDGE_CURVE ( 'NONE', #669, #847, #228, .T. ) ;
#130 = VECTOR ( 'NONE', #229, 1000.000000000000000 ) ;
#131 = AXIS2_PLACEMENT_3D ( 'NONE', #833, #300, #153 ) ;
#132 = EDGE_LOOP ( 'NONE', ( #737, #58, #596, #431 ) ) ;
#133 = APPROVAL_PERSON_ORGANIZATION ( #455, #611, #11 ) ;
#134 = DIRECTION ( 'NONE',  ( -1.000000000000000000, 0.0000000000000000000, 0.0000000000000000000 ) ) ;
#135 = CARTESIAN_POINT ( 'NONE',  ( 4.000000000000000000, 19.49999999999999600, 2.500000000000000000 ) ) ;
#136 = AXIS2_PLACEMENT_3D ( 'NONE', #554, #42, #397 ) ;
#137 = DIRECTION ( 'NONE',  ( 0.0000000000000000000, 0.0000000000000000000, -1.000000000000000000 ) ) ;
#138 = DIRECTION ( 'NONE',  ( 0.0000000000000000000, 0.0000000000000000000, 1.000000000000000000 ) ) ;
#139 = CYLINDRICAL_SURFACE ( 'NONE', #473, 1.000000000000000000 ) ;
#140 = VERTEX_POINT ( 'NONE', #67 ) ;
#141 = EDGE_LOOP ( 'NONE', ( #566, #515, #541, #252 ) ) ;
#142 = DIRECTION ( 'NONE',  ( 1.000000000000000000, 0.0000000000000000000, 0.0000000000000000000 ) ) ;
#143 = LINE ( 'NONE', #285, #872 ) ;
#144 = LINE ( 'NONE', #332, #907 ) ;
#145 = APPROVAL_STATUS ( 'not_yet_approved' ) ;
#146 = EDGE_LOOP ( 'NONE', ( #265, #598, #810, #570 ) ) ;
#147 = EDGE_LOOP ( 'NONE', ( #274, #748, #712, #199 ) ) ;
#148 = FACE_BOUND ( 'NONE', #725, .T. ) ;
#149 = VERTEX_POINT ( 'NONE', #364 ) ;
#150 = PERSON_AND_ORGANIZATION_ROLE ( 'creator' ) ;
#151 = FACE_OUTER_BOUND ( 'NONE', #510, .T. ) ;
#152 = EDGE_CURVE ( 'NONE', #41, #9, #629, .T. ) ;
#153 = DIRECTION ( 'NONE',  ( 1.000000000000000000, 0.0000000000000000000, 0.0000000000000000000 ) ) ;
#154 = DIRECTION ( 'NONE',  ( 0.0000000000000000000, 0.0000000000000000000, 1.000000000000000000 ) ) ;
#155 = EDGE_CURVE ( 'NONE', #866, #251, #462, .T. ) ;
#156 = DIRECTION ( 'NONE',  ( -1.000000000000000000, 0.0000000000000000000, 0.0000000000000000000 ) ) ;
#157 = ORIENTED_EDGE ( 'NONE', *, *, #686, .T. ) ;
#158 = ORIENTED_EDGE ( 'NONE', *, *, #832, .F. ) ;
#159 = ORIENTED_EDGE ( 'NONE', *, *, #734, .T. ) ;
#160 = FACE_BOUND ( 'NONE', #419, .T. ) ;
#161 = CARTESIAN_POINT ( 'NONE',  ( -9.250000000000000000, 10.49999999999999800, 2.500000000000000000 ) ) ;
#162 = CARTESIAN_POINT ( 'NONE',  ( 12.25000000000000000, 23.74999999999999600, 2.500000000000000000 ) ) ;
#163 = AXIS2_PLACEMENT_3D ( 'NONE', #173, #705, #840 ) ;
#164 = DIRECTION ( 'NONE',  ( 0.0000000000000000000, 0.0000000000000000000, 1.000000000000000000 ) ) ;
#165 = PERSON_AND_ORGANIZATION ( #537, #234 ) ;
#166 = CARTESIAN_POINT ( 'NONE',  ( 0.0000000000000000000, 23.74999999999999600, 2.500000000000000000 ) ) ;
#167 = FACE_OUTER_BOUND ( 'NONE', #362, .T. ) ;
#168 = EDGE_LOOP ( 'NONE', ( #930, #859 ) ) ;
#169 = ORIENTED_EDGE ( 'NONE', *, *, #863, .F. ) ;
#170 = VERTEX_POINT ( 'NONE', #440 ) ;
#171 = DIRECTION ( 'NONE',  ( 0.0000000000000000000, 0.0000000000000000000, 1.000000000000000000 ) ) ;
#172 = AXIS2_PLACEMENT_3D ( 'NONE', #365, #193, #209 ) ;
#173 = CARTESIAN_POINT ( 'NONE',  ( 5.000000000000000000, 19.49999999999999600, 0.0000000000000000000 ) ) ;
#174 = DIRECTION ( 'NONE',  ( -1.000000000000000000, 0.0000000000000000000, 0.0000000000000000000 ) ) ;
#175 = AXIS2_PLACEMENT_3D ( 'NONE', #584, #290, #817 ) ;
#176 = ORIENTED_EDGE ( 'NONE', *, *, #618, .F. ) ;
#177 = ORIENTED_EDGE ( 'NONE', *, *, #51, .F. ) ;
#178 = DIRECTION ( 'NONE',  ( -0.0000000000000000000, -0.0000000000000000000, -1.000000000000000000 ) ) ;
#179 = CARTESIAN_POINT ( 'NONE',  ( -9.250000000000000000, 15.71881079789549000, 0.0000000000000000000 ) ) ;
#180 = ORIENTED_EDGE ( 'NONE', *, *, #750, .T. ) ;
#181 = VECTOR ( 'NONE', #851, 1000.000000000000000 ) ;
#182 = SECURITY_CLASSIFICATION ( '', '', #676 ) ;
#183 = CARTESIAN_POINT ( 'NONE',  ( -12.25000000000000000, 23.74999999999999600, 2.500000000000000000 ) ) ;
#184 = FACE_OUTER_BOUND ( 'NONE', #911, .T. ) ;
#185 = LINE ( 'NONE', #494, #369 ) ;
#186 = LINE ( 'NONE', #805, #489 ) ;
#187 = ORIENTED_EDGE ( 'NONE', *, *, #200, .T. ) ;
#188 = AXIS2_PLACEMENT_3D ( 'NONE', #773, #630, #914 ) ;
#189 = EDGE_LOOP ( 'NONE', ( #835, #241, #226, #286 ) ) ;
#190 = DIRECTION ( 'NONE',  ( -0.0000000000000000000, -0.0000000000000000000, -1.000000000000000000 ) ) ;
#191 = DIRECTION ( 'NONE',  ( 0.0000000000000000000, 0.0000000000000000000, 1.000000000000000000 ) ) ;
#192 = DIRECTION ( 'NONE',  ( 0.0000000000000000000, 0.0000000000000000000, 1.000000000000000000 ) ) ;
#193 = DIRECTION ( 'NONE',  ( -0.0000000000000000000, -0.0000000000000000000, -1.000000000000000000 ) ) ;
#194 = CARTESIAN_POINT ( 'NONE',  ( -5.000000000000000000, 4.999999999999999100, 2.500000000000000000 ) ) ;
#195 = PLANE ( 'NONE',  #393 ) ;
#196 = PLANE ( 'NONE',  #563 ) ;
#197 = ORIENTED_EDGE ( 'NONE', *, *, #939, .T. ) ;
#198 = CARTESIAN_POINT ( 'NONE',  ( -5.000000000000000000, 19.49999999999999600, 0.0000000000000000000 ) ) ;
#199 = ORIENTED_EDGE ( 'NONE', *, *, #412, .T. ) ;
#200 = EDGE_CURVE ( 'NONE', #408, #349, #374, .T. ) ;
#201 = AXIS2_PLACEMENT_3D ( 'NONE', #886, #744, #87 ) ;
#202 = VERTEX_POINT ( 'NONE', #368 ) ;
#203 = DIRECTION ( 'NONE',  ( 0.0000000000000000000, 0.0000000000000000000, 1.000000000000000000 ) ) ;
#204 = CARTESIAN_POINT ( 'NONE',  ( -9.250000000000000000, 15.71881079789549000, 2.500000000000000000 ) ) ;
#205 = DESIGN_CONTEXT ( 'detailed design', #81, 'design' ) ;
#206 = CARTESIAN_POINT ( 'NONE',  ( 0.0000000000000000000, 23.74999999999999600, 2.500000000000000000 ) ) ;
#207 = EDGE_CURVE ( 'NONE', #843, #942, #692, .T. ) ;
#208 = DIRECTION ( 'NONE',  ( 0.0000000000000000000, 0.0000000000000000000, 1.000000000000000000 ) ) ;
#209 = DIRECTION ( 'NONE',  ( -1.000000000000000000, 0.0000000000000000000, 0.0000000000000000000 ) ) ;
#210 = VECTOR ( 'NONE', #318, 1000.000000000000000 ) ;
#211 = VERTEX_POINT ( 'NONE', #514 ) ;
#212 = DIRECTION ( 'NONE',  ( 1.000000000000000000, -0.0000000000000000000, -0.0000000000000000000 ) ) ;
#213 = ORIENTED_EDGE ( 'NONE', *, *, #575, .F. ) ;
#214 = ORIENTED_EDGE ( 'NONE', *, *, #495, .T. ) ;
#215 = CARTESIAN_POINT ( 'NONE',  ( -9.250000000000000000, 15.71881079789549000, 0.0000000000000000000 ) ) ;
#216 = LINE ( 'NONE', #635, #715 ) ;
#217 = ORIENTED_EDGE ( 'NONE', *, *, #832, .T. ) ;
#218 = CC_DESIGN_SECURITY_CLASSIFICATION ( #182, ( #320 ) ) ;
#219 = LINE ( 'NONE', #733, #390 ) ;
#220 = DIRECTION ( 'NONE',  ( -0.0000000000000000000, -0.0000000000000000000, -1.000000000000000000 ) ) ;
#221 = EDGE_CURVE ( 'NONE', #798, #757, #837, .T. ) ;
#222 = CARTESIAN_POINT ( 'NONE',  ( -4.000000000000000900, 27.99999999999999600, 2.500000000000000000 ) ) ;
#223 = APPROVAL ( #145, 'UNSPECIFIED' ) ;
#224 = PERSON_AND_ORGANIZATION_ROLE ( 'classification_officer' ) ;
#225 = EDGE_LOOP ( 'NONE', ( #85, #481 ) ) ;
#226 = ORIENTED_EDGE ( 'NONE', *, *, #793, .T. ) ;
#227 = ADVANCED_FACE ( 'NONE', ( #702 ), #324, .T. ) ;
#228 = LINE ( 'NONE', #516, #825 ) ;
#229 = DIRECTION ( 'NONE',  ( 0.0000000000000000000, -1.000000000000000000, 0.0000000000000000000 ) ) ;
#230 = VERTEX_POINT ( 'NONE', #3 ) ;
#231 = AXIS2_PLACEMENT_3D ( 'NONE', #632, #245, #260 ) ;
#232 = EDGE_CURVE ( 'NONE', #843, #254, #88, .T. ) ;
#233 = PLANE ( 'NONE',  #311 ) ;
#234 = ORGANIZATION ( 'UNSPECIFIED', 'UNSPECIFIED', '' ) ;
#235 = DIRECTION ( 'NONE',  ( -1.000000000000000000, 0.0000000000000000000, 0.0000000000000000000 ) ) ;
#236 = CARTESIAN_POINT ( 'NONE',  ( 0.0000000000000000000, 23.74999999999999600, 2.500000000000000000 ) ) ;
#237 = CIRCLE ( 'NONE', #600, 1.000000000000000000 ) ;
#238 = CC_DESIGN_PERSON_AND_ORGANIZATION_ASSIGNMENT ( #633, #150, ( #320 ) ) ;
#239 = LINE ( 'NONE', #623, #210 ) ;
#240 = CARTESIAN_POINT ( 'NONE',  ( 5.000000000000000000, 4.999999999999999100, 2.500000000000000000 ) ) ;
#241 = ORIENTED_EDGE ( 'NONE', *, *, #530, .T. ) ;
#242 = VERTEX_POINT ( 'NONE', #540 ) ;
#243 = ORIENTED_EDGE ( 'NONE', *, *, #246, .T. ) ;
#244 = FACE_OUTER_BOUND ( 'NONE', #73, .T. ) ;
#245 = DIRECTION ( 'NONE',  ( 1.000000000000000000, 0.0000000000000000000, -0.0000000000000000000 ) ) ;
#246 = EDGE_CURVE ( 'NONE', #889, #550, #289, .T. ) ;
#247 = AXIS2_PLACEMENT_3D ( 'NONE', #552, #839, #111 ) ;
#248 = CIRCLE ( 'NONE', #650, 1.000000000000000000 ) ;
#249 = CALENDAR_DATE ( 2018, 5, 11 ) ;
#250 = CARTESIAN_POINT ( 'NONE',  ( -5.000000000000000000, 4.999999999999999100, 2.500000000000000000 ) ) ;
#251 = VERTEX_POINT ( 'NONE', #309 ) ;
#252 = ORIENTED_EDGE ( 'NONE', *, *, #793, .F. ) ;
#253 = VECTOR ( 'NONE', #716, 1000.000000000000000 ) ;
#254 = VERTEX_POINT ( 'NONE', #161 ) ;
#255 = CARTESIAN_POINT ( 'NONE',  ( 5.000000000000000900, 27.99999999999999600, 0.0000000000000000000 ) ) ;
#256 = CC_DESIGN_PERSON_AND_ORGANIZATION_ASSIGNMENT ( #850, #224, ( #182 ) ) ;
#257 = COORDINATED_UNIVERSAL_TIME_OFFSET ( 1, 0, .AHEAD. ) ;
#258 = CARTESIAN_POINT ( 'NONE',  ( 5.000000000000000000, 4.999999999999999100, 0.0000000000000000000 ) ) ;
#259 = FACE_BOUND ( 'NONE', #109, .T. ) ;
#260 = DIRECTION ( 'NONE',  ( -0.0000000000000000000, 0.0000000000000000000, -1.000000000000000000 ) ) ;
#261 = AXIS2_PLACEMENT_3D ( 'NONE', #897, #532, #156 ) ;
#262 = CYLINDRICAL_SURFACE ( 'NONE', #280, 1.000000000000000000 ) ;
#263 = ORIENTED_EDGE ( 'NONE', *, *, #901, .F. ) ;
#264 = ORIENTED_EDGE ( 'NONE', *, *, #18, .T. ) ;
#265 = ORIENTED_EDGE ( 'NONE', *, *, #100, .T. ) ;
#266 = CIRCLE ( 'NONE', #201, 1.000000000000000000 ) ;
#267 = DIRECTION ( 'NONE',  ( -0.0000000000000000000, -0.0000000000000000000, -1.000000000000000000 ) ) ;
#268 = LOCAL_TIME ( 17, 57, 48.00000000000000000, #531 ) ;
#269 = CARTESIAN_POINT ( 'NONE',  ( 12.50000000000000000, 6.499999999999998200, 0.0000000000000000000 ) ) ;
#270 = DIRECTION ( 'NONE',  ( -0.0000000000000000000, -0.0000000000000000000, -1.000000000000000000 ) ) ;
#271 = VECTOR ( 'NONE', #916, 1000.000000000000000 ) ;
#272 = DIRECTION ( 'NONE',  ( 0.0000000000000000000, 0.0000000000000000000, 1.000000000000000000 ) ) ;
#273 = DIRECTION ( 'NONE',  ( -0.0000000000000000000, -0.0000000000000000000, -1.000000000000000000 ) ) ;
#274 = ORIENTED_EDGE ( 'NONE', *, *, #155, .F. ) ;
#275 = ORIENTED_EDGE ( 'NONE', *, *, #498, .T. ) ;
#276 = VECTOR ( 'NONE', #437, 1000.000000000000000 ) ;
#277 = DIRECTION ( 'NONE',  ( 0.0000000000000000000, 0.0000000000000000000, -1.000000000000000000 ) ) ;
#278 = APPROVAL_DATE_TIME ( #484, #786 ) ;
#279 = DIRECTION ( 'NONE',  ( -0.0000000000000000000, -1.000000000000000000, -0.0000000000000000000 ) ) ;
#280 = AXIS2_PLACEMENT_3D ( 'NONE', #59, #800, #435 ) ;
#281 = DIRECTION ( 'NONE',  ( 0.6305926250944656800, -0.7761140001162654100, 0.0000000000000000000 ) ) ;
#282 = CARTESIAN_POINT ( 'NONE',  ( -5.000000000000000000, 15.00000000000000000, 2.500000000000000000 ) ) ;
#283 = FACE_BOUND ( 'NONE', #664, .T. ) ;
#284 = FACE_OUTER_BOUND ( 'NONE', #118, .T. ) ;
#285 = CARTESIAN_POINT ( 'NONE',  ( -5.000000000000000000, 4.999999999999999100, 2.500000000000000000 ) ) ;
#286 = ORIENTED_EDGE ( 'NONE', *, *, #378, .F. ) ;
#287 = AXIS2_PLACEMENT_3D ( 'NONE', #574, #355, #56 ) ;
#288 = ORIENTED_EDGE ( 'NONE', *, *, #794, .T. ) ;
#289 = LINE ( 'NONE', #521, #845 ) ;
#290 = DIRECTION ( 'NONE',  ( -0.0000000000000000000, -0.0000000000000000000, -1.000000000000000000 ) ) ;
#291 = EDGE_CURVE ( 'NONE', #254, #84, #656, .T. ) ;
#292 = AXIS2_PLACEMENT_3D ( 'NONE', #122, #340, #45 ) ;
#293 = FACE_OUTER_BOUND ( 'NONE', #476, .T. ) ;
#294 = EDGE_LOOP ( 'NONE', ( #89, #908, #217, #105 ) ) ;
#295 = ORIENTED_EDGE ( 'NONE', *, *, #688, .T. ) ;
#296 = CARTESIAN_POINT ( 'NONE',  ( -12.50000000000000000, -1.530808498934191300E-015, 0.0000000000000000000 ) ) ;
#297 = EDGE_CURVE ( 'NONE', #581, #799, #667, .T. ) ;
#298 = VECTOR ( 'NONE', #760, 1000.000000000000000 ) ;
#299 = ORIENTED_EDGE ( 'NONE', *, *, #129, .F. ) ;
#300 = DIRECTION ( 'NONE',  ( 0.0000000000000000000, 0.0000000000000000000, 1.000000000000000000 ) ) ;
#301 = CARTESIAN_POINT ( 'NONE',  ( -12.25000000000000000, 23.74999999999999600, 2.500000000000000000 ) ) ;
#302 = ADVANCED_FACE ( 'NONE', ( #360 ), #233, .F. ) ;
#303 = CARTESIAN_POINT ( 'NONE',  ( 0.0000000000000000000, 23.74999999999999600, 0.0000000000000000000 ) ) ;
#304 = CARTESIAN_POINT ( 'NONE',  ( 1.750000000000000400, 23.74999999999999600, 0.0000000000000000000 ) ) ;
#305 = CARTESIAN_POINT ( 'NONE',  ( -1.750000000000000400, 23.74999999999999600, 0.0000000000000000000 ) ) ;
#306 = PLANE ( 'NONE',  #718 ) ;
#307 = VECTOR ( 'NONE', #52, 1000.000000000000000 ) ;
#308 = VERTEX_POINT ( 'NONE', #305 ) ;
#309 = CARTESIAN_POINT ( 'NONE',  ( -5.000000000000000000, 15.00000000000000000, 0.0000000000000000000 ) ) ;
#310 = ORIENTED_EDGE ( 'NONE', *, *, #734, .F. ) ;
#311 = AXIS2_PLACEMENT_3D ( 'NONE', #392, #235, #470 ) ;
#312 = ADVANCED_FACE ( 'NONE', ( #401 ), #551, .F. ) ;
#313 = EDGE_LOOP ( 'NONE', ( #645, #822, #180, #288 ) ) ;
#314 = DIRECTION ( 'NONE',  ( 1.000000000000000000, 0.0000000000000000000, 0.0000000000000000000 ) ) ;
#315 = CARTESIAN_POINT ( 'NONE',  ( -6.000000000000000000, 19.49999999999999600, 0.0000000000000000000 ) ) ;
#316 = LINE ( 'NONE', #721, #363 ) ;
#317 = DIRECTION ( 'NONE',  ( 0.0000000000000000000, 1.000000000000000000, -0.0000000000000000000 ) ) ;
#318 = DIRECTION ( 'NONE',  ( -1.000000000000000000, -0.0000000000000000000, -0.0000000000000000000 ) ) ;
#319 = LINE ( 'NONE', #485, #808 ) ;
#320 = PRODUCT_DEFINITION_FORMATION_WITH_SPECIFIED_SOURCE ( 'ANY', '', #674, .NOT_KNOWN. ) ;
#321 = CARTESIAN_POINT ( 'NONE',  ( 9.250000000000000000, 15.71881079789549000, 2.500000000000000000 ) ) ;
#322 = EDGE_LOOP ( 'NONE', ( #525, #7, #791, #714 ) ) ;
#323 = VERTEX_POINT ( 'NONE', #828 ) ;
#324 = CYLINDRICAL_SURFACE ( 'NONE', #175, 12.25000000000000000 ) ;
#325 = CARTESIAN_POINT ( 'NONE',  ( 6.000000000000000000, 19.49999999999999600, 2.500000000000000000 ) ) ;
#326 = EDGE_CURVE ( 'NONE', #251, #408, #348, .T. ) ;
#327 = AXIS2_PLACEMENT_3D ( 'NONE', #353, #72, #873 ) ;
#328 = ADVANCED_FACE ( 'NONE', ( #422 ), #98, .F. ) ;
#329 = DIRECTION ( 'NONE',  ( -0.0000000000000000000, -0.0000000000000000000, -1.000000000000000000 ) ) ;
#330 = DATE_AND_TIME ( #622, #268 ) ;
#331 = AXIS2_PLACEMENT_3D ( 'NONE', #206, #1, #661 ) ;
#332 = CARTESIAN_POINT ( 'NONE',  ( 9.250000000000000000, 15.71881079789549000, 0.0000000000000000000 ) ) ;
#333 = FACE_OUTER_BOUND ( 'NONE', #789, .T. ) ;
#334 = ORIENTED_EDGE ( 'NONE', *, *, #549, .F. ) ;
#335 = ORIENTED_EDGE ( 'NONE', *, *, #405, .F. ) ;
#336 = LINE ( 'NONE', #395, #448 ) ;
#337 = VECTOR ( 'NONE', #273, 1000.000000000000000 ) ;
#338 = AXIS2_PLACEMENT_3D ( 'NONE', #653, #946, #518 ) ;
#339 = COORDINATED_UNIVERSAL_TIME_OFFSET ( 1, 0, .AHEAD. ) ;
#340 = DIRECTION ( 'NONE',  ( 0.0000000000000000000, 0.0000000000000000000, 1.000000000000000000 ) ) ;
#341 = LINE ( 'NONE', #784, #884 ) ;
#342 = CARTESIAN_POINT ( 'NONE',  ( 0.0000000000000000000, 23.74999999999999600, 2.500000000000000000 ) ) ;
#343 = EDGE_CURVE ( 'NONE', #889, #909, #890, .T. ) ;
#344 = AXIS2_PLACEMENT_3D ( 'NONE', #480, #171, #695 ) ;
#345 = CARTESIAN_POINT ( 'NONE',  ( 5.000000000000000000, 19.49999999999999600, 2.500000000000000000 ) ) ;
#346 = ORIENTED_EDGE ( 'NONE', *, *, #749, .T. ) ;
#347 = ORIENTED_EDGE ( 'NONE', *, *, #558, .T. ) ;
#348 = LINE ( 'NONE', #762, #298 ) ;
#349 = VERTEX_POINT ( 'NONE', #609 ) ;
#350 = CARTESIAN_POINT ( 'NONE',  ( 5.000000000000000900, 27.99999999999999600, 2.500000000000000000 ) ) ;
#351 = VECTOR ( 'NONE', #441, 1000.000000000000000 ) ;
#352 = CARTESIAN_POINT ( 'NONE',  ( -12.50000000000000000, -1.530808498934191300E-015, 2.500000000000000000 ) ) ;
#353 = CARTESIAN_POINT ( 'NONE',  ( -5.000000000000000000, 19.49999999999999600, 0.0000000000000000000 ) ) ;
#354 = DIRECTION ( 'NONE',  ( 1.000000000000000000, 0.0000000000000000000, 0.0000000000000000000 ) ) ;
#355 = DIRECTION ( 'NONE',  ( 0.0000000000000000000, 1.000000000000000000, -0.0000000000000000000 ) ) ;
#356 = ORIENTED_EDGE ( 'NONE', *, *, #763, .F. ) ;
#357 = EDGE_LOOP ( 'NONE', ( #503, #652 ) ) ;
#358 = ORIENTED_EDGE ( 'NONE', *, *, #112, .F. ) ;
#359 = CARTESIAN_POINT ( 'NONE',  ( -12.50000000000000000, -1.530808498934191300E-015, 2.500000000000000000 ) ) ;
#360 = FACE_OUTER_BOUND ( 'NONE', #373, .T. ) ;
#361 = EDGE_CURVE ( 'NONE', #449, #843, #869, .T. ) ;
#362 = EDGE_LOOP ( 'NONE', ( #46, #399, #472, #548 ) ) ;
#363 = VECTOR ( 'NONE', #270, 1000.000000000000000 ) ;
#364 = CARTESIAN_POINT ( 'NONE',  ( -12.50000000000000000, 6.499999999999998200, 0.0000000000000000000 ) ) ;
#365 = CARTESIAN_POINT ( 'NONE',  ( 5.000000000000000900, 27.99999999999999600, 2.500000000000000000 ) ) ;
#366 = PERSON_AND_ORGANIZATION_ROLE ( 'design_owner' ) ;
#367 = CIRCLE ( 'NONE', #163, 1.000000000000000000 ) ;
#368 = CARTESIAN_POINT ( 'NONE',  ( 9.250000000000000000, 15.71881079789549000, 0.0000000000000000000 ) ) ;
#369 = VECTOR ( 'NONE', #709, 1000.000000000000000 ) ;
#370 =( NAMED_UNIT ( * ) SI_UNIT ( $, .STERADIAN. ) SOLID_ANGLE_UNIT ( ) );
#371 = EDGE_LOOP ( 'NONE', ( #826, #813, #10, #295 ) ) ;
#372 = AXIS2_PLACEMENT_3D ( 'NONE', #508, #938, #577 ) ;
#373 = EDGE_LOOP ( 'NONE', ( #917, #334, #881, #388 ) ) ;
#374 = LINE ( 'NONE', #819, #276 ) ;
#375 = CARTESIAN_POINT ( 'NONE',  ( -5.000000000000000900, 27.99999999999999600, 2.500000000000000000 ) ) ;
#376 = VECTOR ( 'NONE', #220, 1000.000000000000000 ) ;
#377 = DIRECTION ( 'NONE',  ( 0.0000000000000000000, 0.0000000000000000000, 1.000000000000000000 ) ) ;
#378 = EDGE_CURVE ( 'NONE', #230, #471, #910, .T. ) ;
#379 = DATE_TIME_ROLE ( 'classification_date' ) ;
#380 = CC_DESIGN_PERSON_AND_ORGANIZATION_ASSIGNMENT ( #587, #366, ( #674 ) ) ;
#381 = ADVANCED_FACE ( 'NONE', ( #475, #148, #160, #107, #644, #921, #12 ), #306, .F. ) ;
#382 = DIRECTION ( 'NONE',  ( -1.000000000000000000, 0.0000000000000000000, 0.0000000000000000000 ) ) ;
#383 = DIRECTION ( 'NONE',  ( 1.000000000000000000, 0.0000000000000000000, 0.0000000000000000000 ) ) ;
#384 = CARTESIAN_POINT ( 'NONE',  ( 12.50000000000000000, -1.530808498934191300E-015, 0.0000000000000000000 ) ) ;
#385 = ORIENTED_EDGE ( 'NONE', *, *, #618, .T. ) ;
#386 = ORIENTED_EDGE ( 'NONE', *, *, #583, .T. ) ;
#387 = ADVANCED_FACE ( 'NONE', ( #740 ), #891, .T. ) ;
#388 = ORIENTED_EDGE ( 'NONE', *, *, #823, .T. ) ;
#389 = CARTESIAN_POINT ( 'NONE',  ( -5.000000000000000000, 4.999999999999999100, 0.0000000000000000000 ) ) ;
#390 = VECTOR ( 'NONE', #726, 1000.000000000000100 ) ;
#391 = DIRECTION ( 'NONE',  ( 0.0000000000000000000, 0.0000000000000000000, 1.000000000000000000 ) ) ;
#392 = CARTESIAN_POINT ( 'NONE',  ( 9.250000000000000000, 15.71881079789549000, 2.500000000000000000 ) ) ;
#393 = AXIS2_PLACEMENT_3D ( 'NONE', #504, #438, #590 ) ;
#394 = LINE ( 'NONE', #179, #4 ) ;
#395 = CARTESIAN_POINT ( 'NONE',  ( -5.000000000000000000, 15.00000000000000000, 2.500000000000000000 ) ) ;
#396 = CIRCLE ( 'NONE', #893, 1.750000000000000400 ) ;
#397 = DIRECTION ( 'NONE',  ( 0.0000000000000000000, 0.0000000000000000000, 1.000000000000000000 ) ) ;
#398 = ORIENTED_EDGE ( 'NONE', *, *, #18, .F. ) ;
#399 = ORIENTED_EDGE ( 'NONE', *, *, #655, .T. ) ;
#400 = EDGE_CURVE ( 'NONE', #170, #798, #542, .T. ) ;
#401 = FACE_OUTER_BOUND ( 'NONE', #132, .T. ) ;
#402 = AXIS2_PLACEMENT_3D ( 'NONE', #194, #875, #137 ) ;
#403 = CARTESIAN_POINT ( 'NONE',  ( -5.000000000000000000, 15.00000000000000000, 2.500000000000000000 ) ) ;
#404 = LINE ( 'NONE', #456, #121 ) ;
#405 = EDGE_CURVE ( 'NONE', #909, #538, #767, .T. ) ;
#406 = MANIFOLD_SOLID_BREP ( 'Dodanie-wyciπgniÍcie1', #814 ) ;
#407 = CARTESIAN_POINT ( 'NONE',  ( 5.000000000000000000, 4.999999999999999100, 2.500000000000000000 ) ) ;
#408 = VERTEX_POINT ( 'NONE', #389 ) ;
#409 = ORIENTED_EDGE ( 'NONE', *, *, #698, .F. ) ;
#410 = CARTESIAN_POINT ( 'NONE',  ( -12.50000000000000000, -1.530808498934191300E-015, 2.500000000000000000 ) ) ;
#411 = ORIENTED_EDGE ( 'NONE', *, *, #749, .F. ) ;
#412 = EDGE_CURVE ( 'NONE', #887, #251, #336, .T. ) ;
#413 = DIRECTION ( 'NONE',  ( 0.0000000000000000000, 1.000000000000000000, 0.0000000000000000000 ) ) ;
#414 = AXIS2_PLACEMENT_3D ( 'NONE', #352, #430, #277 ) ;
#415 = VECTOR ( 'NONE', #788, 1000.000000000000000 ) ;
#416 = FACE_OUTER_BOUND ( 'NONE', #322, .T. ) ;
#417 = CARTESIAN_POINT ( 'NONE',  ( -5.000000000000000000, 19.49999999999999600, 2.500000000000000000 ) ) ;
#418 = ORIENTED_EDGE ( 'NONE', *, *, #686, .F. ) ;
#419 = EDGE_LOOP ( 'NONE', ( #691, #264 ) ) ;
#420 = EDGE_LOOP ( 'NONE', ( #310, #933 ) ) ;
#421 = CARTESIAN_POINT ( 'NONE',  ( 0.0000000000000000000, 23.74999999999999600, 0.0000000000000000000 ) ) ;
#422 = FACE_OUTER_BOUND ( 'NONE', #579, .T. ) ;
#423 = DIRECTION ( 'NONE',  ( 0.0000000000000000000, 1.000000000000000000, 0.0000000000000000000 ) ) ;
#424 = PERSON_AND_ORGANIZATION ( #537, #234 ) ;
#425 = DIRECTION ( 'NONE',  ( -0.0000000000000000000, -0.0000000000000000000, -1.000000000000000000 ) ) ;
#426 = DIRECTION ( 'NONE',  ( -1.000000000000000000, 0.0000000000000000000, 0.0000000000000000000 ) ) ;
#427 = DIRECTION ( 'NONE',  ( -0.0000000000000000000, -0.0000000000000000000, -1.000000000000000000 ) ) ;
#428 = EDGE_CURVE ( 'NONE', #211, #57, #513, .T. ) ;
#429 = UNCERTAINTY_MEASURE_WITH_UNIT (LENGTH_MEASURE( 1.000000000000000100E-005 ), #752, 'distance_accuracy_value', 'NONE');
#430 = DIRECTION ( 'NONE',  ( 1.000000000000000000, 0.0000000000000000000, 0.0000000000000000000 ) ) ;
#431 = ORIENTED_EDGE ( 'NONE', *, *, #939, .F. ) ;
#432 = CARTESIAN_POINT ( 'NONE',  ( -5.000000000000000000, 4.999999999999999100, 2.500000000000000000 ) ) ;
#433 = ORIENTED_EDGE ( 'NONE', *, *, #207, .T. ) ;
#434 = ORIENTED_EDGE ( 'NONE', *, *, #768, .F. ) ;
#435 = DIRECTION ( 'NONE',  ( -1.000000000000000000, 0.0000000000000000000, 0.0000000000000000000 ) ) ;
#436 = AXIS2_PLACEMENT_3D ( 'NONE', #240, #317, #529 ) ;
#437 = DIRECTION ( 'NONE',  ( 1.000000000000000000, -0.0000000000000000000, -0.0000000000000000000 ) ) ;
#438 = DIRECTION ( 'NONE',  ( 0.7761140001162655200, -0.6305926250944657900, 0.0000000000000000000 ) ) ;
#439 = LINE ( 'NONE', #258, #926 ) ;
#440 = CARTESIAN_POINT ( 'NONE',  ( 9.250000000000000000, 10.49999999999999800, 2.500000000000000000 ) ) ;
#441 = DIRECTION ( 'NONE',  ( -0.0000000000000000000, -0.0000000000000000000, -1.000000000000000000 ) ) ;
#442 = FACE_BOUND ( 'NONE', #556, .T. ) ;
#443 = VECTOR ( 'NONE', #123, 1000.000000000000000 ) ;
#444 = CC_DESIGN_PERSON_AND_ORGANIZATION_ASSIGNMENT ( #829, #524, ( #694 ) ) ;
#445 = ORIENTED_EDGE ( 'NONE', *, *, #812, .F. ) ;
#446 = ORIENTED_EDGE ( 'NONE', *, *, #207, .F. ) ;
#447 = CARTESIAN_POINT ( 'NONE',  ( 0.0000000000000000000, 23.74999999999999600, 2.500000000000000000 ) ) ;
#448 = VECTOR ( 'NONE', #947, 1000.000000000000000 ) ;
#449 = VERTEX_POINT ( 'NONE', #301 ) ;
#450 = DIRECTION ( 'NONE',  ( -0.0000000000000000000, -0.0000000000000000000, -1.000000000000000000 ) ) ;
#451 = CARTESIAN_POINT ( 'NONE',  ( 0.0000000000000000000, 23.74999999999999600, 2.500000000000000000 ) ) ;
#452 = LINE ( 'NONE', #222, #376 ) ;
#453 = EDGE_CURVE ( 'NONE', #60, #74, #216, .T. ) ;
#454 = AXIS2_PLACEMENT_3D ( 'NONE', #403, #103, #101 ) ;
#455 = PERSON_AND_ORGANIZATION ( #537, #234 ) ;
#456 = CARTESIAN_POINT ( 'NONE',  ( 6.000000000000000900, 27.99999999999999600, 2.500000000000000000 ) ) ;
#457 = DIRECTION ( 'NONE',  ( 1.000000000000000000, 0.0000000000000000000, -0.0000000000000000000 ) ) ;
#458 = ADVANCED_FACE ( 'NONE', ( #244 ), #31, .F. ) ;
#459 = CARTESIAN_POINT ( 'NONE',  ( 12.25000000000000000, 23.74999999999999600, 0.0000000000000000000 ) ) ;
#460 = EDGE_LOOP ( 'NONE', ( #868, #501 ) ) ;
#461 = VERTEX_POINT ( 'NONE', #315 ) ;
#462 = LINE ( 'NONE', #811, #253 ) ;
#463 = DIRECTION ( 'NONE',  ( 0.0000000000000000000, 0.0000000000000000000, 1.000000000000000000 ) ) ;
#464 = ORIENTED_EDGE ( 'NONE', *, *, #777, .T. ) ;
#465 = APPROVAL_ROLE ( '' ) ;
#466 = CARTESIAN_POINT ( 'NONE',  ( -12.50000000000000000, -1.530808498934191300E-015, 2.500000000000000000 ) ) ;
#467 = EDGE_CURVE ( 'NONE', #538, #74, #790, .T. ) ;
#468 = CC_DESIGN_PERSON_AND_ORGANIZATION_ASSIGNMENT ( #23, #820, ( #320 ) ) ;
#469 = CIRCLE ( 'NONE', #841, 1.000000000000000000 ) ;
#470 = DIRECTION ( 'NONE',  ( 0.0000000000000000000, 0.0000000000000000000, 1.000000000000000000 ) ) ;
#471 = VERTEX_POINT ( 'NONE', #555 ) ;
#472 = ORIENTED_EDGE ( 'NONE', *, *, #774, .F. ) ;
#473 = AXIS2_PLACEMENT_3D ( 'NONE', #350, #865, #931 ) ;
#474 = ORIENTED_EDGE ( 'NONE', *, *, #326, .T. ) ;
#475 = FACE_OUTER_BOUND ( 'NONE', #680, .T. ) ;
#476 = EDGE_LOOP ( 'NONE', ( #356, #918, #197, #398 ) ) ;
#477 = LINE ( 'NONE', #499, #181 ) ;
#478 = PLANE ( 'NONE',  #454 ) ;
#479 = VECTOR ( 'NONE', #483, 1000.000000000000000 ) ;
#480 = CARTESIAN_POINT ( 'NONE',  ( -5.000000000000000900, 27.99999999999999600, 0.0000000000000000000 ) ) ;
#481 = ORIENTED_EDGE ( 'NONE', *, *, #530, .F. ) ;
#482 = EDGE_LOOP ( 'NONE', ( #128, #578, #176, #560 ) ) ;
#483 = DIRECTION ( 'NONE',  ( -0.0000000000000000000, -0.0000000000000000000, -1.000000000000000000 ) ) ;
#484 = DATE_AND_TIME ( #795, #43 ) ;
#485 = CARTESIAN_POINT ( 'NONE',  ( -12.50000000000000000, -1.530808498934191300E-015, 0.0000000000000000000 ) ) ;
#486 = AXIS2_PLACEMENT_3D ( 'NONE', #605, #801, #904 ) ;
#487 = EDGE_CURVE ( 'NONE', #628, #608, #119, .T. ) ;
#488 = VECTOR ( 'NONE', #425, 1000.000000000000000 ) ;
#489 = VECTOR ( 'NONE', #945, 1000.000000000000100 ) ;
#490 = ORIENTED_EDGE ( 'NONE', *, *, #361, .T. ) ;
#491 = VERTEX_POINT ( 'NONE', #923 ) ;
#492 = CC_DESIGN_APPROVAL ( #786, ( #320 ) ) ;
#493 = DIRECTION ( 'NONE',  ( 0.0000000000000000000, -1.000000000000000000, 0.0000000000000000000 ) ) ;
#494 = CARTESIAN_POINT ( 'NONE',  ( 5.000000000000000000, 4.999999999999999100, 2.500000000000000000 ) ) ;
#495 = EDGE_CURVE ( 'NONE', #757, #920, #40, .T. ) ;
#496 = AXIS2_PLACEMENT_3D ( 'NONE', #567, #719, #925 ) ;
#497 = CIRCLE ( 'NONE', #188, 1.000000000000000000 ) ;
#498 = EDGE_CURVE ( 'NONE', #757, #449, #71, .T. ) ;
#499 = CARTESIAN_POINT ( 'NONE',  ( 1.750000000000000400, 23.74999999999999600, 2.500000000000000000 ) ) ;
#500 = EDGE_LOOP ( 'NONE', ( #620, #275, #490, #38, #776, #385, #243, #346, #595, #22 ) ) ;
#501 = ORIENTED_EDGE ( 'NONE', *, *, #297, .T. ) ;
#502 = VECTOR ( 'NONE', #754, 1000.000000000000100 ) ;
#503 = ORIENTED_EDGE ( 'NONE', *, *, #774, .T. ) ;
#504 = CARTESIAN_POINT ( 'NONE',  ( -12.50000000000000000, 6.499999999999998200, 2.500000000000000000 ) ) ;
#505 = DIRECTION ( 'NONE',  ( 0.0000000000000000000, 0.0000000000000000000, 1.000000000000000000 ) ) ;
#506 = CIRCLE ( 'NONE', #372, 1.000000000000000000 ) ;
#507 = DIRECTION ( 'NONE',  ( 1.000000000000000000, 0.0000000000000000000, 0.0000000000000000000 ) ) ;
#508 = CARTESIAN_POINT ( 'NONE',  ( -5.000000000000000000, 19.49999999999999600, 2.500000000000000000 ) ) ;
#509 = PRODUCT_DEFINITION_SHAPE ( 'NONE', 'NONE',  #694 ) ;
#510 = EDGE_LOOP ( 'NONE', ( #943, #900, #844, #678 ) ) ;
#511 = ORIENTED_EDGE ( 'NONE', *, *, #200, .F. ) ;
#512 = VERTEX_POINT ( 'NONE', #304 ) ;
#513 = CIRCLE ( 'NONE', #738, 1.750000000000000400 ) ;
#514 = CARTESIAN_POINT ( 'NONE',  ( -1.750000000000000400, 23.74999999999999600, 2.500000000000000000 ) ) ;
#515 = ORIENTED_EDGE ( 'NONE', *, *, #710, .T. ) ;
#516 = CARTESIAN_POINT ( 'NONE',  ( 5.000000000000000000, 4.999999999999999100, 2.500000000000000000 ) ) ;
#517 = CARTESIAN_POINT ( 'NONE',  ( 5.000000000000000000, 19.49999999999999600, 2.500000000000000000 ) ) ;
#518 = DIRECTION ( 'NONE',  ( 1.000000000000000000, 0.0000000000000000000, 0.0000000000000000000 ) ) ;
#519 = AXIS2_PLACEMENT_3D ( 'NONE', #375, #13, #526 ) ;
#520 = LINE ( 'NONE', #936, #934 ) ;
#521 = CARTESIAN_POINT ( 'NONE',  ( 12.50000000000000000, -1.530808498934191300E-015, 2.500000000000000000 ) ) ;
#522 = CARTESIAN_POINT ( 'NONE',  ( 0.0000000000000000000, 0.0000000000000000000, 0.0000000000000000000 ) ) ;
#523 = SHAPE_DEFINITION_REPRESENTATION ( #509, #772 ) ;
#524 = PERSON_AND_ORGANIZATION_ROLE ( 'creator' ) ;
#525 = ORIENTED_EDGE ( 'NONE', *, *, #905, .F. ) ;
#526 = DIRECTION ( 'NONE',  ( -1.000000000000000000, 0.0000000000000000000, 0.0000000000000000000 ) ) ;
#527 = EDGE_LOOP ( 'NONE', ( #386, #778 ) ) ;
#528 = DIRECTION ( 'NONE',  ( -1.000000000000000000, 0.0000000000000000000, 0.0000000000000000000 ) ) ;
#529 = DIRECTION ( 'NONE',  ( 0.0000000000000000000, 0.0000000000000000000, 1.000000000000000000 ) ) ;
#530 = EDGE_CURVE ( 'NONE', #608, #628, #44, .T. ) ;
#531 = COORDINATED_UNIVERSAL_TIME_OFFSET ( 1, 0, .AHEAD. ) ;
#532 = DIRECTION ( 'NONE',  ( -0.0000000000000000000, -0.0000000000000000000, -1.000000000000000000 ) ) ;
#533 = DIRECTION ( 'NONE',  ( 1.000000000000000000, 0.0000000000000000000, 0.0000000000000000000 ) ) ;
#534 = DIRECTION ( 'NONE',  ( 1.000000000000000000, -0.0000000000000000000, -0.0000000000000000000 ) ) ;
#535 = AXIS2_PLACEMENT_3D ( 'NONE', #342, #48, #855 ) ;
#536 = LINE ( 'NONE', #724, #307 ) ;
#537 = PERSON ( 'UNSPECIFIED', 'UNSPECIFIED', 'UNSPECIFIED', ('UNSPECIFIED'), ('UNSPECIFIED'), ('UNSPECIFIED') ) ;
#538 = VERTEX_POINT ( 'NONE', #741 ) ;
#539 = ADVANCED_FACE ( 'NONE', ( #92, #637, #283, #26, #259, #638, #442 ), #915, .T. ) ;
#540 = CARTESIAN_POINT ( 'NONE',  ( -9.250000000000000000, 10.49999999999999800, 0.0000000000000000000 ) ) ;
#541 = ORIENTED_EDGE ( 'NONE', *, *, #583, .F. ) ;
#542 = LINE ( 'NONE', #679, #49 ) ;
#543 = VECTOR ( 'NONE', #279, 1000.000000000000000 ) ;
#544 = DIRECTION ( 'NONE',  ( -0.0000000000000000000, -0.0000000000000000000, -1.000000000000000000 ) ) ;
#545 = DATE_AND_TIME ( #781, #612 ) ;
#546 = FACE_OUTER_BOUND ( 'NONE', #821, .T. ) ;
#547 = EDGE_CURVE ( 'NONE', #323, #887, #239, .T. ) ;
#548 = ORIENTED_EDGE ( 'NONE', *, *, #777, .F. ) ;
#549 = EDGE_CURVE ( 'NONE', #798, #202, #660, .T. ) ;
#550 = VERTEX_POINT ( 'NONE', #846 ) ;
#551 = CYLINDRICAL_SURFACE ( 'NONE', #687, 1.750000000000000400 ) ;
#552 = CARTESIAN_POINT ( 'NONE',  ( -5.000000000000000900, 27.99999999999999600, 2.500000000000000000 ) ) ;
#553 = VECTOR ( 'NONE', #68, 1000.000000000000000 ) ;
#554 = CARTESIAN_POINT ( 'NONE',  ( 12.50000000000000000, -1.530808498934191300E-015, 2.500000000000000000 ) ) ;
#555 = CARTESIAN_POINT ( 'NONE',  ( 4.000000000000000000, 19.49999999999999600, 0.0000000000000000000 ) ) ;
#556 = EDGE_LOOP ( 'NONE', ( #177, #47 ) ) ;
#557 = EDGE_LOOP ( 'NONE', ( #665, #126, #358, #20 ) ) ;
#558 = EDGE_CURVE ( 'NONE', #607, #140, #497, .T. ) ;
#559 = ORIENTED_EDGE ( 'NONE', *, *, #896, .F. ) ;
#560 = ORIENTED_EDGE ( 'NONE', *, *, #82, .T. ) ;
#561 = DIRECTION ( 'NONE',  ( -1.000000000000000000, 0.0000000000000000000, 0.0000000000000000000 ) ) ;
#562 = LOCAL_TIME ( 17, 57, 48.00000000000000000, #339 ) ;
#563 = AXIS2_PLACEMENT_3D ( 'NONE', #732, #937, #281 ) ;
#564 = LINE ( 'NONE', #842, #852 ) ;
#565 = CARTESIAN_POINT ( 'NONE',  ( 12.50000000000000000, -1.530808498934191300E-015, 2.500000000000000000 ) ) ;
#566 = ORIENTED_EDGE ( 'NONE', *, *, #487, .T. ) ;
#567 = CARTESIAN_POINT ( 'NONE',  ( 5.000000000000000000, 4.999999999999999100, 2.500000000000000000 ) ) ;
#568 = EDGE_LOOP ( 'NONE', ( #756, #640, #642, #169 ) ) ;
#569 = VECTOR ( 'NONE', #586, 1000.000000000000000 ) ;
#570 = ORIENTED_EDGE ( 'NONE', *, *, #80, .T. ) ;
#571 = CARTESIAN_POINT ( 'NONE',  ( -12.50000000000000000, 6.499999999999998200, 0.0000000000000000000 ) ) ;
#572 = LINE ( 'NONE', #736, #351 ) ;
#573 = CARTESIAN_POINT ( 'NONE',  ( 5.000000000000000900, 27.99999999999999600, 2.500000000000000000 ) ) ;
#574 = CARTESIAN_POINT ( 'NONE',  ( 12.50000000000000000, -1.530808498934191300E-015, 2.500000000000000000 ) ) ;
#575 = EDGE_CURVE ( 'NONE', #799, #581, #783, .T. ) ;
#576 = DIRECTION ( 'NONE',  ( 0.0000000000000000000, 0.0000000000000000000, 1.000000000000000000 ) ) ;
#577 = DIRECTION ( 'NONE',  ( 1.000000000000000000, 0.0000000000000000000, 0.0000000000000000000 ) ) ;
#578 = ORIENTED_EDGE ( 'NONE', *, *, #343, .F. ) ;
#579 = EDGE_LOOP ( 'NONE', ( #657, #892, #464, #902 ) ) ;
#580 = CARTESIAN_POINT ( 'NONE',  ( -4.000000000000000900, 27.99999999999999600, 2.500000000000000000 ) ) ;
#581 = VERTEX_POINT ( 'NONE', #696 ) ;
#582 = DIRECTION ( 'NONE',  ( 1.000000000000000000, 0.0000000000000000000, 0.0000000000000000000 ) ) ;
#583 = EDGE_CURVE ( 'NONE', #471, #230, #367, .T. ) ;
#584 = CARTESIAN_POINT ( 'NONE',  ( 0.0000000000000000000, 23.74999999999999600, 2.500000000000000000 ) ) ;
#585 = VECTOR ( 'NONE', #919, 1000.000000000000000 ) ;
#586 = DIRECTION ( 'NONE',  ( 0.0000000000000000000, 1.000000000000000000, 0.0000000000000000000 ) ) ;
#587 = PERSON_AND_ORGANIZATION ( #537, #234 ) ;
#588 = CARTESIAN_POINT ( 'NONE',  ( 0.0000000000000000000, 23.74999999999999600, 2.500000000000000000 ) ) ;
#589 = APPROVAL_DATE_TIME ( #806, #223 ) ;
#590 = DIRECTION ( 'NONE',  ( 0.6305926250944656800, 0.7761140001162654100, 0.0000000000000000000 ) ) ;
#591 = LINE ( 'NONE', #183, #415 ) ;
#592 = LINE ( 'NONE', #120, #662 ) ;
#593 = LINE ( 'NONE', #565, #663 ) ;
#594 = DIRECTION ( 'NONE',  ( -0.0000000000000000000, -0.0000000000000000000, -1.000000000000000000 ) ) ;
#595 = ORIENTED_EDGE ( 'NONE', *, *, #112, .T. ) ;
#596 = ORIENTED_EDGE ( 'NONE', *, *, #848, .F. ) ;
#597 = ADVANCED_FACE ( 'NONE', ( #416 ), #70, .F. ) ;
#598 = ORIENTED_EDGE ( 'NONE', *, *, #82, .F. ) ;
#599 = EDGE_CURVE ( 'NONE', #677, #19, #469, .T. ) ;
#600 = AXIS2_PLACEMENT_3D ( 'NONE', #127, #713, #639 ) ;
#601 = DIRECTION ( 'NONE',  ( 1.000000000000000000, 0.0000000000000000000, 0.0000000000000000000 ) ) ;
#602 = DIRECTION ( 'NONE',  ( 1.000000000000000000, 0.0000000000000000000, 0.0000000000000000000 ) ) ;
#603 = DIRECTION ( 'NONE',  ( -0.0000000000000000000, -0.0000000000000000000, -1.000000000000000000 ) ) ;
#604 = ADVANCED_FACE ( 'NONE', ( #79 ), #478, .T. ) ;
#605 = CARTESIAN_POINT ( 'NONE',  ( 0.0000000000000000000, 23.74999999999999600, 2.500000000000000000 ) ) ;
#606 = ORIENTED_EDGE ( 'NONE', *, *, #610, .T. ) ;
#607 = VERTEX_POINT ( 'NONE', #849 ) ;
#608 = VERTEX_POINT ( 'NONE', #325 ) ;
#609 = CARTESIAN_POINT ( 'NONE',  ( 5.000000000000000000, 4.999999999999999100, 0.0000000000000000000 ) ) ;
#610 = EDGE_CURVE ( 'NONE', #847, #349, #615, .T. ) ;
#611 = APPROVAL ( #883, 'UNSPECIFIED' ) ;
#612 = LOCAL_TIME ( 17, 57, 48.00000000000000000, #803 ) ;
#613 = DIRECTION ( 'NONE',  ( -1.000000000000000000, 0.0000000000000000000, 0.0000000000000000000 ) ) ;
#614 = CARTESIAN_POINT ( 'NONE',  ( -5.000000000000000900, 27.99999999999999600, 2.500000000000000000 ) ) ;
#615 = LINE ( 'NONE', #407, #479 ) ;
#616 = VECTOR ( 'NONE', #329, 1000.000000000000000 ) ;
#617 = LINE ( 'NONE', #928, #443 ) ;
#618 = EDGE_CURVE ( 'NONE', #84, #889, #102, .T. ) ;
#619 = ORIENTED_EDGE ( 'NONE', *, *, #80, .F. ) ;
#620 = ORIENTED_EDGE ( 'NONE', *, *, #221, .T. ) ;
#621 = DIRECTION ( 'NONE',  ( -0.0000000000000000000, -0.0000000000000000000, -1.000000000000000000 ) ) ;
#622 = CALENDAR_DATE ( 2018, 5, 11 ) ;
#623 = CARTESIAN_POINT ( 'NONE',  ( -5.000000000000000000, 15.00000000000000000, 2.500000000000000000 ) ) ;
#624 = EDGE_CURVE ( 'NONE', #149, #909, #319, .T. ) ;
#625 = ADVANCED_FACE ( 'NONE', ( #546 ), #36, .F. ) ;
#626 = VERTEX_POINT ( 'NONE', #108 ) ;
#627 = AXIS2_PLACEMENT_3D ( 'NONE', #303, #666, #383 ) ;
#628 = VERTEX_POINT ( 'NONE', #708 ) ;
#629 = CIRCLE ( 'NONE', #50, 1.000000000000000000 ) ;
#630 = DIRECTION ( 'NONE',  ( 0.0000000000000000000, 0.0000000000000000000, 1.000000000000000000 ) ) ;
#631 = ORIENTED_EDGE ( 'NONE', *, *, #129, .T. ) ;
#632 = CARTESIAN_POINT ( 'NONE',  ( -9.250000000000000000, 15.71881079789549000, 2.500000000000000000 ) ) ;
#633 = PERSON_AND_ORGANIZATION ( #537, #234 ) ;
#634 = AXIS2_PLACEMENT_3D ( 'NONE', #588, #208, #743 ) ;
#635 = CARTESIAN_POINT ( 'NONE',  ( 12.50000000000000000, 6.499999999999998200, 2.500000000000000000 ) ) ;
#636 = DIRECTION ( 'NONE',  ( -0.0000000000000000000, 1.000000000000000000, -0.0000000000000000000 ) ) ;
#637 = FACE_BOUND ( 'NONE', #420, .T. ) ;
#638 = FACE_BOUND ( 'NONE', #168, .T. ) ;
#639 = DIRECTION ( 'NONE',  ( 1.000000000000000000, 0.0000000000000000000, 0.0000000000000000000 ) ) ;
#640 = ORIENTED_EDGE ( 'NONE', *, *, #896, .T. ) ;
#641 = ORIENTED_EDGE ( 'NONE', *, *, #599, .T. ) ;
#642 = ORIENTED_EDGE ( 'NONE', *, *, #922, .F. ) ;
#643 = CARTESIAN_POINT ( 'NONE',  ( 12.50000000000000000, -1.530808498934191300E-015, 0.0000000000000000000 ) ) ;
#644 = FACE_BOUND ( 'NONE', #357, .T. ) ;
#645 = ORIENTED_EDGE ( 'NONE', *, *, #681, .F. ) ;
#646 = DIRECTION ( 'NONE',  ( -0.0000000000000000000, -0.0000000000000000000, -1.000000000000000000 ) ) ;
#647 = CARTESIAN_POINT ( 'NONE',  ( -6.000000000000000000, 19.49999999999999600, 2.500000000000000000 ) ) ;
#648 = CARTESIAN_POINT ( 'NONE',  ( 12.25000000000000000, 23.74999999999999600, 2.500000000000000000 ) ) ;
#649 = DIRECTION ( 'NONE',  ( -1.000000000000000000, 0.0000000000000000000, 0.0000000000000000000 ) ) ;
#650 = AXIS2_PLACEMENT_3D ( 'NONE', #198, #138, #582 ) ;
#651 = DIRECTION ( 'NONE',  ( -0.0000000000000000000, -0.0000000000000000000, -1.000000000000000000 ) ) ;
#652 = ORIENTED_EDGE ( 'NONE', *, *, #885, .T. ) ;
#653 = CARTESIAN_POINT ( 'NONE',  ( 0.0000000000000000000, 23.74999999999999600, 0.0000000000000000000 ) ) ;
#654 = ORIENTED_EDGE ( 'NONE', *, *, #905, .T. ) ;
#655 = EDGE_CURVE ( 'NONE', #626, #941, #564, .T. ) ;
#656 = LINE ( 'NONE', #753, #502 ) ;
#657 = ORIENTED_EDGE ( 'NONE', *, *, #655, .F. ) ;
#658 = CARTESIAN_POINT ( 'NONE',  ( 1.750000000000000400, 23.74999999999999600, 2.500000000000000000 ) ) ;
#659 = AXIS2_PLACEMENT_3D ( 'NONE', #2, #203, #142 ) ;
#660 = LINE ( 'NONE', #321, #616 ) ;
#661 = DIRECTION ( 'NONE',  ( -1.000000000000000000, 0.0000000000000000000, 0.0000000000000000000 ) ) ;
#662 = VECTOR ( 'NONE', #423, 1000.000000000000000 ) ;
#663 = VECTOR ( 'NONE', #190, 1000.000000000000000 ) ;
#664 = EDGE_LOOP ( 'NONE', ( #299, #158, #96, #700 ) ) ;
#665 = ORIENTED_EDGE ( 'NONE', *, *, #812, .T. ) ;
#666 = DIRECTION ( 'NONE',  ( 0.0000000000000000000, 0.0000000000000000000, 1.000000000000000000 ) ) ;
#667 = CIRCLE ( 'NONE', #131, 1.000000000000000000 ) ;
#668 = AXIS2_PLACEMENT_3D ( 'NONE', #573, #576, #134 ) ;
#669 = VERTEX_POINT ( 'NONE', #250 ) ;
#670 = CYLINDRICAL_SURFACE ( 'NONE', #172, 1.000000000000000000 ) ;
#671 = ADVANCED_FACE ( 'NONE', ( #184 ), #114, .F. ) ;
#672 = CARTESIAN_POINT ( 'NONE',  ( -4.000000000000000000, 19.49999999999999600, 0.0000000000000000000 ) ) ;
#673 = CARTESIAN_POINT ( 'NONE',  ( -1.750000000000000400, 23.74999999999999600, 2.500000000000000000 ) ) ;
#674 = PRODUCT ( 'camera_mount_1_Domyúlna_sldprt', 'camera_mount_1_Domyúlna_sldprt', '', ( #75 ) ) ;
#675 = ADVANCED_FACE ( 'NONE', ( #854 ), #906, .T. ) ;
#676 = SECURITY_CLASSIFICATION_LEVEL ( 'unclassified' ) ;
#677 = VERTEX_POINT ( 'NONE', #860 ) ;
#678 = ORIENTED_EDGE ( 'NONE', *, *, #343, .T. ) ;
#679 = CARTESIAN_POINT ( 'NONE',  ( 9.250000000000000000, 15.71881079789549000, 2.500000000000000000 ) ) ;
#680 = EDGE_LOOP ( 'NONE', ( #870, #30, #445, #104, #335, #703, #880, #409, #116, #263 ) ) ;
#681 = EDGE_CURVE ( 'NONE', #349, #866, #439, .T. ) ;
#682 = APPLICATION_CONTEXT ( 'configuration controlled 3d designs of mechanical parts and assemblies' ) ;
#683 = AXIS2_PLACEMENT_3D ( 'NONE', #522, #154, #601 ) ;
#684 = CARTESIAN_POINT ( 'NONE',  ( 5.000000000000000000, 19.49999999999999600, 0.0000000000000000000 ) ) ;
#685 = COORDINATED_UNIVERSAL_TIME_OFFSET ( 1, 0, .AHEAD. ) ;
#686 = EDGE_CURVE ( 'NONE', #449, #491, #591, .T. ) ;
#687 = AXIS2_PLACEMENT_3D ( 'NONE', #166, #25, #613 ) ;
#688 = EDGE_CURVE ( 'NONE', #202, #920, #697, .T. ) ;
#689 = CYLINDRICAL_SURFACE ( 'NONE', #24, 1.000000000000000000 ) ;
#690 = ORIENTED_EDGE ( 'NONE', *, *, #361, .F. ) ;
#691 = ORIENTED_EDGE ( 'NONE', *, *, #848, .T. ) ;
#692 = LINE ( 'NONE', #204, #932 ) ;
#693 = DIRECTION ( 'NONE',  ( 0.0000000000000000000, 0.0000000000000000000, 1.000000000000000000 ) ) ;
#694 = PRODUCT_DEFINITION ( 'UNKNOWN', '', #320, #205 ) ;
#695 = DIRECTION ( 'NONE',  ( 1.000000000000000000, 0.0000000000000000000, 0.0000000000000000000 ) ) ;
#696 = CARTESIAN_POINT ( 'NONE',  ( -4.000000000000000900, 27.99999999999999600, 0.0000000000000000000 ) ) ;
#697 = CIRCLE ( 'NONE', #292, 12.25000000000000000 ) ;
#698 = EDGE_CURVE ( 'NONE', #942, #242, #394, .T. ) ;
#699 = AXIS2_PLACEMENT_3D ( 'NONE', #417, #646, #561 ) ;
#700 = ORIENTED_EDGE ( 'NONE', *, *, #750, .F. ) ;
#701 = ORIENTED_EDGE ( 'NONE', *, *, #498, .F. ) ;
#702 = FACE_OUTER_BOUND ( 'NONE', #779, .T. ) ;
#703 = ORIENTED_EDGE ( 'NONE', *, *, #624, .F. ) ;
#704 = ADVANCED_FACE ( 'NONE', ( #167 ), #745, .F. ) ;
#705 = DIRECTION ( 'NONE',  ( 0.0000000000000000000, 0.0000000000000000000, 1.000000000000000000 ) ) ;
#706 = CYLINDRICAL_SURFACE ( 'NONE', #94, 12.25000000000000000 ) ;
#707 = EDGE_CURVE ( 'NONE', #97, #202, #144, .T. ) ;
#708 = CARTESIAN_POINT ( 'NONE',  ( 4.000000000000000000, 19.49999999999999600, 2.500000000000000000 ) ) ;
#709 = DIRECTION ( 'NONE',  ( 0.0000000000000000000, 1.000000000000000000, 0.0000000000000000000 ) ) ;
#710 = EDGE_CURVE ( 'NONE', #608, #230, #341, .T. ) ;
#711 = CIRCLE ( 'NONE', #6, 1.000000000000000000 ) ;
#712 = ORIENTED_EDGE ( 'NONE', *, *, #547, .T. ) ;
#713 = DIRECTION ( 'NONE',  ( 0.0000000000000000000, 0.0000000000000000000, 1.000000000000000000 ) ) ;
#714 = ORIENTED_EDGE ( 'NONE', *, *, #297, .F. ) ;
#715 = VECTOR ( 'NONE', #178, 1000.000000000000000 ) ;
#716 = DIRECTION ( 'NONE',  ( -1.000000000000000000, -0.0000000000000000000, -0.0000000000000000000 ) ) ;
#717 = DIRECTION ( 'NONE',  ( -0.0000000000000000000, -0.0000000000000000000, -1.000000000000000000 ) ) ;
#718 = AXIS2_PLACEMENT_3D ( 'NONE', #830, #463, #457 ) ;
#719 = DIRECTION ( 'NONE',  ( -1.000000000000000000, 0.0000000000000000000, 0.0000000000000000000 ) ) ;
#720 = CARTESIAN_POINT ( 'NONE',  ( 12.50000000000000000, 6.499999999999998200, 2.500000000000000000 ) ) ;
#721 = CARTESIAN_POINT ( 'NONE',  ( -6.000000000000000900, 27.99999999999999600, 2.500000000000000000 ) ) ;
#722 = ORIENTED_EDGE ( 'NONE', *, *, #698, .T. ) ;
#723 = ORIENTED_EDGE ( 'NONE', *, *, #453, .F. ) ;
#724 = CARTESIAN_POINT ( 'NONE',  ( -9.250000000000000000, 10.49999999999999800, 2.500000000000000000 ) ) ;
#725 = EDGE_LOOP ( 'NONE', ( #474, #187, #37, #944 ) ) ;
#726 = DIRECTION ( 'NONE',  ( -0.6305926250944656800, 0.7761140001162654100, 0.0000000000000000000 ) ) ;
#727 = CARTESIAN_POINT ( 'NONE',  ( 5.000000000000000000, 19.49999999999999600, 2.500000000000000000 ) ) ;
#728 = VECTOR ( 'NONE', #603, 1000.000000000000000 ) ;
#729 = CARTESIAN_POINT ( 'NONE',  ( 4.000000000000000900, 27.99999999999999600, 0.0000000000000000000 ) ) ;
#730 = EDGE_CURVE ( 'NONE', #57, #211, #27, .T. ) ;
#731 = CC_DESIGN_APPROVAL ( #223, ( #182 ) ) ;
#732 = CARTESIAN_POINT ( 'NONE',  ( 12.50000000000000000, 6.499999999999998200, 2.500000000000000000 ) ) ;
#733 = CARTESIAN_POINT ( 'NONE',  ( 12.50000000000000000, 6.499999999999998200, 0.0000000000000000000 ) ) ;
#734 = EDGE_CURVE ( 'NONE', #9, #41, #237, .T. ) ;
#735 = FACE_OUTER_BOUND ( 'NONE', #189, .T. ) ;
#736 = CARTESIAN_POINT ( 'NONE',  ( 5.000000000000000000, 15.00000000000000000, 2.500000000000000000 ) ) ;
#737 = ORIENTED_EDGE ( 'NONE', *, *, #428, .T. ) ;
#738 = AXIS2_PLACEMENT_3D ( 'NONE', #236, #831, #533 ) ;
#739 = ORIENTED_EDGE ( 'NONE', *, *, #55, .T. ) ;
#740 = FACE_OUTER_BOUND ( 'NONE', #836, .T. ) ;
#741 = CARTESIAN_POINT ( 'NONE',  ( 12.50000000000000000, -1.530808498934191300E-015, 0.0000000000000000000 ) ) ;
#742 = LINE ( 'NONE', #432, #543 ) ;
#743 = DIRECTION ( 'NONE',  ( 1.000000000000000000, 0.0000000000000000000, 0.0000000000000000000 ) ) ;
#744 = DIRECTION ( 'NONE',  ( 0.0000000000000000000, 0.0000000000000000000, 1.000000000000000000 ) ) ;
#745 = CYLINDRICAL_SURFACE ( 'NONE', #699, 1.000000000000000000 ) ;
#746 =( NAMED_UNIT ( * ) PLANE_ANGLE_UNIT ( ) SI_UNIT ( $, .RADIAN. ) );
#747 = ORIENTED_EDGE ( 'NONE', *, *, #901, .T. ) ;
#748 = ORIENTED_EDGE ( 'NONE', *, *, #794, .F. ) ;
#749 = EDGE_CURVE ( 'NONE', #550, #60, #592, .T. ) ;
#750 = EDGE_CURVE ( 'NONE', #847, #323, #185, .T. ) ;
#751 = LINE ( 'NONE', #673, #728 ) ;
#752 =( LENGTH_UNIT ( ) NAMED_UNIT ( * ) SI_UNIT ( .MILLI., .METRE. ) );
#753 = CARTESIAN_POINT ( 'NONE',  ( -12.50000000000000000, 6.499999999999998200, 2.500000000000000000 ) ) ;
#754 = DIRECTION ( 'NONE',  ( -0.6305926250944656800, -0.7761140001162654100, -0.0000000000000000000 ) ) ;
#755 = ADVANCED_FACE ( 'NONE', ( #293 ), #14, .F. ) ;
#756 = ORIENTED_EDGE ( 'NONE', *, *, #51, .T. ) ;
#757 = VERTEX_POINT ( 'NONE', #648 ) ;
#758 = ORIENTED_EDGE ( 'NONE', *, *, #232, .F. ) ;
#759 = LINE ( 'NONE', #54, #585 ) ;
#760 = DIRECTION ( 'NONE',  ( -0.0000000000000000000, -1.000000000000000000, -0.0000000000000000000 ) ) ;
#761 = APPROVAL_PERSON_ORGANIZATION ( #165, #223, #465 ) ;
#762 = CARTESIAN_POINT ( 'NONE',  ( -5.000000000000000000, 4.999999999999999100, 0.0000000000000000000 ) ) ;
#763 = EDGE_CURVE ( 'NONE', #57, #512, #477, .T. ) ;
#764 = ORIENTED_EDGE ( 'NONE', *, *, #874, .F. ) ;
#765 = ORIENTED_EDGE ( 'NONE', *, *, #863, .T. ) ;
#766 = EDGE_LOOP ( 'NONE', ( #929, #641 ) ) ;
#767 = LINE ( 'NONE', #384, #903 ) ;
#768 = EDGE_CURVE ( 'NONE', #9, #799, #316, .T. ) ;
#769 = FACE_OUTER_BOUND ( 'NONE', #146, .T. ) ;
#770 = DIRECTION ( 'NONE',  ( 0.0000000000000000000, 0.0000000000000000000, 1.000000000000000000 ) ) ;
#771 = APPROVAL_DATE_TIME ( #16, #611 ) ;
#772 = ADVANCED_BREP_SHAPE_REPRESENTATION ( 'camera_mount_1_Domyùlna_sldprt', ( #406, #683 ), #113 ) ;
#773 = CARTESIAN_POINT ( 'NONE',  ( 5.000000000000000900, 27.99999999999999600, 2.500000000000000000 ) ) ;
#774 = EDGE_CURVE ( 'NONE', #461, #941, #248, .T. ) ;
#775 = PRODUCT_RELATED_PRODUCT_CATEGORY ( 'detail', '', ( #674 ) ) ;
#776 = ORIENTED_EDGE ( 'NONE', *, *, #291, .T. ) ;
#777 = EDGE_CURVE ( 'NONE', #32, #461, #759, .T. ) ;
#778 = ORIENTED_EDGE ( 'NONE', *, *, #378, .T. ) ;
#779 = EDGE_LOOP ( 'NONE', ( #690, #157, #856, #446 ) ) ;
#780 = CARTESIAN_POINT ( 'NONE',  ( 0.0000000000000000000, 23.74999999999999600, 2.500000000000000000 ) ) ;
#781 = CALENDAR_DATE ( 2018, 5, 11 ) ;
#782 = CALENDAR_DATE ( 2018, 5, 11 ) ;
#783 = CIRCLE ( 'NONE', #344, 1.000000000000000000 ) ;
#784 = CARTESIAN_POINT ( 'NONE',  ( 6.000000000000000000, 19.49999999999999600, 2.500000000000000000 ) ) ;
#785 = FACE_OUTER_BOUND ( 'NONE', #482, .T. ) ;
#786 = APPROVAL ( #824, 'UNSPECIFIED' ) ;
#787 = ORIENTED_EDGE ( 'NONE', *, *, #428, .F. ) ;
#788 = DIRECTION ( 'NONE',  ( -0.0000000000000000000, -0.0000000000000000000, -1.000000000000000000 ) ) ;
#789 = EDGE_LOOP ( 'NONE', ( #701, #214, #747, #418 ) ) ;
#790 = LINE ( 'NONE', #643, #569 ) ;
#791 = ORIENTED_EDGE ( 'NONE', *, *, #768, .T. ) ;
#792 = DIRECTION ( 'NONE',  ( -1.000000000000000000, 0.0000000000000000000, 0.0000000000000000000 ) ) ;
#793 = EDGE_CURVE ( 'NONE', #628, #471, #924, .T. ) ;
#794 = EDGE_CURVE ( 'NONE', #323, #866, #572, .T. ) ;
#795 = CALENDAR_DATE ( 2018, 5, 11 ) ;
#796 = CARTESIAN_POINT ( 'NONE',  ( 5.000000000000000000, 4.999999999999999100, 2.500000000000000000 ) ) ;
#797 = CARTESIAN_POINT ( 'NONE',  ( 5.000000000000000000, 15.00000000000000000, 0.0000000000000000000 ) ) ;
#798 = VERTEX_POINT ( 'NONE', #61 ) ;
#799 = VERTEX_POINT ( 'NONE', #65 ) ;
#800 = DIRECTION ( 'NONE',  ( -0.0000000000000000000, -0.0000000000000000000, -1.000000000000000000 ) ) ;
#801 = DIRECTION ( 'NONE',  ( 0.0000000000000000000, 0.0000000000000000000, 1.000000000000000000 ) ) ;
#802 = CARTESIAN_POINT ( 'NONE',  ( 9.250000000000000000, 10.49999999999999800, 0.0000000000000000000 ) ) ;
#803 = COORDINATED_UNIVERSAL_TIME_OFFSET ( 1, 0, .AHEAD. ) ;
#804 = CC_DESIGN_APPROVAL ( #611, ( #694 ) ) ;
#805 = CARTESIAN_POINT ( 'NONE',  ( 12.50000000000000000, 6.499999999999998200, 2.500000000000000000 ) ) ;
#806 = DATE_AND_TIME ( #782, #562 ) ;
#807 = CARTESIAN_POINT ( 'NONE',  ( -9.250000000000000000, 15.71881079789549000, 2.500000000000000000 ) ) ;
#808 = VECTOR ( 'NONE', #912, 1000.000000000000000 ) ;
#809 = LINE ( 'NONE', #571, #28 ) ;
#810 = ORIENTED_EDGE ( 'NONE', *, *, #291, .F. ) ;
#811 = CARTESIAN_POINT ( 'NONE',  ( -5.000000000000000000, 15.00000000000000000, 0.0000000000000000000 ) ) ;
#812 = EDGE_CURVE ( 'NONE', #74, #97, #219, .T. ) ;
#813 = ORIENTED_EDGE ( 'NONE', *, *, #221, .F. ) ;
#814 = CLOSED_SHELL ( 'NONE', ( #898, #91, #704, #458, #312, #106, #227, #539, #381, #927, #671, #894, #15, #827, #625, #8, #302, #17, #387, #675, #604, #755, #597, #328, #78, #86 ) ) ;
#815 = DIRECTION ( 'NONE',  ( -0.0000000000000000000, -0.0000000000000000000, -1.000000000000000000 ) ) ;
#816 = FACE_OUTER_BOUND ( 'NONE', #568, .T. ) ;
#817 = DIRECTION ( 'NONE',  ( -1.000000000000000000, 0.0000000000000000000, 0.0000000000000000000 ) ) ;
#818 = DATE_TIME_ROLE ( 'creation_date' ) ;
#819 = CARTESIAN_POINT ( 'NONE',  ( 5.000000000000000000, 4.999999999999999100, 0.0000000000000000000 ) ) ;
#820 = PERSON_AND_ORGANIZATION_ROLE ( 'design_supplier' ) ;
#821 = EDGE_LOOP ( 'NONE', ( #834, #723, #411, #739 ) ) ;
#822 = ORIENTED_EDGE ( 'NONE', *, *, #610, .F. ) ;
#823 = EDGE_CURVE ( 'NONE', #170, #97, #110, .T. ) ;
#824 = APPROVAL_STATUS ( 'not_yet_approved' ) ;
#825 = VECTOR ( 'NONE', #877, 1000.000000000000000 ) ;
#826 = ORIENTED_EDGE ( 'NONE', *, *, #495, .F. ) ;
#827 = ADVANCED_FACE ( 'NONE', ( #151 ), #876, .F. ) ;
#828 = CARTESIAN_POINT ( 'NONE',  ( 5.000000000000000000, 15.00000000000000000, 2.500000000000000000 ) ) ;
#829 = PERSON_AND_ORGANIZATION ( #537, #234 ) ;
#830 = CARTESIAN_POINT ( 'NONE',  ( 0.0000000000000000000, 23.74999999999999600, 0.0000000000000000000 ) ) ;
#831 = DIRECTION ( 'NONE',  ( 0.0000000000000000000, 0.0000000000000000000, 1.000000000000000000 ) ) ;
#832 = EDGE_CURVE ( 'NONE', #887, #669, #742, .T. ) ;
#833 = CARTESIAN_POINT ( 'NONE',  ( -5.000000000000000900, 27.99999999999999600, 0.0000000000000000000 ) ) ;
#834 = ORIENTED_EDGE ( 'NONE', *, *, #467, .T. ) ;
#835 = ORIENTED_EDGE ( 'NONE', *, *, #710, .F. ) ;
#836 = EDGE_LOOP ( 'NONE', ( #511, #764, #631, #606 ) ) ;
#837 = CIRCLE ( 'NONE', #634, 12.25000000000000000 ) ;
#838 = CC_DESIGN_DATE_AND_TIME_ASSIGNMENT ( #330, #818, ( #694 ) ) ;
#839 = DIRECTION ( 'NONE',  ( -0.0000000000000000000, -0.0000000000000000000, -1.000000000000000000 ) ) ;
#840 = DIRECTION ( 'NONE',  ( -1.000000000000000000, 0.0000000000000000000, 0.0000000000000000000 ) ) ;
#841 = AXIS2_PLACEMENT_3D ( 'NONE', #255, #770, #174 ) ;
#842 = CARTESIAN_POINT ( 'NONE',  ( -4.000000000000000000, 19.49999999999999600, 2.500000000000000000 ) ) ;
#843 = VERTEX_POINT ( 'NONE', #807 ) ;
#844 = ORIENTED_EDGE ( 'NONE', *, *, #246, .F. ) ;
#845 = VECTOR ( 'NONE', #212, 1000.000000000000000 ) ;
#846 = CARTESIAN_POINT ( 'NONE',  ( 12.50000000000000000, -1.530808498934191300E-015, 2.500000000000000000 ) ) ;
#847 = VERTEX_POINT ( 'NONE', #796 ) ;
#848 = EDGE_CURVE ( 'NONE', #308, #512, #53, .T. ) ;
#849 = CARTESIAN_POINT ( 'NONE',  ( 6.000000000000000900, 27.99999999999999600, 2.500000000000000000 ) ) ;
#850 = PERSON_AND_ORGANIZATION ( #537, #234 ) ;
#851 = DIRECTION ( 'NONE',  ( -0.0000000000000000000, -0.0000000000000000000, -1.000000000000000000 ) ) ;
#852 = VECTOR ( 'NONE', #621, 1000.000000000000000 ) ;
#853 = CC_DESIGN_DATE_AND_TIME_ASSIGNMENT ( #545, #379, ( #182 ) ) ;
#854 = FACE_OUTER_BOUND ( 'NONE', #313, .T. ) ;
#855 = DIRECTION ( 'NONE',  ( 1.000000000000000000, 0.0000000000000000000, 0.0000000000000000000 ) ) ;
#856 = ORIENTED_EDGE ( 'NONE', *, *, #878, .T. ) ;
#857 = ORIENTED_EDGE ( 'NONE', *, *, #730, .F. ) ;
#858 = VECTOR ( 'NONE', #544, 1000.000000000000000 ) ;
#859 = ORIENTED_EDGE ( 'NONE', *, *, #62, .F. ) ;
#860 = CARTESIAN_POINT ( 'NONE',  ( 6.000000000000000900, 27.99999999999999600, 0.0000000000000000000 ) ) ;
#861 = EDGE_CURVE ( 'NONE', #32, #626, #506, .T. ) ;
#862 = CIRCLE ( 'NONE', #327, 1.000000000000000000 ) ;
#863 = EDGE_CURVE ( 'NONE', #140, #19, #520, .T. ) ;
#864 = PLANE ( 'NONE',  #414 ) ;
#865 = DIRECTION ( 'NONE',  ( -0.0000000000000000000, -0.0000000000000000000, -1.000000000000000000 ) ) ;
#866 = VERTEX_POINT ( 'NONE', #797 ) ;
#867 = CARTESIAN_POINT ( 'NONE',  ( 9.250000000000000000, 10.49999999999999800, 2.500000000000000000 ) ) ;
#868 = ORIENTED_EDGE ( 'NONE', *, *, #575, .T. ) ;
#869 = CIRCLE ( 'NONE', #69, 12.25000000000000000 ) ;
#870 = ORIENTED_EDGE ( 'NONE', *, *, #688, .F. ) ;
#871 = CARTESIAN_POINT ( 'NONE',  ( -6.000000000000000900, 27.99999999999999600, 2.500000000000000000 ) ) ;
#872 = VECTOR ( 'NONE', #882, 1000.000000000000000 ) ;
#873 = DIRECTION ( 'NONE',  ( 1.000000000000000000, 0.0000000000000000000, 0.0000000000000000000 ) ) ;
#874 = EDGE_CURVE ( 'NONE', #669, #408, #143, .T. ) ;
#875 = DIRECTION ( 'NONE',  ( 1.000000000000000000, 0.0000000000000000000, 0.0000000000000000000 ) ) ;
#876 = PLANE ( 'NONE',  #287 ) ;
#877 = DIRECTION ( 'NONE',  ( 1.000000000000000000, -0.0000000000000000000, -0.0000000000000000000 ) ) ;
#878 = EDGE_CURVE ( 'NONE', #491, #942, #33, .T. ) ;
#879 = FACE_OUTER_BOUND ( 'NONE', #141, .T. ) ;
#880 = ORIENTED_EDGE ( 'NONE', *, *, #100, .F. ) ;
#881 = ORIENTED_EDGE ( 'NONE', *, *, #400, .F. ) ;
#882 = DIRECTION ( 'NONE',  ( -0.0000000000000000000, -0.0000000000000000000, -1.000000000000000000 ) ) ;
#883 = APPROVAL_STATUS ( 'not_yet_approved' ) ;
#884 = VECTOR ( 'NONE', #267, 1000.000000000000000 ) ;
#885 = EDGE_CURVE ( 'NONE', #941, #461, #862, .T. ) ;
#886 = CARTESIAN_POINT ( 'NONE',  ( 5.000000000000000900, 27.99999999999999600, 0.0000000000000000000 ) ) ;
#887 = VERTEX_POINT ( 'NONE', #282 ) ;
#888 = AXIS2_PLACEMENT_3D ( 'NONE', #451, #391, #95 ) ;
#889 = VERTEX_POINT ( 'NONE', #359 ) ;
#890 = LINE ( 'NONE', #466, #858 ) ;
#891 = PLANE ( 'NONE',  #436 ) ;
#892 = ORIENTED_EDGE ( 'NONE', *, *, #62, .T. ) ;
#893 = AXIS2_PLACEMENT_3D ( 'NONE', #421, #272, #507 ) ;
#894 = ADVANCED_FACE ( 'NONE', ( #769 ), #195, .F. ) ;
#895 = APPLICATION_PROTOCOL_DEFINITION ( 'international standard', 'config_control_design', 1994, #81 ) ;
#896 = EDGE_CURVE ( 'NONE', #607, #677, #404, .T. ) ;
#897 = CARTESIAN_POINT ( 'NONE',  ( -5.000000000000000000, 19.49999999999999600, 2.500000000000000000 ) ) ;
#898 = ADVANCED_FACE ( 'NONE', ( #816 ), #670, .F. ) ;
#899 = FACE_OUTER_BOUND ( 'NONE', #294, .T. ) ;
#900 = ORIENTED_EDGE ( 'NONE', *, *, #55, .F. ) ;
#901 = EDGE_CURVE ( 'NONE', #920, #491, #76, .T. ) ;
#902 = ORIENTED_EDGE ( 'NONE', *, *, #885, .F. ) ;
#903 = VECTOR ( 'NONE', #534, 1000.000000000000000 ) ;
#904 = DIRECTION ( 'NONE',  ( 1.000000000000000000, 0.0000000000000000000, -0.0000000000000000000 ) ) ;
#905 = EDGE_CURVE ( 'NONE', #41, #581, #452, .T. ) ;
#906 = PLANE ( 'NONE',  #496 ) ;
#907 = VECTOR ( 'NONE', #636, 1000.000000000000000 ) ;
#908 = ORIENTED_EDGE ( 'NONE', *, *, #412, .F. ) ;
#909 = VERTEX_POINT ( 'NONE', #296 ) ;
#910 = CIRCLE ( 'NONE', #117, 1.000000000000000000 ) ;
#911 = EDGE_LOOP ( 'NONE', ( #722, #619, #758, #433 ) ) ;
#912 = DIRECTION ( 'NONE',  ( -0.0000000000000000000, -1.000000000000000000, -0.0000000000000000000 ) ) ;
#913 = FACE_OUTER_BOUND ( 'NONE', #371, .T. ) ;
#914 = DIRECTION ( 'NONE',  ( -1.000000000000000000, 0.0000000000000000000, 0.0000000000000000000 ) ) ;
#915 = PLANE ( 'NONE',  #486 ) ;
#916 = DIRECTION ( 'NONE',  ( -0.0000000000000000000, -1.000000000000000000, -0.0000000000000000000 ) ) ;
#917 = ORIENTED_EDGE ( 'NONE', *, *, #707, .T. ) ;
#918 = ORIENTED_EDGE ( 'NONE', *, *, #730, .T. ) ;
#919 = DIRECTION ( 'NONE',  ( -0.0000000000000000000, -0.0000000000000000000, -1.000000000000000000 ) ) ;
#920 = VERTEX_POINT ( 'NONE', #459 ) ;
#921 = FACE_BOUND ( 'NONE', #527, .T. ) ;
#922 = EDGE_CURVE ( 'NONE', #19, #677, #266, .T. ) ;
#923 = CARTESIAN_POINT ( 'NONE',  ( -12.25000000000000000, 23.74999999999999600, 0.0000000000000000000 ) ) ;
#924 = LINE ( 'NONE', #135, #337 ) ;
#925 = DIRECTION ( 'NONE',  ( 0.0000000000000000000, 0.0000000000000000000, 1.000000000000000000 ) ) ;
#926 = VECTOR ( 'NONE', #413, 1000.000000000000000 ) ;
#927 = ADVANCED_FACE ( 'NONE', ( #913 ), #706, .T. ) ;
#928 = CARTESIAN_POINT ( 'NONE',  ( -12.50000000000000000, 6.499999999999998200, 2.500000000000000000 ) ) ;
#929 = ORIENTED_EDGE ( 'NONE', *, *, #922, .T. ) ;
#930 = ORIENTED_EDGE ( 'NONE', *, *, #861, .F. ) ;
#931 = DIRECTION ( 'NONE',  ( -1.000000000000000000, 0.0000000000000000000, 0.0000000000000000000 ) ) ;
#932 = VECTOR ( 'NONE', #450, 1000.000000000000000 ) ;
#933 = ORIENTED_EDGE ( 'NONE', *, *, #152, .F. ) ;
#934 = VECTOR ( 'NONE', #427, 1000.000000000000000 ) ;
#935 = DIRECTION ( 'NONE',  ( -0.6305926250944656800, -0.7761140001162654100, -0.0000000000000000000 ) ) ;
#936 = CARTESIAN_POINT ( 'NONE',  ( 4.000000000000000900, 27.99999999999999600, 2.500000000000000000 ) ) ;
#937 = DIRECTION ( 'NONE',  ( -0.7761140001162655200, -0.6305926250944657900, 0.0000000000000000000 ) ) ;
#938 = DIRECTION ( 'NONE',  ( 0.0000000000000000000, 0.0000000000000000000, 1.000000000000000000 ) ) ;
#939 = EDGE_CURVE ( 'NONE', #211, #308, #751, .T. ) ;
#940 = CARTESIAN_POINT ( 'NONE',  ( -5.000000000000000000, 19.49999999999999600, 2.500000000000000000 ) ) ;
#941 = VERTEX_POINT ( 'NONE', #672 ) ;
#942 = VERTEX_POINT ( 'NONE', #215 ) ;
#943 = ORIENTED_EDGE ( 'NONE', *, *, #405, .T. ) ;
#944 = ORIENTED_EDGE ( 'NONE', *, *, #155, .T. ) ;
#945 = DIRECTION ( 'NONE',  ( -0.6305926250944656800, 0.7761140001162654100, 0.0000000000000000000 ) ) ;
#946 = DIRECTION ( 'NONE',  ( 0.0000000000000000000, 0.0000000000000000000, 1.000000000000000000 ) ) ;
#947 = DIRECTION ( 'NONE',  ( -0.0000000000000000000, -0.0000000000000000000, -1.000000000000000000 ) ) ;
ENDSEC;
END-ISO-10303-21;
