ISO-10303-21;
HEADER;
FILE_DESCRIPTION (( 'STEP AP203' ),
    '1' );
FILE_NAME ('pitch_motor_stator_Domyúlna_sldprt.STEP',
    '2018-11-05T16:57:52',
    ( '' ),
    ( '' ),
    'SwSTEP 2.0',
    'SolidWorks 2016',
    '' );
FILE_SCHEMA (( 'CONFIG_CONTROL_DESIGN' ));
ENDSEC;

DATA;
#1 = PERSON_AND_ORGANIZATION ( #42, #29 ) ;
#2 = SHAPE_DEFINITION_REPRESENTATION ( #45, #172 ) ;
#3 = ORIENTED_EDGE ( 'NONE', *, *, #37, .F. ) ;
#4 = APPROVAL_STATUS ( 'not_yet_approved' ) ;
#5 = COORDINATED_UNIVERSAL_TIME_OFFSET ( 1, 0, .AHEAD. ) ;
#6 = DIRECTION ( 'NONE',  ( 0.0000000000000000000, 0.0000000000000000000, 1.000000000000000000 ) ) ;
#7 = DIRECTION ( 'NONE',  ( 1.000000000000000000, 0.0000000000000000000, 0.0000000000000000000 ) ) ;
#8 = DIRECTION ( 'NONE',  ( -1.000000000000000000, 0.0000000000000000000, 0.0000000000000000000 ) ) ;
#9 = SECURITY_CLASSIFICATION ( '', '', #158 ) ;
#10 = CYLINDRICAL_SURFACE ( 'NONE', #173, 14.00000000000000000 ) ;
#11 = ADVANCED_FACE ( 'NONE', ( #80 ), #124, .T. ) ;
#12 = AXIS2_PLACEMENT_3D ( 'NONE', #110, #30, #43 ) ;
#13 = CC_DESIGN_APPROVAL ( #117, ( #159 ) ) ;
#14 = ORIENTED_EDGE ( 'NONE', *, *, #123, .F. ) ;
#15 = ORIENTED_EDGE ( 'NONE', *, *, #51, .F. ) ;
#16 = MECHANICAL_CONTEXT ( 'NONE', #47, 'mechanical' ) ;
#17 = PERSON_AND_ORGANIZATION ( #42, #29 ) ;
#18 = DIRECTION ( 'NONE',  ( -1.000000000000000000, 0.0000000000000000000, 0.0000000000000000000 ) ) ;
#19 = FACE_OUTER_BOUND ( 'NONE', #90, .T. ) ;
#20 = DATE_AND_TIME ( #53, #78 ) ;
#21 =( GEOMETRIC_REPRESENTATION_CONTEXT ( 3 ) GLOBAL_UNCERTAINTY_ASSIGNED_CONTEXT ( ( #55 ) ) GLOBAL_UNIT_ASSIGNED_CONTEXT ( ( #127, #101, #130 ) ) REPRESENTATION_CONTEXT ( 'NONE', 'WORKASPACE' ) );
#22 = MANIFOLD_SOLID_BREP ( 'Dodanie-wyciπgniÍcie1', #39 ) ;
#23 = ADVANCED_FACE ( 'NONE', ( #164 ), #27, .F. ) ;
#24 = PERSON_AND_ORGANIZATION ( #42, #29 ) ;
#25 = VERTEX_POINT ( 'NONE', #139 ) ;
#26 = ORIENTED_EDGE ( 'NONE', *, *, #67, .F. ) ;
#27 = PLANE ( 'NONE',  #162 ) ;
#28 = CARTESIAN_POINT ( 'NONE',  ( 0.0000000000000000000, 0.0000000000000000000, 4.000000000000000000 ) ) ;
#29 = ORGANIZATION ( 'UNSPECIFIED', 'UNSPECIFIED', '' ) ;
#30 = DIRECTION ( 'NONE',  ( 0.0000000000000000000, 0.0000000000000000000, 1.000000000000000000 ) ) ;
#31 = CARTESIAN_POINT ( 'NONE',  ( 0.0000000000000000000, 0.0000000000000000000, 0.0000000000000000000 ) ) ;
#32 = CARTESIAN_POINT ( 'NONE',  ( 14.00000000000000000, 1.714505518806294600E-015, 4.000000000000000000 ) ) ;
#33 = CC_DESIGN_APPROVAL ( #125, ( #9 ) ) ;
#34 = CALENDAR_DATE ( 2018, 5, 11 ) ;
#35 = COORDINATED_UNIVERSAL_TIME_OFFSET ( 1, 0, .AHEAD. ) ;
#36 = FACE_OUTER_BOUND ( 'NONE', #49, .T. ) ;
#37 = EDGE_CURVE ( 'NONE', #134, #116, #148, .T. ) ;
#38 = AXIS2_PLACEMENT_3D ( 'NONE', #113, #112, #111 ) ;
#39 = CLOSED_SHELL ( 'NONE', ( #161, #136, #11, #23 ) ) ;
#40 = DIRECTION ( 'NONE',  ( -0.0000000000000000000, -0.0000000000000000000, -1.000000000000000000 ) ) ;
#41 = DIRECTION ( 'NONE',  ( 0.0000000000000000000, 0.0000000000000000000, 1.000000000000000000 ) ) ;
#42 = PERSON ( 'UNSPECIFIED', 'UNSPECIFIED', 'UNSPECIFIED', ('UNSPECIFIED'), ('UNSPECIFIED'), ('UNSPECIFIED') ) ;
#43 = DIRECTION ( 'NONE',  ( 1.000000000000000000, 0.0000000000000000000, 0.0000000000000000000 ) ) ;
#44 = DIRECTION ( 'NONE',  ( -0.0000000000000000000, -0.0000000000000000000, -1.000000000000000000 ) ) ;
#45 = PRODUCT_DEFINITION_SHAPE ( 'NONE', 'NONE',  #85 ) ;
#46 = DIRECTION ( 'NONE',  ( 0.0000000000000000000, 0.0000000000000000000, 1.000000000000000000 ) ) ;
#47 = APPLICATION_CONTEXT ( 'configuration controlled 3d designs of mechanical parts and assemblies' ) ;
#48 = LOCAL_TIME ( 17, 57, 52.00000000000000000, #35 ) ;
#49 = EDGE_LOOP ( 'NONE', ( #3, #14, #138, #99 ) ) ;
#50 = APPROVAL_ROLE ( '' ) ;
#51 = EDGE_CURVE ( 'NONE', #135, #25, #132, .T. ) ;
#52 = AXIS2_PLACEMENT_3D ( 'NONE', #28, #71, #7 ) ;
#53 = CALENDAR_DATE ( 2018, 5, 11 ) ;
#54 = EDGE_LOOP ( 'NONE', ( #82, #95 ) ) ;
#55 = UNCERTAINTY_MEASURE_WITH_UNIT (LENGTH_MEASURE( 1.000000000000000100E-005 ), #127, 'distance_accuracy_value', 'NONE');
#56 = CIRCLE ( 'NONE', #12, 14.00000000000000000 ) ;
#57 = CC_DESIGN_DATE_AND_TIME_ASSIGNMENT ( #79, #75, ( #85 ) ) ;
#58 = DIRECTION ( 'NONE',  ( -0.0000000000000000000, -0.0000000000000000000, -1.000000000000000000 ) ) ;
#59 = DATE_AND_TIME ( #118, #166 ) ;
#60 = PERSON_AND_ORGANIZATION_ROLE ( 'design_owner' ) ;
#61 = PERSON_AND_ORGANIZATION_ROLE ( 'design_supplier' ) ;
#62 = CC_DESIGN_PERSON_AND_ORGANIZATION_ASSIGNMENT ( #92, #76, ( #9 ) ) ;
#63 = DESIGN_CONTEXT ( 'detailed design', #115, 'design' ) ;
#64 = APPROVAL_PERSON_ORGANIZATION ( #17, #117, #50 ) ;
#65 = CALENDAR_DATE ( 2018, 5, 11 ) ;
#66 = ORIENTED_EDGE ( 'NONE', *, *, #149, .F. ) ;
#67 = EDGE_CURVE ( 'NONE', #25, #116, #109, .T. ) ;
#68 = PERSON_AND_ORGANIZATION ( #42, #29 ) ;
#69 = CIRCLE ( 'NONE', #52, 14.00000000000000000 ) ;
#70 = CC_DESIGN_PERSON_AND_ORGANIZATION_ASSIGNMENT ( #142, #60, ( #154 ) ) ;
#71 = DIRECTION ( 'NONE',  ( 0.0000000000000000000, 0.0000000000000000000, 1.000000000000000000 ) ) ;
#72 = COORDINATED_UNIVERSAL_TIME_OFFSET ( 1, 0, .AHEAD. ) ;
#73 = APPLICATION_PROTOCOL_DEFINITION ( 'international standard', 'config_control_design', 1994, #115 ) ;
#74 = CARTESIAN_POINT ( 'NONE',  ( -14.00000000000000000, 0.0000000000000000000, 4.000000000000000000 ) ) ;
#75 = DATE_TIME_ROLE ( 'creation_date' ) ;
#76 = PERSON_AND_ORGANIZATION_ROLE ( 'classification_officer' ) ;
#77 = VECTOR ( 'NONE', #40, 1000.000000000000000 ) ;
#78 = LOCAL_TIME ( 17, 57, 52.00000000000000000, #174 ) ;
#79 = DATE_AND_TIME ( #65, #48 ) ;
#80 = FACE_OUTER_BOUND ( 'NONE', #54, .T. ) ;
#81 = AXIS2_PLACEMENT_3D ( 'NONE', #165, #44, #8 ) ;
#82 = ORIENTED_EDGE ( 'NONE', *, *, #123, .T. ) ;
#83 = DIRECTION ( 'NONE',  ( 0.0000000000000000000, 0.0000000000000000000, 1.000000000000000000 ) ) ;
#84 = DATE_TIME_ROLE ( 'classification_date' ) ;
#85 = PRODUCT_DEFINITION ( 'UNKNOWN', '', #159, #63 ) ;
#86 = APPROVAL_STATUS ( 'not_yet_approved' ) ;
#87 = APPROVAL_STATUS ( 'not_yet_approved' ) ;
#88 = CYLINDRICAL_SURFACE ( 'NONE', #81, 14.00000000000000000 ) ;
#89 = CALENDAR_DATE ( 2018, 5, 11 ) ;
#90 = EDGE_LOOP ( 'NONE', ( #66, #167, #119, #15 ) ) ;
#91 = VECTOR ( 'NONE', #96, 1000.000000000000000 ) ;
#92 = PERSON_AND_ORGANIZATION ( #42, #29 ) ;
#93 = DIRECTION ( 'NONE',  ( 1.000000000000000000, 0.0000000000000000000, -0.0000000000000000000 ) ) ;
#94 = AXIS2_PLACEMENT_3D ( 'NONE', #31, #6, #155 ) ;
#95 = ORIENTED_EDGE ( 'NONE', *, *, #149, .T. ) ;
#96 = DIRECTION ( 'NONE',  ( -0.0000000000000000000, -0.0000000000000000000, -1.000000000000000000 ) ) ;
#97 = APPROVAL_DATE_TIME ( #20, #153 ) ;
#98 = CARTESIAN_POINT ( 'NONE',  ( 0.0000000000000000000, 0.0000000000000000000, 4.000000000000000000 ) ) ;
#99 = ORIENTED_EDGE ( 'NONE', *, *, #67, .T. ) ;
#100 = DIRECTION ( 'NONE',  ( 1.000000000000000000, 0.0000000000000000000, 0.0000000000000000000 ) ) ;
#101 =( NAMED_UNIT ( * ) PLANE_ANGLE_UNIT ( ) SI_UNIT ( $, .RADIAN. ) );
#102 = APPROVAL_PERSON_ORGANIZATION ( #68, #125, #145 ) ;
#103 = APPROVAL_DATE_TIME ( #163, #117 ) ;
#104 = CIRCLE ( 'NONE', #38, 14.00000000000000000 ) ;
#105 = CC_DESIGN_DATE_AND_TIME_ASSIGNMENT ( #59, #84, ( #9 ) ) ;
#106 = AXIS2_PLACEMENT_3D ( 'NONE', #152, #83, #93 ) ;
#107 = LOCAL_TIME ( 17, 57, 52.00000000000000000, #72 ) ;
#108 = CARTESIAN_POINT ( 'NONE',  ( 14.00000000000000000, 1.714505518806294600E-015, 4.000000000000000000 ) ) ;
#109 = CIRCLE ( 'NONE', #147, 14.00000000000000000 ) ;
#110 = CARTESIAN_POINT ( 'NONE',  ( 0.0000000000000000000, 0.0000000000000000000, 0.0000000000000000000 ) ) ;
#111 = DIRECTION ( 'NONE',  ( 1.000000000000000000, 0.0000000000000000000, 0.0000000000000000000 ) ) ;
#112 = DIRECTION ( 'NONE',  ( 0.0000000000000000000, 0.0000000000000000000, 1.000000000000000000 ) ) ;
#113 = CARTESIAN_POINT ( 'NONE',  ( 0.0000000000000000000, 0.0000000000000000000, 4.000000000000000000 ) ) ;
#114 = DATE_AND_TIME ( #89, #129 ) ;
#115 = APPLICATION_CONTEXT ( 'configuration controlled 3d designs of mechanical parts and assemblies' ) ;
#116 = VERTEX_POINT ( 'NONE', #143 ) ;
#117 = APPROVAL ( #87, 'UNSPECIFIED' ) ;
#118 = CALENDAR_DATE ( 2018, 5, 11 ) ;
#119 = ORIENTED_EDGE ( 'NONE', *, *, #120, .T. ) ;
#120 = EDGE_CURVE ( 'NONE', #116, #25, #56, .T. ) ;
#121 = EDGE_LOOP ( 'NONE', ( #26, #171 ) ) ;
#122 = CC_DESIGN_PERSON_AND_ORGANIZATION_ASSIGNMENT ( #24, #61, ( #159 ) ) ;
#123 = EDGE_CURVE ( 'NONE', #135, #134, #69, .T. ) ;
#124 = PLANE ( 'NONE',  #106 ) ;
#125 = APPROVAL ( #4, 'UNSPECIFIED' ) ;
#126 = CARTESIAN_POINT ( 'NONE',  ( 0.0000000000000000000, 0.0000000000000000000, 0.0000000000000000000 ) ) ;
#127 =( LENGTH_UNIT ( ) NAMED_UNIT ( * ) SI_UNIT ( .MILLI., .METRE. ) );
#128 = APPLICATION_PROTOCOL_DEFINITION ( 'international standard', 'config_control_design', 1994, #47 ) ;
#129 = LOCAL_TIME ( 17, 57, 52.00000000000000000, #5 ) ;
#130 =( NAMED_UNIT ( * ) SI_UNIT ( $, .STERADIAN. ) SOLID_ANGLE_UNIT ( ) );
#131 = PERSON_AND_ORGANIZATION_ROLE ( 'creator' ) ;
#132 = LINE ( 'NONE', #169, #91 ) ;
#133 = CC_DESIGN_APPROVAL ( #153, ( #85 ) ) ;
#134 = VERTEX_POINT ( 'NONE', #32 ) ;
#135 = VERTEX_POINT ( 'NONE', #74 ) ;
#136 = ADVANCED_FACE ( 'NONE', ( #36 ), #88, .T. ) ;
#137 = PERSON_AND_ORGANIZATION ( #42, #29 ) ;
#138 = ORIENTED_EDGE ( 'NONE', *, *, #51, .T. ) ;
#139 = CARTESIAN_POINT ( 'NONE',  ( -14.00000000000000000, 0.0000000000000000000, 0.0000000000000000000 ) ) ;
#140 = DIRECTION ( 'NONE',  ( 1.000000000000000000, 0.0000000000000000000, -0.0000000000000000000 ) ) ;
#141 = CC_DESIGN_SECURITY_CLASSIFICATION ( #9, ( #159 ) ) ;
#142 = PERSON_AND_ORGANIZATION ( #42, #29 ) ;
#143 = CARTESIAN_POINT ( 'NONE',  ( 14.00000000000000000, 1.714505518806294600E-015, 0.0000000000000000000 ) ) ;
#144 = PERSON_AND_ORGANIZATION_ROLE ( 'creator' ) ;
#145 = APPROVAL_ROLE ( '' ) ;
#146 = PERSON_AND_ORGANIZATION ( #42, #29 ) ;
#147 = AXIS2_PLACEMENT_3D ( 'NONE', #168, #46, #100 ) ;
#148 = LINE ( 'NONE', #108, #77 ) ;
#149 = EDGE_CURVE ( 'NONE', #134, #135, #104, .T. ) ;
#150 = CC_DESIGN_PERSON_AND_ORGANIZATION_ASSIGNMENT ( #1, #144, ( #159 ) ) ;
#151 = APPROVAL_PERSON_ORGANIZATION ( #137, #153, #157 ) ;
#152 = CARTESIAN_POINT ( 'NONE',  ( 0.0000000000000000000, 0.0000000000000000000, 4.000000000000000000 ) ) ;
#153 = APPROVAL ( #86, 'UNSPECIFIED' ) ;
#154 = PRODUCT ( 'pitch_motor_stator_Domyúlna_sldprt', 'pitch_motor_stator_Domyúlna_sldprt', '', ( #16 ) ) ;
#155 = DIRECTION ( 'NONE',  ( 1.000000000000000000, 0.0000000000000000000, 0.0000000000000000000 ) ) ;
#156 = PRODUCT_RELATED_PRODUCT_CATEGORY ( 'detail', '', ( #154 ) ) ;
#157 = APPROVAL_ROLE ( '' ) ;
#158 = SECURITY_CLASSIFICATION_LEVEL ( 'unclassified' ) ;
#159 = PRODUCT_DEFINITION_FORMATION_WITH_SPECIFIED_SOURCE ( 'ANY', '', #154, .NOT_KNOWN. ) ;
#160 = APPROVAL_DATE_TIME ( #114, #125 ) ;
#161 = ADVANCED_FACE ( 'NONE', ( #19 ), #10, .T. ) ;
#162 = AXIS2_PLACEMENT_3D ( 'NONE', #126, #41, #140 ) ;
#163 = DATE_AND_TIME ( #34, #107 ) ;
#164 = FACE_OUTER_BOUND ( 'NONE', #121, .T. ) ;
#165 = CARTESIAN_POINT ( 'NONE',  ( 0.0000000000000000000, 0.0000000000000000000, 4.000000000000000000 ) ) ;
#166 = LOCAL_TIME ( 17, 57, 52.00000000000000000, #170 ) ;
#167 = ORIENTED_EDGE ( 'NONE', *, *, #37, .T. ) ;
#168 = CARTESIAN_POINT ( 'NONE',  ( 0.0000000000000000000, 0.0000000000000000000, 0.0000000000000000000 ) ) ;
#169 = CARTESIAN_POINT ( 'NONE',  ( -14.00000000000000000, 0.0000000000000000000, 4.000000000000000000 ) ) ;
#170 = COORDINATED_UNIVERSAL_TIME_OFFSET ( 1, 0, .AHEAD. ) ;
#171 = ORIENTED_EDGE ( 'NONE', *, *, #120, .F. ) ;
#172 = ADVANCED_BREP_SHAPE_REPRESENTATION ( 'pitch_motor_stator_Domyùlna_sldprt', ( #22, #94 ), #21 ) ;
#173 = AXIS2_PLACEMENT_3D ( 'NONE', #98, #58, #18 ) ;
#174 = COORDINATED_UNIVERSAL_TIME_OFFSET ( 1, 0, .AHEAD. ) ;
#175 = CC_DESIGN_PERSON_AND_ORGANIZATION_ASSIGNMENT ( #146, #131, ( #85 ) ) ;
ENDSEC;
END-ISO-10303-21;
