ISO-10303-21;
HEADER;
FILE_DESCRIPTION (( 'STEP AP203' ),
    '1' );
FILE_NAME ('pitch_motor_rotor_Domyúlna_sldprt.STEP',
    '2018-11-05T16:57:50',
    ( '' ),
    ( '' ),
    'SwSTEP 2.0',
    'SolidWorks 2016',
    '' );
FILE_SCHEMA (( 'CONFIG_CONTROL_DESIGN' ));
ENDSEC;

DATA;
#1 = EDGE_CURVE ( 'NONE', #124, #46, #93, .T. ) ;
#2 = PERSON_AND_ORGANIZATION ( #38, #148 ) ;
#3 = CC_DESIGN_SECURITY_CLASSIFICATION ( #165, ( #118 ) ) ;
#4 = CIRCLE ( 'NONE', #22, 14.00000000000000000 ) ;
#5 = CARTESIAN_POINT ( 'NONE',  ( 0.0000000000000000000, 0.0000000000000000000, 10.50000000000000000 ) ) ;
#6 = CARTESIAN_POINT ( 'NONE',  ( 0.0000000000000000000, 0.0000000000000000000, 10.50000000000000000 ) ) ;
#7 = PLANE ( 'NONE',  #68 ) ;
#8 = PERSON_AND_ORGANIZATION ( #38, #148 ) ;
#9 = APPLICATION_CONTEXT ( 'configuration controlled 3d designs of mechanical parts and assemblies' ) ;
#10 = PRODUCT ( 'pitch_motor_rotor_Domyúlna_sldprt', 'pitch_motor_rotor_Domyúlna_sldprt', '', ( #56 ) ) ;
#11 = CC_DESIGN_PERSON_AND_ORGANIZATION_ASSIGNMENT ( #142, #83, ( #118 ) ) ;
#12 = AXIS2_PLACEMENT_3D ( 'NONE', #5, #34, #151 ) ;
#13 = PERSON_AND_ORGANIZATION_ROLE ( 'classification_officer' ) ;
#14 = ORIENTED_EDGE ( 'NONE', *, *, #137, .T. ) ;
#15 = AXIS2_PLACEMENT_3D ( 'NONE', #123, #88, #73 ) ;
#16 = EDGE_CURVE ( 'NONE', #124, #87, #59, .T. ) ;
#17 = APPROVAL_DATE_TIME ( #48, #115 ) ;
#18 = DIRECTION ( 'NONE',  ( -0.0000000000000000000, -0.0000000000000000000, -1.000000000000000000 ) ) ;
#19 = ORIENTED_EDGE ( 'NONE', *, *, #137, .F. ) ;
#20 = CC_DESIGN_PERSON_AND_ORGANIZATION_ASSIGNMENT ( #8, #13, ( #165 ) ) ;
#21 = CARTESIAN_POINT ( 'NONE',  ( 14.00000000000000000, 1.714505518806294200E-015, 0.0000000000000000000 ) ) ;
#22 = AXIS2_PLACEMENT_3D ( 'NONE', #102, #76, #78 ) ;
#23 = EDGE_LOOP ( 'NONE', ( #149, #19 ) ) ;
#24 = DIRECTION ( 'NONE',  ( 0.0000000000000000000, 0.0000000000000000000, 1.000000000000000000 ) ) ;
#25 = DIRECTION ( 'NONE',  ( 0.0000000000000000000, 0.0000000000000000000, 1.000000000000000000 ) ) ;
#26 = DIRECTION ( 'NONE',  ( 0.0000000000000000000, 0.0000000000000000000, 1.000000000000000000 ) ) ;
#27 = AXIS2_PLACEMENT_3D ( 'NONE', #65, #26, #112 ) ;
#28 = CARTESIAN_POINT ( 'NONE',  ( 0.0000000000000000000, 0.0000000000000000000, 10.50000000000000000 ) ) ;
#29 = CALENDAR_DATE ( 2018, 5, 11 ) ;
#30 = AXIS2_PLACEMENT_3D ( 'NONE', #163, #54, #55 ) ;
#31 = APPROVAL_STATUS ( 'not_yet_approved' ) ;
#32 = EDGE_CURVE ( 'NONE', #46, #124, #47, .T. ) ;
#33 = APPROVAL_PERSON_ORGANIZATION ( #92, #120, #171 ) ;
#34 = DIRECTION ( 'NONE',  ( 0.0000000000000000000, 0.0000000000000000000, 1.000000000000000000 ) ) ;
#35 = CLOSED_SHELL ( 'NONE', ( #116, #159, #84, #98 ) ) ;
#36 = MANIFOLD_SOLID_BREP ( 'Dodanie-wyciπgniÍcie1', #35 ) ;
#37 = LOCAL_TIME ( 17, 57, 50.00000000000000000, #69 ) ;
#38 = PERSON ( 'UNSPECIFIED', 'UNSPECIFIED', 'UNSPECIFIED', ('UNSPECIFIED'), ('UNSPECIFIED'), ('UNSPECIFIED') ) ;
#39 = APPROVAL ( #31, 'UNSPECIFIED' ) ;
#40 = APPLICATION_PROTOCOL_DEFINITION ( 'international standard', 'config_control_design', 1994, #105 ) ;
#41 = DATE_AND_TIME ( #130, #37 ) ;
#42 = PERSON_AND_ORGANIZATION_ROLE ( 'creator' ) ;
#43 = DATE_TIME_ROLE ( 'creation_date' ) ;
#44 = APPROVAL_STATUS ( 'not_yet_approved' ) ;
#45 = SHAPE_DEFINITION_REPRESENTATION ( #145, #72 ) ;
#46 = VERTEX_POINT ( 'NONE', #117 ) ;
#47 = CIRCLE ( 'NONE', #12, 14.00000000000000000 ) ;
#48 = DATE_AND_TIME ( #152, #62 ) ;
#49 = ORIENTED_EDGE ( 'NONE', *, *, #114, .T. ) ;
#50 = FACE_OUTER_BOUND ( 'NONE', #80, .T. ) ;
#51 =( LENGTH_UNIT ( ) NAMED_UNIT ( * ) SI_UNIT ( .MILLI., .METRE. ) );
#52 =( NAMED_UNIT ( * ) PLANE_ANGLE_UNIT ( ) SI_UNIT ( $, .RADIAN. ) );
#53 = PRODUCT_RELATED_PRODUCT_CATEGORY ( 'detail', '', ( #10 ) ) ;
#54 = DIRECTION ( 'NONE',  ( -0.0000000000000000000, -0.0000000000000000000, -1.000000000000000000 ) ) ;
#55 = DIRECTION ( 'NONE',  ( -1.000000000000000000, 0.0000000000000000000, 0.0000000000000000000 ) ) ;
#56 = MECHANICAL_CONTEXT ( 'NONE', #9, 'mechanical' ) ;
#57 = DATE_TIME_ROLE ( 'classification_date' ) ;
#58 = PERSON_AND_ORGANIZATION ( #38, #148 ) ;
#59 = LINE ( 'NONE', #75, #138 ) ;
#60 = FACE_OUTER_BOUND ( 'NONE', #173, .T. ) ;
#61 = EDGE_CURVE ( 'NONE', #126, #87, #4, .T. ) ;
#62 = LOCAL_TIME ( 17, 57, 50.00000000000000000, #164 ) ;
#63 = CC_DESIGN_PERSON_AND_ORGANIZATION_ASSIGNMENT ( #58, #136, ( #118 ) ) ;
#64 = DIRECTION ( 'NONE',  ( -0.0000000000000000000, -0.0000000000000000000, -1.000000000000000000 ) ) ;
#65 = CARTESIAN_POINT ( 'NONE',  ( 0.0000000000000000000, 0.0000000000000000000, 0.0000000000000000000 ) ) ;
#66 = PERSON_AND_ORGANIZATION ( #38, #148 ) ;
#67 = LOCAL_TIME ( 17, 57, 50.00000000000000000, #97 ) ;
#68 = AXIS2_PLACEMENT_3D ( 'NONE', #167, #141, #168 ) ;
#69 = COORDINATED_UNIVERSAL_TIME_OFFSET ( 1, 0, .AHEAD. ) ;
#70 = AXIS2_PLACEMENT_3D ( 'NONE', #28, #24, #94 ) ;
#71 = CIRCLE ( 'NONE', #27, 14.00000000000000000 ) ;
#72 = ADVANCED_BREP_SHAPE_REPRESENTATION ( 'pitch_motor_rotor_Domyùlna_sldprt', ( #36, #77 ), #101 ) ;
#73 = DIRECTION ( 'NONE',  ( 1.000000000000000000, 0.0000000000000000000, 0.0000000000000000000 ) ) ;
#74 = PERSON_AND_ORGANIZATION ( #38, #148 ) ;
#75 = CARTESIAN_POINT ( 'NONE',  ( 14.00000000000000000, 1.714505518806294200E-015, 10.50000000000000000 ) ) ;
#76 = DIRECTION ( 'NONE',  ( 0.0000000000000000000, 0.0000000000000000000, 1.000000000000000000 ) ) ;
#77 = AXIS2_PLACEMENT_3D ( 'NONE', #128, #25, #81 ) ;
#78 = DIRECTION ( 'NONE',  ( 1.000000000000000000, 0.0000000000000000000, 0.0000000000000000000 ) ) ;
#79 = PERSON_AND_ORGANIZATION ( #38, #148 ) ;
#80 = EDGE_LOOP ( 'NONE', ( #82, #95 ) ) ;
#81 = DIRECTION ( 'NONE',  ( 1.000000000000000000, 0.0000000000000000000, 0.0000000000000000000 ) ) ;
#82 = ORIENTED_EDGE ( 'NONE', *, *, #32, .T. ) ;
#83 = PERSON_AND_ORGANIZATION_ROLE ( 'design_supplier' ) ;
#84 = ADVANCED_FACE ( 'NONE', ( #50 ), #132, .T. ) ;
#85 = UNCERTAINTY_MEASURE_WITH_UNIT (LENGTH_MEASURE( 1.000000000000000100E-005 ), #51, 'distance_accuracy_value', 'NONE');
#86 = ORIENTED_EDGE ( 'NONE', *, *, #1, .F. ) ;
#87 = VERTEX_POINT ( 'NONE', #21 ) ;
#88 = DIRECTION ( 'NONE',  ( 0.0000000000000000000, 0.0000000000000000000, 1.000000000000000000 ) ) ;
#89 = EDGE_LOOP ( 'NONE', ( #86, #158, #14, #161 ) ) ;
#90 = CARTESIAN_POINT ( 'NONE',  ( -14.00000000000000000, 0.0000000000000000000, 0.0000000000000000000 ) ) ;
#91 = DIRECTION ( 'NONE',  ( -1.000000000000000000, 0.0000000000000000000, 0.0000000000000000000 ) ) ;
#92 = PERSON_AND_ORGANIZATION ( #38, #148 ) ;
#93 = CIRCLE ( 'NONE', #15, 14.00000000000000000 ) ;
#94 = DIRECTION ( 'NONE',  ( 1.000000000000000000, 0.0000000000000000000, -0.0000000000000000000 ) ) ;
#95 = ORIENTED_EDGE ( 'NONE', *, *, #1, .T. ) ;
#96 = PERSON_AND_ORGANIZATION_ROLE ( 'design_owner' ) ;
#97 = COORDINATED_UNIVERSAL_TIME_OFFSET ( 1, 0, .AHEAD. ) ;
#98 = ADVANCED_FACE ( 'NONE', ( #156 ), #7, .F. ) ;
#99 = CC_DESIGN_DATE_AND_TIME_ASSIGNMENT ( #166, #57, ( #165 ) ) ;
#100 = CYLINDRICAL_SURFACE ( 'NONE', #110, 14.00000000000000000 ) ;
#101 =( GEOMETRIC_REPRESENTATION_CONTEXT ( 3 ) GLOBAL_UNCERTAINTY_ASSIGNED_CONTEXT ( ( #85 ) ) GLOBAL_UNIT_ASSIGNED_CONTEXT ( ( #51, #52, #143 ) ) REPRESENTATION_CONTEXT ( 'NONE', 'WORKASPACE' ) );
#102 = CARTESIAN_POINT ( 'NONE',  ( 0.0000000000000000000, 0.0000000000000000000, 0.0000000000000000000 ) ) ;
#103 = APPROVAL_DATE_TIME ( #41, #39 ) ;
#104 = CALENDAR_DATE ( 2018, 5, 11 ) ;
#105 = APPLICATION_CONTEXT ( 'configuration controlled 3d designs of mechanical parts and assemblies' ) ;
#106 = VECTOR ( 'NONE', #64, 1000.000000000000000 ) ;
#107 = DESIGN_CONTEXT ( 'detailed design', #105, 'design' ) ;
#108 = CC_DESIGN_PERSON_AND_ORGANIZATION_ASSIGNMENT ( #74, #96, ( #10 ) ) ;
#109 = APPROVAL_PERSON_ORGANIZATION ( #66, #39, #147 ) ;
#110 = AXIS2_PLACEMENT_3D ( 'NONE', #6, #129, #91 ) ;
#111 = CC_DESIGN_DATE_AND_TIME_ASSIGNMENT ( #133, #43, ( #154 ) ) ;
#112 = DIRECTION ( 'NONE',  ( 1.000000000000000000, 0.0000000000000000000, 0.0000000000000000000 ) ) ;
#113 = APPLICATION_PROTOCOL_DEFINITION ( 'international standard', 'config_control_design', 1994, #9 ) ;
#114 = EDGE_CURVE ( 'NONE', #46, #126, #144, .T. ) ;
#115 = APPROVAL ( #44, 'UNSPECIFIED' ) ;
#116 = ADVANCED_FACE ( 'NONE', ( #175 ), #146, .T. ) ;
#117 = CARTESIAN_POINT ( 'NONE',  ( -14.00000000000000000, 0.0000000000000000000, 10.50000000000000000 ) ) ;
#118 = PRODUCT_DEFINITION_FORMATION_WITH_SPECIFIED_SOURCE ( 'ANY', '', #10, .NOT_KNOWN. ) ;
#119 = SECURITY_CLASSIFICATION_LEVEL ( 'unclassified' ) ;
#120 = APPROVAL ( #157, 'UNSPECIFIED' ) ;
#121 = ORIENTED_EDGE ( 'NONE', *, *, #61, .T. ) ;
#122 = ORIENTED_EDGE ( 'NONE', *, *, #16, .F. ) ;
#123 = CARTESIAN_POINT ( 'NONE',  ( 0.0000000000000000000, 0.0000000000000000000, 10.50000000000000000 ) ) ;
#124 = VERTEX_POINT ( 'NONE', #155 ) ;
#125 = APPROVAL_DATE_TIME ( #172, #120 ) ;
#126 = VERTEX_POINT ( 'NONE', #90 ) ;
#127 = CC_DESIGN_APPROVAL ( #120, ( #154 ) ) ;
#128 = CARTESIAN_POINT ( 'NONE',  ( 0.0000000000000000000, 0.0000000000000000000, 0.0000000000000000000 ) ) ;
#129 = DIRECTION ( 'NONE',  ( -0.0000000000000000000, -0.0000000000000000000, -1.000000000000000000 ) ) ;
#130 = CALENDAR_DATE ( 2018, 5, 11 ) ;
#131 = CC_DESIGN_APPROVAL ( #39, ( #118 ) ) ;
#132 = PLANE ( 'NONE',  #70 ) ;
#133 = DATE_AND_TIME ( #104, #160 ) ;
#134 = CC_DESIGN_PERSON_AND_ORGANIZATION_ASSIGNMENT ( #2, #42, ( #154 ) ) ;
#135 = COORDINATED_UNIVERSAL_TIME_OFFSET ( 1, 0, .AHEAD. ) ;
#136 = PERSON_AND_ORGANIZATION_ROLE ( 'creator' ) ;
#137 = EDGE_CURVE ( 'NONE', #87, #126, #71, .T. ) ;
#138 = VECTOR ( 'NONE', #18, 1000.000000000000000 ) ;
#139 = LOCAL_TIME ( 17, 57, 50.00000000000000000, #174 ) ;
#140 = APPROVAL_PERSON_ORGANIZATION ( #79, #115, #162 ) ;
#141 = DIRECTION ( 'NONE',  ( 0.0000000000000000000, 0.0000000000000000000, 1.000000000000000000 ) ) ;
#142 = PERSON_AND_ORGANIZATION ( #38, #148 ) ;
#143 =( NAMED_UNIT ( * ) SI_UNIT ( $, .STERADIAN. ) SOLID_ANGLE_UNIT ( ) );
#144 = LINE ( 'NONE', #170, #106 ) ;
#145 = PRODUCT_DEFINITION_SHAPE ( 'NONE', 'NONE',  #154 ) ;
#146 = CYLINDRICAL_SURFACE ( 'NONE', #30, 14.00000000000000000 ) ;
#147 = APPROVAL_ROLE ( '' ) ;
#148 = ORGANIZATION ( 'UNSPECIFIED', 'UNSPECIFIED', '' ) ;
#149 = ORIENTED_EDGE ( 'NONE', *, *, #61, .F. ) ;
#150 = CC_DESIGN_APPROVAL ( #115, ( #165 ) ) ;
#151 = DIRECTION ( 'NONE',  ( 1.000000000000000000, 0.0000000000000000000, 0.0000000000000000000 ) ) ;
#152 = CALENDAR_DATE ( 2018, 5, 11 ) ;
#153 = ORIENTED_EDGE ( 'NONE', *, *, #32, .F. ) ;
#154 = PRODUCT_DEFINITION ( 'UNKNOWN', '', #118, #107 ) ;
#155 = CARTESIAN_POINT ( 'NONE',  ( 14.00000000000000000, 1.714505518806294200E-015, 10.50000000000000000 ) ) ;
#156 = FACE_OUTER_BOUND ( 'NONE', #23, .T. ) ;
#157 = APPROVAL_STATUS ( 'not_yet_approved' ) ;
#158 = ORIENTED_EDGE ( 'NONE', *, *, #16, .T. ) ;
#159 = ADVANCED_FACE ( 'NONE', ( #60 ), #100, .T. ) ;
#160 = LOCAL_TIME ( 17, 57, 50.00000000000000000, #135 ) ;
#161 = ORIENTED_EDGE ( 'NONE', *, *, #114, .F. ) ;
#162 = APPROVAL_ROLE ( '' ) ;
#163 = CARTESIAN_POINT ( 'NONE',  ( 0.0000000000000000000, 0.0000000000000000000, 10.50000000000000000 ) ) ;
#164 = COORDINATED_UNIVERSAL_TIME_OFFSET ( 1, 0, .AHEAD. ) ;
#165 = SECURITY_CLASSIFICATION ( '', '', #119 ) ;
#166 = DATE_AND_TIME ( #29, #67 ) ;
#167 = CARTESIAN_POINT ( 'NONE',  ( 0.0000000000000000000, 0.0000000000000000000, 0.0000000000000000000 ) ) ;
#168 = DIRECTION ( 'NONE',  ( 1.000000000000000000, 0.0000000000000000000, -0.0000000000000000000 ) ) ;
#169 = CALENDAR_DATE ( 2018, 5, 11 ) ;
#170 = CARTESIAN_POINT ( 'NONE',  ( -14.00000000000000000, 0.0000000000000000000, 10.50000000000000000 ) ) ;
#171 = APPROVAL_ROLE ( '' ) ;
#172 = DATE_AND_TIME ( #169, #139 ) ;
#173 = EDGE_LOOP ( 'NONE', ( #122, #153, #49, #121 ) ) ;
#174 = COORDINATED_UNIVERSAL_TIME_OFFSET ( 1, 0, .AHEAD. ) ;
#175 = FACE_OUTER_BOUND ( 'NONE', #89, .T. ) ;
ENDSEC;
END-ISO-10303-21;
