ISO-10303-21;
HEADER;
FILE_DESCRIPTION (( 'STEP AP203' ),
    '1' );
FILE_NAME ('roll_part_1_Domyúlna_sldprt.STEP',
    '2018-11-05T16:57:56',
    ( '' ),
    ( '' ),
    'SwSTEP 2.0',
    'SolidWorks 2016',
    '' );
FILE_SCHEMA (( 'CONFIG_CONTROL_DESIGN' ));
ENDSEC;

DATA;
#1 = CARTESIAN_POINT ( 'NONE',  ( -9.250000000000000000, 27.85555757428966900, 0.0000000000000000000 ) ) ;
#2 = FACE_OUTER_BOUND ( 'NONE', #634, .T. ) ;
#3 = AXIS2_PLACEMENT_3D ( 'NONE', #729, #160, #247 ) ;
#4 = VERTEX_POINT ( 'NONE', #976 ) ;
#5 = ORIENTED_EDGE ( 'NONE', *, *, #788, .F. ) ;
#6 = CARTESIAN_POINT ( 'NONE',  ( -5.500000000000000000, 7.500000000000016900, 2.500000000000000000 ) ) ;
#7 = AXIS2_PLACEMENT_3D ( 'NONE', #178, #761, #106 ) ;
#8 = CARTESIAN_POINT ( 'NONE',  ( -9.250000000000000000, 27.85555757428966900, 2.500000000000000000 ) ) ;
#9 = DIRECTION ( 'NONE',  ( 1.000000000000000000, 0.0000000000000000000, 0.0000000000000000000 ) ) ;
#10 = EDGE_CURVE ( 'NONE', #780, #306, #641, .T. ) ;
#11 = DIRECTION ( 'NONE',  ( 0.0000000000000000000, 0.0000000000000000000, 1.000000000000000000 ) ) ;
#12 = APPROVAL_PERSON_ORGANIZATION ( #225, #632, #145 ) ;
#13 = DIRECTION ( 'NONE',  ( 1.000000000000000000, 0.0000000000000000000, 0.0000000000000000000 ) ) ;
#14 = ORIENTED_EDGE ( 'NONE', *, *, #556, .T. ) ;
#15 = DIRECTION ( 'NONE',  ( 0.0000000000000000000, -1.000000000000000000, 0.0000000000000000000 ) ) ;
#16 = VECTOR ( 'NONE', #235, 1000.000000000000000 ) ;
#17 = ORIENTED_EDGE ( 'NONE', *, *, #364, .T. ) ;
#18 = ORIENTED_EDGE ( 'NONE', *, *, #353, .T. ) ;
#19 = CARTESIAN_POINT ( 'NONE',  ( -5.500000000000000000, 23.49999999999998600, 0.0000000000000000000 ) ) ;
#20 = DIRECTION ( 'NONE',  ( -0.0000000000000000000, -0.0000000000000000000, -1.000000000000000000 ) ) ;
#21 = EDGE_CURVE ( 'NONE', #835, #534, #464, .T. ) ;
#22 = PLANE ( 'NONE',  #650 ) ;
#23 = AXIS2_PLACEMENT_3D ( 'NONE', #648, #152, #66 ) ;
#24 = APPROVAL_DATE_TIME ( #653, #695 ) ;
#25 = DIRECTION ( 'NONE',  ( 0.0000000000000000000, 0.0000000000000000000, 1.000000000000000000 ) ) ;
#26 = CARTESIAN_POINT ( 'NONE',  ( -2.500000000000006700, 31.50000000000001400, 0.0000000000000000000 ) ) ;
#27 = EDGE_LOOP ( 'NONE', ( #1041, #233, #343, #111 ) ) ;
#28 = CIRCLE ( 'NONE', #396, 2.500000000000000000 ) ;
#29 = DIRECTION ( 'NONE',  ( 0.0000000000000000000, 0.0000000000000000000, 1.000000000000000000 ) ) ;
#30 = ORIENTED_EDGE ( 'NONE', *, *, #488, .T. ) ;
#31 = EDGE_LOOP ( 'NONE', ( #231, #792, #434, #212 ) ) ;
#32 = PLANE ( 'NONE',  #825 ) ;
#33 = CARTESIAN_POINT ( 'NONE',  ( -12.50000000000000000, -1.530808498934191500E-015, 2.500000000000000000 ) ) ;
#34 = LINE ( 'NONE', #964, #763 ) ;
#35 = CARTESIAN_POINT ( 'NONE',  ( -9.250000000000000000, 12.99999999999999800, 2.500000000000000000 ) ) ;
#36 = APPROVAL_PERSON_ORGANIZATION ( #709, #82, #72 ) ;
#37 = FACE_BOUND ( 'NONE', #1048, .T. ) ;
#38 = AXIS2_PLACEMENT_3D ( 'NONE', #511, #690, #860 ) ;
#39 = CIRCLE ( 'NONE', #889, 1.500000000000000400 ) ;
#40 = CIRCLE ( 'NONE', #688, 1.500000000000000400 ) ;
#41 = VERTEX_POINT ( 'NONE', #490 ) ;
#42 = EDGE_CURVE ( 'NONE', #1060, #673, #702, .T. ) ;
#43 = DIRECTION ( 'NONE',  ( -0.0000000000000000000, -0.0000000000000000000, -1.000000000000000000 ) ) ;
#44 = EDGE_LOOP ( 'NONE', ( #123, #186, #389, #1071 ) ) ;
#45 = AXIS2_PLACEMENT_3D ( 'NONE', #596, #275, #842 ) ;
#46 = CARTESIAN_POINT ( 'NONE',  ( -5.500000000000000000, 23.49999999999998600, 2.500000000000000000 ) ) ;
#47 = VECTOR ( 'NONE', #718, 1000.000000000000000 ) ;
#48 = MANIFOLD_SOLID_BREP ( 'Dodanie-wyciπgniÍcie1', #213 ) ;
#49 = ORGANIZATION ( 'UNSPECIFIED', 'UNSPECIFIED', '' ) ;
#50 = DIRECTION ( 'NONE',  ( -1.000000000000000000, 0.0000000000000000000, 0.0000000000000000000 ) ) ;
#51 = CIRCLE ( 'NONE', #1036, 1.500000000000000400 ) ;
#52 = VERTEX_POINT ( 'NONE', #59 ) ;
#53 = ORIENTED_EDGE ( 'NONE', *, *, #42, .T. ) ;
#54 = DIRECTION ( 'NONE',  ( -1.000000000000000000, 0.0000000000000000000, 0.0000000000000000000 ) ) ;
#55 = DIRECTION ( 'NONE',  ( 1.000000000000000000, 0.0000000000000000000, -0.0000000000000000000 ) ) ;
#56 = CC_DESIGN_PERSON_AND_ORGANIZATION_ASSIGNMENT ( #215, #242, ( #1002 ) ) ;
#57 = PERSON_AND_ORGANIZATION ( #192, #49 ) ;
#58 = ADVANCED_FACE ( 'NONE', ( #818 ), #229, .F. ) ;
#59 = CARTESIAN_POINT ( 'NONE',  ( 5.500000000000000000, 7.500000000000016900, 0.0000000000000000000 ) ) ;
#60 = CARTESIAN_POINT ( 'NONE',  ( 2.500000000000006700, 31.50000000000001400, 2.500000000000000000 ) ) ;
#61 = ORIENTED_EDGE ( 'NONE', *, *, #937, .T. ) ;
#62 = CYLINDRICAL_SURFACE ( 'NONE', #660, 2.500000000000000000 ) ;
#63 = VECTOR ( 'NONE', #252, 1000.000000000000100 ) ;
#64 = ORIENTED_EDGE ( 'NONE', *, *, #508, .T. ) ;
#65 = ORIENTED_EDGE ( 'NONE', *, *, #697, .F. ) ;
#66 = DIRECTION ( 'NONE',  ( 1.000000000000000000, 0.0000000000000000000, 0.0000000000000000000 ) ) ;
#67 = PERSON_AND_ORGANIZATION_ROLE ( 'design_owner' ) ;
#68 = DIRECTION ( 'NONE',  ( -0.0000000000000000000, -0.0000000000000000000, -1.000000000000000000 ) ) ;
#69 = LINE ( 'NONE', #738, #694 ) ;
#70 = CARTESIAN_POINT ( 'NONE',  ( -4.000000000000000000, 39.49999999999999300, 2.500000000000000000 ) ) ;
#71 = ADVANCED_FACE ( 'NONE', ( #739 ), #303, .F. ) ;
#72 = APPROVAL_ROLE ( '' ) ;
#73 = DIRECTION ( 'NONE',  ( -1.000000000000000000, 0.0000000000000000000, 0.0000000000000000000 ) ) ;
#74 = DIRECTION ( 'NONE',  ( 0.0000000000000000000, 1.000000000000000000, 0.0000000000000000000 ) ) ;
#75 = VECTOR ( 'NONE', #416, 1000.000000000000100 ) ;
#76 = ADVANCED_FACE ( 'NONE', ( #621 ), #386, .F. ) ;
#77 = CARTESIAN_POINT ( 'NONE',  ( -2.500000000000006700, 31.50000000000001400, 2.500000000000000000 ) ) ;
#78 = AXIS2_PLACEMENT_3D ( 'NONE', #824, #163, #654 ) ;
#79 = DIRECTION ( 'NONE',  ( -0.0000000000000000000, -1.000000000000000000, -0.0000000000000000000 ) ) ;
#80 = LINE ( 'NONE', #579, #1047 ) ;
#81 = ORIENTED_EDGE ( 'NONE', *, *, #697, .T. ) ;
#82 = APPROVAL ( #640, 'UNSPECIFIED' ) ;
#83 = EDGE_LOOP ( 'NONE', ( #601, #112 ) ) ;
#84 = CARTESIAN_POINT ( 'NONE',  ( 4.000000000000000000, 39.49999999999999300, 0.0000000000000000000 ) ) ;
#85 = DIRECTION ( 'NONE',  ( -1.000000000000000000, 0.0000000000000000000, 0.0000000000000000000 ) ) ;
#86 = CARTESIAN_POINT ( 'NONE',  ( -2.499999999999999600, 39.49999999999999300, 2.500000000000000000 ) ) ;
#87 = DIRECTION ( 'NONE',  ( -1.000000000000000000, 0.0000000000000000000, 0.0000000000000000000 ) ) ;
#88 = DIRECTION ( 'NONE',  ( 0.5449883505954141700, -0.8384436163006370200, 0.0000000000000000000 ) ) ;
#89 = FACE_BOUND ( 'NONE', #265, .T. ) ;
#90 = DIRECTION ( 'NONE',  ( 1.000000000000000000, 0.0000000000000000000, 0.0000000000000000000 ) ) ;
#91 = ORIENTED_EDGE ( 'NONE', *, *, #973, .T. ) ;
#92 = EDGE_CURVE ( 'NONE', #819, #41, #237, .T. ) ;
#93 = DIRECTION ( 'NONE',  ( -1.000000000000000000, 0.0000000000000000000, 0.0000000000000000000 ) ) ;
#94 = FACE_BOUND ( 'NONE', #638, .T. ) ;
#95 = VECTOR ( 'NONE', #497, 1000.000000000000000 ) ;
#96 = CARTESIAN_POINT ( 'NONE',  ( -2.999999999999981800, 26.00000000000000400, 2.500000000000000000 ) ) ;
#97 = ORIENTED_EDGE ( 'NONE', *, *, #173, .T. ) ;
#98 = AXIS2_PLACEMENT_3D ( 'NONE', #33, #635, #131 ) ;
#99 = CARTESIAN_POINT ( 'NONE',  ( 0.0000000000000000000, 35.50000000000000700, 2.500000000000000000 ) ) ;
#100 = CARTESIAN_POINT ( 'NONE',  ( -2.999999999999981800, 26.00000000000000400, 0.0000000000000000000 ) ) ;
#101 = EDGE_CURVE ( 'NONE', #435, #484, #51, .T. ) ;
#102 = AXIS2_PLACEMENT_3D ( 'NONE', #498, #745, #264 ) ;
#103 = DIRECTION ( 'NONE',  ( -0.0000000000000000000, -1.000000000000000000, -0.0000000000000000000 ) ) ;
#104 = CARTESIAN_POINT ( 'NONE',  ( 4.000000000000007100, 31.50000000000001400, 2.500000000000000000 ) ) ;
#105 = DATE_AND_TIME ( #533, #749 ) ;
#106 = DIRECTION ( 'NONE',  ( 0.0000000000000000000, 0.0000000000000000000, 1.000000000000000000 ) ) ;
#107 = CARTESIAN_POINT ( 'NONE',  ( 0.0000000000000000000, 35.50000000000000700, 2.500000000000000000 ) ) ;
#108 = ORIENTED_EDGE ( 'NONE', *, *, #135, .T. ) ;
#109 = CIRCLE ( 'NONE', #839, 12.00000000000000200 ) ;
#110 = LINE ( 'NONE', #1046, #724 ) ;
#111 = ORIENTED_EDGE ( 'NONE', *, *, #956, .T. ) ;
#112 = ORIENTED_EDGE ( 'NONE', *, *, #1021, .F. ) ;
#113 = CARTESIAN_POINT ( 'NONE',  ( -2.999999999999999600, 23.50000000000000400, 2.500000000000000000 ) ) ;
#114 = ORIENTED_EDGE ( 'NONE', *, *, #208, .F. ) ;
#115 = AXIS2_PLACEMENT_3D ( 'NONE', #587, #751, #421 ) ;
#116 = LINE ( 'NONE', #182, #311 ) ;
#117 = AXIS2_PLACEMENT_3D ( 'NONE', #838, #952, #29 ) ;
#118 = PRODUCT_RELATED_PRODUCT_CATEGORY ( 'detail', '', ( #531 ) ) ;
#119 = CYLINDRICAL_SURFACE ( 'NONE', #383, 1.500000000000000400 ) ;
#120 = CARTESIAN_POINT ( 'NONE',  ( -12.00000000000000200, 35.50000000000000700, 2.500000000000000000 ) ) ;
#121 = VECTOR ( 'NONE', #79, 1000.000000000000000 ) ;
#122 = EDGE_LOOP ( 'NONE', ( #471, #501, #945, #181 ) ) ;
#123 = ORIENTED_EDGE ( 'NONE', *, *, #470, .T. ) ;
#124 = CARTESIAN_POINT ( 'NONE',  ( 0.0000000000000000000, 35.50000000000000700, 2.500000000000000000 ) ) ;
#125 = VERTEX_POINT ( 'NONE', #332 ) ;
#126 = ORIENTED_EDGE ( 'NONE', *, *, #542, .T. ) ;
#127 = CARTESIAN_POINT ( 'NONE',  ( -12.00000000000000200, 35.50000000000000700, 0.0000000000000000000 ) ) ;
#128 = ORIENTED_EDGE ( 'NONE', *, *, #208, .T. ) ;
#129 = EDGE_CURVE ( 'NONE', #715, #1015, #412, .T. ) ;
#130 = ORIENTED_EDGE ( 'NONE', *, *, #903, .T. ) ;
#131 = DIRECTION ( 'NONE',  ( 2.168404344971008900E-016, 1.000000000000000000, 0.0000000000000000000 ) ) ;
#132 = CARTESIAN_POINT ( 'NONE',  ( -2.999999999999999600, 23.50000000000000400, 2.500000000000000000 ) ) ;
#133 = AXIS2_PLACEMENT_3D ( 'NONE', #469, #392, #618 ) ;
#134 = AXIS2_PLACEMENT_3D ( 'NONE', #1003, #665, #491 ) ;
#135 = EDGE_CURVE ( 'NONE', #971, #280, #849, .T. ) ;
#136 = DATE_AND_TIME ( #368, #904 ) ;
#137 = ORIENTED_EDGE ( 'NONE', *, *, #728, .F. ) ;
#138 = CARTESIAN_POINT ( 'NONE',  ( -12.49999999999999800, 7.999999999999998200, 2.500000000000000000 ) ) ;
#139 = FACE_OUTER_BOUND ( 'NONE', #898, .T. ) ;
#140 = FACE_OUTER_BOUND ( 'NONE', #982, .T. ) ;
#141 = ORIENTED_EDGE ( 'NONE', *, *, #542, .F. ) ;
#142 = EDGE_CURVE ( 'NONE', #153, #642, #80, .T. ) ;
#143 = DIRECTION ( 'NONE',  ( -0.0000000000000000000, -0.0000000000000000000, -1.000000000000000000 ) ) ;
#144 = DIRECTION ( 'NONE',  ( 1.000000000000000000, -0.0000000000000000000, -0.0000000000000000000 ) ) ;
#145 = APPROVAL_ROLE ( '' ) ;
#146 = CARTESIAN_POINT ( 'NONE',  ( 5.500000000000000000, 23.49999999999998600, 2.500000000000000000 ) ) ;
#147 = EDGE_CURVE ( 'NONE', #4, #334, #713, .T. ) ;
#148 = CARTESIAN_POINT ( 'NONE',  ( 0.0000000000000000000, 0.0000000000000000000, 0.0000000000000000000 ) ) ;
#149 = ADVANCED_FACE ( 'NONE', ( #499 ), #432, .T. ) ;
#150 = DIRECTION ( 'NONE',  ( -0.0000000000000000000, -0.0000000000000000000, -1.000000000000000000 ) ) ;
#151 = AXIS2_PLACEMENT_3D ( 'NONE', #104, #351, #9 ) ;
#152 = DIRECTION ( 'NONE',  ( 0.0000000000000000000, 0.0000000000000000000, 1.000000000000000000 ) ) ;
#153 = VERTEX_POINT ( 'NONE', #164 ) ;
#154 = CIRCLE ( 'NONE', #133, 1.500000000000000400 ) ;
#155 = APPLICATION_CONTEXT ( 'configuration controlled 3d designs of mechanical parts and assemblies' ) ;
#156 = CARTESIAN_POINT ( 'NONE',  ( 2.999999999999999600, 7.500000000000000000, 0.0000000000000000000 ) ) ;
#157 = ORIENTED_EDGE ( 'NONE', *, *, #340, .T. ) ;
#158 = ORIENTED_EDGE ( 'NONE', *, *, #892, .F. ) ;
#159 = ORIENTED_EDGE ( 'NONE', *, *, #147, .T. ) ;
#160 = DIRECTION ( 'NONE',  ( 0.0000000000000000000, 0.0000000000000000000, 1.000000000000000000 ) ) ;
#161 = ORIENTED_EDGE ( 'NONE', *, *, #228, .F. ) ;
#162 = DIRECTION ( 'NONE',  ( 1.000000000000000000, 0.0000000000000000000, 0.0000000000000000000 ) ) ;
#163 = DIRECTION ( 'NONE',  ( 0.0000000000000000000, 0.0000000000000000000, 1.000000000000000000 ) ) ;
#164 = CARTESIAN_POINT ( 'NONE',  ( -2.999999999999981800, 4.999999999999999100, 0.0000000000000000000 ) ) ;
#165 = APPROVAL_DATE_TIME ( #458, #82 ) ;
#166 = EDGE_CURVE ( 'NONE', #715, #391, #184, .T. ) ;
#167 = CARTESIAN_POINT ( 'NONE',  ( -5.500000000000000900, 39.49999999999999300, 2.500000000000000000 ) ) ;
#168 = VECTOR ( 'NONE', #609, 1000.000000000000000 ) ;
#169 = DIRECTION ( 'NONE',  ( -1.000000000000000000, 0.0000000000000000000, 0.0000000000000000000 ) ) ;
#170 = ORIENTED_EDGE ( 'NONE', *, *, #304, .T. ) ;
#171 = CC_DESIGN_DATE_AND_TIME_ASSIGNMENT ( #698, #569, ( #308 ) ) ;
#172 = DIRECTION ( 'NONE',  ( 0.0000000000000000000, 0.0000000000000000000, 1.000000000000000000 ) ) ;
#173 = EDGE_CURVE ( 'NONE', #512, #407, #589, .T. ) ;
#174 = ORIENTED_EDGE ( 'NONE', *, *, #460, .T. ) ;
#175 = DIRECTION ( 'NONE',  ( 0.0000000000000000000, 0.0000000000000000000, 1.000000000000000000 ) ) ;
#176 = EDGE_CURVE ( 'NONE', #717, #1060, #687, .T. ) ;
#177 = CARTESIAN_POINT ( 'NONE',  ( -2.499999999999999600, 39.49999999999999300, 2.500000000000000000 ) ) ;
#178 = CARTESIAN_POINT ( 'NONE',  ( 5.500000000000000000, 7.500000000000016900, 2.500000000000000000 ) ) ;
#179 = DIRECTION ( 'NONE',  ( 0.0000000000000000000, 0.0000000000000000000, 1.000000000000000000 ) ) ;
#180 = AXIS2_PLACEMENT_3D ( 'NONE', #880, #545, #463 ) ;
#181 = ORIENTED_EDGE ( 'NONE', *, *, #706, .T. ) ;
#182 = CARTESIAN_POINT ( 'NONE',  ( -2.999999999999981800, 26.00000000000000400, 2.500000000000000000 ) ) ;
#183 = LINE ( 'NONE', #120, #168 ) ;
#184 = LINE ( 'NONE', #582, #524 ) ;
#185 = VERTEX_POINT ( 'NONE', #1079 ) ;
#186 = ORIENTED_EDGE ( 'NONE', *, *, #1007, .F. ) ;
#187 = EDGE_CURVE ( 'NONE', #516, #512, #911, .T. ) ;
#188 = AXIS2_PLACEMENT_3D ( 'NONE', #916, #836, #920 ) ;
#189 = VECTOR ( 'NONE', #232, 1000.000000000000000 ) ;
#190 = DIRECTION ( 'NONE',  ( -0.0000000000000000000, -0.0000000000000000000, -1.000000000000000000 ) ) ;
#191 = DIRECTION ( 'NONE',  ( -1.000000000000000000, 0.0000000000000000000, 0.0000000000000000000 ) ) ;
#192 = PERSON ( 'UNSPECIFIED', 'UNSPECIFIED', 'UNSPECIFIED', ('UNSPECIFIED'), ('UNSPECIFIED'), ('UNSPECIFIED') ) ;
#193 = AXIS2_PLACEMENT_3D ( 'NONE', #778, #286, #867 ) ;
#194 = EDGE_CURVE ( 'NONE', #673, #561, #40, .T. ) ;
#195 = DIRECTION ( 'NONE',  ( 0.5449883505954141700, 0.8384436163006370200, 0.0000000000000000000 ) ) ;
#196 = VERTEX_POINT ( 'NONE', #998 ) ;
#197 = VECTOR ( 'NONE', #947, 1000.000000000000000 ) ;
#198 = ORIENTED_EDGE ( 'NONE', *, *, #765, .F. ) ;
#199 = DIRECTION ( 'NONE',  ( -0.0000000000000000000, -0.0000000000000000000, -1.000000000000000000 ) ) ;
#200 = ORIENTED_EDGE ( 'NONE', *, *, #42, .F. ) ;
#201 = DIRECTION ( 'NONE',  ( 2.168404344971008900E-016, -1.000000000000000000, 0.0000000000000000000 ) ) ;
#202 = EDGE_CURVE ( 'NONE', #873, #283, #784, .T. ) ;
#203 = DIRECTION ( 'NONE',  ( -1.000000000000000000, 0.0000000000000000000, 0.0000000000000000000 ) ) ;
#204 = CC_DESIGN_PERSON_AND_ORGANIZATION_ASSIGNMENT ( #57, #812, ( #308 ) ) ;
#205 = EDGE_CURVE ( 'NONE', #306, #453, #1029, .T. ) ;
#206 = ORIENTED_EDGE ( 'NONE', *, *, #935, .T. ) ;
#207 = ORIENTED_EDGE ( 'NONE', *, *, #822, .F. ) ;
#208 = EDGE_CURVE ( 'NONE', #850, #435, #347, .T. ) ;
#209 = LINE ( 'NONE', #681, #371 ) ;
#210 = ORIENTED_EDGE ( 'NONE', *, *, #841, .F. ) ;
#211 = AXIS2_PLACEMENT_3D ( 'NONE', #766, #1022, #90 ) ;
#212 = ORIENTED_EDGE ( 'NONE', *, *, #455, .T. ) ;
#213 = CLOSED_SHELL ( 'NONE', ( #335, #243, #76, #655, #1001, #489, #986, #809, #236, #406, #58, #900, #573, #1067, #410, #1083, #401, #737, #975, #992, #253, #419, #149, #478, #567, #645, #226, #71, #726, #813 ) ) ;
#214 = CARTESIAN_POINT ( 'NONE',  ( -1.750000000000000400, 35.50000000000000700, 2.500000000000000000 ) ) ;
#215 = PERSON_AND_ORGANIZATION ( #192, #49 ) ;
#216 = FACE_OUTER_BOUND ( 'NONE', #949, .T. ) ;
#217 = CARTESIAN_POINT ( 'NONE',  ( 4.000000000000007100, 31.50000000000001400, 0.0000000000000000000 ) ) ;
#218 = CIRCLE ( 'NONE', #447, 1.750000000000000400 ) ;
#219 = ORIENTED_EDGE ( 'NONE', *, *, #788, .T. ) ;
#220 = EDGE_CURVE ( 'NONE', #534, #715, #536, .T. ) ;
#221 = ORIENTED_EDGE ( 'NONE', *, *, #228, .T. ) ;
#222 = FACE_OUTER_BOUND ( 'NONE', #31, .T. ) ;
#223 = DIRECTION ( 'NONE',  ( -1.000000000000000000, 0.0000000000000000000, 0.0000000000000000000 ) ) ;
#224 = EDGE_CURVE ( 'NONE', #330, #359, #953, .T. ) ;
#225 = PERSON_AND_ORGANIZATION ( #192, #49 ) ;
#226 = ADVANCED_FACE ( 'NONE', ( #140 ), #979, .F. ) ;
#227 = CARTESIAN_POINT ( 'NONE',  ( 9.250000000000000000, 12.99999999999999800, 0.0000000000000000000 ) ) ;
#228 = EDGE_CURVE ( 'NONE', #305, #1017, #756, .T. ) ;
#229 = PLANE ( 'NONE',  #800 ) ;
#230 = CYLINDRICAL_SURFACE ( 'NONE', #256, 1.750000000000000400 ) ;
#231 = ORIENTED_EDGE ( 'NONE', *, *, #613, .T. ) ;
#232 = DIRECTION ( 'NONE',  ( -0.0000000000000000000, -0.0000000000000000000, -1.000000000000000000 ) ) ;
#233 = ORIENTED_EDGE ( 'NONE', *, *, #249, .F. ) ;
#234 = LINE ( 'NONE', #519, #755 ) ;
#235 = DIRECTION ( 'NONE',  ( -0.0000000000000000000, -0.0000000000000000000, -1.000000000000000000 ) ) ;
#236 = ADVANCED_FACE ( 'NONE', ( #2, #94, #483, #804, #817, #781, #346 ), #494, .F. ) ;
#237 = LINE ( 'NONE', #506, #441 ) ;
#238 = EDGE_LOOP ( 'NONE', ( #503, #876 ) ) ;
#239 = CARTESIAN_POINT ( 'NONE',  ( -2.500000000000006700, 31.50000000000001400, 2.500000000000000000 ) ) ;
#240 = DIRECTION ( 'NONE',  ( -1.000000000000000000, 0.0000000000000000000, 0.0000000000000000000 ) ) ;
#241 = LINE ( 'NONE', #1025, #720 ) ;
#242 = PERSON_AND_ORGANIZATION_ROLE ( 'creator' ) ;
#243 = ADVANCED_FACE ( 'NONE', ( #572 ), #658, .F. ) ;
#244 = UNCERTAINTY_MEASURE_WITH_UNIT (LENGTH_MEASURE( 1.000000000000000100E-005 ), #525, 'distance_accuracy_value', 'NONE');
#245 = CIRCLE ( 'NONE', #321, 2.500000000000000000 ) ;
#246 = EDGE_CURVE ( 'NONE', #512, #629, #598, .T. ) ;
#247 = DIRECTION ( 'NONE',  ( 1.000000000000000000, 0.0000000000000000000, 0.0000000000000000000 ) ) ;
#248 = COORDINATED_UNIVERSAL_TIME_OFFSET ( 1, 0, .AHEAD. ) ;
#249 = EDGE_CURVE ( 'NONE', #453, #305, #588, .T. ) ;
#250 = DIRECTION ( 'NONE',  ( -1.000000000000000000, 0.0000000000000000000, 0.0000000000000000000 ) ) ;
#251 = APPROVAL_STATUS ( 'not_yet_approved' ) ;
#252 = DIRECTION ( 'NONE',  ( -0.5449883505954141700, -0.8384436163006370200, -0.0000000000000000000 ) ) ;
#253 = ADVANCED_FACE ( 'NONE', ( #1028 ), #811, .T. ) ;
#254 = EDGE_LOOP ( 'NONE', ( #872, #333, #845, #444 ) ) ;
#255 = FACE_OUTER_BOUND ( 'NONE', #796, .T. ) ;
#256 = AXIS2_PLACEMENT_3D ( 'NONE', #99, #517, #93 ) ;
#257 = LINE ( 'NONE', #603, #700 ) ;
#258 = ORIENTED_EDGE ( 'NONE', *, *, #246, .F. ) ;
#259 = DIRECTION ( 'NONE',  ( -1.000000000000000000, 0.0000000000000000000, 0.0000000000000000000 ) ) ;
#260 = ORIENTED_EDGE ( 'NONE', *, *, #956, .F. ) ;
#261 = DIRECTION ( 'NONE',  ( -0.0000000000000000000, -0.0000000000000000000, -1.000000000000000000 ) ) ;
#262 = CARTESIAN_POINT ( 'NONE',  ( -12.49999999999999800, 7.999999999999998200, 2.500000000000000000 ) ) ;
#263 = PLANE ( 'NONE',  #117 ) ;
#264 = DIRECTION ( 'NONE',  ( -1.000000000000000000, 0.0000000000000000000, 0.0000000000000000000 ) ) ;
#265 = EDGE_LOOP ( 'NONE', ( #571, #914 ) ) ;
#266 = CIRCLE ( 'NONE', #151, 1.500000000000000400 ) ;
#267 = ORIENTED_EDGE ( 'NONE', *, *, #822, .T. ) ;
#268 = CC_DESIGN_PERSON_AND_ORGANIZATION_ASSIGNMENT ( #339, #566, ( #1002 ) ) ;
#269 = ORIENTED_EDGE ( 'NONE', *, *, #220, .T. ) ;
#270 = DIRECTION ( 'NONE',  ( -1.000000000000000000, 0.0000000000000000000, 0.0000000000000000000 ) ) ;
#271 = ORIENTED_EDGE ( 'NONE', *, *, #220, .F. ) ;
#272 = EDGE_CURVE ( 'NONE', #391, #873, #209, .T. ) ;
#273 = AXIS2_PLACEMENT_3D ( 'NONE', #930, #175, #87 ) ;
#274 = CARTESIAN_POINT ( 'NONE',  ( 0.0000000000000000000, 35.50000000000000700, 0.0000000000000000000 ) ) ;
#275 = DIRECTION ( 'NONE',  ( 0.0000000000000000000, 0.0000000000000000000, 1.000000000000000000 ) ) ;
#276 = LINE ( 'NONE', #239, #733 ) ;
#277 = CARTESIAN_POINT ( 'NONE',  ( -9.250000000000000000, 12.99999999999999800, 0.0000000000000000000 ) ) ;
#278 = DIRECTION ( 'NONE',  ( -1.000000000000000000, 0.0000000000000000000, 0.0000000000000000000 ) ) ;
#279 = ADVANCED_BREP_SHAPE_REPRESENTATION ( 'roll_part_1_Domyùlna_sldprt', ( #48, #883 ), #328 ) ;
#280 = VERTEX_POINT ( 'NONE', #595 ) ;
#281 =( NAMED_UNIT ( * ) SI_UNIT ( $, .STERADIAN. ) SOLID_ANGLE_UNIT ( ) );
#282 = ORIENTED_EDGE ( 'NONE', *, *, #767, .F. ) ;
#283 = VERTEX_POINT ( 'NONE', #910 ) ;
#284 = EDGE_LOOP ( 'NONE', ( #912, #292 ) ) ;
#285 = CARTESIAN_POINT ( 'NONE',  ( 1.750000000000000400, 35.50000000000000700, 0.0000000000000000000 ) ) ;
#286 = DIRECTION ( 'NONE',  ( 1.000000000000000000, 0.0000000000000000000, 0.0000000000000000000 ) ) ;
#287 = DIRECTION ( 'NONE',  ( 0.0000000000000000000, 0.0000000000000000000, 1.000000000000000000 ) ) ;
#288 = AXIS2_PLACEMENT_3D ( 'NONE', #948, #523, #459 ) ;
#289 = AXIS2_PLACEMENT_3D ( 'NONE', #748, #338, #250 ) ;
#290 = LINE ( 'NONE', #86, #540 ) ;
#291 = CARTESIAN_POINT ( 'NONE',  ( -4.000000000000007100, 31.50000000000001400, 2.500000000000000000 ) ) ;
#292 = ORIENTED_EDGE ( 'NONE', *, *, #716, .F. ) ;
#293 = ORIENTED_EDGE ( 'NONE', *, *, #10, .F. ) ;
#294 = LINE ( 'NONE', #699, #1057 ) ;
#295 = ORIENTED_EDGE ( 'NONE', *, *, #224, .F. ) ;
#296 = VERTEX_POINT ( 'NONE', #922 ) ;
#297 = DIRECTION ( 'NONE',  ( -1.000000000000000000, 0.0000000000000000000, 0.0000000000000000000 ) ) ;
#298 = ORIENTED_EDGE ( 'NONE', *, *, #995, .F. ) ;
#299 = LINE ( 'NONE', #277, #732 ) ;
#300 = ORIENTED_EDGE ( 'NONE', *, *, #1024, .F. ) ;
#301 = EDGE_CURVE ( 'NONE', #597, #4, #431, .T. ) ;
#302 = CARTESIAN_POINT ( 'NONE',  ( 5.500000000000000000, 23.49999999999998600, 2.500000000000000000 ) ) ;
#303 = CYLINDRICAL_SURFACE ( 'NONE', #1051, 1.500000000000000400 ) ;
#304 = EDGE_CURVE ( 'NONE', #1069, #125, #266, .T. ) ;
#305 = VERTEX_POINT ( 'NONE', #853 ) ;
#306 = VERTEX_POINT ( 'NONE', #442 ) ;
#307 = CARTESIAN_POINT ( 'NONE',  ( 5.500000000000000900, 39.49999999999999300, 0.0000000000000000000 ) ) ;
#308 = PRODUCT_DEFINITION ( 'UNKNOWN', '', #1002, #374 ) ;
#309 = CARTESIAN_POINT ( 'NONE',  ( 2.999999999999981800, 4.999999999999999100, 2.500000000000000000 ) ) ;
#310 = CIRCLE ( 'NONE', #711, 1.750000000000000400 ) ;
#311 = VECTOR ( 'NONE', #682, 1000.000000000000000 ) ;
#312 = CARTESIAN_POINT ( 'NONE',  ( 2.999999999999981800, 4.999999999999997300, 0.0000000000000000000 ) ) ;
#313 = ORIENTED_EDGE ( 'NONE', *, *, #600, .T. ) ;
#314 = LINE ( 'NONE', #774, #950 ) ;
#315 = LINE ( 'NONE', #617, #925 ) ;
#316 = CARTESIAN_POINT ( 'NONE',  ( 12.49999999999999800, 7.999999999999998200, 2.500000000000000000 ) ) ;
#317 = VECTOR ( 'NONE', #261, 1000.000000000000000 ) ;
#318 = ORIENTED_EDGE ( 'NONE', *, *, #767, .T. ) ;
#319 = ORIENTED_EDGE ( 'NONE', *, *, #879, .T. ) ;
#320 = DIRECTION ( 'NONE',  ( -0.0000000000000000000, -0.0000000000000000000, -1.000000000000000000 ) ) ;
#321 = AXIS2_PLACEMENT_3D ( 'NONE', #395, #789, #958 ) ;
#322 = DIRECTION ( 'NONE',  ( -0.0000000000000000000, -0.0000000000000000000, -1.000000000000000000 ) ) ;
#323 = VECTOR ( 'NONE', #625, 1000.000000000000000 ) ;
#324 = EDGE_CURVE ( 'NONE', #561, #673, #39, .T. ) ;
#325 = APPLICATION_PROTOCOL_DEFINITION ( 'international standard', 'config_control_design', 1994, #155 ) ;
#326 = EDGE_CURVE ( 'NONE', #629, #597, #558, .T. ) ;
#327 = CIRCLE ( 'NONE', #38, 12.00000000000000200 ) ;
#328 =( GEOMETRIC_REPRESENTATION_CONTEXT ( 3 ) GLOBAL_UNCERTAINTY_ASSIGNED_CONTEXT ( ( #244 ) ) GLOBAL_UNIT_ASSIGNED_CONTEXT ( ( #525, #606, #281 ) ) REPRESENTATION_CONTEXT ( 'NONE', 'WORKASPACE' ) );
#329 = CARTESIAN_POINT ( 'NONE',  ( -5.500000000000007100, 31.50000000000001400, 2.500000000000000000 ) ) ;
#330 = VERTEX_POINT ( 'NONE', #934 ) ;
#331 = ORIENTED_EDGE ( 'NONE', *, *, #543, .T. ) ;
#332 = CARTESIAN_POINT ( 'NONE',  ( 5.500000000000007100, 31.50000000000001400, 2.500000000000000000 ) ) ;
#333 = ORIENTED_EDGE ( 'NONE', *, *, #455, .F. ) ;
#334 = VERTEX_POINT ( 'NONE', #19 ) ;
#335 = ADVANCED_FACE ( 'NONE', ( #439 ), #119, .F. ) ;
#336 = ORIENTED_EDGE ( 'NONE', *, *, #903, .F. ) ;
#337 = DIRECTION ( 'NONE',  ( 0.0000000000000000000, 0.0000000000000000000, 1.000000000000000000 ) ) ;
#338 = DIRECTION ( 'NONE',  ( -0.0000000000000000000, -0.0000000000000000000, -1.000000000000000000 ) ) ;
#339 = PERSON_AND_ORGANIZATION ( #192, #49 ) ;
#340 = EDGE_CURVE ( 'NONE', #359, #330, #675, .T. ) ;
#341 = AXIS2_PLACEMENT_3D ( 'NONE', #6, #584, #1000 ) ;
#342 = DIRECTION ( 'NONE',  ( -0.0000000000000000000, -1.000000000000000000, -0.0000000000000000000 ) ) ;
#343 = ORIENTED_EDGE ( 'NONE', *, *, #205, .F. ) ;
#344 = CC_DESIGN_APPROVAL ( #632, ( #437 ) ) ;
#345 = CARTESIAN_POINT ( 'NONE',  ( 5.500000000000000900, 39.49999999999999300, 2.500000000000000000 ) ) ;
#346 = FACE_BOUND ( 'NONE', #942, .T. ) ;
#347 = LINE ( 'NONE', #735, #980 ) ;
#348 = DIRECTION ( 'NONE',  ( 0.0000000000000000000, 1.000000000000000000, 0.0000000000000000000 ) ) ;
#349 = ORIENTED_EDGE ( 'NONE', *, *, #933, .F. ) ;
#350 = VERTEX_POINT ( 'NONE', #355 ) ;
#351 = DIRECTION ( 'NONE',  ( 0.0000000000000000000, 0.0000000000000000000, 1.000000000000000000 ) ) ;
#352 = DIRECTION ( 'NONE',  ( 0.0000000000000000000, -0.0000000000000000000, -1.000000000000000000 ) ) ;
#353 = EDGE_CURVE ( 'NONE', #334, #41, #451, .T. ) ;
#354 = CARTESIAN_POINT ( 'NONE',  ( 12.49999999999999800, 7.999999999999998200, 0.0000000000000000000 ) ) ;
#355 = CARTESIAN_POINT ( 'NONE',  ( 12.50000000000000000, -1.530808498934191500E-015, 0.0000000000000000000 ) ) ;
#356 = EDGE_LOOP ( 'NONE', ( #481, #518, #485, #656 ) ) ;
#357 = VERTEX_POINT ( 'NONE', #666 ) ;
#358 = VECTOR ( 'NONE', #143, 1000.000000000000000 ) ;
#359 = VERTEX_POINT ( 'NONE', #177 ) ;
#360 = DIRECTION ( 'NONE',  ( 1.000000000000000000, 0.0000000000000000000, 0.0000000000000000000 ) ) ;
#361 = EDGE_CURVE ( 'NONE', #1017, #185, #234, .T. ) ;
#362 = CARTESIAN_POINT ( 'NONE',  ( -5.500000000000007100, 31.50000000000001400, 0.0000000000000000000 ) ) ;
#363 = ORIENTED_EDGE ( 'NONE', *, *, #837, .T. ) ;
#364 = EDGE_CURVE ( 'NONE', #1060, #717, #535, .T. ) ;
#365 = DIRECTION ( 'NONE',  ( 0.0000000000000000000, 0.0000000000000000000, 1.000000000000000000 ) ) ;
#366 = FACE_BOUND ( 'NONE', #83, .T. ) ;
#367 = AXIS2_PLACEMENT_3D ( 'NONE', #473, #68, #223 ) ;
#368 = CALENDAR_DATE ( 2018, 5, 11 ) ;
#369 = CIRCLE ( 'NONE', #1054, 2.500000000000000000 ) ;
#370 = EDGE_CURVE ( 'NONE', #944, #835, #472, .T. ) ;
#371 = VECTOR ( 'NONE', #348, 1000.000000000000000 ) ;
#372 = VECTOR ( 'NONE', #74, 1000.000000000000000 ) ;
#373 = ORIENTED_EDGE ( 'NONE', *, *, #176, .F. ) ;
#374 = DESIGN_CONTEXT ( 'detailed design', #644, 'design' ) ;
#375 = EDGE_LOOP ( 'NONE', ( #622, #258, #97, #126 ) ) ;
#376 = DIRECTION ( 'NONE',  ( -1.000000000000000000, -2.168404344971008900E-016, 0.0000000000000000000 ) ) ;
#377 = VECTOR ( 'NONE', #714, 1000.000000000000000 ) ;
#378 = DIRECTION ( 'NONE',  ( 0.0000000000000000000, 0.0000000000000000000, 1.000000000000000000 ) ) ;
#379 = AXIS2_PLACEMENT_3D ( 'NONE', #402, #559, #55 ) ;
#380 = EDGE_CURVE ( 'NONE', #330, #971, #1013, .T. ) ;
#381 = DIRECTION ( 'NONE',  ( 0.0000000000000000000, 0.0000000000000000000, 1.000000000000000000 ) ) ;
#382 = ORIENTED_EDGE ( 'NONE', *, *, #194, .T. ) ;
#383 = AXIS2_PLACEMENT_3D ( 'NONE', #846, #590, #1018 ) ;
#384 = EDGE_LOOP ( 'NONE', ( #1077, #436, #736, #940 ) ) ;
#385 = VECTOR ( 'NONE', #754, 1000.000000000000000 ) ;
#386 = CYLINDRICAL_SURFACE ( 'NONE', #102, 1.500000000000000400 ) ;
#387 = EDGE_LOOP ( 'NONE', ( #977, #955, #319, #691 ) ) ;
#388 = DIRECTION ( 'NONE',  ( -1.000000000000000000, 0.0000000000000000000, 0.0000000000000000000 ) ) ;
#389 = ORIENTED_EDGE ( 'NONE', *, *, #21, .F. ) ;
#390 = CC_DESIGN_APPROVAL ( #82, ( #1002 ) ) ;
#391 = VERTEX_POINT ( 'NONE', #663 ) ;
#392 = DIRECTION ( 'NONE',  ( 0.0000000000000000000, 0.0000000000000000000, 1.000000000000000000 ) ) ;
#393 = VECTOR ( 'NONE', #983, 1000.000000000000000 ) ;
#394 = APPROVAL_PERSON_ORGANIZATION ( #668, #695, #1076 ) ;
#395 = CARTESIAN_POINT ( 'NONE',  ( 2.999999999999999600, 7.500000000000000000, 2.500000000000000000 ) ) ;
#396 = AXIS2_PLACEMENT_3D ( 'NONE', #132, #877, #388 ) ;
#397 = CIRCLE ( 'NONE', #288, 1.500000000000000400 ) ;
#398 = ORIENTED_EDGE ( 'NONE', *, *, #166, .T. ) ;
#399 = CARTESIAN_POINT ( 'NONE',  ( 0.0000000000000000000, 35.50000000000000700, 2.500000000000000000 ) ) ;
#400 = EDGE_LOOP ( 'NONE', ( #349, #65, #313, #500 ) ) ;
#401 = ADVANCED_FACE ( 'NONE', ( #1072 ), #263, .F. ) ;
#402 = CARTESIAN_POINT ( 'NONE',  ( 0.0000000000000000000, 35.50000000000000700, 2.500000000000000000 ) ) ;
#403 = AXIS2_PLACEMENT_3D ( 'NONE', #831, #570, #496 ) ;
#404 = DIRECTION ( 'NONE',  ( -0.0000000000000000000, -0.0000000000000000000, -1.000000000000000000 ) ) ;
#405 = EDGE_CURVE ( 'NONE', #280, #971, #397, .T. ) ;
#406 = ADVANCED_FACE ( 'NONE', ( #139 ), #32, .F. ) ;
#407 = VERTEX_POINT ( 'NONE', #612 ) ;
#408 = VECTOR ( 'NONE', #677, 1000.000000000000000 ) ;
#409 = MECHANICAL_CONTEXT ( 'NONE', #155, 'mechanical' ) ;
#410 = ADVANCED_FACE ( 'NONE', ( #848 ), #22, .F. ) ;
#411 = CARTESIAN_POINT ( 'NONE',  ( 0.0000000000000000000, 35.50000000000000700, 2.500000000000000000 ) ) ;
#412 = LINE ( 'NONE', #907, #317 ) ;
#413 = VERTEX_POINT ( 'NONE', #285 ) ;
#414 = ORIENTED_EDGE ( 'NONE', *, *, #417, .T. ) ;
#415 = CARTESIAN_POINT ( 'NONE',  ( 9.249999999999994700, 27.85555757428966600, 2.500000000000000000 ) ) ;
#416 = DIRECTION ( 'NONE',  ( -0.5449883505954141700, 0.8384436163006370200, 0.0000000000000000000 ) ) ;
#417 = EDGE_CURVE ( 'NONE', #899, #850, #951, .T. ) ;
#418 = CARTESIAN_POINT ( 'NONE',  ( 0.0000000000000000000, 35.50000000000000700, 0.0000000000000000000 ) ) ;
#419 = ADVANCED_FACE ( 'NONE', ( #723 ), #1045, .F. ) ;
#420 = VECTOR ( 'NONE', #144, 1000.000000000000000 ) ;
#421 = DIRECTION ( 'NONE',  ( -1.000000000000000000, 0.0000000000000000000, 0.0000000000000000000 ) ) ;
#422 = EDGE_CURVE ( 'NONE', #970, #413, #620, .T. ) ;
#423 = CARTESIAN_POINT ( 'NONE',  ( -5.500000000000000000, 7.500000000000000000, 2.500000000000000000 ) ) ;
#424 = EDGE_CURVE ( 'NONE', #350, #1015, #793, .T. ) ;
#425 = LOCAL_TIME ( 17, 57, 56.00000000000000000, #627 ) ;
#426 = CARTESIAN_POINT ( 'NONE',  ( 5.500000000000000000, 7.500000000000016900, 2.500000000000000000 ) ) ;
#427 = AXIS2_PLACEMENT_3D ( 'NONE', #124, #708, #297 ) ;
#428 = AXIS2_PLACEMENT_3D ( 'NONE', #921, #752, #652 ) ;
#429 = DIRECTION ( 'NONE',  ( 0.0000000000000000000, 0.0000000000000000000, 1.000000000000000000 ) ) ;
#430 = CIRCLE ( 'NONE', #1053, 1.500000000000000400 ) ;
#431 = LINE ( 'NONE', #100, #408 ) ;
#432 = PLANE ( 'NONE',  #341 ) ;
#433 = CARTESIAN_POINT ( 'NONE',  ( 9.249999999999994700, 27.85555757428966600, 2.500000000000000000 ) ) ;
#434 = ORIENTED_EDGE ( 'NONE', *, *, #272, .F. ) ;
#435 = VERTEX_POINT ( 'NONE', #362 ) ;
#436 = ORIENTED_EDGE ( 'NONE', *, *, #556, .F. ) ;
#437 = SECURITY_CLASSIFICATION ( '', '', #820 ) ;
#438 = CARTESIAN_POINT ( 'NONE',  ( 2.999999999999999600, 23.50000000000000400, 2.500000000000000000 ) ) ;
#439 = FACE_OUTER_BOUND ( 'NONE', #968, .T. ) ;
#440 = EDGE_CURVE ( 'NONE', #780, #576, #183, .T. ) ;
#441 = VECTOR ( 'NONE', #1006, 1000.000000000000000 ) ;
#442 = CARTESIAN_POINT ( 'NONE',  ( -9.250000000000000000, 27.85555757428966900, 2.500000000000000000 ) ) ;
#443 = EDGE_CURVE ( 'NONE', #873, #1039, #1038, .T. ) ;
#444 = ORIENTED_EDGE ( 'NONE', *, *, #129, .T. ) ;
#445 = DIRECTION ( 'NONE',  ( -1.000000000000000000, 0.0000000000000000000, 0.0000000000000000000 ) ) ;
#446 = CARTESIAN_POINT ( 'NONE',  ( -5.500000000000000000, 7.500000000000016900, 0.0000000000000000000 ) ) ;
#447 = AXIS2_PLACEMENT_3D ( 'NONE', #505, #172, #586 ) ;
#448 = CARTESIAN_POINT ( 'NONE',  ( -12.49999999999999800, 7.999999999999998200, 0.0000000000000000000 ) ) ;
#449 = DIRECTION ( 'NONE',  ( -1.000000000000000000, 0.0000000000000000000, 0.0000000000000000000 ) ) ;
#450 = FACE_BOUND ( 'NONE', #821, .T. ) ;
#451 = LINE ( 'NONE', #446, #462 ) ;
#452 = ORIENTED_EDGE ( 'NONE', *, *, #879, .F. ) ;
#453 = VERTEX_POINT ( 'NONE', #35 ) ;
#454 = ORIENTED_EDGE ( 'NONE', *, *, #326, .T. ) ;
#455 = EDGE_CURVE ( 'NONE', #391, #676, #294, .T. ) ;
#456 = FACE_OUTER_BOUND ( 'NONE', #356, .T. ) ;
#457 = AXIS2_PLACEMENT_3D ( 'NONE', #1064, #404, #54 ) ;
#458 = DATE_AND_TIME ( #890, #856 ) ;
#459 = DIRECTION ( 'NONE',  ( 1.000000000000000000, 0.0000000000000000000, 0.0000000000000000000 ) ) ;
#460 = EDGE_CURVE ( 'NONE', #1039, #577, #315, .T. ) ;
#461 = ORIENTED_EDGE ( 'NONE', *, *, #424, .F. ) ;
#462 = VECTOR ( 'NONE', #342, 1000.000000000000000 ) ;
#463 = DIRECTION ( 'NONE',  ( 0.0000000000000000000, 0.0000000000000000000, 1.000000000000000000 ) ) ;
#464 = LINE ( 'NONE', #1061, #574 ) ;
#465 = VERTEX_POINT ( 'NONE', #939 ) ;
#466 = ORIENTED_EDGE ( 'NONE', *, *, #205, .T. ) ;
#467 = DIRECTION ( 'NONE',  ( -0.0000000000000000000, -0.0000000000000000000, -1.000000000000000000 ) ) ;
#468 = FACE_OUTER_BOUND ( 'NONE', #27, .T. ) ;
#469 = CARTESIAN_POINT ( 'NONE',  ( -4.000000000000007100, 31.50000000000001400, 2.500000000000000000 ) ) ;
#470 = EDGE_CURVE ( 'NONE', #185, #350, #257, .T. ) ;
#471 = ORIENTED_EDGE ( 'NONE', *, *, #361, .T. ) ;
#472 = LINE ( 'NONE', #672, #385 ) ;
#473 = CARTESIAN_POINT ( 'NONE',  ( 2.999999999999999600, 7.500000000000000000, 2.500000000000000000 ) ) ;
#474 = EDGE_LOOP ( 'NONE', ( #743, #414, #128, #887 ) ) ;
#475 = AXIS2_PLACEMENT_3D ( 'NONE', #908, #1080, #162 ) ;
#476 = ORIENTED_EDGE ( 'NONE', *, *, #187, .F. ) ;
#477 = CARTESIAN_POINT ( 'NONE',  ( -4.000000000000000000, 39.49999999999999300, 2.500000000000000000 ) ) ;
#478 = ADVANCED_FACE ( 'NONE', ( #611 ), #62, .F. ) ;
#479 = CARTESIAN_POINT ( 'NONE',  ( -4.000000000000007100, 31.50000000000001400, 2.500000000000000000 ) ) ;
#480 = LOCAL_TIME ( 17, 57, 56.00000000000000000, #830 ) ;
#481 = ORIENTED_EDGE ( 'NONE', *, *, #224, .T. ) ;
#482 = DIRECTION ( 'NONE',  ( -0.0000000000000000000, -0.0000000000000000000, -1.000000000000000000 ) ) ;
#483 = FACE_BOUND ( 'NONE', #923, .T. ) ;
#484 = VERTEX_POINT ( 'NONE', #26 ) ;
#485 = ORIENTED_EDGE ( 'NONE', *, *, #135, .F. ) ;
#486 = VERTEX_POINT ( 'NONE', #685 ) ;
#487 = DIRECTION ( 'NONE',  ( 0.0000000000000000000, 1.000000000000000000, 0.0000000000000000000 ) ) ;
#488 = EDGE_CURVE ( 'NONE', #357, #957, #28, .T. ) ;
#489 = ADVANCED_FACE ( 'NONE', ( #886 ), #861, .T. ) ;
#490 = CARTESIAN_POINT ( 'NONE',  ( -5.500000000000000000, 7.500000000000000000, 0.0000000000000000000 ) ) ;
#491 = DIRECTION ( 'NONE',  ( -1.000000000000000000, 0.0000000000000000000, 0.0000000000000000000 ) ) ;
#492 = EDGE_CURVE ( 'NONE', #484, #435, #862, .T. ) ;
#493 = VECTOR ( 'NONE', #969, 1000.000000000000000 ) ;
#494 = PLANE ( 'NONE',  #782 ) ;
#495 = AXIS2_PLACEMENT_3D ( 'NONE', #438, #190, #445 ) ;
#496 = DIRECTION ( 'NONE',  ( 1.000000000000000000, 0.0000000000000000000, 0.0000000000000000000 ) ) ;
#497 = DIRECTION ( 'NONE',  ( -2.168404344971008900E-016, 1.000000000000000000, 0.0000000000000000000 ) ) ;
#498 = CARTESIAN_POINT ( 'NONE',  ( -4.000000000000007100, 31.50000000000001400, 2.500000000000000000 ) ) ;
#499 = FACE_OUTER_BOUND ( 'NONE', #384, .T. ) ;
#500 = ORIENTED_EDGE ( 'NONE', *, *, #562, .T. ) ;
#501 = ORIENTED_EDGE ( 'NONE', *, *, #990, .F. ) ;
#502 = CARTESIAN_POINT ( 'NONE',  ( 12.50000000000000000, -1.530808498934191500E-015, 2.500000000000000000 ) ) ;
#503 = ORIENTED_EDGE ( 'NONE', *, *, #528, .T. ) ;
#504 = DIRECTION ( 'NONE',  ( 0.0000000000000000000, 0.0000000000000000000, 1.000000000000000000 ) ) ;
#505 = CARTESIAN_POINT ( 'NONE',  ( 0.0000000000000000000, 35.50000000000000700, 0.0000000000000000000 ) ) ;
#506 = CARTESIAN_POINT ( 'NONE',  ( -5.500000000000000000, 7.500000000000000000, 2.500000000000000000 ) ) ;
#507 = DIRECTION ( 'NONE',  ( 0.0000000000000000000, 0.0000000000000000000, 1.000000000000000000 ) ) ;
#508 = EDGE_CURVE ( 'NONE', #549, #465, #633, .T. ) ;
#509 = CIRCLE ( 'NONE', #605, 1.500000000000000400 ) ;
#510 = AXIS2_PLACEMENT_3D ( 'NONE', #274, #11, #1020 ) ;
#511 = CARTESIAN_POINT ( 'NONE',  ( 0.0000000000000000000, 35.50000000000000700, 0.0000000000000000000 ) ) ;
#512 = VERTEX_POINT ( 'NONE', #302 ) ;
#513 = EDGE_LOOP ( 'NONE', ( #363, #926, #336, #602 ) ) ;
#514 = VECTOR ( 'NONE', #199, 1000.000000000000000 ) ;
#515 = LINE ( 'NONE', #705, #493 ) ;
#516 = VERTEX_POINT ( 'NONE', #882 ) ;
#517 = DIRECTION ( 'NONE',  ( -0.0000000000000000000, -0.0000000000000000000, -1.000000000000000000 ) ) ;
#518 = ORIENTED_EDGE ( 'NONE', *, *, #913, .T. ) ;
#519 = CARTESIAN_POINT ( 'NONE',  ( -12.50000000000000000, -1.530808498934191500E-015, 0.0000000000000000000 ) ) ;
#520 = CARTESIAN_POINT ( 'NONE',  ( 4.000000000000007100, 31.50000000000001400, 2.500000000000000000 ) ) ;
#521 = FACE_OUTER_BOUND ( 'NONE', #928, .T. ) ;
#522 = DIRECTION ( 'NONE',  ( 0.0000000000000000000, 0.0000000000000000000, 1.000000000000000000 ) ) ;
#523 = DIRECTION ( 'NONE',  ( 0.0000000000000000000, 0.0000000000000000000, 1.000000000000000000 ) ) ;
#524 = VECTOR ( 'NONE', #1073, 1000.000000000000100 ) ;
#525 =( LENGTH_UNIT ( ) NAMED_UNIT ( * ) SI_UNIT ( .MILLI., .METRE. ) );
#526 = ORIENTED_EDGE ( 'NONE', *, *, #671, .F. ) ;
#527 = ORIENTED_EDGE ( 'NONE', *, *, #960, .F. ) ;
#528 = EDGE_CURVE ( 'NONE', #196, #486, #430, .T. ) ;
#529 = ORIENTED_EDGE ( 'NONE', *, *, #361, .F. ) ;
#530 = CARTESIAN_POINT ( 'NONE',  ( -2.999999999999999600, 7.500000000000000000, 2.500000000000000000 ) ) ;
#531 = PRODUCT ( 'roll_part_1_Domyúlna_sldprt', 'roll_part_1_Domyúlna_sldprt', '', ( #409 ) ) ;
#532 = CC_DESIGN_PERSON_AND_ORGANIZATION_ASSIGNMENT ( #764, #810, ( #437 ) ) ;
#533 = CALENDAR_DATE ( 2018, 5, 11 ) ;
#534 = VERTEX_POINT ( 'NONE', #963 ) ;
#535 = CIRCLE ( 'NONE', #273, 1.500000000000000400 ) ;
#536 = LINE ( 'NONE', #502, #95 ) ;
#537 = ORIENTED_EDGE ( 'NONE', *, *, #246, .T. ) ;
#538 = DIRECTION ( 'NONE',  ( -0.0000000000000000000, -0.0000000000000000000, -1.000000000000000000 ) ) ;
#539 = ORIENTED_EDGE ( 'NONE', *, *, #147, .F. ) ;
#540 = VECTOR ( 'NONE', #1078, 1000.000000000000000 ) ;
#541 = LINE ( 'NONE', #623, #323 ) ;
#542 = EDGE_CURVE ( 'NONE', #407, #597, #110, .T. ) ;
#543 = EDGE_CURVE ( 'NONE', #850, #899, #154, .T. ) ;
#544 = ORIENTED_EDGE ( 'NONE', *, *, #142, .T. ) ;
#545 = DIRECTION ( 'NONE',  ( 0.0000000000000000000, 1.000000000000000000, -0.0000000000000000000 ) ) ;
#546 = AXIS2_PLACEMENT_3D ( 'NONE', #701, #538, #203 ) ;
#547 = ORIENTED_EDGE ( 'NONE', *, *, #869, .F. ) ;
#548 = ORIENTED_EDGE ( 'NONE', *, *, #646, .T. ) ;
#549 = VERTEX_POINT ( 'NONE', #972 ) ;
#550 = ORIENTED_EDGE ( 'NONE', *, *, #1024, .T. ) ;
#551 = CYLINDRICAL_SURFACE ( 'NONE', #367, 2.500000000000000400 ) ;
#552 = DIRECTION ( 'NONE',  ( -0.0000000000000000000, -0.0000000000000000000, -1.000000000000000000 ) ) ;
#553 = FACE_BOUND ( 'NONE', #284, .T. ) ;
#554 = EDGE_CURVE ( 'NONE', #957, #819, #515, .T. ) ;
#555 = CARTESIAN_POINT ( 'NONE',  ( 5.500000000000007100, 31.50000000000001400, 2.500000000000000000 ) ) ;
#556 = EDGE_CURVE ( 'NONE', #957, #334, #565, .T. ) ;
#557 = CARTESIAN_POINT ( 'NONE',  ( 2.499999999999999600, 39.49999999999999300, 2.500000000000000000 ) ) ;
#558 = CIRCLE ( 'NONE', #45, 2.500000000000000000 ) ;
#559 = DIRECTION ( 'NONE',  ( 0.0000000000000000000, 0.0000000000000000000, 1.000000000000000000 ) ) ;
#560 = VECTOR ( 'NONE', #991, 1000.000000000000000 ) ;
#561 = VERTEX_POINT ( 'NONE', #307 ) ;
#562 = EDGE_CURVE ( 'NONE', #516, #52, #34, .T. ) ;
#563 = ORIENTED_EDGE ( 'NONE', *, *, #340, .F. ) ;
#564 = DIRECTION ( 'NONE',  ( 1.000000000000000000, 0.0000000000000000000, 0.0000000000000000000 ) ) ;
#565 = LINE ( 'NONE', #46, #377 ) ;
#566 = PERSON_AND_ORGANIZATION_ROLE ( 'design_supplier' ) ;
#567 = ADVANCED_FACE ( 'NONE', ( #521 ), #885, .T. ) ;
#568 = DIRECTION ( 'NONE',  ( 1.000000000000000000, 0.0000000000000000000, 0.0000000000000000000 ) ) ;
#569 = DATE_TIME_ROLE ( 'creation_date' ) ;
#570 = DIRECTION ( 'NONE',  ( 0.0000000000000000000, 0.0000000000000000000, 1.000000000000000000 ) ) ;
#571 = ORIENTED_EDGE ( 'NONE', *, *, #543, .F. ) ;
#572 = FACE_OUTER_BOUND ( 'NONE', #823, .T. ) ;
#573 = ADVANCED_FACE ( 'NONE', ( #667 ), #1023, .T. ) ;
#574 = VECTOR ( 'NONE', #1063, 1000.000000000000000 ) ;
#575 = ORIENTED_EDGE ( 'NONE', *, *, #194, .F. ) ;
#576 = VERTEX_POINT ( 'NONE', #127 ) ;
#577 = VERTEX_POINT ( 'NONE', #710 ) ;
#578 = CARTESIAN_POINT ( 'NONE',  ( -12.49999999999999800, 7.999999999999998200, 0.0000000000000000000 ) ) ;
#579 = CARTESIAN_POINT ( 'NONE',  ( 2.999999999999981800, 4.999999999999999100, 0.0000000000000000000 ) ) ;
#580 = AXIS2_PLACEMENT_3D ( 'NONE', #399, #981, #564 ) ;
#581 = LINE ( 'NONE', #727, #189 ) ;
#582 = CARTESIAN_POINT ( 'NONE',  ( 12.49999999999999800, 7.999999999999998200, 2.500000000000000000 ) ) ;
#583 = COORDINATED_UNIVERSAL_TIME_OFFSET ( 1, 0, .AHEAD. ) ;
#584 = DIRECTION ( 'NONE',  ( 1.000000000000000000, 0.0000000000000000000, 0.0000000000000000000 ) ) ;
#585 = CC_DESIGN_DATE_AND_TIME_ASSIGNMENT ( #136, #647, ( #437 ) ) ;
#586 = DIRECTION ( 'NONE',  ( 1.000000000000000000, 0.0000000000000000000, 0.0000000000000000000 ) ) ;
#587 = CARTESIAN_POINT ( 'NONE',  ( -2.999999999999999600, 23.50000000000000400, 0.0000000000000000000 ) ) ;
#588 = LINE ( 'NONE', #657, #895 ) ;
#589 = CIRCLE ( 'NONE', #23, 2.500000000000000000 ) ;
#590 = DIRECTION ( 'NONE',  ( -0.0000000000000000000, -0.0000000000000000000, -1.000000000000000000 ) ) ;
#591 = ORIENTED_EDGE ( 'NONE', *, *, #142, .F. ) ;
#592 = DIRECTION ( 'NONE',  ( -0.0000000000000000000, -0.0000000000000000000, -1.000000000000000000 ) ) ;
#593 = DIRECTION ( 'NONE',  ( -2.168404344971008900E-016, -1.000000000000000000, -0.0000000000000000000 ) ) ;
#594 = LINE ( 'NONE', #978, #607 ) ;
#595 = CARTESIAN_POINT ( 'NONE',  ( -2.499999999999999600, 39.49999999999999300, 0.0000000000000000000 ) ) ;
#596 = CARTESIAN_POINT ( 'NONE',  ( 2.999999999999999600, 23.50000000000000400, 0.0000000000000000000 ) ) ;
#597 = VERTEX_POINT ( 'NONE', #791 ) ;
#598 = LINE ( 'NONE', #146, #16 ) ;
#599 = EDGE_LOOP ( 'NONE', ( #137, #994, #772, #537 ) ) ;
#600 = EDGE_CURVE ( 'NONE', #803, #516, #245, .T. ) ;
#601 = ORIENTED_EDGE ( 'NONE', *, *, #304, .F. ) ;
#602 = ORIENTED_EDGE ( 'NONE', *, *, #508, .F. ) ;
#603 = CARTESIAN_POINT ( 'NONE',  ( 12.50000000000000000, -1.530808498934191500E-015, 0.0000000000000000000 ) ) ;
#604 = ORIENTED_EDGE ( 'NONE', *, *, #21, .T. ) ;
#605 = AXIS2_PLACEMENT_3D ( 'NONE', #520, #365, #360 ) ;
#606 =( NAMED_UNIT ( * ) PLANE_ANGLE_UNIT ( ) SI_UNIT ( $, .RADIAN. ) );
#607 = VECTOR ( 'NONE', #487, 1000.000000000000000 ) ;
#608 = CALENDAR_DATE ( 2018, 5, 11 ) ;
#609 = DIRECTION ( 'NONE',  ( -0.0000000000000000000, -0.0000000000000000000, -1.000000000000000000 ) ) ;
#610 = VECTOR ( 'NONE', #938, 1000.000000000000000 ) ;
#611 = FACE_OUTER_BOUND ( 'NONE', #387, .T. ) ;
#612 = CARTESIAN_POINT ( 'NONE',  ( 2.999999999999981800, 26.00000000000000400, 2.500000000000000000 ) ) ;
#613 = EDGE_CURVE ( 'NONE', #676, #283, #541, .T. ) ;
#614 = EDGE_LOOP ( 'NONE', ( #331, #548, #1026, #114 ) ) ;
#615 = AXIS2_PLACEMENT_3D ( 'NONE', #70, #643, #905 ) ;
#616 = ORIENTED_EDGE ( 'NONE', *, *, #440, .T. ) ;
#617 = CARTESIAN_POINT ( 'NONE',  ( 12.00000000000000200, 35.50000000000000700, 2.500000000000000000 ) ) ;
#618 = DIRECTION ( 'NONE',  ( -1.000000000000000000, 0.0000000000000000000, 0.0000000000000000000 ) ) ;
#619 = ORIENTED_EDGE ( 'NONE', *, *, #173, .F. ) ;
#620 = LINE ( 'NONE', #779, #514 ) ;
#621 = FACE_OUTER_BOUND ( 'NONE', #614, .T. ) ;
#622 = ORIENTED_EDGE ( 'NONE', *, *, #326, .F. ) ;
#623 = CARTESIAN_POINT ( 'NONE',  ( 9.250000000000000000, 12.99999999999999800, 0.0000000000000000000 ) ) ;
#624 = ORIENTED_EDGE ( 'NONE', *, *, #488, .F. ) ;
#625 = DIRECTION ( 'NONE',  ( 0.0000000000000000000, 1.000000000000000000, 0.0000000000000000000 ) ) ;
#626 = LINE ( 'NONE', #637, #420 ) ;
#627 = COORDINATED_UNIVERSAL_TIME_OFFSET ( 1, 0, .AHEAD. ) ;
#628 = CIRCLE ( 'NONE', #475, 1.750000000000000400 ) ;
#629 = VERTEX_POINT ( 'NONE', #1043 ) ;
#630 = DIRECTION ( 'NONE',  ( -1.000000000000000000, 0.0000000000000000000, 0.0000000000000000000 ) ) ;
#631 = AXIS2_PLACEMENT_3D ( 'NONE', #870, #381, #50 ) ;
#632 = APPROVAL ( #251, 'UNSPECIFIED' ) ;
#633 = LINE ( 'NONE', #214, #909 ) ;
#634 = EDGE_LOOP ( 'NONE', ( #461, #740, #529, #161, #298, #1031, #527, #1014, #865, #210 ) ) ;
#635 = DIRECTION ( 'NONE',  ( 1.000000000000000000, -2.168404344971008900E-016, 0.0000000000000000000 ) ) ;
#636 = DIRECTION ( 'NONE',  ( 1.000000000000000000, 0.0000000000000000000, 0.0000000000000000000 ) ) ;
#637 = CARTESIAN_POINT ( 'NONE',  ( 2.999999999999981800, 4.999999999999999100, 2.500000000000000000 ) ) ;
#638 = EDGE_LOOP ( 'NONE', ( #1074, #893, #454, #1059, #159, #18, #206, #544 ) ) ;
#639 = ORIENTED_EDGE ( 'NONE', *, *, #129, .F. ) ;
#640 = APPROVAL_STATUS ( 'not_yet_approved' ) ;
#641 = CIRCLE ( 'NONE', #580, 12.00000000000000200 ) ;
#642 = VERTEX_POINT ( 'NONE', #312 ) ;
#643 = DIRECTION ( 'NONE',  ( -0.0000000000000000000, -0.0000000000000000000, -1.000000000000000000 ) ) ;
#644 = APPLICATION_CONTEXT ( 'configuration controlled 3d designs of mechanical parts and assemblies' ) ;
#645 = ADVANCED_FACE ( 'NONE', ( #961 ), #707, .F. ) ;
#646 = EDGE_CURVE ( 'NONE', #899, #484, #276, .T. ) ;
#647 = DATE_TIME_ROLE ( 'classification_date' ) ;
#648 = CARTESIAN_POINT ( 'NONE',  ( 2.999999999999999600, 23.50000000000000400, 2.500000000000000000 ) ) ;
#649 = CYLINDRICAL_SURFACE ( 'NONE', #669, 1.500000000000000400 ) ;
#650 = AXIS2_PLACEMENT_3D ( 'NONE', #696, #1033, #195 ) ;
#651 = CC_DESIGN_PERSON_AND_ORGANIZATION_ASSIGNMENT ( #1009, #67, ( #531 ) ) ;
#652 = DIRECTION ( 'NONE',  ( 0.0000000000000000000, 0.0000000000000000000, 1.000000000000000000 ) ) ;
#653 = DATE_AND_TIME ( #608, #480 ) ;
#654 = DIRECTION ( 'NONE',  ( -1.000000000000000000, 0.0000000000000000000, 0.0000000000000000000 ) ) ;
#655 = ADVANCED_FACE ( 'NONE', ( #456 ), #649, .F. ) ;
#656 = ORIENTED_EDGE ( 'NONE', *, *, #380, .F. ) ;
#657 = CARTESIAN_POINT ( 'NONE',  ( -9.250000000000000000, 12.99999999999999800, 2.500000000000000000 ) ) ;
#658 = CYLINDRICAL_SURFACE ( 'NONE', #790, 1.500000000000000400 ) ;
#659 = ORIENTED_EDGE ( 'NONE', *, *, #600, .F. ) ;
#660 = AXIS2_PLACEMENT_3D ( 'NONE', #530, #771, #449 ) ;
#661 = ORIENTED_EDGE ( 'NONE', *, *, #1007, .T. ) ;
#662 = CYLINDRICAL_SURFACE ( 'NONE', #495, 2.499999999999999600 ) ;
#663 = CARTESIAN_POINT ( 'NONE',  ( 9.250000000000000000, 12.99999999999999800, 2.500000000000000000 ) ) ;
#664 = CARTESIAN_POINT ( 'NONE',  ( -4.000000000000007100, 31.50000000000001400, 0.0000000000000000000 ) ) ;
#665 = DIRECTION ( 'NONE',  ( 0.0000000000000000000, 0.0000000000000000000, 1.000000000000000000 ) ) ;
#666 = CARTESIAN_POINT ( 'NONE',  ( -2.999999999999981800, 26.00000000000000400, 2.500000000000000000 ) ) ;
#667 = FACE_OUTER_BOUND ( 'NONE', #1040, .T. ) ;
#668 = PERSON_AND_ORGANIZATION ( #192, #49 ) ;
#669 = AXIS2_PLACEMENT_3D ( 'NONE', #477, #552, #630 ) ;
#670 = CARTESIAN_POINT ( 'NONE',  ( 1.750000000000000400, 35.50000000000000700, 2.500000000000000000 ) ) ;
#671 = EDGE_CURVE ( 'NONE', #125, #486, #881, .T. ) ;
#672 = CARTESIAN_POINT ( 'NONE',  ( -12.50000000000000000, -1.530808498934191500E-015, 2.500000000000000000 ) ) ;
#673 = VERTEX_POINT ( 'NONE', #814 ) ;
#674 = DIRECTION ( 'NONE',  ( 1.000000000000000000, 0.0000000000000000000, 0.0000000000000000000 ) ) ;
#675 = CIRCLE ( 'NONE', #211, 1.500000000000000400 ) ;
#676 = VERTEX_POINT ( 'NONE', #227 ) ;
#677 = DIRECTION ( 'NONE',  ( -1.000000000000000000, -0.0000000000000000000, -0.0000000000000000000 ) ) ;
#678 = EDGE_LOOP ( 'NONE', ( #693, #785 ) ) ;
#679 = ORIENTED_EDGE ( 'NONE', *, *, #176, .T. ) ;
#680 = CARTESIAN_POINT ( 'NONE',  ( 0.0000000000000000000, 35.50000000000000700, 2.500000000000000000 ) ) ;
#681 = CARTESIAN_POINT ( 'NONE',  ( 9.250000000000000000, 12.99999999999999800, 2.500000000000000000 ) ) ;
#682 = DIRECTION ( 'NONE',  ( -1.000000000000000000, -0.0000000000000000000, -0.0000000000000000000 ) ) ;
#683 = DIRECTION ( 'NONE',  ( -0.0000000000000000000, -0.0000000000000000000, -1.000000000000000000 ) ) ;
#684 = DIRECTION ( 'NONE',  ( -0.0000000000000000000, -0.0000000000000000000, -1.000000000000000000 ) ) ;
#685 = CARTESIAN_POINT ( 'NONE',  ( 5.500000000000007100, 31.50000000000001400, 0.0000000000000000000 ) ) ;
#686 = ORIENTED_EDGE ( 'NONE', *, *, #443, .T. ) ;
#687 = CIRCLE ( 'NONE', #78, 1.500000000000000400 ) ;
#688 = AXIS2_PLACEMENT_3D ( 'NONE', #84, #1004, #240 ) ;
#689 = EDGE_LOOP ( 'NONE', ( #539, #5, #30, #14 ) ) ;
#690 = DIRECTION ( 'NONE',  ( 0.0000000000000000000, 0.0000000000000000000, 1.000000000000000000 ) ) ;
#691 = ORIENTED_EDGE ( 'NONE', *, *, #965, .T. ) ;
#692 = DIRECTION ( 'NONE',  ( 0.0000000000000000000, 0.0000000000000000000, 1.000000000000000000 ) ) ;
#693 = ORIENTED_EDGE ( 'NONE', *, *, #101, .T. ) ;
#694 = VECTOR ( 'NONE', #827, 1000.000000000000100 ) ;
#695 = APPROVAL ( #988, 'UNSPECIFIED' ) ;
#696 = CARTESIAN_POINT ( 'NONE',  ( -12.49999999999999800, 7.999999999999998200, 2.500000000000000000 ) ) ;
#697 = EDGE_CURVE ( 'NONE', #803, #642, #1081, .T. ) ;
#698 = DATE_AND_TIME ( #919, #425 ) ;
#699 = CARTESIAN_POINT ( 'NONE',  ( 9.250000000000000000, 12.99999999999999800, 2.500000000000000000 ) ) ;
#700 = VECTOR ( 'NONE', #868, 1000.000000000000000 ) ;
#701 = CARTESIAN_POINT ( 'NONE',  ( 0.0000000000000000000, 35.50000000000000700, 2.500000000000000000 ) ) ;
#702 = LINE ( 'NONE', #557, #358 ) ;
#703 = ORIENTED_EDGE ( 'NONE', *, *, #937, .F. ) ;
#704 = ORIENTED_EDGE ( 'NONE', *, *, #202, .T. ) ;
#705 = CARTESIAN_POINT ( 'NONE',  ( -5.500000000000000000, 7.500000000000016900, 2.500000000000000000 ) ) ;
#706 = EDGE_CURVE ( 'NONE', #944, #1017, #747, .T. ) ;
#707 = CYLINDRICAL_SURFACE ( 'NONE', #826, 1.750000000000000400 ) ;
#708 = DIRECTION ( 'NONE',  ( -0.0000000000000000000, -0.0000000000000000000, -1.000000000000000000 ) ) ;
#709 = PERSON_AND_ORGANIZATION ( #192, #49 ) ;
#710 = CARTESIAN_POINT ( 'NONE',  ( 12.00000000000000200, 35.50000000000000700, 0.0000000000000000000 ) ) ;
#711 = AXIS2_PLACEMENT_3D ( 'NONE', #411, #1062, #636 ) ;
#712 = ORIENTED_EDGE ( 'NONE', *, *, #554, .F. ) ;
#713 = CIRCLE ( 'NONE', #115, 2.500000000000000000 ) ;
#714 = DIRECTION ( 'NONE',  ( -0.0000000000000000000, -0.0000000000000000000, -1.000000000000000000 ) ) ;
#715 = VERTEX_POINT ( 'NONE', #316 ) ;
#716 = EDGE_CURVE ( 'NONE', #970, #549, #310, .T. ) ;
#717 = VERTEX_POINT ( 'NONE', #891 ) ;
#718 = DIRECTION ( 'NONE',  ( -0.0000000000000000000, -0.0000000000000000000, -1.000000000000000000 ) ) ;
#719 = VECTOR ( 'NONE', #150, 1000.000000000000000 ) ;
#720 = VECTOR ( 'NONE', #851, 1000.000000000000000 ) ;
#721 = DIRECTION ( 'NONE',  ( -0.0000000000000000000, -0.0000000000000000000, -1.000000000000000000 ) ) ;
#722 = AXIS2_PLACEMENT_3D ( 'NONE', #896, #1070, #568 ) ;
#723 = FACE_OUTER_BOUND ( 'NONE', #689, .T. ) ;
#724 = VECTOR ( 'NONE', #43, 1000.000000000000000 ) ;
#725 = ORIENTED_EDGE ( 'NONE', *, *, #965, .F. ) ;
#726 = ADVANCED_FACE ( 'NONE', ( #828 ), #776, .F. ) ;
#727 = CARTESIAN_POINT ( 'NONE',  ( -2.999999999999981800, 26.00000000000000400, 2.500000000000000000 ) ) ;
#728 = EDGE_CURVE ( 'NONE', #52, #629, #594, .T. ) ;
#729 = CARTESIAN_POINT ( 'NONE',  ( -4.000000000000000000, 39.49999999999999300, 2.500000000000000000 ) ) ;
#730 = CIRCLE ( 'NONE', #134, 2.500000000000000000 ) ;
#731 = DIRECTION ( 'NONE',  ( 0.0000000000000000000, 0.0000000000000000000, 1.000000000000000000 ) ) ;
#732 = VECTOR ( 'NONE', #103, 1000.000000000000000 ) ;
#733 = VECTOR ( 'NONE', #320, 1000.000000000000000 ) ;
#734 = APPLICATION_PROTOCOL_DEFINITION ( 'international standard', 'config_control_design', 1994, #644 ) ;
#735 = CARTESIAN_POINT ( 'NONE',  ( -5.500000000000007100, 31.50000000000001400, 2.500000000000000000 ) ) ;
#736 = ORIENTED_EDGE ( 'NONE', *, *, #554, .T. ) ;
#737 = ADVANCED_FACE ( 'NONE', ( #798 ), #551, .F. ) ;
#738 = CARTESIAN_POINT ( 'NONE',  ( -12.49999999999999800, 7.999999999999998200, 2.500000000000000000 ) ) ;
#739 = FACE_OUTER_BOUND ( 'NONE', #474, .T. ) ;
#740 = ORIENTED_EDGE ( 'NONE', *, *, #470, .F. ) ;
#741 = EDGE_LOOP ( 'NONE', ( #295, #563 ) ) ;
#742 = CARTESIAN_POINT ( 'NONE',  ( -9.250000000000000000, 12.99999999999999800, 2.500000000000000000 ) ) ;
#743 = ORIENTED_EDGE ( 'NONE', *, *, #646, .F. ) ;
#744 = DIRECTION ( 'NONE',  ( -0.0000000000000000000, -0.0000000000000000000, -1.000000000000000000 ) ) ;
#745 = DIRECTION ( 'NONE',  ( -0.0000000000000000000, -0.0000000000000000000, -1.000000000000000000 ) ) ;
#746 = CYLINDRICAL_SURFACE ( 'NONE', #802, 12.00000000000000200 ) ;
#747 = LINE ( 'NONE', #138, #719 ) ;
#748 = CARTESIAN_POINT ( 'NONE',  ( 4.000000000000000000, 39.49999999999999300, 2.500000000000000000 ) ) ;
#749 = LOCAL_TIME ( 17, 57, 56.00000000000000000, #974 ) ;
#750 = DIRECTION ( 'NONE',  ( -0.0000000000000000000, -0.0000000000000000000, -1.000000000000000000 ) ) ;
#751 = DIRECTION ( 'NONE',  ( 0.0000000000000000000, 0.0000000000000000000, 1.000000000000000000 ) ) ;
#752 = DIRECTION ( 'NONE',  ( -1.000000000000000000, 0.0000000000000000000, 0.0000000000000000000 ) ) ;
#753 = ORIENTED_EDGE ( 'NONE', *, *, #249, .T. ) ;
#754 = DIRECTION ( 'NONE',  ( -2.168404344971008900E-016, -1.000000000000000000, -0.0000000000000000000 ) ) ;
#755 = VECTOR ( 'NONE', #593, 1000.000000000000000 ) ;
#756 = LINE ( 'NONE', #578, #63 ) ;
#757 = ORIENTED_EDGE ( 'NONE', *, *, #405, .F. ) ;
#758 = CARTESIAN_POINT ( 'NONE',  ( 12.00000000000000200, 35.50000000000000700, 2.500000000000000000 ) ) ;
#759 = ORIENTED_EDGE ( 'NONE', *, *, #440, .F. ) ;
#760 = DIRECTION ( 'NONE',  ( -1.000000000000000000, 0.0000000000000000000, 0.0000000000000000000 ) ) ;
#761 = DIRECTION ( 'NONE',  ( -1.000000000000000000, 0.0000000000000000000, 0.0000000000000000000 ) ) ;
#762 = CIRCLE ( 'NONE', #1019, 2.500000000000000000 ) ;
#763 = VECTOR ( 'NONE', #467, 1000.000000000000000 ) ;
#764 = PERSON_AND_ORGANIZATION ( #192, #49 ) ;
#765 = EDGE_CURVE ( 'NONE', #1069, #196, #1034, .T. ) ;
#766 = CARTESIAN_POINT ( 'NONE',  ( -4.000000000000000000, 39.49999999999999300, 2.500000000000000000 ) ) ;
#767 = EDGE_CURVE ( 'NONE', #296, #803, #626, .T. ) ;
#768 = EDGE_LOOP ( 'NONE', ( #221, #794, #158, #753 ) ) ;
#769 = PLANE ( 'NONE',  #7 ) ;
#770 = ORIENTED_EDGE ( 'NONE', *, *, #716, .T. ) ;
#771 = DIRECTION ( 'NONE',  ( -0.0000000000000000000, -0.0000000000000000000, -1.000000000000000000 ) ) ;
#772 = ORIENTED_EDGE ( 'NONE', *, *, #187, .T. ) ;
#773 = ORIENTED_EDGE ( 'NONE', *, *, #380, .T. ) ;
#774 = CARTESIAN_POINT ( 'NONE',  ( -2.999999999999981800, 4.999999999999999100, 2.500000000000000000 ) ) ;
#775 = EDGE_CURVE ( 'NONE', #486, #196, #1005, .T. ) ;
#776 = CYLINDRICAL_SURFACE ( 'NONE', #457, 1.500000000000000400 ) ;
#777 = FACE_OUTER_BOUND ( 'NONE', #122, .T. ) ;
#778 = CARTESIAN_POINT ( 'NONE',  ( -9.250000000000000000, 12.99999999999999800, 2.500000000000000000 ) ) ;
#779 = CARTESIAN_POINT ( 'NONE',  ( 1.750000000000000400, 35.50000000000000700, 2.500000000000000000 ) ) ;
#780 = VERTEX_POINT ( 'NONE', #801 ) ;
#781 = FACE_BOUND ( 'NONE', #238, .T. ) ;
#782 = AXIS2_PLACEMENT_3D ( 'NONE', #418, #337, #1082 ) ;
#783 = PLANE ( 'NONE',  #98 ) ;
#784 = LINE ( 'NONE', #415, #560 ) ;
#785 = ORIENTED_EDGE ( 'NONE', *, *, #492, .T. ) ;
#786 = DIRECTION ( 'NONE',  ( -0.0000000000000000000, -0.0000000000000000000, -1.000000000000000000 ) ) ;
#787 = ORIENTED_EDGE ( 'NONE', *, *, #301, .F. ) ;
#788 = EDGE_CURVE ( 'NONE', #357, #4, #581, .T. ) ;
#789 = DIRECTION ( 'NONE',  ( 0.0000000000000000000, 0.0000000000000000000, 1.000000000000000000 ) ) ;
#790 = AXIS2_PLACEMENT_3D ( 'NONE', #915, #829, #259 ) ;
#791 = CARTESIAN_POINT ( 'NONE',  ( 2.999999999999981800, 26.00000000000000400, 0.0000000000000000000 ) ) ;
#792 = ORIENTED_EDGE ( 'NONE', *, *, #202, .F. ) ;
#793 = LINE ( 'NONE', #1035, #197 ) ;
#794 = ORIENTED_EDGE ( 'NONE', *, *, #706, .F. ) ;
#795 = ORIENTED_EDGE ( 'NONE', *, *, #913, .F. ) ;
#796 = EDGE_LOOP ( 'NONE', ( #293, #616, #91, #260 ) ) ;
#797 = EDGE_LOOP ( 'NONE', ( #703, #174, #966, #759 ) ) ;
#798 = FACE_OUTER_BOUND ( 'NONE', #400, .T. ) ;
#799 = DIRECTION ( 'NONE',  ( 1.000000000000000000, 0.0000000000000000000, 0.0000000000000000000 ) ) ;
#800 = AXIS2_PLACEMENT_3D ( 'NONE', #894, #984, #88 ) ;
#801 = CARTESIAN_POINT ( 'NONE',  ( -12.00000000000000200, 35.50000000000000700, 2.500000000000000000 ) ) ;
#802 = AXIS2_PLACEMENT_3D ( 'NONE', #680, #684, #270 ) ;
#803 = VERTEX_POINT ( 'NONE', #309 ) ;
#804 = FACE_BOUND ( 'NONE', #1044, .T. ) ;
#805 = DIRECTION ( 'NONE',  ( -1.000000000000000000, 0.0000000000000000000, 0.0000000000000000000 ) ) ;
#806 = ORIENTED_EDGE ( 'NONE', *, *, #671, .T. ) ;
#807 = ORIENTED_EDGE ( 'NONE', *, *, #424, .T. ) ;
#808 = DIRECTION ( 'NONE',  ( -0.0000000000000000000, -0.0000000000000000000, -1.000000000000000000 ) ) ;
#809 = ADVANCED_FACE ( 'NONE', ( #366, #855, #37, #1066, #553, #89, #450 ), #1058, .T. ) ;
#810 = PERSON_AND_ORGANIZATION_ROLE ( 'classification_officer' ) ;
#811 = PLANE ( 'NONE',  #844 ) ;
#812 = PERSON_AND_ORGANIZATION_ROLE ( 'creator' ) ;
#813 = ADVANCED_FACE ( 'NONE', ( #216 ), #906, .F. ) ;
#814 = CARTESIAN_POINT ( 'NONE',  ( 2.499999999999999600, 39.49999999999999300, 0.0000000000000000000 ) ) ;
#815 = ORIENTED_EDGE ( 'NONE', *, *, #892, .T. ) ;
#816 = PRODUCT_DEFINITION_SHAPE ( 'NONE', 'NONE',  #308 ) ;
#817 = FACE_BOUND ( 'NONE', #678, .T. ) ;
#818 = FACE_OUTER_BOUND ( 'NONE', #254, .T. ) ;
#819 = VERTEX_POINT ( 'NONE', #423 ) ;
#820 = SECURITY_CLASSIFICATION_LEVEL ( 'unclassified' ) ;
#821 = EDGE_LOOP ( 'NONE', ( #888, #373 ) ) ;
#822 = EDGE_CURVE ( 'NONE', #413, #465, #936, .T. ) ;
#823 = EDGE_LOOP ( 'NONE', ( #170, #806, #1056, #198 ) ) ;
#824 = CARTESIAN_POINT ( 'NONE',  ( 4.000000000000000000, 39.49999999999999300, 2.500000000000000000 ) ) ;
#825 = AXIS2_PLACEMENT_3D ( 'NONE', #863, #376, #201 ) ;
#826 = AXIS2_PLACEMENT_3D ( 'NONE', #1055, #482, #805 ) ;
#827 = DIRECTION ( 'NONE',  ( -0.5449883505954141700, -0.8384436163006370200, -0.0000000000000000000 ) ) ;
#828 = FACE_OUTER_BOUND ( 'NONE', #1030, .T. ) ;
#829 = DIRECTION ( 'NONE',  ( -0.0000000000000000000, -0.0000000000000000000, -1.000000000000000000 ) ) ;
#830 = COORDINATED_UNIVERSAL_TIME_OFFSET ( 1, 0, .AHEAD. ) ;
#831 = CARTESIAN_POINT ( 'NONE',  ( 0.0000000000000000000, 35.50000000000000700, 0.0000000000000000000 ) ) ;
#832 = DIRECTION ( 'NONE',  ( -0.0000000000000000000, -0.0000000000000000000, -1.000000000000000000 ) ) ;
#833 = LINE ( 'NONE', #857, #962 ) ;
#834 = ORIENTED_EDGE ( 'NONE', *, *, #324, .T. ) ;
#835 = VERTEX_POINT ( 'NONE', #1087 ) ;
#836 = DIRECTION ( 'NONE',  ( 0.0000000000000000000, 0.0000000000000000000, 1.000000000000000000 ) ) ;
#837 = EDGE_CURVE ( 'NONE', #549, #970, #628, .T. ) ;
#838 = CARTESIAN_POINT ( 'NONE',  ( 12.50000000000000000, -1.530808498934191500E-015, 2.500000000000000000 ) ) ;
#839 = AXIS2_PLACEMENT_3D ( 'NONE', #1027, #522, #674 ) ;
#840 = CARTESIAN_POINT ( 'NONE',  ( 2.500000000000006700, 31.50000000000001400, 2.500000000000000000 ) ) ;
#841 = EDGE_CURVE ( 'NONE', #1015, #676, #843, .T. ) ;
#842 = DIRECTION ( 'NONE',  ( 1.000000000000000000, 0.0000000000000000000, 0.0000000000000000000 ) ) ;
#843 = LINE ( 'NONE', #1011, #75 ) ;
#844 = AXIS2_PLACEMENT_3D ( 'NONE', #96, #15, #352 ) ;
#845 = ORIENTED_EDGE ( 'NONE', *, *, #166, .F. ) ;
#846 = CARTESIAN_POINT ( 'NONE',  ( 4.000000000000000000, 39.49999999999999300, 2.500000000000000000 ) ) ;
#847 = ORIENTED_EDGE ( 'NONE', *, *, #422, .F. ) ;
#848 = FACE_OUTER_BOUND ( 'NONE', #768, .T. ) ;
#849 = CIRCLE ( 'NONE', #188, 1.500000000000000400 ) ;
#850 = VERTEX_POINT ( 'NONE', #329 ) ;
#851 = DIRECTION ( 'NONE',  ( -0.0000000000000000000, -0.0000000000000000000, -1.000000000000000000 ) ) ;
#852 = VERTEX_POINT ( 'NONE', #1 ) ;
#853 = CARTESIAN_POINT ( 'NONE',  ( -9.250000000000000000, 12.99999999999999800, 0.0000000000000000000 ) ) ;
#854 = CARTESIAN_POINT ( 'NONE',  ( 2.499999999999999600, 39.49999999999999300, 2.500000000000000000 ) ) ;
#855 = FACE_BOUND ( 'NONE', #741, .T. ) ;
#856 = LOCAL_TIME ( 17, 57, 56.00000000000000000, #248 ) ;
#857 = CARTESIAN_POINT ( 'NONE',  ( -12.50000000000000000, -1.530808498934191500E-015, 2.500000000000000000 ) ) ;
#858 = DIRECTION ( 'NONE',  ( 1.000000000000000000, 0.0000000000000000000, 0.0000000000000000000 ) ) ;
#859 = CIRCLE ( 'NONE', #954, 12.00000000000000200 ) ;
#860 = DIRECTION ( 'NONE',  ( 1.000000000000000000, 0.0000000000000000000, 0.0000000000000000000 ) ) ;
#861 = CYLINDRICAL_SURFACE ( 'NONE', #427, 12.00000000000000200 ) ;
#862 = CIRCLE ( 'NONE', #631, 1.500000000000000400 ) ;
#863 = CARTESIAN_POINT ( 'NONE',  ( 12.50000000000000000, -1.530808498934191500E-015, 2.500000000000000000 ) ) ;
#864 = CC_DESIGN_SECURITY_CLASSIFICATION ( #437, ( #1002 ) ) ;
#865 = ORIENTED_EDGE ( 'NONE', *, *, #613, .F. ) ;
#866 = FACE_OUTER_BOUND ( 'NONE', #599, .T. ) ;
#867 = DIRECTION ( 'NONE',  ( 0.0000000000000000000, 0.0000000000000000000, -1.000000000000000000 ) ) ;
#868 = DIRECTION ( 'NONE',  ( 1.000000000000000000, -0.0000000000000000000, -0.0000000000000000000 ) ) ;
#869 = EDGE_CURVE ( 'NONE', #717, #561, #1068, .T. ) ;
#870 = CARTESIAN_POINT ( 'NONE',  ( -4.000000000000007100, 31.50000000000001400, 0.0000000000000000000 ) ) ;
#871 = CIRCLE ( 'NONE', #510, 12.00000000000000200 ) ;
#872 = ORIENTED_EDGE ( 'NONE', *, *, #841, .T. ) ;
#873 = VERTEX_POINT ( 'NONE', #433 ) ;
#874 = VECTOR ( 'NONE', #750, 1000.000000000000000 ) ;
#875 = ORIENTED_EDGE ( 'NONE', *, *, #460, .F. ) ;
#876 = ORIENTED_EDGE ( 'NONE', *, *, #775, .T. ) ;
#877 = DIRECTION ( 'NONE',  ( 0.0000000000000000000, 0.0000000000000000000, 1.000000000000000000 ) ) ;
#878 = ORIENTED_EDGE ( 'NONE', *, *, #869, .T. ) ;
#879 = EDGE_CURVE ( 'NONE', #819, #296, #730, .T. ) ;
#880 = CARTESIAN_POINT ( 'NONE',  ( 2.999999999999981800, 4.999999999999999100, 2.500000000000000000 ) ) ;
#881 = LINE ( 'NONE', #555, #931 ) ;
#882 = CARTESIAN_POINT ( 'NONE',  ( 5.500000000000000000, 7.500000000000016900, 2.500000000000000000 ) ) ;
#883 = AXIS2_PLACEMENT_3D ( 'NONE', #148, #731, #901 ) ;
#884 = ORIENTED_EDGE ( 'NONE', *, *, #765, .T. ) ;
#885 = PLANE ( 'NONE',  #180 ) ;
#886 = FACE_OUTER_BOUND ( 'NONE', #797, .T. ) ;
#887 = ORIENTED_EDGE ( 'NONE', *, *, #492, .F. ) ;
#888 = ORIENTED_EDGE ( 'NONE', *, *, #364, .F. ) ;
#889 = AXIS2_PLACEMENT_3D ( 'NONE', #918, #179, #760 ) ;
#890 = CALENDAR_DATE ( 2018, 5, 11 ) ;
#891 = CARTESIAN_POINT ( 'NONE',  ( 5.500000000000000900, 39.49999999999999300, 2.500000000000000000 ) ) ;
#892 = EDGE_CURVE ( 'NONE', #453, #944, #69, .T. ) ;
#893 = ORIENTED_EDGE ( 'NONE', *, *, #728, .T. ) ;
#894 = CARTESIAN_POINT ( 'NONE',  ( 12.49999999999999800, 7.999999999999998200, 2.500000000000000000 ) ) ;
#895 = VECTOR ( 'NONE', #322, 1000.000000000000000 ) ;
#896 = CARTESIAN_POINT ( 'NONE',  ( 4.000000000000007100, 31.50000000000001400, 0.0000000000000000000 ) ) ;
#897 = ORIENTED_EDGE ( 'NONE', *, *, #443, .F. ) ;
#898 = EDGE_LOOP ( 'NONE', ( #807, #639, #271, #661 ) ) ;
#899 = VERTEX_POINT ( 'NONE', #77 ) ;
#900 = ADVANCED_FACE ( 'NONE', ( #222 ), #989, .F. ) ;
#901 = DIRECTION ( 'NONE',  ( 1.000000000000000000, 0.0000000000000000000, 0.0000000000000000000 ) ) ;
#902 = CARTESIAN_POINT ( 'NONE',  ( 2.999999999999981800, 4.999999999999999100, 2.500000000000000000 ) ) ;
#903 = EDGE_CURVE ( 'NONE', #465, #413, #218, .T. ) ;
#904 = LOCAL_TIME ( 17, 57, 56.00000000000000000, #583 ) ;
#905 = DIRECTION ( 'NONE',  ( -1.000000000000000000, 0.0000000000000000000, 0.0000000000000000000 ) ) ;
#906 = CYLINDRICAL_SURFACE ( 'NONE', #289, 1.500000000000000400 ) ;
#907 = CARTESIAN_POINT ( 'NONE',  ( 12.49999999999999800, 7.999999999999998200, 2.500000000000000000 ) ) ;
#908 = CARTESIAN_POINT ( 'NONE',  ( 0.0000000000000000000, 35.50000000000000700, 2.500000000000000000 ) ) ;
#909 = VECTOR ( 'NONE', #1050, 1000.000000000000000 ) ;
#910 = CARTESIAN_POINT ( 'NONE',  ( 9.249999999999994700, 27.85555757428966600, 0.0000000000000000000 ) ) ;
#911 = LINE ( 'NONE', #426, #372 ) ;
#912 = ORIENTED_EDGE ( 'NONE', *, *, #837, .F. ) ;
#913 = EDGE_CURVE ( 'NONE', #359, #280, #290, .T. ) ;
#914 = ORIENTED_EDGE ( 'NONE', *, *, #417, .F. ) ;
#915 = CARTESIAN_POINT ( 'NONE',  ( 4.000000000000007100, 31.50000000000001400, 2.500000000000000000 ) ) ;
#916 = CARTESIAN_POINT ( 'NONE',  ( -4.000000000000000000, 39.49999999999999300, 0.0000000000000000000 ) ) ;
#917 = CARTESIAN_POINT ( 'NONE',  ( -2.999999999999999600, 7.500000000000000000, 0.0000000000000000000 ) ) ;
#918 = CARTESIAN_POINT ( 'NONE',  ( 4.000000000000000000, 39.49999999999999300, 0.0000000000000000000 ) ) ;
#919 = CALENDAR_DATE ( 2018, 5, 11 ) ;
#920 = DIRECTION ( 'NONE',  ( 1.000000000000000000, 0.0000000000000000000, 0.0000000000000000000 ) ) ;
#921 = CARTESIAN_POINT ( 'NONE',  ( 9.250000000000000000, 12.99999999999999800, 2.500000000000000000 ) ) ;
#922 = CARTESIAN_POINT ( 'NONE',  ( -2.999999999999981800, 4.999999999999997300, 2.500000000000000000 ) ) ;
#923 = EDGE_LOOP ( 'NONE', ( #130, #267 ) ) ;
#924 = CARTESIAN_POINT ( 'NONE',  ( 0.0000000000000000000, 35.50000000000000700, 2.500000000000000000 ) ) ;
#925 = VECTOR ( 'NONE', #786, 1000.000000000000000 ) ;
#926 = ORIENTED_EDGE ( 'NONE', *, *, #422, .T. ) ;
#927 = ORIENTED_EDGE ( 'NONE', *, *, #10, .T. ) ;
#928 = EDGE_LOOP ( 'NONE', ( #591, #725, #318, #81 ) ) ;
#929 = CARTESIAN_POINT ( 'NONE',  ( -5.500000000000000900, 39.49999999999999300, 0.0000000000000000000 ) ) ;
#930 = CARTESIAN_POINT ( 'NONE',  ( 4.000000000000000000, 39.49999999999999300, 2.500000000000000000 ) ) ;
#931 = VECTOR ( 'NONE', #808, 1000.000000000000000 ) ;
#932 = CARTESIAN_POINT ( 'NONE',  ( -5.500000000000000000, 23.49999999999998600, 2.500000000000000000 ) ) ;
#933 = EDGE_CURVE ( 'NONE', #642, #52, #369, .T. ) ;
#934 = CARTESIAN_POINT ( 'NONE',  ( -5.500000000000000900, 39.49999999999999300, 2.500000000000000000 ) ) ;
#935 = EDGE_CURVE ( 'NONE', #41, #153, #762, .T. ) ;
#936 = CIRCLE ( 'NONE', #403, 1.750000000000000400 ) ;
#937 = EDGE_CURVE ( 'NONE', #1039, #780, #859, .T. ) ;
#938 = DIRECTION ( 'NONE',  ( -0.0000000000000000000, -0.0000000000000000000, -1.000000000000000000 ) ) ;
#939 = CARTESIAN_POINT ( 'NONE',  ( -1.750000000000000400, 35.50000000000000700, 0.0000000000000000000 ) ) ;
#940 = ORIENTED_EDGE ( 'NONE', *, *, #92, .T. ) ;
#941 = AXIS2_PLACEMENT_3D ( 'NONE', #291, #692, #191 ) ;
#942 = EDGE_LOOP ( 'NONE', ( #382, #834 ) ) ;
#943 = ORIENTED_EDGE ( 'NONE', *, *, #272, .T. ) ;
#944 = VERTEX_POINT ( 'NONE', #262 ) ;
#945 = ORIENTED_EDGE ( 'NONE', *, *, #370, .F. ) ;
#946 = ORIENTED_EDGE ( 'NONE', *, *, #324, .F. ) ;
#947 = DIRECTION ( 'NONE',  ( -2.168404344971008900E-016, 1.000000000000000000, 0.0000000000000000000 ) ) ;
#948 = CARTESIAN_POINT ( 'NONE',  ( -4.000000000000000000, 39.49999999999999300, 0.0000000000000000000 ) ) ;
#949 = EDGE_LOOP ( 'NONE', ( #547, #679, #53, #946 ) ) ;
#950 = VECTOR ( 'NONE', #20, 1000.000000000000000 ) ;
#951 = CIRCLE ( 'NONE', #941, 1.500000000000000400 ) ;
#952 = DIRECTION ( 'NONE',  ( 0.0000000000000000000, 1.000000000000000000, -0.0000000000000000000 ) ) ;
#953 = CIRCLE ( 'NONE', #3, 1.500000000000000400 ) ;
#954 = AXIS2_PLACEMENT_3D ( 'NONE', #924, #25, #13 ) ;
#955 = ORIENTED_EDGE ( 'NONE', *, *, #92, .F. ) ;
#956 = EDGE_CURVE ( 'NONE', #306, #852, #967, .T. ) ;
#957 = VERTEX_POINT ( 'NONE', #932 ) ;
#958 = DIRECTION ( 'NONE',  ( 1.000000000000000000, 0.0000000000000000000, 0.0000000000000000000 ) ) ;
#959 = FACE_OUTER_BOUND ( 'NONE', #375, .T. ) ;
#960 = EDGE_CURVE ( 'NONE', #577, #576, #109, .T. ) ;
#961 = FACE_OUTER_BOUND ( 'NONE', #1049, .T. ) ;
#962 = VECTOR ( 'NONE', #592, 1000.000000000000000 ) ;
#963 = CARTESIAN_POINT ( 'NONE',  ( 12.50000000000000000, -1.530808498934191500E-015, 2.500000000000000000 ) ) ;
#964 = CARTESIAN_POINT ( 'NONE',  ( 5.500000000000000000, 7.500000000000016900, 2.500000000000000000 ) ) ;
#965 = EDGE_CURVE ( 'NONE', #296, #153, #314, .T. ) ;
#966 = ORIENTED_EDGE ( 'NONE', *, *, #960, .T. ) ;
#967 = LINE ( 'NONE', #8, #610 ) ;
#968 = EDGE_LOOP ( 'NONE', ( #17, #878, #575, #200 ) ) ;
#969 = DIRECTION ( 'NONE',  ( -0.0000000000000000000, -1.000000000000000000, -0.0000000000000000000 ) ) ;
#970 = VERTEX_POINT ( 'NONE', #670 ) ;
#971 = VERTEX_POINT ( 'NONE', #929 ) ;
#972 = CARTESIAN_POINT ( 'NONE',  ( -1.750000000000000400, 35.50000000000000700, 2.500000000000000000 ) ) ;
#973 = EDGE_CURVE ( 'NONE', #576, #852, #871, .T. ) ;
#974 = COORDINATED_UNIVERSAL_TIME_OFFSET ( 1, 0, .AHEAD. ) ;
#975 = ADVANCED_FACE ( 'NONE', ( #866 ), #769, .T. ) ;
#976 = CARTESIAN_POINT ( 'NONE',  ( -2.999999999999981800, 26.00000000000000400, 0.0000000000000000000 ) ) ;
#977 = ORIENTED_EDGE ( 'NONE', *, *, #935, .F. ) ;
#978 = CARTESIAN_POINT ( 'NONE',  ( 5.500000000000000000, 7.500000000000016900, 0.0000000000000000000 ) ) ;
#979 = CYLINDRICAL_SURFACE ( 'NONE', #615, 1.500000000000000400 ) ;
#980 = VECTOR ( 'NONE', #832, 1000.000000000000000 ) ;
#981 = DIRECTION ( 'NONE',  ( 0.0000000000000000000, 0.0000000000000000000, 1.000000000000000000 ) ) ;
#982 = EDGE_LOOP ( 'NONE', ( #795, #157, #773, #757 ) ) ;
#983 = DIRECTION ( 'NONE',  ( -0.0000000000000000000, -0.0000000000000000000, -1.000000000000000000 ) ) ;
#984 = DIRECTION ( 'NONE',  ( -0.8384436163006371300, -0.5449883505954142800, 0.0000000000000000000 ) ) ;
#985 = VECTOR ( 'NONE', #744, 1000.000000000000000 ) ;
#986 = ADVANCED_FACE ( 'NONE', ( #255 ), #746, .T. ) ;
#987 = SHAPE_DEFINITION_REPRESENTATION ( #816, #279 ) ;
#988 = APPROVAL_STATUS ( 'not_yet_approved' ) ;
#989 = PLANE ( 'NONE',  #428 ) ;
#990 = EDGE_CURVE ( 'NONE', #835, #185, #833, .T. ) ;
#991 = DIRECTION ( 'NONE',  ( -0.0000000000000000000, -0.0000000000000000000, -1.000000000000000000 ) ) ;
#992 = ADVANCED_FACE ( 'NONE', ( #959 ), #662, .F. ) ;
#993 = ORIENTED_EDGE ( 'NONE', *, *, #1021, .T. ) ;
#994 = ORIENTED_EDGE ( 'NONE', *, *, #562, .F. ) ;
#995 = EDGE_CURVE ( 'NONE', #852, #305, #299, .T. ) ;
#996 = ORIENTED_EDGE ( 'NONE', *, *, #405, .T. ) ;
#997 = ORIENTED_EDGE ( 'NONE', *, *, #1042, .T. ) ;
#998 = CARTESIAN_POINT ( 'NONE',  ( 2.500000000000006700, 31.50000000000001400, 0.0000000000000000000 ) ) ;
#999 = EDGE_LOOP ( 'NONE', ( #787, #141, #550, #219 ) ) ;
#1000 = DIRECTION ( 'NONE',  ( 0.0000000000000000000, 0.0000000000000000000, -1.000000000000000000 ) ) ;
#1001 = ADVANCED_FACE ( 'NONE', ( #1052 ), #230, .F. ) ;
#1002 = PRODUCT_DEFINITION_FORMATION_WITH_SPECIFIED_SOURCE ( 'ANY', '', #531, .NOT_KNOWN. ) ;
#1003 = CARTESIAN_POINT ( 'NONE',  ( -2.999999999999999600, 7.500000000000000000, 2.500000000000000000 ) ) ;
#1004 = DIRECTION ( 'NONE',  ( 0.0000000000000000000, 0.0000000000000000000, 1.000000000000000000 ) ) ;
#1005 = CIRCLE ( 'NONE', #722, 1.500000000000000400 ) ;
#1006 = DIRECTION ( 'NONE',  ( -0.0000000000000000000, -0.0000000000000000000, -1.000000000000000000 ) ) ;
#1007 = EDGE_CURVE ( 'NONE', #534, #350, #241, .T. ) ;
#1008 = DIRECTION ( 'NONE',  ( 1.000000000000000000, 0.0000000000000000000, 0.0000000000000000000 ) ) ;
#1009 = PERSON_AND_ORGANIZATION ( #192, #49 ) ;
#1010 = AXIS2_PLACEMENT_3D ( 'NONE', #107, #287, #858 ) ;
#1011 = CARTESIAN_POINT ( 'NONE',  ( 12.49999999999999800, 7.999999999999998200, 0.0000000000000000000 ) ) ;
#1012 = EDGE_LOOP ( 'NONE', ( #269, #398, #943, #686, #61, #927, #466, #815, #1032, #604 ) ) ;
#1013 = LINE ( 'NONE', #167, #874 ) ;
#1014 = ORIENTED_EDGE ( 'NONE', *, *, #1042, .F. ) ;
#1015 = VERTEX_POINT ( 'NONE', #354 ) ;
#1016 = PLANE ( 'NONE',  #193 ) ;
#1017 = VERTEX_POINT ( 'NONE', #448 ) ;
#1018 = DIRECTION ( 'NONE',  ( -1.000000000000000000, 0.0000000000000000000, 0.0000000000000000000 ) ) ;
#1019 = AXIS2_PLACEMENT_3D ( 'NONE', #917, #507, #73 ) ;
#1020 = DIRECTION ( 'NONE',  ( 1.000000000000000000, 0.0000000000000000000, 0.0000000000000000000 ) ) ;
#1021 = EDGE_CURVE ( 'NONE', #125, #1069, #509, .T. ) ;
#1022 = DIRECTION ( 'NONE',  ( 0.0000000000000000000, 0.0000000000000000000, 1.000000000000000000 ) ) ;
#1023 = CYLINDRICAL_SURFACE ( 'NONE', #546, 12.00000000000000200 ) ;
#1024 = EDGE_CURVE ( 'NONE', #407, #357, #116, .T. ) ;
#1025 = CARTESIAN_POINT ( 'NONE',  ( 12.50000000000000000, -1.530808498934191500E-015, 2.500000000000000000 ) ) ;
#1026 = ORIENTED_EDGE ( 'NONE', *, *, #101, .F. ) ;
#1027 = CARTESIAN_POINT ( 'NONE',  ( 0.0000000000000000000, 35.50000000000000700, 0.0000000000000000000 ) ) ;
#1028 = FACE_OUTER_BOUND ( 'NONE', #999, .T. ) ;
#1029 = LINE ( 'NONE', #742, #121 ) ;
#1030 = EDGE_LOOP ( 'NONE', ( #526, #993, #884, #1075 ) ) ;
#1031 = ORIENTED_EDGE ( 'NONE', *, *, #973, .F. ) ;
#1032 = ORIENTED_EDGE ( 'NONE', *, *, #370, .T. ) ;
#1033 = DIRECTION ( 'NONE',  ( 0.8384436163006371300, -0.5449883505954142800, 0.0000000000000000000 ) ) ;
#1034 = LINE ( 'NONE', #60, #393 ) ;
#1035 = CARTESIAN_POINT ( 'NONE',  ( 12.50000000000000000, -1.530808498934191500E-015, 0.0000000000000000000 ) ) ;
#1036 = AXIS2_PLACEMENT_3D ( 'NONE', #664, #504, #169 ) ;
#1037 = DIRECTION ( 'NONE',  ( -0.0000000000000000000, -0.0000000000000000000, -1.000000000000000000 ) ) ;
#1038 = CIRCLE ( 'NONE', #1010, 12.00000000000000200 ) ;
#1039 = VERTEX_POINT ( 'NONE', #758 ) ;
#1040 = EDGE_LOOP ( 'NONE', ( #875, #897, #704, #997 ) ) ;
#1041 = ORIENTED_EDGE ( 'NONE', *, *, #995, .T. ) ;
#1042 = EDGE_CURVE ( 'NONE', #283, #577, #327, .T. ) ;
#1043 = CARTESIAN_POINT ( 'NONE',  ( 5.500000000000000000, 23.49999999999998600, 0.0000000000000000000 ) ) ;
#1044 = EDGE_LOOP ( 'NONE', ( #108, #996 ) ) ;
#1045 = CYLINDRICAL_SURFACE ( 'NONE', #1086, 2.500000000000000000 ) ;
#1046 = CARTESIAN_POINT ( 'NONE',  ( 2.999999999999981800, 26.00000000000000400, 2.500000000000000000 ) ) ;
#1047 = VECTOR ( 'NONE', #1085, 1000.000000000000000 ) ;
#1048 = EDGE_LOOP ( 'NONE', ( #476, #659, #282, #452, #712, #624, #300, #619 ) ) ;
#1049 = EDGE_LOOP ( 'NONE', ( #847, #770, #64, #207 ) ) ;
#1050 = DIRECTION ( 'NONE',  ( -0.0000000000000000000, -0.0000000000000000000, -1.000000000000000000 ) ) ;
#1051 = AXIS2_PLACEMENT_3D ( 'NONE', #479, #721, #85 ) ;
#1052 = FACE_OUTER_BOUND ( 'NONE', #513, .T. ) ;
#1053 = AXIS2_PLACEMENT_3D ( 'NONE', #217, #378, #799 ) ;
#1054 = AXIS2_PLACEMENT_3D ( 'NONE', #156, #429, #1008 ) ;
#1055 = CARTESIAN_POINT ( 'NONE',  ( 0.0000000000000000000, 35.50000000000000700, 2.500000000000000000 ) ) ;
#1056 = ORIENTED_EDGE ( 'NONE', *, *, #528, .F. ) ;
#1057 = VECTOR ( 'NONE', #683, 1000.000000000000000 ) ;
#1058 = PLANE ( 'NONE',  #379 ) ;
#1059 = ORIENTED_EDGE ( 'NONE', *, *, #301, .T. ) ;
#1060 = VERTEX_POINT ( 'NONE', #854 ) ;
#1061 = CARTESIAN_POINT ( 'NONE',  ( 12.50000000000000000, -1.530808498934191500E-015, 2.500000000000000000 ) ) ;
#1062 = DIRECTION ( 'NONE',  ( 0.0000000000000000000, 0.0000000000000000000, 1.000000000000000000 ) ) ;
#1063 = DIRECTION ( 'NONE',  ( 1.000000000000000000, -0.0000000000000000000, -0.0000000000000000000 ) ) ;
#1064 = CARTESIAN_POINT ( 'NONE',  ( 4.000000000000007100, 31.50000000000001400, 2.500000000000000000 ) ) ;
#1065 = CC_DESIGN_APPROVAL ( #695, ( #308 ) ) ;
#1066 = FACE_OUTER_BOUND ( 'NONE', #1012, .T. ) ;
#1067 = ADVANCED_FACE ( 'NONE', ( #468 ), #1016, .F. ) ;
#1068 = LINE ( 'NONE', #345, #985 ) ;
#1069 = VERTEX_POINT ( 'NONE', #840 ) ;
#1070 = DIRECTION ( 'NONE',  ( 0.0000000000000000000, 0.0000000000000000000, 1.000000000000000000 ) ) ;
#1071 = ORIENTED_EDGE ( 'NONE', *, *, #990, .T. ) ;
#1072 = FACE_OUTER_BOUND ( 'NONE', #44, .T. ) ;
#1073 = DIRECTION ( 'NONE',  ( -0.5449883505954141700, 0.8384436163006370200, 0.0000000000000000000 ) ) ;
#1074 = ORIENTED_EDGE ( 'NONE', *, *, #933, .T. ) ;
#1075 = ORIENTED_EDGE ( 'NONE', *, *, #775, .F. ) ;
#1076 = APPROVAL_ROLE ( '' ) ;
#1077 = ORIENTED_EDGE ( 'NONE', *, *, #353, .F. ) ;
#1078 = DIRECTION ( 'NONE',  ( -0.0000000000000000000, -0.0000000000000000000, -1.000000000000000000 ) ) ;
#1079 = CARTESIAN_POINT ( 'NONE',  ( -12.50000000000000000, -1.530808498934191500E-015, 0.0000000000000000000 ) ) ;
#1080 = DIRECTION ( 'NONE',  ( 0.0000000000000000000, 0.0000000000000000000, 1.000000000000000000 ) ) ;
#1081 = LINE ( 'NONE', #902, #47 ) ;
#1082 = DIRECTION ( 'NONE',  ( 1.000000000000000000, 0.0000000000000000000, -0.0000000000000000000 ) ) ;
#1083 = ADVANCED_FACE ( 'NONE', ( #777 ), #783, .F. ) ;
#1084 = APPROVAL_DATE_TIME ( #105, #632 ) ;
#1085 = DIRECTION ( 'NONE',  ( 1.000000000000000000, -0.0000000000000000000, -0.0000000000000000000 ) ) ;
#1086 = AXIS2_PLACEMENT_3D ( 'NONE', #113, #1037, #278 ) ;
#1087 = CARTESIAN_POINT ( 'NONE',  ( -12.50000000000000000, -1.530808498934191500E-015, 2.500000000000000000 ) ) ;
ENDSEC;
END-ISO-10303-21;
