ISO-10303-21;
HEADER;
FILE_DESCRIPTION (( 'STEP AP203' ),
    '1' );
FILE_NAME ('roll_motor_rotor_Domyúlna_sldprt.STEP',
    '2018-11-05T16:57:53',
    ( '' ),
    ( '' ),
    'SwSTEP 2.0',
    'SolidWorks 2016',
    '' );
FILE_SCHEMA (( 'CONFIG_CONTROL_DESIGN' ));
ENDSEC;

DATA;
#1 = ORIENTED_EDGE ( 'NONE', *, *, #27, .F. ) ;
#2 = APPROVAL_PERSON_ORGANIZATION ( #40, #16, #77 ) ;
#3 = APPROVAL ( #141, 'UNSPECIFIED' ) ;
#4 = CALENDAR_DATE ( 2018, 5, 11 ) ;
#5 = DIRECTION ( 'NONE',  ( -1.000000000000000000, 0.0000000000000000000, 0.0000000000000000000 ) ) ;
#6 = DATE_TIME_ROLE ( 'classification_date' ) ;
#7 = CALENDAR_DATE ( 2018, 5, 11 ) ;
#8 = UNCERTAINTY_MEASURE_WITH_UNIT (LENGTH_MEASURE( 1.000000000000000100E-005 ), #50, 'distance_accuracy_value', 'NONE');
#9 = ORIENTED_EDGE ( 'NONE', *, *, #105, .F. ) ;
#10 = APPLICATION_PROTOCOL_DEFINITION ( 'international standard', 'config_control_design', 1994, #56 ) ;
#11 = COORDINATED_UNIVERSAL_TIME_OFFSET ( 1, 0, .AHEAD. ) ;
#12 = CIRCLE ( 'NONE', #116, 14.00000000000000000 ) ;
#13 = CC_DESIGN_APPROVAL ( #3, ( #169 ) ) ;
#14 = APPLICATION_PROTOCOL_DEFINITION ( 'international standard', 'config_control_design', 1994, #157 ) ;
#15 = ORIENTED_EDGE ( 'NONE', *, *, #121, .T. ) ;
#16 = APPROVAL ( #99, 'UNSPECIFIED' ) ;
#17 = CALENDAR_DATE ( 2018, 5, 11 ) ;
#18 = ORIENTED_EDGE ( 'NONE', *, *, #27, .T. ) ;
#19 = CARTESIAN_POINT ( 'NONE',  ( 0.0000000000000000000, 0.0000000000000000000, 10.50000000000000000 ) ) ;
#20 = PRODUCT_DEFINITION_SHAPE ( 'NONE', 'NONE',  #169 ) ;
#21 = CARTESIAN_POINT ( 'NONE',  ( 0.0000000000000000000, 0.0000000000000000000, 10.50000000000000000 ) ) ;
#22 = CARTESIAN_POINT ( 'NONE',  ( 0.0000000000000000000, 0.0000000000000000000, 10.50000000000000000 ) ) ;
#23 = DIRECTION ( 'NONE',  ( 1.000000000000000000, 0.0000000000000000000, -0.0000000000000000000 ) ) ;
#24 = CC_DESIGN_PERSON_AND_ORGANIZATION_ASSIGNMENT ( #104, #75, ( #169 ) ) ;
#25 = LOCAL_TIME ( 17, 57, 53.00000000000000000, #114 ) ;
#26 = VERTEX_POINT ( 'NONE', #126 ) ;
#27 = EDGE_CURVE ( 'NONE', #117, #26, #12, .T. ) ;
#28 = CIRCLE ( 'NONE', #134, 14.00000000000000000 ) ;
#29 = EDGE_CURVE ( 'NONE', #26, #47, #31, .T. ) ;
#30 = ADVANCED_FACE ( 'NONE', ( #66 ), #107, .T. ) ;
#31 = LINE ( 'NONE', #67, #122 ) ;
#32 = CARTESIAN_POINT ( 'NONE',  ( -14.00000000000000000, 0.0000000000000000000, 10.50000000000000000 ) ) ;
#33 = LOCAL_TIME ( 17, 57, 53.00000000000000000, #146 ) ;
#34 = PERSON_AND_ORGANIZATION_ROLE ( 'design_owner' ) ;
#35 = PERSON_AND_ORGANIZATION_ROLE ( 'design_supplier' ) ;
#36 = APPROVAL_DATE_TIME ( #73, #3 ) ;
#37 = PERSON_AND_ORGANIZATION ( #89, #88 ) ;
#38 = CC_DESIGN_SECURITY_CLASSIFICATION ( #85, ( #61 ) ) ;
#39 = VECTOR ( 'NONE', #96, 1000.000000000000000 ) ;
#40 = PERSON_AND_ORGANIZATION ( #89, #88 ) ;
#41 = DIRECTION ( 'NONE',  ( 0.0000000000000000000, 0.0000000000000000000, 1.000000000000000000 ) ) ;
#42 = CARTESIAN_POINT ( 'NONE',  ( 0.0000000000000000000, 0.0000000000000000000, 0.0000000000000000000 ) ) ;
#43 = CC_DESIGN_DATE_AND_TIME_ASSIGNMENT ( #94, #170, ( #169 ) ) ;
#44 =( NAMED_UNIT ( * ) PLANE_ANGLE_UNIT ( ) SI_UNIT ( $, .RADIAN. ) );
#45 = DIRECTION ( 'NONE',  ( 0.0000000000000000000, 0.0000000000000000000, 1.000000000000000000 ) ) ;
#46 = COORDINATED_UNIVERSAL_TIME_OFFSET ( 1, 0, .AHEAD. ) ;
#47 = VERTEX_POINT ( 'NONE', #163 ) ;
#48 = CC_DESIGN_PERSON_AND_ORGANIZATION_ASSIGNMENT ( #52, #34, ( #54 ) ) ;
#49 = MANIFOLD_SOLID_BREP ( 'Dodanie-wyciπgniÍcie1', #167 ) ;
#50 =( LENGTH_UNIT ( ) NAMED_UNIT ( * ) SI_UNIT ( .MILLI., .METRE. ) );
#51 = DIRECTION ( 'NONE',  ( 1.000000000000000000, 0.0000000000000000000, 0.0000000000000000000 ) ) ;
#52 = PERSON_AND_ORGANIZATION ( #89, #88 ) ;
#53 = CARTESIAN_POINT ( 'NONE',  ( 0.0000000000000000000, 0.0000000000000000000, 0.0000000000000000000 ) ) ;
#54 = PRODUCT ( 'roll_motor_rotor_Domyúlna_sldprt', 'roll_motor_rotor_Domyúlna_sldprt', '', ( #102 ) ) ;
#55 = CARTESIAN_POINT ( 'NONE',  ( 0.0000000000000000000, 0.0000000000000000000, 0.0000000000000000000 ) ) ;
#56 = APPLICATION_CONTEXT ( 'configuration controlled 3d designs of mechanical parts and assemblies' ) ;
#57 = DESIGN_CONTEXT ( 'detailed design', #56, 'design' ) ;
#58 = APPROVAL_PERSON_ORGANIZATION ( #37, #76, #143 ) ;
#59 = CARTESIAN_POINT ( 'NONE',  ( -14.00000000000000000, 0.0000000000000000000, 0.0000000000000000000 ) ) ;
#60 = CC_DESIGN_PERSON_AND_ORGANIZATION_ASSIGNMENT ( #144, #145, ( #61 ) ) ;
#61 = PRODUCT_DEFINITION_FORMATION_WITH_SPECIFIED_SOURCE ( 'ANY', '', #54, .NOT_KNOWN. ) ;
#62 = PERSON_AND_ORGANIZATION_ROLE ( 'classification_officer' ) ;
#63 = LOCAL_TIME ( 17, 57, 53.00000000000000000, #46 ) ;
#64 = EDGE_LOOP ( 'NONE', ( #18, #70 ) ) ;
#65 = ADVANCED_FACE ( 'NONE', ( #129 ), #95, .T. ) ;
#66 = FACE_OUTER_BOUND ( 'NONE', #64, .T. ) ;
#67 = CARTESIAN_POINT ( 'NONE',  ( 14.00000000000000000, 1.714505518806294200E-015, 10.50000000000000000 ) ) ;
#68 = CALENDAR_DATE ( 2018, 5, 11 ) ;
#69 = DIRECTION ( 'NONE',  ( -0.0000000000000000000, -0.0000000000000000000, -1.000000000000000000 ) ) ;
#70 = ORIENTED_EDGE ( 'NONE', *, *, #100, .T. ) ;
#71 = DIRECTION ( 'NONE',  ( 1.000000000000000000, 0.0000000000000000000, 0.0000000000000000000 ) ) ;
#72 = CC_DESIGN_APPROVAL ( #16, ( #85 ) ) ;
#73 = DATE_AND_TIME ( #7, #63 ) ;
#74 = CIRCLE ( 'NONE', #110, 14.00000000000000000 ) ;
#75 = PERSON_AND_ORGANIZATION_ROLE ( 'creator' ) ;
#76 = APPROVAL ( #127, 'UNSPECIFIED' ) ;
#77 = APPROVAL_ROLE ( '' ) ;
#78 = LOCAL_TIME ( 17, 57, 53.00000000000000000, #97 ) ;
#79 = LINE ( 'NONE', #125, #39 ) ;
#80 = EDGE_LOOP ( 'NONE', ( #91, #1, #113, #15 ) ) ;
#81 = PERSON_AND_ORGANIZATION ( #89, #88 ) ;
#82 = ADVANCED_FACE ( 'NONE', ( #103 ), #120, .T. ) ;
#83 = ORIENTED_EDGE ( 'NONE', *, *, #100, .F. ) ;
#84 = ADVANCED_FACE ( 'NONE', ( #165 ), #153, .F. ) ;
#85 = SECURITY_CLASSIFICATION ( '', '', #90 ) ;
#86 = CC_DESIGN_APPROVAL ( #76, ( #61 ) ) ;
#87 = DIRECTION ( 'NONE',  ( -1.000000000000000000, 0.0000000000000000000, 0.0000000000000000000 ) ) ;
#88 = ORGANIZATION ( 'UNSPECIFIED', 'UNSPECIFIED', '' ) ;
#89 = PERSON ( 'UNSPECIFIED', 'UNSPECIFIED', 'UNSPECIFIED', ('UNSPECIFIED'), ('UNSPECIFIED'), ('UNSPECIFIED') ) ;
#90 = SECURITY_CLASSIFICATION_LEVEL ( 'unclassified' ) ;
#91 = ORIENTED_EDGE ( 'NONE', *, *, #29, .F. ) ;
#92 = EDGE_LOOP ( 'NONE', ( #83, #162, #132, #115 ) ) ;
#93 = ADVANCED_BREP_SHAPE_REPRESENTATION ( 'roll_motor_rotor_Domyùlna_sldprt', ( #49, #175 ), #158 ) ;
#94 = DATE_AND_TIME ( #17, #171 ) ;
#95 = CYLINDRICAL_SURFACE ( 'NONE', #150, 14.00000000000000000 ) ;
#96 = DIRECTION ( 'NONE',  ( -0.0000000000000000000, -0.0000000000000000000, -1.000000000000000000 ) ) ;
#97 = COORDINATED_UNIVERSAL_TIME_OFFSET ( 1, 0, .AHEAD. ) ;
#98 = ORIENTED_EDGE ( 'NONE', *, *, #121, .F. ) ;
#99 = APPROVAL_STATUS ( 'not_yet_approved' ) ;
#100 = EDGE_CURVE ( 'NONE', #26, #117, #151, .T. ) ;
#101 =( NAMED_UNIT ( * ) SI_UNIT ( $, .STERADIAN. ) SOLID_ANGLE_UNIT ( ) );
#102 = MECHANICAL_CONTEXT ( 'NONE', #157, 'mechanical' ) ;
#103 = FACE_OUTER_BOUND ( 'NONE', #92, .T. ) ;
#104 = PERSON_AND_ORGANIZATION ( #89, #88 ) ;
#105 = EDGE_CURVE ( 'NONE', #47, #133, #74, .T. ) ;
#106 = DIRECTION ( 'NONE',  ( 1.000000000000000000, 0.0000000000000000000, 0.0000000000000000000 ) ) ;
#107 = PLANE ( 'NONE',  #140 ) ;
#108 = DIRECTION ( 'NONE',  ( 0.0000000000000000000, 0.0000000000000000000, 1.000000000000000000 ) ) ;
#109 = DIRECTION ( 'NONE',  ( 0.0000000000000000000, 0.0000000000000000000, 1.000000000000000000 ) ) ;
#110 = AXIS2_PLACEMENT_3D ( 'NONE', #42, #155, #71 ) ;
#111 = PERSON_AND_ORGANIZATION ( #89, #88 ) ;
#112 = DIRECTION ( 'NONE',  ( 1.000000000000000000, 0.0000000000000000000, 0.0000000000000000000 ) ) ;
#113 = ORIENTED_EDGE ( 'NONE', *, *, #130, .T. ) ;
#114 = COORDINATED_UNIVERSAL_TIME_OFFSET ( 1, 0, .AHEAD. ) ;
#115 = ORIENTED_EDGE ( 'NONE', *, *, #130, .F. ) ;
#116 = AXIS2_PLACEMENT_3D ( 'NONE', #21, #41, #135 ) ;
#117 = VERTEX_POINT ( 'NONE', #32 ) ;
#118 = CC_DESIGN_DATE_AND_TIME_ASSIGNMENT ( #154, #6, ( #85 ) ) ;
#119 = APPROVAL_DATE_TIME ( #172, #76 ) ;
#120 = CYLINDRICAL_SURFACE ( 'NONE', #128, 14.00000000000000000 ) ;
#121 = EDGE_CURVE ( 'NONE', #133, #47, #28, .T. ) ;
#122 = VECTOR ( 'NONE', #136, 1000.000000000000000 ) ;
#123 = DIRECTION ( 'NONE',  ( 0.0000000000000000000, 0.0000000000000000000, 1.000000000000000000 ) ) ;
#124 = DIRECTION ( 'NONE',  ( -0.0000000000000000000, -0.0000000000000000000, -1.000000000000000000 ) ) ;
#125 = CARTESIAN_POINT ( 'NONE',  ( -14.00000000000000000, 0.0000000000000000000, 10.50000000000000000 ) ) ;
#126 = CARTESIAN_POINT ( 'NONE',  ( 14.00000000000000000, 1.714505518806294200E-015, 10.50000000000000000 ) ) ;
#127 = APPROVAL_STATUS ( 'not_yet_approved' ) ;
#128 = AXIS2_PLACEMENT_3D ( 'NONE', #139, #124, #87 ) ;
#129 = FACE_OUTER_BOUND ( 'NONE', #80, .T. ) ;
#130 = EDGE_CURVE ( 'NONE', #117, #133, #79, .T. ) ;
#131 = APPROVAL_DATE_TIME ( #148, #16 ) ;
#132 = ORIENTED_EDGE ( 'NONE', *, *, #105, .T. ) ;
#133 = VERTEX_POINT ( 'NONE', #59 ) ;
#134 = AXIS2_PLACEMENT_3D ( 'NONE', #53, #166, #106 ) ;
#135 = DIRECTION ( 'NONE',  ( 1.000000000000000000, 0.0000000000000000000, 0.0000000000000000000 ) ) ;
#136 = DIRECTION ( 'NONE',  ( -0.0000000000000000000, -0.0000000000000000000, -1.000000000000000000 ) ) ;
#137 = SHAPE_DEFINITION_REPRESENTATION ( #20, #93 ) ;
#138 = CC_DESIGN_PERSON_AND_ORGANIZATION_ASSIGNMENT ( #111, #35, ( #61 ) ) ;
#139 = CARTESIAN_POINT ( 'NONE',  ( 0.0000000000000000000, 0.0000000000000000000, 10.50000000000000000 ) ) ;
#140 = AXIS2_PLACEMENT_3D ( 'NONE', #22, #108, #23 ) ;
#141 = APPROVAL_STATUS ( 'not_yet_approved' ) ;
#142 = CALENDAR_DATE ( 2018, 5, 11 ) ;
#143 = APPROVAL_ROLE ( '' ) ;
#144 = PERSON_AND_ORGANIZATION ( #89, #88 ) ;
#145 = PERSON_AND_ORGANIZATION_ROLE ( 'creator' ) ;
#146 = COORDINATED_UNIVERSAL_TIME_OFFSET ( 1, 0, .AHEAD. ) ;
#147 = AXIS2_PLACEMENT_3D ( 'NONE', #55, #109, #164 ) ;
#148 = DATE_AND_TIME ( #68, #33 ) ;
#149 = CC_DESIGN_PERSON_AND_ORGANIZATION_ASSIGNMENT ( #81, #62, ( #85 ) ) ;
#150 = AXIS2_PLACEMENT_3D ( 'NONE', #168, #69, #5 ) ;
#151 = CIRCLE ( 'NONE', #161, 14.00000000000000000 ) ;
#152 = CARTESIAN_POINT ( 'NONE',  ( 0.0000000000000000000, 0.0000000000000000000, 0.0000000000000000000 ) ) ;
#153 = PLANE ( 'NONE',  #147 ) ;
#154 = DATE_AND_TIME ( #142, #25 ) ;
#155 = DIRECTION ( 'NONE',  ( 0.0000000000000000000, 0.0000000000000000000, 1.000000000000000000 ) ) ;
#156 = EDGE_LOOP ( 'NONE', ( #98, #9 ) ) ;
#157 = APPLICATION_CONTEXT ( 'configuration controlled 3d designs of mechanical parts and assemblies' ) ;
#158 =( GEOMETRIC_REPRESENTATION_CONTEXT ( 3 ) GLOBAL_UNCERTAINTY_ASSIGNED_CONTEXT ( ( #8 ) ) GLOBAL_UNIT_ASSIGNED_CONTEXT ( ( #50, #44, #101 ) ) REPRESENTATION_CONTEXT ( 'NONE', 'WORKASPACE' ) );
#159 = APPROVAL_PERSON_ORGANIZATION ( #173, #3, #174 ) ;
#160 = PRODUCT_RELATED_PRODUCT_CATEGORY ( 'detail', '', ( #54 ) ) ;
#161 = AXIS2_PLACEMENT_3D ( 'NONE', #19, #123, #51 ) ;
#162 = ORIENTED_EDGE ( 'NONE', *, *, #29, .T. ) ;
#163 = CARTESIAN_POINT ( 'NONE',  ( 14.00000000000000000, 1.714505518806294200E-015, 0.0000000000000000000 ) ) ;
#164 = DIRECTION ( 'NONE',  ( 1.000000000000000000, 0.0000000000000000000, -0.0000000000000000000 ) ) ;
#165 = FACE_OUTER_BOUND ( 'NONE', #156, .T. ) ;
#166 = DIRECTION ( 'NONE',  ( 0.0000000000000000000, 0.0000000000000000000, 1.000000000000000000 ) ) ;
#167 = CLOSED_SHELL ( 'NONE', ( #82, #65, #30, #84 ) ) ;
#168 = CARTESIAN_POINT ( 'NONE',  ( 0.0000000000000000000, 0.0000000000000000000, 10.50000000000000000 ) ) ;
#169 = PRODUCT_DEFINITION ( 'UNKNOWN', '', #61, #57 ) ;
#170 = DATE_TIME_ROLE ( 'creation_date' ) ;
#171 = LOCAL_TIME ( 17, 57, 53.00000000000000000, #11 ) ;
#172 = DATE_AND_TIME ( #4, #78 ) ;
#173 = PERSON_AND_ORGANIZATION ( #89, #88 ) ;
#174 = APPROVAL_ROLE ( '' ) ;
#175 = AXIS2_PLACEMENT_3D ( 'NONE', #152, #45, #112 ) ;
ENDSEC;
END-ISO-10303-21;
