ISO-10303-21;
HEADER;
FILE_DESCRIPTION (( 'STEP AP203' ),
    '1' );
FILE_NAME ('roll_part_2_Domyúlna_sldprt.STEP',
    '2018-11-05T16:57:57',
    ( '' ),
    ( '' ),
    'SwSTEP 2.0',
    'SolidWorks 2016',
    '' );
FILE_SCHEMA (( 'CONFIG_CONTROL_DESIGN' ));
ENDSEC;

DATA;
#1 = ORIENTED_EDGE ( 'NONE', *, *, #468, .F. ) ;
#2 = EDGE_CURVE ( 'NONE', #762, #614, #740, .T. ) ;
#3 = FACE_OUTER_BOUND ( 'NONE', #211, .T. ) ;
#4 = AXIS2_PLACEMENT_3D ( 'NONE', #500, #636, #36 ) ;
#5 = ORIENTED_EDGE ( 'NONE', *, *, #809, .F. ) ;
#6 = DIRECTION ( 'NONE',  ( 0.0000000000000000000, 0.0000000000000000000, 1.000000000000000000 ) ) ;
#7 = EDGE_CURVE ( 'NONE', #243, #287, #686, .T. ) ;
#8 = FACE_OUTER_BOUND ( 'NONE', #806, .T. ) ;
#9 = ORIENTED_EDGE ( 'NONE', *, *, #123, .T. ) ;
#10 = CIRCLE ( 'NONE', #98, 15.49999999999999800 ) ;
#11 = AXIS2_PLACEMENT_3D ( 'NONE', #844, #401, #643 ) ;
#12 = DIRECTION ( 'NONE',  ( 1.000000000000000000, 0.0000000000000000000, 0.0000000000000000000 ) ) ;
#13 = EDGE_CURVE ( 'NONE', #287, #710, #852, .T. ) ;
#14 = CC_DESIGN_DATE_AND_TIME_ASSIGNMENT ( #502, #404, ( #146 ) ) ;
#15 = VERTEX_POINT ( 'NONE', #283 ) ;
#16 = CARTESIAN_POINT ( 'NONE',  ( 0.0000000000000000000, 36.50000000000000000, 4.000000000000000000 ) ) ;
#17 = ORIENTED_EDGE ( 'NONE', *, *, #13, .F. ) ;
#18 = LINE ( 'NONE', #825, #28 ) ;
#19 = ORIENTED_EDGE ( 'NONE', *, *, #424, .T. ) ;
#20 = ORIENTED_EDGE ( 'NONE', *, *, #506, .T. ) ;
#21 = DIRECTION ( 'NONE',  ( -1.133631464574738000E-016, 1.000000000000000000, -0.0000000000000000000 ) ) ;
#22 = CARTESIAN_POINT ( 'NONE',  ( -7.249999999999999100, 16.87228132326901100, 4.000000000000000000 ) ) ;
#23 = DIRECTION ( 'NONE',  ( -0.0000000000000000000, -0.0000000000000000000, -1.000000000000000000 ) ) ;
#24 = CARTESIAN_POINT ( 'NONE',  ( 1.749999999999996400, 8.499999999999998200, 4.000000000000000000 ) ) ;
#25 = LINE ( 'NONE', #338, #532 ) ;
#26 = COORDINATED_UNIVERSAL_TIME_OFFSET ( 1, 0, .AHEAD. ) ;
#27 = AXIS2_PLACEMENT_3D ( 'NONE', #694, #763, #845 ) ;
#28 = VECTOR ( 'NONE', #829, 1000.000000000000000 ) ;
#29 = DIRECTION ( 'NONE',  ( -0.9544799780350297100, -0.2982749931359471300, 0.0000000000000000000 ) ) ;
#30 = FACE_OUTER_BOUND ( 'NONE', #731, .T. ) ;
#31 = EDGE_CURVE ( 'NONE', #243, #315, #613, .T. ) ;
#32 = DIRECTION ( 'NONE',  ( 0.0000000000000000000, 1.000000000000000000, 0.0000000000000000000 ) ) ;
#33 = DIRECTION ( 'NONE',  ( -0.0000000000000000000, 0.0000000000000000000, -1.000000000000000000 ) ) ;
#34 = DIRECTION ( 'NONE',  ( -0.0000000000000000000, -0.0000000000000000000, -1.000000000000000000 ) ) ;
#35 = DIRECTION ( 'NONE',  ( -1.927470528863120300E-016, 1.000000000000000000, -0.0000000000000000000 ) ) ;
#36 = DIRECTION ( 'NONE',  ( 1.000000000000000000, 0.0000000000000000000, 0.0000000000000000000 ) ) ;
#37 = CARTESIAN_POINT ( 'NONE',  ( 0.0000000000000000000, 36.50000000000000000, 4.000000000000000000 ) ) ;
#38 = ORIENTED_EDGE ( 'NONE', *, *, #667, .F. ) ;
#39 = CARTESIAN_POINT ( 'NONE',  ( -7.250000000000000000, 24.52346043299652200, 0.0000000000000000000 ) ) ;
#40 = CARTESIAN_POINT ( 'NONE',  ( 1.749999999999994700, 16.49999999999999600, 0.0000000000000000000 ) ) ;
#41 = ORIENTED_EDGE ( 'NONE', *, *, #7, .F. ) ;
#42 = EDGE_CURVE ( 'NONE', #74, #216, #822, .T. ) ;
#43 = AXIS2_PLACEMENT_3D ( 'NONE', #775, #255, #707 ) ;
#44 = PLANE ( 'NONE',  #635 ) ;
#45 = CARTESIAN_POINT ( 'NONE',  ( -5.249999999999998200, 13.99999999999999800, 4.000000000000000000 ) ) ;
#46 = CARTESIAN_POINT ( 'NONE',  ( 0.0000000000000000000, 36.50000000000000000, 4.000000000000000000 ) ) ;
#47 = CARTESIAN_POINT ( 'NONE',  ( -15.49999999999999800, 36.50000000000000000, 0.0000000000000000000 ) ) ;
#48 = FACE_OUTER_BOUND ( 'NONE', #382, .T. ) ;
#49 = ADVANCED_FACE ( 'NONE', ( #648 ), #359, .F. ) ;
#50 = ORIENTED_EDGE ( 'NONE', *, *, #128, .T. ) ;
#51 = DIRECTION ( 'NONE',  ( 1.000000000000000000, 0.0000000000000000000, 0.0000000000000000000 ) ) ;
#52 = EDGE_LOOP ( 'NONE', ( #371, #562, #663, #19 ) ) ;
#53 = LINE ( 'NONE', #224, #854 ) ;
#54 = VECTOR ( 'NONE', #810, 1000.000000000000000 ) ;
#55 = EDGE_LOOP ( 'NONE', ( #363, #221, #41, #833 ) ) ;
#56 = PLANE ( 'NONE',  #414 ) ;
#57 = ADVANCED_FACE ( 'NONE', ( #801, #497, #337 ), #420, .T. ) ;
#58 = APPROVAL_DATE_TIME ( #238, #568 ) ;
#59 = APPLICATION_PROTOCOL_DEFINITION ( 'international standard', 'config_control_design', 1994, #778 ) ;
#60 = AXIS2_PLACEMENT_3D ( 'NONE', #688, #672, #611 ) ;
#61 = CARTESIAN_POINT ( 'NONE',  ( -12.50000000000000000, -1.530808498934191500E-015, 4.000000000000000000 ) ) ;
#62 = CARTESIAN_POINT ( 'NONE',  ( 0.0000000000000000000, 36.50000000000000000, 4.000000000000000000 ) ) ;
#63 = DATE_TIME_ROLE ( 'classification_date' ) ;
#64 = DATE_AND_TIME ( #666, #228 ) ;
#65 = DIRECTION ( 'NONE',  ( 0.0000000000000000000, 0.0000000000000000000, -1.000000000000000000 ) ) ;
#66 = EDGE_CURVE ( 'NONE', #194, #615, #442, .T. ) ;
#67 = CC_DESIGN_APPROVAL ( #843, ( #146 ) ) ;
#68 = ORIENTED_EDGE ( 'NONE', *, *, #531, .F. ) ;
#69 = DIRECTION ( 'NONE',  ( 1.000000000000000000, 0.0000000000000000000, 0.0000000000000000000 ) ) ;
#70 = EDGE_LOOP ( 'NONE', ( #671, #750, #387, #730, #588, #180, #244, #638, #454, #483 ) ) ;
#71 =( LENGTH_UNIT ( ) NAMED_UNIT ( * ) SI_UNIT ( .MILLI., .METRE. ) );
#72 = PERSON_AND_ORGANIZATION ( #564, #830 ) ;
#73 = VECTOR ( 'NONE', #458, 1000.000000000000000 ) ;
#74 = VERTEX_POINT ( 'NONE', #484 ) ;
#75 = EDGE_LOOP ( 'NONE', ( #422, #558, #641, #824 ) ) ;
#76 = FACE_OUTER_BOUND ( 'NONE', #260, .T. ) ;
#77 = AXIS2_PLACEMENT_3D ( 'NONE', #700, #513, #570 ) ;
#78 = ORIENTED_EDGE ( 'NONE', *, *, #42, .F. ) ;
#79 = EDGE_CURVE ( 'NONE', #194, #276, #779, .T. ) ;
#80 = DIRECTION ( 'NONE',  ( -0.0000000000000000000, -0.0000000000000000000, -1.000000000000000000 ) ) ;
#81 = VECTOR ( 'NONE', #153, 1000.000000000000200 ) ;
#82 = ORIENTED_EDGE ( 'NONE', *, *, #664, .F. ) ;
#83 = VERTEX_POINT ( 'NONE', #22 ) ;
#84 = ORIENTED_EDGE ( 'NONE', *, *, #634, .F. ) ;
#85 = CARTESIAN_POINT ( 'NONE',  ( -1.749999999999999300, 9.500000000000001800, 4.000000000000000000 ) ) ;
#86 = EDGE_CURVE ( 'NONE', #15, #743, #265, .T. ) ;
#87 = AXIS2_PLACEMENT_3D ( 'NONE', #545, #12, #739 ) ;
#88 = CARTESIAN_POINT ( 'NONE',  ( 0.0000000000000000000, 36.50000000000000000, 0.0000000000000000000 ) ) ;
#89 = DIRECTION ( 'NONE',  ( 1.000000000000000000, 3.081487911019577400E-032, -0.0000000000000000000 ) ) ;
#90 = ORIENTED_EDGE ( 'NONE', *, *, #282, .F. ) ;
#91 = ORIENTED_EDGE ( 'NONE', *, *, #759, .T. ) ;
#92 = CIRCLE ( 'NONE', #601, 3.499999999999999600 ) ;
#93 = EDGE_LOOP ( 'NONE', ( #435, #114, #430, #446 ) ) ;
#94 = CARTESIAN_POINT ( 'NONE',  ( -7.250000000000000000, 24.52346043299652200, 0.0000000000000000000 ) ) ;
#95 = CARTESIAN_POINT ( 'NONE',  ( 15.49999999999999800, 36.50000000000000000, 4.000000000000000000 ) ) ;
#96 = CARTESIAN_POINT ( 'NONE',  ( -8.750000000000000000, 25.57125350280280800, 0.0000000000000000000 ) ) ;
#97 = PLANE ( 'NONE',  #828 ) ;
#98 = AXIS2_PLACEMENT_3D ( 'NONE', #46, #122, #771 ) ;
#99 = VERTEX_POINT ( 'NONE', #358 ) ;
#100 = CARTESIAN_POINT ( 'NONE',  ( 1.749999999999994700, 16.49999999999999600, 4.000000000000000000 ) ) ;
#101 = LINE ( 'NONE', #237, #586 ) ;
#102 = ORIENTED_EDGE ( 'NONE', *, *, #546, .T. ) ;
#103 = EDGE_CURVE ( 'NONE', #615, #235, #760, .T. ) ;
#104 = VERTEX_POINT ( 'NONE', #367 ) ;
#105 = AXIS2_PLACEMENT_3D ( 'NONE', #787, #212, #210 ) ;
#106 = CARTESIAN_POINT ( 'NONE',  ( 1.749999999999994700, 16.49999999999999600, 4.000000000000000000 ) ) ;
#107 = AXIS2_PLACEMENT_3D ( 'NONE', #826, #173, #758 ) ;
#108 = DIRECTION ( 'NONE',  ( -1.000000000000000000, 0.0000000000000000000, 0.0000000000000000000 ) ) ;
#109 = DIRECTION ( 'NONE',  ( -1.000000000000000000, 0.0000000000000000000, 0.0000000000000000000 ) ) ;
#110 = DIRECTION ( 'NONE',  ( -0.2982749931359470800, -0.9544799780350297100, -0.0000000000000000000 ) ) ;
#111 = DIRECTION ( 'NONE',  ( -0.0000000000000000000, -0.0000000000000000000, -1.000000000000000000 ) ) ;
#112 = PRODUCT_RELATED_PRODUCT_CATEGORY ( 'detail', '', ( #511 ) ) ;
#113 = ORIENTED_EDGE ( 'NONE', *, *, #142, .T. ) ;
#114 = ORIENTED_EDGE ( 'NONE', *, *, #2, .T. ) ;
#115 = CYLINDRICAL_SURFACE ( 'NONE', #60, 3.500000000000001300 ) ;
#116 = CARTESIAN_POINT ( 'NONE',  ( -13.99999999999999500, 36.50000000000000000, 0.0000000000000000000 ) ) ;
#117 = CARTESIAN_POINT ( 'NONE',  ( 5.249999999999996400, 8.499999999999998200, 4.000000000000000000 ) ) ;
#118 = EDGE_LOOP ( 'NONE', ( #701, #352, #355, #699 ) ) ;
#119 = ADVANCED_FACE ( 'NONE', ( #393 ), #610, .F. ) ;
#120 = CARTESIAN_POINT ( 'NONE',  ( -7.250000000000000000, 24.52346043299652200, 4.000000000000000000 ) ) ;
#121 = ADVANCED_FACE ( 'NONE', ( #48 ), #369, .F. ) ;
#122 = DIRECTION ( 'NONE',  ( 0.0000000000000000000, 0.0000000000000000000, 1.000000000000000000 ) ) ;
#123 = EDGE_CURVE ( 'NONE', #508, #793, #284, .T. ) ;
#124 = DIRECTION ( 'NONE',  ( 0.0000000000000000000, 0.0000000000000000000, 1.000000000000000000 ) ) ;
#125 = LINE ( 'NONE', #334, #565 ) ;
#126 = CARTESIAN_POINT ( 'NONE',  ( -8.749999999999998200, 9.500000000000001800, 4.000000000000000000 ) ) ;
#127 = ORIENTED_EDGE ( 'NONE', *, *, #800, .T. ) ;
#128 = EDGE_CURVE ( 'NONE', #276, #235, #307, .T. ) ;
#129 = VECTOR ( 'NONE', #447, 1000.000000000000000 ) ;
#130 = ADVANCED_FACE ( 'NONE', ( #8 ), #167, .T. ) ;
#131 = CYLINDRICAL_SURFACE ( 'NONE', #552, 3.499999999999998700 ) ;
#132 = ORIENTED_EDGE ( 'NONE', *, *, #344, .F. ) ;
#133 = PERSON_AND_ORGANIZATION_ROLE ( 'classification_officer' ) ;
#134 = DIRECTION ( 'NONE',  ( -1.000000000000000000, -1.927470528863120300E-016, 0.0000000000000000000 ) ) ;
#135 = APPLICATION_PROTOCOL_DEFINITION ( 'international standard', 'config_control_design', 1994, #719 ) ;
#136 =( NAMED_UNIT ( * ) PLANE_ANGLE_UNIT ( ) SI_UNIT ( $, .RADIAN. ) );
#137 = AXIS2_PLACEMENT_3D ( 'NONE', #592, #724, #859 ) ;
#138 = ORIENTED_EDGE ( 'NONE', *, *, #333, .F. ) ;
#139 = EDGE_LOOP ( 'NONE', ( #661, #741, #197, #491 ) ) ;
#140 = CARTESIAN_POINT ( 'NONE',  ( 12.50000000000000000, -1.530808498934190700E-015, 4.000000000000000000 ) ) ;
#141 = EDGE_LOOP ( 'NONE', ( #457, #544, #599, #91 ) ) ;
#142 = EDGE_CURVE ( 'NONE', #673, #276, #354, .T. ) ;
#143 = AXIS2_PLACEMENT_3D ( 'NONE', #630, #306, #313 ) ;
#144 = ORIENTED_EDGE ( 'NONE', *, *, #506, .F. ) ;
#145 = DIRECTION ( 'NONE',  ( -1.000000000000000000, 0.0000000000000000000, 0.0000000000000000000 ) ) ;
#146 = PRODUCT_DEFINITION ( 'UNKNOWN', '', #152, #722 ) ;
#147 = FACE_OUTER_BOUND ( 'NONE', #349, .T. ) ;
#148 = DIRECTION ( 'NONE',  ( -0.0000000000000000000, -0.0000000000000000000, -1.000000000000000000 ) ) ;
#149 = EDGE_CURVE ( 'NONE', #697, #169, #336, .T. ) ;
#150 = PERSON_AND_ORGANIZATION ( #564, #830 ) ;
#151 = DIRECTION ( 'NONE',  ( -0.0000000000000000000, -0.0000000000000000000, -1.000000000000000000 ) ) ;
#152 = PRODUCT_DEFINITION_FORMATION_WITH_SPECIFIED_SOURCE ( 'ANY', '', #511, .NOT_KNOWN. ) ;
#153 = DIRECTION ( 'NONE',  ( -0.2982749931359470800, 0.9544799780350296000, 0.0000000000000000000 ) ) ;
#154 = VERTEX_POINT ( 'NONE', #302 ) ;
#155 = VERTEX_POINT ( 'NONE', #240 ) ;
#156 = ORIENTED_EDGE ( 'NONE', *, *, #174, .T. ) ;
#157 = LINE ( 'NONE', #295, #431 ) ;
#158 = CARTESIAN_POINT ( 'NONE',  ( 0.0000000000000000000, 36.50000000000000000, 4.000000000000000000 ) ) ;
#159 = ORIENTED_EDGE ( 'NONE', *, *, #264, .T. ) ;
#160 = DIRECTION ( 'NONE',  ( 0.0000000000000000000, 0.0000000000000000000, 1.000000000000000000 ) ) ;
#161 = DIRECTION ( 'NONE',  ( 0.0000000000000000000, 1.000000000000000000, 0.0000000000000000000 ) ) ;
#162 = CARTESIAN_POINT ( 'NONE',  ( -7.250000000000000000, 24.52346043299652200, 4.000000000000000000 ) ) ;
#163 = DIRECTION ( 'NONE',  ( 1.000000000000000000, 0.0000000000000000000, -0.0000000000000000000 ) ) ;
#164 = AXIS2_PLACEMENT_3D ( 'NONE', #841, #647, #263 ) ;
#165 = LINE ( 'NONE', #818, #191 ) ;
#166 = DIRECTION ( 'NONE',  ( 0.0000000000000000000, -1.000000000000000000, 0.0000000000000000000 ) ) ;
#167 = PLANE ( 'NONE',  #347 ) ;
#168 = VERTEX_POINT ( 'NONE', #441 ) ;
#169 = VERTEX_POINT ( 'NONE', #242 ) ;
#170 = CIRCLE ( 'NONE', #821, 15.49999999999999800 ) ;
#171 = EDGE_CURVE ( 'NONE', #154, #309, #685, .T. ) ;
#172 = VECTOR ( 'NONE', #495, 1000.000000000000000 ) ;
#173 = DIRECTION ( 'NONE',  ( 0.0000000000000000000, 0.0000000000000000000, 1.000000000000000000 ) ) ;
#174 = EDGE_CURVE ( 'NONE', #74, #104, #230, .T. ) ;
#175 = PLANE ( 'NONE',  #241 ) ;
#176 = CARTESIAN_POINT ( 'NONE',  ( 8.749999999999998200, 8.499999999999998200, 4.000000000000000000 ) ) ;
#177 = DIRECTION ( 'NONE',  ( -2.168404344971009400E-016, 1.000000000000000000, 0.0000000000000000000 ) ) ;
#178 = LOCAL_TIME ( 17, 57, 57.00000000000000000, #26 ) ;
#179 = PLANE ( 'NONE',  #396 ) ;
#180 = ORIENTED_EDGE ( 'NONE', *, *, #333, .T. ) ;
#181 = CARTESIAN_POINT ( 'NONE',  ( 0.0000000000000000000, 36.50000000000000000, 0.0000000000000000000 ) ) ;
#182 = DIRECTION ( 'NONE',  ( -0.0000000000000000000, -0.0000000000000000000, -1.000000000000000000 ) ) ;
#183 = ADVANCED_FACE ( 'NONE', ( #516 ), #97, .F. ) ;
#184 = EDGE_CURVE ( 'NONE', #207, #697, #165, .T. ) ;
#185 = ORIENTED_EDGE ( 'NONE', *, *, #603, .T. ) ;
#186 = AXIS2_PLACEMENT_3D ( 'NONE', #397, #189, #657 ) ;
#187 = CARTESIAN_POINT ( 'NONE',  ( 12.50000000000000000, 2.999999999999996400, 0.0000000000000000000 ) ) ;
#188 = EDGE_CURVE ( 'NONE', #169, #571, #668, .T. ) ;
#189 = DIRECTION ( 'NONE',  ( 0.0000000000000000000, 0.0000000000000000000, 1.000000000000000000 ) ) ;
#190 = DIRECTION ( 'NONE',  ( 0.0000000000000000000, 0.0000000000000000000, 1.000000000000000000 ) ) ;
#191 = VECTOR ( 'NONE', #501, 1000.000000000000000 ) ;
#192 = ADVANCED_FACE ( 'NONE', ( #851 ), #709, .F. ) ;
#193 = ORIENTED_EDGE ( 'NONE', *, *, #294, .F. ) ;
#194 = VERTEX_POINT ( 'NONE', #100 ) ;
#195 = VECTOR ( 'NONE', #388, 1000.000000000000000 ) ;
#196 = CARTESIAN_POINT ( 'NONE',  ( 11.25000000000000000, 6.999999999999994700, 4.000000000000000000 ) ) ;
#197 = ORIENTED_EDGE ( 'NONE', *, *, #272, .T. ) ;
#198 = CC_DESIGN_PERSON_AND_ORGANIZATION_ASSIGNMENT ( #318, #581, ( #146 ) ) ;
#199 = DIRECTION ( 'NONE',  ( 0.0000000000000000000, 1.000000000000000000, 0.0000000000000000000 ) ) ;
#200 = CARTESIAN_POINT ( 'NONE',  ( 11.25000000000000000, 25.83756594393193900, 0.0000000000000000000 ) ) ;
#201 = CARTESIAN_POINT ( 'NONE',  ( -5.249999999999998200, 9.500000000000001800, 0.0000000000000000000 ) ) ;
#202 = MECHANICAL_CONTEXT ( 'NONE', #719, 'mechanical' ) ;
#203 = CC_DESIGN_PERSON_AND_ORGANIZATION_ASSIGNMENT ( #659, #789, ( #511 ) ) ;
#204 = VERTEX_POINT ( 'NONE', #95 ) ;
#205 = ORIENTED_EDGE ( 'NONE', *, *, #546, .F. ) ;
#206 = ORIENTED_EDGE ( 'NONE', *, *, #188, .F. ) ;
#207 = VERTEX_POINT ( 'NONE', #692 ) ;
#208 = VECTOR ( 'NONE', #693, 1000.000000000000000 ) ;
#209 = ORIENTED_EDGE ( 'NONE', *, *, #561, .F. ) ;
#210 = DIRECTION ( 'NONE',  ( 1.000000000000000000, 0.0000000000000000000, 0.0000000000000000000 ) ) ;
#211 = EDGE_LOOP ( 'NONE', ( #417, #90, #298, #813 ) ) ;
#212 = DIRECTION ( 'NONE',  ( 0.0000000000000000000, 0.0000000000000000000, 1.000000000000000000 ) ) ;
#213 = DIRECTION ( 'NONE',  ( 0.0000000000000000000, 0.0000000000000000000, 1.000000000000000000 ) ) ;
#214 = VECTOR ( 'NONE', #35, 1000.000000000000000 ) ;
#215 = CC_DESIGN_PERSON_AND_ORGANIZATION_ASSIGNMENT ( #293, #411, ( #152 ) ) ;
#216 = VERTEX_POINT ( 'NONE', #375 ) ;
#217 = FACE_OUTER_BOUND ( 'NONE', #323, .T. ) ;
#218 = LINE ( 'NONE', #227, #172 ) ;
#219 = EDGE_CURVE ( 'NONE', #324, #734, #729, .T. ) ;
#220 = DIRECTION ( 'NONE',  ( 0.2982749931359470800, 0.9544799780350297100, 0.0000000000000000000 ) ) ;
#221 = ORIENTED_EDGE ( 'NONE', *, *, #264, .F. ) ;
#222 = FACE_OUTER_BOUND ( 'NONE', #474, .T. ) ;
#223 = ORIENTED_EDGE ( 'NONE', *, *, #523, .T. ) ;
#224 = CARTESIAN_POINT ( 'NONE',  ( -12.50000000000000000, 2.999999999999998200, 4.000000000000000000 ) ) ;
#225 = CARTESIAN_POINT ( 'NONE',  ( 1.749999999999994700, 16.49999999999999600, 0.0000000000000000000 ) ) ;
#226 = EDGE_CURVE ( 'NONE', #204, #466, #752, .T. ) ;
#227 = CARTESIAN_POINT ( 'NONE',  ( -8.749999999999998200, 13.99999999999999800, 4.000000000000000000 ) ) ;
#228 = LOCAL_TIME ( 17, 57, 57.00000000000000000, #567 ) ;
#229 = CARTESIAN_POINT ( 'NONE',  ( 12.50000000000000000, -1.530808498934190700E-015, 0.0000000000000000000 ) ) ;
#230 = LINE ( 'NONE', #176, #768 ) ;
#231 = ORIENTED_EDGE ( 'NONE', *, *, #31, .F. ) ;
#232 = ORIENTED_EDGE ( 'NONE', *, *, #344, .T. ) ;
#233 = CARTESIAN_POINT ( 'NONE',  ( 15.49999999999999800, 36.50000000000000000, 0.0000000000000000000 ) ) ;
#234 = VECTOR ( 'NONE', #609, 1000.000000000000000 ) ;
#235 = VERTEX_POINT ( 'NONE', #301 ) ;
#236 = CARTESIAN_POINT ( 'NONE',  ( -15.49999999999999800, 36.50000000000000000, 4.000000000000000000 ) ) ;
#237 = CARTESIAN_POINT ( 'NONE',  ( 13.99999999999999500, 36.50000000000000000, 4.000000000000000000 ) ) ;
#238 = DATE_AND_TIME ( #579, #437 ) ;
#239 = CARTESIAN_POINT ( 'NONE',  ( -8.749999999999998200, 9.500000000000001800, 4.000000000000000000 ) ) ;
#240 = CARTESIAN_POINT ( 'NONE',  ( -8.749999999999998200, 9.500000000000001800, 0.0000000000000000000 ) ) ;
#241 = AXIS2_PLACEMENT_3D ( 'NONE', #251, #640, #376 ) ;
#242 = CARTESIAN_POINT ( 'NONE',  ( 12.50000000000000000, -1.530808498934190700E-015, 0.0000000000000000000 ) ) ;
#243 = VERTEX_POINT ( 'NONE', #556 ) ;
#244 = ORIENTED_EDGE ( 'NONE', *, *, #718, .T. ) ;
#245 = EDGE_CURVE ( 'NONE', #357, #508, #101, .T. ) ;
#246 = AXIS2_PLACEMENT_3D ( 'NONE', #584, #512, #574 ) ;
#247 = CARTESIAN_POINT ( 'NONE',  ( 11.25000000000000000, 6.999999999999994700, 0.0000000000000000000 ) ) ;
#248 = ORIENTED_EDGE ( 'NONE', *, *, #368, .F. ) ;
#249 = CARTESIAN_POINT ( 'NONE',  ( -7.250000000000000000, 24.52346043299652200, 4.000000000000000000 ) ) ;
#250 = CARTESIAN_POINT ( 'NONE',  ( -8.750000000000000000, 25.57125350280280800, 4.000000000000000000 ) ) ;
#251 = CARTESIAN_POINT ( 'NONE',  ( 0.0000000000000000000, 36.50000000000000000, 0.0000000000000000000 ) ) ;
#252 = ADVANCED_FACE ( 'NONE', ( #147 ), #492, .F. ) ;
#253 = VECTOR ( 'NONE', #89, 1000.000000000000000 ) ;
#254 = ORIENTED_EDGE ( 'NONE', *, *, #577, .T. ) ;
#255 = DIRECTION ( 'NONE',  ( 0.0000000000000000000, 0.0000000000000000000, 1.000000000000000000 ) ) ;
#256 = ORIENTED_EDGE ( 'NONE', *, *, #788, .T. ) ;
#257 = DIRECTION ( 'NONE',  ( -0.0000000000000000000, -0.0000000000000000000, -1.000000000000000000 ) ) ;
#258 = CIRCLE ( 'NONE', #4, 3.500000000000000400 ) ;
#259 = LINE ( 'NONE', #493, #234 ) ;
#260 = EDGE_LOOP ( 'NONE', ( #370, #445, #254, #649 ) ) ;
#261 = ADVANCED_FACE ( 'NONE', ( #30 ), #179, .T. ) ;
#262 = CC_DESIGN_APPROVAL ( #568, ( #381 ) ) ;
#263 = DIRECTION ( 'NONE',  ( 0.0000000000000000000, 0.0000000000000000000, 1.000000000000000000 ) ) ;
#264 = EDGE_CURVE ( 'NONE', #287, #802, #796, .T. ) ;
#265 = LINE ( 'NONE', #674, #81 ) ;
#266 = EDGE_LOOP ( 'NONE', ( #769, #102, #761, #9, #548, #416, #380, #721 ) ) ;
#267 = DIRECTION ( 'NONE',  ( -1.000000000000000000, 0.0000000000000000000, 0.0000000000000000000 ) ) ;
#268 = LINE ( 'NONE', #459, #423 ) ;
#269 = ORIENTED_EDGE ( 'NONE', *, *, #308, .F. ) ;
#270 = CARTESIAN_POINT ( 'NONE',  ( 0.0000000000000000000, 36.50000000000000000, 0.0000000000000000000 ) ) ;
#271 = ADVANCED_BREP_SHAPE_REPRESENTATION ( 'roll_part_2_Domyùlna_sldprt', ( #346, #105 ), #543 ) ;
#272 = EDGE_CURVE ( 'NONE', #488, #408, #742, .T. ) ;
#273 = AXIS2_PLACEMENT_3D ( 'NONE', #777, #857, #514 ) ;
#274 = ORIENTED_EDGE ( 'NONE', *, *, #759, .F. ) ;
#275 = DIRECTION ( 'NONE',  ( 1.000000000000000000, 0.0000000000000000000, 0.0000000000000000000 ) ) ;
#276 = VERTEX_POINT ( 'NONE', #40 ) ;
#277 = ORIENTED_EDGE ( 'NONE', *, *, #379, .F. ) ;
#278 = LINE ( 'NONE', #566, #325 ) ;
#279 = ORIENTED_EDGE ( 'NONE', *, *, #827, .T. ) ;
#280 = CYLINDRICAL_SURFACE ( 'NONE', #77, 15.49999999999999800 ) ;
#281 = EDGE_LOOP ( 'NONE', ( #572, #310, #541, #712 ) ) ;
#282 = EDGE_CURVE ( 'NONE', #216, #673, #407, .T. ) ;
#283 = CARTESIAN_POINT ( 'NONE',  ( 12.50000000000000000, 2.999999999999996400, 4.000000000000000000 ) ) ;
#284 = CIRCLE ( 'NONE', #791, 13.99999999999999500 ) ;
#285 = ORIENTED_EDGE ( 'NONE', *, *, #754, .F. ) ;
#286 = VECTOR ( 'NONE', #317, 1000.000000000000000 ) ;
#287 = VERTEX_POINT ( 'NONE', #576 ) ;
#288 = CARTESIAN_POINT ( 'NONE',  ( -11.24999999999999300, 25.83756594393193100, 4.000000000000000000 ) ) ;
#289 = CC_DESIGN_APPROVAL ( #706, ( #152 ) ) ;
#290 = APPROVAL_PERSON_ORGANIZATION ( #469, #843, #470 ) ;
#291 = DIRECTION ( 'NONE',  ( -0.0000000000000000000, -0.0000000000000000000, -1.000000000000000000 ) ) ;
#292 = DIRECTION ( 'NONE',  ( 2.168404344971009400E-016, -1.000000000000000000, 0.0000000000000000000 ) ) ;
#293 = PERSON_AND_ORGANIZATION ( #564, #830 ) ;
#294 = EDGE_CURVE ( 'NONE', #83, #794, #268, .T. ) ;
#295 = CARTESIAN_POINT ( 'NONE',  ( -12.50000000000000000, 2.999999999999998200, 0.0000000000000000000 ) ) ;
#296 = DIRECTION ( 'NONE',  ( -0.2982749931359470800, -0.9544799780350297100, -0.0000000000000000000 ) ) ;
#297 = ORIENTED_EDGE ( 'NONE', *, *, #188, .T. ) ;
#298 = ORIENTED_EDGE ( 'NONE', *, *, #782, .T. ) ;
#299 = LINE ( 'NONE', #250, #620 ) ;
#300 = VERTEX_POINT ( 'NONE', #94 ) ;
#301 = CARTESIAN_POINT ( 'NONE',  ( 1.749999999999996400, 8.499999999999998200, 0.0000000000000000000 ) ) ;
#302 = CARTESIAN_POINT ( 'NONE',  ( -12.50000000000000000, -1.530808498934191500E-015, 4.000000000000000000 ) ) ;
#303 = CIRCLE ( 'NONE', #690, 13.99999999999999500 ) ;
#304 = CC_DESIGN_SECURITY_CLASSIFICATION ( #381, ( #152 ) ) ;
#305 = CARTESIAN_POINT ( 'NONE',  ( 0.0000000000000000000, 36.50000000000000000, 4.000000000000000000 ) ) ;
#306 = DIRECTION ( 'NONE',  ( -0.0000000000000000000, -0.0000000000000000000, -1.000000000000000000 ) ) ;
#307 = LINE ( 'NONE', #225, #415 ) ;
#308 = EDGE_CURVE ( 'NONE', #615, #74, #691, .T. ) ;
#309 = VERTEX_POINT ( 'NONE', #644 ) ;
#310 = ORIENTED_EDGE ( 'NONE', *, *, #413, .F. ) ;
#311 = VECTOR ( 'NONE', #21, 1000.000000000000000 ) ;
#312 = CARTESIAN_POINT ( 'NONE',  ( 1.749999999999996400, 8.499999999999998200, 4.000000000000000000 ) ) ;
#313 = DIRECTION ( 'NONE',  ( -1.000000000000000000, 0.0000000000000000000, 0.0000000000000000000 ) ) ;
#314 = VECTOR ( 'NONE', #642, 1000.000000000000000 ) ;
#315 = VERTEX_POINT ( 'NONE', #704 ) ;
#316 = DIRECTION ( 'NONE',  ( 1.000000000000000000, 0.0000000000000000000, 0.0000000000000000000 ) ) ;
#317 = DIRECTION ( 'NONE',  ( -0.0000000000000000000, -0.0000000000000000000, -1.000000000000000000 ) ) ;
#318 = PERSON_AND_ORGANIZATION ( #564, #830 ) ;
#319 = CARTESIAN_POINT ( 'NONE',  ( 11.25000000000000000, 6.999999999999994700, 0.0000000000000000000 ) ) ;
#320 = ADVANCED_FACE ( 'NONE', ( #575 ), #550, .F. ) ;
#321 = AXIS2_PLACEMENT_3D ( 'NONE', #807, #602, #220 ) ;
#322 = CARTESIAN_POINT ( 'NONE',  ( 8.749999999999998200, 16.49999999999999600, 4.000000000000000000 ) ) ;
#323 = EDGE_LOOP ( 'NONE', ( #132, #723, #696, #655 ) ) ;
#324 = VERTEX_POINT ( 'NONE', #708 ) ;
#325 = VECTOR ( 'NONE', #757, 1000.000000000000000 ) ;
#326 = ADVANCED_FACE ( 'NONE', ( #444 ), #535, .F. ) ;
#327 = AXIS2_PLACEMENT_3D ( 'NONE', #503, #625, #559 ) ;
#328 = DIRECTION ( 'NONE',  ( -0.0000000000000000000, -0.0000000000000000000, -1.000000000000000000 ) ) ;
#329 = EDGE_LOOP ( 'NONE', ( #853, #749, #409, #285, #1, #350, #425, #839 ) ) ;
#330 = AXIS2_PLACEMENT_3D ( 'NONE', #158, #680, #482 ) ;
#331 = DIRECTION ( 'NONE',  ( -0.0000000000000000000, -0.0000000000000000000, -1.000000000000000000 ) ) ;
#332 = ADVANCED_FACE ( 'NONE', ( #222 ), #335, .F. ) ;
#333 = EDGE_CURVE ( 'NONE', #743, #168, #805, .T. ) ;
#334 = CARTESIAN_POINT ( 'NONE',  ( 12.50000000000000000, 2.999999999999996400, 4.000000000000000000 ) ) ;
#335 = PLANE ( 'NONE',  #27 ) ;
#336 = LINE ( 'NONE', #684, #428 ) ;
#337 = FACE_BOUND ( 'NONE', #639, .T. ) ;
#338 = CARTESIAN_POINT ( 'NONE',  ( 12.50000000000000000, -1.530808498934190700E-015, 4.000000000000000000 ) ) ;
#339 = VECTOR ( 'NONE', #111, 1000.000000000000000 ) ;
#340 = ORIENTED_EDGE ( 'NONE', *, *, #184, .F. ) ;
#341 = CARTESIAN_POINT ( 'NONE',  ( -13.99999999999999500, 36.50000000000000000, 4.000000000000000000 ) ) ;
#342 = COORDINATED_UNIVERSAL_TIME_OFFSET ( 1, 0, .AHEAD. ) ;
#343 = DIRECTION ( 'NONE',  ( -0.0000000000000000000, -1.000000000000000000, -0.0000000000000000000 ) ) ;
#344 = EDGE_CURVE ( 'NONE', #104, #673, #465, .T. ) ;
#345 = CC_DESIGN_PERSON_AND_ORGANIZATION_ASSIGNMENT ( #720, #856, ( #152 ) ) ;
#346 = MANIFOLD_SOLID_BREP ( 'Dodanie-wyciπgniÍcie1', #406 ) ;
#347 = AXIS2_PLACEMENT_3D ( 'NONE', #498, #163, #33 ) ;
#348 = ORIENTED_EDGE ( 'NONE', *, *, #577, .F. ) ;
#349 = EDGE_LOOP ( 'NONE', ( #525, #348, #138, #524 ) ) ;
#350 = ORIENTED_EDGE ( 'NONE', *, *, #2, .F. ) ;
#351 = CARTESIAN_POINT ( 'NONE',  ( -5.249999999999998200, 13.99999999999999800, 0.0000000000000000000 ) ) ;
#352 = ORIENTED_EDGE ( 'NONE', *, *, #79, .F. ) ;
#353 = AXIS2_PLACEMENT_3D ( 'NONE', #270, #213, #69 ) ;
#354 = CIRCLE ( 'NONE', #107, 3.500000000000001300 ) ;
#355 = ORIENTED_EDGE ( 'NONE', *, *, #66, .T. ) ;
#356 = FACE_OUTER_BOUND ( 'NONE', #467, .T. ) ;
#357 = VERTEX_POINT ( 'NONE', #837 ) ;
#358 = CARTESIAN_POINT ( 'NONE',  ( -15.49999999999999800, 36.50000000000000000, 4.000000000000000000 ) ) ;
#359 = PLANE ( 'NONE',  #87 ) ;
#360 = PERSON_AND_ORGANIZATION ( #564, #830 ) ;
#361 = DIRECTION ( 'NONE',  ( -0.0000000000000000000, 1.000000000000000000, -0.0000000000000000000 ) ) ;
#362 = ORIENTED_EDGE ( 'NONE', *, *, #245, .F. ) ;
#363 = ORIENTED_EDGE ( 'NONE', *, *, #809, .T. ) ;
#364 = LINE ( 'NONE', #563, #208 ) ;
#365 = CARTESIAN_POINT ( 'NONE',  ( -7.250000000000000000, 24.52346043299652200, 4.000000000000000000 ) ) ;
#366 = ORIENTED_EDGE ( 'NONE', *, *, #149, .T. ) ;
#367 = CARTESIAN_POINT ( 'NONE',  ( 8.749999999999998200, 8.499999999999998200, 0.0000000000000000000 ) ) ;
#368 = EDGE_CURVE ( 'NONE', #571, #605, #715, .T. ) ;
#369 = CYLINDRICAL_SURFACE ( 'NONE', #528, 13.99999999999999500 ) ;
#370 = ORIENTED_EDGE ( 'NONE', *, *, #226, .F. ) ;
#371 = ORIENTED_EDGE ( 'NONE', *, *, #402, .F. ) ;
#372 = VECTOR ( 'NONE', #32, 1000.000000000000000 ) ;
#373 = ORIENTED_EDGE ( 'NONE', *, *, #616, .F. ) ;
#374 = VECTOR ( 'NONE', #772, 1000.000000000000200 ) ;
#375 = CARTESIAN_POINT ( 'NONE',  ( 8.749999999999998200, 16.49999999999999600, 4.000000000000000000 ) ) ;
#376 = DIRECTION ( 'NONE',  ( 1.000000000000000000, 0.0000000000000000000, -0.0000000000000000000 ) ) ;
#377 = CARTESIAN_POINT ( 'NONE',  ( 0.0000000000000000000, 36.50000000000000000, 0.0000000000000000000 ) ) ;
#378 = CARTESIAN_POINT ( 'NONE',  ( -1.750000000000000200, 13.99999999999999800, 0.0000000000000000000 ) ) ;
#379 = EDGE_CURVE ( 'NONE', #614, #631, #299, .T. ) ;
#380 = ORIENTED_EDGE ( 'NONE', *, *, #402, .T. ) ;
#381 = SECURITY_CLASSIFICATION ( '', '', #519 ) ;
#382 = EDGE_LOOP ( 'NONE', ( #127, #784, #538, #68 ) ) ;
#383 = DIRECTION ( 'NONE',  ( 0.0000000000000000000, 0.0000000000000000000, 1.000000000000000000 ) ) ;
#384 = ORIENTED_EDGE ( 'NONE', *, *, #827, .F. ) ;
#385 = CARTESIAN_POINT ( 'NONE',  ( 8.749999999999998200, 16.49999999999999600, 0.0000000000000000000 ) ) ;
#386 = CIRCLE ( 'NONE', #246, 15.49999999999999800 ) ;
#387 = ORIENTED_EDGE ( 'NONE', *, *, #171, .T. ) ;
#388 = DIRECTION ( 'NONE',  ( -0.0000000000000000000, -0.0000000000000000000, -1.000000000000000000 ) ) ;
#389 = DIRECTION ( 'NONE',  ( -0.0000000000000000000, -0.0000000000000000000, -1.000000000000000000 ) ) ;
#390 = DIRECTION ( 'NONE',  ( -0.0000000000000000000, 1.000000000000000000, -0.0000000000000000000 ) ) ;
#391 = ADVANCED_FACE ( 'NONE', ( #540 ), #131, .F. ) ;
#392 = CARTESIAN_POINT ( 'NONE',  ( -11.25000000000000000, 6.999999999999998200, 0.0000000000000000000 ) ) ;
#393 = FACE_OUTER_BOUND ( 'NONE', #443, .T. ) ;
#394 = VERTEX_POINT ( 'NONE', #47 ) ;
#395 = ORIENTED_EDGE ( 'NONE', *, *, #764, .F. ) ;
#396 = AXIS2_PLACEMENT_3D ( 'NONE', #120, #632, #399 ) ;
#397 = CARTESIAN_POINT ( 'NONE',  ( 0.0000000000000000000, 36.50000000000000000, 0.0000000000000000000 ) ) ;
#398 = LINE ( 'NONE', #682, #651 ) ;
#399 = DIRECTION ( 'NONE',  ( 1.133631464574738000E-016, -1.000000000000000000, 0.0000000000000000000 ) ) ;
#400 = ADVANCED_FACE ( 'NONE', ( #499 ), #280, .T. ) ;
#401 = DIRECTION ( 'NONE',  ( 0.0000000000000000000, 0.0000000000000000000, 1.000000000000000000 ) ) ;
#402 = EDGE_CURVE ( 'NONE', #155, #324, #92, .T. ) ;
#403 = FACE_OUTER_BOUND ( 'NONE', #139, .T. ) ;
#404 = DATE_TIME_ROLE ( 'creation_date' ) ;
#405 = ADVANCED_FACE ( 'NONE', ( #434 ), #855, .T. ) ;
#406 = CLOSED_SHELL ( 'NONE', ( #121, #573, #400, #405, #57, #645, #119, #702, #332, #840, #183, #252, #653, #49, #391, #261, #326, #130, #192, #846, #520, #580, #320, #716 ) ) ;
#407 = LINE ( 'NONE', #322, #783 ) ;
#408 = VERTEX_POINT ( 'NONE', #551 ) ;
#409 = ORIENTED_EDGE ( 'NONE', *, *, #272, .F. ) ;
#410 = CARTESIAN_POINT ( 'NONE',  ( -1.750000000000000200, 13.99999999999999800, 4.000000000000000000 ) ) ;
#411 = PERSON_AND_ORGANIZATION_ROLE ( 'design_supplier' ) ;
#412 = DIRECTION ( 'NONE',  ( 1.927470528863120300E-016, -1.000000000000000000, 0.0000000000000000000 ) ) ;
#413 = EDGE_CURVE ( 'NONE', #154, #697, #259, .T. ) ;
#414 = AXIS2_PLACEMENT_3D ( 'NONE', #61, #582, #65 ) ;
#415 = VECTOR ( 'NONE', #820, 1000.000000000000000 ) ;
#416 = ORIENTED_EDGE ( 'NONE', *, *, #480, .T. ) ;
#417 = ORIENTED_EDGE ( 'NONE', *, *, #142, .F. ) ;
#418 = CIRCLE ( 'NONE', #765, 13.99999999999999500 ) ;
#419 = ORIENTED_EDGE ( 'NONE', *, *, #149, .F. ) ;
#420 = PLANE ( 'NONE',  #330 ) ;
#421 = CARTESIAN_POINT ( 'NONE',  ( -11.25000000000000000, 6.999999999999998200, 4.000000000000000000 ) ) ;
#422 = ORIENTED_EDGE ( 'NONE', *, *, #816, .F. ) ;
#423 = VECTOR ( 'NONE', #504, 1000.000000000000000 ) ;
#424 = EDGE_CURVE ( 'NONE', #488, #324, #598, .T. ) ;
#425 = ORIENTED_EDGE ( 'NONE', *, *, #788, .F. ) ;
#426 = CC_DESIGN_PERSON_AND_ORGANIZATION_ASSIGNMENT ( #360, #133, ( #381 ) ) ;
#427 = DIRECTION ( 'NONE',  ( -0.0000000000000000000, -0.0000000000000000000, -1.000000000000000000 ) ) ;
#428 = VECTOR ( 'NONE', #439, 1000.000000000000000 ) ;
#429 = ORIENTED_EDGE ( 'NONE', *, *, #561, .T. ) ;
#430 = ORIENTED_EDGE ( 'NONE', *, *, #379, .T. ) ;
#431 = VECTOR ( 'NONE', #110, 1000.000000000000000 ) ;
#432 = CARTESIAN_POINT ( 'NONE',  ( -1.749999999999998900, 9.500000000000001800, 4.000000000000000000 ) ) ;
#433 = DIRECTION ( 'NONE',  ( 0.0000000000000000000, 0.0000000000000000000, 1.000000000000000000 ) ) ;
#434 = FACE_OUTER_BOUND ( 'NONE', #473, .T. ) ;
#435 = ORIENTED_EDGE ( 'NONE', *, *, #603, .F. ) ;
#436 = AXIS2_PLACEMENT_3D ( 'NONE', #37, #331, #109 ) ;
#437 = LOCAL_TIME ( 17, 57, 57.00000000000000000, #776 ) ;
#438 = CIRCLE ( 'NONE', #353, 15.49999999999999800 ) ;
#439 = DIRECTION ( 'NONE',  ( 1.000000000000000000, 3.081487911019577400E-032, -0.0000000000000000000 ) ) ;
#440 = CARTESIAN_POINT ( 'NONE',  ( -1.750000000000000200, 13.99999999999999800, 4.000000000000000000 ) ) ;
#441 = CARTESIAN_POINT ( 'NONE',  ( 11.25000000000000000, 25.83756594393193900, 4.000000000000000000 ) ) ;
#442 = LINE ( 'NONE', #811, #462 ) ;
#443 = EDGE_LOOP ( 'NONE', ( #429, #472, #17, #159 ) ) ;
#444 = FACE_OUTER_BOUND ( 'NONE', #93, .T. ) ;
#445 = ORIENTED_EDGE ( 'NONE', *, *, #718, .F. ) ;
#446 = ORIENTED_EDGE ( 'NONE', *, *, #451, .F. ) ;
#447 = DIRECTION ( 'NONE',  ( -1.133631464574738000E-016, 1.000000000000000000, -0.0000000000000000000 ) ) ;
#448 = CARTESIAN_POINT ( 'NONE',  ( -1.750000000000000200, 13.99999999999999800, 4.000000000000000000 ) ) ;
#449 = CALENDAR_DATE ( 2018, 5, 11 ) ;
#450 = APPROVAL_PERSON_ORGANIZATION ( #72, #568, #522 ) ;
#451 = EDGE_CURVE ( 'NONE', #793, #631, #418, .T. ) ;
#452 = AXIS2_PLACEMENT_3D ( 'NONE', #351, #6, #728 ) ;
#453 = ORIENTED_EDGE ( 'NONE', *, *, #468, .T. ) ;
#454 = ORIENTED_EDGE ( 'NONE', *, *, #664, .T. ) ;
#455 = VECTOR ( 'NONE', #744, 1000.000000000000000 ) ;
#456 = VECTOR ( 'NONE', #637, 1000.000000000000000 ) ;
#457 = ORIENTED_EDGE ( 'NONE', *, *, #368, .T. ) ;
#458 = DIRECTION ( 'NONE',  ( -0.0000000000000000000, -0.0000000000000000000, -1.000000000000000000 ) ) ;
#459 = CARTESIAN_POINT ( 'NONE',  ( -7.249999999999999100, 16.87228132326901100, 4.000000000000000000 ) ) ;
#460 = LINE ( 'NONE', #392, #858 ) ;
#461 = CARTESIAN_POINT ( 'NONE',  ( -12.50000000000000000, -1.530808498934191500E-015, 0.0000000000000000000 ) ) ;
#462 = VECTOR ( 'NONE', #292, 1000.000000000000000 ) ;
#463 = APPROVAL_ROLE ( '' ) ;
#464 = CIRCLE ( 'NONE', #646, 13.99999999999999500 ) ;
#465 = LINE ( 'NONE', #385, #481 ) ;
#466 = VERTEX_POINT ( 'NONE', #233 ) ;
#467 = EDGE_LOOP ( 'NONE', ( #362, #256, #185, #678 ) ) ;
#468 = EDGE_CURVE ( 'NONE', #614, #549, #218, .T. ) ;
#469 = PERSON_AND_ORGANIZATION ( #564, #830 ) ;
#470 = APPROVAL_ROLE ( '' ) ;
#471 = CARTESIAN_POINT ( 'NONE',  ( 0.0000000000000000000, 36.50000000000000000, 4.000000000000000000 ) ) ;
#472 = ORIENTED_EDGE ( 'NONE', *, *, #521, .F. ) ;
#473 = EDGE_LOOP ( 'NONE', ( #82, #20, #529, #231 ) ) ;
#474 = EDGE_LOOP ( 'NONE', ( #366, #38, #606, #834 ) ) ;
#475 = CIRCLE ( 'NONE', #43, 3.500000000000001300 ) ;
#476 = AXIS2_PLACEMENT_3D ( 'NONE', #683, #817, #433 ) ;
#477 = VECTOR ( 'NONE', #612, 1000.000000000000000 ) ;
#478 = EDGE_LOOP ( 'NONE', ( #209, #5, #726, #384, #84, #797, #248, #206, #419, #340 ) ) ;
#479 = LINE ( 'NONE', #365, #311 ) ;
#480 = EDGE_CURVE ( 'NONE', #631, #155, #398, .T. ) ;
#481 = VECTOR ( 'NONE', #390, 1000.000000000000000 ) ;
#482 = DIRECTION ( 'NONE',  ( 1.000000000000000000, 0.0000000000000000000, -0.0000000000000000000 ) ) ;
#483 = ORIENTED_EDGE ( 'NONE', *, *, #7, .T. ) ;
#484 = CARTESIAN_POINT ( 'NONE',  ( 8.749999999999998200, 8.500000000000000000, 4.000000000000000000 ) ) ;
#485 = CALENDAR_DATE ( 2018, 5, 11 ) ;
#486 = CARTESIAN_POINT ( 'NONE',  ( -12.50000000000000000, 2.999999999999998200, 4.000000000000000000 ) ) ;
#487 = DIRECTION ( 'NONE',  ( 0.0000000000000000000, 0.0000000000000000000, 1.000000000000000000 ) ) ;
#488 = VERTEX_POINT ( 'NONE', #85 ) ;
#489 = LINE ( 'NONE', #553, #195 ) ;
#490 = EDGE_CURVE ( 'NONE', #743, #605, #823, .T. ) ;
#491 = ORIENTED_EDGE ( 'NONE', *, *, #654, .T. ) ;
#492 = PLANE ( 'NONE',  #476 ) ;
#493 = CARTESIAN_POINT ( 'NONE',  ( -12.50000000000000000, -1.530808498934191500E-015, 4.000000000000000000 ) ) ;
#494 = DIRECTION ( 'NONE',  ( -0.0000000000000000000, -0.0000000000000000000, -1.000000000000000000 ) ) ;
#495 = DIRECTION ( 'NONE',  ( -1.499166426140970600E-016, -1.000000000000000000, -0.0000000000000000000 ) ) ;
#496 = DIRECTION ( 'NONE',  ( 0.0000000000000000000, 0.0000000000000000000, 1.000000000000000000 ) ) ;
#497 = FACE_BOUND ( 'NONE', #329, .T. ) ;
#498 = CARTESIAN_POINT ( 'NONE',  ( -8.749999999999998200, 13.99999999999999800, 4.000000000000000000 ) ) ;
#499 = FACE_OUTER_BOUND ( 'NONE', #537, .T. ) ;
#500 = CARTESIAN_POINT ( 'NONE',  ( 5.249999999999996400, 8.499999999999998200, 0.0000000000000000000 ) ) ;
#501 = DIRECTION ( 'NONE',  ( -0.0000000000000000000, -1.000000000000000000, -0.0000000000000000000 ) ) ;
#502 = DATE_AND_TIME ( #485, #633 ) ;
#503 = CARTESIAN_POINT ( 'NONE',  ( 0.0000000000000000000, 36.50000000000000000, 4.000000000000000000 ) ) ;
#504 = DIRECTION ( 'NONE',  ( -0.0000000000000000000, -0.0000000000000000000, -1.000000000000000000 ) ) ;
#505 = DATE_AND_TIME ( #847, #178 ) ;
#506 = EDGE_CURVE ( 'NONE', #99, #394, #795, .T. ) ;
#507 = CARTESIAN_POINT ( 'NONE',  ( -8.750000000000000000, 25.57125350280280800, 4.000000000000000000 ) ) ;
#508 = VERTEX_POINT ( 'NONE', #747 ) ;
#509 = ORIENTED_EDGE ( 'NONE', *, *, #103, .F. ) ;
#510 = CIRCLE ( 'NONE', #273, 3.499999999999998700 ) ;
#511 = PRODUCT ( 'roll_part_2_Domyúlna_sldprt', 'roll_part_2_Domyúlna_sldprt', '', ( #202 ) ) ;
#512 = DIRECTION ( 'NONE',  ( 0.0000000000000000000, 0.0000000000000000000, 1.000000000000000000 ) ) ;
#513 = DIRECTION ( 'NONE',  ( -0.0000000000000000000, -0.0000000000000000000, -1.000000000000000000 ) ) ;
#514 = DIRECTION ( 'NONE',  ( 1.000000000000000000, 0.0000000000000000000, 0.0000000000000000000 ) ) ;
#515 = CARTESIAN_POINT ( 'NONE',  ( 5.249999999999996400, 8.499999999999998200, 4.000000000000000000 ) ) ;
#516 = FACE_OUTER_BOUND ( 'NONE', #141, .T. ) ;
#517 = AXIS2_PLACEMENT_3D ( 'NONE', #117, #257, #713 ) ;
#518 = VECTOR ( 'NONE', #148, 1000.000000000000000 ) ;
#519 = SECURITY_CLASSIFICATION_LEVEL ( 'unclassified' ) ;
#520 = ADVANCED_FACE ( 'NONE', ( #3 ), #115, .F. ) ;
#521 = EDGE_CURVE ( 'NONE', #710, #207, #53, .T. ) ;
#522 = APPROVAL_ROLE ( '' ) ;
#523 = EDGE_CURVE ( 'NONE', #83, #662, #479, .T. ) ;
#524 = ORIENTED_EDGE ( 'NONE', *, *, #490, .T. ) ;
#525 = ORIENTED_EDGE ( 'NONE', *, *, #607, .T. ) ;
#526 = EDGE_LOOP ( 'NONE', ( #113, #50, #533, #232 ) ) ;
#527 = PLANE ( 'NONE',  #798 ) ;
#528 = AXIS2_PLACEMENT_3D ( 'NONE', #542, #80, #145 ) ;
#529 = ORIENTED_EDGE ( 'NONE', *, *, #738, .T. ) ;
#530 =( NAMED_UNIT ( * ) SI_UNIT ( $, .STERADIAN. ) SOLID_ANGLE_UNIT ( ) );
#531 = EDGE_CURVE ( 'NONE', #662, #300, #650, .T. ) ;
#532 = VECTOR ( 'NONE', #199, 1000.000000000000000 ) ;
#533 = ORIENTED_EDGE ( 'NONE', *, *, #539, .T. ) ;
#534 = CIRCLE ( 'NONE', #812, 15.49999999999999800 ) ;
#535 = CYLINDRICAL_SURFACE ( 'NONE', #436, 13.99999999999999500 ) ;
#536 = DIRECTION ( 'NONE',  ( 1.000000000000000000, 0.0000000000000000000, 0.0000000000000000000 ) ) ;
#537 = EDGE_LOOP ( 'NONE', ( #373, #792, #279, #144 ) ) ;
#538 = ORIENTED_EDGE ( 'NONE', *, *, #681, .F. ) ;
#539 = EDGE_CURVE ( 'NONE', #235, #104, #258, .T. ) ;
#540 = FACE_OUTER_BOUND ( 'NONE', #75, .T. ) ;
#541 = ORIENTED_EDGE ( 'NONE', *, *, #623, .F. ) ;
#542 = CARTESIAN_POINT ( 'NONE',  ( 0.0000000000000000000, 36.50000000000000000, 4.000000000000000000 ) ) ;
#543 =( GEOMETRIC_REPRESENTATION_CONTEXT ( 3 ) GLOBAL_UNCERTAINTY_ASSIGNED_CONTEXT ( ( #593 ) ) GLOBAL_UNIT_ASSIGNED_CONTEXT ( ( #71, #136, #530 ) ) REPRESENTATION_CONTEXT ( 'NONE', 'WORKASPACE' ) );
#544 = ORIENTED_EDGE ( 'NONE', *, *, #490, .F. ) ;
#545 = CARTESIAN_POINT ( 'NONE',  ( -11.25000000000000000, 6.999999999999998200, 4.000000000000000000 ) ) ;
#546 = EDGE_CURVE ( 'NONE', #794, #300, #770, .T. ) ;
#547 = CARTESIAN_POINT ( 'NONE',  ( -11.25000000000000000, 6.999999999999998200, 4.000000000000000000 ) ) ;
#548 = ORIENTED_EDGE ( 'NONE', *, *, #451, .T. ) ;
#549 = VERTEX_POINT ( 'NONE', #239 ) ;
#550 = CYLINDRICAL_SURFACE ( 'NONE', #517, 3.500000000000000400 ) ;
#551 = CARTESIAN_POINT ( 'NONE',  ( -1.750000000000000200, 13.99999999999999800, 4.000000000000000000 ) ) ;
#552 = AXIS2_PLACEMENT_3D ( 'NONE', #45, #767, #842 ) ;
#553 = CARTESIAN_POINT ( 'NONE',  ( -13.99999999999999500, 36.50000000000000000, 4.000000000000000000 ) ) ;
#554 = CARTESIAN_POINT ( 'NONE',  ( 12.50000000000000000, 2.999999999999996400, 4.000000000000000000 ) ) ;
#555 = CARTESIAN_POINT ( 'NONE',  ( 0.0000000000000000000, 36.50000000000000000, 4.000000000000000000 ) ) ;
#556 = CARTESIAN_POINT ( 'NONE',  ( -11.24999999999999300, 25.83756594393193100, 4.000000000000000000 ) ) ;
#557 = VECTOR ( 'NONE', #361, 1000.000000000000000 ) ;
#558 = ORIENTED_EDGE ( 'NONE', *, *, #654, .F. ) ;
#559 = DIRECTION ( 'NONE',  ( -1.000000000000000000, 0.0000000000000000000, 0.0000000000000000000 ) ) ;
#560 = CARTESIAN_POINT ( 'NONE',  ( 11.25000000000000000, 6.999999999999994700, 4.000000000000000000 ) ) ;
#561 = EDGE_CURVE ( 'NONE', #802, #207, #157, .T. ) ;
#562 = ORIENTED_EDGE ( 'NONE', *, *, #705, .F. ) ;
#563 = CARTESIAN_POINT ( 'NONE',  ( 11.25000000000000000, 25.83756594393193900, 4.000000000000000000 ) ) ;
#564 = PERSON ( 'UNSPECIFIED', 'UNSPECIFIED', 'UNSPECIFIED', ('UNSPECIFIED'), ('UNSPECIFIED'), ('UNSPECIFIED') ) ;
#565 = VECTOR ( 'NONE', #389, 1000.000000000000000 ) ;
#566 = CARTESIAN_POINT ( 'NONE',  ( -12.50000000000000000, -1.530808498934191500E-015, 4.000000000000000000 ) ) ;
#567 = COORDINATED_UNIVERSAL_TIME_OFFSET ( 1, 0, .AHEAD. ) ;
#568 = APPROVAL ( #587, 'UNSPECIFIED' ) ;
#569 = CARTESIAN_POINT ( 'NONE',  ( 0.0000000000000000000, 36.50000000000000000, 0.0000000000000000000 ) ) ;
#570 = DIRECTION ( 'NONE',  ( -1.000000000000000000, 0.0000000000000000000, 0.0000000000000000000 ) ) ;
#571 = VERTEX_POINT ( 'NONE', #766 ) ;
#572 = ORIENTED_EDGE ( 'NONE', *, *, #184, .T. ) ;
#573 = ADVANCED_FACE ( 'NONE', ( #356 ), #732, .F. ) ;
#574 = DIRECTION ( 'NONE',  ( 1.000000000000000000, 0.0000000000000000000, 0.0000000000000000000 ) ) ;
#575 = FACE_OUTER_BOUND ( 'NONE', #836, .T. ) ;
#576 = CARTESIAN_POINT ( 'NONE',  ( -11.25000000000000000, 6.999999999999998200, 4.000000000000000000 ) ) ;
#577 = EDGE_CURVE ( 'NONE', #168, #773, #364, .T. ) ;
#578 = CARTESIAN_POINT ( 'NONE',  ( -1.750000000000000200, 13.99999999999999800, 0.0000000000000000000 ) ) ;
#579 = CALENDAR_DATE ( 2018, 5, 11 ) ;
#580 = ADVANCED_FACE ( 'NONE', ( #677 ), #44, .T. ) ;
#581 = PERSON_AND_ORGANIZATION_ROLE ( 'creator' ) ;
#582 = DIRECTION ( 'NONE',  ( 1.000000000000000000, 0.0000000000000000000, 0.0000000000000000000 ) ) ;
#583 = VECTOR ( 'NONE', #736, 1000.000000000000000 ) ;
#584 = CARTESIAN_POINT ( 'NONE',  ( 0.0000000000000000000, 36.50000000000000000, 4.000000000000000000 ) ) ;
#585 = ORIENTED_EDGE ( 'NONE', *, *, #480, .F. ) ;
#586 = VECTOR ( 'NONE', #494, 1000.000000000000000 ) ;
#587 = APPROVAL_STATUS ( 'not_yet_approved' ) ;
#588 = ORIENTED_EDGE ( 'NONE', *, *, #86, .T. ) ;
#589 = CARTESIAN_POINT ( 'NONE',  ( -11.25000000000000000, 6.999999999999998200, 0.0000000000000000000 ) ) ;
#590 = CC_DESIGN_DATE_AND_TIME_ASSIGNMENT ( #505, #63, ( #381 ) ) ;
#591 = DIRECTION ( 'NONE',  ( 1.000000000000000000, 0.0000000000000000000, 0.0000000000000000000 ) ) ;
#592 = CARTESIAN_POINT ( 'NONE',  ( 0.0000000000000000000, 36.50000000000000000, 4.000000000000000000 ) ) ;
#593 = UNCERTAINTY_MEASURE_WITH_UNIT (LENGTH_MEASURE( 1.000000000000000100E-005 ), #71, 'distance_accuracy_value', 'NONE');
#594 = VECTOR ( 'NONE', #161, 1000.000000000000000 ) ;
#595 = ORIENTED_EDGE ( 'NONE', *, *, #308, .T. ) ;
#596 = ORIENTED_EDGE ( 'NONE', *, *, #66, .F. ) ;
#597 = CYLINDRICAL_SURFACE ( 'NONE', #675, 15.49999999999999800 ) ;
#598 = LINE ( 'NONE', #432, #54 ) ;
#599 = ORIENTED_EDGE ( 'NONE', *, *, #86, .F. ) ;
#600 = CIRCLE ( 'NONE', #452, 3.499999999999998700 ) ;
#601 = AXIS2_PLACEMENT_3D ( 'NONE', #201, #124, #591 ) ;
#602 = DIRECTION ( 'NONE',  ( 0.9544799780350297100, -0.2982749931359470800, 0.0000000000000000000 ) ) ;
#603 = EDGE_CURVE ( 'NONE', #762, #793, #489, .T. ) ;
#604 = VECTOR ( 'NONE', #151, 1000.000000000000000 ) ;
#605 = VERTEX_POINT ( 'NONE', #319 ) ;
#606 = ORIENTED_EDGE ( 'NONE', *, *, #171, .F. ) ;
#607 = EDGE_CURVE ( 'NONE', #605, #773, #838, .T. ) ;
#608 = LOCAL_TIME ( 17, 57, 57.00000000000000000, #786 ) ;
#609 = DIRECTION ( 'NONE',  ( -0.0000000000000000000, -0.0000000000000000000, -1.000000000000000000 ) ) ;
#610 = PLANE ( 'NONE',  #321 ) ;
#611 = DIRECTION ( 'NONE',  ( -1.000000000000000000, 0.0000000000000000000, 0.0000000000000000000 ) ) ;
#612 = DIRECTION ( 'NONE',  ( -0.0000000000000000000, -1.000000000000000000, -0.0000000000000000000 ) ) ;
#613 = LINE ( 'NONE', #288, #518 ) ;
#614 = VERTEX_POINT ( 'NONE', #507 ) ;
#615 = VERTEX_POINT ( 'NONE', #312 ) ;
#616 = EDGE_CURVE ( 'NONE', #204, #99, #170, .T. ) ;
#617 = DIRECTION ( 'NONE',  ( 1.000000000000000000, 0.0000000000000000000, 0.0000000000000000000 ) ) ;
#618 = DIRECTION ( 'NONE',  ( 0.2982749931359470800, -0.9544799780350296000, 0.0000000000000000000 ) ) ;
#619 = AXIS2_PLACEMENT_3D ( 'NONE', #515, #190, #850 ) ;
#620 = VECTOR ( 'NONE', #328, 1000.000000000000000 ) ;
#621 = ORIENTED_EDGE ( 'NONE', *, *, #667, .T. ) ;
#622 = DIRECTION ( 'NONE',  ( 1.000000000000000000, 0.0000000000000000000, 0.0000000000000000000 ) ) ;
#623 = EDGE_CURVE ( 'NONE', #710, #154, #278, .T. ) ;
#624 = CARTESIAN_POINT ( 'NONE',  ( 11.25000000000000000, 6.999999999999994700, 4.000000000000000000 ) ) ;
#625 = DIRECTION ( 'NONE',  ( -0.0000000000000000000, -0.0000000000000000000, -1.000000000000000000 ) ) ;
#626 = LINE ( 'NONE', #126, #73 ) ;
#627 = FACE_BOUND ( 'NONE', #266, .T. ) ;
#628 = VECTOR ( 'NONE', #23, 1000.000000000000000 ) ;
#629 = DIRECTION ( 'NONE',  ( 0.0000000000000000000, 0.0000000000000000000, 1.000000000000000000 ) ) ;
#630 = CARTESIAN_POINT ( 'NONE',  ( -5.249999999999998200, 9.500000000000001800, 4.000000000000000000 ) ) ;
#631 = VERTEX_POINT ( 'NONE', #96 ) ;
#632 = DIRECTION ( 'NONE',  ( -1.000000000000000000, -1.133631464574738000E-016, 0.0000000000000000000 ) ) ;
#633 = LOCAL_TIME ( 17, 57, 57.00000000000000000, #342 ) ;
#634 = EDGE_CURVE ( 'NONE', #773, #466, #534, .T. ) ;
#635 = AXIS2_PLACEMENT_3D ( 'NONE', #106, #835, #177 ) ;
#636 = DIRECTION ( 'NONE',  ( 0.0000000000000000000, 0.0000000000000000000, 1.000000000000000000 ) ) ;
#637 = DIRECTION ( 'NONE',  ( 0.0000000000000000000, 1.000000000000000000, 0.0000000000000000000 ) ) ;
#638 = ORIENTED_EDGE ( 'NONE', *, *, #616, .T. ) ;
#639 = EDGE_LOOP ( 'NONE', ( #596, #781, #78, #269 ) ) ;
#640 = DIRECTION ( 'NONE',  ( 0.0000000000000000000, 0.0000000000000000000, 1.000000000000000000 ) ) ;
#641 = ORIENTED_EDGE ( 'NONE', *, *, #725, .T. ) ;
#642 = DIRECTION ( 'NONE',  ( -1.927470528863120300E-016, 1.000000000000000000, -0.0000000000000000000 ) ) ;
#643 = DIRECTION ( 'NONE',  ( 1.000000000000000000, 0.0000000000000000000, 0.0000000000000000000 ) ) ;
#644 = CARTESIAN_POINT ( 'NONE',  ( 12.50000000000000000, -1.530808498934190700E-015, 4.000000000000000000 ) ) ;
#645 = ADVANCED_FACE ( 'NONE', ( #627, #814, #804 ), #175, .F. ) ;
#646 = AXIS2_PLACEMENT_3D ( 'NONE', #569, #849, #51 ) ;
#647 = DIRECTION ( 'NONE',  ( -1.000000000000000000, 0.0000000000000000000, 0.0000000000000000000 ) ) ;
#648 = FACE_OUTER_BOUND ( 'NONE', #55, .T. ) ;
#649 = ORIENTED_EDGE ( 'NONE', *, *, #634, .T. ) ;
#650 = LINE ( 'NONE', #162, #687 ) ;
#651 = VECTOR ( 'NONE', #166, 1000.000000000000000 ) ;
#652 = DIRECTION ( 'NONE',  ( -0.0000000000000000000, -0.0000000000000000000, -1.000000000000000000 ) ) ;
#653 = ADVANCED_FACE ( 'NONE', ( #76 ), #597, .T. ) ;
#654 = EDGE_CURVE ( 'NONE', #408, #734, #751, .T. ) ;
#655 = ORIENTED_EDGE ( 'NONE', *, *, #282, .T. ) ;
#656 = APPROVAL_STATUS ( 'not_yet_approved' ) ;
#657 = DIRECTION ( 'NONE',  ( 1.000000000000000000, 0.0000000000000000000, 0.0000000000000000000 ) ) ;
#658 = AXIS2_PLACEMENT_3D ( 'NONE', #16, #487, #536 ) ;
#659 = PERSON_AND_ORGANIZATION ( #564, #830 ) ;
#660 = APPROVAL_STATUS ( 'not_yet_approved' ) ;
#661 = ORIENTED_EDGE ( 'NONE', *, *, #219, .F. ) ;
#662 = VERTEX_POINT ( 'NONE', #249 ) ;
#663 = ORIENTED_EDGE ( 'NONE', *, *, #754, .T. ) ;
#664 = EDGE_CURVE ( 'NONE', #99, #243, #386, .T. ) ;
#665 = AXIS2_PLACEMENT_3D ( 'NONE', #410, #134, #412 ) ;
#666 = CALENDAR_DATE ( 2018, 5, 11 ) ;
#667 = EDGE_CURVE ( 'NONE', #309, #169, #18, .T. ) ;
#668 = LINE ( 'NONE', #229, #594 ) ;
#669 = VECTOR ( 'NONE', #296, 1000.000000000000000 ) ;
#670 = APPROVAL_DATE_TIME ( #808, #843 ) ;
#671 = ORIENTED_EDGE ( 'NONE', *, *, #13, .T. ) ;
#672 = DIRECTION ( 'NONE',  ( -0.0000000000000000000, -0.0000000000000000000, -1.000000000000000000 ) ) ;
#673 = VERTEX_POINT ( 'NONE', #780 ) ;
#674 = CARTESIAN_POINT ( 'NONE',  ( 12.50000000000000000, 2.999999999999996400, 4.000000000000000000 ) ) ;
#675 = AXIS2_PLACEMENT_3D ( 'NONE', #305, #819, #108 ) ;
#676 = EDGE_LOOP ( 'NONE', ( #297, #274, #395, #621 ) ) ;
#677 = FACE_OUTER_BOUND ( 'NONE', #118, .T. ) ;
#678 = ORIENTED_EDGE ( 'NONE', *, *, #123, .F. ) ;
#679 = SHAPE_DEFINITION_REPRESENTATION ( #831, #271 ) ;
#680 = DIRECTION ( 'NONE',  ( 0.0000000000000000000, 0.0000000000000000000, 1.000000000000000000 ) ) ;
#681 = EDGE_CURVE ( 'NONE', #300, #508, #464, .T. ) ;
#682 = CARTESIAN_POINT ( 'NONE',  ( -8.749999999999998200, 13.99999999999999800, 0.0000000000000000000 ) ) ;
#683 = CARTESIAN_POINT ( 'NONE',  ( 11.25000000000000000, 6.999999999999994700, 4.000000000000000000 ) ) ;
#684 = CARTESIAN_POINT ( 'NONE',  ( 12.50000000000000000, -1.530808498934190700E-015, 0.0000000000000000000 ) ) ;
#685 = LINE ( 'NONE', #689, #253 ) ;
#686 = LINE ( 'NONE', #421, #477 ) ;
#687 = VECTOR ( 'NONE', #291, 1000.000000000000000 ) ;
#688 = CARTESIAN_POINT ( 'NONE',  ( 5.249999999999995600, 16.49999999999999600, 4.000000000000000000 ) ) ;
#689 = CARTESIAN_POINT ( 'NONE',  ( 12.50000000000000000, -1.530808498934190700E-015, 4.000000000000000000 ) ) ;
#690 = AXIS2_PLACEMENT_3D ( 'NONE', #471, #790, #275 ) ;
#691 = CIRCLE ( 'NONE', #619, 3.500000000000000400 ) ;
#692 = CARTESIAN_POINT ( 'NONE',  ( -12.50000000000000000, 2.999999999999998200, 0.0000000000000000000 ) ) ;
#693 = DIRECTION ( 'NONE',  ( -0.0000000000000000000, -0.0000000000000000000, -1.000000000000000000 ) ) ;
#694 = CARTESIAN_POINT ( 'NONE',  ( 12.50000000000000000, -1.530808498934190700E-015, 4.000000000000000000 ) ) ;
#695 = ORIENTED_EDGE ( 'NONE', *, *, #705, .T. ) ;
#696 = ORIENTED_EDGE ( 'NONE', *, *, #42, .T. ) ;
#697 = VERTEX_POINT ( 'NONE', #461 ) ;
#698 = FACE_OUTER_BOUND ( 'NONE', #281, .T. ) ;
#699 = ORIENTED_EDGE ( 'NONE', *, *, #103, .T. ) ;
#700 = CARTESIAN_POINT ( 'NONE',  ( 0.0000000000000000000, 36.50000000000000000, 4.000000000000000000 ) ) ;
#701 = ORIENTED_EDGE ( 'NONE', *, *, #128, .F. ) ;
#702 = ADVANCED_FACE ( 'NONE', ( #698 ), #56, .F. ) ;
#703 = CARTESIAN_POINT ( 'NONE',  ( -7.249999999999999100, 16.87228132326901100, 0.0000000000000000000 ) ) ;
#704 = CARTESIAN_POINT ( 'NONE',  ( -11.24999999999999300, 25.83756594393193100, 0.0000000000000000000 ) ) ;
#705 = EDGE_CURVE ( 'NONE', #549, #155, #626, .T. ) ;
#706 = APPROVAL ( #660, 'UNSPECIFIED' ) ;
#707 = DIRECTION ( 'NONE',  ( 1.000000000000000000, 0.0000000000000000000, 0.0000000000000000000 ) ) ;
#708 = CARTESIAN_POINT ( 'NONE',  ( -1.749999999999998900, 9.500000000000001800, 0.0000000000000000000 ) ) ;
#709 = CYLINDRICAL_SURFACE ( 'NONE', #143, 3.499999999999998700 ) ;
#710 = VERTEX_POINT ( 'NONE', #711 ) ;
#711 = CARTESIAN_POINT ( 'NONE',  ( -12.50000000000000000, 2.999999999999998200, 4.000000000000000000 ) ) ;
#712 = ORIENTED_EDGE ( 'NONE', *, *, #521, .T. ) ;
#713 = DIRECTION ( 'NONE',  ( -1.000000000000000000, 0.0000000000000000000, 0.0000000000000000000 ) ) ;
#714 = VECTOR ( 'NONE', #34, 1000.000000000000000 ) ;
#715 = LINE ( 'NONE', #187, #374 ) ;
#716 = ADVANCED_FACE ( 'NONE', ( #217 ), #717, .T. ) ;
#717 = PLANE ( 'NONE',  #164 ) ;
#718 = EDGE_CURVE ( 'NONE', #168, #204, #10, .T. ) ;
#719 = APPLICATION_CONTEXT ( 'configuration controlled 3d designs of mechanical parts and assemblies' ) ;
#720 = PERSON_AND_ORGANIZATION ( #564, #830 ) ;
#721 = ORIENTED_EDGE ( 'NONE', *, *, #219, .T. ) ;
#722 = DESIGN_CONTEXT ( 'detailed design', #778, 'design' ) ;
#723 = ORIENTED_EDGE ( 'NONE', *, *, #174, .F. ) ;
#724 = DIRECTION ( 'NONE',  ( 0.0000000000000000000, 0.0000000000000000000, 1.000000000000000000 ) ) ;
#725 = EDGE_CURVE ( 'NONE', #408, #83, #510, .T. ) ;
#726 = ORIENTED_EDGE ( 'NONE', *, *, #738, .F. ) ;
#727 = PLANE ( 'NONE',  #665 ) ;
#728 = DIRECTION ( 'NONE',  ( 1.000000000000000000, 0.0000000000000000000, 0.0000000000000000000 ) ) ;
#729 = LINE ( 'NONE', #378, #214 ) ;
#730 = ORIENTED_EDGE ( 'NONE', *, *, #764, .T. ) ;
#731 = EDGE_LOOP ( 'NONE', ( #205, #193, #223, #815 ) ) ;
#732 = CYLINDRICAL_SURFACE ( 'NONE', #327, 13.99999999999999500 ) ;
#733 = CIRCLE ( 'NONE', #186, 15.49999999999999800 ) ;
#734 = VERTEX_POINT ( 'NONE', #578 ) ;
#735 = AXIS2_PLACEMENT_3D ( 'NONE', #62, #652, #774 ) ;
#736 = DIRECTION ( 'NONE',  ( -0.0000000000000000000, -0.0000000000000000000, -1.000000000000000000 ) ) ;
#737 = APPROVAL_DATE_TIME ( #64, #706 ) ;
#738 = EDGE_CURVE ( 'NONE', #394, #315, #733, .T. ) ;
#739 = DIRECTION ( 'NONE',  ( 0.0000000000000000000, 0.0000000000000000000, -1.000000000000000000 ) ) ;
#740 = CIRCLE ( 'NONE', #658, 13.99999999999999500 ) ;
#741 = ORIENTED_EDGE ( 'NONE', *, *, #424, .F. ) ;
#742 = LINE ( 'NONE', #448, #314 ) ;
#743 = VERTEX_POINT ( 'NONE', #196 ) ;
#744 = DIRECTION ( 'NONE',  ( -0.0000000000000000000, -0.0000000000000000000, -1.000000000000000000 ) ) ;
#745 = CARTESIAN_POINT ( 'NONE',  ( 1.749999999999994700, 16.49999999999999600, 4.000000000000000000 ) ) ;
#746 = CIRCLE ( 'NONE', #11, 3.499999999999999600 ) ;
#747 = CARTESIAN_POINT ( 'NONE',  ( 13.99999999999999500, 36.50000000000000000, 0.0000000000000000000 ) ) ;
#748 = CARTESIAN_POINT ( 'NONE',  ( 15.49999999999999800, 36.50000000000000000, 4.000000000000000000 ) ) ;
#749 = ORIENTED_EDGE ( 'NONE', *, *, #725, .F. ) ;
#750 = ORIENTED_EDGE ( 'NONE', *, *, #623, .T. ) ;
#751 = LINE ( 'NONE', #440, #714 ) ;
#752 = LINE ( 'NONE', #748, #286 ) ;
#753 = ORIENTED_EDGE ( 'NONE', *, *, #539, .F. ) ;
#754 = EDGE_CURVE ( 'NONE', #549, #488, #746, .T. ) ;
#755 = DIRECTION ( 'NONE',  ( -0.0000000000000000000, -0.0000000000000000000, -1.000000000000000000 ) ) ;
#756 = CIRCLE ( 'NONE', #137, 13.99999999999999500 ) ;
#757 = DIRECTION ( 'NONE',  ( -0.0000000000000000000, -1.000000000000000000, -0.0000000000000000000 ) ) ;
#758 = DIRECTION ( 'NONE',  ( 1.000000000000000000, 0.0000000000000000000, 0.0000000000000000000 ) ) ;
#759 = EDGE_CURVE ( 'NONE', #15, #571, #125, .T. ) ;
#760 = LINE ( 'NONE', #24, #583 ) ;
#761 = ORIENTED_EDGE ( 'NONE', *, *, #681, .T. ) ;
#762 = VERTEX_POINT ( 'NONE', #341 ) ;
#763 = DIRECTION ( 'NONE',  ( -3.081487911019577400E-032, 1.000000000000000000, 0.0000000000000000000 ) ) ;
#764 = EDGE_CURVE ( 'NONE', #309, #15, #25, .T. ) ;
#765 = AXIS2_PLACEMENT_3D ( 'NONE', #88, #160, #617 ) ;
#766 = CARTESIAN_POINT ( 'NONE',  ( 12.50000000000000000, 2.999999999999996400, 0.0000000000000000000 ) ) ;
#767 = DIRECTION ( 'NONE',  ( -0.0000000000000000000, -0.0000000000000000000, -1.000000000000000000 ) ) ;
#768 = VECTOR ( 'NONE', #755, 1000.000000000000000 ) ;
#769 = ORIENTED_EDGE ( 'NONE', *, *, #816, .T. ) ;
#770 = LINE ( 'NONE', #39, #129 ) ;
#771 = DIRECTION ( 'NONE',  ( 1.000000000000000000, 0.0000000000000000000, 0.0000000000000000000 ) ) ;
#772 = DIRECTION ( 'NONE',  ( -0.2982749931359470800, 0.9544799780350296000, 0.0000000000000000000 ) ) ;
#773 = VERTEX_POINT ( 'NONE', #200 ) ;
#774 = DIRECTION ( 'NONE',  ( -1.000000000000000000, 0.0000000000000000000, 0.0000000000000000000 ) ) ;
#775 = CARTESIAN_POINT ( 'NONE',  ( 5.249999999999995600, 16.49999999999999600, 4.000000000000000000 ) ) ;
#776 = COORDINATED_UNIVERSAL_TIME_OFFSET ( 1, 0, .AHEAD. ) ;
#777 = CARTESIAN_POINT ( 'NONE',  ( -5.249999999999998200, 13.99999999999999800, 4.000000000000000000 ) ) ;
#778 = APPLICATION_CONTEXT ( 'configuration controlled 3d designs of mechanical parts and assemblies' ) ;
#779 = LINE ( 'NONE', #745, #604 ) ;
#780 = CARTESIAN_POINT ( 'NONE',  ( 8.749999999999998200, 16.49999999999999600, 0.0000000000000000000 ) ) ;
#781 = ORIENTED_EDGE ( 'NONE', *, *, #782, .F. ) ;
#782 = EDGE_CURVE ( 'NONE', #216, #194, #475, .T. ) ;
#783 = VECTOR ( 'NONE', #182, 1000.000000000000000 ) ;
#784 = ORIENTED_EDGE ( 'NONE', *, *, #245, .T. ) ;
#785 = DIRECTION ( 'NONE',  ( 0.0000000000000000000, 0.0000000000000000000, 1.000000000000000000 ) ) ;
#786 = COORDINATED_UNIVERSAL_TIME_OFFSET ( 1, 0, .AHEAD. ) ;
#787 = CARTESIAN_POINT ( 'NONE',  ( 0.0000000000000000000, 0.0000000000000000000, 0.0000000000000000000 ) ) ;
#788 = EDGE_CURVE ( 'NONE', #357, #762, #756, .T. ) ;
#789 = PERSON_AND_ORGANIZATION_ROLE ( 'design_owner' ) ;
#790 = DIRECTION ( 'NONE',  ( 0.0000000000000000000, 0.0000000000000000000, 1.000000000000000000 ) ) ;
#791 = AXIS2_PLACEMENT_3D ( 'NONE', #377, #496, #622 ) ;
#792 = ORIENTED_EDGE ( 'NONE', *, *, #226, .T. ) ;
#793 = VERTEX_POINT ( 'NONE', #116 ) ;
#794 = VERTEX_POINT ( 'NONE', #703 ) ;
#795 = LINE ( 'NONE', #236, #455 ) ;
#796 = LINE ( 'NONE', #547, #339 ) ;
#797 = ORIENTED_EDGE ( 'NONE', *, *, #607, .F. ) ;
#798 = AXIS2_PLACEMENT_3D ( 'NONE', #140, #267, #785 ) ;
#799 = FACE_OUTER_BOUND ( 'NONE', #676, .T. ) ;
#800 = EDGE_CURVE ( 'NONE', #662, #357, #303, .T. ) ;
#801 = FACE_OUTER_BOUND ( 'NONE', #70, .T. ) ;
#802 = VERTEX_POINT ( 'NONE', #589 ) ;
#803 = CARTESIAN_POINT ( 'NONE',  ( 8.749999999999998200, 16.49999999999999600, 4.000000000000000000 ) ) ;
#804 = FACE_BOUND ( 'NONE', #526, .T. ) ;
#805 = LINE ( 'NONE', #560, #456 ) ;
#806 = EDGE_LOOP ( 'NONE', ( #585, #277, #453, #695 ) ) ;
#807 = CARTESIAN_POINT ( 'NONE',  ( -12.50000000000000000, 2.999999999999998200, 4.000000000000000000 ) ) ;
#808 = DATE_AND_TIME ( #449, #608 ) ;
#809 = EDGE_CURVE ( 'NONE', #315, #802, #460, .T. ) ;
#810 = DIRECTION ( 'NONE',  ( -0.0000000000000000000, -0.0000000000000000000, -1.000000000000000000 ) ) ;
#811 = CARTESIAN_POINT ( 'NONE',  ( 1.749999999999994700, 16.49999999999999600, 4.000000000000000000 ) ) ;
#812 = AXIS2_PLACEMENT_3D ( 'NONE', #181, #629, #316 ) ;
#813 = ORIENTED_EDGE ( 'NONE', *, *, #79, .T. ) ;
#814 = FACE_OUTER_BOUND ( 'NONE', #478, .T. ) ;
#815 = ORIENTED_EDGE ( 'NONE', *, *, #531, .T. ) ;
#816 = EDGE_CURVE ( 'NONE', #734, #794, #600, .T. ) ;
#817 = DIRECTION ( 'NONE',  ( -1.000000000000000000, 0.0000000000000000000, 0.0000000000000000000 ) ) ;
#818 = CARTESIAN_POINT ( 'NONE',  ( -12.50000000000000000, -1.530808498934191500E-015, 0.0000000000000000000 ) ) ;
#819 = DIRECTION ( 'NONE',  ( -0.0000000000000000000, -0.0000000000000000000, -1.000000000000000000 ) ) ;
#820 = DIRECTION ( 'NONE',  ( 2.168404344971009400E-016, -1.000000000000000000, 0.0000000000000000000 ) ) ;
#821 = AXIS2_PLACEMENT_3D ( 'NONE', #555, #383, #832 ) ;
#822 = LINE ( 'NONE', #803, #557 ) ;
#823 = LINE ( 'NONE', #624, #628 ) ;
#824 = ORIENTED_EDGE ( 'NONE', *, *, #294, .T. ) ;
#825 = CARTESIAN_POINT ( 'NONE',  ( 12.50000000000000000, -1.530808498934190700E-015, 4.000000000000000000 ) ) ;
#826 = CARTESIAN_POINT ( 'NONE',  ( 5.249999999999995600, 16.49999999999999600, 0.0000000000000000000 ) ) ;
#827 = EDGE_CURVE ( 'NONE', #466, #394, #438, .T. ) ;
#828 = AXIS2_PLACEMENT_3D ( 'NONE', #554, #29, #618 ) ;
#829 = DIRECTION ( 'NONE',  ( -0.0000000000000000000, -0.0000000000000000000, -1.000000000000000000 ) ) ;
#830 = ORGANIZATION ( 'UNSPECIFIED', 'UNSPECIFIED', '' ) ;
#831 = PRODUCT_DEFINITION_SHAPE ( 'NONE', 'NONE',  #146 ) ;
#832 = DIRECTION ( 'NONE',  ( 1.000000000000000000, 0.0000000000000000000, 0.0000000000000000000 ) ) ;
#833 = ORIENTED_EDGE ( 'NONE', *, *, #31, .T. ) ;
#834 = ORIENTED_EDGE ( 'NONE', *, *, #413, .T. ) ;
#835 = DIRECTION ( 'NONE',  ( 1.000000000000000000, 2.168404344971009400E-016, -0.0000000000000000000 ) ) ;
#836 = EDGE_LOOP ( 'NONE', ( #753, #509, #595, #156 ) ) ;
#837 = CARTESIAN_POINT ( 'NONE',  ( 13.99999999999999500, 36.50000000000000000, 4.000000000000000000 ) ) ;
#838 = LINE ( 'NONE', #247, #372 ) ;
#839 = ORIENTED_EDGE ( 'NONE', *, *, #800, .F. ) ;
#840 = ADVANCED_FACE ( 'NONE', ( #799 ), #527, .F. ) ;
#841 = CARTESIAN_POINT ( 'NONE',  ( 8.749999999999998200, 16.49999999999999600, 4.000000000000000000 ) ) ;
#842 = DIRECTION ( 'NONE',  ( -1.000000000000000000, 0.0000000000000000000, 0.0000000000000000000 ) ) ;
#843 = APPROVAL ( #656, 'UNSPECIFIED' ) ;
#844 = CARTESIAN_POINT ( 'NONE',  ( -5.249999999999998200, 9.500000000000001800, 4.000000000000000000 ) ) ;
#845 = DIRECTION ( 'NONE',  ( -1.000000000000000000, -3.081487911019577400E-032, 0.0000000000000000000 ) ) ;
#846 = ADVANCED_FACE ( 'NONE', ( #403 ), #727, .T. ) ;
#847 = CALENDAR_DATE ( 2018, 5, 11 ) ;
#848 = APPROVAL_PERSON_ORGANIZATION ( #150, #706, #463 ) ;
#849 = DIRECTION ( 'NONE',  ( 0.0000000000000000000, 0.0000000000000000000, 1.000000000000000000 ) ) ;
#850 = DIRECTION ( 'NONE',  ( 1.000000000000000000, 0.0000000000000000000, 0.0000000000000000000 ) ) ;
#851 = FACE_OUTER_BOUND ( 'NONE', #52, .T. ) ;
#852 = LINE ( 'NONE', #486, #669 ) ;
#853 = ORIENTED_EDGE ( 'NONE', *, *, #523, .F. ) ;
#854 = VECTOR ( 'NONE', #427, 1000.000000000000000 ) ;
#855 = CYLINDRICAL_SURFACE ( 'NONE', #735, 15.49999999999999800 ) ;
#856 = PERSON_AND_ORGANIZATION_ROLE ( 'creator' ) ;
#857 = DIRECTION ( 'NONE',  ( 0.0000000000000000000, 0.0000000000000000000, 1.000000000000000000 ) ) ;
#858 = VECTOR ( 'NONE', #343, 1000.000000000000000 ) ;
#859 = DIRECTION ( 'NONE',  ( 1.000000000000000000, 0.0000000000000000000, 0.0000000000000000000 ) ) ;
ENDSEC;
END-ISO-10303-21;
