ISO-10303-21;
HEADER;
FILE_DESCRIPTION (( 'STEP AP203' ),
    '1' );
FILE_NAME ('roll_motor_stator_Domyúlna_sldprt.STEP',
    '2018-11-05T16:57:54',
    ( '' ),
    ( '' ),
    'SwSTEP 2.0',
    'SolidWorks 2016',
    '' );
FILE_SCHEMA (( 'CONFIG_CONTROL_DESIGN' ));
ENDSEC;

DATA;
#1 = PERSON_AND_ORGANIZATION ( #149, #150 ) ;
#2 = ORIENTED_EDGE ( 'NONE', *, *, #74, .F. ) ;
#3 = CC_DESIGN_DATE_AND_TIME_ASSIGNMENT ( #79, #133, ( #37 ) ) ;
#4 = EDGE_LOOP ( 'NONE', ( #73, #90 ) ) ;
#5 = EDGE_CURVE ( 'NONE', #136, #36, #32, .T. ) ;
#6 = DIRECTION ( 'NONE',  ( -1.000000000000000000, 0.0000000000000000000, 0.0000000000000000000 ) ) ;
#7 = DIRECTION ( 'NONE',  ( -0.0000000000000000000, -0.0000000000000000000, -1.000000000000000000 ) ) ;
#8 = APPROVAL ( #124, 'UNSPECIFIED' ) ;
#9 = AXIS2_PLACEMENT_3D ( 'NONE', #107, #130, #59 ) ;
#10 = PERSON_AND_ORGANIZATION_ROLE ( 'design_supplier' ) ;
#11 = DATE_AND_TIME ( #47, #54 ) ;
#12 = CARTESIAN_POINT ( 'NONE',  ( 14.00000000000000000, 1.714505518806294600E-015, 0.0000000000000000000 ) ) ;
#13 = APPROVAL_ROLE ( '' ) ;
#14 = CARTESIAN_POINT ( 'NONE',  ( 0.0000000000000000000, 0.0000000000000000000, 4.000000000000000000 ) ) ;
#15 = FACE_OUTER_BOUND ( 'NONE', #4, .T. ) ;
#16 = PERSON_AND_ORGANIZATION ( #149, #150 ) ;
#17 = APPROVAL ( #142, 'UNSPECIFIED' ) ;
#18 = EDGE_CURVE ( 'NONE', #70, #36, #117, .T. ) ;
#19 = PERSON_AND_ORGANIZATION ( #149, #150 ) ;
#20 = ORIENTED_EDGE ( 'NONE', *, *, #74, .T. ) ;
#21 = LOCAL_TIME ( 17, 57, 54.00000000000000000, #132 ) ;
#22 = CARTESIAN_POINT ( 'NONE',  ( 0.0000000000000000000, 0.0000000000000000000, 0.0000000000000000000 ) ) ;
#23 = DATE_AND_TIME ( #103, #122 ) ;
#24 = EDGE_CURVE ( 'NONE', #36, #136, #45, .T. ) ;
#25 = PERSON_AND_ORGANIZATION_ROLE ( 'creator' ) ;
#26 = CC_DESIGN_APPROVAL ( #17, ( #99 ) ) ;
#27 = APPLICATION_PROTOCOL_DEFINITION ( 'international standard', 'config_control_design', 1994, #175 ) ;
#28 = ADVANCED_FACE ( 'NONE', ( #162 ), #131, .F. ) ;
#29 = APPLICATION_CONTEXT ( 'configuration controlled 3d designs of mechanical parts and assemblies' ) ;
#30 = APPROVAL_DATE_TIME ( #169, #55 ) ;
#31 = EDGE_CURVE ( 'NONE', #70, #49, #116, .T. ) ;
#32 = CIRCLE ( 'NONE', #80, 14.00000000000000000 ) ;
#33 =( GEOMETRIC_REPRESENTATION_CONTEXT ( 3 ) GLOBAL_UNCERTAINTY_ASSIGNED_CONTEXT ( ( #161 ) ) GLOBAL_UNIT_ASSIGNED_CONTEXT ( ( #68, #84, #173 ) ) REPRESENTATION_CONTEXT ( 'NONE', 'WORKASPACE' ) );
#34 = CARTESIAN_POINT ( 'NONE',  ( -14.00000000000000000, 0.0000000000000000000, 4.000000000000000000 ) ) ;
#35 = PERSON_AND_ORGANIZATION ( #149, #150 ) ;
#36 = VERTEX_POINT ( 'NONE', #119 ) ;
#37 = PRODUCT_DEFINITION ( 'UNKNOWN', '', #99, #87 ) ;
#38 = CARTESIAN_POINT ( 'NONE',  ( 0.0000000000000000000, 0.0000000000000000000, 4.000000000000000000 ) ) ;
#39 = CARTESIAN_POINT ( 'NONE',  ( 0.0000000000000000000, 0.0000000000000000000, 4.000000000000000000 ) ) ;
#40 = DIRECTION ( 'NONE',  ( -1.000000000000000000, 0.0000000000000000000, 0.0000000000000000000 ) ) ;
#41 = DIRECTION ( 'NONE',  ( -0.0000000000000000000, -0.0000000000000000000, -1.000000000000000000 ) ) ;
#42 = DIRECTION ( 'NONE',  ( 0.0000000000000000000, 0.0000000000000000000, 1.000000000000000000 ) ) ;
#43 = CYLINDRICAL_SURFACE ( 'NONE', #137, 14.00000000000000000 ) ;
#44 = ORIENTED_EDGE ( 'NONE', *, *, #31, .F. ) ;
#45 = CIRCLE ( 'NONE', #92, 14.00000000000000000 ) ;
#46 = SECURITY_CLASSIFICATION ( '', '', #97 ) ;
#47 = CALENDAR_DATE ( 2018, 5, 11 ) ;
#48 = AXIS2_PLACEMENT_3D ( 'NONE', #111, #42, #83 ) ;
#49 = VERTEX_POINT ( 'NONE', #96 ) ;
#50 = VECTOR ( 'NONE', #109, 1000.000000000000000 ) ;
#51 = ORIENTED_EDGE ( 'NONE', *, *, #18, .F. ) ;
#52 = CC_DESIGN_APPROVAL ( #8, ( #46 ) ) ;
#53 = FACE_OUTER_BOUND ( 'NONE', #129, .T. ) ;
#54 = LOCAL_TIME ( 17, 57, 54.00000000000000000, #88 ) ;
#55 = APPROVAL ( #101, 'UNSPECIFIED' ) ;
#56 = CLOSED_SHELL ( 'NONE', ( #146, #69, #86, #28 ) ) ;
#57 = CALENDAR_DATE ( 2018, 5, 11 ) ;
#58 = PERSON_AND_ORGANIZATION ( #149, #150 ) ;
#59 = DIRECTION ( 'NONE',  ( 1.000000000000000000, 0.0000000000000000000, 0.0000000000000000000 ) ) ;
#60 = CC_DESIGN_SECURITY_CLASSIFICATION ( #46, ( #99 ) ) ;
#61 = CARTESIAN_POINT ( 'NONE',  ( -14.00000000000000000, 0.0000000000000000000, 4.000000000000000000 ) ) ;
#62 = ORIENTED_EDGE ( 'NONE', *, *, #5, .T. ) ;
#63 = COORDINATED_UNIVERSAL_TIME_OFFSET ( 1, 0, .AHEAD. ) ;
#64 = DIRECTION ( 'NONE',  ( 0.0000000000000000000, 0.0000000000000000000, 1.000000000000000000 ) ) ;
#65 = CC_DESIGN_PERSON_AND_ORGANIZATION_ASSIGNMENT ( #166, #125, ( #37 ) ) ;
#66 = DIRECTION ( 'NONE',  ( 0.0000000000000000000, 0.0000000000000000000, 1.000000000000000000 ) ) ;
#67 = MECHANICAL_CONTEXT ( 'NONE', #175, 'mechanical' ) ;
#68 =( LENGTH_UNIT ( ) NAMED_UNIT ( * ) SI_UNIT ( .MILLI., .METRE. ) );
#69 = ADVANCED_FACE ( 'NONE', ( #128 ), #43, .T. ) ;
#70 = VERTEX_POINT ( 'NONE', #61 ) ;
#71 = AXIS2_PLACEMENT_3D ( 'NONE', #120, #141, #154 ) ;
#72 = VECTOR ( 'NONE', #100, 1000.000000000000000 ) ;
#73 = ORIENTED_EDGE ( 'NONE', *, *, #31, .T. ) ;
#74 = EDGE_CURVE ( 'NONE', #49, #136, #94, .T. ) ;
#75 = CC_DESIGN_PERSON_AND_ORGANIZATION_ASSIGNMENT ( #35, #158, ( #89 ) ) ;
#76 = MANIFOLD_SOLID_BREP ( 'Dodanie-wyciπgniÍcie1', #56 ) ;
#77 = ORIENTED_EDGE ( 'NONE', *, *, #18, .T. ) ;
#78 = CARTESIAN_POINT ( 'NONE',  ( 0.0000000000000000000, 0.0000000000000000000, 0.0000000000000000000 ) ) ;
#79 = DATE_AND_TIME ( #98, #21 ) ;
#80 = AXIS2_PLACEMENT_3D ( 'NONE', #22, #118, #93 ) ;
#81 = APPROVAL_ROLE ( '' ) ;
#82 = DATE_TIME_ROLE ( 'classification_date' ) ;
#83 = DIRECTION ( 'NONE',  ( 1.000000000000000000, 0.0000000000000000000, -0.0000000000000000000 ) ) ;
#84 =( NAMED_UNIT ( * ) PLANE_ANGLE_UNIT ( ) SI_UNIT ( $, .RADIAN. ) );
#85 = ORIENTED_EDGE ( 'NONE', *, *, #172, .F. ) ;
#86 = ADVANCED_FACE ( 'NONE', ( #15 ), #145, .T. ) ;
#87 = DESIGN_CONTEXT ( 'detailed design', #29, 'design' ) ;
#88 = COORDINATED_UNIVERSAL_TIME_OFFSET ( 1, 0, .AHEAD. ) ;
#89 = PRODUCT ( 'roll_motor_stator_Domyúlna_sldprt', 'roll_motor_stator_Domyúlna_sldprt', '', ( #67 ) ) ;
#90 = ORIENTED_EDGE ( 'NONE', *, *, #172, .T. ) ;
#91 = APPROVAL_DATE_TIME ( #23, #8 ) ;
#92 = AXIS2_PLACEMENT_3D ( 'NONE', #78, #64, #171 ) ;
#93 = DIRECTION ( 'NONE',  ( 1.000000000000000000, 0.0000000000000000000, 0.0000000000000000000 ) ) ;
#94 = LINE ( 'NONE', #112, #72 ) ;
#95 = APPROVAL_PERSON_ORGANIZATION ( #167, #17, #81 ) ;
#96 = CARTESIAN_POINT ( 'NONE',  ( 14.00000000000000000, 1.714505518806294600E-015, 4.000000000000000000 ) ) ;
#97 = SECURITY_CLASSIFICATION_LEVEL ( 'unclassified' ) ;
#98 = CALENDAR_DATE ( 2018, 5, 11 ) ;
#99 = PRODUCT_DEFINITION_FORMATION_WITH_SPECIFIED_SOURCE ( 'ANY', '', #89, .NOT_KNOWN. ) ;
#100 = DIRECTION ( 'NONE',  ( -0.0000000000000000000, -0.0000000000000000000, -1.000000000000000000 ) ) ;
#101 = APPROVAL_STATUS ( 'not_yet_approved' ) ;
#102 = APPROVAL_ROLE ( '' ) ;
#103 = CALENDAR_DATE ( 2018, 5, 11 ) ;
#104 = CIRCLE ( 'NONE', #156, 14.00000000000000000 ) ;
#105 = APPROVAL_PERSON_ORGANIZATION ( #58, #8, #102 ) ;
#106 = PRODUCT_RELATED_PRODUCT_CATEGORY ( 'detail', '', ( #89 ) ) ;
#107 = CARTESIAN_POINT ( 'NONE',  ( 0.0000000000000000000, 0.0000000000000000000, 4.000000000000000000 ) ) ;
#108 = LOCAL_TIME ( 17, 57, 54.00000000000000000, #138 ) ;
#109 = DIRECTION ( 'NONE',  ( -0.0000000000000000000, -0.0000000000000000000, -1.000000000000000000 ) ) ;
#110 = PRODUCT_DEFINITION_SHAPE ( 'NONE', 'NONE',  #37 ) ;
#111 = CARTESIAN_POINT ( 'NONE',  ( 0.0000000000000000000, 0.0000000000000000000, 4.000000000000000000 ) ) ;
#112 = CARTESIAN_POINT ( 'NONE',  ( 14.00000000000000000, 1.714505518806294600E-015, 4.000000000000000000 ) ) ;
#113 = CARTESIAN_POINT ( 'NONE',  ( 0.0000000000000000000, 0.0000000000000000000, 0.0000000000000000000 ) ) ;
#114 = ORIENTED_EDGE ( 'NONE', *, *, #5, .F. ) ;
#115 = CC_DESIGN_PERSON_AND_ORGANIZATION_ASSIGNMENT ( #19, #25, ( #99 ) ) ;
#116 = CIRCLE ( 'NONE', #9, 14.00000000000000000 ) ;
#117 = LINE ( 'NONE', #34, #50 ) ;
#118 = DIRECTION ( 'NONE',  ( 0.0000000000000000000, 0.0000000000000000000, 1.000000000000000000 ) ) ;
#119 = CARTESIAN_POINT ( 'NONE',  ( -14.00000000000000000, 0.0000000000000000000, 0.0000000000000000000 ) ) ;
#120 = CARTESIAN_POINT ( 'NONE',  ( 0.0000000000000000000, 0.0000000000000000000, 0.0000000000000000000 ) ) ;
#121 = APPROVAL_PERSON_ORGANIZATION ( #1, #55, #13 ) ;
#122 = LOCAL_TIME ( 17, 57, 54.00000000000000000, #63 ) ;
#123 = ORIENTED_EDGE ( 'NONE', *, *, #24, .F. ) ;
#124 = APPROVAL_STATUS ( 'not_yet_approved' ) ;
#125 = PERSON_AND_ORGANIZATION_ROLE ( 'creator' ) ;
#126 = DATE_AND_TIME ( #151, #170 ) ;
#127 = EDGE_LOOP ( 'NONE', ( #2, #44, #77, #159 ) ) ;
#128 = FACE_OUTER_BOUND ( 'NONE', #127, .T. ) ;
#129 = EDGE_LOOP ( 'NONE', ( #85, #20, #62, #51 ) ) ;
#130 = DIRECTION ( 'NONE',  ( 0.0000000000000000000, 0.0000000000000000000, 1.000000000000000000 ) ) ;
#131 = PLANE ( 'NONE',  #71 ) ;
#132 = COORDINATED_UNIVERSAL_TIME_OFFSET ( 1, 0, .AHEAD. ) ;
#133 = DATE_TIME_ROLE ( 'creation_date' ) ;
#134 = DIRECTION ( 'NONE',  ( 1.000000000000000000, 0.0000000000000000000, 0.0000000000000000000 ) ) ;
#135 = DIRECTION ( 'NONE',  ( 0.0000000000000000000, 0.0000000000000000000, 1.000000000000000000 ) ) ;
#136 = VERTEX_POINT ( 'NONE', #12 ) ;
#137 = AXIS2_PLACEMENT_3D ( 'NONE', #39, #7, #6 ) ;
#138 = COORDINATED_UNIVERSAL_TIME_OFFSET ( 1, 0, .AHEAD. ) ;
#139 = EDGE_LOOP ( 'NONE', ( #123, #114 ) ) ;
#140 = COORDINATED_UNIVERSAL_TIME_OFFSET ( 1, 0, .AHEAD. ) ;
#141 = DIRECTION ( 'NONE',  ( 0.0000000000000000000, 0.0000000000000000000, 1.000000000000000000 ) ) ;
#142 = APPROVAL_STATUS ( 'not_yet_approved' ) ;
#143 = AXIS2_PLACEMENT_3D ( 'NONE', #38, #41, #40 ) ;
#144 = PERSON_AND_ORGANIZATION_ROLE ( 'classification_officer' ) ;
#145 = PLANE ( 'NONE',  #48 ) ;
#146 = ADVANCED_FACE ( 'NONE', ( #53 ), #153, .T. ) ;
#147 = APPROVAL_DATE_TIME ( #11, #17 ) ;
#148 = CC_DESIGN_PERSON_AND_ORGANIZATION_ASSIGNMENT ( #16, #144, ( #46 ) ) ;
#149 = PERSON ( 'UNSPECIFIED', 'UNSPECIFIED', 'UNSPECIFIED', ('UNSPECIFIED'), ('UNSPECIFIED'), ('UNSPECIFIED') ) ;
#150 = ORGANIZATION ( 'UNSPECIFIED', 'UNSPECIFIED', '' ) ;
#151 = CALENDAR_DATE ( 2018, 5, 11 ) ;
#152 = CC_DESIGN_PERSON_AND_ORGANIZATION_ASSIGNMENT ( #155, #10, ( #99 ) ) ;
#153 = CYLINDRICAL_SURFACE ( 'NONE', #143, 14.00000000000000000 ) ;
#154 = DIRECTION ( 'NONE',  ( 1.000000000000000000, 0.0000000000000000000, -0.0000000000000000000 ) ) ;
#155 = PERSON_AND_ORGANIZATION ( #149, #150 ) ;
#156 = AXIS2_PLACEMENT_3D ( 'NONE', #14, #66, #134 ) ;
#157 = APPLICATION_PROTOCOL_DEFINITION ( 'international standard', 'config_control_design', 1994, #29 ) ;
#158 = PERSON_AND_ORGANIZATION_ROLE ( 'design_owner' ) ;
#159 = ORIENTED_EDGE ( 'NONE', *, *, #24, .T. ) ;
#160 = DIRECTION ( 'NONE',  ( 1.000000000000000000, 0.0000000000000000000, 0.0000000000000000000 ) ) ;
#161 = UNCERTAINTY_MEASURE_WITH_UNIT (LENGTH_MEASURE( 1.000000000000000100E-005 ), #68, 'distance_accuracy_value', 'NONE');
#162 = FACE_OUTER_BOUND ( 'NONE', #139, .T. ) ;
#163 = SHAPE_DEFINITION_REPRESENTATION ( #110, #164 ) ;
#164 = ADVANCED_BREP_SHAPE_REPRESENTATION ( 'roll_motor_stator_Domyùlna_sldprt', ( #76, #165 ), #33 ) ;
#165 = AXIS2_PLACEMENT_3D ( 'NONE', #113, #135, #160 ) ;
#166 = PERSON_AND_ORGANIZATION ( #149, #150 ) ;
#167 = PERSON_AND_ORGANIZATION ( #149, #150 ) ;
#168 = CC_DESIGN_DATE_AND_TIME_ASSIGNMENT ( #126, #82, ( #46 ) ) ;
#169 = DATE_AND_TIME ( #57, #108 ) ;
#170 = LOCAL_TIME ( 17, 57, 54.00000000000000000, #140 ) ;
#171 = DIRECTION ( 'NONE',  ( 1.000000000000000000, 0.0000000000000000000, 0.0000000000000000000 ) ) ;
#172 = EDGE_CURVE ( 'NONE', #49, #70, #104, .T. ) ;
#173 =( NAMED_UNIT ( * ) SI_UNIT ( $, .STERADIAN. ) SOLID_ANGLE_UNIT ( ) );
#174 = CC_DESIGN_APPROVAL ( #55, ( #37 ) ) ;
#175 = APPLICATION_CONTEXT ( 'configuration controlled 3d designs of mechanical parts and assemblies' ) ;
ENDSEC;
END-ISO-10303-21;
