ISO-10303-21;
HEADER;
FILE_DESCRIPTION (( 'STEP AP203' ),
    '1' );
FILE_NAME ('yaw_part_1_Domyúlna_sldprt.STEP',
    '2018-11-05T16:58:02',
    ( '' ),
    ( '' ),
    'SwSTEP 2.0',
    'SolidWorks 2016',
    '' );
FILE_SCHEMA (( 'CONFIG_CONTROL_DESIGN' ));
ENDSEC;

DATA;
#1 = DIRECTION ( 'NONE',  ( 1.000000000000000000, 0.0000000000000000000, 0.0000000000000000000 ) ) ;
#2 = EDGE_CURVE ( 'NONE', #159, #449, #611, .T. ) ;
#3 = ORIENTED_EDGE ( 'NONE', *, *, #176, .F. ) ;
#4 = LINE ( 'NONE', #463, #367 ) ;
#5 = AXIS2_PLACEMENT_3D ( 'NONE', #428, #421, #426 ) ;
#6 = ORIENTED_EDGE ( 'NONE', *, *, #272, .T. ) ;
#7 = LINE ( 'NONE', #852, #473 ) ;
#8 = DIRECTION ( 'NONE',  ( -1.000000000000000000, 0.0000000000000000000, 0.0000000000000000000 ) ) ;
#9 = FACE_BOUND ( 'NONE', #709, .T. ) ;
#10 = DIRECTION ( 'NONE',  ( -0.0000000000000000000, -0.0000000000000000000, -1.000000000000000000 ) ) ;
#11 = DIRECTION ( 'NONE',  ( 1.000000000000000000, 0.0000000000000000000, 0.0000000000000000000 ) ) ;
#12 = EDGE_CURVE ( 'NONE', #692, #447, #804, .T. ) ;
#13 = CC_DESIGN_PERSON_AND_ORGANIZATION_ASSIGNMENT ( #99, #799, ( #740 ) ) ;
#14 = CARTESIAN_POINT ( 'NONE',  ( -12.49999999999999600, 0.0000000000000000000, 2.500000000000000000 ) ) ;
#15 = ORIENTED_EDGE ( 'NONE', *, *, #829, .F. ) ;
#16 = CARTESIAN_POINT ( 'NONE',  ( 0.7500000000000006700, 39.65685424949237600, 2.500000000000000000 ) ) ;
#17 = CIRCLE ( 'NONE', #457, 3.500000000000000000 ) ;
#18 = ORIENTED_EDGE ( 'NONE', *, *, #218, .T. ) ;
#19 = ADVANCED_FACE ( 'NONE', ( #254 ), #246, .T. ) ;
#20 = PLANE ( 'NONE',  #219 ) ;
#21 = AXIS2_PLACEMENT_3D ( 'NONE', #747, #206, #824 ) ;
#22 = PRODUCT_DEFINITION ( 'UNKNOWN', '', #581, #515 ) ;
#23 = VERTEX_POINT ( 'NONE', #174 ) ;
#24 = ORIENTED_EDGE ( 'NONE', *, *, #685, .T. ) ;
#25 = CIRCLE ( 'NONE', #208, 2.500000000000000900 ) ;
#26 = CARTESIAN_POINT ( 'NONE',  ( 6.500000000000002700, 23.00000000000000000, 0.0000000000000000000 ) ) ;
#27 = ORIENTED_EDGE ( 'NONE', *, *, #476, .T. ) ;
#28 = LINE ( 'NONE', #772, #861 ) ;
#29 = CYLINDRICAL_SURFACE ( 'NONE', #834, 0.7500000000000002200 ) ;
#30 = CARTESIAN_POINT ( 'NONE',  ( 12.50000000000000200, 33.99999999999998600, 2.500000000000000000 ) ) ;
#31 = DIRECTION ( 'NONE',  ( -1.000000000000000000, 0.0000000000000000000, 0.0000000000000000000 ) ) ;
#32 = DIRECTION ( 'NONE',  ( 1.000000000000000000, 0.0000000000000000000, 0.0000000000000000000 ) ) ;
#33 = EDGE_LOOP ( 'NONE', ( #576, #72, #789, #368 ) ) ;
#34 = ORIENTED_EDGE ( 'NONE', *, *, #364, .T. ) ;
#35 = AXIS2_PLACEMENT_3D ( 'NONE', #258, #662, #800 ) ;
#36 = VECTOR ( 'NONE', #639, 1000.000000000000000 ) ;
#37 = AXIS2_PLACEMENT_3D ( 'NONE', #664, #56, #114 ) ;
#38 = CARTESIAN_POINT ( 'NONE',  ( -5.656854249492378800, 33.99999999999998600, 2.500000000000000000 ) ) ;
#39 = EDGE_CURVE ( 'NONE', #872, #814, #401, .T. ) ;
#40 = ADVANCED_FACE ( 'NONE', ( #161 ), #440, .F. ) ;
#41 = DIRECTION ( 'NONE',  ( 1.000000000000000000, 0.0000000000000000000, 0.0000000000000000000 ) ) ;
#42 = CARTESIAN_POINT ( 'NONE',  ( 0.7500000000000006700, 39.65685424949237600, 2.500000000000000000 ) ) ;
#43 = APPROVAL_DATE_TIME ( #359, #815 ) ;
#44 = VECTOR ( 'NONE', #737, 1000.000000000000000 ) ;
#45 = AXIS2_PLACEMENT_3D ( 'NONE', #169, #511, #172 ) ;
#46 = CARTESIAN_POINT ( 'NONE',  ( -12.50000000000000200, 33.99999999999998600, 2.500000000000000000 ) ) ;
#47 = EDGE_CURVE ( 'NONE', #470, #131, #667, .T. ) ;
#48 = ORIENTED_EDGE ( 'NONE', *, *, #638, .T. ) ;
#49 = ORIENTED_EDGE ( 'NONE', *, *, #47, .F. ) ;
#50 = CARTESIAN_POINT ( 'NONE',  ( -3.000000000000003600, 23.00000000000000000, 2.500000000000000000 ) ) ;
#51 = ORIENTED_EDGE ( 'NONE', *, *, #820, .F. ) ;
#52 = VERTEX_POINT ( 'NONE', #168 ) ;
#53 = FACE_OUTER_BOUND ( 'NONE', #166, .T. ) ;
#54 = CARTESIAN_POINT ( 'NONE',  ( 10.00000000000000400, 23.00000000000000000, 2.500000000000000000 ) ) ;
#55 = DIRECTION ( 'NONE',  ( 0.0000000000000000000, 0.0000000000000000000, 1.000000000000000000 ) ) ;
#56 = DIRECTION ( 'NONE',  ( 0.0000000000000000000, 0.0000000000000000000, 1.000000000000000000 ) ) ;
#57 = DIRECTION ( 'NONE',  ( -0.0000000000000000000, -0.0000000000000000000, -1.000000000000000000 ) ) ;
#58 = CARTESIAN_POINT ( 'NONE',  ( -9.999999999999998200, 8.000000000000000000, 2.500000000000000000 ) ) ;
#59 = CARTESIAN_POINT ( 'NONE',  ( 0.0000000000000000000, 33.99999999999998600, 0.0000000000000000000 ) ) ;
#60 = EDGE_CURVE ( 'NONE', #432, #23, #588, .T. ) ;
#61 = CC_DESIGN_APPROVAL ( #815, ( #22 ) ) ;
#62 = CARTESIAN_POINT ( 'NONE',  ( -5.656854249492378800, 33.99999999999998600, 0.0000000000000000000 ) ) ;
#63 = APPROVAL_DATE_TIME ( #287, #565 ) ;
#64 = CARTESIAN_POINT ( 'NONE',  ( -6.499999999999998200, 8.000000000000000000, 0.0000000000000000000 ) ) ;
#65 = VECTOR ( 'NONE', #95, 1000.000000000000000 ) ;
#66 = CIRCLE ( 'NONE', #503, 12.50000000000000200 ) ;
#67 = CARTESIAN_POINT ( 'NONE',  ( -12.49999999999999600, 0.0000000000000000000, 2.500000000000000000 ) ) ;
#68 = CARTESIAN_POINT ( 'NONE',  ( 4.906854249492378800, 33.99999999999997200, 2.500000000000000000 ) ) ;
#69 = CARTESIAN_POINT ( 'NONE',  ( 3.000000000000001800, 8.000000000000000000, 2.500000000000000000 ) ) ;
#70 = VERTEX_POINT ( 'NONE', #794 ) ;
#71 = ORIENTED_EDGE ( 'NONE', *, *, #280, .F. ) ;
#72 = ORIENTED_EDGE ( 'NONE', *, *, #479, .F. ) ;
#73 = VERTEX_POINT ( 'NONE', #585 ) ;
#74 = APPROVAL_PERSON_ORGANIZATION ( #490, #185, #261 ) ;
#75 = CYLINDRICAL_SURFACE ( 'NONE', #458, 3.500000000000000000 ) ;
#76 = AXIS2_PLACEMENT_3D ( 'NONE', #471, #397, #597 ) ;
#77 = ADVANCED_FACE ( 'NONE', ( #201 ), #518, .F. ) ;
#78 = AXIS2_PLACEMENT_3D ( 'NONE', #148, #369, #84 ) ;
#79 = EDGE_CURVE ( 'NONE', #569, #811, #141, .T. ) ;
#80 = VERTEX_POINT ( 'NONE', #715 ) ;
#81 = EDGE_LOOP ( 'NONE', ( #285, #671 ) ) ;
#82 = ORGANIZATION ( 'UNSPECIFIED', 'UNSPECIFIED', '' ) ;
#83 = FACE_OUTER_BOUND ( 'NONE', #33, .T. ) ;
#84 = DIRECTION ( 'NONE',  ( 1.000000000000000000, 0.0000000000000000000, 0.0000000000000000000 ) ) ;
#85 = VECTOR ( 'NONE', #210, 1000.000000000000000 ) ;
#86 = ADVANCED_FACE ( 'NONE', ( #151 ), #881, .F. ) ;
#87 = CARTESIAN_POINT ( 'NONE',  ( -5.656854249492378800, 33.99999999999998600, 2.500000000000000000 ) ) ;
#88 = EDGE_CURVE ( 'NONE', #404, #657, #644, .T. ) ;
#89 = AXIS2_PLACEMENT_3D ( 'NONE', #783, #96, #865 ) ;
#90 = DIRECTION ( 'NONE',  ( -0.0000000000000000000, -0.0000000000000000000, -1.000000000000000000 ) ) ;
#91 = VECTOR ( 'NONE', #384, 1000.000000000000000 ) ;
#92 = DIRECTION ( 'NONE',  ( 1.000000000000000000, 0.0000000000000000000, 0.0000000000000000000 ) ) ;
#93 = ORIENTED_EDGE ( 'NONE', *, *, #795, .T. ) ;
#94 = CIRCLE ( 'NONE', #491, 3.500000000000000000 ) ;
#95 = DIRECTION ( 'NONE',  ( -0.0000000000000000000, -0.0000000000000000000, -1.000000000000000000 ) ) ;
#96 = DIRECTION ( 'NONE',  ( -0.0000000000000000000, -0.0000000000000000000, -1.000000000000000000 ) ) ;
#97 = ORIENTED_EDGE ( 'NONE', *, *, #452, .T. ) ;
#98 = DIRECTION ( 'NONE',  ( -0.0000000000000000000, -0.0000000000000000000, -1.000000000000000000 ) ) ;
#99 = PERSON_AND_ORGANIZATION ( #785, #82 ) ;
#100 = ORIENTED_EDGE ( 'NONE', *, *, #303, .T. ) ;
#101 = AXIS2_PLACEMENT_3D ( 'NONE', #170, #864, #573 ) ;
#102 = DIRECTION ( 'NONE',  ( 0.0000000000000000000, 0.0000000000000000000, 1.000000000000000000 ) ) ;
#103 = FACE_BOUND ( 'NONE', #81, .T. ) ;
#104 = AXIS2_PLACEMENT_3D ( 'NONE', #763, #360, #284 ) ;
#105 = CIRCLE ( 'NONE', #290, 3.500000000000000000 ) ;
#106 = CARTESIAN_POINT ( 'NONE',  ( 3.000000000000003600, 23.00000000000000000, 2.500000000000000000 ) ) ;
#107 = CARTESIAN_POINT ( 'NONE',  ( 5.656854249492378800, 33.99999999999997200, 2.500000000000000000 ) ) ;
#108 = ORIENTED_EDGE ( 'NONE', *, *, #60, .T. ) ;
#109 = ORIENTED_EDGE ( 'NONE', *, *, #851, .T. ) ;
#110 = CYLINDRICAL_SURFACE ( 'NONE', #574, 0.7500000000000006700 ) ;
#111 = VERTEX_POINT ( 'NONE', #521 ) ;
#112 = LINE ( 'NONE', #347, #289 ) ;
#113 = EDGE_CURVE ( 'NONE', #825, #447, #190, .T. ) ;
#114 = DIRECTION ( 'NONE',  ( 1.000000000000000000, 0.0000000000000000000, 0.0000000000000000000 ) ) ;
#115 = EDGE_CURVE ( 'NONE', #850, #872, #17, .T. ) ;
#116 = AXIS2_PLACEMENT_3D ( 'NONE', #505, #445, #568 ) ;
#117 = CARTESIAN_POINT ( 'NONE',  ( -12.50000000000000200, 33.99999999999998600, 2.500000000000000000 ) ) ;
#118 = VERTEX_POINT ( 'NONE', #250 ) ;
#119 = EDGE_LOOP ( 'NONE', ( #558, #187, #441, #265 ) ) ;
#120 = EDGE_LOOP ( 'NONE', ( #666, #601, #841, #97 ) ) ;
#121 = VERTEX_POINT ( 'NONE', #339 ) ;
#122 = CIRCLE ( 'NONE', #273, 2.500000000000000900 ) ;
#123 = FACE_OUTER_BOUND ( 'NONE', #756, .T. ) ;
#124 = DIRECTION ( 'NONE',  ( -0.0000000000000000000, -0.0000000000000000000, -1.000000000000000000 ) ) ;
#125 = CARTESIAN_POINT ( 'NONE',  ( -3.000000000000001800, 8.000000000000000000, 2.500000000000000000 ) ) ;
#126 = DIRECTION ( 'NONE',  ( 1.000000000000000000, 0.0000000000000000000, 0.0000000000000000000 ) ) ;
#127 = DIRECTION ( 'NONE',  ( 0.0000000000000000000, 1.000000000000000000, 0.0000000000000000000 ) ) ;
#128 = DIRECTION ( 'NONE',  ( -1.000000000000000000, 0.0000000000000000000, 0.0000000000000000000 ) ) ;
#129 = EDGE_CURVE ( 'NONE', #211, #591, #212, .T. ) ;
#130 = CARTESIAN_POINT ( 'NONE',  ( 4.906854249492378800, 33.99999999999997200, 0.0000000000000000000 ) ) ;
#131 = VERTEX_POINT ( 'NONE', #50 ) ;
#132 = VECTOR ( 'NONE', #406, 1000.000000000000000 ) ;
#133 = DIRECTION ( 'NONE',  ( 1.000000000000000000, -1.156482317317871500E-016, 0.0000000000000000000 ) ) ;
#134 = FACE_BOUND ( 'NONE', #707, .T. ) ;
#135 = VECTOR ( 'NONE', #840, 1000.000000000000000 ) ;
#136 = DIRECTION ( 'NONE',  ( -0.0000000000000000000, -0.0000000000000000000, -1.000000000000000000 ) ) ;
#137 = EDGE_CURVE ( 'NONE', #516, #624, #488, .T. ) ;
#138 = CC_DESIGN_DATE_AND_TIME_ASSIGNMENT ( #746, #878, ( #740 ) ) ;
#139 = DIRECTION ( 'NONE',  ( -1.000000000000000000, 0.0000000000000000000, 0.0000000000000000000 ) ) ;
#140 = ORIENTED_EDGE ( 'NONE', *, *, #396, .F. ) ;
#141 = CIRCLE ( 'NONE', #444, 0.7500000000000002200 ) ;
#142 = CARTESIAN_POINT ( 'NONE',  ( 6.927648449883514400E-016, 28.34314575050760600, 2.500000000000000000 ) ) ;
#143 = VERTEX_POINT ( 'NONE', #523 ) ;
#144 = FACE_OUTER_BOUND ( 'NONE', #816, .T. ) ;
#145 = CARTESIAN_POINT ( 'NONE',  ( -9.999999999999998200, 8.000000000000000000, 2.500000000000000000 ) ) ;
#146 = AXIS2_PLACEMENT_3D ( 'NONE', #606, #133, #742 ) ;
#147 = AXIS2_PLACEMENT_3D ( 'NONE', #448, #719, #301 ) ;
#148 = CARTESIAN_POINT ( 'NONE',  ( -4.930380657631323800E-029, 39.65685424949237600, 0.0000000000000000000 ) ) ;
#149 = ORIENTED_EDGE ( 'NONE', *, *, #846, .T. ) ;
#150 = VERTEX_POINT ( 'NONE', #528 ) ;
#151 = FACE_OUTER_BOUND ( 'NONE', #119, .T. ) ;
#152 = ORIENTED_EDGE ( 'NONE', *, *, #137, .T. ) ;
#153 = LINE ( 'NONE', #562, #313 ) ;
#154 = LINE ( 'NONE', #744, #247 ) ;
#155 = AXIS2_PLACEMENT_3D ( 'NONE', #335, #535, #467 ) ;
#156 = DIRECTION ( 'NONE',  ( 1.000000000000000000, 0.0000000000000000000, 0.0000000000000000000 ) ) ;
#157 = ADVANCED_FACE ( 'NONE', ( #691 ), #721, .T. ) ;
#158 = ORIENTED_EDGE ( 'NONE', *, *, #479, .T. ) ;
#159 = VERTEX_POINT ( 'NONE', #524 ) ;
#160 = EDGE_CURVE ( 'NONE', #23, #288, #25, .T. ) ;
#161 = FACE_OUTER_BOUND ( 'NONE', #510, .T. ) ;
#162 = CARTESIAN_POINT ( 'NONE',  ( 0.0000000000000000000, 33.99999999999998600, 2.500000000000000000 ) ) ;
#163 = ORIENTED_EDGE ( 'NONE', *, *, #184, .F. ) ;
#164 = CALENDAR_DATE ( 2018, 5, 11 ) ;
#165 = AXIS2_PLACEMENT_3D ( 'NONE', #62, #889, #888 ) ;
#166 = EDGE_LOOP ( 'NONE', ( #848, #375, #140, #871 ) ) ;
#167 = CIRCLE ( 'NONE', #147, 0.7500000000000032200 ) ;
#168 = CARTESIAN_POINT ( 'NONE',  ( -9.999999999999998200, 8.000000000000000000, 0.0000000000000000000 ) ) ;
#169 = CARTESIAN_POINT ( 'NONE',  ( 0.0000000000000000000, 33.99999999999998600, 2.500000000000000000 ) ) ;
#170 = CARTESIAN_POINT ( 'NONE',  ( 6.499999999999998200, 8.000000000000000000, 2.500000000000000000 ) ) ;
#171 = CARTESIAN_POINT ( 'NONE',  ( 3.000000000000003600, 23.00000000000000000, 0.0000000000000000000 ) ) ;
#172 = DIRECTION ( 'NONE',  ( 1.000000000000000000, 0.0000000000000000000, 0.0000000000000000000 ) ) ;
#173 = ORIENTED_EDGE ( 'NONE', *, *, #820, .T. ) ;
#174 = CARTESIAN_POINT ( 'NONE',  ( 2.500000000000000900, 33.99999999999998600, 0.0000000000000000000 ) ) ;
#175 = VECTOR ( 'NONE', #302, 1000.000000000000000 ) ;
#176 = EDGE_CURVE ( 'NONE', #389, #159, #708, .T. ) ;
#177 =( LENGTH_UNIT ( ) NAMED_UNIT ( * ) SI_UNIT ( .MILLI., .METRE. ) );
#178 = LINE ( 'NONE', #312, #405 ) ;
#179 = AXIS2_PLACEMENT_3D ( 'NONE', #413, #537, #809 ) ;
#180 = CIRCLE ( 'NONE', #5, 0.7500000000000002200 ) ;
#181 = DIRECTION ( 'NONE',  ( -0.0000000000000000000, -0.0000000000000000000, -1.000000000000000000 ) ) ;
#182 = CARTESIAN_POINT ( 'NONE',  ( 3.000000000000003600, 23.00000000000000000, 2.500000000000000000 ) ) ;
#183 = DIRECTION ( 'NONE',  ( -0.0000000000000000000, -0.0000000000000000000, -1.000000000000000000 ) ) ;
#184 = EDGE_CURVE ( 'NONE', #624, #516, #357, .T. ) ;
#185 = APPROVAL ( #456, 'UNSPECIFIED' ) ;
#186 = DIRECTION ( 'NONE',  ( 1.000000000000000000, 0.0000000000000000000, 0.0000000000000000000 ) ) ;
#187 = ORIENTED_EDGE ( 'NONE', *, *, #739, .F. ) ;
#188 = APPLICATION_CONTEXT ( 'configuration controlled 3d designs of mechanical parts and assemblies' ) ;
#189 = VERTEX_POINT ( 'NONE', #595 ) ;
#190 = LINE ( 'NONE', #46, #276 ) ;
#191 = EDGE_LOOP ( 'NONE', ( #525, #388 ) ) ;
#192 = DATE_TIME_ROLE ( 'creation_date' ) ;
#193 = DIRECTION ( 'NONE',  ( 0.0000000000000000000, 0.0000000000000000000, 1.000000000000000000 ) ) ;
#194 = CARTESIAN_POINT ( 'NONE',  ( -3.000000000000003600, 23.00000000000000000, 2.500000000000000000 ) ) ;
#195 = AXIS2_PLACEMENT_3D ( 'NONE', #713, #318, #455 ) ;
#196 = DIRECTION ( 'NONE',  ( 1.000000000000000000, 1.530638361156006700E-016, -0.0000000000000000000 ) ) ;
#197 = ORIENTED_EDGE ( 'NONE', *, *, #838, .T. ) ;
#198 = CARTESIAN_POINT ( 'NONE',  ( 0.7500000000000008900, 28.34314575050760600, 2.500000000000000000 ) ) ;
#199 = VECTOR ( 'NONE', #543, 1000.000000000000000 ) ;
#200 = ORIENTED_EDGE ( 'NONE', *, *, #678, .F. ) ;
#201 = FACE_OUTER_BOUND ( 'NONE', #612, .T. ) ;
#202 = ORIENTED_EDGE ( 'NONE', *, *, #79, .T. ) ;
#203 = FACE_OUTER_BOUND ( 'NONE', #252, .T. ) ;
#204 = DIRECTION ( 'NONE',  ( 0.0000000000000000000, -0.0000000000000000000, 1.000000000000000000 ) ) ;
#205 = CIRCLE ( 'NONE', #784, 0.7499999999999997800 ) ;
#206 = DIRECTION ( 'NONE',  ( 0.0000000000000000000, 0.0000000000000000000, 1.000000000000000000 ) ) ;
#207 = CARTESIAN_POINT ( 'NONE',  ( -4.930380657631323800E-029, 39.65685424949237600, 2.500000000000000000 ) ) ;
#208 = AXIS2_PLACEMENT_3D ( 'NONE', #59, #327, #186 ) ;
#209 = ORIENTED_EDGE ( 'NONE', *, *, #522, .T. ) ;
#210 = DIRECTION ( 'NONE',  ( -0.0000000000000000000, -0.0000000000000000000, -1.000000000000000000 ) ) ;
#211 = VERTEX_POINT ( 'NONE', #262 ) ;
#212 = LINE ( 'NONE', #590, #132 ) ;
#213 = ORIENTED_EDGE ( 'NONE', *, *, #795, .F. ) ;
#214 = COORDINATED_UNIVERSAL_TIME_OFFSET ( 1, 0, .AHEAD. ) ;
#215 = ORIENTED_EDGE ( 'NONE', *, *, #113, .T. ) ;
#216 = FACE_BOUND ( 'NONE', #879, .T. ) ;
#217 = CARTESIAN_POINT ( 'NONE',  ( 0.0000000000000000000, 33.99999999999998600, 2.500000000000000000 ) ) ;
#218 = EDGE_CURVE ( 'NONE', #624, #80, #4, .T. ) ;
#219 = AXIS2_PLACEMENT_3D ( 'NONE', #30, #228, #436 ) ;
#220 = CARTESIAN_POINT ( 'NONE',  ( -0.7499999999999995600, 28.34314575050760600, 0.0000000000000000000 ) ) ;
#221 = DIRECTION ( 'NONE',  ( 1.000000000000000000, 0.0000000000000000000, 0.0000000000000000000 ) ) ;
#222 = ADVANCED_FACE ( 'NONE', ( #698 ), #297, .F. ) ;
#223 = COORDINATED_UNIVERSAL_TIME_OFFSET ( 1, 0, .AHEAD. ) ;
#224 = CARTESIAN_POINT ( 'NONE',  ( 0.0000000000000000000, 33.99999999999998600, 0.0000000000000000000 ) ) ;
#225 = LINE ( 'NONE', #469, #44 ) ;
#226 = EDGE_CURVE ( 'NONE', #73, #159, #350, .T. ) ;
#227 = AXIS2_PLACEMENT_3D ( 'NONE', #117, #196, #818 ) ;
#228 = DIRECTION ( 'NONE',  ( -1.000000000000000000, 1.530638361156006700E-016, 0.0000000000000000000 ) ) ;
#229 = DIRECTION ( 'NONE',  ( -1.000000000000000000, 0.0000000000000000000, 0.0000000000000000000 ) ) ;
#230 = VERTEX_POINT ( 'NONE', #670 ) ;
#231 = EDGE_LOOP ( 'NONE', ( #163, #508 ) ) ;
#232 = VECTOR ( 'NONE', #181, 1000.000000000000000 ) ;
#233 = ORIENTED_EDGE ( 'NONE', *, *, #129, .F. ) ;
#234 = ADVANCED_FACE ( 'NONE', ( #849 ), #110, .F. ) ;
#235 = DIRECTION ( 'NONE',  ( 1.530638361156006700E-016, -1.000000000000000000, 0.0000000000000000000 ) ) ;
#236 = CIRCLE ( 'NONE', #306, 3.500000000000000000 ) ;
#237 = ADVANCED_FACE ( 'NONE', ( #827 ), #531, .T. ) ;
#238 = DIRECTION ( 'NONE',  ( -0.0000000000000000000, -0.0000000000000000000, -1.000000000000000000 ) ) ;
#239 = EDGE_LOOP ( 'NONE', ( #358, #697 ) ) ;
#240 = EDGE_CURVE ( 'NONE', #189, #299, #743, .T. ) ;
#241 = CARTESIAN_POINT ( 'NONE',  ( -3.000000000000003600, 23.00000000000000000, 0.0000000000000000000 ) ) ;
#242 = ORIENTED_EDGE ( 'NONE', *, *, #748, .F. ) ;
#243 = MANIFOLD_SOLID_BREP ( 'Dodanie-wyciπgniÍcie1', #757 ) ;
#244 = AXIS2_PLACEMENT_3D ( 'NONE', #142, #485, #551 ) ;
#245 = LINE ( 'NONE', #291, #749 ) ;
#246 = PLANE ( 'NONE',  #672 ) ;
#247 = VECTOR ( 'NONE', #340, 1000.000000000000000 ) ;
#248 = CARTESIAN_POINT ( 'NONE',  ( -6.500000000000002700, 23.00000000000000000, 2.500000000000000000 ) ) ;
#249 = DIRECTION ( 'NONE',  ( 1.000000000000000000, 0.0000000000000000000, 0.0000000000000000000 ) ) ;
#250 = CARTESIAN_POINT ( 'NONE',  ( -4.906854249492375300, 33.99999999999998600, 0.0000000000000000000 ) ) ;
#251 = ORIENTED_EDGE ( 'NONE', *, *, #293, .T. ) ;
#252 = EDGE_LOOP ( 'NONE', ( #158, #424, #233, #720 ) ) ;
#253 = DIRECTION ( 'NONE',  ( -1.000000000000000000, 0.0000000000000000000, 0.0000000000000000000 ) ) ;
#254 = FACE_OUTER_BOUND ( 'NONE', #380, .T. ) ;
#255 = EDGE_LOOP ( 'NONE', ( #610, #305, #34, #699 ) ) ;
#256 = LOCAL_TIME ( 17, 58, 2.000000000000000000, #410 ) ;
#257 = CIRCLE ( 'NONE', #37, 0.7500000000000002200 ) ;
#258 = CARTESIAN_POINT ( 'NONE',  ( 0.0000000000000000000, 33.99999999999998600, 2.500000000000000000 ) ) ;
#259 = CARTESIAN_POINT ( 'NONE',  ( -3.000000000000001800, 8.000000000000000000, 2.500000000000000000 ) ) ;
#260 = EDGE_CURVE ( 'NONE', #111, #775, #346, .T. ) ;
#261 = APPROVAL_ROLE ( '' ) ;
#262 = CARTESIAN_POINT ( 'NONE',  ( 12.49999999999999600, 0.0000000000000000000, 2.500000000000000000 ) ) ;
#263 = ORIENTED_EDGE ( 'NONE', *, *, #129, .T. ) ;
#264 = CARTESIAN_POINT ( 'NONE',  ( -6.500000000000002700, 23.00000000000000000, 2.500000000000000000 ) ) ;
#265 = ORIENTED_EDGE ( 'NONE', *, *, #361, .T. ) ;
#266 = DATE_AND_TIME ( #669, #779 ) ;
#267 = FACE_BOUND ( 'NONE', #718, .T. ) ;
#268 = VECTOR ( 'NONE', #344, 1000.000000000000000 ) ;
#269 = CARTESIAN_POINT ( 'NONE',  ( 2.500000000000000900, 33.99999999999998600, 2.500000000000000000 ) ) ;
#270 = CARTESIAN_POINT ( 'NONE',  ( 3.000000000000001800, 8.000000000000000000, 0.0000000000000000000 ) ) ;
#271 = DIRECTION ( 'NONE',  ( 0.0000000000000000000, 0.0000000000000000000, 1.000000000000000000 ) ) ;
#272 = EDGE_CURVE ( 'NONE', #775, #230, #352, .T. ) ;
#273 = AXIS2_PLACEMENT_3D ( 'NONE', #711, #102, #454 ) ;
#274 = DIRECTION ( 'NONE',  ( -1.000000000000000000, 1.156482317317871500E-016, 0.0000000000000000000 ) ) ;
#275 = ORIENTED_EDGE ( 'NONE', *, *, #12, .T. ) ;
#276 = VECTOR ( 'NONE', #857, 1000.000000000000000 ) ;
#277 = ORIENTED_EDGE ( 'NONE', *, *, #464, .F. ) ;
#278 = CARTESIAN_POINT ( 'NONE',  ( 12.49999999999999600, 0.0000000000000000000, 2.500000000000000000 ) ) ;
#279 = ORIENTED_EDGE ( 'NONE', *, *, #88, .F. ) ;
#280 = EDGE_CURVE ( 'NONE', #143, #118, #425, .T. ) ;
#281 = FACE_OUTER_BOUND ( 'NONE', #438, .T. ) ;
#282 = CARTESIAN_POINT ( 'NONE',  ( 0.0000000000000000000, 33.99999999999998600, 2.500000000000000000 ) ) ;
#283 = DIRECTION ( 'NONE',  ( -1.000000000000000000, 0.0000000000000000000, 0.0000000000000000000 ) ) ;
#284 = DIRECTION ( 'NONE',  ( -1.000000000000000000, 0.0000000000000000000, 0.0000000000000000000 ) ) ;
#285 = ORIENTED_EDGE ( 'NONE', *, *, #642, .F. ) ;
#286 = ORIENTED_EDGE ( 'NONE', *, *, #770, .T. ) ;
#287 = DATE_AND_TIME ( #735, #635 ) ;
#288 = VERTEX_POINT ( 'NONE', #478 ) ;
#289 = VECTOR ( 'NONE', #338, 1000.000000000000000 ) ;
#290 = AXIS2_PLACEMENT_3D ( 'NONE', #681, #271, #408 ) ;
#291 = CARTESIAN_POINT ( 'NONE',  ( -12.49999999999999600, 0.0000000000000000000, 2.500000000000000000 ) ) ;
#292 = ADVANCED_FACE ( 'NONE', ( #616 ), #341, .T. ) ;
#293 = EDGE_CURVE ( 'NONE', #657, #470, #105, .T. ) ;
#294 = DIRECTION ( 'NONE',  ( 1.000000000000000000, 0.0000000000000000000, 0.0000000000000000000 ) ) ;
#295 = CC_DESIGN_PERSON_AND_ORGANIZATION_ASSIGNMENT ( #578, #329, ( #22 ) ) ;
#296 = ORIENTED_EDGE ( 'NONE', *, *, #717, .T. ) ;
#297 = CYLINDRICAL_SURFACE ( 'NONE', #487, 0.7499999999999997800 ) ;
#298 = COORDINATED_UNIVERSAL_TIME_OFFSET ( 1, 0, .AHEAD. ) ;
#299 = VERTEX_POINT ( 'NONE', #351 ) ;
#300 = VECTOR ( 'NONE', #832, 1000.000000000000000 ) ;
#301 = DIRECTION ( 'NONE',  ( 1.000000000000000000, 0.0000000000000000000, 0.0000000000000000000 ) ) ;
#302 = DIRECTION ( 'NONE',  ( 1.156482317317871500E-016, -1.000000000000000000, 0.0000000000000000000 ) ) ;
#303 = EDGE_CURVE ( 'NONE', #150, #811, #762, .T. ) ;
#304 = DIRECTION ( 'NONE',  ( 0.0000000000000000000, 0.0000000000000000000, 1.000000000000000000 ) ) ;
#305 = ORIENTED_EDGE ( 'NONE', *, *, #39, .F. ) ;
#306 = AXIS2_PLACEMENT_3D ( 'NONE', #264, #676, #1 ) ;
#307 = ORIENTED_EDGE ( 'NONE', *, *, #748, .T. ) ;
#308 = EDGE_LOOP ( 'NONE', ( #24, #858 ) ) ;
#309 = ORIENTED_EDGE ( 'NONE', *, *, #514, .T. ) ;
#310 = LOCAL_TIME ( 17, 58, 2.000000000000000000, #214 ) ;
#311 = EDGE_LOOP ( 'NONE', ( #500, #761, #668, #860 ) ) ;
#312 = CARTESIAN_POINT ( 'NONE',  ( -10.00000000000000400, 23.00000000000000000, 0.0000000000000000000 ) ) ;
#313 = VECTOR ( 'NONE', #497, 1000.000000000000000 ) ;
#314 = CIRCLE ( 'NONE', #165, 0.7500000000000032200 ) ;
#315 = ADVANCED_FACE ( 'NONE', ( #853 ), #442, .F. ) ;
#316 = CARTESIAN_POINT ( 'NONE',  ( -12.50000000000000200, 33.99999999999998600, 2.500000000000000000 ) ) ;
#317 = DIRECTION ( 'NONE',  ( -0.0000000000000000000, -0.0000000000000000000, -1.000000000000000000 ) ) ;
#318 = DIRECTION ( 'NONE',  ( 0.0000000000000000000, 0.0000000000000000000, 1.000000000000000000 ) ) ;
#319 = EDGE_CURVE ( 'NONE', #121, #517, #793, .T. ) ;
#320 = SECURITY_CLASSIFICATION_LEVEL ( 'unclassified' ) ;
#321 = ORIENTED_EDGE ( 'NONE', *, *, #60, .F. ) ;
#322 = ORIENTED_EDGE ( 'NONE', *, *, #176, .T. ) ;
#323 = VERTEX_POINT ( 'NONE', #68 ) ;
#324 = FACE_BOUND ( 'NONE', #633, .T. ) ;
#325 = VECTOR ( 'NONE', #826, 1000.000000000000000 ) ;
#326 = APPLICATION_CONTEXT ( 'configuration controlled 3d designs of mechanical parts and assemblies' ) ;
#327 = DIRECTION ( 'NONE',  ( 0.0000000000000000000, 0.0000000000000000000, 1.000000000000000000 ) ) ;
#328 = EDGE_CURVE ( 'NONE', #52, #111, #700, .T. ) ;
#329 = PERSON_AND_ORGANIZATION_ROLE ( 'creator' ) ;
#330 = CC_DESIGN_SECURITY_CLASSIFICATION ( #740, ( #581 ) ) ;
#331 = CARTESIAN_POINT ( 'NONE',  ( 5.656854249492378800, 33.99999999999997200, 2.500000000000000000 ) ) ;
#332 = ORIENTED_EDGE ( 'NONE', *, *, #501, .T. ) ;
#333 = CARTESIAN_POINT ( 'NONE',  ( -12.50000000000000200, 33.99999999999998600, 0.0000000000000000000 ) ) ;
#334 = ORIENTED_EDGE ( 'NONE', *, *, #361, .F. ) ;
#335 = CARTESIAN_POINT ( 'NONE',  ( -4.930380657631323800E-029, 39.65685424949237600, 2.500000000000000000 ) ) ;
#336 = ORIENTED_EDGE ( 'NONE', *, *, #532, .F. ) ;
#337 = VECTOR ( 'NONE', #32, 1000.000000000000000 ) ;
#338 = DIRECTION ( 'NONE',  ( 1.530638361156006700E-016, 1.000000000000000000, -0.0000000000000000000 ) ) ;
#339 = CARTESIAN_POINT ( 'NONE',  ( 6.406854249492377900, 33.99999999999997200, 0.0000000000000000000 ) ) ;
#340 = DIRECTION ( 'NONE',  ( -0.0000000000000000000, -0.0000000000000000000, -1.000000000000000000 ) ) ;
#341 = PLANE ( 'NONE',  #146 ) ;
#342 = AXIS2_PLACEMENT_3D ( 'NONE', #64, #193, #598 ) ;
#343 = AXIS2_PLACEMENT_3D ( 'NONE', #282, #136, #139 ) ;
#344 = DIRECTION ( 'NONE',  ( -0.0000000000000000000, -0.0000000000000000000, -1.000000000000000000 ) ) ;
#345 = CARTESIAN_POINT ( 'NONE',  ( -6.500000000000002700, 23.00000000000000000, 0.0000000000000000000 ) ) ;
#346 = LINE ( 'NONE', #415, #682 ) ;
#347 = CARTESIAN_POINT ( 'NONE',  ( 12.50000000000000200, 33.99999999999998600, 0.0000000000000000000 ) ) ;
#348 = ORIENTED_EDGE ( 'NONE', *, *, #786, .T. ) ;
#349 = EDGE_CURVE ( 'NONE', #131, #404, #236, .T. ) ;
#350 = LINE ( 'NONE', #663, #481 ) ;
#351 = CARTESIAN_POINT ( 'NONE',  ( -6.406854249492381500, 33.99999999999998600, 0.0000000000000000000 ) ) ;
#352 = CIRCLE ( 'NONE', #714, 3.500000000000000000 ) ;
#353 = DIRECTION ( 'NONE',  ( -0.0000000000000000000, -0.0000000000000000000, -1.000000000000000000 ) ) ;
#354 = ORIENTED_EDGE ( 'NONE', *, *, #620, .F. ) ;
#355 = EDGE_LOOP ( 'NONE', ( #200, #587, #486, #776 ) ) ;
#356 = ADVANCED_FACE ( 'NONE', ( #53 ), #495, .F. ) ;
#357 = CIRCLE ( 'NONE', #155, 0.7500000000000006700 ) ;
#358 = ORIENTED_EDGE ( 'NONE', *, *, #765, .F. ) ;
#359 = DATE_AND_TIME ( #613, #256 ) ;
#360 = DIRECTION ( 'NONE',  ( -0.0000000000000000000, -0.0000000000000000000, -1.000000000000000000 ) ) ;
#361 = EDGE_CURVE ( 'NONE', #404, #230, #154, .T. ) ;
#362 = VECTOR ( 'NONE', #317, 1000.000000000000000 ) ;
#363 = CARTESIAN_POINT ( 'NONE',  ( -2.500000000000000900, 33.99999999999998600, 2.500000000000000000 ) ) ;
#364 = EDGE_CURVE ( 'NONE', #872, #622, #225, .T. ) ;
#365 = DIRECTION ( 'NONE',  ( 0.0000000000000000000, 0.0000000000000000000, 1.000000000000000000 ) ) ;
#366 = ORIENTED_EDGE ( 'NONE', *, *, #774, .F. ) ;
#367 = VECTOR ( 'NONE', #183, 1000.000000000000000 ) ;
#368 = ORIENTED_EDGE ( 'NONE', *, *, #522, .F. ) ;
#369 = DIRECTION ( 'NONE',  ( 0.0000000000000000000, 0.0000000000000000000, 1.000000000000000000 ) ) ;
#370 = FACE_OUTER_BOUND ( 'NONE', #355, .T. ) ;
#371 = EDGE_CURVE ( 'NONE', #657, #52, #875, .T. ) ;
#372 = ADVANCED_BREP_SHAPE_REPRESENTATION ( 'yaw_part_1_Domyùlna_sldprt', ( #243, #533 ), #728 ) ;
#373 = PRODUCT_RELATED_PRODUCT_CATEGORY ( 'detail', '', ( #564 ) ) ;
#374 = ORIENTED_EDGE ( 'NONE', *, *, #240, .T. ) ;
#375 = ORIENTED_EDGE ( 'NONE', *, *, #280, .T. ) ;
#376 = VECTOR ( 'NONE', #238, 1000.000000000000000 ) ;
#377 = CARTESIAN_POINT ( 'NONE',  ( -12.49999999999999600, 0.0000000000000000000, 0.0000000000000000000 ) ) ;
#378 = EDGE_LOOP ( 'NONE', ( #209, #566, #556, #215 ) ) ;
#379 = PERSON_AND_ORGANIZATION ( #785, #82 ) ;
#380 = EDGE_LOOP ( 'NONE', ( #51, #334, #631, #646 ) ) ;
#381 = DIRECTION ( 'NONE',  ( 1.000000000000000000, 1.156482317317871500E-016, -0.0000000000000000000 ) ) ;
#382 = ADVANCED_FACE ( 'NONE', ( #370 ), #75, .F. ) ;
#383 = CARTESIAN_POINT ( 'NONE',  ( 0.0000000000000000000, 0.0000000000000000000, 0.0000000000000000000 ) ) ;
#384 = DIRECTION ( 'NONE',  ( 1.156482317317871500E-016, 1.000000000000000000, -0.0000000000000000000 ) ) ;
#385 = AXIS2_PLACEMENT_3D ( 'NONE', #207, #679, #128 ) ;
#386 = DIRECTION ( 'NONE',  ( -1.156482317317871500E-016, -1.000000000000000000, 0.0000000000000000000 ) ) ;
#387 = AXIS2_PLACEMENT_3D ( 'NONE', #67, #127, #204 ) ;
#388 = ORIENTED_EDGE ( 'NONE', *, *, #476, .F. ) ;
#389 = VERTEX_POINT ( 'NONE', #270 ) ;
#390 = DIRECTION ( 'NONE',  ( -0.0000000000000000000, -0.0000000000000000000, -1.000000000000000000 ) ) ;
#391 = ORIENTED_EDGE ( 'NONE', *, *, #607, .F. ) ;
#392 = EDGE_LOOP ( 'NONE', ( #688, #27, #109, #722 ) ) ;
#393 = PERSON_AND_ORGANIZATION_ROLE ( 'design_owner' ) ;
#394 = LINE ( 'NONE', #54, #627 ) ;
#395 = CARTESIAN_POINT ( 'NONE',  ( -3.000000000000003600, 23.00000000000000000, 2.500000000000000000 ) ) ;
#396 = EDGE_CURVE ( 'NONE', #299, #118, #314, .T. ) ;
#397 = DIRECTION ( 'NONE',  ( 0.0000000000000000000, 0.0000000000000000000, 1.000000000000000000 ) ) ;
#398 = PERSON_AND_ORGANIZATION_ROLE ( 'design_supplier' ) ;
#399 = ORIENTED_EDGE ( 'NONE', *, *, #184, .T. ) ;
#400 = APPROVAL_ROLE ( '' ) ;
#401 = LINE ( 'NONE', #106, #376 ) ;
#402 = CALENDAR_DATE ( 2018, 5, 11 ) ;
#403 = DIRECTION ( 'NONE',  ( 1.000000000000000000, 0.0000000000000000000, 0.0000000000000000000 ) ) ;
#404 = VERTEX_POINT ( 'NONE', #534 ) ;
#405 = VECTOR ( 'NONE', #645, 1000.000000000000000 ) ;
#406 = DIRECTION ( 'NONE',  ( 1.530638361156006700E-016, 1.000000000000000000, -0.0000000000000000000 ) ) ;
#407 = DIRECTION ( 'NONE',  ( -0.0000000000000000000, -0.0000000000000000000, -1.000000000000000000 ) ) ;
#408 = DIRECTION ( 'NONE',  ( 1.000000000000000000, 0.0000000000000000000, 0.0000000000000000000 ) ) ;
#409 = EDGE_LOOP ( 'NONE', ( #868, #348, #767, #263 ) ) ;
#410 = COORDINATED_UNIVERSAL_TIME_OFFSET ( 1, 0, .AHEAD. ) ;
#411 = ORIENTED_EDGE ( 'NONE', *, *, #685, .F. ) ;
#412 = FACE_BOUND ( 'NONE', #745, .T. ) ;
#413 = CARTESIAN_POINT ( 'NONE',  ( -5.656854249492378800, 33.99999999999998600, 2.500000000000000000 ) ) ;
#414 = LINE ( 'NONE', #125, #781 ) ;
#415 = CARTESIAN_POINT ( 'NONE',  ( -3.000000000000003600, 23.00000000000000000, 0.0000000000000000000 ) ) ;
#416 = DIRECTION ( 'NONE',  ( 0.0000000000000000000, 0.0000000000000000000, 1.000000000000000000 ) ) ;
#417 = EDGE_CURVE ( 'NONE', #470, #111, #414, .T. ) ;
#418 = AXIS2_PLACEMENT_3D ( 'NONE', #499, #630, #845 ) ;
#419 = CARTESIAN_POINT ( 'NONE',  ( -12.49999999999999600, 0.0000000000000000000, 0.0000000000000000000 ) ) ;
#420 = ORIENTED_EDGE ( 'NONE', *, *, #115, .F. ) ;
#421 = DIRECTION ( 'NONE',  ( 0.0000000000000000000, 0.0000000000000000000, 1.000000000000000000 ) ) ;
#422 = ORIENTED_EDGE ( 'NONE', *, *, #532, .T. ) ;
#423 = SHAPE_DEFINITION_REPRESENTATION ( #429, #372 ) ;
#424 = ORIENTED_EDGE ( 'NONE', *, *, #727, .F. ) ;
#425 = LINE ( 'NONE', #729, #819 ) ;
#426 = DIRECTION ( 'NONE',  ( 1.000000000000000000, 0.0000000000000000000, 0.0000000000000000000 ) ) ;
#427 = ADVANCED_FACE ( 'NONE', ( #843 ), #604, .F. ) ;
#428 = CARTESIAN_POINT ( 'NONE',  ( 6.927648449883514400E-016, 28.34314575050760600, 0.0000000000000000000 ) ) ;
#429 = PRODUCT_DEFINITION_SHAPE ( 'NONE', 'NONE',  #22 ) ;
#430 = DIRECTION ( 'NONE',  ( -0.0000000000000000000, -0.0000000000000000000, -1.000000000000000000 ) ) ;
#431 = DIRECTION ( 'NONE',  ( 0.0000000000000000000, 0.0000000000000000000, 1.000000000000000000 ) ) ;
#432 = VERTEX_POINT ( 'NONE', #269 ) ;
#433 = LINE ( 'NONE', #507, #65 ) ;
#434 = AXIS2_PLACEMENT_3D ( 'NONE', #26, #844, #31 ) ;
#435 = LINE ( 'NONE', #363, #135 ) ;
#436 = DIRECTION ( 'NONE',  ( -1.530638361156006700E-016, -1.000000000000000000, 0.0000000000000000000 ) ) ;
#437 = CARTESIAN_POINT ( 'NONE',  ( -0.7499999999999995600, 28.34314575050760600, 2.500000000000000000 ) ) ;
#438 = EDGE_LOOP ( 'NONE', ( #366, #307, #422, #552 ) ) ;
#439 = ORIENTED_EDGE ( 'NONE', *, *, #319, .T. ) ;
#440 = CYLINDRICAL_SURFACE ( 'NONE', #101, 3.500000000000000000 ) ;
#441 = ORIENTED_EDGE ( 'NONE', *, *, #349, .T. ) ;
#442 = CYLINDRICAL_SURFACE ( 'NONE', #385, 0.7500000000000006700 ) ;
#443 = ADVANCED_FACE ( 'NONE', ( #504 ), #477, .F. ) ;
#444 = AXIS2_PLACEMENT_3D ( 'NONE', #658, #866, #583 ) ;
#445 = DIRECTION ( 'NONE',  ( 0.0000000000000000000, 0.0000000000000000000, 1.000000000000000000 ) ) ;
#446 = CARTESIAN_POINT ( 'NONE',  ( -10.00000000000000400, 23.00000000000000000, 2.500000000000000000 ) ) ;
#447 = VERTEX_POINT ( 'NONE', #333 ) ;
#448 = CARTESIAN_POINT ( 'NONE',  ( -5.656854249492378800, 33.99999999999998600, 2.500000000000000000 ) ) ;
#449 = VERTEX_POINT ( 'NONE', #752 ) ;
#450 = EDGE_LOOP ( 'NONE', ( #561, #93 ) ) ;
#451 = CYLINDRICAL_SURFACE ( 'NONE', #418, 0.7499999999999997800 ) ;
#452 = EDGE_CURVE ( 'NONE', #850, #449, #751, .T. ) ;
#453 = CYLINDRICAL_SURFACE ( 'NONE', #343, 2.500000000000000900 ) ;
#454 = DIRECTION ( 'NONE',  ( 1.000000000000000000, 0.0000000000000000000, 0.0000000000000000000 ) ) ;
#455 = DIRECTION ( 'NONE',  ( 1.000000000000000000, 0.0000000000000000000, 0.0000000000000000000 ) ) ;
#456 = APPROVAL_STATUS ( 'not_yet_approved' ) ;
#457 = AXIS2_PLACEMENT_3D ( 'NONE', #677, #885, #876 ) ;
#458 = AXIS2_PLACEMENT_3D ( 'NONE', #823, #407, #596 ) ;
#459 = EDGE_LOOP ( 'NONE', ( #710, #108, #736, #354 ) ) ;
#460 = UNCERTAINTY_MEASURE_WITH_UNIT (LENGTH_MEASURE( 1.000000000000000100E-005 ), #177, 'distance_accuracy_value', 'NONE');
#461 = EDGE_LOOP ( 'NONE', ( #332, #439 ) ) ;
#462 = CYLINDRICAL_SURFACE ( 'NONE', #104, 2.500000000000000900 ) ;
#463 = CARTESIAN_POINT ( 'NONE',  ( -0.7500000000000006700, 39.65685424949237600, 2.500000000000000000 ) ) ;
#464 = EDGE_CURVE ( 'NONE', #73, #850, #394, .T. ) ;
#465 =( NAMED_UNIT ( * ) PLANE_ANGLE_UNIT ( ) SI_UNIT ( $, .RADIAN. ) );
#466 = DIRECTION ( 'NONE',  ( 1.000000000000000000, 0.0000000000000000000, -0.0000000000000000000 ) ) ;
#467 = DIRECTION ( 'NONE',  ( 1.000000000000000000, 0.0000000000000000000, 0.0000000000000000000 ) ) ;
#468 = ORIENTED_EDGE ( 'NONE', *, *, #218, .F. ) ;
#469 = CARTESIAN_POINT ( 'NONE',  ( 3.000000000000003600, 23.00000000000000000, 2.500000000000000000 ) ) ;
#470 = VERTEX_POINT ( 'NONE', #259 ) ;
#471 = CARTESIAN_POINT ( 'NONE',  ( 6.499999999999998200, 8.000000000000000000, 0.0000000000000000000 ) ) ;
#472 = EDGE_LOOP ( 'NONE', ( #399, #790, #411, #468 ) ) ;
#473 = VECTOR ( 'NONE', #430, 1000.000000000000000 ) ;
#474 = CIRCLE ( 'NONE', #244, 0.7500000000000002200 ) ;
#475 = DIRECTION ( 'NONE',  ( -0.0000000000000000000, -0.0000000000000000000, -1.000000000000000000 ) ) ;
#476 = EDGE_CURVE ( 'NONE', #150, #643, #257, .T. ) ;
#477 = PLANE ( 'NONE',  #387 ) ;
#478 = CARTESIAN_POINT ( 'NONE',  ( -2.500000000000000900, 33.99999999999998600, 0.0000000000000000000 ) ) ;
#479 = EDGE_CURVE ( 'NONE', #492, #692, #112, .T. ) ;
#480 = ORIENTED_EDGE ( 'NONE', *, *, #371, .F. ) ;
#481 = VECTOR ( 'NONE', #600, 1000.000000000000000 ) ;
#482 = DIRECTION ( 'NONE',  ( 0.0000000000000000000, 0.0000000000000000000, 1.000000000000000000 ) ) ;
#483 = VECTOR ( 'NONE', #619, 1000.000000000000000 ) ;
#484 = CARTESIAN_POINT ( 'NONE',  ( 3.000000000000001800, 8.000000000000000000, 2.500000000000000000 ) ) ;
#485 = DIRECTION ( 'NONE',  ( 0.0000000000000000000, 0.0000000000000000000, 1.000000000000000000 ) ) ;
#486 = ORIENTED_EDGE ( 'NONE', *, *, #115, .T. ) ;
#487 = AXIS2_PLACEMENT_3D ( 'NONE', #331, #124, #665 ) ;
#488 = CIRCLE ( 'NONE', #586, 0.7500000000000006700 ) ;
#489 = ORIENTED_EDGE ( 'NONE', *, *, #851, .F. ) ;
#490 = PERSON_AND_ORGANIZATION ( #785, #82 ) ;
#491 = AXIS2_PLACEMENT_3D ( 'NONE', #496, #494, #229 ) ;
#492 = VERTEX_POINT ( 'NONE', #882 ) ;
#493 = FACE_BOUND ( 'NONE', #231, .T. ) ;
#494 = DIRECTION ( 'NONE',  ( 0.0000000000000000000, 0.0000000000000000000, 1.000000000000000000 ) ) ;
#495 = CYLINDRICAL_SURFACE ( 'NONE', #179, 0.7500000000000032200 ) ;
#496 = CARTESIAN_POINT ( 'NONE',  ( 6.499999999999998200, 8.000000000000000000, 2.500000000000000000 ) ) ;
#497 = DIRECTION ( 'NONE',  ( -0.0000000000000000000, -0.0000000000000000000, -1.000000000000000000 ) ) ;
#498 = ORIENTED_EDGE ( 'NONE', *, *, #79, .F. ) ;
#499 = CARTESIAN_POINT ( 'NONE',  ( 5.656854249492378800, 33.99999999999997200, 2.500000000000000000 ) ) ;
#500 = ORIENTED_EDGE ( 'NONE', *, *, #260, .F. ) ;
#501 = EDGE_CURVE ( 'NONE', #517, #121, #205, .T. ) ;
#502 = CIRCLE ( 'NONE', #45, 2.500000000000000900 ) ;
#503 = AXIS2_PLACEMENT_3D ( 'NONE', #217, #482, #11 ) ;
#504 = FACE_OUTER_BOUND ( 'NONE', #609, .T. ) ;
#505 = CARTESIAN_POINT ( 'NONE',  ( 5.656854249492378800, 33.99999999999997200, 2.500000000000000000 ) ) ;
#506 = ADVANCED_FACE ( 'NONE', ( #684 ), #755, .T. ) ;
#507 = CARTESIAN_POINT ( 'NONE',  ( -0.7499999999999995600, 28.34314575050760600, 2.500000000000000000 ) ) ;
#508 = ORIENTED_EDGE ( 'NONE', *, *, #137, .F. ) ;
#509 = PERSON_AND_ORGANIZATION ( #785, #82 ) ;
#510 = EDGE_LOOP ( 'NONE', ( #3, #758, #48, #805 ) ) ;
#511 = DIRECTION ( 'NONE',  ( 0.0000000000000000000, 0.0000000000000000000, 1.000000000000000000 ) ) ;
#512 = CIRCLE ( 'NONE', #797, 0.7500000000000032200 ) ;
#513 = CARTESIAN_POINT ( 'NONE',  ( 2.500000000000000900, 33.99999999999998600, 2.500000000000000000 ) ) ;
#514 = EDGE_CURVE ( 'NONE', #811, #569, #180, .T. ) ;
#515 = DESIGN_CONTEXT ( 'detailed design', #326, 'design' ) ;
#516 = VERTEX_POINT ( 'NONE', #16 ) ;
#517 = VERTEX_POINT ( 'NONE', #130 ) ;
#518 = CYLINDRICAL_SURFACE ( 'NONE', #544, 0.7500000000000032200 ) ;
#519 = ORIENTED_EDGE ( 'NONE', *, *, #678, .T. ) ;
#520 = FACE_BOUND ( 'NONE', #734, .T. ) ;
#521 = CARTESIAN_POINT ( 'NONE',  ( -3.000000000000001800, 8.000000000000000000, 0.0000000000000000000 ) ) ;
#522 = EDGE_CURVE ( 'NONE', #447, #599, #771, .T. ) ;
#523 = CARTESIAN_POINT ( 'NONE',  ( -4.906854249492375300, 33.99999999999998600, 2.500000000000000000 ) ) ;
#524 = CARTESIAN_POINT ( 'NONE',  ( 9.999999999999998200, 8.000000000000000000, 0.0000000000000000000 ) ) ;
#525 = ORIENTED_EDGE ( 'NONE', *, *, #547, .F. ) ;
#526 = DIRECTION ( 'NONE',  ( 1.156482317317871500E-016, 1.000000000000000000, -0.0000000000000000000 ) ) ;
#527 = ORIENTED_EDGE ( 'NONE', *, *, #501, .F. ) ;
#528 = CARTESIAN_POINT ( 'NONE',  ( 0.7500000000000008900, 28.34314575050760600, 2.500000000000000000 ) ) ;
#529 = COORDINATED_UNIVERSAL_TIME_OFFSET ( 1, 0, .AHEAD. ) ;
#530 = CIRCLE ( 'NONE', #434, 3.500000000000000000 ) ;
#531 = PLANE ( 'NONE',  #813 ) ;
#532 = EDGE_CURVE ( 'NONE', #323, #517, #652, .T. ) ;
#533 = AXIS2_PLACEMENT_3D ( 'NONE', #383, #796, #249 ) ;
#534 = CARTESIAN_POINT ( 'NONE',  ( -10.00000000000000400, 23.00000000000000000, 2.500000000000000000 ) ) ;
#535 = DIRECTION ( 'NONE',  ( 0.0000000000000000000, 0.0000000000000000000, 1.000000000000000000 ) ) ;
#536 = ORIENTED_EDGE ( 'NONE', *, *, #638, .F. ) ;
#537 = DIRECTION ( 'NONE',  ( -0.0000000000000000000, -0.0000000000000000000, -1.000000000000000000 ) ) ;
#538 = ORIENTED_EDGE ( 'NONE', *, *, #659, .F. ) ;
#539 = ORIENTED_EDGE ( 'NONE', *, *, #727, .T. ) ;
#540 = FACE_BOUND ( 'NONE', #450, .T. ) ;
#541 = FACE_BOUND ( 'NONE', #308, .T. ) ;
#542 = CARTESIAN_POINT ( 'NONE',  ( -0.7500000000000006700, 39.65685424949237600, 2.500000000000000000 ) ) ;
#543 = DIRECTION ( 'NONE',  ( -0.0000000000000000000, -0.0000000000000000000, -1.000000000000000000 ) ) ;
#544 = AXIS2_PLACEMENT_3D ( 'NONE', #38, #390, #870 ) ;
#545 = CARTESIAN_POINT ( 'NONE',  ( 5.656854249492378800, 33.99999999999997200, 0.0000000000000000000 ) ) ;
#546 = CARTESIAN_POINT ( 'NONE',  ( 10.00000000000000400, 23.00000000000000000, 2.500000000000000000 ) ) ;
#547 = EDGE_CURVE ( 'NONE', #643, #150, #474, .T. ) ;
#548 = VERTEX_POINT ( 'NONE', #618 ) ;
#549 = ORIENTED_EDGE ( 'NONE', *, *, #774, .T. ) ;
#550 = VERTEX_POINT ( 'NONE', #14 ) ;
#551 = DIRECTION ( 'NONE',  ( 1.000000000000000000, 0.0000000000000000000, 0.0000000000000000000 ) ) ;
#552 = ORIENTED_EDGE ( 'NONE', *, *, #319, .F. ) ;
#553 = ADVANCED_FACE ( 'NONE', ( #123 ), #453, .F. ) ;
#554 = DIRECTION ( 'NONE',  ( -1.156482317317871500E-016, -1.000000000000000000, 0.0000000000000000000 ) ) ;
#555 = DIRECTION ( 'NONE',  ( 1.000000000000000000, 0.0000000000000000000, -0.0000000000000000000 ) ) ;
#556 = ORIENTED_EDGE ( 'NONE', *, *, #786, .F. ) ;
#557 = EDGE_CURVE ( 'NONE', #591, #825, #66, .T. ) ;
#558 = ORIENTED_EDGE ( 'NONE', *, *, #272, .F. ) ;
#559 = DATE_AND_TIME ( #164, #839 ) ;
#560 = AXIS2_PLACEMENT_3D ( 'NONE', #704, #628, #777 ) ;
#561 = ORIENTED_EDGE ( 'NONE', *, *, #396, .T. ) ;
#562 = CARTESIAN_POINT ( 'NONE',  ( 12.50000000000000200, 33.99999999999998600, 2.500000000000000000 ) ) ;
#563 = VECTOR ( 'NONE', #680, 1000.000000000000000 ) ;
#564 = PRODUCT ( 'yaw_part_1_Domyúlna_sldprt', 'yaw_part_1_Domyúlna_sldprt', '', ( #877 ) ) ;
#565 = APPROVAL ( #584, 'UNSPECIFIED' ) ;
#566 = ORIENTED_EDGE ( 'NONE', *, *, #653, .F. ) ;
#567 = ORIENTED_EDGE ( 'NONE', *, *, #160, .F. ) ;
#568 = DIRECTION ( 'NONE',  ( 1.000000000000000000, 0.0000000000000000000, 0.0000000000000000000 ) ) ;
#569 = VERTEX_POINT ( 'NONE', #220 ) ;
#570 = FACE_BOUND ( 'NONE', #461, .T. ) ;
#571 = PLANE ( 'NONE',  #594 ) ;
#572 = ADVANCED_FACE ( 'NONE', ( #831 ), #29, .F. ) ;
#573 = DIRECTION ( 'NONE',  ( -1.000000000000000000, 0.0000000000000000000, 0.0000000000000000000 ) ) ;
#574 = AXIS2_PLACEMENT_3D ( 'NONE', #726, #57, #253 ) ;
#575 = CARTESIAN_POINT ( 'NONE',  ( 10.00000000000000400, 23.00000000000000000, 0.0000000000000000000 ) ) ;
#576 = ORIENTED_EDGE ( 'NONE', *, *, #12, .F. ) ;
#577 = DIRECTION ( 'NONE',  ( -1.156482317317871500E-016, 1.000000000000000000, 0.0000000000000000000 ) ) ;
#578 = PERSON_AND_ORGANIZATION ( #785, #82 ) ;
#579 = CARTESIAN_POINT ( 'NONE',  ( -5.656854249492378800, 33.99999999999998600, 0.0000000000000000000 ) ) ;
#580 = FACE_BOUND ( 'NONE', #191, .T. ) ;
#581 = PRODUCT_DEFINITION_FORMATION_WITH_SPECIFIED_SOURCE ( 'ANY', '', #564, .NOT_KNOWN. ) ;
#582 = CYLINDRICAL_SURFACE ( 'NONE', #621, 0.7500000000000002200 ) ;
#583 = DIRECTION ( 'NONE',  ( 1.000000000000000000, 0.0000000000000000000, 0.0000000000000000000 ) ) ;
#584 = APPROVAL_STATUS ( 'not_yet_approved' ) ;
#585 = CARTESIAN_POINT ( 'NONE',  ( 10.00000000000000200, 8.000000000000000000, 2.500000000000000000 ) ) ;
#586 = AXIS2_PLACEMENT_3D ( 'NONE', #812, #55, #403 ) ;
#587 = ORIENTED_EDGE ( 'NONE', *, *, #452, .F. ) ;
#588 = LINE ( 'NONE', #513, #232 ) ;
#589 = PERSON_AND_ORGANIZATION ( #785, #82 ) ;
#590 = CARTESIAN_POINT ( 'NONE',  ( 12.50000000000000200, 33.99999999999998600, 2.500000000000000000 ) ) ;
#591 = VERTEX_POINT ( 'NONE', #753 ) ;
#592 = EDGE_CURVE ( 'NONE', #622, #389, #724, .T. ) ;
#593 = APPLICATION_PROTOCOL_DEFINITION ( 'international standard', 'config_control_design', 1994, #326 ) ;
#594 = AXIS2_PLACEMENT_3D ( 'NONE', #162, #304, #466 ) ;
#595 = CARTESIAN_POINT ( 'NONE',  ( -6.406854249492381500, 33.99999999999998600, 2.500000000000000000 ) ) ;
#596 = DIRECTION ( 'NONE',  ( -1.000000000000000000, 0.0000000000000000000, 0.0000000000000000000 ) ) ;
#597 = DIRECTION ( 'NONE',  ( -1.000000000000000000, 0.0000000000000000000, 0.0000000000000000000 ) ) ;
#598 = DIRECTION ( 'NONE',  ( 1.000000000000000000, 0.0000000000000000000, 0.0000000000000000000 ) ) ;
#599 = VERTEX_POINT ( 'NONE', #419 ) ;
#600 = DIRECTION ( 'NONE',  ( -0.0000000000000000000, -0.0000000000000000000, -1.000000000000000000 ) ) ;
#601 = ORIENTED_EDGE ( 'NONE', *, *, #226, .F. ) ;
#602 = ORIENTED_EDGE ( 'NONE', *, *, #328, .T. ) ;
#603 = VECTOR ( 'NONE', #235, 1000.000000000000000 ) ;
#604 = PLANE ( 'NONE',  #227 ) ;
#605 = FACE_OUTER_BOUND ( 'NONE', #459, .T. ) ;
#606 = CARTESIAN_POINT ( 'NONE',  ( 3.000000000000003600, 23.00000000000000000, 2.500000000000000000 ) ) ;
#607 = EDGE_CURVE ( 'NONE', #211, #492, #661, .T. ) ;
#608 = CARTESIAN_POINT ( 'NONE',  ( -12.50000000000000200, 33.99999999999998600, 0.0000000000000000000 ) ) ;
#609 = EDGE_LOOP ( 'NONE', ( #149, #391, #538, #837 ) ) ;
#610 = ORIENTED_EDGE ( 'NONE', *, *, #770, .F. ) ;
#611 = LINE ( 'NONE', #575, #91 ) ;
#612 = EDGE_LOOP ( 'NONE', ( #71, #768, #374, #213 ) ) ;
#613 = CALENDAR_DATE ( 2018, 5, 11 ) ;
#614 = ORIENTED_EDGE ( 'NONE', *, *, #364, .F. ) ;
#615 = ADVANCED_FACE ( 'NONE', ( #605 ), #462, .F. ) ;
#616 = FACE_OUTER_BOUND ( 'NONE', #255, .T. ) ;
#617 = DIRECTION ( 'NONE',  ( 1.000000000000000000, 0.0000000000000000000, 0.0000000000000000000 ) ) ;
#618 = CARTESIAN_POINT ( 'NONE',  ( -2.500000000000000900, 33.99999999999998600, 2.500000000000000000 ) ) ;
#619 = DIRECTION ( 'NONE',  ( 1.530638361156006700E-016, -1.000000000000000000, 0.0000000000000000000 ) ) ;
#620 = EDGE_CURVE ( 'NONE', #548, #288, #435, .T. ) ;
#621 = AXIS2_PLACEMENT_3D ( 'NONE', #686, #764, #8 ) ;
#622 = VERTEX_POINT ( 'NONE', #69 ) ;
#623 = ADVANCED_FACE ( 'NONE', ( #637 ), #582, .F. ) ;
#624 = VERTEX_POINT ( 'NONE', #542 ) ;
#625 = PERSON_AND_ORGANIZATION ( #785, #82 ) ;
#626 = LINE ( 'NONE', #42, #362 ) ;
#627 = VECTOR ( 'NONE', #526, 1000.000000000000000 ) ;
#628 = DIRECTION ( 'NONE',  ( 0.0000000000000000000, 0.0000000000000000000, 1.000000000000000000 ) ) ;
#629 = CC_DESIGN_PERSON_AND_ORGANIZATION_ASSIGNMENT ( #509, #725, ( #581 ) ) ;
#630 = DIRECTION ( 'NONE',  ( -0.0000000000000000000, -0.0000000000000000000, -1.000000000000000000 ) ) ;
#631 = ORIENTED_EDGE ( 'NONE', *, *, #88, .T. ) ;
#632 = AXIS2_PLACEMENT_3D ( 'NONE', #248, #98, #651 ) ;
#633 = EDGE_LOOP ( 'NONE', ( #614, #420, #277, #536 ) ) ;
#634 = AXIS2_PLACEMENT_3D ( 'NONE', #87, #695, #221 ) ;
#635 = LOCAL_TIME ( 17, 58, 2.000000000000000000, #223 ) ;
#636 = CARTESIAN_POINT ( 'NONE',  ( 0.7500000000000006700, 39.65685424949237600, 0.0000000000000000000 ) ) ;
#637 = FACE_OUTER_BOUND ( 'NONE', #778, .T. ) ;
#638 = EDGE_CURVE ( 'NONE', #622, #73, #94, .T. ) ;
#639 = DIRECTION ( 'NONE',  ( -0.0000000000000000000, -0.0000000000000000000, -1.000000000000000000 ) ) ;
#640 = ADVANCED_FACE ( 'NONE', ( #281 ), #451, .F. ) ;
#641 = DIRECTION ( 'NONE',  ( 0.0000000000000000000, 0.0000000000000000000, 1.000000000000000000 ) ) ;
#642 = EDGE_CURVE ( 'NONE', #189, #143, #806, .T. ) ;
#643 = VERTEX_POINT ( 'NONE', #437 ) ;
#644 = LINE ( 'NONE', #798, #175 ) ;
#645 = DIRECTION ( 'NONE',  ( 1.156482317317871500E-016, -1.000000000000000000, 0.0000000000000000000 ) ) ;
#646 = ORIENTED_EDGE ( 'NONE', *, *, #371, .T. ) ;
#647 = APPROVAL_DATE_TIME ( #559, #185 ) ;
#648 = ORIENTED_EDGE ( 'NONE', *, *, #113, .F. ) ;
#649 = ADVANCED_FACE ( 'NONE', ( #540, #267, #570, #541, #9, #216, #83, #520 ), #702, .F. ) ;
#650 = CIRCLE ( 'NONE', #750, 2.500000000000000900 ) ;
#651 = DIRECTION ( 'NONE',  ( -1.000000000000000000, 0.0000000000000000000, 0.0000000000000000000 ) ) ;
#652 = LINE ( 'NONE', #760, #85 ) ;
#653 = EDGE_CURVE ( 'NONE', #550, #599, #28, .T. ) ;
#654 = DIRECTION ( 'NONE',  ( 0.0000000000000000000, 0.0000000000000000000, 1.000000000000000000 ) ) ;
#655 = APPROVAL_ROLE ( '' ) ;
#656 = ORIENTED_EDGE ( 'NONE', *, *, #838, .F. ) ;
#657 = VERTEX_POINT ( 'NONE', #145 ) ;
#658 = CARTESIAN_POINT ( 'NONE',  ( 6.927648449883514400E-016, 28.34314575050760600, 0.0000000000000000000 ) ) ;
#659 = EDGE_CURVE ( 'NONE', #550, #211, #245, .T. ) ;
#660 = CYLINDRICAL_SURFACE ( 'NONE', #89, 3.500000000000000400 ) ;
#661 = LINE ( 'NONE', #278, #300 ) ;
#662 = DIRECTION ( 'NONE',  ( -0.0000000000000000000, -0.0000000000000000000, -1.000000000000000000 ) ) ;
#663 = CARTESIAN_POINT ( 'NONE',  ( 9.999999999999998200, 8.000000000000000000, 2.500000000000000000 ) ) ;
#664 = CARTESIAN_POINT ( 'NONE',  ( 6.927648449883514400E-016, 28.34314575050760600, 2.500000000000000000 ) ) ;
#665 = DIRECTION ( 'NONE',  ( -1.000000000000000000, 0.0000000000000000000, 0.0000000000000000000 ) ) ;
#666 = ORIENTED_EDGE ( 'NONE', *, *, #2, .F. ) ;
#667 = LINE ( 'NONE', #395, #836 ) ;
#668 = ORIENTED_EDGE ( 'NONE', *, *, #47, .T. ) ;
#669 = CALENDAR_DATE ( 2018, 5, 11 ) ;
#670 = CARTESIAN_POINT ( 'NONE',  ( -10.00000000000000400, 23.00000000000000000, 0.0000000000000000000 ) ) ;
#671 = ORIENTED_EDGE ( 'NONE', *, *, #754, .F. ) ;
#672 = AXIS2_PLACEMENT_3D ( 'NONE', #446, #381, #577 ) ;
#673 = CIRCLE ( 'NONE', #78, 0.7500000000000006700 ) ;
#674 = AXIS2_PLACEMENT_3D ( 'NONE', #224, #365, #555 ) ;
#675 = VECTOR ( 'NONE', #10, 1000.000000000000000 ) ;
#676 = DIRECTION ( 'NONE',  ( 0.0000000000000000000, 0.0000000000000000000, 1.000000000000000000 ) ) ;
#677 = CARTESIAN_POINT ( 'NONE',  ( 6.500000000000002700, 23.00000000000000000, 2.500000000000000000 ) ) ;
#678 = EDGE_CURVE ( 'NONE', #449, #814, #530, .T. ) ;
#679 = DIRECTION ( 'NONE',  ( -0.0000000000000000000, -0.0000000000000000000, -1.000000000000000000 ) ) ;
#680 = DIRECTION ( 'NONE',  ( -0.0000000000000000000, -0.0000000000000000000, -1.000000000000000000 ) ) ;
#681 = CARTESIAN_POINT ( 'NONE',  ( -6.499999999999998200, 8.000000000000000000, 2.500000000000000000 ) ) ;
#682 = VECTOR ( 'NONE', #821, 1000.000000000000000 ) ;
#683 = LINE ( 'NONE', #859, #36 ) ;
#684 = FACE_OUTER_BOUND ( 'NONE', #120, .T. ) ;
#685 = EDGE_CURVE ( 'NONE', #80, #690, #673, .T. ) ;
#686 = CARTESIAN_POINT ( 'NONE',  ( 6.927648449883514400E-016, 28.34314575050760600, 2.500000000000000000 ) ) ;
#687 = ADVANCED_FACE ( 'NONE', ( #203 ), #20, .F. ) ;
#688 = ORIENTED_EDGE ( 'NONE', *, *, #303, .F. ) ;
#689 = CARTESIAN_POINT ( 'NONE',  ( 6.927648449883514400E-016, 28.34314575050760600, 2.500000000000000000 ) ) ;
#690 = VERTEX_POINT ( 'NONE', #636 ) ;
#691 = FACE_OUTER_BOUND ( 'NONE', #730, .T. ) ;
#692 = VERTEX_POINT ( 'NONE', #773 ) ;
#693 = LINE ( 'NONE', #377, #337 ) ;
#694 = CARTESIAN_POINT ( 'NONE',  ( 0.0000000000000000000, 33.99999999999998600, 0.0000000000000000000 ) ) ;
#695 = DIRECTION ( 'NONE',  ( 0.0000000000000000000, 0.0000000000000000000, 1.000000000000000000 ) ) ;
#696 = ORIENTED_EDGE ( 'NONE', *, *, #620, .T. ) ;
#697 = ORIENTED_EDGE ( 'NONE', *, *, #801, .F. ) ;
#698 = FACE_OUTER_BOUND ( 'NONE', #733, .T. ) ;
#699 = ORIENTED_EDGE ( 'NONE', *, *, #592, .T. ) ;
#700 = CIRCLE ( 'NONE', #342, 3.500000000000000000 ) ;
#701 = EDGE_CURVE ( 'NONE', #690, #80, #874, .T. ) ;
#702 = PLANE ( 'NONE',  #674 ) ;
#703 = CC_DESIGN_DATE_AND_TIME_ASSIGNMENT ( #266, #192, ( #22 ) ) ;
#704 = CARTESIAN_POINT ( 'NONE',  ( -4.930380657631323800E-029, 39.65685424949237600, 0.0000000000000000000 ) ) ;
#705 = CARTESIAN_POINT ( 'NONE',  ( 3.000000000000003600, 23.00000000000000000, 0.0000000000000000000 ) ) ;
#706 = ORIENTED_EDGE ( 'NONE', *, *, #160, .T. ) ;
#707 = EDGE_LOOP ( 'NONE', ( #279, #828, #49, #802 ) ) ;
#708 = CIRCLE ( 'NONE', #76, 3.500000000000000000 ) ;
#709 = EDGE_LOOP ( 'NONE', ( #296, #706 ) ) ;
#710 = ORIENTED_EDGE ( 'NONE', *, *, #765, .T. ) ;
#711 = CARTESIAN_POINT ( 'NONE',  ( 0.0000000000000000000, 33.99999999999998600, 2.500000000000000000 ) ) ;
#712 = FACE_OUTER_BOUND ( 'NONE', #409, .T. ) ;
#713 = CARTESIAN_POINT ( 'NONE',  ( 0.0000000000000000000, 33.99999999999998600, 0.0000000000000000000 ) ) ;
#714 = AXIS2_PLACEMENT_3D ( 'NONE', #345, #416, #126 ) ;
#715 = CARTESIAN_POINT ( 'NONE',  ( -0.7500000000000006700, 39.65685424949237600, 0.0000000000000000000 ) ) ;
#716 = CARTESIAN_POINT ( 'NONE',  ( 0.7500000000000008900, 28.34314575050760600, 0.0000000000000000000 ) ) ;
#717 = EDGE_CURVE ( 'NONE', #288, #23, #650, .T. ) ;
#718 = EDGE_LOOP ( 'NONE', ( #202, #309 ) ) ;
#719 = DIRECTION ( 'NONE',  ( 0.0000000000000000000, 0.0000000000000000000, 1.000000000000000000 ) ) ;
#720 = ORIENTED_EDGE ( 'NONE', *, *, #607, .T. ) ;
#721 = CYLINDRICAL_SURFACE ( 'NONE', #35, 12.50000000000000200 ) ;
#722 = ORIENTED_EDGE ( 'NONE', *, *, #514, .F. ) ;
#723 = VECTOR ( 'NONE', #386, 1000.000000000000000 ) ;
#724 = LINE ( 'NONE', #484, #325 ) ;
#725 = PERSON_AND_ORGANIZATION_ROLE ( 'creator' ) ;
#726 = CARTESIAN_POINT ( 'NONE',  ( -4.930380657631323800E-029, 39.65685424949237600, 2.500000000000000000 ) ) ;
#727 = EDGE_CURVE ( 'NONE', #591, #692, #153, .T. ) ;
#728 =( GEOMETRIC_REPRESENTATION_CONTEXT ( 3 ) GLOBAL_UNCERTAINTY_ASSIGNED_CONTEXT ( ( #460 ) ) GLOBAL_UNIT_ASSIGNED_CONTEXT ( ( #177, #465, #873 ) ) REPRESENTATION_CONTEXT ( 'NONE', 'WORKASPACE' ) );
#729 = CARTESIAN_POINT ( 'NONE',  ( -4.906854249492375300, 33.99999999999998600, 2.500000000000000000 ) ) ;
#730 = EDGE_LOOP ( 'NONE', ( #275, #648, #883, #539 ) ) ;
#731 = ORIENTED_EDGE ( 'NONE', *, *, #260, .T. ) ;
#732 = DIRECTION ( 'NONE',  ( 1.156482317317871500E-016, -1.000000000000000000, 0.0000000000000000000 ) ) ;
#733 = EDGE_LOOP ( 'NONE', ( #197, #549, #527, #336 ) ) ;
#734 = EDGE_LOOP ( 'NONE', ( #519, #286, #322, #780 ) ) ;
#735 = CALENDAR_DATE ( 2018, 5, 11 ) ;
#736 = ORIENTED_EDGE ( 'NONE', *, *, #717, .F. ) ;
#737 = DIRECTION ( 'NONE',  ( -1.156482317317871500E-016, -1.000000000000000000, 0.0000000000000000000 ) ) ;
#738 = DIRECTION ( 'NONE',  ( -0.0000000000000000000, -0.0000000000000000000, -1.000000000000000000 ) ) ;
#739 = EDGE_CURVE ( 'NONE', #131, #775, #7, .T. ) ;
#740 = SECURITY_CLASSIFICATION ( '', '', #320 ) ;
#741 = CARTESIAN_POINT ( 'NONE',  ( 10.00000000000000400, 23.00000000000000000, 2.500000000000000000 ) ) ;
#742 = DIRECTION ( 'NONE',  ( 1.156482317317871500E-016, 1.000000000000000000, 0.0000000000000000000 ) ) ;
#743 = LINE ( 'NONE', #810, #199 ) ;
#744 = CARTESIAN_POINT ( 'NONE',  ( -10.00000000000000400, 23.00000000000000000, 2.500000000000000000 ) ) ;
#745 = EDGE_LOOP ( 'NONE', ( #656, #242 ) ) ;
#746 = DATE_AND_TIME ( #402, #310 ) ;
#747 = CARTESIAN_POINT ( 'NONE',  ( 5.656854249492378800, 33.99999999999997200, 0.0000000000000000000 ) ) ;
#748 = EDGE_CURVE ( 'NONE', #70, #323, #842, .T. ) ;
#749 = VECTOR ( 'NONE', #294, 1000.000000000000000 ) ;
#750 = AXIS2_PLACEMENT_3D ( 'NONE', #694, #431, #92 ) ;
#751 = LINE ( 'NONE', #741, #563 ) ;
#752 = CARTESIAN_POINT ( 'NONE',  ( 10.00000000000000400, 23.00000000000000000, 0.0000000000000000000 ) ) ;
#753 = CARTESIAN_POINT ( 'NONE',  ( 12.50000000000000200, 33.99999999999998600, 2.500000000000000000 ) ) ;
#754 = EDGE_CURVE ( 'NONE', #143, #189, #167, .T. ) ;
#755 = PLANE ( 'NONE',  #863 ) ;
#756 = EDGE_LOOP ( 'NONE', ( #321, #803, #696, #567 ) ) ;
#757 = CLOSED_SHELL ( 'NONE', ( #356, #623, #222, #234, #615, #855, #649, #157, #427, #443, #687, #86, #19, #782, #237, #553, #315, #640, #572, #77, #382, #292, #40, #506 ) ) ;
#758 = ORIENTED_EDGE ( 'NONE', *, *, #592, .F. ) ;
#759 = ORIENTED_EDGE ( 'NONE', *, *, #547, .T. ) ;
#760 = CARTESIAN_POINT ( 'NONE',  ( 4.906854249492378800, 33.99999999999997200, 2.500000000000000000 ) ) ;
#761 = ORIENTED_EDGE ( 'NONE', *, *, #417, .F. ) ;
#762 = LINE ( 'NONE', #198, #675 ) ;
#763 = CARTESIAN_POINT ( 'NONE',  ( 0.0000000000000000000, 33.99999999999998600, 2.500000000000000000 ) ) ;
#764 = DIRECTION ( 'NONE',  ( -0.0000000000000000000, -0.0000000000000000000, -1.000000000000000000 ) ) ;
#765 = EDGE_CURVE ( 'NONE', #548, #432, #502, .T. ) ;
#766 = CC_DESIGN_PERSON_AND_ORGANIZATION_ASSIGNMENT ( #625, #393, ( #564 ) ) ;
#767 = ORIENTED_EDGE ( 'NONE', *, *, #659, .T. ) ;
#768 = ORIENTED_EDGE ( 'NONE', *, *, #754, .T. ) ;
#769 = FACE_BOUND ( 'NONE', #239, .T. ) ;
#770 = EDGE_CURVE ( 'NONE', #814, #389, #792, .T. ) ;
#771 = LINE ( 'NONE', #608, #483 ) ;
#772 = CARTESIAN_POINT ( 'NONE',  ( -12.49999999999999600, 0.0000000000000000000, 2.500000000000000000 ) ) ;
#773 = CARTESIAN_POINT ( 'NONE',  ( 12.50000000000000200, 33.99999999999998600, 0.0000000000000000000 ) ) ;
#774 = EDGE_CURVE ( 'NONE', #70, #121, #683, .T. ) ;
#775 = VERTEX_POINT ( 'NONE', #241 ) ;
#776 = ORIENTED_EDGE ( 'NONE', *, *, #39, .T. ) ;
#777 = DIRECTION ( 'NONE',  ( 1.000000000000000000, 0.0000000000000000000, 0.0000000000000000000 ) ) ;
#778 = EDGE_LOOP ( 'NONE', ( #759, #100, #498, #489 ) ) ;
#779 = LOCAL_TIME ( 17, 58, 2.000000000000000000, #298 ) ;
#780 = ORIENTED_EDGE ( 'NONE', *, *, #2, .T. ) ;
#781 = VECTOR ( 'NONE', #475, 1000.000000000000000 ) ;
#782 = ADVANCED_FACE ( 'NONE', ( #144 ), #660, .F. ) ;
#783 = CARTESIAN_POINT ( 'NONE',  ( -6.499999999999998200, 8.000000000000000000, 2.500000000000000000 ) ) ;
#784 = AXIS2_PLACEMENT_3D ( 'NONE', #545, #833, #617 ) ;
#785 = PERSON ( 'UNSPECIFIED', 'UNSPECIFIED', 'UNSPECIFIED', ('UNSPECIFIED'), ('UNSPECIFIED'), ('UNSPECIFIED') ) ;
#786 = EDGE_CURVE ( 'NONE', #825, #550, #817, .T. ) ;
#787 = CARTESIAN_POINT ( 'NONE',  ( 10.00000000000000400, 23.00000000000000000, 2.500000000000000000 ) ) ;
#788 = CC_DESIGN_APPROVAL ( #185, ( #740 ) ) ;
#789 = ORIENTED_EDGE ( 'NONE', *, *, #846, .F. ) ;
#790 = ORIENTED_EDGE ( 'NONE', *, *, #829, .T. ) ;
#791 = PERSON_AND_ORGANIZATION ( #785, #82 ) ;
#792 = LINE ( 'NONE', #705, #723 ) ;
#793 = CIRCLE ( 'NONE', #21, 0.7499999999999997800 ) ;
#794 = CARTESIAN_POINT ( 'NONE',  ( 6.406854249492377900, 33.99999999999997200, 2.500000000000000000 ) ) ;
#795 = EDGE_CURVE ( 'NONE', #118, #299, #512, .T. ) ;
#796 = DIRECTION ( 'NONE',  ( 0.0000000000000000000, 0.0000000000000000000, 1.000000000000000000 ) ) ;
#797 = AXIS2_PLACEMENT_3D ( 'NONE', #579, #641, #41 ) ;
#798 = CARTESIAN_POINT ( 'NONE',  ( -10.00000000000000400, 23.00000000000000000, 2.500000000000000000 ) ) ;
#799 = PERSON_AND_ORGANIZATION_ROLE ( 'classification_officer' ) ;
#800 = DIRECTION ( 'NONE',  ( -1.000000000000000000, 0.0000000000000000000, 0.0000000000000000000 ) ) ;
#801 = EDGE_CURVE ( 'NONE', #432, #548, #122, .T. ) ;
#802 = ORIENTED_EDGE ( 'NONE', *, *, #293, .F. ) ;
#803 = ORIENTED_EDGE ( 'NONE', *, *, #801, .T. ) ;
#804 = CIRCLE ( 'NONE', #195, 12.50000000000000200 ) ;
#805 = ORIENTED_EDGE ( 'NONE', *, *, #226, .T. ) ;
#806 = CIRCLE ( 'NONE', #634, 0.7500000000000032200 ) ;
#807 = DIRECTION ( 'NONE',  ( -1.000000000000000000, -1.156482317317871500E-016, 0.0000000000000000000 ) ) ;
#808 = APPLICATION_PROTOCOL_DEFINITION ( 'international standard', 'config_control_design', 1994, #188 ) ;
#809 = DIRECTION ( 'NONE',  ( -1.000000000000000000, 0.0000000000000000000, 0.0000000000000000000 ) ) ;
#810 = CARTESIAN_POINT ( 'NONE',  ( -6.406854249492381500, 33.99999999999998600, 2.500000000000000000 ) ) ;
#811 = VERTEX_POINT ( 'NONE', #716 ) ;
#812 = CARTESIAN_POINT ( 'NONE',  ( -4.930380657631323800E-029, 39.65685424949237600, 2.500000000000000000 ) ) ;
#813 = AXIS2_PLACEMENT_3D ( 'NONE', #194, #807, #732 ) ;
#814 = VERTEX_POINT ( 'NONE', #171 ) ;
#815 = APPROVAL ( #867, 'UNSPECIFIED' ) ;
#816 = EDGE_LOOP ( 'NONE', ( #886, #480, #251, #869 ) ) ;
#817 = LINE ( 'NONE', #856, #603 ) ;
#818 = DIRECTION ( 'NONE',  ( -1.530638361156006700E-016, 1.000000000000000000, 0.0000000000000000000 ) ) ;
#819 = VECTOR ( 'NONE', #738, 1000.000000000000000 ) ;
#820 = EDGE_CURVE ( 'NONE', #230, #52, #178, .T. ) ;
#821 = DIRECTION ( 'NONE',  ( -1.156482317317871500E-016, 1.000000000000000000, -0.0000000000000000000 ) ) ;
#822 = CC_DESIGN_PERSON_AND_ORGANIZATION_ASSIGNMENT ( #379, #398, ( #581 ) ) ;
#823 = CARTESIAN_POINT ( 'NONE',  ( 6.500000000000002700, 23.00000000000000000, 2.500000000000000000 ) ) ;
#824 = DIRECTION ( 'NONE',  ( 1.000000000000000000, 0.0000000000000000000, 0.0000000000000000000 ) ) ;
#825 = VERTEX_POINT ( 'NONE', #316 ) ;
#826 = DIRECTION ( 'NONE',  ( -0.0000000000000000000, -0.0000000000000000000, -1.000000000000000000 ) ) ;
#827 = FACE_OUTER_BOUND ( 'NONE', #311, .T. ) ;
#828 = ORIENTED_EDGE ( 'NONE', *, *, #349, .F. ) ;
#829 = EDGE_CURVE ( 'NONE', #516, #690, #626, .T. ) ;
#830 = APPROVAL_PERSON_ORGANIZATION ( #791, #815, #400 ) ;
#831 = FACE_OUTER_BOUND ( 'NONE', #392, .T. ) ;
#832 = DIRECTION ( 'NONE',  ( -0.0000000000000000000, -0.0000000000000000000, -1.000000000000000000 ) ) ;
#833 = DIRECTION ( 'NONE',  ( 0.0000000000000000000, 0.0000000000000000000, 1.000000000000000000 ) ) ;
#834 = AXIS2_PLACEMENT_3D ( 'NONE', #689, #353, #283 ) ;
#835 = EDGE_LOOP ( 'NONE', ( #15, #152, #18, #880 ) ) ;
#836 = VECTOR ( 'NONE', #862, 1000.000000000000000 ) ;
#837 = ORIENTED_EDGE ( 'NONE', *, *, #653, .T. ) ;
#838 = EDGE_CURVE ( 'NONE', #323, #70, #887, .T. ) ;
#839 = LOCAL_TIME ( 17, 58, 2.000000000000000000, #529 ) ;
#840 = DIRECTION ( 'NONE',  ( -0.0000000000000000000, -0.0000000000000000000, -1.000000000000000000 ) ) ;
#841 = ORIENTED_EDGE ( 'NONE', *, *, #464, .T. ) ;
#842 = CIRCLE ( 'NONE', #847, 0.7499999999999997800 ) ;
#843 = FACE_OUTER_BOUND ( 'NONE', #378, .T. ) ;
#844 = DIRECTION ( 'NONE',  ( 0.0000000000000000000, 0.0000000000000000000, 1.000000000000000000 ) ) ;
#845 = DIRECTION ( 'NONE',  ( -1.000000000000000000, 0.0000000000000000000, 0.0000000000000000000 ) ) ;
#846 = EDGE_CURVE ( 'NONE', #599, #492, #693, .T. ) ;
#847 = AXIS2_PLACEMENT_3D ( 'NONE', #107, #654, #156 ) ;
#848 = ORIENTED_EDGE ( 'NONE', *, *, #642, .T. ) ;
#849 = FACE_OUTER_BOUND ( 'NONE', #472, .T. ) ;
#850 = VERTEX_POINT ( 'NONE', #787 ) ;
#851 = EDGE_CURVE ( 'NONE', #643, #569, #433, .T. ) ;
#852 = CARTESIAN_POINT ( 'NONE',  ( -3.000000000000003600, 23.00000000000000000, 2.500000000000000000 ) ) ;
#853 = FACE_OUTER_BOUND ( 'NONE', #835, .T. ) ;
#854 = CC_DESIGN_APPROVAL ( #565, ( #581 ) ) ;
#855 = ADVANCED_FACE ( 'NONE', ( #580, #493, #134, #712, #769, #412, #103, #324 ), #571, .T. ) ;
#856 = CARTESIAN_POINT ( 'NONE',  ( -12.50000000000000200, 33.99999999999998600, 2.500000000000000000 ) ) ;
#857 = DIRECTION ( 'NONE',  ( -0.0000000000000000000, -0.0000000000000000000, -1.000000000000000000 ) ) ;
#858 = ORIENTED_EDGE ( 'NONE', *, *, #701, .T. ) ;
#859 = CARTESIAN_POINT ( 'NONE',  ( 6.406854249492377900, 33.99999999999997200, 2.500000000000000000 ) ) ;
#860 = ORIENTED_EDGE ( 'NONE', *, *, #739, .T. ) ;
#861 = VECTOR ( 'NONE', #90, 1000.000000000000000 ) ;
#862 = DIRECTION ( 'NONE',  ( -1.156482317317871500E-016, 1.000000000000000000, -0.0000000000000000000 ) ) ;
#863 = AXIS2_PLACEMENT_3D ( 'NONE', #546, #274, #554 ) ;
#864 = DIRECTION ( 'NONE',  ( -0.0000000000000000000, -0.0000000000000000000, -1.000000000000000000 ) ) ;
#865 = DIRECTION ( 'NONE',  ( -1.000000000000000000, 0.0000000000000000000, 0.0000000000000000000 ) ) ;
#866 = DIRECTION ( 'NONE',  ( 0.0000000000000000000, 0.0000000000000000000, 1.000000000000000000 ) ) ;
#867 = APPROVAL_STATUS ( 'not_yet_approved' ) ;
#868 = ORIENTED_EDGE ( 'NONE', *, *, #557, .T. ) ;
#869 = ORIENTED_EDGE ( 'NONE', *, *, #417, .T. ) ;
#870 = DIRECTION ( 'NONE',  ( -1.000000000000000000, 0.0000000000000000000, 0.0000000000000000000 ) ) ;
#871 = ORIENTED_EDGE ( 'NONE', *, *, #240, .F. ) ;
#872 = VERTEX_POINT ( 'NONE', #182 ) ;
#873 =( NAMED_UNIT ( * ) SI_UNIT ( $, .STERADIAN. ) SOLID_ANGLE_UNIT ( ) );
#874 = CIRCLE ( 'NONE', #560, 0.7500000000000006700 ) ;
#875 = LINE ( 'NONE', #58, #268 ) ;
#876 = DIRECTION ( 'NONE',  ( -1.000000000000000000, 0.0000000000000000000, 0.0000000000000000000 ) ) ;
#877 = MECHANICAL_CONTEXT ( 'NONE', #188, 'mechanical' ) ;
#878 = DATE_TIME_ROLE ( 'classification_date' ) ;
#879 = EDGE_LOOP ( 'NONE', ( #6, #173, #602, #731 ) ) ;
#880 = ORIENTED_EDGE ( 'NONE', *, *, #701, .F. ) ;
#881 = CYLINDRICAL_SURFACE ( 'NONE', #632, 3.499999999999999600 ) ;
#882 = CARTESIAN_POINT ( 'NONE',  ( 12.49999999999999600, 0.0000000000000000000, 0.0000000000000000000 ) ) ;
#883 = ORIENTED_EDGE ( 'NONE', *, *, #557, .F. ) ;
#884 = APPROVAL_PERSON_ORGANIZATION ( #589, #565, #655 ) ;
#885 = DIRECTION ( 'NONE',  ( 0.0000000000000000000, 0.0000000000000000000, 1.000000000000000000 ) ) ;
#886 = ORIENTED_EDGE ( 'NONE', *, *, #328, .F. ) ;
#887 = CIRCLE ( 'NONE', #116, 0.7499999999999997800 ) ;
#888 = DIRECTION ( 'NONE',  ( 1.000000000000000000, 0.0000000000000000000, 0.0000000000000000000 ) ) ;
#889 = DIRECTION ( 'NONE',  ( 0.0000000000000000000, 0.0000000000000000000, 1.000000000000000000 ) ) ;
ENDSEC;
END-ISO-10303-21;
