ISO-10303-21;
HEADER;
FILE_DESCRIPTION (( 'STEP AP203' ),
    '1' );
FILE_NAME ('yaw_motor_1_rotor_Domyúlna_sldprt.STEP',
    '2018-11-05T16:57:59',
    ( '' ),
    ( '' ),
    'SwSTEP 2.0',
    'SolidWorks 2016',
    '' );
FILE_SCHEMA (( 'CONFIG_CONTROL_DESIGN' ));
ENDSEC;

DATA;
#1 = APPLICATION_CONTEXT ( 'configuration controlled 3d designs of mechanical parts and assemblies' ) ;
#2 = AXIS2_PLACEMENT_3D ( 'NONE', #63, #79, #112 ) ;
#3 = DATE_AND_TIME ( #59, #100 ) ;
#4 = CIRCLE ( 'NONE', #7, 17.00000000000000000 ) ;
#5 = AXIS2_PLACEMENT_3D ( 'NONE', #11, #111, #159 ) ;
#6 = CC_DESIGN_APPROVAL ( #165, ( #124 ) ) ;
#7 = AXIS2_PLACEMENT_3D ( 'NONE', #18, #138, #45 ) ;
#8 = LOCAL_TIME ( 17, 57, 59.00000000000000000, #41 ) ;
#9 = DIRECTION ( 'NONE',  ( -1.000000000000000000, 0.0000000000000000000, 0.0000000000000000000 ) ) ;
#10 = UNCERTAINTY_MEASURE_WITH_UNIT (LENGTH_MEASURE( 1.000000000000000100E-005 ), #78, 'distance_accuracy_value', 'NONE');
#11 = CARTESIAN_POINT ( 'NONE',  ( 0.0000000000000000000, 0.0000000000000000000, 10.00000000000000000 ) ) ;
#12 = CALENDAR_DATE ( 2018, 5, 11 ) ;
#13 = PERSON_AND_ORGANIZATION ( #26, #43 ) ;
#14 = ADVANCED_FACE ( 'NONE', ( #48 ), #171, .T. ) ;
#15 = PRODUCT ( 'yaw_motor_1_rotor_Domyúlna_sldprt', 'yaw_motor_1_rotor_Domyúlna_sldprt', '', ( #37 ) ) ;
#16 = ORIENTED_EDGE ( 'NONE', *, *, #115, .F. ) ;
#17 = CARTESIAN_POINT ( 'NONE',  ( 17.00000000000000000, 2.081899558550500300E-015, 10.00000000000000000 ) ) ;
#18 = CARTESIAN_POINT ( 'NONE',  ( 0.0000000000000000000, 0.0000000000000000000, 10.00000000000000000 ) ) ;
#19 = APPROVAL ( #158, 'UNSPECIFIED' ) ;
#20 = DIRECTION ( 'NONE',  ( -0.0000000000000000000, -0.0000000000000000000, -1.000000000000000000 ) ) ;
#21 = PERSON_AND_ORGANIZATION_ROLE ( 'design_supplier' ) ;
#22 = CIRCLE ( 'NONE', #139, 17.00000000000000000 ) ;
#23 = FACE_OUTER_BOUND ( 'NONE', #161, .T. ) ;
#24 = CALENDAR_DATE ( 2018, 5, 11 ) ;
#25 = EDGE_LOOP ( 'NONE', ( #16, #128 ) ) ;
#26 = PERSON ( 'UNSPECIFIED', 'UNSPECIFIED', 'UNSPECIFIED', ('UNSPECIFIED'), ('UNSPECIFIED'), ('UNSPECIFIED') ) ;
#27 = CC_DESIGN_APPROVAL ( #66, ( #164 ) ) ;
#28 = DIRECTION ( 'NONE',  ( 1.000000000000000000, 0.0000000000000000000, 0.0000000000000000000 ) ) ;
#29 = EDGE_CURVE ( 'NONE', #93, #152, #70, .T. ) ;
#30 = APPROVAL_PERSON_ORGANIZATION ( #52, #165, #143 ) ;
#31 = LINE ( 'NONE', #155, #101 ) ;
#32 = CARTESIAN_POINT ( 'NONE',  ( 0.0000000000000000000, 0.0000000000000000000, 0.0000000000000000000 ) ) ;
#33 = PLANE ( 'NONE',  #94 ) ;
#34 = FACE_OUTER_BOUND ( 'NONE', #25, .T. ) ;
#35 = CC_DESIGN_PERSON_AND_ORGANIZATION_ASSIGNMENT ( #13, #47, ( #15 ) ) ;
#36 = APPROVAL_ROLE ( '' ) ;
#37 = MECHANICAL_CONTEXT ( 'NONE', #1, 'mechanical' ) ;
#38 = COORDINATED_UNIVERSAL_TIME_OFFSET ( 1, 0, .AHEAD. ) ;
#39 = PRODUCT_RELATED_PRODUCT_CATEGORY ( 'detail', '', ( #15 ) ) ;
#40 = CC_DESIGN_DATE_AND_TIME_ASSIGNMENT ( #3, #46, ( #124 ) ) ;
#41 = COORDINATED_UNIVERSAL_TIME_OFFSET ( 1, 0, .AHEAD. ) ;
#42 = ADVANCED_FACE ( 'NONE', ( #92 ), #104, .T. ) ;
#43 = ORGANIZATION ( 'UNSPECIFIED', 'UNSPECIFIED', '' ) ;
#44 = LOCAL_TIME ( 17, 57, 59.00000000000000000, #38 ) ;
#45 = DIRECTION ( 'NONE',  ( 1.000000000000000000, 0.0000000000000000000, 0.0000000000000000000 ) ) ;
#46 = DATE_TIME_ROLE ( 'creation_date' ) ;
#47 = PERSON_AND_ORGANIZATION_ROLE ( 'design_owner' ) ;
#48 = FACE_OUTER_BOUND ( 'NONE', #149, .T. ) ;
#49 = PERSON_AND_ORGANIZATION_ROLE ( 'creator' ) ;
#50 = DESIGN_CONTEXT ( 'detailed design', #175, 'design' ) ;
#51 = ADVANCED_FACE ( 'NONE', ( #23 ), #172, .T. ) ;
#52 = PERSON_AND_ORGANIZATION ( #26, #43 ) ;
#53 = CIRCLE ( 'NONE', #5, 17.00000000000000000 ) ;
#54 = ADVANCED_BREP_SHAPE_REPRESENTATION ( 'yaw_motor_1_rotor_Domyùlna_sldprt', ( #69, #2 ), #103 ) ;
#55 = DIRECTION ( 'NONE',  ( 1.000000000000000000, 0.0000000000000000000, -0.0000000000000000000 ) ) ;
#56 = DIRECTION ( 'NONE',  ( 1.000000000000000000, 0.0000000000000000000, -0.0000000000000000000 ) ) ;
#57 = PRODUCT_DEFINITION_FORMATION_WITH_SPECIFIED_SOURCE ( 'ANY', '', #15, .NOT_KNOWN. ) ;
#58 = CARTESIAN_POINT ( 'NONE',  ( 0.0000000000000000000, 0.0000000000000000000, 0.0000000000000000000 ) ) ;
#59 = CALENDAR_DATE ( 2018, 5, 11 ) ;
#60 =( NAMED_UNIT ( * ) SI_UNIT ( $, .STERADIAN. ) SOLID_ANGLE_UNIT ( ) );
#61 = DATE_TIME_ROLE ( 'classification_date' ) ;
#62 = EDGE_CURVE ( 'NONE', #133, #134, #31, .T. ) ;
#63 = CARTESIAN_POINT ( 'NONE',  ( 0.0000000000000000000, 0.0000000000000000000, 0.0000000000000000000 ) ) ;
#64 = LOCAL_TIME ( 17, 57, 59.00000000000000000, #125 ) ;
#65 = ORIENTED_EDGE ( 'NONE', *, *, #153, .T. ) ;
#66 = APPROVAL ( #120, 'UNSPECIFIED' ) ;
#67 = PERSON_AND_ORGANIZATION ( #26, #43 ) ;
#68 = ADVANCED_FACE ( 'NONE', ( #34 ), #33, .F. ) ;
#69 = MANIFOLD_SOLID_BREP ( 'Dodanie-wyciπgniÍcie1', #122 ) ;
#70 = LINE ( 'NONE', #85, #96 ) ;
#71 = CC_DESIGN_DATE_AND_TIME_ASSIGNMENT ( #90, #61, ( #164 ) ) ;
#72 = CARTESIAN_POINT ( 'NONE',  ( 0.0000000000000000000, 0.0000000000000000000, 0.0000000000000000000 ) ) ;
#73 = APPROVAL_PERSON_ORGANIZATION ( #130, #19, #36 ) ;
#74 = ORIENTED_EDGE ( 'NONE', *, *, #127, .T. ) ;
#75 = DIRECTION ( 'NONE',  ( 0.0000000000000000000, 0.0000000000000000000, 1.000000000000000000 ) ) ;
#76 = DIRECTION ( 'NONE',  ( -0.0000000000000000000, -0.0000000000000000000, -1.000000000000000000 ) ) ;
#77 = ORIENTED_EDGE ( 'NONE', *, *, #29, .F. ) ;
#78 =( LENGTH_UNIT ( ) NAMED_UNIT ( * ) SI_UNIT ( .MILLI., .METRE. ) );
#79 = DIRECTION ( 'NONE',  ( 0.0000000000000000000, 0.0000000000000000000, 1.000000000000000000 ) ) ;
#80 = APPROVAL_DATE_TIME ( #148, #19 ) ;
#81 = CALENDAR_DATE ( 2018, 5, 11 ) ;
#82 = COORDINATED_UNIVERSAL_TIME_OFFSET ( 1, 0, .AHEAD. ) ;
#83 = SHAPE_DEFINITION_REPRESENTATION ( #88, #54 ) ;
#84 = ORIENTED_EDGE ( 'NONE', *, *, #62, .T. ) ;
#85 = CARTESIAN_POINT ( 'NONE',  ( -17.00000000000000000, 0.0000000000000000000, 10.00000000000000000 ) ) ;
#86 = DIRECTION ( 'NONE',  ( -1.000000000000000000, 0.0000000000000000000, 0.0000000000000000000 ) ) ;
#87 = SECURITY_CLASSIFICATION_LEVEL ( 'unclassified' ) ;
#88 = PRODUCT_DEFINITION_SHAPE ( 'NONE', 'NONE',  #124 ) ;
#89 = ORIENTED_EDGE ( 'NONE', *, *, #29, .T. ) ;
#90 = DATE_AND_TIME ( #144, #8 ) ;
#91 = CC_DESIGN_SECURITY_CLASSIFICATION ( #164, ( #57 ) ) ;
#92 = FACE_OUTER_BOUND ( 'NONE', #99, .T. ) ;
#93 = VERTEX_POINT ( 'NONE', #109 ) ;
#94 = AXIS2_PLACEMENT_3D ( 'NONE', #58, #157, #55 ) ;
#95 = PERSON_AND_ORGANIZATION ( #26, #43 ) ;
#96 = VECTOR ( 'NONE', #119, 1000.000000000000000 ) ;
#97 = CARTESIAN_POINT ( 'NONE',  ( 0.0000000000000000000, 0.0000000000000000000, 10.00000000000000000 ) ) ;
#98 = APPLICATION_PROTOCOL_DEFINITION ( 'international standard', 'config_control_design', 1994, #175 ) ;
#99 = EDGE_LOOP ( 'NONE', ( #114, #84, #116, #77 ) ) ;
#100 = LOCAL_TIME ( 17, 57, 59.00000000000000000, #82 ) ;
#101 = VECTOR ( 'NONE', #108, 1000.000000000000000 ) ;
#102 = APPROVAL_DATE_TIME ( #146, #66 ) ;
#103 =( GEOMETRIC_REPRESENTATION_CONTEXT ( 3 ) GLOBAL_UNCERTAINTY_ASSIGNED_CONTEXT ( ( #10 ) ) GLOBAL_UNIT_ASSIGNED_CONTEXT ( ( #78, #121, #60 ) ) REPRESENTATION_CONTEXT ( 'NONE', 'WORKASPACE' ) );
#104 = CYLINDRICAL_SURFACE ( 'NONE', #147, 17.00000000000000000 ) ;
#105 = AXIS2_PLACEMENT_3D ( 'NONE', #32, #75, #169 ) ;
#106 = LOCAL_TIME ( 17, 57, 59.00000000000000000, #163 ) ;
#107 = AXIS2_PLACEMENT_3D ( 'NONE', #110, #135, #56 ) ;
#108 = DIRECTION ( 'NONE',  ( -0.0000000000000000000, -0.0000000000000000000, -1.000000000000000000 ) ) ;
#109 = CARTESIAN_POINT ( 'NONE',  ( -17.00000000000000000, 0.0000000000000000000, 10.00000000000000000 ) ) ;
#110 = CARTESIAN_POINT ( 'NONE',  ( 0.0000000000000000000, 0.0000000000000000000, 10.00000000000000000 ) ) ;
#111 = DIRECTION ( 'NONE',  ( 0.0000000000000000000, 0.0000000000000000000, 1.000000000000000000 ) ) ;
#112 = DIRECTION ( 'NONE',  ( 1.000000000000000000, 0.0000000000000000000, 0.0000000000000000000 ) ) ;
#113 = PERSON_AND_ORGANIZATION ( #26, #43 ) ;
#114 = ORIENTED_EDGE ( 'NONE', *, *, #153, .F. ) ;
#115 = EDGE_CURVE ( 'NONE', #152, #134, #22, .T. ) ;
#116 = ORIENTED_EDGE ( 'NONE', *, *, #132, .T. ) ;
#117 = AXIS2_PLACEMENT_3D ( 'NONE', #168, #76, #86 ) ;
#118 = CARTESIAN_POINT ( 'NONE',  ( -17.00000000000000000, 0.0000000000000000000, 0.0000000000000000000 ) ) ;
#119 = DIRECTION ( 'NONE',  ( -0.0000000000000000000, -0.0000000000000000000, -1.000000000000000000 ) ) ;
#120 = APPROVAL_STATUS ( 'not_yet_approved' ) ;
#121 =( NAMED_UNIT ( * ) PLANE_ANGLE_UNIT ( ) SI_UNIT ( $, .RADIAN. ) );
#122 = CLOSED_SHELL ( 'NONE', ( #42, #14, #51, #68 ) ) ;
#123 = APPROVAL_ROLE ( '' ) ;
#124 = PRODUCT_DEFINITION ( 'UNKNOWN', '', #57, #50 ) ;
#125 = COORDINATED_UNIVERSAL_TIME_OFFSET ( 1, 0, .AHEAD. ) ;
#126 = ORIENTED_EDGE ( 'NONE', *, *, #62, .F. ) ;
#127 = EDGE_CURVE ( 'NONE', #93, #133, #4, .T. ) ;
#128 = ORIENTED_EDGE ( 'NONE', *, *, #132, .F. ) ;
#129 = CC_DESIGN_PERSON_AND_ORGANIZATION_ASSIGNMENT ( #67, #141, ( #57 ) ) ;
#130 = PERSON_AND_ORGANIZATION ( #26, #43 ) ;
#131 = CIRCLE ( 'NONE', #105, 17.00000000000000000 ) ;
#132 = EDGE_CURVE ( 'NONE', #134, #152, #131, .T. ) ;
#133 = VERTEX_POINT ( 'NONE', #17 ) ;
#134 = VERTEX_POINT ( 'NONE', #156 ) ;
#135 = DIRECTION ( 'NONE',  ( 0.0000000000000000000, 0.0000000000000000000, 1.000000000000000000 ) ) ;
#136 = DATE_AND_TIME ( #24, #64 ) ;
#137 = CC_DESIGN_PERSON_AND_ORGANIZATION_ASSIGNMENT ( #113, #49, ( #124 ) ) ;
#138 = DIRECTION ( 'NONE',  ( 0.0000000000000000000, 0.0000000000000000000, 1.000000000000000000 ) ) ;
#139 = AXIS2_PLACEMENT_3D ( 'NONE', #72, #167, #28 ) ;
#140 = APPROVAL_STATUS ( 'not_yet_approved' ) ;
#141 = PERSON_AND_ORGANIZATION_ROLE ( 'creator' ) ;
#142 = APPLICATION_PROTOCOL_DEFINITION ( 'international standard', 'config_control_design', 1994, #1 ) ;
#143 = APPROVAL_ROLE ( '' ) ;
#144 = CALENDAR_DATE ( 2018, 5, 11 ) ;
#145 = ORIENTED_EDGE ( 'NONE', *, *, #127, .F. ) ;
#146 = DATE_AND_TIME ( #81, #106 ) ;
#147 = AXIS2_PLACEMENT_3D ( 'NONE', #97, #20, #9 ) ;
#148 = DATE_AND_TIME ( #12, #44 ) ;
#149 = EDGE_LOOP ( 'NONE', ( #126, #145, #89, #166 ) ) ;
#150 = PERSON_AND_ORGANIZATION ( #26, #43 ) ;
#151 = CC_DESIGN_PERSON_AND_ORGANIZATION_ASSIGNMENT ( #170, #21, ( #57 ) ) ;
#152 = VERTEX_POINT ( 'NONE', #118 ) ;
#153 = EDGE_CURVE ( 'NONE', #133, #93, #53, .T. ) ;
#154 = APPROVAL_DATE_TIME ( #136, #165 ) ;
#155 = CARTESIAN_POINT ( 'NONE',  ( 17.00000000000000000, 2.081899558550500300E-015, 10.00000000000000000 ) ) ;
#156 = CARTESIAN_POINT ( 'NONE',  ( 17.00000000000000000, 2.081899558550500300E-015, 0.0000000000000000000 ) ) ;
#157 = DIRECTION ( 'NONE',  ( 0.0000000000000000000, 0.0000000000000000000, 1.000000000000000000 ) ) ;
#158 = APPROVAL_STATUS ( 'not_yet_approved' ) ;
#159 = DIRECTION ( 'NONE',  ( 1.000000000000000000, 0.0000000000000000000, 0.0000000000000000000 ) ) ;
#160 = PERSON_AND_ORGANIZATION_ROLE ( 'classification_officer' ) ;
#161 = EDGE_LOOP ( 'NONE', ( #74, #65 ) ) ;
#162 = CC_DESIGN_PERSON_AND_ORGANIZATION_ASSIGNMENT ( #95, #160, ( #164 ) ) ;
#163 = COORDINATED_UNIVERSAL_TIME_OFFSET ( 1, 0, .AHEAD. ) ;
#164 = SECURITY_CLASSIFICATION ( '', '', #87 ) ;
#165 = APPROVAL ( #140, 'UNSPECIFIED' ) ;
#166 = ORIENTED_EDGE ( 'NONE', *, *, #115, .T. ) ;
#167 = DIRECTION ( 'NONE',  ( 0.0000000000000000000, 0.0000000000000000000, 1.000000000000000000 ) ) ;
#168 = CARTESIAN_POINT ( 'NONE',  ( 0.0000000000000000000, 0.0000000000000000000, 10.00000000000000000 ) ) ;
#169 = DIRECTION ( 'NONE',  ( 1.000000000000000000, 0.0000000000000000000, 0.0000000000000000000 ) ) ;
#170 = PERSON_AND_ORGANIZATION ( #26, #43 ) ;
#171 = CYLINDRICAL_SURFACE ( 'NONE', #117, 17.00000000000000000 ) ;
#172 = PLANE ( 'NONE',  #107 ) ;
#173 = APPROVAL_PERSON_ORGANIZATION ( #150, #66, #123 ) ;
#174 = CC_DESIGN_APPROVAL ( #19, ( #57 ) ) ;
#175 = APPLICATION_CONTEXT ( 'configuration controlled 3d designs of mechanical parts and assemblies' ) ;
ENDSEC;
END-ISO-10303-21;
