ISO-10303-21;
HEADER;
FILE_DESCRIPTION (( 'STEP AP203' ),
    '1' );
FILE_NAME ('yaw_motor_1_stator_Domyúlna_sldprt.STEP',
    '2018-11-05T16:58:01',
    ( '' ),
    ( '' ),
    'SwSTEP 2.0',
    'SolidWorks 2016',
    '' );
FILE_SCHEMA (( 'CONFIG_CONTROL_DESIGN' ));
ENDSEC;

DATA;
#1 = MECHANICAL_CONTEXT ( 'NONE', #88, 'mechanical' ) ;
#2 = PERSON_AND_ORGANIZATION ( #109, #113 ) ;
#3 = PERSON_AND_ORGANIZATION_ROLE ( 'classification_officer' ) ;
#4 = EDGE_CURVE ( 'NONE', #90, #77, #98, .T. ) ;
#5 = LINE ( 'NONE', #145, #6 ) ;
#6 = VECTOR ( 'NONE', #97, 1000.000000000000000 ) ;
#7 = DIRECTION ( 'NONE',  ( 1.000000000000000000, 0.0000000000000000000, -0.0000000000000000000 ) ) ;
#8 = DIRECTION ( 'NONE',  ( 0.0000000000000000000, 0.0000000000000000000, 1.000000000000000000 ) ) ;
#9 = APPROVAL_ROLE ( '' ) ;
#10 = PERSON_AND_ORGANIZATION_ROLE ( 'design_supplier' ) ;
#11 = ORIENTED_EDGE ( 'NONE', *, *, #14, .T. ) ;
#12 = PRODUCT_DEFINITION_SHAPE ( 'NONE', 'NONE',  #45 ) ;
#13 = ADVANCED_FACE ( 'NONE', ( #144 ), #174, .F. ) ;
#14 = EDGE_CURVE ( 'NONE', #77, #90, #37, .T. ) ;
#15 = VERTEX_POINT ( 'NONE', #130 ) ;
#16 = APPROVAL_ROLE ( '' ) ;
#17 = MANIFOLD_SOLID_BREP ( 'Dodanie-wyciπgniÍcie1', #156 ) ;
#18 = CYLINDRICAL_SURFACE ( 'NONE', #32, 17.00000000000000000 ) ;
#19 = COORDINATED_UNIVERSAL_TIME_OFFSET ( 1, 0, .AHEAD. ) ;
#20 = DIRECTION ( 'NONE',  ( -0.0000000000000000000, -0.0000000000000000000, -1.000000000000000000 ) ) ;
#21 = CARTESIAN_POINT ( 'NONE',  ( -17.00000000000000000, 0.0000000000000000000, 3.000000000000000000 ) ) ;
#22 = PERSON_AND_ORGANIZATION ( #109, #113 ) ;
#23 = FACE_OUTER_BOUND ( 'NONE', #51, .T. ) ;
#24 = CARTESIAN_POINT ( 'NONE',  ( 0.0000000000000000000, 0.0000000000000000000, 3.000000000000000000 ) ) ;
#25 = AXIS2_PLACEMENT_3D ( 'NONE', #84, #170, #157 ) ;
#26 = PERSON_AND_ORGANIZATION ( #109, #113 ) ;
#27 = PRODUCT ( 'yaw_motor_1_stator_Domyúlna_sldprt', 'yaw_motor_1_stator_Domyúlna_sldprt', '', ( #1 ) ) ;
#28 = ADVANCED_FACE ( 'NONE', ( #154 ), #63, .T. ) ;
#29 = DATE_AND_TIME ( #102, #74 ) ;
#30 = EDGE_LOOP ( 'NONE', ( #138, #41 ) ) ;
#31 = PERSON_AND_ORGANIZATION ( #109, #113 ) ;
#32 = AXIS2_PLACEMENT_3D ( 'NONE', #94, #67, #159 ) ;
#33 = ORIENTED_EDGE ( 'NONE', *, *, #169, .T. ) ;
#34 = CALENDAR_DATE ( 2018, 5, 11 ) ;
#35 = CARTESIAN_POINT ( 'NONE',  ( 0.0000000000000000000, 0.0000000000000000000, 3.000000000000000000 ) ) ;
#36 = LOCAL_TIME ( 17, 58, 1.000000000000000000, #168 ) ;
#37 = CIRCLE ( 'NONE', #25, 17.00000000000000000 ) ;
#38 = DIRECTION ( 'NONE',  ( 0.0000000000000000000, 0.0000000000000000000, 1.000000000000000000 ) ) ;
#39 = DIRECTION ( 'NONE',  ( 0.0000000000000000000, 0.0000000000000000000, 1.000000000000000000 ) ) ;
#40 = COORDINATED_UNIVERSAL_TIME_OFFSET ( 1, 0, .AHEAD. ) ;
#41 = ORIENTED_EDGE ( 'NONE', *, *, #4, .F. ) ;
#42 = AXIS2_PLACEMENT_3D ( 'NONE', #35, #20, #80 ) ;
#43 = ORIENTED_EDGE ( 'NONE', *, *, #66, .F. ) ;
#44 = PERSON_AND_ORGANIZATION_ROLE ( 'creator' ) ;
#45 = PRODUCT_DEFINITION ( 'UNKNOWN', '', #99, #76 ) ;
#46 = CARTESIAN_POINT ( 'NONE',  ( 0.0000000000000000000, 0.0000000000000000000, 3.000000000000000000 ) ) ;
#47 = EDGE_CURVE ( 'NONE', #15, #90, #48, .T. ) ;
#48 = LINE ( 'NONE', #133, #171 ) ;
#49 = AXIS2_PLACEMENT_3D ( 'NONE', #85, #8, #124 ) ;
#50 = CARTESIAN_POINT ( 'NONE',  ( 0.0000000000000000000, 0.0000000000000000000, 0.0000000000000000000 ) ) ;
#51 = EDGE_LOOP ( 'NONE', ( #96, #128, #81, #43 ) ) ;
#52 = ADVANCED_BREP_SHAPE_REPRESENTATION ( 'yaw_motor_1_stator_Domyùlna_sldprt', ( #17, #49 ), #87 ) ;
#53 = PERSON_AND_ORGANIZATION_ROLE ( 'design_owner' ) ;
#54 = COORDINATED_UNIVERSAL_TIME_OFFSET ( 1, 0, .AHEAD. ) ;
#55 =( NAMED_UNIT ( * ) SI_UNIT ( $, .STERADIAN. ) SOLID_ANGLE_UNIT ( ) );
#56 = CIRCLE ( 'NONE', #75, 17.00000000000000000 ) ;
#57 = CC_DESIGN_PERSON_AND_ORGANIZATION_ASSIGNMENT ( #2, #10, ( #99 ) ) ;
#58 = APPLICATION_CONTEXT ( 'configuration controlled 3d designs of mechanical parts and assemblies' ) ;
#59 = PERSON_AND_ORGANIZATION ( #109, #113 ) ;
#60 = EDGE_LOOP ( 'NONE', ( #33, #65 ) ) ;
#61 = CC_DESIGN_PERSON_AND_ORGANIZATION_ASSIGNMENT ( #59, #44, ( #45 ) ) ;
#62 = COORDINATED_UNIVERSAL_TIME_OFFSET ( 1, 0, .AHEAD. ) ;
#63 = PLANE ( 'NONE',  #132 ) ;
#64 = CALENDAR_DATE ( 2018, 5, 11 ) ;
#65 = ORIENTED_EDGE ( 'NONE', *, *, #164, .T. ) ;
#66 = EDGE_CURVE ( 'NONE', #148, #77, #5, .T. ) ;
#67 = DIRECTION ( 'NONE',  ( -0.0000000000000000000, -0.0000000000000000000, -1.000000000000000000 ) ) ;
#68 = DATE_TIME_ROLE ( 'creation_date' ) ;
#69 = APPROVAL_STATUS ( 'not_yet_approved' ) ;
#70 = APPROVAL_DATE_TIME ( #126, #111 ) ;
#71 = DIRECTION ( 'NONE',  ( 1.000000000000000000, 0.0000000000000000000, 0.0000000000000000000 ) ) ;
#72 = APPROVAL_PERSON_ORGANIZATION ( #26, #111, #9 ) ;
#73 =( NAMED_UNIT ( * ) PLANE_ANGLE_UNIT ( ) SI_UNIT ( $, .RADIAN. ) );
#74 = LOCAL_TIME ( 17, 58, 1.000000000000000000, #40 ) ;
#75 = AXIS2_PLACEMENT_3D ( 'NONE', #107, #39, #71 ) ;
#76 = DESIGN_CONTEXT ( 'detailed design', #58, 'design' ) ;
#77 = VERTEX_POINT ( 'NONE', #134 ) ;
#78 = AXIS2_PLACEMENT_3D ( 'NONE', #135, #38, #104 ) ;
#79 = PERSON_AND_ORGANIZATION ( #109, #113 ) ;
#80 = DIRECTION ( 'NONE',  ( -1.000000000000000000, 0.0000000000000000000, 0.0000000000000000000 ) ) ;
#81 = ORIENTED_EDGE ( 'NONE', *, *, #4, .T. ) ;
#82 = APPROVAL ( #125, 'UNSPECIFIED' ) ;
#83 = DIRECTION ( 'NONE',  ( -0.0000000000000000000, -0.0000000000000000000, -1.000000000000000000 ) ) ;
#84 = CARTESIAN_POINT ( 'NONE',  ( 0.0000000000000000000, 0.0000000000000000000, 0.0000000000000000000 ) ) ;
#85 = CARTESIAN_POINT ( 'NONE',  ( 0.0000000000000000000, 0.0000000000000000000, 0.0000000000000000000 ) ) ;
#86 = PERSON_AND_ORGANIZATION_ROLE ( 'creator' ) ;
#87 =( GEOMETRIC_REPRESENTATION_CONTEXT ( 3 ) GLOBAL_UNCERTAINTY_ASSIGNED_CONTEXT ( ( #150 ) ) GLOBAL_UNIT_ASSIGNED_CONTEXT ( ( #137, #73, #55 ) ) REPRESENTATION_CONTEXT ( 'NONE', 'WORKASPACE' ) );
#88 = APPLICATION_CONTEXT ( 'configuration controlled 3d designs of mechanical parts and assemblies' ) ;
#89 = DATE_AND_TIME ( #167, #36 ) ;
#90 = VERTEX_POINT ( 'NONE', #172 ) ;
#91 = APPROVAL ( #139, 'UNSPECIFIED' ) ;
#92 = ORIENTED_EDGE ( 'NONE', *, *, #47, .F. ) ;
#93 = DIRECTION ( 'NONE',  ( 1.000000000000000000, 0.0000000000000000000, -0.0000000000000000000 ) ) ;
#94 = CARTESIAN_POINT ( 'NONE',  ( 0.0000000000000000000, 0.0000000000000000000, 3.000000000000000000 ) ) ;
#95 = AXIS2_PLACEMENT_3D ( 'NONE', #46, #149, #108 ) ;
#96 = ORIENTED_EDGE ( 'NONE', *, *, #164, .F. ) ;
#97 = DIRECTION ( 'NONE',  ( -0.0000000000000000000, -0.0000000000000000000, -1.000000000000000000 ) ) ;
#98 = CIRCLE ( 'NONE', #78, 17.00000000000000000 ) ;
#99 = PRODUCT_DEFINITION_FORMATION_WITH_SPECIFIED_SOURCE ( 'ANY', '', #27, .NOT_KNOWN. ) ;
#100 = LOCAL_TIME ( 17, 58, 1.000000000000000000, #54 ) ;
#101 = EDGE_LOOP ( 'NONE', ( #92, #123, #158, #11 ) ) ;
#102 = CALENDAR_DATE ( 2018, 5, 11 ) ;
#103 = CC_DESIGN_PERSON_AND_ORGANIZATION_ASSIGNMENT ( #22, #53, ( #27 ) ) ;
#104 = DIRECTION ( 'NONE',  ( 1.000000000000000000, 0.0000000000000000000, 0.0000000000000000000 ) ) ;
#105 = DATE_AND_TIME ( #64, #141 ) ;
#106 = CC_DESIGN_APPROVAL ( #91, ( #99 ) ) ;
#107 = CARTESIAN_POINT ( 'NONE',  ( 0.0000000000000000000, 0.0000000000000000000, 3.000000000000000000 ) ) ;
#108 = DIRECTION ( 'NONE',  ( 1.000000000000000000, 0.0000000000000000000, 0.0000000000000000000 ) ) ;
#109 = PERSON ( 'UNSPECIFIED', 'UNSPECIFIED', 'UNSPECIFIED', ('UNSPECIFIED'), ('UNSPECIFIED'), ('UNSPECIFIED') ) ;
#110 = CYLINDRICAL_SURFACE ( 'NONE', #42, 17.00000000000000000 ) ;
#111 = APPROVAL ( #69, 'UNSPECIFIED' ) ;
#112 = CC_DESIGN_APPROVAL ( #82, ( #45 ) ) ;
#113 = ORGANIZATION ( 'UNSPECIFIED', 'UNSPECIFIED', '' ) ;
#114 = SHAPE_DEFINITION_REPRESENTATION ( #12, #52 ) ;
#115 = CC_DESIGN_PERSON_AND_ORGANIZATION_ASSIGNMENT ( #79, #86, ( #99 ) ) ;
#116 = DIRECTION ( 'NONE',  ( 0.0000000000000000000, 0.0000000000000000000, 1.000000000000000000 ) ) ;
#117 = CC_DESIGN_APPROVAL ( #111, ( #118 ) ) ;
#118 = SECURITY_CLASSIFICATION ( '', '', #140 ) ;
#119 = APPROVAL_ROLE ( '' ) ;
#120 = ADVANCED_FACE ( 'NONE', ( #163 ), #110, .T. ) ;
#121 = CC_DESIGN_PERSON_AND_ORGANIZATION_ASSIGNMENT ( #143, #3, ( #118 ) ) ;
#122 = ADVANCED_FACE ( 'NONE', ( #23 ), #18, .T. ) ;
#123 = ORIENTED_EDGE ( 'NONE', *, *, #169, .F. ) ;
#124 = DIRECTION ( 'NONE',  ( 1.000000000000000000, 0.0000000000000000000, 0.0000000000000000000 ) ) ;
#125 = APPROVAL_STATUS ( 'not_yet_approved' ) ;
#126 = DATE_AND_TIME ( #34, #100 ) ;
#127 = CC_DESIGN_SECURITY_CLASSIFICATION ( #118, ( #99 ) ) ;
#128 = ORIENTED_EDGE ( 'NONE', *, *, #47, .T. ) ;
#129 = PERSON_AND_ORGANIZATION ( #109, #113 ) ;
#130 = CARTESIAN_POINT ( 'NONE',  ( 17.00000000000000000, 2.081899558550500300E-015, 3.000000000000000000 ) ) ;
#131 = DATE_AND_TIME ( #161, #162 ) ;
#132 = AXIS2_PLACEMENT_3D ( 'NONE', #24, #116, #93 ) ;
#133 = CARTESIAN_POINT ( 'NONE',  ( 17.00000000000000000, 2.081899558550500300E-015, 3.000000000000000000 ) ) ;
#134 = CARTESIAN_POINT ( 'NONE',  ( -17.00000000000000000, 0.0000000000000000000, 0.0000000000000000000 ) ) ;
#135 = CARTESIAN_POINT ( 'NONE',  ( 0.0000000000000000000, 0.0000000000000000000, 0.0000000000000000000 ) ) ;
#136 = APPROVAL_PERSON_ORGANIZATION ( #129, #91, #119 ) ;
#137 =( LENGTH_UNIT ( ) NAMED_UNIT ( * ) SI_UNIT ( .MILLI., .METRE. ) );
#138 = ORIENTED_EDGE ( 'NONE', *, *, #14, .F. ) ;
#139 = APPROVAL_STATUS ( 'not_yet_approved' ) ;
#140 = SECURITY_CLASSIFICATION_LEVEL ( 'unclassified' ) ;
#141 = LOCAL_TIME ( 17, 58, 1.000000000000000000, #62 ) ;
#142 = CC_DESIGN_DATE_AND_TIME_ASSIGNMENT ( #131, #160, ( #118 ) ) ;
#143 = PERSON_AND_ORGANIZATION ( #109, #113 ) ;
#144 = FACE_OUTER_BOUND ( 'NONE', #30, .T. ) ;
#145 = CARTESIAN_POINT ( 'NONE',  ( -17.00000000000000000, 0.0000000000000000000, 3.000000000000000000 ) ) ;
#146 = AXIS2_PLACEMENT_3D ( 'NONE', #50, #147, #7 ) ;
#147 = DIRECTION ( 'NONE',  ( 0.0000000000000000000, 0.0000000000000000000, 1.000000000000000000 ) ) ;
#148 = VERTEX_POINT ( 'NONE', #21 ) ;
#149 = DIRECTION ( 'NONE',  ( 0.0000000000000000000, 0.0000000000000000000, 1.000000000000000000 ) ) ;
#150 = UNCERTAINTY_MEASURE_WITH_UNIT (LENGTH_MEASURE( 1.000000000000000100E-005 ), #137, 'distance_accuracy_value', 'NONE');
#151 = APPLICATION_PROTOCOL_DEFINITION ( 'international standard', 'config_control_design', 1994, #88 ) ;
#152 = APPROVAL_DATE_TIME ( #29, #91 ) ;
#153 = PRODUCT_RELATED_PRODUCT_CATEGORY ( 'detail', '', ( #27 ) ) ;
#154 = FACE_OUTER_BOUND ( 'NONE', #60, .T. ) ;
#155 = APPROVAL_DATE_TIME ( #105, #82 ) ;
#156 = CLOSED_SHELL ( 'NONE', ( #122, #120, #28, #13 ) ) ;
#157 = DIRECTION ( 'NONE',  ( 1.000000000000000000, 0.0000000000000000000, 0.0000000000000000000 ) ) ;
#158 = ORIENTED_EDGE ( 'NONE', *, *, #66, .T. ) ;
#159 = DIRECTION ( 'NONE',  ( -1.000000000000000000, 0.0000000000000000000, 0.0000000000000000000 ) ) ;
#160 = DATE_TIME_ROLE ( 'classification_date' ) ;
#161 = CALENDAR_DATE ( 2018, 5, 11 ) ;
#162 = LOCAL_TIME ( 17, 58, 1.000000000000000000, #19 ) ;
#163 = FACE_OUTER_BOUND ( 'NONE', #101, .T. ) ;
#164 = EDGE_CURVE ( 'NONE', #15, #148, #56, .T. ) ;
#165 = APPLICATION_PROTOCOL_DEFINITION ( 'international standard', 'config_control_design', 1994, #58 ) ;
#166 = APPROVAL_PERSON_ORGANIZATION ( #31, #82, #16 ) ;
#167 = CALENDAR_DATE ( 2018, 5, 11 ) ;
#168 = COORDINATED_UNIVERSAL_TIME_OFFSET ( 1, 0, .AHEAD. ) ;
#169 = EDGE_CURVE ( 'NONE', #148, #15, #175, .T. ) ;
#170 = DIRECTION ( 'NONE',  ( 0.0000000000000000000, 0.0000000000000000000, 1.000000000000000000 ) ) ;
#171 = VECTOR ( 'NONE', #83, 1000.000000000000000 ) ;
#172 = CARTESIAN_POINT ( 'NONE',  ( 17.00000000000000000, 2.081899558550500300E-015, 0.0000000000000000000 ) ) ;
#173 = CC_DESIGN_DATE_AND_TIME_ASSIGNMENT ( #89, #68, ( #45 ) ) ;
#174 = PLANE ( 'NONE',  #146 ) ;
#175 = CIRCLE ( 'NONE', #95, 17.00000000000000000 ) ;
ENDSEC;
END-ISO-10303-21;
