ISO-10303-21;
HEADER;
FILE_DESCRIPTION (( 'STEP AP203' ),
    '1' );
FILE_NAME ('yaw_part_2_Domyúlna_sldprt.STEP',
    '2018-11-05T16:58:03',
    ( '' ),
    ( '' ),
    'SwSTEP 2.0',
    'SolidWorks 2016',
    '' );
FILE_SCHEMA (( 'CONFIG_CONTROL_DESIGN' ));
ENDSEC;

DATA;
#1 = DIRECTION ( 'NONE',  ( 0.0000000000000000000, 1.000000000000000000, 0.0000000000000000000 ) ) ;
#2 = EDGE_CURVE ( 'NONE', #82, #21, #780, .T. ) ;
#3 = EDGE_LOOP ( 'NONE', ( #403, #675, #523, #314 ) ) ;
#4 = CARTESIAN_POINT ( 'NONE',  ( 12.75000000000000000, -1.352632321270019100E-015, 4.000000000000000000 ) ) ;
#5 = VERTEX_POINT ( 'NONE', #339 ) ;
#6 = EDGE_CURVE ( 'NONE', #297, #440, #761, .T. ) ;
#7 = FACE_OUTER_BOUND ( 'NONE', #736, .T. ) ;
#8 = VERTEX_POINT ( 'NONE', #461 ) ;
#9 = DATE_TIME_ROLE ( 'classification_date' ) ;
#10 = CC_DESIGN_APPROVAL ( #250, ( #639 ) ) ;
#11 = ORIENTED_EDGE ( 'NONE', *, *, #830, .F. ) ;
#12 = CARTESIAN_POINT ( 'NONE',  ( 2.499999999999995100, 16.25000000000000000, 4.000000000000000000 ) ) ;
#13 = DIRECTION ( 'NONE',  ( -0.0000000000000000000, -0.0000000000000000000, -1.000000000000000000 ) ) ;
#14 = DESIGN_CONTEXT ( 'detailed design', #531, 'design' ) ;
#15 = CARTESIAN_POINT ( 'NONE',  ( -15.50000000000000000, 36.50000000000000000, 4.000000000000000000 ) ) ;
#16 = APPLICATION_PROTOCOL_DEFINITION ( 'international standard', 'config_control_design', 1994, #531 ) ;
#17 = PLANE ( 'NONE',  #852 ) ;
#18 = LINE ( 'NONE', #361, #222 ) ;
#19 = AXIS2_PLACEMENT_3D ( 'NONE', #739, #603, #674 ) ;
#20 = APPROVAL_ROLE ( '' ) ;
#21 = VERTEX_POINT ( 'NONE', #859 ) ;
#22 = FACE_BOUND ( 'NONE', #815, .T. ) ;
#23 = CARTESIAN_POINT ( 'NONE',  ( -7.000000000000000900, 24.37564434701785700, 0.0000000000000000000 ) ) ;
#24 = CARTESIAN_POINT ( 'NONE',  ( -7.000000000000000900, 16.88861278752583000, 4.000000000000000000 ) ) ;
#25 = EDGE_CURVE ( 'NONE', #5, #122, #309, .T. ) ;
#26 = DIRECTION ( 'NONE',  ( 0.0000000000000000000, 0.0000000000000000000, 1.000000000000000000 ) ) ;
#27 = CC_DESIGN_APPROVAL ( #129, ( #219 ) ) ;
#28 = EDGE_LOOP ( 'NONE', ( #802, #425, #138, #648 ) ) ;
#29 = ORIENTED_EDGE ( 'NONE', *, *, #179, .F. ) ;
#30 = ORIENTED_EDGE ( 'NONE', *, *, #114, .T. ) ;
#31 = LINE ( 'NONE', #708, #799 ) ;
#32 = EDGE_LOOP ( 'NONE', ( #541, #212, #224, #787 ) ) ;
#33 = DIRECTION ( 'NONE',  ( -0.0000000000000000000, -0.0000000000000000000, -1.000000000000000000 ) ) ;
#34 = AXIS2_PLACEMENT_3D ( 'NONE', #631, #120, #433 ) ;
#35 = DIRECTION ( 'NONE',  ( -1.000000000000000000, 0.0000000000000000000, 0.0000000000000000000 ) ) ;
#36 = CIRCLE ( 'NONE', #291, 15.50000000000000000 ) ;
#37 = AXIS2_PLACEMENT_3D ( 'NONE', #666, #804, #161 ) ;
#38 = VECTOR ( 'NONE', #377, 1000.000000000000100 ) ;
#39 = DIRECTION ( 'NONE',  ( -1.000000000000000000, 0.0000000000000000000, 0.0000000000000000000 ) ) ;
#40 = FACE_OUTER_BOUND ( 'NONE', #426, .T. ) ;
#41 = EDGE_CURVE ( 'NONE', #440, #471, #743, .T. ) ;
#42 = EDGE_CURVE ( 'NONE', #93, #297, #706, .T. ) ;
#43 = PRODUCT_DEFINITION_SHAPE ( 'NONE', 'NONE',  #219 ) ;
#44 = CARTESIAN_POINT ( 'NONE',  ( -11.50000000000000000, 6.750000000000000000, 4.000000000000000000 ) ) ;
#45 = VECTOR ( 'NONE', #1, 1000.000000000000000 ) ;
#46 = AXIS2_PLACEMENT_3D ( 'NONE', #275, #518, #217 ) ;
#47 = CARTESIAN_POINT ( 'NONE',  ( 5.749999999999997300, 16.25000000000000000, 0.0000000000000000000 ) ) ;
#48 = ADVANCED_FACE ( 'NONE', ( #665 ), #78, .T. ) ;
#49 = EDGE_LOOP ( 'NONE', ( #613, #195, #273, #346 ) ) ;
#50 = VERTEX_POINT ( 'NONE', #525 ) ;
#51 = EDGE_CURVE ( 'NONE', #839, #604, #194, .T. ) ;
#52 = APPROVAL ( #157, 'UNSPECIFIED' ) ;
#53 = ADVANCED_FACE ( 'NONE', ( #328 ), #771, .T. ) ;
#54 = VECTOR ( 'NONE', #789, 1000.000000000000000 ) ;
#55 = ORIENTED_EDGE ( 'NONE', *, *, #744, .F. ) ;
#56 = DIRECTION ( 'NONE',  ( -3.021066579430959000E-032, 1.000000000000000000, 0.0000000000000000000 ) ) ;
#57 = ORIENTED_EDGE ( 'NONE', *, *, #319, .F. ) ;
#58 = FACE_OUTER_BOUND ( 'NONE', #85, .T. ) ;
#59 = CYLINDRICAL_SURFACE ( 'NONE', #156, 3.250000000000001300 ) ;
#60 = VERTEX_POINT ( 'NONE', #218 ) ;
#61 = DIRECTION ( 'NONE',  ( 0.0000000000000000000, 0.0000000000000000000, 1.000000000000000000 ) ) ;
#62 = AXIS2_PLACEMENT_3D ( 'NONE', #12, #150, #144 ) ;
#63 = DATE_AND_TIME ( #572, #777 ) ;
#64 = DIRECTION ( 'NONE',  ( 1.000000000000000000, 0.0000000000000000000, 0.0000000000000000000 ) ) ;
#65 = CC_DESIGN_PERSON_AND_ORGANIZATION_ASSIGNMENT ( #753, #538, ( #768 ) ) ;
#66 = DIRECTION ( 'NONE',  ( 1.000000000000000000, 0.0000000000000000000, 0.0000000000000000000 ) ) ;
#67 = CARTESIAN_POINT ( 'NONE',  ( 2.499999999999995100, 16.25000000000000000, 4.000000000000000000 ) ) ;
#68 = DIRECTION ( 'NONE',  ( -0.0000000000000000000, -1.000000000000000000, -0.0000000000000000000 ) ) ;
#69 = CC_DESIGN_PERSON_AND_ORGANIZATION_ASSIGNMENT ( #260, #86, ( #639 ) ) ;
#70 = CARTESIAN_POINT ( 'NONE',  ( 12.75000000000000000, -1.352632321270019100E-015, 4.000000000000000000 ) ) ;
#71 = DIRECTION ( 'NONE',  ( 0.0000000000000000000, 0.0000000000000000000, 1.000000000000000000 ) ) ;
#72 = ORIENTED_EDGE ( 'NONE', *, *, #491, .T. ) ;
#73 = DIRECTION ( 'NONE',  ( 0.0000000000000000000, 0.0000000000000000000, -1.000000000000000000 ) ) ;
#74 = DIRECTION ( 'NONE',  ( 1.000000000000000000, 0.0000000000000000000, 0.0000000000000000000 ) ) ;
#75 = DIRECTION ( 'NONE',  ( -0.0000000000000000000, -0.0000000000000000000, -1.000000000000000000 ) ) ;
#76 = CARTESIAN_POINT ( 'NONE',  ( -11.50000000000000000, 6.750000000000000000, 4.000000000000000000 ) ) ;
#77 = PERSON_AND_ORGANIZATION ( #487, #362 ) ;
#78 = PLANE ( 'NONE',  #88 ) ;
#79 = APPLICATION_PROTOCOL_DEFINITION ( 'international standard', 'config_control_design', 1994, #416 ) ;
#80 = ADVANCED_FACE ( 'NONE', ( #81 ), #276, .F. ) ;
#81 = FACE_OUTER_BOUND ( 'NONE', #28, .T. ) ;
#82 = VERTEX_POINT ( 'NONE', #530 ) ;
#83 = VERTEX_POINT ( 'NONE', #292 ) ;
#84 = PERSON_AND_ORGANIZATION ( #487, #362 ) ;
#85 = EDGE_LOOP ( 'NONE', ( #331, #701, #709, #209 ) ) ;
#86 = PERSON_AND_ORGANIZATION_ROLE ( 'design_supplier' ) ;
#87 = VERTEX_POINT ( 'NONE', #221 ) ;
#88 = AXIS2_PLACEMENT_3D ( 'NONE', #851, #854, #142 ) ;
#89 = EDGE_CURVE ( 'NONE', #272, #315, #308, .T. ) ;
#90 = DIRECTION ( 'NONE',  ( 1.000000000000000000, 0.0000000000000000000, 0.0000000000000000000 ) ) ;
#91 = DIRECTION ( 'NONE',  ( -0.0000000000000000000, -1.000000000000000000, -0.0000000000000000000 ) ) ;
#92 = AXIS2_PLACEMENT_3D ( 'NONE', #285, #279, #90 ) ;
#93 = VERTEX_POINT ( 'NONE', #660 ) ;
#94 = PERSON_AND_ORGANIZATION ( #487, #362 ) ;
#95 = APPROVAL_DATE_TIME ( #759, #52 ) ;
#96 = ORIENTED_EDGE ( 'NONE', *, *, #444, .T. ) ;
#97 = ORIENTED_EDGE ( 'NONE', *, *, #114, .F. ) ;
#98 = DIRECTION ( 'NONE',  ( -0.0000000000000000000, -0.0000000000000000000, -1.000000000000000000 ) ) ;
#99 = ORIENTED_EDGE ( 'NONE', *, *, #163, .F. ) ;
#100 = CARTESIAN_POINT ( 'NONE',  ( 0.0000000000000000000, 36.50000000000000000, 4.000000000000000000 ) ) ;
#101 = ADVANCED_FACE ( 'NONE', ( #533 ), #228, .F. ) ;
#102 = EDGE_CURVE ( 'NONE', #5, #287, #729, .T. ) ;
#103 = EDGE_CURVE ( 'NONE', #808, #263, #424, .T. ) ;
#104 = CARTESIAN_POINT ( 'NONE',  ( 12.75000000000000000, 2.999999999999996900, 4.000000000000000000 ) ) ;
#105 = VERTEX_POINT ( 'NONE', #672 ) ;
#106 = CIRCLE ( 'NONE', #797, 3.250000000000000400 ) ;
#107 = ORIENTED_EDGE ( 'NONE', *, *, #103, .T. ) ;
#108 = AXIS2_PLACEMENT_3D ( 'NONE', #100, #676, #544 ) ;
#109 = CARTESIAN_POINT ( 'NONE',  ( 0.0000000000000000000, 36.50000000000000000, 4.000000000000000000 ) ) ;
#110 = ORIENTED_EDGE ( 'NONE', *, *, #524, .T. ) ;
#111 = DIRECTION ( 'NONE',  ( -0.0000000000000000000, -0.0000000000000000000, -1.000000000000000000 ) ) ;
#112 = ADVANCED_FACE ( 'NONE', ( #750 ), #420, .F. ) ;
#113 = VECTOR ( 'NONE', #290, 1000.000000000000000 ) ;
#114 = EDGE_CURVE ( 'NONE', #315, #263, #409, .T. ) ;
#115 = EDGE_LOOP ( 'NONE', ( #246, #730, #96, #627 ) ) ;
#116 = PRODUCT_RELATED_PRODUCT_CATEGORY ( 'detail', '', ( #760 ) ) ;
#117 = DIRECTION ( 'NONE',  ( -1.000000000000000000, 0.0000000000000000000, 0.0000000000000000000 ) ) ;
#118 = EDGE_CURVE ( 'NONE', #422, #173, #18, .T. ) ;
#119 = ADVANCED_FACE ( 'NONE', ( #356 ), #17, .F. ) ;
#120 = DIRECTION ( 'NONE',  ( -0.0000000000000000000, -0.0000000000000000000, -1.000000000000000000 ) ) ;
#121 = DIRECTION ( 'NONE',  ( -1.000000000000000000, 0.0000000000000000000, 0.0000000000000000000 ) ) ;
#122 = VERTEX_POINT ( 'NONE', #664 ) ;
#123 = ORIENTED_EDGE ( 'NONE', *, *, #133, .F. ) ;
#124 = ORIENTED_EDGE ( 'NONE', *, *, #501, .F. ) ;
#125 = AXIS2_PLACEMENT_3D ( 'NONE', #333, #856, #458 ) ;
#126 = CIRCLE ( 'NONE', #389, 15.50000000000000000 ) ;
#127 = CARTESIAN_POINT ( 'NONE',  ( 9.000000000000000000, 8.250000000000000000, 4.000000000000000000 ) ) ;
#128 = ORIENTED_EDGE ( 'NONE', *, *, #601, .T. ) ;
#129 = APPROVAL ( #535, 'UNSPECIFIED' ) ;
#130 = CARTESIAN_POINT ( 'NONE',  ( -11.50000000000000000, 6.750000000000000000, 0.0000000000000000000 ) ) ;
#131 = AXIS2_PLACEMENT_3D ( 'NONE', #516, #390, #66 ) ;
#132 = CARTESIAN_POINT ( 'NONE',  ( -12.75000000000000000, -1.352632321270019900E-015, 0.0000000000000000000 ) ) ;
#133 = EDGE_CURVE ( 'NONE', #632, #272, #686, .T. ) ;
#134 = ORIENTED_EDGE ( 'NONE', *, *, #249, .T. ) ;
#135 = EDGE_CURVE ( 'NONE', #83, #315, #669, .T. ) ;
#136 = LINE ( 'NONE', #204, #385 ) ;
#137 = FACE_OUTER_BOUND ( 'NONE', #184, .T. ) ;
#138 = ORIENTED_EDGE ( 'NONE', *, *, #569, .F. ) ;
#139 = CARTESIAN_POINT ( 'NONE',  ( 8.999999999999998200, 16.25000000000000000, 0.0000000000000000000 ) ) ;
#140 = ORIENTED_EDGE ( 'NONE', *, *, #782, .T. ) ;
#141 = CARTESIAN_POINT ( 'NONE',  ( -2.000000000000000000, 14.14999999999999900, 0.0000000000000000000 ) ) ;
#142 = DIRECTION ( 'NONE',  ( 2.602085213965211100E-016, -1.000000000000000000, 0.0000000000000000000 ) ) ;
#143 = DIRECTION ( 'NONE',  ( 0.0000000000000000000, 0.0000000000000000000, 1.000000000000000000 ) ) ;
#144 = DIRECTION ( 'NONE',  ( -1.084202172485503900E-016, 1.000000000000000000, 0.0000000000000000000 ) ) ;
#145 = EDGE_CURVE ( 'NONE', #550, #322, #295, .T. ) ;
#146 = DIRECTION ( 'NONE',  ( -1.000000000000000000, 0.0000000000000000000, 0.0000000000000000000 ) ) ;
#147 = APPROVAL_ROLE ( '' ) ;
#148 = CC_DESIGN_PERSON_AND_ORGANIZATION_ASSIGNMENT ( #685, #473, ( #639 ) ) ;
#149 = ORIENTED_EDGE ( 'NONE', *, *, #395, .F. ) ;
#150 = DIRECTION ( 'NONE',  ( 1.000000000000000000, 1.084202172485503900E-016, -0.0000000000000000000 ) ) ;
#151 = CARTESIAN_POINT ( 'NONE',  ( 0.0000000000000000000, 36.50000000000000000, 4.000000000000000000 ) ) ;
#152 = ORIENTED_EDGE ( 'NONE', *, *, #25, .T. ) ;
#153 = CARTESIAN_POINT ( 'NONE',  ( -12.75000000000000000, -1.352632321270019900E-015, 4.000000000000000000 ) ) ;
#154 = PERSON_AND_ORGANIZATION_ROLE ( 'creator' ) ;
#155 = DIRECTION ( 'NONE',  ( -0.0000000000000000000, -0.0000000000000000000, -1.000000000000000000 ) ) ;
#156 = AXIS2_PLACEMENT_3D ( 'NONE', #493, #33, #35 ) ;
#157 = APPROVAL_STATUS ( 'not_yet_approved' ) ;
#158 = EDGE_LOOP ( 'NONE', ( #678, #836, #622, #772 ) ) ;
#159 = CARTESIAN_POINT ( 'NONE',  ( -14.00000000000000200, 36.50000000000000000, 4.000000000000000000 ) ) ;
#160 = ORIENTED_EDGE ( 'NONE', *, *, #307, .T. ) ;
#161 = DIRECTION ( 'NONE',  ( 1.000000000000000000, 0.0000000000000000000, 0.0000000000000000000 ) ) ;
#162 = FACE_OUTER_BOUND ( 'NONE', #617, .T. ) ;
#163 = EDGE_CURVE ( 'NONE', #363, #173, #735, .T. ) ;
#164 = LINE ( 'NONE', #643, #832 ) ;
#165 = ORIENTED_EDGE ( 'NONE', *, *, #236, .F. ) ;
#166 = ORIENTED_EDGE ( 'NONE', *, *, #491, .F. ) ;
#167 = LINE ( 'NONE', #392, #323 ) ;
#168 = ORIENTED_EDGE ( 'NONE', *, *, #338, .T. ) ;
#169 = AXIS2_PLACEMENT_3D ( 'NONE', #813, #350, #728 ) ;
#170 = DIRECTION ( 'NONE',  ( -0.0000000000000000000, -0.0000000000000000000, -1.000000000000000000 ) ) ;
#171 = DATE_AND_TIME ( #189, #527 ) ;
#172 = DIRECTION ( 'NONE',  ( -0.0000000000000000000, -0.0000000000000000000, -1.000000000000000000 ) ) ;
#173 = VERTEX_POINT ( 'NONE', #23 ) ;
#174 = EDGE_CURVE ( 'NONE', #349, #105, #568, .T. ) ;
#175 = VECTOR ( 'NONE', #255, 1000.000000000000000 ) ;
#176 = CIRCLE ( 'NONE', #563, 3.250000000000000400 ) ;
#177 = EDGE_LOOP ( 'NONE', ( #411, #634, #357, #437 ) ) ;
#178 = DIRECTION ( 'NONE',  ( -1.000000000000000000, 0.0000000000000000000, 0.0000000000000000000 ) ) ;
#179 = EDGE_CURVE ( 'NONE', #559, #303, #106, .T. ) ;
#180 = ADVANCED_FACE ( 'NONE', ( #137 ), #401, .F. ) ;
#181 = PERSON_AND_ORGANIZATION ( #487, #362 ) ;
#182 = ORIENTED_EDGE ( 'NONE', *, *, #647, .T. ) ;
#183 = DIRECTION ( 'NONE',  ( 0.0000000000000000000, 0.0000000000000000000, 1.000000000000000000 ) ) ;
#184 = EDGE_LOOP ( 'NONE', ( #123, #261, #746, #280 ) ) ;
#185 = EDGE_CURVE ( 'NONE', #87, #93, #580, .T. ) ;
#186 = ADVANCED_FACE ( 'NONE', ( #745 ), #59, .F. ) ;
#187 = EDGE_CURVE ( 'NONE', #482, #471, #393, .T. ) ;
#188 = ORIENTED_EDGE ( 'NONE', *, *, #326, .F. ) ;
#189 = CALENDAR_DATE ( 2018, 5, 11 ) ;
#190 = CARTESIAN_POINT ( 'NONE',  ( 12.75000000000000000, 2.999999999999996900, 4.000000000000000000 ) ) ;
#191 = ADVANCED_FACE ( 'NONE', ( #551 ), #413, .F. ) ;
#192 = CARTESIAN_POINT ( 'NONE',  ( -2.000000000000000000, 14.14999999999999900, 4.000000000000000000 ) ) ;
#193 = APPROVAL_DATE_TIME ( #318, #250 ) ;
#194 = LINE ( 'NONE', #408, #257 ) ;
#195 = ORIENTED_EDGE ( 'NONE', *, *, #340, .F. ) ;
#196 = ORIENTED_EDGE ( 'NONE', *, *, #651, .T. ) ;
#197 = CARTESIAN_POINT ( 'NONE',  ( 0.0000000000000000000, 36.50000000000000000, 0.0000000000000000000 ) ) ;
#198 = VECTOR ( 'NONE', #388, 1000.000000000000100 ) ;
#199 = CARTESIAN_POINT ( 'NONE',  ( -12.75000000000000000, 2.999999999999998700, 0.0000000000000000000 ) ) ;
#200 = COORDINATED_UNIVERSAL_TIME_OFFSET ( 1, 0, .AHEAD. ) ;
#201 = DIRECTION ( 'NONE',  ( -2.168404344971007900E-016, 1.000000000000000000, -0.0000000000000000000 ) ) ;
#202 = LINE ( 'NONE', #67, #397 ) ;
#203 = DIRECTION ( 'NONE',  ( 1.000000000000000000, 0.0000000000000000000, -0.0000000000000000000 ) ) ;
#204 = CARTESIAN_POINT ( 'NONE',  ( -12.75000000000000000, -1.352632321270019900E-015, 0.0000000000000000000 ) ) ;
#205 = EDGE_CURVE ( 'NONE', #756, #429, #498, .T. ) ;
#206 = DIRECTION ( 'NONE',  ( 1.000000000000000000, 0.0000000000000000000, 0.0000000000000000000 ) ) ;
#207 = ORIENTED_EDGE ( 'NONE', *, *, #782, .F. ) ;
#208 = VERTEX_POINT ( 'NONE', #751 ) ;
#209 = ORIENTED_EDGE ( 'NONE', *, *, #741, .T. ) ;
#210 = CARTESIAN_POINT ( 'NONE',  ( 0.0000000000000000000, 36.50000000000000000, 4.000000000000000000 ) ) ;
#211 = CIRCLE ( 'NONE', #472, 14.00000000000000200 ) ;
#212 = ORIENTED_EDGE ( 'NONE', *, *, #368, .F. ) ;
#213 = DIRECTION ( 'NONE',  ( 0.0000000000000000000, 0.0000000000000000000, 1.000000000000000000 ) ) ;
#214 = ORIENTED_EDGE ( 'NONE', *, *, #692, .F. ) ;
#215 = CARTESIAN_POINT ( 'NONE',  ( -12.75000000000000000, -1.352632321270019900E-015, 4.000000000000000000 ) ) ;
#216 = CARTESIAN_POINT ( 'NONE',  ( 11.50000000000000000, 6.749999999999996400, 4.000000000000000000 ) ) ;
#217 = DIRECTION ( 'NONE',  ( 1.000000000000000000, 0.0000000000000000000, 0.0000000000000000000 ) ) ;
#218 = CARTESIAN_POINT ( 'NONE',  ( 2.499999999999995100, 16.25000000000000000, 4.000000000000000000 ) ) ;
#219 = PRODUCT_DEFINITION ( 'UNKNOWN', '', #639, #14 ) ;
#220 = EDGE_CURVE ( 'NONE', #122, #756, #543, .T. ) ;
#221 = CARTESIAN_POINT ( 'NONE',  ( -12.75000000000000000, 2.999999999999998700, 4.000000000000000000 ) ) ;
#222 = VECTOR ( 'NONE', #593, 1000.000000000000000 ) ;
#223 = CC_DESIGN_APPROVAL ( #52, ( #768 ) ) ;
#224 = ORIENTED_EDGE ( 'NONE', *, *, #467, .F. ) ;
#225 = CIRCLE ( 'NONE', #375, 3.250000000000002200 ) ;
#226 = AXIS2_PLACEMENT_3D ( 'NONE', #511, #451, #399 ) ;
#227 = VECTOR ( 'NONE', #237, 1000.000000000000000 ) ;
#228 = PLANE ( 'NONE',  #548 ) ;
#229 = EDGE_CURVE ( 'NONE', #8, #612, #814, .T. ) ;
#230 = CARTESIAN_POINT ( 'NONE',  ( 0.0000000000000000000, 36.50000000000000000, 4.000000000000000000 ) ) ;
#231 = CALENDAR_DATE ( 2018, 5, 11 ) ;
#232 = DIRECTION ( 'NONE',  ( -0.0000000000000000000, -0.0000000000000000000, -1.000000000000000000 ) ) ;
#233 = CARTESIAN_POINT ( 'NONE',  ( -5.250000000000000000, 14.14999999999999900, 4.000000000000000000 ) ) ;
#234 = ORIENTED_EDGE ( 'NONE', *, *, #278, .F. ) ;
#235 = DIRECTION ( 'NONE',  ( -0.0000000000000000000, -1.000000000000000000, -0.0000000000000000000 ) ) ;
#236 = EDGE_CURVE ( 'NONE', #240, #582, #332, .T. ) ;
#237 = DIRECTION ( 'NONE',  ( -0.0000000000000000000, -0.0000000000000000000, -1.000000000000000000 ) ) ;
#238 = VECTOR ( 'NONE', #663, 1000.000000000000000 ) ;
#239 = ORIENTED_EDGE ( 'NONE', *, *, #517, .T. ) ;
#240 = VERTEX_POINT ( 'NONE', #552 ) ;
#241 = VECTOR ( 'NONE', #370, 1000.000000000000000 ) ;
#242 = ORIENTED_EDGE ( 'NONE', *, *, #591, .F. ) ;
#243 = AXIS2_PLACEMENT_3D ( 'NONE', #215, #466, #73 ) ;
#244 = COORDINATED_UNIVERSAL_TIME_OFFSET ( 1, 0, .AHEAD. ) ;
#245 = CC_DESIGN_DATE_AND_TIME_ASSIGNMENT ( #171, #807, ( #219 ) ) ;
#246 = ORIENTED_EDGE ( 'NONE', *, *, #818, .F. ) ;
#247 = EDGE_CURVE ( 'NONE', #559, #504, #624, .T. ) ;
#248 = EDGE_LOOP ( 'NONE', ( #846, #29, #602, #55, #214, #545, #242, #707 ) ) ;
#249 = EDGE_CURVE ( 'NONE', #798, #440, #421, .T. ) ;
#250 = APPROVAL ( #734, 'UNSPECIFIED' ) ;
#251 = DIRECTION ( 'NONE',  ( 0.0000000000000000000, 0.0000000000000000000, 1.000000000000000000 ) ) ;
#252 = ORIENTED_EDGE ( 'NONE', *, *, #163, .T. ) ;
#253 = CARTESIAN_POINT ( 'NONE',  ( 9.000000000000000000, 8.249999999999996400, 0.0000000000000000000 ) ) ;
#254 = VECTOR ( 'NONE', #281, 1000.000000000000000 ) ;
#255 = DIRECTION ( 'NONE',  ( -0.0000000000000000000, -0.0000000000000000000, -1.000000000000000000 ) ) ;
#256 = ADVANCED_FACE ( 'NONE', ( #40, #711, #22 ), #682, .T. ) ;
#257 = VECTOR ( 'NONE', #13, 1000.000000000000000 ) ;
#258 = AXIS2_PLACEMENT_3D ( 'NONE', #581, #143, #64 ) ;
#259 = ORIENTED_EDGE ( 'NONE', *, *, #692, .T. ) ;
#260 = PERSON_AND_ORGANIZATION ( #487, #362 ) ;
#261 = ORIENTED_EDGE ( 'NONE', *, *, #767, .T. ) ;
#262 = CIRCLE ( 'NONE', #418, 14.00000000000000200 ) ;
#263 = VERTEX_POINT ( 'NONE', #486 ) ;
#264 = DIRECTION ( 'NONE',  ( -0.0000000000000000000, -0.0000000000000000000, -1.000000000000000000 ) ) ;
#265 = CIRCLE ( 'NONE', #702, 14.00000000000000200 ) ;
#266 = DIRECTION ( 'NONE',  ( -1.000000000000000000, 0.0000000000000000000, 0.0000000000000000000 ) ) ;
#267 = CARTESIAN_POINT ( 'NONE',  ( 5.749999999999997300, 16.25000000000000000, 4.000000000000000000 ) ) ;
#268 = APPROVAL_PERSON_ORGANIZATION ( #84, #250, #147 ) ;
#269 = DIRECTION ( 'NONE',  ( 1.000000000000000000, 0.0000000000000000000, 0.0000000000000000000 ) ) ;
#270 = EDGE_LOOP ( 'NONE', ( #635, #252, #456, #239, #439, #30, #752, #72 ) ) ;
#271 = PLANE ( 'NONE',  #243 ) ;
#272 = VERTEX_POINT ( 'NONE', #749 ) ;
#273 = ORIENTED_EDGE ( 'NONE', *, *, #185, .F. ) ;
#274 = DIRECTION ( 'NONE',  ( 1.000000000000000000, 0.0000000000000000000, 0.0000000000000000000 ) ) ;
#275 = CARTESIAN_POINT ( 'NONE',  ( 0.0000000000000000000, 36.50000000000000000, 4.000000000000000000 ) ) ;
#276 = PLANE ( 'NONE',  #748 ) ;
#277 = DIRECTION ( 'NONE',  ( -1.000000000000000000, 0.0000000000000000000, 0.0000000000000000000 ) ) ;
#278 = EDGE_CURVE ( 'NONE', #208, #105, #691, .T. ) ;
#279 = DIRECTION ( 'NONE',  ( 0.0000000000000000000, 0.0000000000000000000, 1.000000000000000000 ) ) ;
#280 = ORIENTED_EDGE ( 'NONE', *, *, #89, .F. ) ;
#281 = DIRECTION ( 'NONE',  ( -0.0000000000000000000, -0.0000000000000000000, -1.000000000000000000 ) ) ;
#282 = CARTESIAN_POINT ( 'NONE',  ( 12.75000000000000000, -1.352632321270019100E-015, 4.000000000000000000 ) ) ;
#283 = ORIENTED_EDGE ( 'NONE', *, *, #51, .F. ) ;
#284 = FACE_OUTER_BOUND ( 'NONE', #540, .T. ) ;
#285 = CARTESIAN_POINT ( 'NONE',  ( 5.749999999999997300, 8.249999999999996400, 4.000000000000000000 ) ) ;
#286 = VECTOR ( 'NONE', #539, 1000.000000000000000 ) ;
#287 = VERTEX_POINT ( 'NONE', #379 ) ;
#288 = CARTESIAN_POINT ( 'NONE',  ( 12.75000000000000000, 2.999999999999996900, 4.000000000000000000 ) ) ;
#289 =( NAMED_UNIT ( * ) SI_UNIT ( $, .STERADIAN. ) SOLID_ANGLE_UNIT ( ) );
#290 = DIRECTION ( 'NONE',  ( -0.0000000000000000000, -0.0000000000000000000, -1.000000000000000000 ) ) ;
#291 = AXIS2_PLACEMENT_3D ( 'NONE', #713, #329, #206 ) ;
#292 = CARTESIAN_POINT ( 'NONE',  ( -8.499999999999991100, 25.37570226935649500, 4.000000000000000000 ) ) ;
#293 = ORIENTED_EDGE ( 'NONE', *, *, #174, .F. ) ;
#294 = EDGE_LOOP ( 'NONE', ( #182, #283, #415, #510 ) ) ;
#295 = LINE ( 'NONE', #737, #592 ) ;
#296 = DIRECTION ( 'NONE',  ( 0.0000000000000000000, 1.000000000000000000, 0.0000000000000000000 ) ) ;
#297 = VERTEX_POINT ( 'NONE', #423 ) ;
#298 = EDGE_CURVE ( 'NONE', #82, #839, #646, .T. ) ;
#299 = CYLINDRICAL_SURFACE ( 'NONE', #810, 14.00000000000000200 ) ;
#300 = CARTESIAN_POINT ( 'NONE',  ( -11.50000000000000400, 26.10769515458674000, 4.000000000000000000 ) ) ;
#301 = EDGE_LOOP ( 'NONE', ( #97, #823, #259, #107 ) ) ;
#302 = VECTOR ( 'NONE', #296, 1000.000000000000000 ) ;
#303 = VERTEX_POINT ( 'NONE', #611 ) ;
#304 = FACE_OUTER_BOUND ( 'NONE', #372, .T. ) ;
#305 = AXIS2_PLACEMENT_3D ( 'NONE', #267, #61, #570 ) ;
#306 = DIRECTION ( 'NONE',  ( 0.0000000000000000000, 0.0000000000000000000, 1.000000000000000000 ) ) ;
#307 = EDGE_CURVE ( 'NONE', #462, #349, #176, .T. ) ;
#308 = CIRCLE ( 'NONE', #19, 14.00000000000000200 ) ;
#309 = CIRCLE ( 'NONE', #503, 15.50000000000000000 ) ;
#310 = ORIENTED_EDGE ( 'NONE', *, *, #298, .T. ) ;
#311 = LINE ( 'NONE', #849, #623 ) ;
#312 = DIRECTION ( 'NONE',  ( 1.084202172485503900E-016, -1.000000000000000000, 0.0000000000000000000 ) ) ;
#313 = VECTOR ( 'NONE', #312, 1000.000000000000000 ) ;
#314 = ORIENTED_EDGE ( 'NONE', *, *, #187, .T. ) ;
#315 = VERTEX_POINT ( 'NONE', #763 ) ;
#316 = DIRECTION ( 'NONE',  ( 1.000000000000000000, 0.0000000000000000000, 0.0000000000000000000 ) ) ;
#317 = ADVANCED_FACE ( 'NONE', ( #162 ), #754, .T. ) ;
#318 = DATE_AND_TIME ( #231, #688 ) ;
#319 = EDGE_CURVE ( 'NONE', #60, #208, #850, .T. ) ;
#320 = CARTESIAN_POINT ( 'NONE',  ( 5.749999999999997300, 8.249999999999996400, 0.0000000000000000000 ) ) ;
#321 = EDGE_CURVE ( 'NONE', #839, #50, #126, .T. ) ;
#322 = VERTEX_POINT ( 'NONE', #253 ) ;
#323 = VECTOR ( 'NONE', #578, 1000.000000000000000 ) ;
#324 = DIRECTION ( 'NONE',  ( 0.0000000000000000000, 0.0000000000000000000, 1.000000000000000000 ) ) ;
#325 = ORIENTED_EDGE ( 'NONE', *, *, #229, .T. ) ;
#326 = EDGE_CURVE ( 'NONE', #588, #287, #838, .T. ) ;
#327 = DIRECTION ( 'NONE',  ( 2.168404344971007900E-016, -1.000000000000000000, 0.0000000000000000000 ) ) ;
#328 = FACE_OUTER_BOUND ( 'NONE', #566, .T. ) ;
#329 = DIRECTION ( 'NONE',  ( 0.0000000000000000000, 0.0000000000000000000, 1.000000000000000000 ) ) ;
#330 = AXIS2_PLACEMENT_3D ( 'NONE', #769, #387, #121 ) ;
#331 = ORIENTED_EDGE ( 'NONE', *, *, #307, .F. ) ;
#332 = LINE ( 'NONE', #618, #374 ) ;
#333 = CARTESIAN_POINT ( 'NONE',  ( -5.249999999999999100, 9.150000000000000400, 0.0000000000000000000 ) ) ;
#334 = CARTESIAN_POINT ( 'NONE',  ( -12.75000000000000000, 2.999999999999998700, 4.000000000000000000 ) ) ;
#335 = CARTESIAN_POINT ( 'NONE',  ( 0.0000000000000000000, 36.50000000000000000, 0.0000000000000000000 ) ) ;
#336 = VECTOR ( 'NONE', #75, 1000.000000000000000 ) ;
#337 = PLANE ( 'NONE',  #485 ) ;
#338 = EDGE_CURVE ( 'NONE', #105, #322, #225, .T. ) ;
#339 = CARTESIAN_POINT ( 'NONE',  ( -15.50000000000000000, 36.50000000000000000, 4.000000000000000000 ) ) ;
#340 = EDGE_CURVE ( 'NONE', #93, #798, #448, .T. ) ;
#341 = CARTESIAN_POINT ( 'NONE',  ( 0.0000000000000000000, 36.50000000000000000, 4.000000000000000000 ) ) ;
#342 = DIRECTION ( 'NONE',  ( 1.000000000000000000, 0.0000000000000000000, -0.0000000000000000000 ) ) ;
#343 = EDGE_CURVE ( 'NONE', #173, #612, #262, .T. ) ;
#344 = ORIENTED_EDGE ( 'NONE', *, *, #555, .F. ) ;
#345 = DIRECTION ( 'NONE',  ( -1.000000000000000000, 0.0000000000000000000, 0.0000000000000000000 ) ) ;
#346 = ORIENTED_EDGE ( 'NONE', *, *, #512, .T. ) ;
#347 = CARTESIAN_POINT ( 'NONE',  ( 15.50000000000000000, 36.50000000000000000, 4.000000000000000000 ) ) ;
#348 = CARTESIAN_POINT ( 'NONE',  ( 12.75000000000000000, -1.352632321270019100E-015, 0.0000000000000000000 ) ) ;
#349 = VERTEX_POINT ( 'NONE', #837 ) ;
#350 = DIRECTION ( 'NONE',  ( 0.9486832980505138800, -0.3162277660168377200, 0.0000000000000000000 ) ) ;
#351 = ADVANCED_FACE ( 'NONE', ( #58 ), #359, .F. ) ;
#352 = DIRECTION ( 'NONE',  ( 0.0000000000000000000, 0.0000000000000000000, 1.000000000000000000 ) ) ;
#353 = DIRECTION ( 'NONE',  ( -0.0000000000000000000, -0.0000000000000000000, -1.000000000000000000 ) ) ;
#354 = DIRECTION ( 'NONE',  ( -0.0000000000000000000, -0.0000000000000000000, -1.000000000000000000 ) ) ;
#355 =( NAMED_UNIT ( * ) PLANE_ANGLE_UNIT ( ) SI_UNIT ( $, .RADIAN. ) );
#356 = FACE_OUTER_BOUND ( 'NONE', #294, .T. ) ;
#357 = ORIENTED_EDGE ( 'NONE', *, *, #133, .T. ) ;
#358 = DIRECTION ( 'NONE',  ( 1.000000000000000000, 0.0000000000000000000, 0.0000000000000000000 ) ) ;
#359 = CYLINDRICAL_SURFACE ( 'NONE', #443, 3.250000000000001300 ) ;
#360 = CARTESIAN_POINT ( 'NONE',  ( -11.50000000000000000, 6.750000000000000000, 4.000000000000000000 ) ) ;
#361 = CARTESIAN_POINT ( 'NONE',  ( -7.000000000000000900, 24.37564434701785700, 4.000000000000000000 ) ) ;
#362 = ORGANIZATION ( 'UNSPECIFIED', 'UNSPECIFIED', '' ) ;
#363 = VERTEX_POINT ( 'NONE', #441 ) ;
#364 = CC_DESIGN_PERSON_AND_ORGANIZATION_ASSIGNMENT ( #77, #477, ( #760 ) ) ;
#365 = ADVANCED_FACE ( 'NONE', ( #284 ), #490, .F. ) ;
#366 = LINE ( 'NONE', #446, #373 ) ;
#367 = ORIENTED_EDGE ( 'NONE', *, *, #368, .T. ) ;
#368 = EDGE_CURVE ( 'NONE', #589, #429, #774, .T. ) ;
#369 = CIRCLE ( 'NONE', #46, 14.00000000000000200 ) ;
#370 = DIRECTION ( 'NONE',  ( -0.0000000000000000000, -0.0000000000000000000, -1.000000000000000000 ) ) ;
#371 = VECTOR ( 'NONE', #519, 1000.000000000000000 ) ;
#372 = EDGE_LOOP ( 'NONE', ( #99, #11, #697, #579 ) ) ;
#373 = VECTOR ( 'NONE', #201, 1000.000000000000000 ) ;
#374 = VECTOR ( 'NONE', #690, 1000.000000000000000 ) ;
#375 = AXIS2_PLACEMENT_3D ( 'NONE', #320, #251, #695 ) ;
#376 = DIRECTION ( 'NONE',  ( -0.0000000000000000000, -0.0000000000000000000, -1.000000000000000000 ) ) ;
#377 = DIRECTION ( 'NONE',  ( -0.3162277660168377200, -0.9486832980505138800, -0.0000000000000000000 ) ) ;
#378 = ADVANCED_FACE ( 'NONE', ( #689 ), #733, .T. ) ;
#379 = CARTESIAN_POINT ( 'NONE',  ( -15.50000000000000000, 36.50000000000000000, 0.0000000000000000000 ) ) ;
#380 = EDGE_CURVE ( 'NONE', #303, #422, #710, .T. ) ;
#381 = ORIENTED_EDGE ( 'NONE', *, *, #185, .T. ) ;
#382 = ORIENTED_EDGE ( 'NONE', *, *, #467, .T. ) ;
#383 = CARTESIAN_POINT ( 'NONE',  ( 5.749999999999997300, 16.25000000000000000, 4.000000000000000000 ) ) ;
#384 = EDGE_LOOP ( 'NONE', ( #400, #325, #718, #785 ) ) ;
#385 = VECTOR ( 'NONE', #779, 1000.000000000000000 ) ;
#386 = ORIENTED_EDGE ( 'NONE', *, *, #744, .T. ) ;
#387 = DIRECTION ( 'NONE',  ( -0.0000000000000000000, -0.0000000000000000000, -1.000000000000000000 ) ) ;
#388 = DIRECTION ( 'NONE',  ( -0.3162277660168378900, 0.9486832980505138800, 0.0000000000000000000 ) ) ;
#389 = AXIS2_PLACEMENT_3D ( 'NONE', #625, #565, #834 ) ;
#390 = DIRECTION ( 'NONE',  ( 0.0000000000000000000, 0.0000000000000000000, 1.000000000000000000 ) ) ;
#391 = CIRCLE ( 'NONE', #825, 14.00000000000000200 ) ;
#392 = CARTESIAN_POINT ( 'NONE',  ( -2.000000000000000000, 14.14999999999999900, 4.000000000000000000 ) ) ;
#393 = LINE ( 'NONE', #104, #460 ) ;
#394 = CARTESIAN_POINT ( 'NONE',  ( -5.250000000000000000, 14.14999999999999900, 4.000000000000000000 ) ) ;
#395 = EDGE_CURVE ( 'NONE', #429, #655, #427, .T. ) ;
#396 = EDGE_CURVE ( 'NONE', #655, #798, #136, .T. ) ;
#397 = VECTOR ( 'NONE', #453, 1000.000000000000000 ) ;
#398 = DIRECTION ( 'NONE',  ( -1.000000000000000000, -2.168404344971007900E-016, 0.0000000000000000000 ) ) ;
#399 = DIRECTION ( 'NONE',  ( 1.000000000000000000, 0.0000000000000000000, 0.0000000000000000000 ) ) ;
#400 = ORIENTED_EDGE ( 'NONE', *, *, #542, .T. ) ;
#401 = CYLINDRICAL_SURFACE ( 'NONE', #684, 14.00000000000000200 ) ;
#402 = DIRECTION ( 'NONE',  ( -2.168404344971007900E-016, 1.000000000000000000, -0.0000000000000000000 ) ) ;
#403 = ORIENTED_EDGE ( 'NONE', *, *, #800, .T. ) ;
#404 = CARTESIAN_POINT ( 'NONE',  ( -14.00000000000000200, 36.50000000000000000, 4.000000000000000000 ) ) ;
#405 = AXIS2_PLACEMENT_3D ( 'NONE', #288, #670, #606 ) ;
#406 = CARTESIAN_POINT ( 'NONE',  ( 15.50000000000000000, 36.50000000000000000, 0.0000000000000000000 ) ) ;
#407 = EDGE_CURVE ( 'NONE', #482, #82, #821, .T. ) ;
#408 = CARTESIAN_POINT ( 'NONE',  ( 11.50000000000000000, 26.10769515458673600, 4.000000000000000000 ) ) ;
#409 = LINE ( 'NONE', #484, #587 ) ;
#410 =( LENGTH_UNIT ( ) NAMED_UNIT ( * ) SI_UNIT ( .MILLI., .METRE. ) );
#411 = ORIENTED_EDGE ( 'NONE', *, *, #229, .F. ) ;
#412 = ORIENTED_EDGE ( 'NONE', *, *, #326, .T. ) ;
#413 = CYLINDRICAL_SURFACE ( 'NONE', #496, 14.00000000000000200 ) ;
#414 = DIRECTION ( 'NONE',  ( 0.0000000000000000000, 0.0000000000000000000, -1.000000000000000000 ) ) ;
#415 = ORIENTED_EDGE ( 'NONE', *, *, #298, .F. ) ;
#416 = APPLICATION_CONTEXT ( 'configuration controlled 3d designs of mechanical parts and assemblies' ) ;
#417 = CARTESIAN_POINT ( 'NONE',  ( 2.499999999999995100, 16.25000000000000000, 0.0000000000000000000 ) ) ;
#418 = AXIS2_PLACEMENT_3D ( 'NONE', #829, #306, #628 ) ;
#419 = FACE_BOUND ( 'NONE', #270, .T. ) ;
#420 = PLANE ( 'NONE',  #405 ) ;
#421 = LINE ( 'NONE', #822, #536 ) ;
#422 = VERTEX_POINT ( 'NONE', #781 ) ;
#423 = CARTESIAN_POINT ( 'NONE',  ( 12.75000000000000000, -1.352632321270019100E-015, 4.000000000000000000 ) ) ;
#424 = LINE ( 'NONE', #600, #238 ) ;
#425 = ORIENTED_EDGE ( 'NONE', *, *, #187, .F. ) ;
#426 = EDGE_LOOP ( 'NONE', ( #381, #483, #470, #747, #310, #479, #196, #152, #382, #698 ) ) ;
#427 = LINE ( 'NONE', #497, #38 ) ;
#428 = CARTESIAN_POINT ( 'NONE',  ( 0.0000000000000000000, 36.50000000000000000, 4.000000000000000000 ) ) ;
#429 = VERTEX_POINT ( 'NONE', #130 ) ;
#430 = APPROVAL_DATE_TIME ( #63, #129 ) ;
#431 = LINE ( 'NONE', #465, #758 ) ;
#432 = DIRECTION ( 'NONE',  ( -0.0000000000000000000, -0.0000000000000000000, -1.000000000000000000 ) ) ;
#433 = DIRECTION ( 'NONE',  ( -1.000000000000000000, 0.0000000000000000000, 0.0000000000000000000 ) ) ;
#434 = ADVANCED_FACE ( 'NONE', ( #848 ), #480, .F. ) ;
#435 = VECTOR ( 'NONE', #455, 1000.000000000000000 ) ;
#436 = APPROVAL_PERSON_ORGANIZATION ( #94, #52, #740 ) ;
#437 = ORIENTED_EDGE ( 'NONE', *, *, #517, .F. ) ;
#438 = VECTOR ( 'NONE', #172, 1000.000000000000000 ) ;
#439 = ORIENTED_EDGE ( 'NONE', *, *, #89, .T. ) ;
#440 = VERTEX_POINT ( 'NONE', #853 ) ;
#441 = CARTESIAN_POINT ( 'NONE',  ( -7.000000000000000900, 16.88861278752583000, 0.0000000000000000000 ) ) ;
#442 = VECTOR ( 'NONE', #402, 1000.000000000000000 ) ;
#443 = AXIS2_PLACEMENT_3D ( 'NONE', #383, #432, #178 ) ;
#444 = EDGE_CURVE ( 'NONE', #550, #522, #366, .T. ) ;
#445 = ORIENTED_EDGE ( 'NONE', *, *, #340, .T. ) ;
#446 = CARTESIAN_POINT ( 'NONE',  ( 8.999999999999998200, 16.25000000000000000, 4.000000000000000000 ) ) ;
#447 = ORIENTED_EDGE ( 'NONE', *, *, #205, .F. ) ;
#448 = LINE ( 'NONE', #556, #175 ) ;
#449 = ADVANCED_FACE ( 'NONE', ( #7 ), #571, .F. ) ;
#450 = ORIENTED_EDGE ( 'NONE', *, *, #174, .T. ) ;
#451 = DIRECTION ( 'NONE',  ( 0.0000000000000000000, 0.0000000000000000000, 1.000000000000000000 ) ) ;
#452 = CARTESIAN_POINT ( 'NONE',  ( 8.999999999999998200, 16.25000000000000000, 4.000000000000000000 ) ) ;
#453 = DIRECTION ( 'NONE',  ( -0.0000000000000000000, -0.0000000000000000000, -1.000000000000000000 ) ) ;
#454 = DIRECTION ( 'NONE',  ( 1.000000000000000000, 0.0000000000000000000, 0.0000000000000000000 ) ) ;
#455 = DIRECTION ( 'NONE',  ( -0.0000000000000000000, -0.0000000000000000000, -1.000000000000000000 ) ) ;
#456 = ORIENTED_EDGE ( 'NONE', *, *, #343, .T. ) ;
#457 = SHAPE_DEFINITION_REPRESENTATION ( #43, #596 ) ;
#458 = DIRECTION ( 'NONE',  ( 1.000000000000000000, 0.0000000000000000000, 0.0000000000000000000 ) ) ;
#459 = CIRCLE ( 'NONE', #131, 3.250000000000000400 ) ;
#460 = VECTOR ( 'NONE', #170, 1000.000000000000000 ) ;
#461 = CARTESIAN_POINT ( 'NONE',  ( 14.00000000000000200, 36.50000000000000000, 4.000000000000000000 ) ) ;
#462 = VERTEX_POINT ( 'NONE', #703 ) ;
#463 = CARTESIAN_POINT ( 'NONE',  ( 0.0000000000000000000, 36.50000000000000000, 4.000000000000000000 ) ) ;
#464 = CIRCLE ( 'NONE', #92, 3.250000000000002200 ) ;
#465 = CARTESIAN_POINT ( 'NONE',  ( -8.500000000000000000, 14.14999999999999900, 4.000000000000000000 ) ) ;
#466 = DIRECTION ( 'NONE',  ( 1.000000000000000000, 0.0000000000000000000, 0.0000000000000000000 ) ) ;
#467 = EDGE_CURVE ( 'NONE', #122, #589, #311, .T. ) ;
#468 = CARTESIAN_POINT ( 'NONE',  ( 12.75000000000000000, -1.352632321270019100E-015, 4.000000000000000000 ) ) ;
#469 = DIRECTION ( 'NONE',  ( -0.3162277660168377200, -0.9486832980505138800, -0.0000000000000000000 ) ) ;
#470 = ORIENTED_EDGE ( 'NONE', *, *, #569, .T. ) ;
#471 = VERTEX_POINT ( 'NONE', #714 ) ;
#472 = AXIS2_PLACEMENT_3D ( 'NONE', #650, #324, #454 ) ;
#473 = PERSON_AND_ORGANIZATION_ROLE ( 'creator' ) ;
#474 = FACE_OUTER_BOUND ( 'NONE', #301, .T. ) ;
#475 = DIRECTION ( 'NONE',  ( -1.000000000000000000, 0.0000000000000000000, 0.0000000000000000000 ) ) ;
#476 = CARTESIAN_POINT ( 'NONE',  ( 11.50000000000000000, 26.10769515458673600, 4.000000000000000000 ) ) ;
#477 = PERSON_AND_ORGANIZATION_ROLE ( 'design_owner' ) ;
#478 = ORIENTED_EDGE ( 'NONE', *, *, #601, .F. ) ;
#479 = ORIENTED_EDGE ( 'NONE', *, *, #321, .T. ) ;
#480 = CYLINDRICAL_SURFACE ( 'NONE', #637, 3.250000000000000400 ) ;
#481 = VECTOR ( 'NONE', #560, 1000.000000000000000 ) ;
#482 = VERTEX_POINT ( 'NONE', #636 ) ;
#483 = ORIENTED_EDGE ( 'NONE', *, *, #42, .T. ) ;
#484 = CARTESIAN_POINT ( 'NONE',  ( -8.500000000000000000, 14.14999999999999900, 0.0000000000000000000 ) ) ;
#485 = AXIS2_PLACEMENT_3D ( 'NONE', #788, #277, #509 ) ;
#486 = CARTESIAN_POINT ( 'NONE',  ( -8.500000000000000000, 9.150000000000000400, 0.0000000000000000000 ) ) ;
#487 = PERSON ( 'UNSPECIFIED', 'UNSPECIFIED', 'UNSPECIFIED', ('UNSPECIFIED'), ('UNSPECIFIED'), ('UNSPECIFIED') ) ;
#488 = ORIENTED_EDGE ( 'NONE', *, *, #247, .F. ) ;
#489 = LOCAL_TIME ( 17, 58, 3.000000000000000000, #764 ) ;
#490 = CYLINDRICAL_SURFACE ( 'NONE', #34, 3.250000000000001800 ) ;
#491 = EDGE_CURVE ( 'NONE', #582, #504, #644, .T. ) ;
#492 = ORIENTED_EDGE ( 'NONE', *, *, #319, .T. ) ;
#493 = CARTESIAN_POINT ( 'NONE',  ( -5.249999999999999100, 9.150000000000000400, 4.000000000000000000 ) ) ;
#494 = CARTESIAN_POINT ( 'NONE',  ( -11.50000000000000000, 6.750000000000000000, 0.0000000000000000000 ) ) ;
#495 = ORIENTED_EDGE ( 'NONE', *, *, #818, .T. ) ;
#496 = AXIS2_PLACEMENT_3D ( 'NONE', #428, #608, #39 ) ;
#497 = CARTESIAN_POINT ( 'NONE',  ( -12.75000000000000000, 2.999999999999998700, 0.0000000000000000000 ) ) ;
#498 = LINE ( 'NONE', #494, #784 ) ;
#499 = CIRCLE ( 'NONE', #226, 15.50000000000000000 ) ;
#500 = APPROVAL_PERSON_ORGANIZATION ( #181, #129, #20 ) ;
#501 = EDGE_CURVE ( 'NONE', #504, #363, #459, .T. ) ;
#502 = EDGE_LOOP ( 'NONE', ( #654, #561, #386, #762 ) ) ;
#503 = AXIS2_PLACEMENT_3D ( 'NONE', #210, #71, #74 ) ;
#504 = VERTEX_POINT ( 'NONE', #507 ) ;
#505 = ADVANCED_FACE ( 'NONE', ( #699 ), #645, .T. ) ;
#506 = VECTOR ( 'NONE', #469, 1000.000000000000100 ) ;
#507 = CARTESIAN_POINT ( 'NONE',  ( -2.000000000000000000, 14.14999999999999500, 0.0000000000000000000 ) ) ;
#508 = VECTOR ( 'NONE', #354, 1000.000000000000000 ) ;
#509 = DIRECTION ( 'NONE',  ( 0.0000000000000000000, 0.0000000000000000000, 1.000000000000000000 ) ) ;
#510 = ORIENTED_EDGE ( 'NONE', *, *, #2, .T. ) ;
#511 = CARTESIAN_POINT ( 'NONE',  ( 0.0000000000000000000, 36.50000000000000000, 0.0000000000000000000 ) ) ;
#512 = EDGE_CURVE ( 'NONE', #87, #655, #31, .T. ) ;
#513 = DIRECTION ( 'NONE',  ( 0.0000000000000000000, 0.0000000000000000000, 1.000000000000000000 ) ) ;
#514 = DIRECTION ( 'NONE',  ( -0.3162277660168378900, 0.9486832980505138800, 0.0000000000000000000 ) ) ;
#515 = FACE_OUTER_BOUND ( 'NONE', #384, .T. ) ;
#516 = CARTESIAN_POINT ( 'NONE',  ( -5.250000000000000000, 14.14999999999999900, 0.0000000000000000000 ) ) ;
#517 = EDGE_CURVE ( 'NONE', #612, #272, #211, .T. ) ;
#518 = DIRECTION ( 'NONE',  ( 0.0000000000000000000, 0.0000000000000000000, 1.000000000000000000 ) ) ;
#519 = DIRECTION ( 'NONE',  ( 1.000000000000000000, 3.021066579430958400E-032, -0.0000000000000000000 ) ) ;
#520 = ORIENTED_EDGE ( 'NONE', *, *, #651, .F. ) ;
#521 = DIRECTION ( 'NONE',  ( 0.0000000000000000000, 0.0000000000000000000, 1.000000000000000000 ) ) ;
#522 = VERTEX_POINT ( 'NONE', #452 ) ;
#523 = ORIENTED_EDGE ( 'NONE', *, *, #407, .F. ) ;
#524 = EDGE_CURVE ( 'NONE', #240, #559, #167, .T. ) ;
#525 = CARTESIAN_POINT ( 'NONE',  ( 15.50000000000000000, 36.50000000000000000, 4.000000000000000000 ) ) ;
#526 = ORIENTED_EDGE ( 'NONE', *, *, #6, .F. ) ;
#527 = LOCAL_TIME ( 17, 58, 3.000000000000000000, #681 ) ;
#528 = AXIS2_PLACEMENT_3D ( 'NONE', #335, #649, #203 ) ;
#529 = PLANE ( 'NONE',  #62 ) ;
#530 = CARTESIAN_POINT ( 'NONE',  ( 11.50000000000000000, 6.749999999999996400, 4.000000000000000000 ) ) ;
#531 = APPLICATION_CONTEXT ( 'configuration controlled 3d designs of mechanical parts and assemblies' ) ;
#532 = CIRCLE ( 'NONE', #656, 15.50000000000000000 ) ;
#533 = FACE_OUTER_BOUND ( 'NONE', #32, .T. ) ;
#534 = VECTOR ( 'NONE', #640, 1000.000000000000000 ) ;
#535 = APPROVAL_STATUS ( 'not_yet_approved' ) ;
#536 = VECTOR ( 'NONE', #615, 1000.000000000000000 ) ;
#537 = UNCERTAINTY_MEASURE_WITH_UNIT (LENGTH_MEASURE( 1.000000000000000100E-005 ), #410, 'distance_accuracy_value', 'NONE');
#538 = PERSON_AND_ORGANIZATION_ROLE ( 'classification_officer' ) ;
#539 = DIRECTION ( 'NONE',  ( 1.084202172485503900E-016, -1.000000000000000000, 0.0000000000000000000 ) ) ;
#540 = EDGE_LOOP ( 'NONE', ( #835, #234, #696, #812 ) ) ;
#541 = ORIENTED_EDGE ( 'NONE', *, *, #205, .T. ) ;
#542 = EDGE_CURVE ( 'NONE', #422, #8, #391, .T. ) ;
#543 = LINE ( 'NONE', #300, #227 ) ;
#544 = DIRECTION ( 'NONE',  ( 1.000000000000000000, 0.0000000000000000000, -0.0000000000000000000 ) ) ;
#545 = ORIENTED_EDGE ( 'NONE', *, *, #767, .F. ) ;
#546 = PERSON_AND_ORGANIZATION ( #487, #362 ) ;
#547 = CARTESIAN_POINT ( 'NONE',  ( -2.000000000000000000, 14.14999999999999900, 4.000000000000000000 ) ) ;
#548 = AXIS2_PLACEMENT_3D ( 'NONE', #360, #358, #414 ) ;
#549 = ORIENTED_EDGE ( 'NONE', *, *, #647, .F. ) ;
#550 = VERTEX_POINT ( 'NONE', #127 ) ;
#551 = FACE_OUTER_BOUND ( 'NONE', #177, .T. ) ;
#552 = CARTESIAN_POINT ( 'NONE',  ( -1.999999999999998700, 9.150000000000002100, 4.000000000000000000 ) ) ;
#553 = CARTESIAN_POINT ( 'NONE',  ( 0.0000000000000000000, 36.50000000000000000, 0.0000000000000000000 ) ) ;
#554 = FACE_BOUND ( 'NONE', #776, .T. ) ;
#555 = EDGE_CURVE ( 'NONE', #589, #87, #679, .T. ) ;
#556 = CARTESIAN_POINT ( 'NONE',  ( -12.75000000000000000, -1.352632321270019900E-015, 4.000000000000000000 ) ) ;
#557 = ADVANCED_FACE ( 'NONE', ( #641 ), #529, .T. ) ;
#558 = ORIENTED_EDGE ( 'NONE', *, *, #41, .F. ) ;
#559 = VERTEX_POINT ( 'NONE', #192 ) ;
#560 = DIRECTION ( 'NONE',  ( 0.0000000000000000000, 1.000000000000000000, 0.0000000000000000000 ) ) ;
#561 = ORIENTED_EDGE ( 'NONE', *, *, #103, .F. ) ;
#562 = DIRECTION ( 'NONE',  ( -0.0000000000000000000, -0.0000000000000000000, -1.000000000000000000 ) ) ;
#563 = AXIS2_PLACEMENT_3D ( 'NONE', #47, #766, #700 ) ;
#564 = VECTOR ( 'NONE', #717, 1000.000000000000000 ) ;
#565 = DIRECTION ( 'NONE',  ( 0.0000000000000000000, 0.0000000000000000000, 1.000000000000000000 ) ) ;
#566 = EDGE_LOOP ( 'NONE', ( #520, #128, #412, #765 ) ) ;
#567 = COORDINATED_UNIVERSAL_TIME_OFFSET ( 1, 0, .AHEAD. ) ;
#568 = LINE ( 'NONE', #417, #286 ) ;
#569 = EDGE_CURVE ( 'NONE', #297, #482, #738, .T. ) ;
#570 = DIRECTION ( 'NONE',  ( 1.000000000000000000, 0.0000000000000000000, 0.0000000000000000000 ) ) ;
#571 = PLANE ( 'NONE',  #610 ) ;
#572 = CALENDAR_DATE ( 2018, 5, 11 ) ;
#573 = LOCAL_TIME ( 17, 58, 3.000000000000000000, #200 ) ;
#574 = FACE_OUTER_BOUND ( 'NONE', #49, .T. ) ;
#575 = AXIS2_PLACEMENT_3D ( 'NONE', #659, #342, #726 ) ;
#576 = DIRECTION ( 'NONE',  ( -1.000000000000000000, -3.021066579430959000E-032, 0.0000000000000000000 ) ) ;
#577 = VECTOR ( 'NONE', #652, 1000.000000000000000 ) ;
#578 = DIRECTION ( 'NONE',  ( -2.602085213965211100E-016, 1.000000000000000000, -0.0000000000000000000 ) ) ;
#579 = ORIENTED_EDGE ( 'NONE', *, *, #118, .T. ) ;
#580 = LINE ( 'NONE', #153, #755 ) ;
#581 = CARTESIAN_POINT ( 'NONE',  ( -5.249999999999999100, 9.150000000000000400, 4.000000000000000000 ) ) ;
#582 = VERTEX_POINT ( 'NONE', #584 ) ;
#583 = CARTESIAN_POINT ( 'NONE',  ( 11.50000000000000000, 26.10769515458673600, 0.0000000000000000000 ) ) ;
#584 = CARTESIAN_POINT ( 'NONE',  ( -1.999999999999998200, 9.150000000000000400, 0.0000000000000000000 ) ) ;
#585 = CALENDAR_DATE ( 2018, 5, 11 ) ;
#586 = CIRCLE ( 'NONE', #125, 3.250000000000001300 ) ;
#587 = VECTOR ( 'NONE', #731, 1000.000000000000000 ) ;
#588 = VERTEX_POINT ( 'NONE', #406 ) ;
#589 = VERTEX_POINT ( 'NONE', #76 ) ;
#590 = VECTOR ( 'NONE', #562, 1000.000000000000000 ) ;
#591 = EDGE_CURVE ( 'NONE', #8, #632, #369, .T. ) ;
#592 = VECTOR ( 'NONE', #155, 1000.000000000000000 ) ;
#593 = DIRECTION ( 'NONE',  ( -0.0000000000000000000, -0.0000000000000000000, -1.000000000000000000 ) ) ;
#594 = ORIENTED_EDGE ( 'NONE', *, *, #741, .F. ) ;
#595 = MECHANICAL_CONTEXT ( 'NONE', #416, 'mechanical' ) ;
#596 = ADVANCED_BREP_SHAPE_REPRESENTATION ( 'yaw_part_2_Domyùlna_sldprt', ( #824, #37 ), #843 ) ;
#597 = CARTESIAN_POINT ( 'NONE',  ( 11.50000000000000000, 6.749999999999996400, 4.000000000000000000 ) ) ;
#598 = DATE_AND_TIME ( #757, #489 ) ;
#599 = LINE ( 'NONE', #790, #45 ) ;
#600 = CARTESIAN_POINT ( 'NONE',  ( -8.500000000000000000, 9.150000000000000400, 4.000000000000000000 ) ) ;
#601 = EDGE_CURVE ( 'NONE', #50, #588, #805, .T. ) ;
#602 = ORIENTED_EDGE ( 'NONE', *, *, #524, .F. ) ;
#603 = DIRECTION ( 'NONE',  ( 0.0000000000000000000, 0.0000000000000000000, 1.000000000000000000 ) ) ;
#604 = VERTEX_POINT ( 'NONE', #583 ) ;
#605 = ORIENTED_EDGE ( 'NONE', *, *, #395, .T. ) ;
#606 = DIRECTION ( 'NONE',  ( 0.3162277660168378900, -0.9486832980505138800, 0.0000000000000000000 ) ) ;
#607 = LINE ( 'NONE', #139, #442 ) ;
#608 = DIRECTION ( 'NONE',  ( -0.0000000000000000000, -0.0000000000000000000, -1.000000000000000000 ) ) ;
#609 = ADVANCED_FACE ( 'NONE', ( #474 ), #721, .T. ) ;
#610 = AXIS2_PLACEMENT_3D ( 'NONE', #842, #56, #576 ) ;
#611 = CARTESIAN_POINT ( 'NONE',  ( -7.000000000000000900, 16.88861278752583000, 4.000000000000000000 ) ) ;
#612 = VERTEX_POINT ( 'NONE', #792 ) ;
#613 = ORIENTED_EDGE ( 'NONE', *, *, #396, .T. ) ;
#614 = ORIENTED_EDGE ( 'NONE', *, *, #833, .F. ) ;
#615 = DIRECTION ( 'NONE',  ( 1.000000000000000000, 3.021066579430958400E-032, -0.0000000000000000000 ) ) ;
#616 = CC_DESIGN_PERSON_AND_ORGANIZATION_ASSIGNMENT ( #546, #154, ( #219 ) ) ;
#617 = EDGE_LOOP ( 'NONE', ( #478, #847, #677, #140 ) ) ;
#618 = CARTESIAN_POINT ( 'NONE',  ( -1.999999999999998200, 9.150000000000000400, 4.000000000000000000 ) ) ;
#619 = AXIS2_PLACEMENT_3D ( 'NONE', #151, #795, #146 ) ;
#620 = CARTESIAN_POINT ( 'NONE',  ( 11.50000000000000000, 6.749999999999996400, 4.000000000000000000 ) ) ;
#621 = ORIENTED_EDGE ( 'NONE', *, *, #800, .F. ) ;
#622 = ORIENTED_EDGE ( 'NONE', *, *, #722, .T. ) ;
#623 = VECTOR ( 'NONE', #68, 1000.000000000000000 ) ;
#624 = LINE ( 'NONE', #547, #241 ) ;
#625 = CARTESIAN_POINT ( 'NONE',  ( 0.0000000000000000000, 36.50000000000000000, 4.000000000000000000 ) ) ;
#626 = ADVANCED_FACE ( 'NONE', ( #574 ), #271, .F. ) ;
#627 = ORIENTED_EDGE ( 'NONE', *, *, #858, .T. ) ;
#628 = DIRECTION ( 'NONE',  ( 1.000000000000000000, 0.0000000000000000000, 0.0000000000000000000 ) ) ;
#629 = LINE ( 'NONE', #661, #791 ) ;
#630 = ADVANCED_FACE ( 'NONE', ( #304 ), #337, .T. ) ;
#631 = CARTESIAN_POINT ( 'NONE',  ( 5.749999999999997300, 8.249999999999996400, 4.000000000000000000 ) ) ;
#632 = VERTEX_POINT ( 'NONE', #404 ) ;
#633 = ORIENTED_EDGE ( 'NONE', *, *, #278, .T. ) ;
#634 = ORIENTED_EDGE ( 'NONE', *, *, #591, .T. ) ;
#635 = ORIENTED_EDGE ( 'NONE', *, *, #501, .T. ) ;
#636 = CARTESIAN_POINT ( 'NONE',  ( 12.75000000000000000, 2.999999999999996900, 4.000000000000000000 ) ) ;
#637 = AXIS2_PLACEMENT_3D ( 'NONE', #394, #840, #266 ) ;
#638 = CARTESIAN_POINT ( 'NONE',  ( 8.999999999999998200, 16.25000000000000000, 4.000000000000000000 ) ) ;
#639 = PRODUCT_DEFINITION_FORMATION_WITH_SPECIFIED_SOURCE ( 'ANY', '', #760, .NOT_KNOWN. ) ;
#640 = DIRECTION ( 'NONE',  ( 0.0000000000000000000, 1.000000000000000000, 0.0000000000000000000 ) ) ;
#641 = FACE_OUTER_BOUND ( 'NONE', #658, .T. ) ;
#642 = ORIENTED_EDGE ( 'NONE', *, *, #512, .F. ) ;
#643 = CARTESIAN_POINT ( 'NONE',  ( 12.75000000000000000, 2.999999999999996900, 0.0000000000000000000 ) ) ;
#644 = LINE ( 'NONE', #141, #811 ) ;
#645 = PLANE ( 'NONE',  #671 ) ;
#646 = LINE ( 'NONE', #620, #481 ) ;
#647 = EDGE_CURVE ( 'NONE', #21, #604, #599, .T. ) ;
#648 = ORIENTED_EDGE ( 'NONE', *, *, #6, .T. ) ;
#649 = DIRECTION ( 'NONE',  ( 0.0000000000000000000, 0.0000000000000000000, 1.000000000000000000 ) ) ;
#650 = CARTESIAN_POINT ( 'NONE',  ( 0.0000000000000000000, 36.50000000000000000, 0.0000000000000000000 ) ) ;
#651 = EDGE_CURVE ( 'NONE', #50, #5, #36, .T. ) ;
#652 = DIRECTION ( 'NONE',  ( -0.0000000000000000000, -0.0000000000000000000, -1.000000000000000000 ) ) ;
#653 = FACE_OUTER_BOUND ( 'NONE', #720, .T. ) ;
#654 = ORIENTED_EDGE ( 'NONE', *, *, #704, .F. ) ;
#655 = VERTEX_POINT ( 'NONE', #199 ) ;
#656 = AXIS2_PLACEMENT_3D ( 'NONE', #197, #213, #269 ) ;
#657 = SECURITY_CLASSIFICATION_LEVEL ( 'unclassified' ) ;
#658 = EDGE_LOOP ( 'NONE', ( #293, #594, #492, #633 ) ) ;
#659 = CARTESIAN_POINT ( 'NONE',  ( -8.500000000000000000, 14.14999999999999900, 4.000000000000000000 ) ) ;
#660 = CARTESIAN_POINT ( 'NONE',  ( -12.75000000000000000, -1.352632321270019900E-015, 4.000000000000000000 ) ) ;
#661 = CARTESIAN_POINT ( 'NONE',  ( 8.999999999999998200, 16.25000000000000000, 4.000000000000000000 ) ) ;
#662 = CC_DESIGN_DATE_AND_TIME_ASSIGNMENT ( #598, #9, ( #768 ) ) ;
#663 = DIRECTION ( 'NONE',  ( -0.0000000000000000000, -0.0000000000000000000, -1.000000000000000000 ) ) ;
#664 = CARTESIAN_POINT ( 'NONE',  ( -11.50000000000000400, 26.10769515458674000, 4.000000000000000000 ) ) ;
#665 = FACE_OUTER_BOUND ( 'NONE', #723, .T. ) ;
#666 = CARTESIAN_POINT ( 'NONE',  ( 0.0000000000000000000, 0.0000000000000000000, 0.0000000000000000000 ) ) ;
#667 = ORIENTED_EDGE ( 'NONE', *, *, #42, .F. ) ;
#668 = ORIENTED_EDGE ( 'NONE', *, *, #247, .T. ) ;
#669 = LINE ( 'NONE', #816, #113 ) ;
#670 = DIRECTION ( 'NONE',  ( -0.9486832980505138800, -0.3162277660168378900, 0.0000000000000000000 ) ) ;
#671 = AXIS2_PLACEMENT_3D ( 'NONE', #638, #398, #327 ) ;
#672 = CARTESIAN_POINT ( 'NONE',  ( 2.499999999999995600, 8.249999999999996400, 0.0000000000000000000 ) ) ;
#673 = CIRCLE ( 'NONE', #305, 3.250000000000000400 ) ;
#674 = DIRECTION ( 'NONE',  ( 1.000000000000000000, 0.0000000000000000000, 0.0000000000000000000 ) ) ;
#675 = ORIENTED_EDGE ( 'NONE', *, *, #2, .F. ) ;
#676 = DIRECTION ( 'NONE',  ( 0.0000000000000000000, 0.0000000000000000000, 1.000000000000000000 ) ) ;
#677 = ORIENTED_EDGE ( 'NONE', *, *, #51, .T. ) ;
#678 = ORIENTED_EDGE ( 'NONE', *, *, #25, .F. ) ;
#679 = LINE ( 'NONE', #334, #506 ) ;
#680 = ORIENTED_EDGE ( 'NONE', *, *, #396, .F. ) ;
#681 = COORDINATED_UNIVERSAL_TIME_OFFSET ( 1, 0, .AHEAD. ) ;
#682 = PLANE ( 'NONE',  #108 ) ;
#683 = CARTESIAN_POINT ( 'NONE',  ( 14.00000000000000200, 36.50000000000000000, 4.000000000000000000 ) ) ;
#684 = AXIS2_PLACEMENT_3D ( 'NONE', #230, #232, #742 ) ;
#685 = PERSON_AND_ORGANIZATION ( #487, #362 ) ;
#686 = LINE ( 'NONE', #159, #845 ) ;
#687 = ORIENTED_EDGE ( 'NONE', *, *, #444, .F. ) ;
#688 = LOCAL_TIME ( 17, 58, 3.000000000000000000, #567 ) ;
#689 = FACE_OUTER_BOUND ( 'NONE', #158, .T. ) ;
#690 = DIRECTION ( 'NONE',  ( -0.0000000000000000000, -0.0000000000000000000, -1.000000000000000000 ) ) ;
#691 = LINE ( 'NONE', #819, #828 ) ;
#692 = EDGE_CURVE ( 'NONE', #83, #808, #431, .T. ) ;
#693 = ADVANCED_FACE ( 'NONE', ( #419, #694, #554 ), #778, .F. ) ;
#694 = FACE_OUTER_BOUND ( 'NONE', #809, .T. ) ;
#695 = DIRECTION ( 'NONE',  ( 1.000000000000000000, 0.0000000000000000000, 0.0000000000000000000 ) ) ;
#696 = ORIENTED_EDGE ( 'NONE', *, *, #833, .T. ) ;
#697 = ORIENTED_EDGE ( 'NONE', *, *, #380, .T. ) ;
#698 = ORIENTED_EDGE ( 'NONE', *, *, #555, .T. ) ;
#699 = FACE_OUTER_BOUND ( 'NONE', #115, .T. ) ;
#700 = DIRECTION ( 'NONE',  ( 1.000000000000000000, 0.0000000000000000000, 0.0000000000000000000 ) ) ;
#701 = ORIENTED_EDGE ( 'NONE', *, *, #858, .F. ) ;
#702 = AXIS2_PLACEMENT_3D ( 'NONE', #724, #521, #274 ) ;
#703 = CARTESIAN_POINT ( 'NONE',  ( 8.999999999999998200, 16.25000000000000000, 0.0000000000000000000 ) ) ;
#704 = EDGE_CURVE ( 'NONE', #263, #582, #586, .T. ) ;
#705 = DIRECTION ( 'NONE',  ( -2.602085213965211100E-016, 1.000000000000000000, -0.0000000000000000000 ) ) ;
#706 = LINE ( 'NONE', #468, #371 ) ;
#707 = ORIENTED_EDGE ( 'NONE', *, *, #542, .F. ) ;
#708 = CARTESIAN_POINT ( 'NONE',  ( -12.75000000000000000, 2.999999999999998700, 4.000000000000000000 ) ) ;
#709 = ORIENTED_EDGE ( 'NONE', *, *, #794, .T. ) ;
#710 = LINE ( 'NONE', #775, #534 ) ;
#711 = FACE_BOUND ( 'NONE', #248, .T. ) ;
#712 = ORIENTED_EDGE ( 'NONE', *, *, #794, .F. ) ;
#713 = CARTESIAN_POINT ( 'NONE',  ( 0.0000000000000000000, 36.50000000000000000, 4.000000000000000000 ) ) ;
#714 = CARTESIAN_POINT ( 'NONE',  ( 12.75000000000000000, 2.999999999999996900, 0.0000000000000000000 ) ) ;
#715 = DIRECTION ( 'NONE',  ( -0.0000000000000000000, -1.000000000000000000, -0.0000000000000000000 ) ) ;
#716 = AXIS2_PLACEMENT_3D ( 'NONE', #553, #183, #316 ) ;
#717 = DIRECTION ( 'NONE',  ( 0.0000000000000000000, 1.000000000000000000, 0.0000000000000000000 ) ) ;
#718 = ORIENTED_EDGE ( 'NONE', *, *, #343, .F. ) ;
#719 = CARTESIAN_POINT ( 'NONE',  ( -11.50000000000000400, 26.10769515458674000, 0.0000000000000000000 ) ) ;
#720 = EDGE_LOOP ( 'NONE', ( #605, #642, #344, #367 ) ) ;
#721 = PLANE ( 'NONE',  #575 ) ;
#722 = EDGE_CURVE ( 'NONE', #287, #756, #532, .T. ) ;
#723 = EDGE_LOOP ( 'NONE', ( #166, #165, #110, #668 ) ) ;
#724 = CARTESIAN_POINT ( 'NONE',  ( 0.0000000000000000000, 36.50000000000000000, 4.000000000000000000 ) ) ;
#725 = PLANE ( 'NONE',  #169 ) ;
#726 = DIRECTION ( 'NONE',  ( -0.0000000000000000000, 0.0000000000000000000, -1.000000000000000000 ) ) ;
#727 = DIRECTION ( 'NONE',  ( -1.000000000000000000, 0.0000000000000000000, 0.0000000000000000000 ) ) ;
#728 = DIRECTION ( 'NONE',  ( 0.3162277660168377200, 0.9486832980505138800, 0.0000000000000000000 ) ) ;
#729 = LINE ( 'NONE', #15, #508 ) ;
#730 = ORIENTED_EDGE ( 'NONE', *, *, #145, .F. ) ;
#731 = DIRECTION ( 'NONE',  ( 0.0000000000000000000, -1.000000000000000000, 0.0000000000000000000 ) ) ;
#732 = ORIENTED_EDGE ( 'NONE', *, *, #249, .F. ) ;
#733 = CYLINDRICAL_SURFACE ( 'NONE', #330, 15.50000000000000000 ) ;
#734 = APPROVAL_STATUS ( 'not_yet_approved' ) ;
#735 = LINE ( 'NONE', #806, #302 ) ;
#736 = EDGE_LOOP ( 'NONE', ( #134, #526, #667, #445 ) ) ;
#737 = CARTESIAN_POINT ( 'NONE',  ( 9.000000000000000000, 8.249999999999996400, 4.000000000000000000 ) ) ;
#738 = LINE ( 'NONE', #70, #564 ) ;
#739 = CARTESIAN_POINT ( 'NONE',  ( 0.0000000000000000000, 36.50000000000000000, 0.0000000000000000000 ) ) ;
#740 = APPROVAL_ROLE ( '' ) ;
#741 = EDGE_CURVE ( 'NONE', #60, #349, #202, .T. ) ;
#742 = DIRECTION ( 'NONE',  ( -1.000000000000000000, 0.0000000000000000000, 0.0000000000000000000 ) ) ;
#743 = LINE ( 'NONE', #348, #54 ) ;
#744 = EDGE_CURVE ( 'NONE', #808, #240, #855, .T. ) ;
#745 = FACE_OUTER_BOUND ( 'NONE', #502, .T. ) ;
#746 = ORIENTED_EDGE ( 'NONE', *, *, #135, .T. ) ;
#747 = ORIENTED_EDGE ( 'NONE', *, *, #407, .T. ) ;
#748 = AXIS2_PLACEMENT_3D ( 'NONE', #282, #727, #513 ) ;
#749 = CARTESIAN_POINT ( 'NONE',  ( -14.00000000000000200, 36.50000000000000000, 0.0000000000000000000 ) ) ;
#750 = FACE_OUTER_BOUND ( 'NONE', #3, .T. ) ;
#751 = CARTESIAN_POINT ( 'NONE',  ( 2.499999999999995600, 8.249999999999996400, 4.000000000000000000 ) ) ;
#752 = ORIENTED_EDGE ( 'NONE', *, *, #704, .T. ) ;
#753 = PERSON_AND_ORGANIZATION ( #487, #362 ) ;
#754 = CYLINDRICAL_SURFACE ( 'NONE', #803, 15.50000000000000000 ) ;
#755 = VECTOR ( 'NONE', #91, 1000.000000000000000 ) ;
#756 = VERTEX_POINT ( 'NONE', #719 ) ;
#757 = CALENDAR_DATE ( 2018, 5, 11 ) ;
#758 = VECTOR ( 'NONE', #715, 1000.000000000000000 ) ;
#759 = DATE_AND_TIME ( #585, #573 ) ;
#760 = PRODUCT ( 'yaw_part_2_Domyúlna_sldprt', 'yaw_part_2_Domyúlna_sldprt', '', ( #595 ) ) ;
#761 = LINE ( 'NONE', #4, #577 ) ;
#762 = ORIENTED_EDGE ( 'NONE', *, *, #236, .T. ) ;
#763 = CARTESIAN_POINT ( 'NONE',  ( -8.499999999999991100, 25.37570226935649500, 0.0000000000000000000 ) ) ;
#764 = COORDINATED_UNIVERSAL_TIME_OFFSET ( 1, 0, .AHEAD. ) ;
#765 = ORIENTED_EDGE ( 'NONE', *, *, #102, .F. ) ;
#766 = DIRECTION ( 'NONE',  ( 0.0000000000000000000, 0.0000000000000000000, 1.000000000000000000 ) ) ;
#767 = EDGE_CURVE ( 'NONE', #632, #83, #265, .T. ) ;
#768 = SECURITY_CLASSIFICATION ( '', '', #657 ) ;
#769 = CARTESIAN_POINT ( 'NONE',  ( 0.0000000000000000000, 36.50000000000000000, 4.000000000000000000 ) ) ;
#770 = ADVANCED_FACE ( 'NONE', ( #515 ), #299, .F. ) ;
#771 = CYLINDRICAL_SURFACE ( 'NONE', #619, 15.50000000000000000 ) ;
#772 = ORIENTED_EDGE ( 'NONE', *, *, #220, .F. ) ;
#773 = ORIENTED_EDGE ( 'NONE', *, *, #179, .T. ) ;
#774 = LINE ( 'NONE', #44, #590 ) ;
#775 = CARTESIAN_POINT ( 'NONE',  ( -7.000000000000000900, 16.88861278752583000, 4.000000000000000000 ) ) ;
#776 = EDGE_LOOP ( 'NONE', ( #160, #450, #168, #495 ) ) ;
#777 = LOCAL_TIME ( 17, 58, 3.000000000000000000, #244 ) ;
#778 = PLANE ( 'NONE',  #528 ) ;
#779 = DIRECTION ( 'NONE',  ( -0.0000000000000000000, -1.000000000000000000, -0.0000000000000000000 ) ) ;
#780 = LINE ( 'NONE', #216, #435 ) ;
#781 = CARTESIAN_POINT ( 'NONE',  ( -7.000000000000000900, 24.37564434701785700, 4.000000000000000000 ) ) ;
#782 = EDGE_CURVE ( 'NONE', #604, #588, #499, .T. ) ;
#783 = CLOSED_SHELL ( 'NONE', ( #770, #191, #53, #378, #256, #693, #626, #449, #80, #112, #119, #317, #101, #841, #434, #630, #180, #609, #186, #48, #351, #557, #365, #505 ) ) ;
#784 = VECTOR ( 'NONE', #235, 1000.000000000000000 ) ;
#785 = ORIENTED_EDGE ( 'NONE', *, *, #118, .F. ) ;
#786 = CARTESIAN_POINT ( 'NONE',  ( -8.500000000000000000, 9.150000000000000400, 4.000000000000000000 ) ) ;
#787 = ORIENTED_EDGE ( 'NONE', *, *, #220, .T. ) ;
#788 = CARTESIAN_POINT ( 'NONE',  ( -7.000000000000000900, 16.88861278752583000, 4.000000000000000000 ) ) ;
#789 = DIRECTION ( 'NONE',  ( 0.0000000000000000000, 1.000000000000000000, 0.0000000000000000000 ) ) ;
#790 = CARTESIAN_POINT ( 'NONE',  ( 11.50000000000000000, 6.749999999999996400, 0.0000000000000000000 ) ) ;
#791 = VECTOR ( 'NONE', #353, 1000.000000000000000 ) ;
#792 = CARTESIAN_POINT ( 'NONE',  ( 14.00000000000000200, 36.50000000000000000, 0.0000000000000000000 ) ) ;
#793 = DIRECTION ( 'NONE',  ( 1.000000000000000000, 0.0000000000000000000, 0.0000000000000000000 ) ) ;
#794 = EDGE_CURVE ( 'NONE', #522, #60, #673, .T. ) ;
#795 = DIRECTION ( 'NONE',  ( -0.0000000000000000000, -0.0000000000000000000, -1.000000000000000000 ) ) ;
#796 = EDGE_LOOP ( 'NONE', ( #124, #488, #773, #820 ) ) ;
#797 = AXIS2_PLACEMENT_3D ( 'NONE', #233, #352, #801 ) ;
#798 = VERTEX_POINT ( 'NONE', #132 ) ;
#799 = VECTOR ( 'NONE', #844, 1000.000000000000000 ) ;
#800 = EDGE_CURVE ( 'NONE', #471, #21, #164, .T. ) ;
#801 = DIRECTION ( 'NONE',  ( 1.000000000000000000, 0.0000000000000000000, 0.0000000000000000000 ) ) ;
#802 = ORIENTED_EDGE ( 'NONE', *, *, #41, .T. ) ;
#803 = AXIS2_PLACEMENT_3D ( 'NONE', #109, #111, #117 ) ;
#804 = DIRECTION ( 'NONE',  ( 0.0000000000000000000, 0.0000000000000000000, 1.000000000000000000 ) ) ;
#805 = LINE ( 'NONE', #347, #254 ) ;
#806 = CARTESIAN_POINT ( 'NONE',  ( -7.000000000000000900, 16.88861278752583000, 0.0000000000000000000 ) ) ;
#807 = DATE_TIME_ROLE ( 'creation_date' ) ;
#808 = VERTEX_POINT ( 'NONE', #786 ) ;
#809 = EDGE_LOOP ( 'NONE', ( #680, #149, #447, #827, #188, #207, #549, #621, #558, #732 ) ) ;
#810 = AXIS2_PLACEMENT_3D ( 'NONE', #341, #264, #345 ) ;
#811 = VECTOR ( 'NONE', #705, 1000.000000000000000 ) ;
#812 = ORIENTED_EDGE ( 'NONE', *, *, #145, .T. ) ;
#813 = CARTESIAN_POINT ( 'NONE',  ( -12.75000000000000000, 2.999999999999998700, 4.000000000000000000 ) ) ;
#814 = LINE ( 'NONE', #683, #438 ) ;
#815 = EDGE_LOOP ( 'NONE', ( #57, #712, #687, #614 ) ) ;
#816 = CARTESIAN_POINT ( 'NONE',  ( -8.499999999999991100, 25.37570226935649500, 4.000000000000000000 ) ) ;
#817 = LINE ( 'NONE', #24, #336 ) ;
#818 = EDGE_CURVE ( 'NONE', #322, #462, #607, .T. ) ;
#819 = CARTESIAN_POINT ( 'NONE',  ( 2.499999999999995600, 8.249999999999996400, 4.000000000000000000 ) ) ;
#820 = ORIENTED_EDGE ( 'NONE', *, *, #830, .T. ) ;
#821 = LINE ( 'NONE', #190, #198 ) ;
#822 = CARTESIAN_POINT ( 'NONE',  ( 12.75000000000000000, -1.352632321270019100E-015, 0.0000000000000000000 ) ) ;
#823 = ORIENTED_EDGE ( 'NONE', *, *, #135, .F. ) ;
#824 = MANIFOLD_SOLID_BREP ( 'Dodanie-wyciπgniÍcie1', #783 ) ;
#825 = AXIS2_PLACEMENT_3D ( 'NONE', #463, #857, #793 ) ;
#826 = CC_DESIGN_SECURITY_CLASSIFICATION ( #768, ( #639 ) ) ;
#827 = ORIENTED_EDGE ( 'NONE', *, *, #722, .F. ) ;
#828 = VECTOR ( 'NONE', #376, 1000.000000000000000 ) ;
#829 = CARTESIAN_POINT ( 'NONE',  ( 0.0000000000000000000, 36.50000000000000000, 0.0000000000000000000 ) ) ;
#830 = EDGE_CURVE ( 'NONE', #303, #363, #817, .T. ) ;
#831 = CARTESIAN_POINT ( 'NONE',  ( 2.499999999999995100, 16.25000000000000000, 4.000000000000000000 ) ) ;
#832 = VECTOR ( 'NONE', #514, 1000.000000000000100 ) ;
#833 = EDGE_CURVE ( 'NONE', #208, #550, #464, .T. ) ;
#834 = DIRECTION ( 'NONE',  ( 1.000000000000000000, 0.0000000000000000000, 0.0000000000000000000 ) ) ;
#835 = ORIENTED_EDGE ( 'NONE', *, *, #338, .F. ) ;
#836 = ORIENTED_EDGE ( 'NONE', *, *, #102, .T. ) ;
#837 = CARTESIAN_POINT ( 'NONE',  ( 2.499999999999995100, 16.25000000000000000, 0.0000000000000000000 ) ) ;
#838 = CIRCLE ( 'NONE', #716, 15.50000000000000000 ) ;
#839 = VERTEX_POINT ( 'NONE', #476 ) ;
#840 = DIRECTION ( 'NONE',  ( -0.0000000000000000000, -0.0000000000000000000, -1.000000000000000000 ) ) ;
#841 = ADVANCED_FACE ( 'NONE', ( #653 ), #725, .F. ) ;
#842 = CARTESIAN_POINT ( 'NONE',  ( 12.75000000000000000, -1.352632321270019100E-015, 4.000000000000000000 ) ) ;
#843 =( GEOMETRIC_REPRESENTATION_CONTEXT ( 3 ) GLOBAL_UNCERTAINTY_ASSIGNED_CONTEXT ( ( #537 ) ) GLOBAL_UNIT_ASSIGNED_CONTEXT ( ( #410, #355, #289 ) ) REPRESENTATION_CONTEXT ( 'NONE', 'WORKASPACE' ) );
#844 = DIRECTION ( 'NONE',  ( -0.0000000000000000000, -0.0000000000000000000, -1.000000000000000000 ) ) ;
#845 = VECTOR ( 'NONE', #98, 1000.000000000000000 ) ;
#846 = ORIENTED_EDGE ( 'NONE', *, *, #380, .F. ) ;
#847 = ORIENTED_EDGE ( 'NONE', *, *, #321, .F. ) ;
#848 = FACE_OUTER_BOUND ( 'NONE', #796, .T. ) ;
#849 = CARTESIAN_POINT ( 'NONE',  ( -11.50000000000000000, 6.750000000000000000, 4.000000000000000000 ) ) ;
#850 = LINE ( 'NONE', #831, #313 ) ;
#851 = CARTESIAN_POINT ( 'NONE',  ( -2.000000000000000000, 14.14999999999999900, 4.000000000000000000 ) ) ;
#852 = AXIS2_PLACEMENT_3D ( 'NONE', #597, #475, #26 ) ;
#853 = CARTESIAN_POINT ( 'NONE',  ( 12.75000000000000000, -1.352632321270019100E-015, 0.0000000000000000000 ) ) ;
#854 = DIRECTION ( 'NONE',  ( -1.000000000000000000, -2.602085213965211100E-016, 0.0000000000000000000 ) ) ;
#855 = CIRCLE ( 'NONE', #258, 3.250000000000001300 ) ;
#856 = DIRECTION ( 'NONE',  ( 0.0000000000000000000, 0.0000000000000000000, 1.000000000000000000 ) ) ;
#857 = DIRECTION ( 'NONE',  ( 0.0000000000000000000, 0.0000000000000000000, 1.000000000000000000 ) ) ;
#858 = EDGE_CURVE ( 'NONE', #522, #462, #629, .T. ) ;
#859 = CARTESIAN_POINT ( 'NONE',  ( 11.50000000000000000, 6.749999999999996400, 0.0000000000000000000 ) ) ;
ENDSEC;
END-ISO-10303-21;
