ISO-10303-21;
HEADER;
FILE_DESCRIPTION (( 'STEP AP203' ),
    '1' );
FILE_NAME ('camera_mount_2_Domyúlna_sldprt.STEP',
    '2018-11-04T14:57:50',
    ( '' ),
    ( '' ),
    'SwSTEP 2.0',
    'SolidWorks 2016',
    '' );
FILE_SCHEMA (( 'CONFIG_CONTROL_DESIGN' ));
ENDSEC;

DATA;
#1 = DIRECTION ( 'NONE',  ( -0.0000000000000000000, -0.0000000000000000000, -1.000000000000000000 ) ) ;
#2 = AXIS2_PLACEMENT_3D ( 'NONE', #610, #271, #276 ) ;
#3 = VECTOR ( 'NONE', #33, 1000.000000000000000 ) ;
#4 = ORIENTED_EDGE ( 'NONE', *, *, #270, .T. ) ;
#5 = ORIENTED_EDGE ( 'NONE', *, *, #69, .F. ) ;
#6 = ORIENTED_EDGE ( 'NONE', *, *, #649, .T. ) ;
#7 = CARTESIAN_POINT ( 'NONE',  ( -8.999999999999998200, 35.75000000000000000, 4.000000000000000000 ) ) ;
#8 = LINE ( 'NONE', #174, #530 ) ;
#9 = DIRECTION ( 'NONE',  ( -0.0000000000000000000, -0.0000000000000000000, -1.000000000000000000 ) ) ;
#10 = FACE_OUTER_BOUND ( 'NONE', #146, .T. ) ;
#11 = ORIENTED_EDGE ( 'NONE', *, *, #132, .F. ) ;
#12 = VERTEX_POINT ( 'NONE', #647 ) ;
#13 = ORIENTED_EDGE ( 'NONE', *, *, #134, .T. ) ;
#14 = CARTESIAN_POINT ( 'NONE',  ( 12.50000000000000000, 0.0000000000000000000, 0.0000000000000000000 ) ) ;
#15 = EDGE_LOOP ( 'NONE', ( #191, #515, #691, #454 ) ) ;
#16 = VECTOR ( 'NONE', #566, 1000.000000000000000 ) ;
#17 = LINE ( 'NONE', #182, #411 ) ;
#18 = ORIENTED_EDGE ( 'NONE', *, *, #473, .F. ) ;
#19 = ORIENTED_EDGE ( 'NONE', *, *, #257, .T. ) ;
#20 = CARTESIAN_POINT ( 'NONE',  ( 4.999999999999999100, 53.99999999999999300, 4.000000000000000000 ) ) ;
#21 = DIRECTION ( 'NONE',  ( -1.000000000000000000, 0.0000000000000000000, 0.0000000000000000000 ) ) ;
#22 = DIRECTION ( 'NONE',  ( -1.000000000000000000, 0.0000000000000000000, 0.0000000000000000000 ) ) ;
#23 = DIRECTION ( 'NONE',  ( 1.000000000000000000, 0.0000000000000000000, 0.0000000000000000000 ) ) ;
#24 = CARTESIAN_POINT ( 'NONE',  ( 4.999999999999993800, 12.50000000000000400, 4.000000000000000000 ) ) ;
#25 = ORGANIZATION ( 'UNSPECIFIED', 'UNSPECIFIED', '' ) ;
#26 = VECTOR ( 'NONE', #233, 1000.000000000000000 ) ;
#27 = VERTEX_POINT ( 'NONE', #577 ) ;
#28 = EDGE_CURVE ( 'NONE', #709, #524, #537, .T. ) ;
#29 = VERTEX_POINT ( 'NONE', #24 ) ;
#30 = CARTESIAN_POINT ( 'NONE',  ( -7.499999999999965400, 64.00000000000000000, 4.000000000000000000 ) ) ;
#31 = ADVANCED_FACE ( 'NONE', ( #495 ), #212, .F. ) ;
#32 = EDGE_CURVE ( 'NONE', #29, #514, #240, .T. ) ;
#33 = DIRECTION ( 'NONE',  ( -0.0000000000000000000, -0.0000000000000000000, -1.000000000000000000 ) ) ;
#34 = CARTESIAN_POINT ( 'NONE',  ( -4.999999999999999100, 53.99999999999999300, 4.000000000000000000 ) ) ;
#35 = LINE ( 'NONE', #510, #634 ) ;
#36 = ORIENTED_EDGE ( 'NONE', *, *, #509, .F. ) ;
#37 = PLANE ( 'NONE',  #529 ) ;
#38 = ORIENTED_EDGE ( 'NONE', *, *, #251, .T. ) ;
#39 = VERTEX_POINT ( 'NONE', #572 ) ;
#40 = AXIS2_PLACEMENT_3D ( 'NONE', #386, #51, #441 ) ;
#41 = DIRECTION ( 'NONE',  ( 0.0000000000000000000, 0.0000000000000000000, 1.000000000000000000 ) ) ;
#42 = DIRECTION ( 'NONE',  ( 1.000000000000000000, -1.476360405086644600E-016, 0.0000000000000000000 ) ) ;
#43 = DIRECTION ( 'NONE',  ( 0.0000000000000000000, 0.0000000000000000000, 1.000000000000000000 ) ) ;
#44 = FACE_OUTER_BOUND ( 'NONE', #694, .T. ) ;
#45 = EDGE_LOOP ( 'NONE', ( #612, #18, #684, #183 ) ) ;
#46 = DIRECTION ( 'NONE',  ( 0.0000000000000000000, 0.0000000000000000000, 1.000000000000000000 ) ) ;
#47 = ORIENTED_EDGE ( 'NONE', *, *, #456, .T. ) ;
#48 = ORIENTED_EDGE ( 'NONE', *, *, #614, .T. ) ;
#49 = DIRECTION ( 'NONE',  ( 1.000000000000000000, 0.0000000000000000000, 0.0000000000000000000 ) ) ;
#50 = DIRECTION ( 'NONE',  ( -1.476360405086644600E-016, -1.000000000000000000, 0.0000000000000000000 ) ) ;
#51 = DIRECTION ( 'NONE',  ( -1.000000000000000000, 0.0000000000000000000, 0.0000000000000000000 ) ) ;
#52 = AXIS2_PLACEMENT_3D ( 'NONE', #129, #462, #631 ) ;
#53 = VECTOR ( 'NONE', #202, 1000.000000000000000 ) ;
#54 = DIRECTION ( 'NONE',  ( -0.0000000000000000000, -0.0000000000000000000, -1.000000000000000000 ) ) ;
#55 = ORIENTED_EDGE ( 'NONE', *, *, #142, .F. ) ;
#56 = DIRECTION ( 'NONE',  ( -1.000000000000000000, 0.0000000000000000000, 0.0000000000000000000 ) ) ;
#57 = EDGE_CURVE ( 'NONE', #477, #508, #531, .T. ) ;
#58 = AXIS2_PLACEMENT_3D ( 'NONE', #435, #268, #437 ) ;
#59 = CARTESIAN_POINT ( 'NONE',  ( 7.499999999999965400, 64.00000000000000000, 4.000000000000000000 ) ) ;
#60 = PERSON_AND_ORGANIZATION ( #99, #25 ) ;
#61 = CARTESIAN_POINT ( 'NONE',  ( 8.999999999999994700, 12.25000000000000000, 0.0000000000000000000 ) ) ;
#62 = FACE_OUTER_BOUND ( 'NONE', #316, .T. ) ;
#63 = ORIENTED_EDGE ( 'NONE', *, *, #414, .F. ) ;
#64 = CARTESIAN_POINT ( 'NONE',  ( 10.24999999999999600, 12.25000000000000000, 4.000000000000000000 ) ) ;
#65 = AXIS2_PLACEMENT_3D ( 'NONE', #372, #42, #542 ) ;
#66 = DIRECTION ( 'NONE',  ( -1.000000000000000000, -1.476360405086644600E-016, 0.0000000000000000000 ) ) ;
#67 = LOCAL_TIME ( 15, 57, 50.00000000000000000, #450 ) ;
#68 = LINE ( 'NONE', #686, #166 ) ;
#69 = EDGE_CURVE ( 'NONE', #619, #371, #370, .T. ) ;
#70 = CARTESIAN_POINT ( 'NONE',  ( -11.49999999999999800, 35.75000000000000000, 4.000000000000000000 ) ) ;
#71 = LINE ( 'NONE', #30, #338 ) ;
#72 = APPROVAL ( #668, 'UNSPECIFIED' ) ;
#73 = VERTEX_POINT ( 'NONE', #526 ) ;
#74 = ORIENTED_EDGE ( 'NONE', *, *, #57, .F. ) ;
#75 = DIRECTION ( 'NONE',  ( 0.0000000000000000000, 0.0000000000000000000, 1.000000000000000000 ) ) ;
#76 = EDGE_CURVE ( 'NONE', #415, #447, #406, .T. ) ;
#77 = DIRECTION ( 'NONE',  ( -1.000000000000000000, 0.0000000000000000000, 0.0000000000000000000 ) ) ;
#78 = FACE_OUTER_BOUND ( 'NONE', #693, .T. ) ;
#79 = CARTESIAN_POINT ( 'NONE',  ( -11.49999999999999800, 12.25000000000000000, 4.000000000000000000 ) ) ;
#80 = ORIENTED_EDGE ( 'NONE', *, *, #261, .T. ) ;
#81 = CARTESIAN_POINT ( 'NONE',  ( -7.500000000000000900, 59.00000000000000700, 0.0000000000000000000 ) ) ;
#82 = ADVANCED_FACE ( 'NONE', ( #150 ), #639, .T. ) ;
#83 = CYLINDRICAL_SURFACE ( 'NONE', #696, 5.000000000000000000 ) ;
#84 = FACE_OUTER_BOUND ( 'NONE', #122, .T. ) ;
#85 = DATE_AND_TIME ( #710, #67 ) ;
#86 = DIRECTION ( 'NONE',  ( -0.0000000000000000000, -0.0000000000000000000, -1.000000000000000000 ) ) ;
#87 = AXIS2_PLACEMENT_3D ( 'NONE', #397, #125, #689 ) ;
#88 = EDGE_LOOP ( 'NONE', ( #463, #100, #480, #284 ) ) ;
#89 = ORIENTED_EDGE ( 'NONE', *, *, #459, .F. ) ;
#90 = DIRECTION ( 'NONE',  ( -1.000000000000000000, 0.0000000000000000000, 0.0000000000000000000 ) ) ;
#91 = CARTESIAN_POINT ( 'NONE',  ( -4.999999999999999100, 53.99999999999999300, 4.000000000000000000 ) ) ;
#92 = EDGE_CURVE ( 'NONE', #231, #27, #428, .T. ) ;
#93 = CARTESIAN_POINT ( 'NONE',  ( 4.999999999999999100, 53.99999999999999300, 4.000000000000000000 ) ) ;
#94 = CIRCLE ( 'NONE', #388, 1.250000000000001100 ) ;
#95 = LINE ( 'NONE', #309, #3 ) ;
#96 = CARTESIAN_POINT ( 'NONE',  ( 12.50000000000000000, 58.99999999999997200, 0.0000000000000000000 ) ) ;
#97 = ORIENTED_EDGE ( 'NONE', *, *, #486, .F. ) ;
#98 = CARTESIAN_POINT ( 'NONE',  ( 10.24999999999999800, 35.75000000000000000, 0.0000000000000000000 ) ) ;
#99 = PERSON ( 'UNSPECIFIED', 'UNSPECIFIED', 'UNSPECIFIED', ('UNSPECIFIED'), ('UNSPECIFIED'), ('UNSPECIFIED') ) ;
#100 = ORIENTED_EDGE ( 'NONE', *, *, #713, .F. ) ;
#101 = VERTEX_POINT ( 'NONE', #589 ) ;
#102 = DIRECTION ( 'NONE',  ( 1.000000000000000000, 0.0000000000000000000, 0.0000000000000000000 ) ) ;
#103 = DIRECTION ( 'NONE',  ( 1.000000000000000000, 0.0000000000000000000, 0.0000000000000000000 ) ) ;
#104 = DIRECTION ( 'NONE',  ( 1.000000000000000000, 0.0000000000000000000, 0.0000000000000000000 ) ) ;
#105 = EDGE_CURVE ( 'NONE', #101, #371, #222, .T. ) ;
#106 = CARTESIAN_POINT ( 'NONE',  ( -12.50000000000000000, 0.0000000000000000000, 4.000000000000000000 ) ) ;
#107 = CALENDAR_DATE ( 2018, 4, 11 ) ;
#108 = CARTESIAN_POINT ( 'NONE',  ( 8.999999999999998200, 35.75000000000000000, 0.0000000000000000000 ) ) ;
#109 = VECTOR ( 'NONE', #320, 1000.000000000000000 ) ;
#110 = ORIENTED_EDGE ( 'NONE', *, *, #727, .T. ) ;
#111 = ORIENTED_EDGE ( 'NONE', *, *, #57, .T. ) ;
#112 = CARTESIAN_POINT ( 'NONE',  ( 12.50000000000000000, 0.0000000000000000000, 4.000000000000000000 ) ) ;
#113 = EDGE_CURVE ( 'NONE', #293, #73, #17, .T. ) ;
#114 = VERTEX_POINT ( 'NONE', #367 ) ;
#115 = PLANE ( 'NONE',  #712 ) ;
#116 = AXIS2_PLACEMENT_3D ( 'NONE', #574, #244, #528 ) ;
#117 = DATE_AND_TIME ( #260, #669 ) ;
#118 = VECTOR ( 'NONE', #310, 1000.000000000000000 ) ;
#119 = PERSON_AND_ORGANIZATION ( #99, #25 ) ;
#120 = EDGE_LOOP ( 'NONE', ( #407, #38, #13, #673 ) ) ;
#121 = ADVANCED_FACE ( 'NONE', ( #10 ), #196, .F. ) ;
#122 = EDGE_LOOP ( 'NONE', ( #248, #568, #443, #168 ) ) ;
#123 = DIRECTION ( 'NONE',  ( 1.476360405086644600E-016, -1.000000000000000000, 0.0000000000000000000 ) ) ;
#124 = VECTOR ( 'NONE', #272, 1000.000000000000000 ) ;
#125 = DIRECTION ( 'NONE',  ( -0.0000000000000000000, -0.0000000000000000000, -1.000000000000000000 ) ) ;
#126 = AXIS2_PLACEMENT_3D ( 'NONE', #550, #667, #491 ) ;
#127 = LINE ( 'NONE', #207, #124 ) ;
#128 = VECTOR ( 'NONE', #321, 1000.000000000000000 ) ;
#129 = CARTESIAN_POINT ( 'NONE',  ( 4.999999999999999100, 53.99999999999999300, 4.000000000000000000 ) ) ;
#130 = ORIENTED_EDGE ( 'NONE', *, *, #170, .T. ) ;
#131 = CARTESIAN_POINT ( 'NONE',  ( -8.999999999999998200, 35.75000000000000000, 0.0000000000000000000 ) ) ;
#132 = EDGE_CURVE ( 'NONE', #524, #231, #95, .T. ) ;
#133 = PRODUCT_DEFINITION_SHAPE ( 'NONE', 'NONE',  #402 ) ;
#134 = EDGE_CURVE ( 'NONE', #468, #234, #553, .T. ) ;
#135 = VECTOR ( 'NONE', #448, 1000.000000000000000 ) ;
#136 = AXIS2_PLACEMENT_3D ( 'NONE', #106, #591, #322 ) ;
#137 = ORIENTED_EDGE ( 'NONE', *, *, #226, .F. ) ;
#138 = ORIENTED_EDGE ( 'NONE', *, *, #434, .T. ) ;
#139 = DIRECTION ( 'NONE',  ( -1.000000000000000000, 0.0000000000000000000, 0.0000000000000000000 ) ) ;
#140 = PERSON_AND_ORGANIZATION ( #99, #25 ) ;
#141 = LINE ( 'NONE', #131, #723 ) ;
#142 = EDGE_CURVE ( 'NONE', #431, #619, #71, .T. ) ;
#143 = CIRCLE ( 'NONE', #620, 1.250000000000001100 ) ;
#144 = ORIENTED_EDGE ( 'NONE', *, *, #134, .F. ) ;
#145 = CARTESIAN_POINT ( 'NONE',  ( -12.50000000000000000, 58.99999999999997200, 4.000000000000000000 ) ) ;
#146 = EDGE_LOOP ( 'NONE', ( #294, #55, #286, #19 ) ) ;
#147 = CC_DESIGN_PERSON_AND_ORGANIZATION_ASSIGNMENT ( #624, #264, ( #194 ) ) ;
#148 = CARTESIAN_POINT ( 'NONE',  ( -12.50000000000000000, 0.0000000000000000000, 4.000000000000000000 ) ) ;
#149 = VECTOR ( 'NONE', #345, 1000.000000000000000 ) ;
#150 = FACE_OUTER_BOUND ( 'NONE', #656, .T. ) ;
#151 = EDGE_LOOP ( 'NONE', ( #254, #726, #573, #184 ) ) ;
#152 = DIRECTION ( 'NONE',  ( -1.476360405086644600E-016, -1.000000000000000000, 0.0000000000000000000 ) ) ;
#153 = APPLICATION_PROTOCOL_DEFINITION ( 'international standard', 'config_control_design', 1994, #593 ) ;
#154 = PLANE ( 'NONE',  #65 ) ;
#155 = DIRECTION ( 'NONE',  ( 0.0000000000000000000, 0.0000000000000000000, 1.000000000000000000 ) ) ;
#156 = CARTESIAN_POINT ( 'NONE',  ( 4.999999999999993800, 12.50000000000000500, 0.0000000000000000000 ) ) ;
#157 = COORDINATED_UNIVERSAL_TIME_OFFSET ( 1, 0, .AHEAD. ) ;
#158 = DATE_TIME_ROLE ( 'creation_date' ) ;
#159 = LINE ( 'NONE', #91, #53 ) ;
#160 = CARTESIAN_POINT ( 'NONE',  ( -4.999999999999994700, 12.50000000000000400, 4.000000000000000000 ) ) ;
#161 = EDGE_LOOP ( 'NONE', ( #350, #718, #138, #498 ) ) ;
#162 = CC_DESIGN_PERSON_AND_ORGANIZATION_ASSIGNMENT ( #60, #430, ( #402 ) ) ;
#163 = CARTESIAN_POINT ( 'NONE',  ( -8.999999999999994700, 12.25000000000000000, 4.000000000000000000 ) ) ;
#164 = DIRECTION ( 'NONE',  ( 0.0000000000000000000, 0.0000000000000000000, 1.000000000000000000 ) ) ;
#165 = AXIS2_PLACEMENT_3D ( 'NONE', #702, #361, #22 ) ;
#166 = VECTOR ( 'NONE', #560, 1000.000000000000000 ) ;
#167 = VECTOR ( 'NONE', #427, 1000.000000000000000 ) ;
#168 = ORIENTED_EDGE ( 'NONE', *, *, #379, .T. ) ;
#169 = DIRECTION ( 'NONE',  ( -0.0000000000000000000, -0.0000000000000000000, -1.000000000000000000 ) ) ;
#170 = EDGE_CURVE ( 'NONE', #514, #256, #356, .T. ) ;
#171 = ORIENTED_EDGE ( 'NONE', *, *, #170, .F. ) ;
#172 = CC_DESIGN_DATE_AND_TIME_ASSIGNMENT ( #85, #380, ( #651 ) ) ;
#173 = CARTESIAN_POINT ( 'NONE',  ( -8.999999999999998200, 35.75000000000000000, 4.000000000000000000 ) ) ;
#174 = CARTESIAN_POINT ( 'NONE',  ( -4.999999999999999100, 53.99999999999999300, 4.000000000000000000 ) ) ;
#175 = CARTESIAN_POINT ( 'NONE',  ( 11.49999999999999800, 35.75000000000000000, 4.000000000000000000 ) ) ;
#176 = ORIENTED_EDGE ( 'NONE', *, *, #32, .T. ) ;
#177 = ORIENTED_EDGE ( 'NONE', *, *, #511, .F. ) ;
#178 = EDGE_CURVE ( 'NONE', #565, #415, #571, .T. ) ;
#179 = VERTEX_POINT ( 'NONE', #497 ) ;
#180 = VECTOR ( 'NONE', #235, 1000.000000000000000 ) ;
#181 = LINE ( 'NONE', #552, #135 ) ;
#182 = CARTESIAN_POINT ( 'NONE',  ( 11.49999999999999800, 12.25000000000000000, 4.000000000000000000 ) ) ;
#183 = ORIENTED_EDGE ( 'NONE', *, *, #132, .T. ) ;
#184 = ORIENTED_EDGE ( 'NONE', *, *, #358, .F. ) ;
#185 = CARTESIAN_POINT ( 'NONE',  ( -7.499999999999965400, 64.00000000000000000, 0.0000000000000000000 ) ) ;
#186 = EDGE_CURVE ( 'NONE', #532, #315, #278, .T. ) ;
#187 = CARTESIAN_POINT ( 'NONE',  ( -11.49999999999999800, 35.75000000000000000, 4.000000000000000000 ) ) ;
#188 = DIRECTION ( 'NONE',  ( -1.000000000000000000, -0.0000000000000000000, -0.0000000000000000000 ) ) ;
#189 = VECTOR ( 'NONE', #50, 1000.000000000000000 ) ;
#190 = ORIENTED_EDGE ( 'NONE', *, *, #459, .T. ) ;
#191 = ORIENTED_EDGE ( 'NONE', *, *, #522, .F. ) ;
#192 = ORIENTED_EDGE ( 'NONE', *, *, #303, .T. ) ;
#193 = ORIENTED_EDGE ( 'NONE', *, *, #384, .T. ) ;
#194 = PRODUCT_DEFINITION_FORMATION_WITH_SPECIFIED_SOURCE ( 'ANY', '', #579, .NOT_KNOWN. ) ;
#195 = MANIFOLD_SOLID_BREP ( 'Dodanie-wyciπgniÍcie1', #255 ) ;
#196 = PLANE ( 'NONE',  #490 ) ;
#197 = ADVANCED_FACE ( 'NONE', ( #289 ), #681, .F. ) ;
#198 = FACE_OUTER_BOUND ( 'NONE', #393, .T. ) ;
#199 = AXIS2_PLACEMENT_3D ( 'NONE', #644, #635, #416 ) ;
#200 = FACE_OUTER_BOUND ( 'NONE', #290, .T. ) ;
#201 = ORIENTED_EDGE ( 'NONE', *, *, #76, .F. ) ;
#202 = DIRECTION ( 'NONE',  ( -0.0000000000000000000, -0.0000000000000000000, -1.000000000000000000 ) ) ;
#203 = ORIENTED_EDGE ( 'NONE', *, *, #541, .F. ) ;
#204 = CARTESIAN_POINT ( 'NONE',  ( -6.350976936741761000E-015, 12.50000000000000500, 0.0000000000000000000 ) ) ;
#205 = DIRECTION ( 'NONE',  ( 1.000000000000000000, 0.0000000000000000000, 0.0000000000000000000 ) ) ;
#206 = CARTESIAN_POINT ( 'NONE',  ( -4.999999999999994700, 12.50000000000000400, 0.0000000000000000000 ) ) ;
#207 = CARTESIAN_POINT ( 'NONE',  ( -7.499999999999965400, 64.00000000000000000, 4.000000000000000000 ) ) ;
#208 = APPROVAL_DATE_TIME ( #237, #679 ) ;
#209 = APPROVAL_ROLE ( '' ) ;
#210 = VECTOR ( 'NONE', #401, 1000.000000000000000 ) ;
#211 = CARTESIAN_POINT ( 'NONE',  ( 4.999999999999999100, 53.99999999999999300, 0.0000000000000000000 ) ) ;
#212 = CYLINDRICAL_SURFACE ( 'NONE', #671, 1.250000000000001100 ) ;
#213 = DIRECTION ( 'NONE',  ( -1.000000000000000000, 0.0000000000000000000, 0.0000000000000000000 ) ) ;
#214 = APPLICATION_CONTEXT ( 'configuration controlled 3d designs of mechanical parts and assemblies' ) ;
#215 = CARTESIAN_POINT ( 'NONE',  ( -6.350976936741761000E-015, 12.50000000000000500, 4.000000000000000000 ) ) ;
#216 = ORIENTED_EDGE ( 'NONE', *, *, #337, .F. ) ;
#217 = APPROVAL_STATUS ( 'not_yet_approved' ) ;
#218 = DIRECTION ( 'NONE',  ( -0.0000000000000000000, -0.0000000000000000000, -1.000000000000000000 ) ) ;
#219 = EDGE_CURVE ( 'NONE', #315, #709, #608, .T. ) ;
#220 = DIRECTION ( 'NONE',  ( -1.000000000000000000, 0.0000000000000000000, 0.0000000000000000000 ) ) ;
#221 = CIRCLE ( 'NONE', #438, 4.999999999999988500 ) ;
#222 = LINE ( 'NONE', #145, #442 ) ;
#223 = EDGE_CURVE ( 'NONE', #508, #357, #143, .T. ) ;
#224 = EDGE_LOOP ( 'NONE', ( #621, #583, #80, #190 ) ) ;
#225 = ORIENTED_EDGE ( 'NONE', *, *, #105, .T. ) ;
#226 = EDGE_CURVE ( 'NONE', #256, #468, #159, .T. ) ;
#227 = DIRECTION ( 'NONE',  ( -0.0000000000000000000, -0.0000000000000000000, -1.000000000000000000 ) ) ;
#228 = LINE ( 'NONE', #658, #189 ) ;
#229 = CARTESIAN_POINT ( 'NONE',  ( 8.999999999999998200, 35.75000000000000000, 4.000000000000000000 ) ) ;
#230 = LINE ( 'NONE', #513, #26 ) ;
#231 = VERTEX_POINT ( 'NONE', #259 ) ;
#232 = ORIENTED_EDGE ( 'NONE', *, *, #261, .F. ) ;
#233 = DIRECTION ( 'NONE',  ( -0.0000000000000000000, -0.0000000000000000000, -1.000000000000000000 ) ) ;
#234 = VERTEX_POINT ( 'NONE', #206 ) ;
#235 = DIRECTION ( 'NONE',  ( -0.0000000000000000000, -0.0000000000000000000, -1.000000000000000000 ) ) ;
#236 = ADVANCED_FACE ( 'NONE', ( #558 ), #154, .T. ) ;
#237 = DATE_AND_TIME ( #688, #273 ) ;
#238 = FACE_BOUND ( 'NONE', #120, .T. ) ;
#239 = LINE ( 'NONE', #341, #398 ) ;
#240 = LINE ( 'NONE', #20, #364 ) ;
#241 = ADVANCED_FACE ( 'NONE', ( #717 ), #37, .F. ) ;
#242 = ORIENTED_EDGE ( 'NONE', *, *, #319, .T. ) ;
#243 = AXIS2_PLACEMENT_3D ( 'NONE', #302, #699, #21 ) ;
#244 = DIRECTION ( 'NONE',  ( -0.0000000000000000000, -0.0000000000000000000, -1.000000000000000000 ) ) ;
#245 = PLANE ( 'NONE',  #607 ) ;
#246 = LINE ( 'NONE', #557, #461 ) ;
#247 = VERTEX_POINT ( 'NONE', #432 ) ;
#248 = ORIENTED_EDGE ( 'NONE', *, *, #277, .T. ) ;
#249 = AXIS2_PLACEMENT_3D ( 'NONE', #330, #263, #213 ) ;
#250 = DIRECTION ( 'NONE',  ( 0.0000000000000000000, 0.0000000000000000000, 1.000000000000000000 ) ) ;
#251 = EDGE_CURVE ( 'NONE', #306, #468, #672, .T. ) ;
#252 = VECTOR ( 'NONE', #677, 1000.000000000000000 ) ;
#253 = CARTESIAN_POINT ( 'NONE',  ( -7.499999999999965400, 64.00000000000000000, 4.000000000000000000 ) ) ;
#254 = ORIENTED_EDGE ( 'NONE', *, *, #28, .F. ) ;
#255 = CLOSED_SHELL ( 'NONE', ( #567, #584, #657, #241, #353, #352, #121, #535, #197, #400, #587, #423, #488, #82, #539, #408, #31, #236, #295, #632 ) ) ;
#256 = VERTEX_POINT ( 'NONE', #34 ) ;
#257 = EDGE_CURVE ( 'NONE', #447, #433, #564, .T. ) ;
#258 = DIRECTION ( 'NONE',  ( 1.000000000000000000, 7.381802025433222800E-017, -0.0000000000000000000 ) ) ;
#259 = CARTESIAN_POINT ( 'NONE',  ( -11.49999999999999800, 35.75000000000000000, 0.0000000000000000000 ) ) ;
#260 = CALENDAR_DATE ( 2018, 4, 11 ) ;
#261 = EDGE_CURVE ( 'NONE', #247, #29, #262, .T. ) ;
#262 = CIRCLE ( 'NONE', #586, 4.999999999999988500 ) ;
#263 = DIRECTION ( 'NONE',  ( -0.0000000000000000000, 0.0000000000000000000, -1.000000000000000000 ) ) ;
#264 = PERSON_AND_ORGANIZATION_ROLE ( 'design_supplier' ) ;
#265 = VERTEX_POINT ( 'NONE', #156 ) ;
#266 = CARTESIAN_POINT ( 'NONE',  ( 10.24999999999999600, 12.25000000000000000, 0.0000000000000000000 ) ) ;
#267 = ORIENTED_EDGE ( 'NONE', *, *, #546, .T. ) ;
#268 = DIRECTION ( 'NONE',  ( -1.000000000000000000, 7.381802025433222800E-017, 0.0000000000000000000 ) ) ;
#269 = DIRECTION ( 'NONE',  ( 0.0000000000000000000, 0.0000000000000000000, 1.000000000000000000 ) ) ;
#270 = EDGE_CURVE ( 'NONE', #487, #73, #544, .T. ) ;
#271 = DIRECTION ( 'NONE',  ( -0.0000000000000000000, -0.0000000000000000000, -1.000000000000000000 ) ) ;
#272 = DIRECTION ( 'NONE',  ( -1.000000000000000000, -0.0000000000000000000, -0.0000000000000000000 ) ) ;
#273 = LOCAL_TIME ( 15, 57, 50.00000000000000000, #157 ) ;
#274 = APPROVAL_ROLE ( '' ) ;
#275 = FACE_BOUND ( 'NONE', #682, .T. ) ;
#276 = DIRECTION ( 'NONE',  ( -1.000000000000000000, 0.0000000000000000000, 0.0000000000000000000 ) ) ;
#277 = EDGE_CURVE ( 'NONE', #489, #613, #617, .T. ) ;
#278 = CIRCLE ( 'NONE', #368, 1.250000000000001100 ) ;
#279 = CARTESIAN_POINT ( 'NONE',  ( -4.999999999999999100, 53.99999999999999300, 4.000000000000000000 ) ) ;
#280 = DESIGN_CONTEXT ( 'detailed design', #593, 'design' ) ;
#281 = VECTOR ( 'NONE', #595, 1000.000000000000000 ) ;
#282 = DIRECTION ( 'NONE',  ( -0.0000000000000000000, -1.000000000000000000, -0.0000000000000000000 ) ) ;
#283 = EDGE_CURVE ( 'NONE', #431, #101, #313, .T. ) ;
#284 = ORIENTED_EDGE ( 'NONE', *, *, #344, .T. ) ;
#285 = ORIENTED_EDGE ( 'NONE', *, *, #678, .F. ) ;
#286 = ORIENTED_EDGE ( 'NONE', *, *, #614, .F. ) ;
#287 = CARTESIAN_POINT ( 'NONE',  ( -12.50000000000000000, 0.0000000000000000000, 4.000000000000000000 ) ) ;
#288 = CIRCLE ( 'NONE', #243, 4.999999999999999100 ) ;
#289 = FACE_OUTER_BOUND ( 'NONE', #597, .T. ) ;
#290 = EDGE_LOOP ( 'NONE', ( #267, #516, #201, #192 ) ) ;
#291 = DIRECTION ( 'NONE',  ( 0.0000000000000000000, 0.0000000000000000000, 1.000000000000000000 ) ) ;
#292 = EDGE_CURVE ( 'NONE', #265, #306, #590, .T. ) ;
#293 = VERTEX_POINT ( 'NONE', #653 ) ;
#294 = ORIENTED_EDGE ( 'NONE', *, *, #534, .T. ) ;
#295 = ADVANCED_FACE ( 'NONE', ( #725 ), #690, .F. ) ;
#296 = EDGE_CURVE ( 'NONE', #39, #231, #708, .T. ) ;
#297 = CARTESIAN_POINT ( 'NONE',  ( -7.500000000000000900, 59.00000000000000700, 4.000000000000000000 ) ) ;
#298 = COORDINATED_UNIVERSAL_TIME_OFFSET ( 1, 0, .AHEAD. ) ;
#299 = ORIENTED_EDGE ( 'NONE', *, *, #466, .F. ) ;
#300 = ORIENTED_EDGE ( 'NONE', *, *, #541, .T. ) ;
#301 = DIRECTION ( 'NONE',  ( -0.0000000000000000000, -0.0000000000000000000, -1.000000000000000000 ) ) ;
#302 = CARTESIAN_POINT ( 'NONE',  ( 7.500000000000000900, 59.00000000000000700, 0.0000000000000000000 ) ) ;
#303 = EDGE_CURVE ( 'NONE', #415, #613, #239, .T. ) ;
#304 = UNCERTAINTY_MEASURE_WITH_UNIT (LENGTH_MEASURE( 1.000000000000000100E-005 ), #334, 'distance_accuracy_value', 'NONE');
#305 = CIRCLE ( 'NONE', #199, 1.250000000000001100 ) ;
#306 = VERTEX_POINT ( 'NONE', #615 ) ;
#307 = EDGE_CURVE ( 'NONE', #293, #477, #246, .T. ) ;
#308 = DIRECTION ( 'NONE',  ( -0.0000000000000000000, -0.0000000000000000000, -1.000000000000000000 ) ) ;
#309 = CARTESIAN_POINT ( 'NONE',  ( -11.49999999999999800, 35.75000000000000000, 4.000000000000000000 ) ) ;
#310 = DIRECTION ( 'NONE',  ( 3.762050911756932500E-016, -1.000000000000000000, 0.0000000000000000000 ) ) ;
#311 = AXIS2_PLACEMENT_3D ( 'NONE', #81, #250, #77 ) ;
#312 = FACE_OUTER_BOUND ( 'NONE', #663, .T. ) ;
#313 = CIRCLE ( 'NONE', #482, 5.000000000000000000 ) ;
#314 = CARTESIAN_POINT ( 'NONE',  ( 12.50000000000000000, 0.0000000000000000000, 0.0000000000000000000 ) ) ;
#315 = VERTEX_POINT ( 'NONE', #336 ) ;
#316 = EDGE_LOOP ( 'NONE', ( #382, #342, #318, #392 ) ) ;
#317 = CARTESIAN_POINT ( 'NONE',  ( -7.499999999999965400, 64.00000000000000000, 0.0000000000000000000 ) ) ;
#318 = ORIENTED_EDGE ( 'NONE', *, *, #283, .F. ) ;
#319 = EDGE_CURVE ( 'NONE', #247, #234, #536, .T. ) ;
#320 = DIRECTION ( 'NONE',  ( 7.381802025433222800E-017, -1.000000000000000000, 0.0000000000000000000 ) ) ;
#321 = DIRECTION ( 'NONE',  ( -0.0000000000000000000, -0.0000000000000000000, -1.000000000000000000 ) ) ;
#322 = DIRECTION ( 'NONE',  ( 0.0000000000000000000, 0.0000000000000000000, -1.000000000000000000 ) ) ;
#323 = DIRECTION ( 'NONE',  ( 0.0000000000000000000, 0.0000000000000000000, 1.000000000000000000 ) ) ;
#324 = VECTOR ( 'NONE', #457, 1000.000000000000000 ) ;
#325 = PERSON_AND_ORGANIZATION_ROLE ( 'creator' ) ;
#326 = ORIENTED_EDGE ( 'NONE', *, *, #522, .T. ) ;
#327 = DIRECTION ( 'NONE',  ( 0.0000000000000000000, 0.0000000000000000000, 1.000000000000000000 ) ) ;
#328 = DATE_AND_TIME ( #107, #700 ) ;
#329 = ORIENTED_EDGE ( 'NONE', *, *, #713, .T. ) ;
#330 = CARTESIAN_POINT ( 'NONE',  ( -7.500000000000000900, 59.00000000000000700, 0.0000000000000000000 ) ) ;
#331 = EDGE_LOOP ( 'NONE', ( #203, #445, #629, #676 ) ) ;
#332 = CARTESIAN_POINT ( 'NONE',  ( -12.50000000000000000, 0.0000000000000000000, 4.000000000000000000 ) ) ;
#333 = AXIS2_PLACEMENT_3D ( 'NONE', #642, #75, #476 ) ;
#334 =( LENGTH_UNIT ( ) NAMED_UNIT ( * ) SI_UNIT ( .MILLI., .METRE. ) );
#335 = CIRCLE ( 'NONE', #687, 1.250000000000001100 ) ;
#336 = CARTESIAN_POINT ( 'NONE',  ( -8.999999999999994700, 12.25000000000000400, 4.000000000000000000 ) ) ;
#337 = EDGE_CURVE ( 'NONE', #179, #565, #467, .T. ) ;
#338 = VECTOR ( 'NONE', #373, 1000.000000000000000 ) ;
#339 = ORIENTED_EDGE ( 'NONE', *, *, #226, .T. ) ;
#340 = ORIENTED_EDGE ( 'NONE', *, *, #76, .T. ) ;
#341 = CARTESIAN_POINT ( 'NONE',  ( 12.50000000000000000, 58.99999999999997200, 4.000000000000000000 ) ) ;
#342 = ORIENTED_EDGE ( 'NONE', *, *, #105, .F. ) ;
#343 = CARTESIAN_POINT ( 'NONE',  ( 12.50000000000000000, 58.99999999999997200, 4.000000000000000000 ) ) ;
#344 = EDGE_CURVE ( 'NONE', #315, #114, #505, .T. ) ;
#345 = DIRECTION ( 'NONE',  ( -0.0000000000000000000, -0.0000000000000000000, -1.000000000000000000 ) ) ;
#346 = DIRECTION ( 'NONE',  ( -1.000000000000000000, 0.0000000000000000000, 0.0000000000000000000 ) ) ;
#347 = FACE_OUTER_BOUND ( 'NONE', #366, .T. ) ;
#348 = VECTOR ( 'NONE', #9, 1000.000000000000000 ) ;
#349 = DIRECTION ( 'NONE',  ( 3.762050911756932500E-016, -1.000000000000000000, 0.0000000000000000000 ) ) ;
#350 = ORIENTED_EDGE ( 'NONE', *, *, #270, .F. ) ;
#351 = CARTESIAN_POINT ( 'NONE',  ( -12.50000000000000000, 0.0000000000000000000, 0.0000000000000000000 ) ) ;
#352 = ADVANCED_FACE ( 'NONE', ( #200 ), #581, .T. ) ;
#353 = ADVANCED_FACE ( 'NONE', ( #84 ), #394, .F. ) ;
#354 =( NAMED_UNIT ( * ) PLANE_ANGLE_UNIT ( ) SI_UNIT ( $, .RADIAN. ) );
#355 = VECTOR ( 'NONE', #188, 1000.000000000000000 ) ;
#356 = CIRCLE ( 'NONE', #425, 4.999999999999999100 ) ;
#357 = VERTEX_POINT ( 'NONE', #108 ) ;
#358 = EDGE_CURVE ( 'NONE', #524, #532, #181, .T. ) ;
#359 = ORIENTED_EDGE ( 'NONE', *, *, #178, .T. ) ;
#360 = CARTESIAN_POINT ( 'NONE',  ( 11.49999999999999800, 35.75000000000000000, 4.000000000000000000 ) ) ;
#361 = DIRECTION ( 'NONE',  ( 0.0000000000000000000, 0.0000000000000000000, 1.000000000000000000 ) ) ;
#362 = VECTOR ( 'NONE', #227, 1000.000000000000000 ) ;
#363 = LINE ( 'NONE', #287, #16 ) ;
#364 = VECTOR ( 'NONE', #472, 1000.000000000000000 ) ;
#365 = AXIS2_PLACEMENT_3D ( 'NONE', #599, #385, #104 ) ;
#366 = EDGE_LOOP ( 'NONE', ( #63, #399, #547, #111 ) ) ;
#367 = CARTESIAN_POINT ( 'NONE',  ( -8.999999999999994700, 12.25000000000000000, 0.0000000000000000000 ) ) ;
#368 = AXIS2_PLACEMENT_3D ( 'NONE', #719, #43, #205 ) ;
#369 = LINE ( 'NONE', #229, #348 ) ;
#370 = CIRCLE ( 'NONE', #311, 5.000000000000000000 ) ;
#371 = VERTEX_POINT ( 'NONE', #449 ) ;
#372 = CARTESIAN_POINT ( 'NONE',  ( 8.999999999999998200, 35.75000000000000000, 4.000000000000000000 ) ) ;
#373 = DIRECTION ( 'NONE',  ( -0.0000000000000000000, -0.0000000000000000000, -1.000000000000000000 ) ) ;
#374 =( GEOMETRIC_REPRESENTATION_CONTEXT ( 3 ) GLOBAL_UNCERTAINTY_ASSIGNED_CONTEXT ( ( #304 ) ) GLOBAL_UNIT_ASSIGNED_CONTEXT ( ( #334, #354, #578 ) ) REPRESENTATION_CONTEXT ( 'NONE', 'WORKASPACE' ) );
#375 = CARTESIAN_POINT ( 'NONE',  ( 10.24999999999999600, 12.25000000000000000, 4.000000000000000000 ) ) ;
#376 = DIRECTION ( 'NONE',  ( -7.381802025433222800E-017, 1.000000000000000000, 0.0000000000000000000 ) ) ;
#377 = CARTESIAN_POINT ( 'NONE',  ( 8.999999999999998200, 35.75000000000000000, 4.000000000000000000 ) ) ;
#378 = DIRECTION ( 'NONE',  ( 0.0000000000000000000, 1.000000000000000000, 0.0000000000000000000 ) ) ;
#379 = EDGE_CURVE ( 'NONE', #565, #489, #475, .T. ) ;
#380 = DATE_TIME_ROLE ( 'classification_date' ) ;
#381 = LINE ( 'NONE', #7, #210 ) ;
#382 = ORIENTED_EDGE ( 'NONE', *, *, #69, .T. ) ;
#383 = EDGE_LOOP ( 'NONE', ( #455, #89, #176, #110 ) ) ;
#384 = EDGE_CURVE ( 'NONE', #179, #611, #707, .T. ) ;
#385 = DIRECTION ( 'NONE',  ( 0.0000000000000000000, 0.0000000000000000000, 1.000000000000000000 ) ) ;
#386 = CARTESIAN_POINT ( 'NONE',  ( 12.50000000000000000, 0.0000000000000000000, 4.000000000000000000 ) ) ;
#387 = APPROVAL_PERSON_ORGANIZATION ( #645, #555, #209 ) ;
#388 = AXIS2_PLACEMENT_3D ( 'NONE', #662, #155, #604 ) ;
#389 = FACE_BOUND ( 'NONE', #15, .T. ) ;
#390 = VECTOR ( 'NONE', #218, 1000.000000000000000 ) ;
#391 = ORIENTED_EDGE ( 'NONE', *, *, #456, .F. ) ;
#392 = ORIENTED_EDGE ( 'NONE', *, *, #142, .T. ) ;
#393 = EDGE_LOOP ( 'NONE', ( #97, #5, #479, #585, #453, #177 ) ) ;
#394 = PLANE ( 'NONE',  #40 ) ;
#395 = AXIS2_PLACEMENT_3D ( 'NONE', #187, #258, #376 ) ;
#396 = PERSON_AND_ORGANIZATION ( #99, #25 ) ;
#397 = CARTESIAN_POINT ( 'NONE',  ( -10.24999999999999800, 35.75000000000000000, 4.000000000000000000 ) ) ;
#398 = VECTOR ( 'NONE', #1, 1000.000000000000000 ) ;
#399 = ORIENTED_EDGE ( 'NONE', *, *, #113, .F. ) ;
#400 = ADVANCED_FACE ( 'NONE', ( #44 ), #115, .T. ) ;
#401 = DIRECTION ( 'NONE',  ( -0.0000000000000000000, -0.0000000000000000000, -1.000000000000000000 ) ) ;
#402 = PRODUCT_DEFINITION ( 'UNKNOWN', '', #194, #280 ) ;
#403 = PLANE ( 'NONE',  #52 ) ;
#404 = FACE_BOUND ( 'NONE', #151, .T. ) ;
#405 = DIRECTION ( 'NONE',  ( 1.000000000000000000, 3.762050911756932500E-016, -0.0000000000000000000 ) ) ;
#406 = CIRCLE ( 'NONE', #165, 4.999999999999999100 ) ;
#407 = ORIENTED_EDGE ( 'NONE', *, *, #292, .T. ) ;
#408 = ADVANCED_FACE ( 'NONE', ( #616 ), #627, .T. ) ;
#409 = PLANE ( 'NONE',  #249 ) ;
#410 = COORDINATED_UNIVERSAL_TIME_OFFSET ( 1, 0, .AHEAD. ) ;
#411 = VECTOR ( 'NONE', #308, 1000.000000000000000 ) ;
#412 = ORIENTED_EDGE ( 'NONE', *, *, #32, .F. ) ;
#413 = DIRECTION ( 'NONE',  ( -1.000000000000000000, 0.0000000000000000000, 0.0000000000000000000 ) ) ;
#414 = EDGE_CURVE ( 'NONE', #73, #508, #68, .T. ) ;
#415 = VERTEX_POINT ( 'NONE', #343 ) ;
#416 = DIRECTION ( 'NONE',  ( -1.000000000000000000, 0.0000000000000000000, 0.0000000000000000000 ) ) ;
#417 = DATE_AND_TIME ( #562, #698 ) ;
#418 = FACE_BOUND ( 'NONE', #538, .T. ) ;
#419 = VECTOR ( 'NONE', #378, 1000.000000000000000 ) ;
#420 = ORIENTED_EDGE ( 'NONE', *, *, #296, .T. ) ;
#421 = ORIENTED_EDGE ( 'NONE', *, *, #283, .T. ) ;
#422 = CARTESIAN_POINT ( 'NONE',  ( -4.999999999999999100, 53.99999999999999300, 0.0000000000000000000 ) ) ;
#423 = ADVANCED_FACE ( 'NONE', ( #483 ), #403, .T. ) ;
#424 = DIRECTION ( 'NONE',  ( 1.000000000000000000, 0.0000000000000000000, 0.0000000000000000000 ) ) ;
#425 = AXIS2_PLACEMENT_3D ( 'NONE', #501, #46, #103 ) ;
#426 = VECTOR ( 'NONE', #152, 1000.000000000000000 ) ;
#427 = DIRECTION ( 'NONE',  ( 0.0000000000000000000, 1.000000000000000000, 0.0000000000000000000 ) ) ;
#428 = LINE ( 'NONE', #655, #109 ) ;
#429 = CARTESIAN_POINT ( 'NONE',  ( -8.999999999999998200, 35.75000000000000000, 4.000000000000000000 ) ) ;
#430 = PERSON_AND_ORGANIZATION_ROLE ( 'creator' ) ;
#431 = VERTEX_POINT ( 'NONE', #680 ) ;
#432 = CARTESIAN_POINT ( 'NONE',  ( -4.999999999999994700, 12.50000000000000400, 4.000000000000000000 ) ) ;
#433 = VERTEX_POINT ( 'NONE', #521 ) ;
#434 = EDGE_CURVE ( 'NONE', #12, #293, #335, .T. ) ;
#435 = CARTESIAN_POINT ( 'NONE',  ( 11.49999999999999800, 35.75000000000000000, 4.000000000000000000 ) ) ;
#436 = CARTESIAN_POINT ( 'NONE',  ( 1.102479254703360300E-015, 53.99999999999999300, 4.000000000000000000 ) ) ;
#437 = DIRECTION ( 'NONE',  ( -7.381802025433222800E-017, -1.000000000000000000, 0.0000000000000000000 ) ) ;
#438 = AXIS2_PLACEMENT_3D ( 'NONE', #204, #41, #665 ) ;
#439 = PERSON_AND_ORGANIZATION_ROLE ( 'design_owner' ) ;
#440 = FACE_BOUND ( 'NONE', #630, .T. ) ;
#441 = DIRECTION ( 'NONE',  ( 0.0000000000000000000, 0.0000000000000000000, 1.000000000000000000 ) ) ;
#442 = VECTOR ( 'NONE', #86, 1000.000000000000000 ) ;
#443 = ORIENTED_EDGE ( 'NONE', *, *, #178, .F. ) ;
#444 = ORIENTED_EDGE ( 'NONE', *, *, #509, .T. ) ;
#445 = ORIENTED_EDGE ( 'NONE', *, *, #344, .F. ) ;
#446 = AXIS2_PLACEMENT_3D ( 'NONE', #266, #323, #588 ) ;
#447 = VERTEX_POINT ( 'NONE', #59 ) ;
#448 = DIRECTION ( 'NONE',  ( 7.381802025433222800E-017, -1.000000000000000000, 0.0000000000000000000 ) ) ;
#449 = CARTESIAN_POINT ( 'NONE',  ( -12.50000000000000000, 58.99999999999997200, 0.0000000000000000000 ) ) ;
#450 = COORDINATED_UNIVERSAL_TIME_OFFSET ( 1, 0, .AHEAD. ) ;
#451 = VECTOR ( 'NONE', #722, 1000.000000000000000 ) ;
#452 = CARTESIAN_POINT ( 'NONE',  ( -10.24999999999999800, 35.75000000000000000, 0.0000000000000000000 ) ) ;
#453 = ORIENTED_EDGE ( 'NONE', *, *, #277, .F. ) ;
#454 = ORIENTED_EDGE ( 'NONE', *, *, #703, .F. ) ;
#455 = ORIENTED_EDGE ( 'NONE', *, *, #292, .F. ) ;
#456 = EDGE_CURVE ( 'NONE', #101, #179, #363, .T. ) ;
#457 = DIRECTION ( 'NONE',  ( -0.0000000000000000000, -0.0000000000000000000, -1.000000000000000000 ) ) ;
#458 = CARTESIAN_POINT ( 'NONE',  ( 4.999999999999999100, 53.99999999999999300, 4.000000000000000000 ) ) ;
#459 = EDGE_CURVE ( 'NONE', #29, #265, #494, .T. ) ;
#460 = VECTOR ( 'NONE', #282, 1000.000000000000000 ) ;
#461 = VECTOR ( 'NONE', #618, 1000.000000000000000 ) ;
#462 = DIRECTION ( 'NONE',  ( -1.000000000000000000, 1.254016970585644000E-016, 0.0000000000000000000 ) ) ;
#463 = ORIENTED_EDGE ( 'NONE', *, *, #649, .F. ) ;
#464 = CARTESIAN_POINT ( 'NONE',  ( -7.500000000000000900, 59.00000000000000700, 4.000000000000000000 ) ) ;
#465 = LINE ( 'NONE', #185, #355 ) ;
#466 = EDGE_CURVE ( 'NONE', #575, #357, #369, .T. ) ;
#467 = LINE ( 'NONE', #332, #451 ) ;
#468 = VERTEX_POINT ( 'NONE', #623 ) ;
#469 = ORIENTED_EDGE ( 'NONE', *, *, #503, .T. ) ;
#470 = CARTESIAN_POINT ( 'NONE',  ( 10.24999999999999800, 35.75000000000000000, 4.000000000000000000 ) ) ;
#471 = ORIENTED_EDGE ( 'NONE', *, *, #486, .T. ) ;
#472 = DIRECTION ( 'NONE',  ( 1.254016970585644000E-016, 1.000000000000000000, -0.0000000000000000000 ) ) ;
#473 = EDGE_CURVE ( 'NONE', #709, #39, #381, .T. ) ;
#474 = CARTESIAN_POINT ( 'NONE',  ( 12.50000000000000000, 0.0000000000000000000, 4.000000000000000000 ) ) ;
#475 = LINE ( 'NONE', #112, #646 ) ;
#476 = DIRECTION ( 'NONE',  ( 1.000000000000000000, 0.0000000000000000000, 0.0000000000000000000 ) ) ;
#477 = VERTEX_POINT ( 'NONE', #175 ) ;
#478 = CC_DESIGN_DATE_AND_TIME_ASSIGNMENT ( #417, #158, ( #402 ) ) ;
#479 = ORIENTED_EDGE ( 'NONE', *, *, #534, .F. ) ;
#480 = ORIENTED_EDGE ( 'NONE', *, *, #186, .T. ) ;
#481 = ORIENTED_EDGE ( 'NONE', *, *, #92, .F. ) ;
#482 = AXIS2_PLACEMENT_3D ( 'NONE', #507, #327, #56 ) ;
#483 = FACE_OUTER_BOUND ( 'NONE', #383, .T. ) ;
#484 = APPROVAL_PERSON_ORGANIZATION ( #119, #72, #661 ) ;
#485 = CARTESIAN_POINT ( 'NONE',  ( 1.102479254703360300E-015, 53.99999999999999300, 0.0000000000000000000 ) ) ;
#486 = EDGE_CURVE ( 'NONE', #371, #611, #652, .T. ) ;
#487 = VERTEX_POINT ( 'NONE', #61 ) ;
#488 = ADVANCED_FACE ( 'NONE', ( #504 ), #523, .F. ) ;
#489 = VERTEX_POINT ( 'NONE', #14 ) ;
#490 = AXIS2_PLACEMENT_3D ( 'NONE', #253, #650, #660 ) ;
#491 = DIRECTION ( 'NONE',  ( -1.000000000000000000, 0.0000000000000000000, 0.0000000000000000000 ) ) ;
#492 = DIRECTION ( 'NONE',  ( -1.000000000000000000, 0.0000000000000000000, 0.0000000000000000000 ) ) ;
#493 = PERSON_AND_ORGANIZATION ( #99, #25 ) ;
#494 = LINE ( 'NONE', #622, #324 ) ;
#495 = FACE_OUTER_BOUND ( 'NONE', #626, .T. ) ;
#496 = CARTESIAN_POINT ( 'NONE',  ( 7.499999999999965400, 64.00000000000000000, 4.000000000000000000 ) ) ;
#497 = CARTESIAN_POINT ( 'NONE',  ( -12.50000000000000000, 0.0000000000000000000, 4.000000000000000000 ) ) ;
#498 = ORIENTED_EDGE ( 'NONE', *, *, #113, .T. ) ;
#499 = ORIENTED_EDGE ( 'NONE', *, *, #466, .T. ) ;
#500 = APPROVAL_STATUS ( 'not_yet_approved' ) ;
#501 = CARTESIAN_POINT ( 'NONE',  ( 1.102479254703360300E-015, 53.99999999999999300, 4.000000000000000000 ) ) ;
#502 = DIRECTION ( 'NONE',  ( -0.0000000000000000000, -0.0000000000000000000, -1.000000000000000000 ) ) ;
#503 = EDGE_CURVE ( 'NONE', #12, #487, #230, .T. ) ;
#504 = FACE_OUTER_BOUND ( 'NONE', #45, .T. ) ;
#505 = LINE ( 'NONE', #163, #636 ) ;
#506 = ORIENTED_EDGE ( 'NONE', *, *, #358, .T. ) ;
#507 = CARTESIAN_POINT ( 'NONE',  ( -7.500000000000000900, 59.00000000000000700, 4.000000000000000000 ) ) ;
#508 = VERTEX_POINT ( 'NONE', #685 ) ;
#509 = EDGE_CURVE ( 'NONE', #256, #247, #8, .T. ) ;
#510 = CARTESIAN_POINT ( 'NONE',  ( -12.50000000000000000, 0.0000000000000000000, 0.0000000000000000000 ) ) ;
#511 = EDGE_CURVE ( 'NONE', #611, #489, #35, .T. ) ;
#512 = PERSON_AND_ORGANIZATION ( #99, #25 ) ;
#513 = CARTESIAN_POINT ( 'NONE',  ( 8.999999999999994700, 12.25000000000000000, 4.000000000000000000 ) ) ;
#514 = VERTEX_POINT ( 'NONE', #458 ) ;
#515 = ORIENTED_EDGE ( 'NONE', *, *, #307, .F. ) ;
#516 = ORIENTED_EDGE ( 'NONE', *, *, #257, .F. ) ;
#517 = DIRECTION ( 'NONE',  ( -3.762050911756932500E-016, 1.000000000000000000, 0.0000000000000000000 ) ) ;
#518 = CC_DESIGN_PERSON_AND_ORGANIZATION_ASSIGNMENT ( #512, #439, ( #579 ) ) ;
#519 = ADVANCED_BREP_SHAPE_REPRESENTATION ( 'camera_mount_2_Domyùlna_sldprt', ( #195, #365 ), #374 ) ;
#520 = APPROVAL_DATE_TIME ( #117, #555 ) ;
#521 = CARTESIAN_POINT ( 'NONE',  ( 7.499999999999965400, 64.00000000000000000, 0.0000000000000000000 ) ) ;
#522 = EDGE_CURVE ( 'NONE', #477, #575, #305, .T. ) ;
#523 = CYLINDRICAL_SURFACE ( 'NONE', #87, 1.250000000000001100 ) ;
#524 = VERTEX_POINT ( 'NONE', #70 ) ;
#525 = DIRECTION ( 'NONE',  ( -0.0000000000000000000, -0.0000000000000000000, -1.000000000000000000 ) ) ;
#526 = CARTESIAN_POINT ( 'NONE',  ( 11.49999999999999800, 12.25000000000000000, 0.0000000000000000000 ) ) ;
#527 = LINE ( 'NONE', #720, #362 ) ;
#528 = DIRECTION ( 'NONE',  ( -1.000000000000000000, 0.0000000000000000000, 0.0000000000000000000 ) ) ;
#529 = AXIS2_PLACEMENT_3D ( 'NONE', #148, #548, #600 ) ;
#530 = VECTOR ( 'NONE', #349, 1000.000000000000000 ) ;
#531 = LINE ( 'NONE', #360, #648 ) ;
#532 = VERTEX_POINT ( 'NONE', #79 ) ;
#533 = FACE_OUTER_BOUND ( 'NONE', #88, .T. ) ;
#534 = EDGE_CURVE ( 'NONE', #433, #619, #465, .T. ) ;
#535 = ADVANCED_FACE ( 'NONE', ( #62 ), #83, .T. ) ;
#536 = LINE ( 'NONE', #160, #390 ) ;
#537 = CIRCLE ( 'NONE', #333, 1.250000000000001100 ) ;
#538 = EDGE_LOOP ( 'NONE', ( #171, #412, #232, #36 ) ) ;
#539 = ADVANCED_FACE ( 'NONE', ( #533 ), #580, .F. ) ;
#540 = CARTESIAN_POINT ( 'NONE',  ( 12.50000000000000000, 0.0000000000000000000, 4.000000000000000000 ) ) ;
#541 = EDGE_CURVE ( 'NONE', #114, #39, #141, .T. ) ;
#542 = DIRECTION ( 'NONE',  ( 1.476360405086644600E-016, 1.000000000000000000, 0.0000000000000000000 ) ) ;
#543 = CYLINDRICAL_SURFACE ( 'NONE', #126, 4.999999999999988500 ) ;
#544 = CIRCLE ( 'NONE', #446, 1.250000000000001100 ) ;
#545 = DIRECTION ( 'NONE',  ( 0.0000000000000000000, 0.0000000000000000000, 1.000000000000000000 ) ) ;
#546 = EDGE_CURVE ( 'NONE', #613, #433, #288, .T. ) ;
#547 = ORIENTED_EDGE ( 'NONE', *, *, #307, .T. ) ;
#548 = DIRECTION ( 'NONE',  ( 0.0000000000000000000, 1.000000000000000000, 0.0000000000000000000 ) ) ;
#549 = PLANE ( 'NONE',  #136 ) ;
#550 = CARTESIAN_POINT ( 'NONE',  ( -6.350976936741761000E-015, 12.50000000000000500, 4.000000000000000000 ) ) ;
#551 = APPLICATION_PROTOCOL_DEFINITION ( 'international standard', 'config_control_design', 1994, #214 ) ;
#552 = CARTESIAN_POINT ( 'NONE',  ( -11.49999999999999800, 35.75000000000000000, 4.000000000000000000 ) ) ;
#553 = LINE ( 'NONE', #422, #118 ) ;
#554 = ORIENTED_EDGE ( 'NONE', *, *, #223, .T. ) ;
#555 = APPROVAL ( #217, 'UNSPECIFIED' ) ;
#556 = COORDINATED_UNIVERSAL_TIME_OFFSET ( 1, 0, .AHEAD. ) ;
#557 = CARTESIAN_POINT ( 'NONE',  ( 11.49999999999999800, 35.75000000000000000, 4.000000000000000000 ) ) ;
#558 = FACE_OUTER_BOUND ( 'NONE', #625, .T. ) ;
#559 = ORIENTED_EDGE ( 'NONE', *, *, #379, .F. ) ;
#560 = DIRECTION ( 'NONE',  ( 7.381802025433222800E-017, 1.000000000000000000, -0.0000000000000000000 ) ) ;
#561 = AXIS2_PLACEMENT_3D ( 'NONE', #485, #269, #102 ) ;
#562 = CALENDAR_DATE ( 2018, 4, 11 ) ;
#563 = CARTESIAN_POINT ( 'NONE',  ( -12.50000000000000000, 0.0000000000000000000, 4.000000000000000000 ) ) ;
#564 = LINE ( 'NONE', #496, #128 ) ;
#565 = VERTEX_POINT ( 'NONE', #474 ) ;
#566 = DIRECTION ( 'NONE',  ( -0.0000000000000000000, -1.000000000000000000, -0.0000000000000000000 ) ) ;
#567 = ADVANCED_FACE ( 'NONE', ( #404, #312, #418, #389 ), #245, .F. ) ;
#568 = ORIENTED_EDGE ( 'NONE', *, *, #303, .F. ) ;
#569 = CC_DESIGN_PERSON_AND_ORGANIZATION_ASSIGNMENT ( #396, #325, ( #194 ) ) ;
#570 = AXIS2_PLACEMENT_3D ( 'NONE', #436, #603, #90 ) ;
#571 = LINE ( 'NONE', #540, #167 ) ;
#572 = CARTESIAN_POINT ( 'NONE',  ( -8.999999999999998200, 35.75000000000000000, 0.0000000000000000000 ) ) ;
#573 = ORIENTED_EDGE ( 'NONE', *, *, #186, .F. ) ;
#574 = CARTESIAN_POINT ( 'NONE',  ( -10.24999999999999600, 12.25000000000000000, 4.000000000000000000 ) ) ;
#575 = VERTEX_POINT ( 'NONE', #598 ) ;
#576 = ORIENTED_EDGE ( 'NONE', *, *, #703, .T. ) ;
#577 = CARTESIAN_POINT ( 'NONE',  ( -11.49999999999999800, 12.25000000000000000, 0.0000000000000000000 ) ) ;
#578 =( NAMED_UNIT ( * ) SI_UNIT ( $, .STERADIAN. ) SOLID_ANGLE_UNIT ( ) );
#579 = PRODUCT ( 'camera_mount_2_Domyúlna_sldprt', 'camera_mount_2_Domyúlna_sldprt', '', ( #721 ) ) ;
#580 = CYLINDRICAL_SURFACE ( 'NONE', #116, 1.250000000000001100 ) ;
#581 = CYLINDRICAL_SURFACE ( 'NONE', #2, 4.999999999999999100 ) ;
#582 = ORIENTED_EDGE ( 'NONE', *, *, #337, .T. ) ;
#583 = ORIENTED_EDGE ( 'NONE', *, *, #319, .F. ) ;
#584 = ADVANCED_FACE ( 'NONE', ( #198, #238, #440, #275 ), #409, .T. ) ;
#585 = ORIENTED_EDGE ( 'NONE', *, *, #546, .F. ) ;
#586 = AXIS2_PLACEMENT_3D ( 'NONE', #215, #606, #424 ) ;
#587 = ADVANCED_FACE ( 'NONE', ( #670 ), #543, .F. ) ;
#588 = DIRECTION ( 'NONE',  ( -1.000000000000000000, 0.0000000000000000000, 0.0000000000000000000 ) ) ;
#589 = CARTESIAN_POINT ( 'NONE',  ( -12.50000000000000000, 58.99999999999997200, 4.000000000000000000 ) ) ;
#590 = LINE ( 'NONE', #211, #252 ) ;
#591 = DIRECTION ( 'NONE',  ( 1.000000000000000000, 0.0000000000000000000, 0.0000000000000000000 ) ) ;
#592 = CC_DESIGN_PERSON_AND_ORGANIZATION_ASSIGNMENT ( #493, #609, ( #651 ) ) ;
#593 = APPLICATION_CONTEXT ( 'configuration controlled 3d designs of mechanical parts and assemblies' ) ;
#594 = ORIENTED_EDGE ( 'NONE', *, *, #92, .T. ) ;
#595 = DIRECTION ( 'NONE',  ( -1.476360405086644600E-016, 1.000000000000000000, -0.0000000000000000000 ) ) ;
#596 = ORIENTED_EDGE ( 'NONE', *, *, #727, .F. ) ;
#597 = EDGE_LOOP ( 'NONE', ( #637, #596, #130, #339 ) ) ;
#598 = CARTESIAN_POINT ( 'NONE',  ( 8.999999999999998200, 35.75000000000000000, 4.000000000000000000 ) ) ;
#599 = CARTESIAN_POINT ( 'NONE',  ( 0.0000000000000000000, 0.0000000000000000000, 0.0000000000000000000 ) ) ;
#600 = DIRECTION ( 'NONE',  ( 0.0000000000000000000, -0.0000000000000000000, 1.000000000000000000 ) ) ;
#601 = AXIS2_PLACEMENT_3D ( 'NONE', #452, #164, #49 ) ;
#602 = CARTESIAN_POINT ( 'NONE',  ( -12.50000000000000000, 0.0000000000000000000, 0.0000000000000000000 ) ) ;
#603 = DIRECTION ( 'NONE',  ( -0.0000000000000000000, -0.0000000000000000000, -1.000000000000000000 ) ) ;
#604 = DIRECTION ( 'NONE',  ( 1.000000000000000000, 0.0000000000000000000, 0.0000000000000000000 ) ) ;
#605 = APPROVAL_PERSON_ORGANIZATION ( #140, #679, #274 ) ;
#606 = DIRECTION ( 'NONE',  ( 0.0000000000000000000, 0.0000000000000000000, 1.000000000000000000 ) ) ;
#607 = AXIS2_PLACEMENT_3D ( 'NONE', #464, #643, #413 ) ;
#608 = LINE ( 'NONE', #659, #281 ) ;
#609 = PERSON_AND_ORGANIZATION_ROLE ( 'classification_officer' ) ;
#610 = CARTESIAN_POINT ( 'NONE',  ( 7.500000000000000900, 59.00000000000000700, 4.000000000000000000 ) ) ;
#611 = VERTEX_POINT ( 'NONE', #602 ) ;
#612 = ORIENTED_EDGE ( 'NONE', *, *, #296, .F. ) ;
#613 = VERTEX_POINT ( 'NONE', #96 ) ;
#614 = EDGE_CURVE ( 'NONE', #447, #431, #127, .T. ) ;
#615 = CARTESIAN_POINT ( 'NONE',  ( 4.999999999999999100, 53.99999999999999300, 0.0000000000000000000 ) ) ;
#616 = FACE_OUTER_BOUND ( 'NONE', #331, .T. ) ;
#617 = LINE ( 'NONE', #314, #419 ) ;
#618 = DIRECTION ( 'NONE',  ( 7.381802025433222800E-017, 1.000000000000000000, -0.0000000000000000000 ) ) ;
#619 = VERTEX_POINT ( 'NONE', #317 ) ;
#620 = AXIS2_PLACEMENT_3D ( 'NONE', #98, #545, #492 ) ;
#621 = ORIENTED_EDGE ( 'NONE', *, *, #640, .F. ) ;
#622 = CARTESIAN_POINT ( 'NONE',  ( 4.999999999999993800, 12.50000000000000500, 4.000000000000000000 ) ) ;
#623 = CARTESIAN_POINT ( 'NONE',  ( -4.999999999999999100, 53.99999999999999300, 0.0000000000000000000 ) ) ;
#624 = PERSON_AND_ORGANIZATION ( #99, #25 ) ;
#625 = EDGE_LOOP ( 'NONE', ( #285, #299, #576, #469 ) ) ;
#626 = EDGE_LOOP ( 'NONE', ( #664, #74, #326, #499 ) ) ;
#627 = PLANE ( 'NONE',  #633 ) ;
#628 = CC_DESIGN_SECURITY_CLASSIFICATION ( #651, ( #194 ) ) ;
#629 = ORIENTED_EDGE ( 'NONE', *, *, #219, .T. ) ;
#630 = EDGE_LOOP ( 'NONE', ( #300, #420, #594, #6 ) ) ;
#631 = DIRECTION ( 'NONE',  ( -1.254016970585644000E-016, -1.000000000000000000, 0.0000000000000000000 ) ) ;
#632 = ADVANCED_FACE ( 'NONE', ( #347 ), #724, .T. ) ;
#633 = AXIS2_PLACEMENT_3D ( 'NONE', #173, #66, #123 ) ;
#634 = VECTOR ( 'NONE', #23, 1000.000000000000000 ) ;
#635 = DIRECTION ( 'NONE',  ( 0.0000000000000000000, 0.0000000000000000000, 1.000000000000000000 ) ) ;
#636 = VECTOR ( 'NONE', #169, 1000.000000000000000 ) ;
#637 = ORIENTED_EDGE ( 'NONE', *, *, #251, .F. ) ;
#638 = APPROVAL_DATE_TIME ( #328, #72 ) ;
#639 = PLANE ( 'NONE',  #395 ) ;
#640 = EDGE_CURVE ( 'NONE', #234, #265, #221, .T. ) ;
#641 = CC_DESIGN_APPROVAL ( #72, ( #651 ) ) ;
#642 = CARTESIAN_POINT ( 'NONE',  ( -10.24999999999999800, 35.75000000000000000, 4.000000000000000000 ) ) ;
#643 = DIRECTION ( 'NONE',  ( -0.0000000000000000000, 0.0000000000000000000, -1.000000000000000000 ) ) ;
#644 = CARTESIAN_POINT ( 'NONE',  ( 10.24999999999999800, 35.75000000000000000, 4.000000000000000000 ) ) ;
#645 = PERSON_AND_ORGANIZATION ( #99, #25 ) ;
#646 = VECTOR ( 'NONE', #54, 1000.000000000000000 ) ;
#647 = CARTESIAN_POINT ( 'NONE',  ( 8.999999999999994700, 12.25000000000000000, 4.000000000000000000 ) ) ;
#648 = VECTOR ( 'NONE', #525, 1000.000000000000000 ) ;
#649 = EDGE_CURVE ( 'NONE', #27, #114, #94, .T. ) ;
#650 = DIRECTION ( 'NONE',  ( 0.0000000000000000000, -1.000000000000000000, 0.0000000000000000000 ) ) ;
#651 = SECURITY_CLASSIFICATION ( '', '', #716 ) ;
#652 = LINE ( 'NONE', #351, #460 ) ;
#653 = CARTESIAN_POINT ( 'NONE',  ( 11.49999999999999600, 12.25000000000000400, 4.000000000000000000 ) ) ;
#654 = ORIENTED_EDGE ( 'NONE', *, *, #678, .T. ) ;
#655 = CARTESIAN_POINT ( 'NONE',  ( -11.49999999999999800, 35.75000000000000000, 0.0000000000000000000 ) ) ;
#656 = EDGE_LOOP ( 'NONE', ( #481, #11, #506, #329 ) ) ;
#657 = ADVANCED_FACE ( 'NONE', ( #78 ), #549, .F. ) ;
#658 = CARTESIAN_POINT ( 'NONE',  ( 8.999999999999998200, 35.75000000000000000, 0.0000000000000000000 ) ) ;
#659 = CARTESIAN_POINT ( 'NONE',  ( -8.999999999999998200, 35.75000000000000000, 4.000000000000000000 ) ) ;
#660 = DIRECTION ( 'NONE',  ( 0.0000000000000000000, -0.0000000000000000000, -1.000000000000000000 ) ) ;
#661 = APPROVAL_ROLE ( '' ) ;
#662 = CARTESIAN_POINT ( 'NONE',  ( -10.24999999999999600, 12.25000000000000000, 0.0000000000000000000 ) ) ;
#663 = EDGE_LOOP ( 'NONE', ( #47, #582, #359, #340, #48, #421 ) ) ;
#664 = ORIENTED_EDGE ( 'NONE', *, *, #223, .F. ) ;
#665 = DIRECTION ( 'NONE',  ( 1.000000000000000000, 0.0000000000000000000, 0.0000000000000000000 ) ) ;
#666 = PRODUCT_RELATED_PRODUCT_CATEGORY ( 'detail', '', ( #579 ) ) ;
#667 = DIRECTION ( 'NONE',  ( -0.0000000000000000000, -0.0000000000000000000, -1.000000000000000000 ) ) ;
#668 = APPROVAL_STATUS ( 'not_yet_approved' ) ;
#669 = LOCAL_TIME ( 15, 57, 50.00000000000000000, #410 ) ;
#670 = FACE_OUTER_BOUND ( 'NONE', #224, .T. ) ;
#671 = AXIS2_PLACEMENT_3D ( 'NONE', #470, #301, #697 ) ;
#672 = CIRCLE ( 'NONE', #561, 4.999999999999999100 ) ;
#673 = ORIENTED_EDGE ( 'NONE', *, *, #640, .T. ) ;
#674 = SHAPE_DEFINITION_REPRESENTATION ( #133, #519 ) ;
#675 = ORIENTED_EDGE ( 'NONE', *, *, #511, .T. ) ;
#676 = ORIENTED_EDGE ( 'NONE', *, *, #473, .T. ) ;
#677 = DIRECTION ( 'NONE',  ( 1.254016970585644000E-016, 1.000000000000000000, -0.0000000000000000000 ) ) ;
#678 = EDGE_CURVE ( 'NONE', #357, #487, #228, .T. ) ;
#679 = APPROVAL ( #500, 'UNSPECIFIED' ) ;
#680 = CARTESIAN_POINT ( 'NONE',  ( -7.499999999999965400, 64.00000000000000000, 4.000000000000000000 ) ) ;
#681 = CYLINDRICAL_SURFACE ( 'NONE', #570, 4.999999999999999100 ) ;
#682 = EDGE_LOOP ( 'NONE', ( #701, #554, #654, #4 ) ) ;
#683 = AXIS2_PLACEMENT_3D ( 'NONE', #375, #502, #220 ) ;
#684 = ORIENTED_EDGE ( 'NONE', *, *, #28, .T. ) ;
#685 = CARTESIAN_POINT ( 'NONE',  ( 11.49999999999999800, 35.75000000000000000, 0.0000000000000000000 ) ) ;
#686 = CARTESIAN_POINT ( 'NONE',  ( 11.49999999999999800, 35.75000000000000000, 0.0000000000000000000 ) ) ;
#687 = AXIS2_PLACEMENT_3D ( 'NONE', #64, #291, #346 ) ;
#688 = CALENDAR_DATE ( 2018, 4, 11 ) ;
#689 = DIRECTION ( 'NONE',  ( -1.000000000000000000, 0.0000000000000000000, 0.0000000000000000000 ) ) ;
#690 = CYLINDRICAL_SURFACE ( 'NONE', #683, 1.250000000000001100 ) ;
#691 = ORIENTED_EDGE ( 'NONE', *, *, #434, .F. ) ;
#692 = DIRECTION ( 'NONE',  ( -0.0000000000000000000, -0.0000000000000000000, -1.000000000000000000 ) ) ;
#693 = EDGE_LOOP ( 'NONE', ( #471, #704, #391, #225 ) ) ;
#694 = EDGE_LOOP ( 'NONE', ( #144, #137, #444, #242 ) ) ;
#695 = DIRECTION ( 'NONE',  ( -1.476360405086644600E-016, 1.000000000000000000, -0.0000000000000000000 ) ) ;
#696 = AXIS2_PLACEMENT_3D ( 'NONE', #297, #692, #139 ) ;
#697 = DIRECTION ( 'NONE',  ( -1.000000000000000000, 0.0000000000000000000, 0.0000000000000000000 ) ) ;
#698 = LOCAL_TIME ( 15, 57, 50.00000000000000000, #556 ) ;
#699 = DIRECTION ( 'NONE',  ( 0.0000000000000000000, 0.0000000000000000000, 1.000000000000000000 ) ) ;
#700 = LOCAL_TIME ( 15, 57, 50.00000000000000000, #298 ) ;
#701 = ORIENTED_EDGE ( 'NONE', *, *, #414, .T. ) ;
#702 = CARTESIAN_POINT ( 'NONE',  ( 7.500000000000000900, 59.00000000000000700, 4.000000000000000000 ) ) ;
#703 = EDGE_CURVE ( 'NONE', #575, #12, #706, .T. ) ;
#704 = ORIENTED_EDGE ( 'NONE', *, *, #384, .F. ) ;
#705 = CC_DESIGN_APPROVAL ( #679, ( #402 ) ) ;
#706 = LINE ( 'NONE', #377, #426 ) ;
#707 = LINE ( 'NONE', #563, #180 ) ;
#708 = CIRCLE ( 'NONE', #601, 1.250000000000001100 ) ;
#709 = VERTEX_POINT ( 'NONE', #429 ) ;
#710 = CALENDAR_DATE ( 2018, 4, 11 ) ;
#711 = EDGE_LOOP ( 'NONE', ( #675, #559, #216, #193 ) ) ;
#712 = AXIS2_PLACEMENT_3D ( 'NONE', #279, #405, #517 ) ;
#713 = EDGE_CURVE ( 'NONE', #532, #27, #527, .T. ) ;
#714 = CC_DESIGN_APPROVAL ( #555, ( #194 ) ) ;
#715 = LINE ( 'NONE', #93, #149 ) ;
#716 = SECURITY_CLASSIFICATION_LEVEL ( 'unclassified' ) ;
#717 = FACE_OUTER_BOUND ( 'NONE', #711, .T. ) ;
#718 = ORIENTED_EDGE ( 'NONE', *, *, #503, .F. ) ;
#719 = CARTESIAN_POINT ( 'NONE',  ( -10.24999999999999600, 12.25000000000000000, 4.000000000000000000 ) ) ;
#720 = CARTESIAN_POINT ( 'NONE',  ( -11.49999999999999800, 12.25000000000000000, 4.000000000000000000 ) ) ;
#721 = MECHANICAL_CONTEXT ( 'NONE', #214, 'mechanical' ) ;
#722 = DIRECTION ( 'NONE',  ( 1.000000000000000000, 0.0000000000000000000, 0.0000000000000000000 ) ) ;
#723 = VECTOR ( 'NONE', #695, 1000.000000000000000 ) ;
#724 = PLANE ( 'NONE',  #58 ) ;
#725 = FACE_OUTER_BOUND ( 'NONE', #161, .T. ) ;
#726 = ORIENTED_EDGE ( 'NONE', *, *, #219, .F. ) ;
#727 = EDGE_CURVE ( 'NONE', #514, #306, #715, .T. ) ;
ENDSEC;
END-ISO-10303-21;
