ISO-10303-21;
HEADER;
FILE_DESCRIPTION (( 'STEP AP203' ),
    '1' );
FILE_NAME ('camera_mount_1_Domyúlna_sldprt.STEP',
    '2018-11-04T14:57:49',
    ( '' ),
    ( '' ),
    'SwSTEP 2.0',
    'SolidWorks 2016',
    '' );
FILE_SCHEMA (( 'CONFIG_CONTROL_DESIGN' ));
ENDSEC;

DATA;
#1 = CARTESIAN_POINT ( 'NONE',  ( -5.000000000000000900, 27.99999999999999600, 2.500000000000000000 ) ) ;
#2 = EDGE_CURVE ( 'NONE', #605, #55, #403, .T. ) ;
#3 = VECTOR ( 'NONE', #848, 1000.000000000000000 ) ;
#4 = ORIENTED_EDGE ( 'NONE', *, *, #198, .T. ) ;
#5 = DIRECTION ( 'NONE',  ( -0.0000000000000000000, -0.0000000000000000000, -1.000000000000000000 ) ) ;
#6 = VERTEX_POINT ( 'NONE', #83 ) ;
#7 = EDGE_LOOP ( 'NONE', ( #192, #351 ) ) ;
#8 = CARTESIAN_POINT ( 'NONE',  ( 9.250000000000000000, 10.49999999999999800, 0.0000000000000000000 ) ) ;
#9 = EDGE_LOOP ( 'NONE', ( #99, #159, #34, #928 ) ) ;
#10 = DIRECTION ( 'NONE',  ( 1.000000000000000000, 0.0000000000000000000, 0.0000000000000000000 ) ) ;
#11 = DIRECTION ( 'NONE',  ( -0.0000000000000000000, 1.000000000000000000, -0.0000000000000000000 ) ) ;
#12 = CARTESIAN_POINT ( 'NONE',  ( 5.000000000000000900, 27.99999999999999600, 0.0000000000000000000 ) ) ;
#13 = FACE_OUTER_BOUND ( 'NONE', #9, .T. ) ;
#14 = ADVANCED_FACE ( 'NONE', ( #51 ), #858, .T. ) ;
#15 = CARTESIAN_POINT ( 'NONE',  ( 12.50000000000000000, 6.499999999999998200, 0.0000000000000000000 ) ) ;
#16 = LINE ( 'NONE', #465, #393 ) ;
#17 = ORIENTED_EDGE ( 'NONE', *, *, #761, .T. ) ;
#18 = EDGE_CURVE ( 'NONE', #6, #603, #558, .T. ) ;
#19 = DIRECTION ( 'NONE',  ( 1.000000000000000000, -0.0000000000000000000, -0.0000000000000000000 ) ) ;
#20 = ORIENTED_EDGE ( 'NONE', *, *, #315, .T. ) ;
#21 = VERTEX_POINT ( 'NONE', #875 ) ;
#22 = ORIENTED_EDGE ( 'NONE', *, *, #611, .T. ) ;
#23 = ORIENTED_EDGE ( 'NONE', *, *, #385, .F. ) ;
#24 = FACE_OUTER_BOUND ( 'NONE', #813, .T. ) ;
#25 = DIRECTION ( 'NONE',  ( -1.000000000000000000, 0.0000000000000000000, 0.0000000000000000000 ) ) ;
#26 = CARTESIAN_POINT ( 'NONE',  ( 12.25000000000000000, 23.74999999999999600, 2.500000000000000000 ) ) ;
#27 = AXIS2_PLACEMENT_3D ( 'NONE', #382, #532, #535 ) ;
#28 = DATE_AND_TIME ( #399, #358 ) ;
#29 = DIRECTION ( 'NONE',  ( -1.000000000000000000, 0.0000000000000000000, 0.0000000000000000000 ) ) ;
#30 = LINE ( 'NONE', #689, #661 ) ;
#31 = VERTEX_POINT ( 'NONE', #8 ) ;
#32 = DIRECTION ( 'NONE',  ( -0.0000000000000000000, -0.0000000000000000000, -1.000000000000000000 ) ) ;
#33 = EDGE_CURVE ( 'NONE', #147, #325, #467, .T. ) ;
#34 = ORIENTED_EDGE ( 'NONE', *, *, #745, .F. ) ;
#35 = ORIENTED_EDGE ( 'NONE', *, *, #222, .F. ) ;
#36 = DIRECTION ( 'NONE',  ( -1.000000000000000000, 0.0000000000000000000, 0.0000000000000000000 ) ) ;
#37 = PLANE ( 'NONE',  #397 ) ;
#38 = EDGE_CURVE ( 'NONE', #31, #251, #693, .T. ) ;
#39 = CARTESIAN_POINT ( 'NONE',  ( 5.000000000000000900, 27.99999999999999600, 2.500000000000000000 ) ) ;
#40 = VECTOR ( 'NONE', #753, 1000.000000000000000 ) ;
#41 = DIRECTION ( 'NONE',  ( -0.0000000000000000000, -0.0000000000000000000, -1.000000000000000000 ) ) ;
#42 = VECTOR ( 'NONE', #345, 1000.000000000000000 ) ;
#43 = LINE ( 'NONE', #859, #791 ) ;
#44 = ORIENTED_EDGE ( 'NONE', *, *, #627, .F. ) ;
#45 = CARTESIAN_POINT ( 'NONE',  ( 0.0000000000000000000, 23.74999999999999600, 2.500000000000000000 ) ) ;
#46 = CARTESIAN_POINT ( 'NONE',  ( 12.25000000000000000, 23.74999999999999600, 2.500000000000000000 ) ) ;
#47 = AXIS2_PLACEMENT_3D ( 'NONE', #898, #681, #395 ) ;
#48 = CIRCLE ( 'NONE', #202, 1.000000000000000000 ) ;
#49 =( NAMED_UNIT ( * ) PLANE_ANGLE_UNIT ( ) SI_UNIT ( $, .RADIAN. ) );
#50 = PERSON_AND_ORGANIZATION_ROLE ( 'creator' ) ;
#51 = FACE_OUTER_BOUND ( 'NONE', #53, .T. ) ;
#52 = DIRECTION ( 'NONE',  ( -0.0000000000000000000, -0.0000000000000000000, -1.000000000000000000 ) ) ;
#53 = EDGE_LOOP ( 'NONE', ( #764, #352, #890, #98 ) ) ;
#54 = EDGE_CURVE ( 'NONE', #242, #752, #284, .T. ) ;
#55 = VERTEX_POINT ( 'NONE', #422 ) ;
#56 = ORIENTED_EDGE ( 'NONE', *, *, #495, .T. ) ;
#57 = DIRECTION ( 'NONE',  ( -0.0000000000000000000, -0.0000000000000000000, -1.000000000000000000 ) ) ;
#58 = DIRECTION ( 'NONE',  ( 1.000000000000000000, 0.0000000000000000000, -0.0000000000000000000 ) ) ;
#59 = PERSON_AND_ORGANIZATION ( #947, #825 ) ;
#60 = CIRCLE ( 'NONE', #900, 1.000000000000000000 ) ;
#61 = AXIS2_PLACEMENT_3D ( 'NONE', #115, #536, #193 ) ;
#62 = DIRECTION ( 'NONE',  ( -0.0000000000000000000, 0.0000000000000000000, -1.000000000000000000 ) ) ;
#63 = CARTESIAN_POINT ( 'NONE',  ( -4.000000000000000900, 27.99999999999999600, 2.500000000000000000 ) ) ;
#64 = VECTOR ( 'NONE', #695, 1000.000000000000000 ) ;
#65 = ORIENTED_EDGE ( 'NONE', *, *, #611, .F. ) ;
#66 = MECHANICAL_CONTEXT ( 'NONE', #402, 'mechanical' ) ;
#67 = DIRECTION ( 'NONE',  ( 0.7761140001162655200, -0.6305926250944657900, 0.0000000000000000000 ) ) ;
#68 = VERTEX_POINT ( 'NONE', #718 ) ;
#69 = ORIENTED_EDGE ( 'NONE', *, *, #215, .T. ) ;
#70 = EDGE_CURVE ( 'NONE', #276, #167, #43, .T. ) ;
#71 = DIRECTION ( 'NONE',  ( -0.0000000000000000000, -1.000000000000000000, -0.0000000000000000000 ) ) ;
#72 = LINE ( 'NONE', #443, #874 ) ;
#73 = AXIS2_PLACEMENT_3D ( 'NONE', #232, #380, #671 ) ;
#74 = DIRECTION ( 'NONE',  ( 0.0000000000000000000, 0.0000000000000000000, 1.000000000000000000 ) ) ;
#75 = CARTESIAN_POINT ( 'NONE',  ( -12.25000000000000000, 23.74999999999999600, 2.500000000000000000 ) ) ;
#76 = ORIENTED_EDGE ( 'NONE', *, *, #18, .T. ) ;
#77 = DIRECTION ( 'NONE',  ( 0.0000000000000000000, 1.000000000000000000, -0.0000000000000000000 ) ) ;
#78 = EDGE_LOOP ( 'NONE', ( #190, #821, #97, #183 ) ) ;
#79 = CARTESIAN_POINT ( 'NONE',  ( 4.000000000000000000, 19.49999999999999600, 0.0000000000000000000 ) ) ;
#80 = EDGE_CURVE ( 'NONE', #325, #147, #458, .T. ) ;
#81 = DIRECTION ( 'NONE',  ( 0.0000000000000000000, 0.0000000000000000000, 1.000000000000000000 ) ) ;
#82 = DIRECTION ( 'NONE',  ( 0.0000000000000000000, 0.0000000000000000000, 1.000000000000000000 ) ) ;
#83 = CARTESIAN_POINT ( 'NONE',  ( 1.750000000000000400, 23.74999999999999600, 2.500000000000000000 ) ) ;
#84 = APPROVAL_PERSON_ORGANIZATION ( #271, #636, #846 ) ;
#85 = CARTESIAN_POINT ( 'NONE',  ( 5.000000000000000000, 4.999999999999999100, 0.0000000000000000000 ) ) ;
#86 = EDGE_CURVE ( 'NONE', #209, #861, #588, .T. ) ;
#87 = LINE ( 'NONE', #474, #763 ) ;
#88 = CARTESIAN_POINT ( 'NONE',  ( -5.000000000000000000, 15.00000000000000000, 0.0000000000000000000 ) ) ;
#89 = VECTOR ( 'NONE', #748, 1000.000000000000000 ) ;
#90 = ORIENTED_EDGE ( 'NONE', *, *, #185, .F. ) ;
#91 = PRODUCT_DEFINITION_FORMATION_WITH_SPECIFIED_SOURCE ( 'ANY', '', #865, .NOT_KNOWN. ) ;
#92 = FACE_BOUND ( 'NONE', #633, .T. ) ;
#93 = CARTESIAN_POINT ( 'NONE',  ( 12.50000000000000000, -1.530808498934191300E-015, 0.0000000000000000000 ) ) ;
#94 = DIRECTION ( 'NONE',  ( -1.000000000000000000, 0.0000000000000000000, 0.0000000000000000000 ) ) ;
#95 = CYLINDRICAL_SURFACE ( 'NONE', #269, 1.000000000000000000 ) ;
#96 = AXIS2_PLACEMENT_3D ( 'NONE', #557, #67, #262 ) ;
#97 = ORIENTED_EDGE ( 'NONE', *, *, #208, .F. ) ;
#98 = ORIENTED_EDGE ( 'NONE', *, *, #598, .F. ) ;
#99 = ORIENTED_EDGE ( 'NONE', *, *, #33, .T. ) ;
#100 = ADVANCED_FACE ( 'NONE', ( #437 ), #307, .F. ) ;
#101 = EDGE_CURVE ( 'NONE', #243, #526, #188, .T. ) ;
#102 = SHAPE_DEFINITION_REPRESENTATION ( #800, #896 ) ;
#103 = LINE ( 'NONE', #308, #935 ) ;
#104 = CARTESIAN_POINT ( 'NONE',  ( -5.000000000000000000, 19.49999999999999600, 2.500000000000000000 ) ) ;
#105 = VECTOR ( 'NONE', #143, 1000.000000000000000 ) ;
#106 = FACE_OUTER_BOUND ( 'NONE', #314, .T. ) ;
#107 = CARTESIAN_POINT ( 'NONE',  ( 0.0000000000000000000, 23.74999999999999600, 0.0000000000000000000 ) ) ;
#108 = PLANE ( 'NONE',  #908 ) ;
#109 = EDGE_CURVE ( 'NONE', #614, #335, #838, .T. ) ;
#110 = VERTEX_POINT ( 'NONE', #170 ) ;
#111 = DIRECTION ( 'NONE',  ( 0.0000000000000000000, 0.0000000000000000000, 1.000000000000000000 ) ) ;
#112 = EDGE_CURVE ( 'NONE', #589, #506, #599, .T. ) ;
#113 = CARTESIAN_POINT ( 'NONE',  ( -4.000000000000000900, 27.99999999999999600, 2.500000000000000000 ) ) ;
#114 = FACE_OUTER_BOUND ( 'NONE', #428, .T. ) ;
#115 = CARTESIAN_POINT ( 'NONE',  ( -5.000000000000000000, 19.49999999999999600, 0.0000000000000000000 ) ) ;
#116 = FACE_OUTER_BOUND ( 'NONE', #728, .T. ) ;
#117 = ORIENTED_EDGE ( 'NONE', *, *, #712, .F. ) ;
#118 = ORIENTED_EDGE ( 'NONE', *, *, #460, .T. ) ;
#119 = EDGE_CURVE ( 'NONE', #335, #526, #274, .T. ) ;
#120 = ORIENTED_EDGE ( 'NONE', *, *, #701, .T. ) ;
#121 = DIRECTION ( 'NONE',  ( 0.0000000000000000000, 0.0000000000000000000, 1.000000000000000000 ) ) ;
#122 = AXIS2_PLACEMENT_3D ( 'NONE', #107, #687, #524 ) ;
#123 = ORIENTED_EDGE ( 'NONE', *, *, #275, .F. ) ;
#124 = ORIENTED_EDGE ( 'NONE', *, *, #779, .T. ) ;
#125 = CARTESIAN_POINT ( 'NONE',  ( 12.50000000000000000, 6.499999999999998200, 2.500000000000000000 ) ) ;
#126 = AXIS2_PLACEMENT_3D ( 'NONE', #426, #654, #870 ) ;
#127 = APPROVAL_PERSON_ORGANIZATION ( #749, #432, #482 ) ;
#128 = CIRCLE ( 'NONE', #122, 1.750000000000000400 ) ;
#129 = SECURITY_CLASSIFICATION_LEVEL ( 'unclassified' ) ;
#130 = FACE_BOUND ( 'NONE', #425, .T. ) ;
#131 = EDGE_LOOP ( 'NONE', ( #561, #651 ) ) ;
#132 = DIRECTION ( 'NONE',  ( -0.6305926250944656800, -0.7761140001162654100, -0.0000000000000000000 ) ) ;
#133 = ORIENTED_EDGE ( 'NONE', *, *, #309, .T. ) ;
#134 = EDGE_CURVE ( 'NONE', #440, #621, #648, .T. ) ;
#135 = ORIENTED_EDGE ( 'NONE', *, *, #401, .T. ) ;
#136 = CARTESIAN_POINT ( 'NONE',  ( 12.50000000000000000, -1.530808498934191300E-015, 2.500000000000000000 ) ) ;
#137 = PERSON_AND_ORGANIZATION_ROLE ( 'design_owner' ) ;
#138 = CYLINDRICAL_SURFACE ( 'NONE', #388, 1.000000000000000000 ) ;
#139 = CC_DESIGN_PERSON_AND_ORGANIZATION_ASSIGNMENT ( #59, #775, ( #91 ) ) ;
#140 = CARTESIAN_POINT ( 'NONE',  ( 9.250000000000000000, 15.71881079789549000, 2.500000000000000000 ) ) ;
#141 = VECTOR ( 'NONE', #438, 1000.000000000000000 ) ;
#142 = ORIENTED_EDGE ( 'NONE', *, *, #119, .T. ) ;
#143 = DIRECTION ( 'NONE',  ( -0.0000000000000000000, -0.0000000000000000000, -1.000000000000000000 ) ) ;
#144 = ORIENTED_EDGE ( 'NONE', *, *, #109, .F. ) ;
#145 = VERTEX_POINT ( 'NONE', #166 ) ;
#146 = AXIS2_PLACEMENT_3D ( 'NONE', #360, #221, #799 ) ;
#147 = VERTEX_POINT ( 'NONE', #520 ) ;
#148 = PLANE ( 'NONE',  #146 ) ;
#149 = CARTESIAN_POINT ( 'NONE',  ( 5.000000000000000000, 4.999999999999999100, 2.500000000000000000 ) ) ;
#150 = CALENDAR_DATE ( 2018, 4, 11 ) ;
#151 = DIRECTION ( 'NONE',  ( -0.0000000000000000000, -0.0000000000000000000, -1.000000000000000000 ) ) ;
#152 = AXIS2_PLACEMENT_3D ( 'NONE', #248, #111, #830 ) ;
#153 = LINE ( 'NONE', #711, #435 ) ;
#154 = CARTESIAN_POINT ( 'NONE',  ( -6.000000000000000900, 27.99999999999999600, 0.0000000000000000000 ) ) ;
#155 = ORIENTED_EDGE ( 'NONE', *, *, #449, .F. ) ;
#156 = ORIENTED_EDGE ( 'NONE', *, *, #449, .T. ) ;
#157 = ORIENTED_EDGE ( 'NONE', *, *, #594, .F. ) ;
#158 = ADVANCED_FACE ( 'NONE', ( #261 ), #37, .F. ) ;
#159 = ORIENTED_EDGE ( 'NONE', *, *, #275, .T. ) ;
#160 = DIRECTION ( 'NONE',  ( -1.000000000000000000, 0.0000000000000000000, 0.0000000000000000000 ) ) ;
#161 = AXIS2_PLACEMENT_3D ( 'NONE', #201, #57, #710 ) ;
#162 = DIRECTION ( 'NONE',  ( 0.0000000000000000000, 0.0000000000000000000, 1.000000000000000000 ) ) ;
#163 = CYLINDRICAL_SURFACE ( 'NONE', #477, 1.000000000000000000 ) ;
#164 = DIRECTION ( 'NONE',  ( 0.0000000000000000000, 0.0000000000000000000, 1.000000000000000000 ) ) ;
#165 = VECTOR ( 'NONE', #420, 1000.000000000000000 ) ;
#166 = CARTESIAN_POINT ( 'NONE',  ( -9.250000000000000000, 10.49999999999999800, 2.500000000000000000 ) ) ;
#167 = VERTEX_POINT ( 'NONE', #15 ) ;
#168 = ORIENTED_EDGE ( 'NONE', *, *, #198, .F. ) ;
#169 = DIRECTION ( 'NONE',  ( 0.0000000000000000000, 0.0000000000000000000, 1.000000000000000000 ) ) ;
#170 = CARTESIAN_POINT ( 'NONE',  ( -9.250000000000000000, 15.71881079789549000, 0.0000000000000000000 ) ) ;
#171 = VERTEX_POINT ( 'NONE', #820 ) ;
#172 = EDGE_CURVE ( 'NONE', #579, #110, #819, .T. ) ;
#173 = DIRECTION ( 'NONE',  ( 0.0000000000000000000, 0.0000000000000000000, 1.000000000000000000 ) ) ;
#174 = AXIS2_PLACEMENT_3D ( 'NONE', #817, #595, #235 ) ;
#175 = ADVANCED_FACE ( 'NONE', ( #106 ), #95, .F. ) ;
#176 = CARTESIAN_POINT ( 'NONE',  ( -5.000000000000000000, 19.49999999999999600, 2.500000000000000000 ) ) ;
#177 = CARTESIAN_POINT ( 'NONE',  ( -5.000000000000000900, 27.99999999999999600, 2.500000000000000000 ) ) ;
#178 = DATE_AND_TIME ( #371, #678 ) ;
#179 = EDGE_CURVE ( 'NONE', #470, #209, #373, .T. ) ;
#180 = ORIENTED_EDGE ( 'NONE', *, *, #172, .T. ) ;
#181 = ORIENTED_EDGE ( 'NONE', *, *, #401, .F. ) ;
#182 = DIRECTION ( 'NONE',  ( 0.0000000000000000000, 0.0000000000000000000, -1.000000000000000000 ) ) ;
#183 = ORIENTED_EDGE ( 'NONE', *, *, #215, .F. ) ;
#184 = MANIFOLD_SOLID_BREP ( 'Dodanie-wyciπgniÍcie1', #774 ) ;
#185 = EDGE_CURVE ( 'NONE', #574, #242, #829, .T. ) ;
#186 = CARTESIAN_POINT ( 'NONE',  ( -5.000000000000000000, 19.49999999999999600, 2.500000000000000000 ) ) ;
#187 = LINE ( 'NONE', #907, #503 ) ;
#188 = LINE ( 'NONE', #93, #414 ) ;
#189 = ORIENTED_EDGE ( 'NONE', *, *, #370, .T. ) ;
#190 = ORIENTED_EDGE ( 'NONE', *, *, #731, .T. ) ;
#191 = DIRECTION ( 'NONE',  ( -1.000000000000000000, 0.0000000000000000000, 0.0000000000000000000 ) ) ;
#192 = ORIENTED_EDGE ( 'NONE', *, *, #570, .F. ) ;
#193 = DIRECTION ( 'NONE',  ( 1.000000000000000000, 0.0000000000000000000, 0.0000000000000000000 ) ) ;
#194 = AXIS2_PLACEMENT_3D ( 'NONE', #586, #739, #886 ) ;
#195 = PERSON_AND_ORGANIZATION ( #947, #825 ) ;
#196 = VECTOR ( 'NONE', #132, 1000.000000000000100 ) ;
#197 = EDGE_LOOP ( 'NONE', ( #541, #576, #4, #559 ) ) ;
#198 = EDGE_CURVE ( 'NONE', #470, #251, #30, .T. ) ;
#199 = VERTEX_POINT ( 'NONE', #113 ) ;
#200 = DIRECTION ( 'NONE',  ( 0.0000000000000000000, 0.0000000000000000000, 1.000000000000000000 ) ) ;
#201 = CARTESIAN_POINT ( 'NONE',  ( 0.0000000000000000000, 23.74999999999999600, 2.500000000000000000 ) ) ;
#202 = AXIS2_PLACEMENT_3D ( 'NONE', #1, #82, #224 ) ;
#203 = VECTOR ( 'NONE', #387, 1000.000000000000000 ) ;
#204 = CARTESIAN_POINT ( 'NONE',  ( -5.000000000000000000, 15.00000000000000000, 2.500000000000000000 ) ) ;
#205 = VECTOR ( 'NONE', #934, 1000.000000000000000 ) ;
#206 = APPLICATION_CONTEXT ( 'configuration controlled 3d designs of mechanical parts and assemblies' ) ;
#207 = ORIENTED_EDGE ( 'NONE', *, *, #897, .F. ) ;
#208 = EDGE_CURVE ( 'NONE', #55, #605, #394, .T. ) ;
#209 = VERTEX_POINT ( 'NONE', #46 ) ;
#210 = VECTOR ( 'NONE', #943, 1000.000000000000000 ) ;
#211 = DIRECTION ( 'NONE',  ( -0.0000000000000000000, -1.000000000000000000, -0.0000000000000000000 ) ) ;
#212 = LINE ( 'NONE', #646, #210 ) ;
#213 = CARTESIAN_POINT ( 'NONE',  ( -5.000000000000000000, 15.00000000000000000, 2.500000000000000000 ) ) ;
#214 = CARTESIAN_POINT ( 'NONE',  ( -4.000000000000000000, 19.49999999999999600, 0.0000000000000000000 ) ) ;
#215 = EDGE_CURVE ( 'NONE', #427, #55, #807, .T. ) ;
#216 = COORDINATED_UNIVERSAL_TIME_OFFSET ( 1, 0, .AHEAD. ) ;
#217 = AXIS2_PLACEMENT_3D ( 'NONE', #336, #770, #620 ) ;
#218 = DIRECTION ( 'NONE',  ( -0.0000000000000000000, -0.0000000000000000000, -1.000000000000000000 ) ) ;
#219 = ORIENTED_EDGE ( 'NONE', *, *, #134, .F. ) ;
#220 = ORIENTED_EDGE ( 'NONE', *, *, #842, .F. ) ;
#221 = DIRECTION ( 'NONE',  ( 0.0000000000000000000, -1.000000000000000000, 0.0000000000000000000 ) ) ;
#222 = EDGE_CURVE ( 'NONE', #21, #145, #16, .T. ) ;
#223 = ORIENTED_EDGE ( 'NONE', *, *, #370, .F. ) ;
#224 = DIRECTION ( 'NONE',  ( 1.000000000000000000, 0.0000000000000000000, 0.0000000000000000000 ) ) ;
#225 = DIRECTION ( 'NONE',  ( 0.0000000000000000000, 0.0000000000000000000, 1.000000000000000000 ) ) ;
#226 = ADVANCED_FACE ( 'NONE', ( #585 ), #108, .F. ) ;
#227 = EDGE_CURVE ( 'NONE', #602, #470, #783, .T. ) ;
#228 = FACE_OUTER_BOUND ( 'NONE', #297, .T. ) ;
#229 = ADVANCED_FACE ( 'NONE', ( #340 ), #639, .F. ) ;
#230 = ORIENTED_EDGE ( 'NONE', *, *, #260, .F. ) ;
#231 = ORIENTED_EDGE ( 'NONE', *, *, #868, .T. ) ;
#232 = CARTESIAN_POINT ( 'NONE',  ( -5.000000000000000000, 19.49999999999999600, 2.500000000000000000 ) ) ;
#233 = AXIS2_PLACEMENT_3D ( 'NONE', #245, #241, #454 ) ;
#234 = LINE ( 'NONE', #562, #617 ) ;
#235 = DIRECTION ( 'NONE',  ( -1.000000000000000000, 0.0000000000000000000, 0.0000000000000000000 ) ) ;
#236 = CARTESIAN_POINT ( 'NONE',  ( 6.000000000000000900, 27.99999999999999600, 2.500000000000000000 ) ) ;
#237 = CYLINDRICAL_SURFACE ( 'NONE', #600, 12.25000000000000000 ) ;
#238 = AXIS2_PLACEMENT_3D ( 'NONE', #854, #281, #566 ) ;
#239 = ORIENTED_EDGE ( 'NONE', *, *, #527, .T. ) ;
#240 = ORIENTED_EDGE ( 'NONE', *, *, #826, .F. ) ;
#241 = DIRECTION ( 'NONE',  ( -0.0000000000000000000, -0.0000000000000000000, -1.000000000000000000 ) ) ;
#242 = VERTEX_POINT ( 'NONE', #338 ) ;
#243 = VERTEX_POINT ( 'NONE', #480 ) ;
#244 = DIRECTION ( 'NONE',  ( 1.000000000000000000, 0.0000000000000000000, 0.0000000000000000000 ) ) ;
#245 = CARTESIAN_POINT ( 'NONE',  ( 0.0000000000000000000, 23.74999999999999600, 2.500000000000000000 ) ) ;
#246 = APPROVAL_DATE_TIME ( #554, #636 ) ;
#247 = FACE_BOUND ( 'NONE', #905, .T. ) ;
#248 = CARTESIAN_POINT ( 'NONE',  ( 0.0000000000000000000, 23.74999999999999600, 2.500000000000000000 ) ) ;
#249 = FACE_BOUND ( 'NONE', #342, .T. ) ;
#250 = AXIS2_PLACEMENT_3D ( 'NONE', #662, #151, #730 ) ;
#251 = VERTEX_POINT ( 'NONE', #930 ) ;
#252 = ORIENTED_EDGE ( 'NONE', *, *, #483, .F. ) ;
#253 = DIRECTION ( 'NONE',  ( -0.0000000000000000000, -0.0000000000000000000, -1.000000000000000000 ) ) ;
#254 = VECTOR ( 'NONE', #863, 1000.000000000000000 ) ;
#255 = ORIENTED_EDGE ( 'NONE', *, *, #80, .T. ) ;
#256 = VECTOR ( 'NONE', #867, 1000.000000000000000 ) ;
#257 = EDGE_CURVE ( 'NONE', #110, #469, #547, .T. ) ;
#258 = CIRCLE ( 'NONE', #263, 1.000000000000000000 ) ;
#259 = CIRCLE ( 'NONE', #945, 1.750000000000000400 ) ;
#260 = EDGE_CURVE ( 'NONE', #603, #171, #187, .T. ) ;
#261 = FACE_OUTER_BOUND ( 'NONE', #416, .T. ) ;
#262 = DIRECTION ( 'NONE',  ( 0.6305926250944656800, 0.7761140001162654100, 0.0000000000000000000 ) ) ;
#263 = AXIS2_PLACEMENT_3D ( 'NONE', #12, #162, #29 ) ;
#264 = ORIENTED_EDGE ( 'NONE', *, *, #70, .T. ) ;
#265 = ORIENTED_EDGE ( 'NONE', *, *, #346, .T. ) ;
#266 = PERSON_AND_ORGANIZATION_ROLE ( 'creator' ) ;
#267 = ORIENTED_EDGE ( 'NONE', *, *, #643, .T. ) ;
#268 = CARTESIAN_POINT ( 'NONE',  ( -9.250000000000000000, 10.49999999999999800, 2.500000000000000000 ) ) ;
#269 = AXIS2_PLACEMENT_3D ( 'NONE', #177, #677, #514 ) ;
#270 = CARTESIAN_POINT ( 'NONE',  ( -5.000000000000000000, 4.999999999999999100, 0.0000000000000000000 ) ) ;
#271 = PERSON_AND_ORGANIZATION ( #947, #825 ) ;
#272 = VECTOR ( 'NONE', #398, 1000.000000000000000 ) ;
#273 = VECTOR ( 'NONE', #923, 1000.000000000000000 ) ;
#274 = LINE ( 'NONE', #597, #141 ) ;
#275 = EDGE_CURVE ( 'NONE', #325, #479, #927, .T. ) ;
#276 = VERTEX_POINT ( 'NONE', #125 ) ;
#277 = DIRECTION ( 'NONE',  ( -0.0000000000000000000, -0.0000000000000000000, -1.000000000000000000 ) ) ;
#278 = CIRCLE ( 'NONE', #660, 1.000000000000000000 ) ;
#279 = DIRECTION ( 'NONE',  ( 0.0000000000000000000, 0.0000000000000000000, 1.000000000000000000 ) ) ;
#280 = CC_DESIGN_SECURITY_CLASSIFICATION ( #751, ( #91 ) ) ;
#281 = DIRECTION ( 'NONE',  ( 0.0000000000000000000, 1.000000000000000000, -0.0000000000000000000 ) ) ;
#282 = VECTOR ( 'NONE', #327, 1000.000000000000100 ) ;
#283 = CARTESIAN_POINT ( 'NONE',  ( -9.250000000000000000, 15.71881079789549000, 2.500000000000000000 ) ) ;
#284 = LINE ( 'NONE', #88, #447 ) ;
#285 = ORIENTED_EDGE ( 'NONE', *, *, #712, .T. ) ;
#286 = EDGE_CURVE ( 'NONE', #729, #894, #87, .T. ) ;
#287 = ORIENTED_EDGE ( 'NONE', *, *, #257, .F. ) ;
#288 = ORIENTED_EDGE ( 'NONE', *, *, #227, .F. ) ;
#289 = CARTESIAN_POINT ( 'NONE',  ( 5.000000000000000000, 19.49999999999999600, 0.0000000000000000000 ) ) ;
#290 = ADVANCED_FACE ( 'NONE', ( #936, #741, #706, #537, #130, #249, #609 ), #632, .F. ) ;
#291 = DIRECTION ( 'NONE',  ( -1.000000000000000000, 0.0000000000000000000, 0.0000000000000000000 ) ) ;
#292 = APPROVAL_DATE_TIME ( #28, #497 ) ;
#293 = LINE ( 'NONE', #270, #272 ) ;
#294 = CARTESIAN_POINT ( 'NONE',  ( 5.000000000000000900, 27.99999999999999600, 2.500000000000000000 ) ) ;
#295 = ADVANCED_FACE ( 'NONE', ( #726 ), #488, .F. ) ;
#296 = VERTEX_POINT ( 'NONE', #650 ) ;
#297 = EDGE_LOOP ( 'NONE', ( #635, #448, #299, #577, #189, #831, #363, #917, #22, #622 ) ) ;
#298 = CARTESIAN_POINT ( 'NONE',  ( 0.0000000000000000000, 23.74999999999999600, 2.500000000000000000 ) ) ;
#299 = ORIENTED_EDGE ( 'NONE', *, *, #925, .T. ) ;
#300 = CARTESIAN_POINT ( 'NONE',  ( 12.50000000000000000, -1.530808498934191300E-015, 2.500000000000000000 ) ) ;
#301 = AXIS2_PLACEMENT_3D ( 'NONE', #803, #367, #790 ) ;
#302 = ADVANCED_FACE ( 'NONE', ( #916 ), #642, .T. ) ;
#303 = ORIENTED_EDGE ( 'NONE', *, *, #54, .F. ) ;
#304 = DIRECTION ( 'NONE',  ( 0.0000000000000000000, 0.0000000000000000000, 1.000000000000000000 ) ) ;
#305 = ADVANCED_FACE ( 'NONE', ( #116 ), #357, .T. ) ;
#306 = CARTESIAN_POINT ( 'NONE',  ( 5.000000000000000900, 27.99999999999999600, 2.500000000000000000 ) ) ;
#307 = PLANE ( 'NONE',  #522 ) ;
#308 = CARTESIAN_POINT ( 'NONE',  ( -12.50000000000000000, 6.499999999999998200, 0.0000000000000000000 ) ) ;
#309 = EDGE_CURVE ( 'NONE', #374, #752, #311, .T. ) ;
#310 = ADVANCED_FACE ( 'NONE', ( #330 ), #571, .T. ) ;
#311 = LINE ( 'NONE', #213, #165 ) ;
#312 = EDGE_LOOP ( 'NONE', ( #921, #383 ) ) ;
#313 = EDGE_LOOP ( 'NONE', ( #407, #120, #69, #364 ) ) ;
#314 = EDGE_LOOP ( 'NONE', ( #539, #20, #666, #481 ) ) ;
#315 = EDGE_CURVE ( 'NONE', #199, #742, #857, .T. ) ;
#316 = LINE ( 'NONE', #792, #256 ) ;
#317 = ORIENTED_EDGE ( 'NONE', *, *, #54, .T. ) ;
#318 = DIRECTION ( 'NONE',  ( 0.0000000000000000000, 0.0000000000000000000, 1.000000000000000000 ) ) ;
#319 =( GEOMETRIC_REPRESENTATION_CONTEXT ( 3 ) GLOBAL_UNCERTAINTY_ASSIGNED_CONTEXT ( ( #625 ) ) GLOBAL_UNIT_ASSIGNED_CONTEXT ( ( #411, #49, #468 ) ) REPRESENTATION_CONTEXT ( 'NONE', 'WORKASPACE' ) );
#320 = LOCAL_TIME ( 15, 57, 49.00000000000000000, #337 ) ;
#321 = DIRECTION ( 'NONE',  ( -0.0000000000000000000, -0.0000000000000000000, -1.000000000000000000 ) ) ;
#322 = EDGE_LOOP ( 'NONE', ( #157, #491, #850, #696 ) ) ;
#323 = CARTESIAN_POINT ( 'NONE',  ( 5.000000000000000000, 15.00000000000000000, 2.500000000000000000 ) ) ;
#324 = ORIENTED_EDGE ( 'NONE', *, *, #339, .F. ) ;
#325 = VERTEX_POINT ( 'NONE', #942 ) ;
#326 = EDGE_CURVE ( 'NONE', #684, #440, #828, .T. ) ;
#327 = DIRECTION ( 'NONE',  ( -0.6305926250944656800, 0.7761140001162654100, 0.0000000000000000000 ) ) ;
#328 = CARTESIAN_POINT ( 'NONE',  ( 0.0000000000000000000, 23.74999999999999600, 2.500000000000000000 ) ) ;
#329 = CIRCLE ( 'NONE', #466, 12.25000000000000000 ) ;
#330 = FACE_OUTER_BOUND ( 'NONE', #322, .T. ) ;
#331 = ORIENTED_EDGE ( 'NONE', *, *, #694, .F. ) ;
#332 = CARTESIAN_POINT ( 'NONE',  ( 0.0000000000000000000, 23.74999999999999600, 2.500000000000000000 ) ) ;
#333 = EDGE_LOOP ( 'NONE', ( #365, #551, #231, #505 ) ) ;
#334 = CYLINDRICAL_SURFACE ( 'NONE', #250, 1.000000000000000000 ) ;
#335 = VERTEX_POINT ( 'NONE', #354 ) ;
#336 = CARTESIAN_POINT ( 'NONE',  ( 0.0000000000000000000, 23.74999999999999600, 2.500000000000000000 ) ) ;
#337 = COORDINATED_UNIVERSAL_TIME_OFFSET ( 1, 0, .AHEAD. ) ;
#338 = CARTESIAN_POINT ( 'NONE',  ( 5.000000000000000000, 15.00000000000000000, 0.0000000000000000000 ) ) ;
#339 = EDGE_CURVE ( 'NONE', #6, #895, #572, .T. ) ;
#340 = FACE_OUTER_BOUND ( 'NONE', #822, .T. ) ;
#341 = DIRECTION ( 'NONE',  ( 0.0000000000000000000, 0.0000000000000000000, 1.000000000000000000 ) ) ;
#342 = EDGE_LOOP ( 'NONE', ( #417, #239 ) ) ;
#343 = ORIENTED_EDGE ( 'NONE', *, *, #680, .F. ) ;
#344 = ORIENTED_EDGE ( 'NONE', *, *, #804, .F. ) ;
#345 = DIRECTION ( 'NONE',  ( -0.0000000000000000000, -0.0000000000000000000, -1.000000000000000000 ) ) ;
#346 = EDGE_CURVE ( 'NONE', #506, #589, #682, .T. ) ;
#347 = CARTESIAN_POINT ( 'NONE',  ( -6.000000000000000000, 19.49999999999999600, 2.500000000000000000 ) ) ;
#348 = LINE ( 'NONE', #902, #914 ) ;
#349 = DIRECTION ( 'NONE',  ( -0.0000000000000000000, -0.0000000000000000000, -1.000000000000000000 ) ) ;
#350 = FACE_OUTER_BOUND ( 'NONE', #840, .T. ) ;
#351 = ORIENTED_EDGE ( 'NONE', *, *, #315, .F. ) ;
#352 = ORIENTED_EDGE ( 'NONE', *, *, #86, .T. ) ;
#353 = DIRECTION ( 'NONE',  ( -0.0000000000000000000, -0.0000000000000000000, -1.000000000000000000 ) ) ;
#354 = CARTESIAN_POINT ( 'NONE',  ( 12.50000000000000000, -1.530808498934191300E-015, 2.500000000000000000 ) ) ;
#355 = EDGE_CURVE ( 'NONE', #881, #614, #512, .T. ) ;
#356 = AXIS2_PLACEMENT_3D ( 'NONE', #612, #832, #244 ) ;
#357 = PLANE ( 'NONE',  #126 ) ;
#358 = LOCAL_TIME ( 15, 57, 49.00000000000000000, #475 ) ;
#359 = ADVANCED_FACE ( 'NONE', ( #525 ), #453, .F. ) ;
#360 = CARTESIAN_POINT ( 'NONE',  ( -5.000000000000000000, 15.00000000000000000, 2.500000000000000000 ) ) ;
#361 = LINE ( 'NONE', #855, #3 ) ;
#362 = CARTESIAN_POINT ( 'NONE',  ( -12.50000000000000000, 6.499999999999998200, 0.0000000000000000000 ) ) ;
#363 = ORIENTED_EDGE ( 'NONE', *, *, #109, .T. ) ;
#364 = ORIENTED_EDGE ( 'NONE', *, *, #2, .F. ) ;
#365 = ORIENTED_EDGE ( 'NONE', *, *, #431, .F. ) ;
#366 = ORIENTED_EDGE ( 'NONE', *, *, #431, .T. ) ;
#367 = DIRECTION ( 'NONE',  ( 0.0000000000000000000, 0.0000000000000000000, 1.000000000000000000 ) ) ;
#368 = ADVANCED_FACE ( 'NONE', ( #350 ), #715, .F. ) ;
#369 = DIRECTION ( 'NONE',  ( 0.0000000000000000000, 1.000000000000000000, 0.0000000000000000000 ) ) ;
#370 = EDGE_CURVE ( 'NONE', #145, #881, #631, .T. ) ;
#371 = CALENDAR_DATE ( 2018, 4, 11 ) ;
#372 = CARTESIAN_POINT ( 'NONE',  ( 12.50000000000000000, 6.499999999999998200, 2.500000000000000000 ) ) ;
#373 = CIRCLE ( 'NONE', #471, 12.25000000000000000 ) ;
#374 = VERTEX_POINT ( 'NONE', #204 ) ;
#375 = ORIENTED_EDGE ( 'NONE', *, *, #804, .T. ) ;
#376 = AXIS2_PLACEMENT_3D ( 'NONE', #446, #885, #25 ) ;
#377 = ORIENTED_EDGE ( 'NONE', *, *, #598, .T. ) ;
#378 = LINE ( 'NONE', #85, #699 ) ;
#379 = DIRECTION ( 'NONE',  ( 1.000000000000000000, 0.0000000000000000000, 0.0000000000000000000 ) ) ;
#380 = DIRECTION ( 'NONE',  ( 0.0000000000000000000, 0.0000000000000000000, 1.000000000000000000 ) ) ;
#381 = APPROVAL_DATE_TIME ( #544, #432 ) ;
#382 = CARTESIAN_POINT ( 'NONE',  ( 5.000000000000000000, 19.49999999999999600, 2.500000000000000000 ) ) ;
#383 = ORIENTED_EDGE ( 'NONE', *, *, #580, .F. ) ;
#384 = EDGE_LOOP ( 'NONE', ( #405, #366, #904, #317 ) ) ;
#385 = EDGE_CURVE ( 'NONE', #251, #861, #672, .T. ) ;
#386 = EDGE_LOOP ( 'NONE', ( #538, #252, #240, #331 ) ) ;
#387 = DIRECTION ( 'NONE',  ( -0.0000000000000000000, -0.0000000000000000000, -1.000000000000000000 ) ) ;
#388 = AXIS2_PLACEMENT_3D ( 'NONE', #104, #32, #36 ) ;
#389 = CARTESIAN_POINT ( 'NONE',  ( 12.25000000000000000, 23.74999999999999600, 0.0000000000000000000 ) ) ;
#390 = CYLINDRICAL_SURFACE ( 'NONE', #27, 1.000000000000000000 ) ;
#391 = CARTESIAN_POINT ( 'NONE',  ( -9.250000000000000000, 15.71881079789549000, 2.500000000000000000 ) ) ;
#392 = AXIS2_PLACEMENT_3D ( 'NONE', #797, #5, #485 ) ;
#393 = VECTOR ( 'NONE', #700, 1000.000000000000000 ) ;
#394 = CIRCLE ( 'NONE', #61, 1.000000000000000000 ) ;
#395 = DIRECTION ( 'NONE',  ( -1.000000000000000000, 0.0000000000000000000, 0.0000000000000000000 ) ) ;
#396 = ORIENTED_EDGE ( 'NONE', *, *, #835, .F. ) ;
#397 = AXIS2_PLACEMENT_3D ( 'NONE', #823, #899, #182 ) ;
#398 = DIRECTION ( 'NONE',  ( -0.0000000000000000000, -1.000000000000000000, -0.0000000000000000000 ) ) ;
#399 = CALENDAR_DATE ( 2018, 4, 11 ) ;
#400 = DATE_TIME_ROLE ( 'classification_date' ) ;
#401 = EDGE_CURVE ( 'NONE', #526, #167, #361, .T. ) ;
#402 = APPLICATION_CONTEXT ( 'configuration controlled 3d designs of mechanical parts and assemblies' ) ;
#403 = CIRCLE ( 'NONE', #723, 1.000000000000000000 ) ;
#404 = EDGE_LOOP ( 'NONE', ( #776, #156 ) ) ;
#405 = ORIENTED_EDGE ( 'NONE', *, *, #897, .T. ) ;
#406 = CARTESIAN_POINT ( 'NONE',  ( -12.50000000000000000, -1.530808498934191300E-015, 0.0000000000000000000 ) ) ;
#407 = ORIENTED_EDGE ( 'NONE', *, *, #439, .F. ) ;
#408 = DIRECTION ( 'NONE',  ( 1.000000000000000000, 0.0000000000000000000, 0.0000000000000000000 ) ) ;
#409 = ORIENTED_EDGE ( 'NONE', *, *, #172, .F. ) ;
#410 = APPROVAL_STATUS ( 'not_yet_approved' ) ;
#411 =( LENGTH_UNIT ( ) NAMED_UNIT ( * ) SI_UNIT ( .MILLI., .METRE. ) );
#412 = LINE ( 'NONE', #744, #901 ) ;
#413 = DIRECTION ( 'NONE',  ( 1.000000000000000000, -0.0000000000000000000, -0.0000000000000000000 ) ) ;
#414 = VECTOR ( 'NONE', #19, 1000.000000000000000 ) ;
#415 = DIRECTION ( 'NONE',  ( 0.0000000000000000000, 0.0000000000000000000, 1.000000000000000000 ) ) ;
#416 = EDGE_LOOP ( 'NONE', ( #624, #698, #649, #564 ) ) ;
#417 = ORIENTED_EDGE ( 'NONE', *, *, #745, .T. ) ;
#418 = VECTOR ( 'NONE', #218, 1000.000000000000000 ) ;
#419 = AXIS2_PLACEMENT_3D ( 'NONE', #306, #888, #94 ) ;
#420 = DIRECTION ( 'NONE',  ( -0.0000000000000000000, -0.0000000000000000000, -1.000000000000000000 ) ) ;
#421 = DIRECTION ( 'NONE',  ( 0.0000000000000000000, 1.000000000000000000, 0.0000000000000000000 ) ) ;
#422 = CARTESIAN_POINT ( 'NONE',  ( -6.000000000000000000, 19.49999999999999600, 0.0000000000000000000 ) ) ;
#423 = EDGE_LOOP ( 'NONE', ( #265, #709 ) ) ;
#424 = AXIS2_PLACEMENT_3D ( 'NONE', #452, #754, #528 ) ;
#425 = EDGE_LOOP ( 'NONE', ( #810, #919 ) ) ;
#426 = CARTESIAN_POINT ( 'NONE',  ( -5.000000000000000000, 4.999999999999999100, 2.500000000000000000 ) ) ;
#427 = VERTEX_POINT ( 'NONE', #347 ) ;
#428 = EDGE_LOOP ( 'NONE', ( #124, #550, #601, #230 ) ) ;
#429 = ADVANCED_FACE ( 'NONE', ( #903 ), #647, .F. ) ;
#430 = CARTESIAN_POINT ( 'NONE',  ( -12.25000000000000000, 23.74999999999999600, 0.0000000000000000000 ) ) ;
#431 = EDGE_CURVE ( 'NONE', #894, #796, #153, .T. ) ;
#432 = APPROVAL ( #843, 'UNSPECIFIED' ) ;
#433 = CARTESIAN_POINT ( 'NONE',  ( 6.000000000000000900, 27.99999999999999600, 0.0000000000000000000 ) ) ;
#434 = VECTOR ( 'NONE', #369, 1000.000000000000000 ) ;
#435 = VECTOR ( 'NONE', #413, 1000.000000000000000 ) ;
#436 = CARTESIAN_POINT ( 'NONE',  ( 4.000000000000000900, 27.99999999999999600, 2.500000000000000000 ) ) ;
#437 = FACE_OUTER_BOUND ( 'NONE', #841, .T. ) ;
#438 = DIRECTION ( 'NONE',  ( -0.0000000000000000000, -0.0000000000000000000, -1.000000000000000000 ) ) ;
#439 = EDGE_CURVE ( 'NONE', #707, #605, #837, .T. ) ;
#440 = VERTEX_POINT ( 'NONE', #933 ) ;
#441 = VECTOR ( 'NONE', #716, 1000.000000000000100 ) ;
#442 = DIRECTION ( 'NONE',  ( 0.6305926250944656800, -0.7761140001162654100, 0.0000000000000000000 ) ) ;
#443 = CARTESIAN_POINT ( 'NONE',  ( -6.000000000000000900, 27.99999999999999600, 2.500000000000000000 ) ) ;
#444 = AXIS2_PLACEMENT_3D ( 'NONE', #628, #341, #58 ) ;
#445 = FACE_BOUND ( 'NONE', #131, .T. ) ;
#446 = CARTESIAN_POINT ( 'NONE',  ( 5.000000000000000000, 19.49999999999999600, 0.0000000000000000000 ) ) ;
#447 = VECTOR ( 'NONE', #496, 1000.000000000000000 ) ;
#448 = ORIENTED_EDGE ( 'NONE', *, *, #913, .T. ) ;
#449 = EDGE_CURVE ( 'NONE', #895, #171, #259, .T. ) ;
#450 = ORIENTED_EDGE ( 'NONE', *, *, #260, .T. ) ;
#451 = CC_DESIGN_APPROVAL ( #636, ( #784 ) ) ;
#452 = CARTESIAN_POINT ( 'NONE',  ( 0.0000000000000000000, 23.74999999999999600, 0.0000000000000000000 ) ) ;
#453 = PLANE ( 'NONE',  #504 ) ;
#454 = DIRECTION ( 'NONE',  ( -1.000000000000000000, 0.0000000000000000000, 0.0000000000000000000 ) ) ;
#455 = APPROVAL_PERSON_ORGANIZATION ( #844, #497, #931 ) ;
#456 = CIRCLE ( 'NONE', #217, 12.25000000000000000 ) ;
#457 = VECTOR ( 'NONE', #71, 1000.000000000000000 ) ;
#458 = CIRCLE ( 'NONE', #194, 1.000000000000000000 ) ;
#459 = EDGE_LOOP ( 'NONE', ( #303, #90, #615, #133 ) ) ;
#460 = EDGE_CURVE ( 'NONE', #145, #469, #719, .T. ) ;
#461 = FACE_OUTER_BOUND ( 'NONE', #893, .T. ) ;
#462 = CARTESIAN_POINT ( 'NONE',  ( -5.000000000000000000, 15.00000000000000000, 2.500000000000000000 ) ) ;
#463 = FACE_BOUND ( 'NONE', #386, .T. ) ;
#464 = CARTESIAN_POINT ( 'NONE',  ( 1.750000000000000400, 23.74999999999999600, 0.0000000000000000000 ) ) ;
#465 = CARTESIAN_POINT ( 'NONE',  ( -9.250000000000000000, 15.71881079789549000, 2.500000000000000000 ) ) ;
#466 = AXIS2_PLACEMENT_3D ( 'NONE', #332, #548, #836 ) ;
#467 = CIRCLE ( 'NONE', #301, 1.000000000000000000 ) ;
#468 =( NAMED_UNIT ( * ) SI_UNIT ( $, .STERADIAN. ) SOLID_ANGLE_UNIT ( ) );
#469 = VERTEX_POINT ( 'NONE', #773 ) ;
#470 = VERTEX_POINT ( 'NONE', #140 ) ;
#471 = AXIS2_PLACEMENT_3D ( 'NONE', #328, #121, #833 ) ;
#472 = DIRECTION ( 'NONE',  ( 0.0000000000000000000, 0.0000000000000000000, 1.000000000000000000 ) ) ;
#473 = CARTESIAN_POINT ( 'NONE',  ( 6.000000000000000000, 19.49999999999999600, 2.500000000000000000 ) ) ;
#474 = CARTESIAN_POINT ( 'NONE',  ( -5.000000000000000000, 4.999999999999999100, 2.500000000000000000 ) ) ;
#475 = COORDINATED_UNIVERSAL_TIME_OFFSET ( 1, 0, .AHEAD. ) ;
#476 = CYLINDRICAL_SURFACE ( 'NONE', #233, 12.25000000000000000 ) ;
#477 = AXIS2_PLACEMENT_3D ( 'NONE', #186, #321, #616 ) ;
#478 = ORIENTED_EDGE ( 'NONE', *, *, #932, .F. ) ;
#479 = VERTEX_POINT ( 'NONE', #782 ) ;
#480 = CARTESIAN_POINT ( 'NONE',  ( -12.50000000000000000, -1.530808498934191300E-015, 0.0000000000000000000 ) ) ;
#481 = ORIENTED_EDGE ( 'NONE', *, *, #112, .F. ) ;
#482 = APPROVAL_ROLE ( '' ) ;
#483 = EDGE_CURVE ( 'NONE', #374, #729, #234, .T. ) ;
#484 = CARTESIAN_POINT ( 'NONE',  ( 0.0000000000000000000, 23.74999999999999600, 0.0000000000000000000 ) ) ;
#485 = DIRECTION ( 'NONE',  ( -1.000000000000000000, 0.0000000000000000000, 0.0000000000000000000 ) ) ;
#486 = LINE ( 'NONE', #462, #40 ) ;
#487 = AXIS2_PLACEMENT_3D ( 'NONE', #502, #81, #560 ) ;
#488 = CYLINDRICAL_SURFACE ( 'NONE', #392, 1.000000000000000000 ) ;
#489 = VECTOR ( 'NONE', #815, 1000.000000000000000 ) ;
#490 = CARTESIAN_POINT ( 'NONE',  ( -1.750000000000000400, 23.74999999999999600, 2.500000000000000000 ) ) ;
#491 = ORIENTED_EDGE ( 'NONE', *, *, #668, .F. ) ;
#492 = ORIENTED_EDGE ( 'NONE', *, *, #326, .T. ) ;
#493 = VERTEX_POINT ( 'NONE', #79 ) ;
#494 = ORIENTED_EDGE ( 'NONE', *, *, #842, .T. ) ;
#495 = EDGE_CURVE ( 'NONE', #199, #589, #920, .T. ) ;
#496 = DIRECTION ( 'NONE',  ( -1.000000000000000000, -0.0000000000000000000, -0.0000000000000000000 ) ) ;
#497 = APPROVAL ( #410, 'UNSPECIFIED' ) ;
#498 = DIRECTION ( 'NONE',  ( 0.0000000000000000000, 0.0000000000000000000, 1.000000000000000000 ) ) ;
#499 = CARTESIAN_POINT ( 'NONE',  ( 5.000000000000000000, 15.00000000000000000, 2.500000000000000000 ) ) ;
#500 = DIRECTION ( 'NONE',  ( -1.000000000000000000, 0.0000000000000000000, 0.0000000000000000000 ) ) ;
#501 = PERSON_AND_ORGANIZATION ( #947, #825 ) ;
#502 = CARTESIAN_POINT ( 'NONE',  ( -5.000000000000000900, 27.99999999999999600, 2.500000000000000000 ) ) ;
#503 = VECTOR ( 'NONE', #52, 1000.000000000000000 ) ;
#504 = AXIS2_PLACEMENT_3D ( 'NONE', #721, #77, #318 ) ;
#505 = ORIENTED_EDGE ( 'NONE', *, *, #668, .T. ) ;
#506 = VERTEX_POINT ( 'NONE', #154 ) ;
#507 = CARTESIAN_POINT ( 'NONE',  ( -12.50000000000000000, -1.530808498934191300E-015, 2.500000000000000000 ) ) ;
#508 = ADVANCED_FACE ( 'NONE', ( #542 ), #148, .T. ) ;
#509 = CARTESIAN_POINT ( 'NONE',  ( -4.000000000000000000, 19.49999999999999600, 2.500000000000000000 ) ) ;
#510 = CARTESIAN_POINT ( 'NONE',  ( 4.000000000000000900, 27.99999999999999600, 0.0000000000000000000 ) ) ;
#511 = LINE ( 'NONE', #910, #582 ) ;
#512 = LINE ( 'NONE', #713, #457 ) ;
#513 = DIRECTION ( 'NONE',  ( 0.0000000000000000000, 0.0000000000000000000, 1.000000000000000000 ) ) ;
#514 = DIRECTION ( 'NONE',  ( -1.000000000000000000, 0.0000000000000000000, 0.0000000000000000000 ) ) ;
#515 = ORIENTED_EDGE ( 'NONE', *, *, #134, .T. ) ;
#516 = DIRECTION ( 'NONE',  ( 1.000000000000000000, -0.0000000000000000000, -0.0000000000000000000 ) ) ;
#517 = ORIENTED_EDGE ( 'NONE', *, *, #483, .T. ) ;
#518 = DIRECTION ( 'NONE',  ( -0.0000000000000000000, -0.0000000000000000000, -1.000000000000000000 ) ) ;
#519 = VERTEX_POINT ( 'NONE', #362 ) ;
#520 = CARTESIAN_POINT ( 'NONE',  ( 4.000000000000000000, 19.49999999999999600, 2.500000000000000000 ) ) ;
#521 = PLANE ( 'NONE',  #758 ) ;
#522 = AXIS2_PLACEMENT_3D ( 'NONE', #372, #883, #442 ) ;
#523 = CALENDAR_DATE ( 2018, 4, 11 ) ;
#524 = DIRECTION ( 'NONE',  ( 1.000000000000000000, 0.0000000000000000000, 0.0000000000000000000 ) ) ;
#525 = FACE_OUTER_BOUND ( 'NONE', #755, .T. ) ;
#526 = VERTEX_POINT ( 'NONE', #725 ) ;
#527 = EDGE_CURVE ( 'NONE', #479, #493, #278, .T. ) ;
#528 = DIRECTION ( 'NONE',  ( 1.000000000000000000, 0.0000000000000000000, 0.0000000000000000000 ) ) ;
#529 = ORIENTED_EDGE ( 'NONE', *, *, #309, .F. ) ;
#530 = CC_DESIGN_PERSON_AND_ORGANIZATION_ASSIGNMENT ( #736, #266, ( #784 ) ) ;
#531 = ORIENTED_EDGE ( 'NONE', *, *, #835, .T. ) ;
#532 = DIRECTION ( 'NONE',  ( -0.0000000000000000000, -0.0000000000000000000, -1.000000000000000000 ) ) ;
#533 = AXIS2_PLACEMENT_3D ( 'NONE', #795, #655, #727 ) ;
#534 = FACE_BOUND ( 'NONE', #312, .T. ) ;
#535 = DIRECTION ( 'NONE',  ( -1.000000000000000000, 0.0000000000000000000, 0.0000000000000000000 ) ) ;
#536 = DIRECTION ( 'NONE',  ( 0.0000000000000000000, 0.0000000000000000000, 1.000000000000000000 ) ) ;
#537 = FACE_BOUND ( 'NONE', #423, .T. ) ;
#538 = ORIENTED_EDGE ( 'NONE', *, *, #868, .F. ) ;
#539 = ORIENTED_EDGE ( 'NONE', *, *, #495, .F. ) ;
#540 = AXIS2_PLACEMENT_3D ( 'NONE', #645, #304, #10 ) ;
#541 = ORIENTED_EDGE ( 'NONE', *, *, #86, .F. ) ;
#542 = FACE_OUTER_BOUND ( 'NONE', #459, .T. ) ;
#543 = EDGE_CURVE ( 'NONE', #614, #243, #212, .T. ) ;
#544 = DATE_AND_TIME ( #150, #320 ) ;
#545 = CC_DESIGN_DATE_AND_TIME_ASSIGNMENT ( #178, #400, ( #751 ) ) ;
#546 = DATE_TIME_ROLE ( 'creation_date' ) ;
#547 = LINE ( 'NONE', #780, #273 ) ;
#548 = DIRECTION ( 'NONE',  ( 0.0000000000000000000, 0.0000000000000000000, 1.000000000000000000 ) ) ;
#549 = ORIENTED_EDGE ( 'NONE', *, *, #555, .F. ) ;
#550 = ORIENTED_EDGE ( 'NONE', *, *, #339, .T. ) ;
#551 = ORIENTED_EDGE ( 'NONE', *, *, #286, .F. ) ;
#552 = AXIS2_PLACEMENT_3D ( 'NONE', #136, #851, #415 ) ;
#553 = DIRECTION ( 'NONE',  ( -0.0000000000000000000, -0.0000000000000000000, -1.000000000000000000 ) ) ;
#554 = DATE_AND_TIME ( #569, #924 ) ;
#555 = EDGE_CURVE ( 'NONE', #335, #276, #316, .T. ) ;
#556 = FACE_OUTER_BOUND ( 'NONE', #652, .T. ) ;
#557 = CARTESIAN_POINT ( 'NONE',  ( -12.50000000000000000, 6.499999999999998200, 2.500000000000000000 ) ) ;
#558 = CIRCLE ( 'NONE', #533, 1.750000000000000400 ) ;
#559 = ORIENTED_EDGE ( 'NONE', *, *, #385, .T. ) ;
#560 = DIRECTION ( 'NONE',  ( 1.000000000000000000, 0.0000000000000000000, 0.0000000000000000000 ) ) ;
#561 = ORIENTED_EDGE ( 'NONE', *, *, #33, .F. ) ;
#562 = CARTESIAN_POINT ( 'NONE',  ( -5.000000000000000000, 4.999999999999999100, 2.500000000000000000 ) ) ;
#563 = VECTOR ( 'NONE', #353, 1000.000000000000000 ) ;
#564 = ORIENTED_EDGE ( 'NONE', *, *, #853, .T. ) ;
#565 = CC_DESIGN_PERSON_AND_ORGANIZATION_ASSIGNMENT ( #195, #839, ( #751 ) ) ;
#566 = DIRECTION ( 'NONE',  ( 0.0000000000000000000, 0.0000000000000000000, 1.000000000000000000 ) ) ;
#567 = LINE ( 'NONE', #283, #746 ) ;
#568 = CARTESIAN_POINT ( 'NONE',  ( 0.0000000000000000000, 23.74999999999999600, 2.500000000000000000 ) ) ;
#569 = CALENDAR_DATE ( 2018, 4, 11 ) ;
#570 = EDGE_CURVE ( 'NONE', #742, #199, #48, .T. ) ;
#571 = PLANE ( 'NONE',  #606 ) ;
#572 = LINE ( 'NONE', #656, #105 ) ;
#573 = CARTESIAN_POINT ( 'NONE',  ( 9.250000000000000000, 10.49999999999999800, 2.500000000000000000 ) ) ;
#574 = VERTEX_POINT ( 'NONE', #499 ) ;
#575 = DIRECTION ( 'NONE',  ( 1.000000000000000000, 0.0000000000000000000, 0.0000000000000000000 ) ) ;
#576 = ORIENTED_EDGE ( 'NONE', *, *, #179, .F. ) ;
#577 = ORIENTED_EDGE ( 'NONE', *, *, #222, .T. ) ;
#578 = CARTESIAN_POINT ( 'NONE',  ( 5.000000000000000900, 27.99999999999999600, 2.500000000000000000 ) ) ;
#579 = VERTEX_POINT ( 'NONE', #430 ) ;
#580 = EDGE_CURVE ( 'NONE', #440, #684, #787, .T. ) ;
#581 = CARTESIAN_POINT ( 'NONE',  ( 12.50000000000000000, 6.499999999999998200, 2.500000000000000000 ) ) ;
#582 = VECTOR ( 'NONE', #41, 1000.000000000000000 ) ;
#583 = CARTESIAN_POINT ( 'NONE',  ( 5.000000000000000000, 4.999999999999999100, 2.500000000000000000 ) ) ;
#584 = ADVANCED_FACE ( 'NONE', ( #461 ), #334, .F. ) ;
#585 = FACE_OUTER_BOUND ( 'NONE', #686, .T. ) ;
#586 = CARTESIAN_POINT ( 'NONE',  ( 5.000000000000000000, 19.49999999999999600, 2.500000000000000000 ) ) ;
#587 = AXIS2_PLACEMENT_3D ( 'NONE', #591, #173, #735 ) ;
#588 = LINE ( 'NONE', #26, #489 ) ;
#589 = VERTEX_POINT ( 'NONE', #877 ) ;
#590 = CARTESIAN_POINT ( 'NONE',  ( 5.000000000000000000, 4.999999999999999100, 0.0000000000000000000 ) ) ;
#591 = CARTESIAN_POINT ( 'NONE',  ( -5.000000000000000900, 27.99999999999999600, 0.0000000000000000000 ) ) ;
#592 = DIRECTION ( 'NONE',  ( -0.0000000000000000000, -0.0000000000000000000, -1.000000000000000000 ) ) ;
#593 = LINE ( 'NONE', #75, #418 ) ;
#594 = EDGE_CURVE ( 'NONE', #796, #242, #378, .T. ) ;
#595 = DIRECTION ( 'NONE',  ( -0.0000000000000000000, -0.0000000000000000000, -1.000000000000000000 ) ) ;
#596 = LOCAL_TIME ( 15, 57, 49.00000000000000000, #769 ) ;
#597 = CARTESIAN_POINT ( 'NONE',  ( 12.50000000000000000, -1.530808498934191300E-015, 2.500000000000000000 ) ) ;
#598 = EDGE_CURVE ( 'NONE', #68, #579, #593, .T. ) ;
#599 = CIRCLE ( 'NONE', #587, 1.000000000000000000 ) ;
#600 = AXIS2_PLACEMENT_3D ( 'NONE', #45, #688, #762 ) ;
#601 = ORIENTED_EDGE ( 'NONE', *, *, #879, .F. ) ;
#602 = VERTEX_POINT ( 'NONE', #573 ) ;
#603 = VERTEX_POINT ( 'NONE', #490 ) ;
#604 = CARTESIAN_POINT ( 'NONE',  ( 12.50000000000000000, 6.499999999999998200, 0.0000000000000000000 ) ) ;
#605 = VERTEX_POINT ( 'NONE', #214 ) ;
#606 = AXIS2_PLACEMENT_3D ( 'NONE', #149, #724, #74 ) ;
#607 = CIRCLE ( 'NONE', #376, 1.000000000000000000 ) ;
#608 = PLANE ( 'NONE',  #152 ) ;
#609 = FACE_BOUND ( 'NONE', #862, .T. ) ;
#610 = EDGE_LOOP ( 'NONE', ( #23, #717, #344, #181, #785, #478, #808, #287, #409, #798 ) ) ;
#611 = EDGE_CURVE ( 'NONE', #276, #602, #675, .T. ) ;
#612 = CARTESIAN_POINT ( 'NONE',  ( 0.0000000000000000000, 23.74999999999999600, 0.0000000000000000000 ) ) ;
#613 = ORIENTED_EDGE ( 'NONE', *, *, #38, .T. ) ;
#614 = VERTEX_POINT ( 'NONE', #507 ) ;
#615 = ORIENTED_EDGE ( 'NONE', *, *, #826, .T. ) ;
#616 = DIRECTION ( 'NONE',  ( -1.000000000000000000, 0.0000000000000000000, 0.0000000000000000000 ) ) ;
#617 = VECTOR ( 'NONE', #211, 1000.000000000000000 ) ;
#618 = PRODUCT_RELATED_PRODUCT_CATEGORY ( 'detail', '', ( #865 ) ) ;
#619 = CYLINDRICAL_SURFACE ( 'NONE', #174, 1.750000000000000400 ) ;
#620 = DIRECTION ( 'NONE',  ( 1.000000000000000000, 0.0000000000000000000, 0.0000000000000000000 ) ) ;
#621 = VERTEX_POINT ( 'NONE', #433 ) ;
#622 = ORIENTED_EDGE ( 'NONE', *, *, #227, .T. ) ;
#623 = APPROVAL_STATUS ( 'not_yet_approved' ) ;
#624 = ORIENTED_EDGE ( 'NONE', *, *, #932, .T. ) ;
#625 = UNCERTAINTY_MEASURE_WITH_UNIT (LENGTH_MEASURE( 1.000000000000000100E-005 ), #411, 'distance_accuracy_value', 'NONE');
#626 = CARTESIAN_POINT ( 'NONE',  ( -5.000000000000000000, 4.999999999999999100, 0.0000000000000000000 ) ) ;
#627 = EDGE_CURVE ( 'NONE', #21, #110, #567, .T. ) ;
#628 = CARTESIAN_POINT ( 'NONE',  ( 0.0000000000000000000, 23.74999999999999600, 0.0000000000000000000 ) ) ;
#629 = LINE ( 'NONE', #737, #434 ) ;
#630 = CARTESIAN_POINT ( 'NONE',  ( 0.0000000000000000000, 23.74999999999999600, 0.0000000000000000000 ) ) ;
#631 = LINE ( 'NONE', #926, #196 ) ;
#632 = PLANE ( 'NONE',  #444 ) ;
#633 = EDGE_LOOP ( 'NONE', ( #638, #940 ) ) ;
#634 = CARTESIAN_POINT ( 'NONE',  ( -4.000000000000000000, 19.49999999999999600, 2.500000000000000000 ) ) ;
#635 = ORIENTED_EDGE ( 'NONE', *, *, #179, .T. ) ;
#636 = APPROVAL ( #623, 'UNSPECIFIED' ) ;
#637 = APPLICATION_PROTOCOL_DEFINITION ( 'international standard', 'config_control_design', 1994, #402 ) ;
#638 = ORIENTED_EDGE ( 'NONE', *, *, #779, .F. ) ;
#639 = PLANE ( 'NONE',  #96 ) ;
#640 = FACE_OUTER_BOUND ( 'NONE', #765, .T. ) ;
#641 = APPLICATION_PROTOCOL_DEFINITION ( 'international standard', 'config_control_design', 1994, #206 ) ;
#642 = PLANE ( 'NONE',  #238 ) ;
#643 = EDGE_CURVE ( 'NONE', #147, #493, #812, .T. ) ;
#644 = FACE_OUTER_BOUND ( 'NONE', #778, .T. ) ;
#645 = CARTESIAN_POINT ( 'NONE',  ( -5.000000000000000900, 27.99999999999999600, 0.0000000000000000000 ) ) ;
#646 = CARTESIAN_POINT ( 'NONE',  ( -12.50000000000000000, -1.530808498934191300E-015, 2.500000000000000000 ) ) ;
#647 = CYLINDRICAL_SURFACE ( 'NONE', #161, 1.750000000000000400 ) ;
#648 = LINE ( 'NONE', #236, #89 ) ;
#649 = ORIENTED_EDGE ( 'NONE', *, *, #355, .F. ) ;
#650 = CARTESIAN_POINT ( 'NONE',  ( 5.000000000000000000, 4.999999999999999100, 2.500000000000000000 ) ) ;
#651 = ORIENTED_EDGE ( 'NONE', *, *, #80, .F. ) ;
#652 = EDGE_LOOP ( 'NONE', ( #492, #515, #117, #396 ) ) ;
#653 = AXIS2_PLACEMENT_3D ( 'NONE', #39, #253, #191 ) ;
#654 = DIRECTION ( 'NONE',  ( 1.000000000000000000, 0.0000000000000000000, 0.0000000000000000000 ) ) ;
#655 = DIRECTION ( 'NONE',  ( 0.0000000000000000000, 0.0000000000000000000, 1.000000000000000000 ) ) ;
#656 = CARTESIAN_POINT ( 'NONE',  ( 1.750000000000000400, 23.74999999999999600, 2.500000000000000000 ) ) ;
#657 = ADVANCED_FACE ( 'NONE', ( #24 ), #521, .F. ) ;
#658 = DIRECTION ( 'NONE',  ( -1.000000000000000000, 0.0000000000000000000, 0.0000000000000000000 ) ) ;
#659 = FACE_OUTER_BOUND ( 'NONE', #78, .T. ) ;
#660 = AXIS2_PLACEMENT_3D ( 'NONE', #289, #873, #658 ) ;
#661 = VECTOR ( 'NONE', #768, 1000.000000000000000 ) ;
#662 = CARTESIAN_POINT ( 'NONE',  ( 5.000000000000000000, 19.49999999999999600, 2.500000000000000000 ) ) ;
#663 = ORIENTED_EDGE ( 'NONE', *, *, #257, .T. ) ;
#664 = ADVANCED_FACE ( 'NONE', ( #640 ), #827, .F. ) ;
#665 = ORIENTED_EDGE ( 'NONE', *, *, #460, .F. ) ;
#666 = ORIENTED_EDGE ( 'NONE', *, *, #680, .T. ) ;
#667 = DIRECTION ( 'NONE',  ( -0.0000000000000000000, -0.0000000000000000000, -1.000000000000000000 ) ) ;
#668 = EDGE_CURVE ( 'NONE', #296, #796, #714, .T. ) ;
#669 = DIRECTION ( 'NONE',  ( 1.000000000000000000, 0.0000000000000000000, 0.0000000000000000000 ) ) ;
#670 = FACE_BOUND ( 'NONE', #7, .T. ) ;
#671 = DIRECTION ( 'NONE',  ( 1.000000000000000000, 0.0000000000000000000, 0.0000000000000000000 ) ) ;
#672 = CIRCLE ( 'NONE', #789, 12.25000000000000000 ) ;
#673 = VECTOR ( 'NONE', #11, 1000.000000000000000 ) ;
#674 = ORIENTED_EDGE ( 'NONE', *, *, #853, .F. ) ;
#675 = LINE ( 'NONE', #581, #441 ) ;
#676 = DIRECTION ( 'NONE',  ( -0.6305926250944656800, -0.7761140001162654100, -0.0000000000000000000 ) ) ;
#677 = DIRECTION ( 'NONE',  ( -0.0000000000000000000, -0.0000000000000000000, -1.000000000000000000 ) ) ;
#678 = LOCAL_TIME ( 15, 57, 49.00000000000000000, #216 ) ;
#679 = LINE ( 'NONE', #604, #282 ) ;
#680 = EDGE_CURVE ( 'NONE', #742, #506, #72, .T. ) ;
#681 = DIRECTION ( 'NONE',  ( 0.0000000000000000000, 0.0000000000000000000, 1.000000000000000000 ) ) ;
#682 = CIRCLE ( 'NONE', #540, 1.000000000000000000 ) ;
#683 = CC_DESIGN_DATE_AND_TIME_ASSIGNMENT ( #912, #546, ( #784 ) ) ;
#684 = VERTEX_POINT ( 'NONE', #436 ) ;
#685 = ORIENTED_EDGE ( 'NONE', *, *, #627, .T. ) ;
#686 = EDGE_LOOP ( 'NONE', ( #663, #665, #35, #685 ) ) ;
#687 = DIRECTION ( 'NONE',  ( 0.0000000000000000000, 0.0000000000000000000, 1.000000000000000000 ) ) ;
#688 = DIRECTION ( 'NONE',  ( -0.0000000000000000000, -0.0000000000000000000, -1.000000000000000000 ) ) ;
#689 = CARTESIAN_POINT ( 'NONE',  ( 9.250000000000000000, 15.71881079789549000, 2.500000000000000000 ) ) ;
#690 = AXIS2_PLACEMENT_3D ( 'NONE', #298, #164, #669 ) ;
#691 = LINE ( 'NONE', #406, #887 ) ;
#692 = CARTESIAN_POINT ( 'NONE',  ( -6.000000000000000000, 19.49999999999999600, 2.500000000000000000 ) ) ;
#693 = LINE ( 'NONE', #801, #673 ) ;
#694 = EDGE_CURVE ( 'NONE', #296, #574, #629, .T. ) ;
#695 = DIRECTION ( 'NONE',  ( -0.0000000000000000000, -0.0000000000000000000, -1.000000000000000000 ) ) ;
#696 = ORIENTED_EDGE ( 'NONE', *, *, #185, .T. ) ;
#697 = ORIENTED_EDGE ( 'NONE', *, *, #527, .F. ) ;
#698 = ORIENTED_EDGE ( 'NONE', *, *, #543, .F. ) ;
#699 = VECTOR ( 'NONE', #421, 1000.000000000000000 ) ;
#700 = DIRECTION ( 'NONE',  ( 0.0000000000000000000, -1.000000000000000000, 0.0000000000000000000 ) ) ;
#701 = EDGE_CURVE ( 'NONE', #707, #427, #60, .T. ) ;
#702 = DIRECTION ( 'NONE',  ( 1.000000000000000000, 0.0000000000000000000, 0.0000000000000000000 ) ) ;
#703 = CC_DESIGN_APPROVAL ( #497, ( #751 ) ) ;
#704 = CYLINDRICAL_SURFACE ( 'NONE', #653, 1.000000000000000000 ) ;
#705 = DIRECTION ( 'NONE',  ( -0.0000000000000000000, -1.000000000000000000, -0.0000000000000000000 ) ) ;
#706 = FACE_BOUND ( 'NONE', #404, .T. ) ;
#707 = VERTEX_POINT ( 'NONE', #509 ) ;
#708 = AXIS2_PLACEMENT_3D ( 'NONE', #294, #802, #160 ) ;
#709 = ORIENTED_EDGE ( 'NONE', *, *, #112, .T. ) ;
#710 = DIRECTION ( 'NONE',  ( -1.000000000000000000, 0.0000000000000000000, 0.0000000000000000000 ) ) ;
#711 = CARTESIAN_POINT ( 'NONE',  ( 5.000000000000000000, 4.999999999999999100, 0.0000000000000000000 ) ) ;
#712 = EDGE_CURVE ( 'NONE', #793, #621, #258, .T. ) ;
#713 = CARTESIAN_POINT ( 'NONE',  ( -12.50000000000000000, -1.530808498934191300E-015, 2.500000000000000000 ) ) ;
#714 = LINE ( 'NONE', #583, #806 ) ;
#715 = PLANE ( 'NONE',  #552 ) ;
#716 = DIRECTION ( 'NONE',  ( -0.6305926250944656800, 0.7761140001162654100, 0.0000000000000000000 ) ) ;
#717 = ORIENTED_EDGE ( 'NONE', *, *, #38, .F. ) ;
#718 = CARTESIAN_POINT ( 'NONE',  ( -12.25000000000000000, 23.74999999999999600, 2.500000000000000000 ) ) ;
#719 = LINE ( 'NONE', #268, #852 ) ;
#720 = DIRECTION ( 'NONE',  ( -0.0000000000000000000, -0.0000000000000000000, -1.000000000000000000 ) ) ;
#721 = CARTESIAN_POINT ( 'NONE',  ( 12.50000000000000000, -1.530808498934191300E-015, 2.500000000000000000 ) ) ;
#722 = CARTESIAN_POINT ( 'NONE',  ( -5.000000000000000000, 19.49999999999999600, 0.0000000000000000000 ) ) ;
#723 = AXIS2_PLACEMENT_3D ( 'NONE', #722, #225, #575 ) ;
#724 = DIRECTION ( 'NONE',  ( -1.000000000000000000, 0.0000000000000000000, 0.0000000000000000000 ) ) ;
#725 = CARTESIAN_POINT ( 'NONE',  ( 12.50000000000000000, -1.530808498934191300E-015, 0.0000000000000000000 ) ) ;
#726 = FACE_OUTER_BOUND ( 'NONE', #743, .T. ) ;
#727 = DIRECTION ( 'NONE',  ( 1.000000000000000000, 0.0000000000000000000, 0.0000000000000000000 ) ) ;
#728 = EDGE_LOOP ( 'NONE', ( #207, #529, #517, #767 ) ) ;
#729 = VERTEX_POINT ( 'NONE', #882 ) ;
#730 = DIRECTION ( 'NONE',  ( -1.000000000000000000, 0.0000000000000000000, 0.0000000000000000000 ) ) ;
#731 = EDGE_CURVE ( 'NONE', #427, #707, #818, .T. ) ;
#732 = DIRECTION ( 'NONE',  ( -0.0000000000000000000, -0.0000000000000000000, -1.000000000000000000 ) ) ;
#733 = AXIS2_PLACEMENT_3D ( 'NONE', #777, #472, #702 ) ;
#734 = DIRECTION ( 'NONE',  ( -1.000000000000000000, 0.0000000000000000000, 0.0000000000000000000 ) ) ;
#735 = DIRECTION ( 'NONE',  ( 1.000000000000000000, 0.0000000000000000000, 0.0000000000000000000 ) ) ;
#736 = PERSON_AND_ORGANIZATION ( #947, #825 ) ;
#737 = CARTESIAN_POINT ( 'NONE',  ( 5.000000000000000000, 4.999999999999999100, 2.500000000000000000 ) ) ;
#738 = CIRCLE ( 'NONE', #356, 12.25000000000000000 ) ;
#739 = DIRECTION ( 'NONE',  ( 0.0000000000000000000, 0.0000000000000000000, 1.000000000000000000 ) ) ;
#740 = CC_DESIGN_APPROVAL ( #432, ( #91 ) ) ;
#741 = FACE_BOUND ( 'NONE', #384, .T. ) ;
#742 = VERTEX_POINT ( 'NONE', #814 ) ;
#743 = EDGE_LOOP ( 'NONE', ( #849, #56, #878, #343 ) ) ;
#744 = CARTESIAN_POINT ( 'NONE',  ( 9.250000000000000000, 10.49999999999999800, 2.500000000000000000 ) ) ;
#745 = EDGE_CURVE ( 'NONE', #493, #479, #607, .T. ) ;
#746 = VECTOR ( 'NONE', #720, 1000.000000000000000 ) ;
#747 = CARTESIAN_POINT ( 'NONE',  ( 9.250000000000000000, 15.71881079789549000, 2.500000000000000000 ) ) ;
#748 = DIRECTION ( 'NONE',  ( -0.0000000000000000000, -0.0000000000000000000, -1.000000000000000000 ) ) ;
#749 = PERSON_AND_ORGANIZATION ( #947, #825 ) ;
#750 = ADVANCED_FACE ( 'NONE', ( #114 ), #619, .F. ) ;
#751 = SECURITY_CLASSIFICATION ( '', '', #129 ) ;
#752 = VERTEX_POINT ( 'NONE', #891 ) ;
#753 = DIRECTION ( 'NONE',  ( -1.000000000000000000, -0.0000000000000000000, -0.0000000000000000000 ) ) ;
#754 = DIRECTION ( 'NONE',  ( 0.0000000000000000000, 0.0000000000000000000, 1.000000000000000000 ) ) ;
#755 = EDGE_LOOP ( 'NONE', ( #918, #880, #144, #756 ) ) ;
#756 = ORIENTED_EDGE ( 'NONE', *, *, #543, .T. ) ;
#757 = ORIENTED_EDGE ( 'NONE', *, *, #580, .T. ) ;
#758 = AXIS2_PLACEMENT_3D ( 'NONE', #747, #734, #169 ) ;
#759 = COORDINATED_UNIVERSAL_TIME_OFFSET ( 1, 0, .AHEAD. ) ;
#760 = CIRCLE ( 'NONE', #47, 1.000000000000000000 ) ;
#761 = EDGE_CURVE ( 'NONE', #602, #31, #412, .T. ) ;
#762 = DIRECTION ( 'NONE',  ( -1.000000000000000000, 0.0000000000000000000, 0.0000000000000000000 ) ) ;
#763 = VECTOR ( 'NONE', #553, 1000.000000000000000 ) ;
#764 = ORIENTED_EDGE ( 'NONE', *, *, #913, .F. ) ;
#765 = EDGE_LOOP ( 'NONE', ( #219, #757, #531, #220 ) ) ;
#766 = EDGE_LOOP ( 'NONE', ( #324, #76, #450, #155 ) ) ;
#767 = ORIENTED_EDGE ( 'NONE', *, *, #286, .T. ) ;
#768 = DIRECTION ( 'NONE',  ( -0.0000000000000000000, -0.0000000000000000000, -1.000000000000000000 ) ) ;
#769 = COORDINATED_UNIVERSAL_TIME_OFFSET ( 1, 0, .AHEAD. ) ;
#770 = DIRECTION ( 'NONE',  ( 0.0000000000000000000, 0.0000000000000000000, 1.000000000000000000 ) ) ;
#771 = CARTESIAN_POINT ( 'NONE',  ( 9.250000000000000000, 15.71881079789549000, 2.500000000000000000 ) ) ;
#772 = ORIENTED_EDGE ( 'NONE', *, *, #731, .F. ) ;
#773 = CARTESIAN_POINT ( 'NONE',  ( -9.250000000000000000, 10.49999999999999800, 0.0000000000000000000 ) ) ;
#774 = CLOSED_SHELL ( 'NONE', ( #884, #805, #869, #295, #750, #14, #876, #816, #290, #871, #226, #229, #158, #359, #368, #100, #657, #305, #302, #310, #508, #429, #175, #811, #584, #664 ) ) ;
#775 = PERSON_AND_ORGANIZATION_ROLE ( 'design_supplier' ) ;
#776 = ORIENTED_EDGE ( 'NONE', *, *, #879, .T. ) ;
#777 = CARTESIAN_POINT ( 'NONE',  ( 0.0000000000000000000, 0.0000000000000000000, 0.0000000000000000000 ) ) ;
#778 = EDGE_LOOP ( 'NONE', ( #909, #377, #180, #44 ) ) ;
#779 = EDGE_CURVE ( 'NONE', #603, #6, #781, .T. ) ;
#780 = CARTESIAN_POINT ( 'NONE',  ( -9.250000000000000000, 15.71881079789549000, 0.0000000000000000000 ) ) ;
#781 = CIRCLE ( 'NONE', #690, 1.750000000000000400 ) ;
#782 = CARTESIAN_POINT ( 'NONE',  ( 6.000000000000000000, 19.49999999999999600, 0.0000000000000000000 ) ) ;
#783 = LINE ( 'NONE', #771, #205 ) ;
#784 = PRODUCT_DEFINITION ( 'UNKNOWN', '', #91, #946 ) ;
#785 = ORIENTED_EDGE ( 'NONE', *, *, #101, .F. ) ;
#786 = VECTOR ( 'NONE', #349, 1000.000000000000000 ) ;
#787 = CIRCLE ( 'NONE', #708, 1.000000000000000000 ) ;
#788 = CARTESIAN_POINT ( 'NONE',  ( 4.000000000000000000, 19.49999999999999600, 2.500000000000000000 ) ) ;
#789 = AXIS2_PLACEMENT_3D ( 'NONE', #630, #200, #408 ) ;
#790 = DIRECTION ( 'NONE',  ( -1.000000000000000000, 0.0000000000000000000, 0.0000000000000000000 ) ) ;
#791 = VECTOR ( 'NONE', #944, 1000.000000000000000 ) ;
#792 = CARTESIAN_POINT ( 'NONE',  ( 12.50000000000000000, -1.530808498934191300E-015, 2.500000000000000000 ) ) ;
#793 = VERTEX_POINT ( 'NONE', #510 ) ;
#794 = EDGE_CURVE ( 'NONE', #469, #519, #103, .T. ) ;
#795 = CARTESIAN_POINT ( 'NONE',  ( 0.0000000000000000000, 23.74999999999999600, 2.500000000000000000 ) ) ;
#796 = VERTEX_POINT ( 'NONE', #590 ) ;
#797 = CARTESIAN_POINT ( 'NONE',  ( -5.000000000000000900, 27.99999999999999600, 2.500000000000000000 ) ) ;
#798 = ORIENTED_EDGE ( 'NONE', *, *, #809, .F. ) ;
#799 = DIRECTION ( 'NONE',  ( 0.0000000000000000000, -0.0000000000000000000, -1.000000000000000000 ) ) ;
#800 = PRODUCT_DEFINITION_SHAPE ( 'NONE', 'NONE',  #784 ) ;
#801 = CARTESIAN_POINT ( 'NONE',  ( 9.250000000000000000, 15.71881079789549000, 0.0000000000000000000 ) ) ;
#802 = DIRECTION ( 'NONE',  ( 0.0000000000000000000, 0.0000000000000000000, 1.000000000000000000 ) ) ;
#803 = CARTESIAN_POINT ( 'NONE',  ( 5.000000000000000000, 19.49999999999999600, 2.500000000000000000 ) ) ;
#804 = EDGE_CURVE ( 'NONE', #167, #31, #679, .T. ) ;
#805 = ADVANCED_FACE ( 'NONE', ( #13 ), #390, .F. ) ;
#806 = VECTOR ( 'NONE', #592, 1000.000000000000000 ) ;
#807 = LINE ( 'NONE', #692, #889 ) ;
#808 = ORIENTED_EDGE ( 'NONE', *, *, #794, .F. ) ;
#809 = EDGE_CURVE ( 'NONE', #861, #579, #738, .T. ) ;
#810 = ORIENTED_EDGE ( 'NONE', *, *, #208, .T. ) ;
#811 = ADVANCED_FACE ( 'NONE', ( #856 ), #163, .F. ) ;
#812 = LINE ( 'NONE', #788, #563 ) ;
#813 = EDGE_LOOP ( 'NONE', ( #613, #168, #288, #17 ) ) ;
#814 = CARTESIAN_POINT ( 'NONE',  ( -6.000000000000000900, 27.99999999999999600, 2.500000000000000000 ) ) ;
#815 = DIRECTION ( 'NONE',  ( -0.0000000000000000000, -0.0000000000000000000, -1.000000000000000000 ) ) ;
#816 = ADVANCED_FACE ( 'NONE', ( #445, #670, #463, #228, #92, #247, #534 ), #608, .T. ) ;
#817 = CARTESIAN_POINT ( 'NONE',  ( 0.0000000000000000000, 23.74999999999999600, 2.500000000000000000 ) ) ;
#818 = CIRCLE ( 'NONE', #73, 1.000000000000000000 ) ;
#819 = CIRCLE ( 'NONE', #424, 12.25000000000000000 ) ;
#820 = CARTESIAN_POINT ( 'NONE',  ( -1.750000000000000400, 23.74999999999999600, 0.0000000000000000000 ) ) ;
#821 = ORIENTED_EDGE ( 'NONE', *, *, #439, .T. ) ;
#822 = EDGE_LOOP ( 'NONE', ( #929, #674, #223, #118 ) ) ;
#823 = CARTESIAN_POINT ( 'NONE',  ( -12.50000000000000000, -1.530808498934191300E-015, 2.500000000000000000 ) ) ;
#824 = CARTESIAN_POINT ( 'NONE',  ( -12.50000000000000000, 6.499999999999998200, 2.500000000000000000 ) ) ;
#825 = ORGANIZATION ( 'UNSPECIFIED', 'UNSPECIFIED', '' ) ;
#826 = EDGE_CURVE ( 'NONE', #574, #374, #486, .T. ) ;
#827 = CYLINDRICAL_SURFACE ( 'NONE', #419, 1.000000000000000000 ) ;
#828 = CIRCLE ( 'NONE', #892, 1.000000000000000000 ) ;
#829 = LINE ( 'NONE', #323, #64 ) ;
#830 = DIRECTION ( 'NONE',  ( 1.000000000000000000, 0.0000000000000000000, -0.0000000000000000000 ) ) ;
#831 = ORIENTED_EDGE ( 'NONE', *, *, #355, .T. ) ;
#832 = DIRECTION ( 'NONE',  ( 0.0000000000000000000, 0.0000000000000000000, 1.000000000000000000 ) ) ;
#833 = DIRECTION ( 'NONE',  ( 1.000000000000000000, 0.0000000000000000000, 0.0000000000000000000 ) ) ;
#834 = FACE_OUTER_BOUND ( 'NONE', #197, .T. ) ;
#835 = EDGE_CURVE ( 'NONE', #684, #793, #511, .T. ) ;
#836 = DIRECTION ( 'NONE',  ( 1.000000000000000000, 0.0000000000000000000, 0.0000000000000000000 ) ) ;
#837 = LINE ( 'NONE', #634, #786 ) ;
#838 = LINE ( 'NONE', #300, #938 ) ;
#839 = PERSON_AND_ORGANIZATION_ROLE ( 'classification_officer' ) ;
#840 = EDGE_LOOP ( 'NONE', ( #135, #866, #549, #142 ) ) ;
#841 = EDGE_LOOP ( 'NONE', ( #375, #941, #65, #264 ) ) ;
#842 = EDGE_CURVE ( 'NONE', #621, #793, #760, .T. ) ;
#843 = APPROVAL_STATUS ( 'not_yet_approved' ) ;
#844 = PERSON_AND_ORGANIZATION ( #947, #825 ) ;
#845 = LINE ( 'NONE', #824, #203 ) ;
#846 = APPROVAL_ROLE ( '' ) ;
#847 = AXIS2_PLACEMENT_3D ( 'NONE', #568, #732, #500 ) ;
#848 = DIRECTION ( 'NONE',  ( 0.0000000000000000000, 1.000000000000000000, 0.0000000000000000000 ) ) ;
#849 = ORIENTED_EDGE ( 'NONE', *, *, #570, .T. ) ;
#850 = ORIENTED_EDGE ( 'NONE', *, *, #694, .T. ) ;
#851 = DIRECTION ( 'NONE',  ( -1.000000000000000000, 0.0000000000000000000, 0.0000000000000000000 ) ) ;
#852 = VECTOR ( 'NONE', #277, 1000.000000000000000 ) ;
#853 = EDGE_CURVE ( 'NONE', #881, #519, #845, .T. ) ;
#854 = CARTESIAN_POINT ( 'NONE',  ( 5.000000000000000000, 4.999999999999999100, 2.500000000000000000 ) ) ;
#855 = CARTESIAN_POINT ( 'NONE',  ( 12.50000000000000000, -1.530808498934191300E-015, 0.0000000000000000000 ) ) ;
#856 = FACE_OUTER_BOUND ( 'NONE', #313, .T. ) ;
#857 = CIRCLE ( 'NONE', #487, 1.000000000000000000 ) ;
#858 = CYLINDRICAL_SURFACE ( 'NONE', #847, 12.25000000000000000 ) ;
#859 = CARTESIAN_POINT ( 'NONE',  ( 12.50000000000000000, 6.499999999999998200, 2.500000000000000000 ) ) ;
#860 = CC_DESIGN_PERSON_AND_ORGANIZATION_ASSIGNMENT ( #872, #50, ( #91 ) ) ;
#861 = VERTEX_POINT ( 'NONE', #389 ) ;
#862 = EDGE_LOOP ( 'NONE', ( #285, #494 ) ) ;
#863 = DIRECTION ( 'NONE',  ( -0.0000000000000000000, -0.0000000000000000000, -1.000000000000000000 ) ) ;
#864 = ORIENTED_EDGE ( 'NONE', *, *, #701, .F. ) ;
#865 = PRODUCT ( 'camera_mount_1_Domyúlna_sldprt', 'camera_mount_1_Domyúlna_sldprt', '', ( #66 ) ) ;
#866 = ORIENTED_EDGE ( 'NONE', *, *, #70, .F. ) ;
#867 = DIRECTION ( 'NONE',  ( 0.0000000000000000000, 1.000000000000000000, 0.0000000000000000000 ) ) ;
#868 = EDGE_CURVE ( 'NONE', #729, #296, #348, .T. ) ;
#869 = ADVANCED_FACE ( 'NONE', ( #659 ), #138, .F. ) ;
#870 = DIRECTION ( 'NONE',  ( 0.0000000000000000000, 0.0000000000000000000, -1.000000000000000000 ) ) ;
#871 = ADVANCED_FACE ( 'NONE', ( #834 ), #237, .T. ) ;
#872 = PERSON_AND_ORGANIZATION ( #947, #825 ) ;
#873 = DIRECTION ( 'NONE',  ( 0.0000000000000000000, 0.0000000000000000000, 1.000000000000000000 ) ) ;
#874 = VECTOR ( 'NONE', #667, 1000.000000000000000 ) ;
#875 = CARTESIAN_POINT ( 'NONE',  ( -9.250000000000000000, 15.71881079789549000, 2.500000000000000000 ) ) ;
#876 = ADVANCED_FACE ( 'NONE', ( #644 ), #476, .T. ) ;
#877 = CARTESIAN_POINT ( 'NONE',  ( -4.000000000000000900, 27.99999999999999600, 0.0000000000000000000 ) ) ;
#878 = ORIENTED_EDGE ( 'NONE', *, *, #346, .F. ) ;
#879 = EDGE_CURVE ( 'NONE', #171, #895, #128, .T. ) ;
#880 = ORIENTED_EDGE ( 'NONE', *, *, #119, .F. ) ;
#881 = VERTEX_POINT ( 'NONE', #906 ) ;
#882 = CARTESIAN_POINT ( 'NONE',  ( -5.000000000000000000, 4.999999999999999100, 2.500000000000000000 ) ) ;
#883 = DIRECTION ( 'NONE',  ( -0.7761140001162655200, -0.6305926250944657900, 0.0000000000000000000 ) ) ;
#884 = ADVANCED_FACE ( 'NONE', ( #556 ), #704, .F. ) ;
#885 = DIRECTION ( 'NONE',  ( 0.0000000000000000000, 0.0000000000000000000, 1.000000000000000000 ) ) ;
#886 = DIRECTION ( 'NONE',  ( -1.000000000000000000, 0.0000000000000000000, 0.0000000000000000000 ) ) ;
#887 = VECTOR ( 'NONE', #705, 1000.000000000000000 ) ;
#888 = DIRECTION ( 'NONE',  ( -0.0000000000000000000, -0.0000000000000000000, -1.000000000000000000 ) ) ;
#889 = VECTOR ( 'NONE', #922, 1000.000000000000000 ) ;
#890 = ORIENTED_EDGE ( 'NONE', *, *, #809, .T. ) ;
#891 = CARTESIAN_POINT ( 'NONE',  ( -5.000000000000000000, 15.00000000000000000, 0.0000000000000000000 ) ) ;
#892 = AXIS2_PLACEMENT_3D ( 'NONE', #578, #498, #291 ) ;
#893 = EDGE_LOOP ( 'NONE', ( #123, #255, #267, #697 ) ) ;
#894 = VERTEX_POINT ( 'NONE', #626 ) ;
#895 = VERTEX_POINT ( 'NONE', #464 ) ;
#896 = ADVANCED_BREP_SHAPE_REPRESENTATION ( 'camera_mount_1_Domyùlna_sldprt', ( #184, #733 ), #319 ) ;
#897 = EDGE_CURVE ( 'NONE', #752, #894, #293, .T. ) ;
#898 = CARTESIAN_POINT ( 'NONE',  ( 5.000000000000000900, 27.99999999999999600, 0.0000000000000000000 ) ) ;
#899 = DIRECTION ( 'NONE',  ( 1.000000000000000000, 0.0000000000000000000, 0.0000000000000000000 ) ) ;
#900 = AXIS2_PLACEMENT_3D ( 'NONE', #176, #513, #379 ) ;
#901 = VECTOR ( 'NONE', #518, 1000.000000000000000 ) ;
#902 = CARTESIAN_POINT ( 'NONE',  ( 5.000000000000000000, 4.999999999999999100, 2.500000000000000000 ) ) ;
#903 = FACE_OUTER_BOUND ( 'NONE', #766, .T. ) ;
#904 = ORIENTED_EDGE ( 'NONE', *, *, #594, .T. ) ;
#905 = EDGE_LOOP ( 'NONE', ( #772, #864 ) ) ;
#906 = CARTESIAN_POINT ( 'NONE',  ( -12.50000000000000000, 6.499999999999998200, 2.500000000000000000 ) ) ;
#907 = CARTESIAN_POINT ( 'NONE',  ( -1.750000000000000400, 23.74999999999999600, 2.500000000000000000 ) ) ;
#908 = AXIS2_PLACEMENT_3D ( 'NONE', #391, #911, #62 ) ;
#909 = ORIENTED_EDGE ( 'NONE', *, *, #925, .F. ) ;
#910 = CARTESIAN_POINT ( 'NONE',  ( 4.000000000000000900, 27.99999999999999600, 2.500000000000000000 ) ) ;
#911 = DIRECTION ( 'NONE',  ( 1.000000000000000000, 0.0000000000000000000, -0.0000000000000000000 ) ) ;
#912 = DATE_AND_TIME ( #523, #596 ) ;
#913 = EDGE_CURVE ( 'NONE', #209, #68, #329, .T. ) ;
#914 = VECTOR ( 'NONE', #915, 1000.000000000000000 ) ;
#915 = DIRECTION ( 'NONE',  ( 1.000000000000000000, -0.0000000000000000000, -0.0000000000000000000 ) ) ;
#916 = FACE_OUTER_BOUND ( 'NONE', #333, .T. ) ;
#917 = ORIENTED_EDGE ( 'NONE', *, *, #555, .T. ) ;
#918 = ORIENTED_EDGE ( 'NONE', *, *, #101, .T. ) ;
#919 = ORIENTED_EDGE ( 'NONE', *, *, #2, .T. ) ;
#920 = LINE ( 'NONE', #63, #254 ) ;
#921 = ORIENTED_EDGE ( 'NONE', *, *, #326, .F. ) ;
#922 = DIRECTION ( 'NONE',  ( -0.0000000000000000000, -0.0000000000000000000, -1.000000000000000000 ) ) ;
#923 = DIRECTION ( 'NONE',  ( 0.0000000000000000000, -1.000000000000000000, 0.0000000000000000000 ) ) ;
#924 = LOCAL_TIME ( 15, 57, 49.00000000000000000, #759 ) ;
#925 = EDGE_CURVE ( 'NONE', #68, #21, #456, .T. ) ;
#926 = CARTESIAN_POINT ( 'NONE',  ( -12.50000000000000000, 6.499999999999998200, 2.500000000000000000 ) ) ;
#927 = LINE ( 'NONE', #473, #42 ) ;
#928 = ORIENTED_EDGE ( 'NONE', *, *, #643, .F. ) ;
#929 = ORIENTED_EDGE ( 'NONE', *, *, #794, .T. ) ;
#930 = CARTESIAN_POINT ( 'NONE',  ( 9.250000000000000000, 15.71881079789549000, 0.0000000000000000000 ) ) ;
#931 = APPROVAL_ROLE ( '' ) ;
#932 = EDGE_CURVE ( 'NONE', #519, #243, #691, .T. ) ;
#933 = CARTESIAN_POINT ( 'NONE',  ( 6.000000000000000900, 27.99999999999999600, 2.500000000000000000 ) ) ;
#934 = DIRECTION ( 'NONE',  ( -0.0000000000000000000, 1.000000000000000000, -0.0000000000000000000 ) ) ;
#935 = VECTOR ( 'NONE', #676, 1000.000000000000100 ) ;
#936 = FACE_OUTER_BOUND ( 'NONE', #610, .T. ) ;
#937 = CC_DESIGN_PERSON_AND_ORGANIZATION_ASSIGNMENT ( #501, #137, ( #865 ) ) ;
#938 = VECTOR ( 'NONE', #516, 1000.000000000000000 ) ;
#939 = DIRECTION ( 'NONE',  ( 1.000000000000000000, 0.0000000000000000000, 0.0000000000000000000 ) ) ;
#940 = ORIENTED_EDGE ( 'NONE', *, *, #18, .F. ) ;
#941 = ORIENTED_EDGE ( 'NONE', *, *, #761, .F. ) ;
#942 = CARTESIAN_POINT ( 'NONE',  ( 6.000000000000000000, 19.49999999999999600, 2.500000000000000000 ) ) ;
#943 = DIRECTION ( 'NONE',  ( -0.0000000000000000000, -0.0000000000000000000, -1.000000000000000000 ) ) ;
#944 = DIRECTION ( 'NONE',  ( -0.0000000000000000000, -0.0000000000000000000, -1.000000000000000000 ) ) ;
#945 = AXIS2_PLACEMENT_3D ( 'NONE', #484, #279, #939 ) ;
#946 = DESIGN_CONTEXT ( 'detailed design', #206, 'design' ) ;
#947 = PERSON ( 'UNSPECIFIED', 'UNSPECIFIED', 'UNSPECIFIED', ('UNSPECIFIED'), ('UNSPECIFIED'), ('UNSPECIFIED') ) ;
ENDSEC;
END-ISO-10303-21;
