ISO-10303-21;
HEADER;
FILE_DESCRIPTION (( 'STEP AP203' ),
    '1' );
FILE_NAME ('pitch_motor_rotor_Domyúlna_sldprt.STEP',
    '2018-11-04T14:57:51',
    ( '' ),
    ( '' ),
    'SwSTEP 2.0',
    'SolidWorks 2016',
    '' );
FILE_SCHEMA (( 'CONFIG_CONTROL_DESIGN' ));
ENDSEC;

DATA;
#1 = CC_DESIGN_PERSON_AND_ORGANIZATION_ASSIGNMENT ( #113, #50, ( #8 ) ) ;
#2 = AXIS2_PLACEMENT_3D ( 'NONE', #24, #142, #25 ) ;
#3 = DATE_TIME_ROLE ( 'creation_date' ) ;
#4 = CARTESIAN_POINT ( 'NONE',  ( 0.0000000000000000000, 0.0000000000000000000, 0.0000000000000000000 ) ) ;
#5 = ADVANCED_FACE ( 'NONE', ( #134 ), #103, .T. ) ;
#6 = PERSON ( 'UNSPECIFIED', 'UNSPECIFIED', 'UNSPECIFIED', ('UNSPECIFIED'), ('UNSPECIFIED'), ('UNSPECIFIED') ) ;
#7 = CARTESIAN_POINT ( 'NONE',  ( 0.0000000000000000000, 0.0000000000000000000, 10.50000000000000000 ) ) ;
#8 = PRODUCT_DEFINITION ( 'UNKNOWN', '', #143, #59 ) ;
#9 = DIRECTION ( 'NONE',  ( -1.000000000000000000, 0.0000000000000000000, 0.0000000000000000000 ) ) ;
#10 = LOCAL_TIME ( 15, 57, 51.00000000000000000, #105 ) ;
#11 = LINE ( 'NONE', #172, #73 ) ;
#12 = AXIS2_PLACEMENT_3D ( 'NONE', #104, #174, #44 ) ;
#13 = COORDINATED_UNIVERSAL_TIME_OFFSET ( 1, 0, .AHEAD. ) ;
#14 = AXIS2_PLACEMENT_3D ( 'NONE', #106, #34, #163 ) ;
#15 = CIRCLE ( 'NONE', #77, 14.00000000000000000 ) ;
#16 = PERSON_AND_ORGANIZATION ( #6, #86 ) ;
#17 = MECHANICAL_CONTEXT ( 'NONE', #75, 'mechanical' ) ;
#18 = PERSON_AND_ORGANIZATION_ROLE ( 'design_owner' ) ;
#19 = VERTEX_POINT ( 'NONE', #94 ) ;
#20 = PERSON_AND_ORGANIZATION_ROLE ( 'classification_officer' ) ;
#21 = DATE_AND_TIME ( #131, #161 ) ;
#22 = MANIFOLD_SOLID_BREP ( 'Dodanie-wyciπgniÍcie1', #30 ) ;
#23 = CIRCLE ( 'NONE', #12, 14.00000000000000000 ) ;
#24 = CARTESIAN_POINT ( 'NONE',  ( 0.0000000000000000000, 0.0000000000000000000, 10.50000000000000000 ) ) ;
#25 = DIRECTION ( 'NONE',  ( 1.000000000000000000, 0.0000000000000000000, 0.0000000000000000000 ) ) ;
#26 = COORDINATED_UNIVERSAL_TIME_OFFSET ( 1, 0, .AHEAD. ) ;
#27 = EDGE_LOOP ( 'NONE', ( #123, #159 ) ) ;
#28 = SECURITY_CLASSIFICATION ( '', '', #147 ) ;
#29 = EDGE_CURVE ( 'NONE', #171, #128, #15, .T. ) ;
#30 = CLOSED_SHELL ( 'NONE', ( #118, #5, #70, #69 ) ) ;
#31 = CARTESIAN_POINT ( 'NONE',  ( -14.00000000000000000, 0.0000000000000000000, 0.0000000000000000000 ) ) ;
#32 = CIRCLE ( 'NONE', #82, 14.00000000000000000 ) ;
#33 = SHAPE_DEFINITION_REPRESENTATION ( #150, #130 ) ;
#34 = DIRECTION ( 'NONE',  ( 0.0000000000000000000, 0.0000000000000000000, 1.000000000000000000 ) ) ;
#35 = LOCAL_TIME ( 15, 57, 51.00000000000000000, #108 ) ;
#36 = DIRECTION ( 'NONE',  ( 1.000000000000000000, 0.0000000000000000000, 0.0000000000000000000 ) ) ;
#37 = EDGE_LOOP ( 'NONE', ( #62, #95, #167, #107 ) ) ;
#38 = DATE_TIME_ROLE ( 'classification_date' ) ;
#39 = CARTESIAN_POINT ( 'NONE',  ( 0.0000000000000000000, 0.0000000000000000000, 0.0000000000000000000 ) ) ;
#40 = DATE_AND_TIME ( #79, #10 ) ;
#41 = PRODUCT_RELATED_PRODUCT_CATEGORY ( 'detail', '', ( #148 ) ) ;
#42 = CARTESIAN_POINT ( 'NONE',  ( 14.00000000000000000, 1.714505518806294200E-015, 10.50000000000000000 ) ) ;
#43 = CC_DESIGN_APPROVAL ( #157, ( #8 ) ) ;
#44 = DIRECTION ( 'NONE',  ( 1.000000000000000000, 0.0000000000000000000, 0.0000000000000000000 ) ) ;
#45 = CALENDAR_DATE ( 2018, 4, 11 ) ;
#46 = ORIENTED_EDGE ( 'NONE', *, *, #175, .F. ) ;
#47 =( LENGTH_UNIT ( ) NAMED_UNIT ( * ) SI_UNIT ( .MILLI., .METRE. ) );
#48 = APPROVAL_STATUS ( 'not_yet_approved' ) ;
#49 =( NAMED_UNIT ( * ) PLANE_ANGLE_UNIT ( ) SI_UNIT ( $, .RADIAN. ) );
#50 = PERSON_AND_ORGANIZATION_ROLE ( 'creator' ) ;
#51 = DIRECTION ( 'NONE',  ( 0.0000000000000000000, 0.0000000000000000000, 1.000000000000000000 ) ) ;
#52 = CARTESIAN_POINT ( 'NONE',  ( 0.0000000000000000000, 0.0000000000000000000, 10.50000000000000000 ) ) ;
#53 = DIRECTION ( 'NONE',  ( -0.0000000000000000000, -0.0000000000000000000, -1.000000000000000000 ) ) ;
#54 = EDGE_CURVE ( 'NONE', #19, #171, #60, .T. ) ;
#55 =( GEOMETRIC_REPRESENTATION_CONTEXT ( 3 ) GLOBAL_UNCERTAINTY_ASSIGNED_CONTEXT ( ( #125 ) ) GLOBAL_UNIT_ASSIGNED_CONTEXT ( ( #47, #49, #164 ) ) REPRESENTATION_CONTEXT ( 'NONE', 'WORKASPACE' ) );
#56 = PERSON_AND_ORGANIZATION ( #6, #86 ) ;
#57 = ORIENTED_EDGE ( 'NONE', *, *, #29, .F. ) ;
#58 = DIRECTION ( 'NONE',  ( 1.000000000000000000, 0.0000000000000000000, -0.0000000000000000000 ) ) ;
#59 = DESIGN_CONTEXT ( 'detailed design', #140, 'design' ) ;
#60 = LINE ( 'NONE', #115, #132 ) ;
#61 = CALENDAR_DATE ( 2018, 4, 11 ) ;
#62 = ORIENTED_EDGE ( 'NONE', *, *, #72, .F. ) ;
#63 = PERSON_AND_ORGANIZATION_ROLE ( 'design_supplier' ) ;
#64 = CALENDAR_DATE ( 2018, 4, 11 ) ;
#65 = APPLICATION_PROTOCOL_DEFINITION ( 'international standard', 'config_control_design', 1994, #140 ) ;
#66 = FACE_OUTER_BOUND ( 'NONE', #137, .T. ) ;
#67 = DIRECTION ( 'NONE',  ( 1.000000000000000000, 0.0000000000000000000, 0.0000000000000000000 ) ) ;
#68 = APPROVAL ( #149, 'UNSPECIFIED' ) ;
#69 = ADVANCED_FACE ( 'NONE', ( #66 ), #96, .F. ) ;
#70 = ADVANCED_FACE ( 'NONE', ( #90 ), #133, .T. ) ;
#71 = ORIENTED_EDGE ( 'NONE', *, *, #152, .F. ) ;
#72 = EDGE_CURVE ( 'NONE', #99, #19, #151, .T. ) ;
#73 = VECTOR ( 'NONE', #145, 1000.000000000000000 ) ;
#74 = CC_DESIGN_PERSON_AND_ORGANIZATION_ASSIGNMENT ( #136, #63, ( #143 ) ) ;
#75 = APPLICATION_CONTEXT ( 'configuration controlled 3d designs of mechanical parts and assemblies' ) ;
#76 = CC_DESIGN_APPROVAL ( #68, ( #143 ) ) ;
#77 = AXIS2_PLACEMENT_3D ( 'NONE', #39, #51, #67 ) ;
#78 = APPLICATION_PROTOCOL_DEFINITION ( 'international standard', 'config_control_design', 1994, #75 ) ;
#79 = CALENDAR_DATE ( 2018, 4, 11 ) ;
#80 = APPROVAL_STATUS ( 'not_yet_approved' ) ;
#81 = CC_DESIGN_PERSON_AND_ORGANIZATION_ASSIGNMENT ( #126, #20, ( #28 ) ) ;
#82 = AXIS2_PLACEMENT_3D ( 'NONE', #112, #160, #36 ) ;
#83 = CC_DESIGN_SECURITY_CLASSIFICATION ( #28, ( #143 ) ) ;
#84 = PERSON_AND_ORGANIZATION ( #6, #86 ) ;
#85 = DATE_AND_TIME ( #45, #121 ) ;
#86 = ORGANIZATION ( 'UNSPECIFIED', 'UNSPECIFIED', '' ) ;
#87 = FACE_OUTER_BOUND ( 'NONE', #37, .T. ) ;
#88 = AXIS2_PLACEMENT_3D ( 'NONE', #52, #53, #9 ) ;
#89 = CC_DESIGN_PERSON_AND_ORGANIZATION_ASSIGNMENT ( #117, #166, ( #143 ) ) ;
#90 = FACE_OUTER_BOUND ( 'NONE', #27, .T. ) ;
#91 = APPROVAL_ROLE ( '' ) ;
#92 = APPROVAL_ROLE ( '' ) ;
#93 = APPROVAL_PERSON_ORGANIZATION ( #16, #124, #139 ) ;
#94 = CARTESIAN_POINT ( 'NONE',  ( -14.00000000000000000, 0.0000000000000000000, 10.50000000000000000 ) ) ;
#95 = ORIENTED_EDGE ( 'NONE', *, *, #165, .T. ) ;
#96 = PLANE ( 'NONE',  #119 ) ;
#97 = DIRECTION ( 'NONE',  ( 1.000000000000000000, 0.0000000000000000000, -0.0000000000000000000 ) ) ;
#98 = AXIS2_PLACEMENT_3D ( 'NONE', #7, #169, #116 ) ;
#99 = VERTEX_POINT ( 'NONE', #42 ) ;
#100 = DATE_AND_TIME ( #64, #114 ) ;
#101 = APPROVAL_PERSON_ORGANIZATION ( #127, #68, #92 ) ;
#102 = EDGE_LOOP ( 'NONE', ( #158, #46, #153, #162 ) ) ;
#103 = CYLINDRICAL_SURFACE ( 'NONE', #98, 14.00000000000000000 ) ;
#104 = CARTESIAN_POINT ( 'NONE',  ( 0.0000000000000000000, 0.0000000000000000000, 0.0000000000000000000 ) ) ;
#105 = COORDINATED_UNIVERSAL_TIME_OFFSET ( 1, 0, .AHEAD. ) ;
#106 = CARTESIAN_POINT ( 'NONE',  ( 0.0000000000000000000, 0.0000000000000000000, 0.0000000000000000000 ) ) ;
#107 = ORIENTED_EDGE ( 'NONE', *, *, #54, .F. ) ;
#108 = COORDINATED_UNIVERSAL_TIME_OFFSET ( 1, 0, .AHEAD. ) ;
#109 = DIRECTION ( 'NONE',  ( 0.0000000000000000000, 0.0000000000000000000, 1.000000000000000000 ) ) ;
#110 = CARTESIAN_POINT ( 'NONE',  ( 14.00000000000000000, 1.714505518806294200E-015, 0.0000000000000000000 ) ) ;
#111 = CC_DESIGN_DATE_AND_TIME_ASSIGNMENT ( #100, #38, ( #28 ) ) ;
#112 = CARTESIAN_POINT ( 'NONE',  ( 0.0000000000000000000, 0.0000000000000000000, 10.50000000000000000 ) ) ;
#113 = PERSON_AND_ORGANIZATION ( #6, #86 ) ;
#114 = LOCAL_TIME ( 15, 57, 51.00000000000000000, #129 ) ;
#115 = CARTESIAN_POINT ( 'NONE',  ( -14.00000000000000000, 0.0000000000000000000, 10.50000000000000000 ) ) ;
#116 = DIRECTION ( 'NONE',  ( -1.000000000000000000, 0.0000000000000000000, 0.0000000000000000000 ) ) ;
#117 = PERSON_AND_ORGANIZATION ( #6, #86 ) ;
#118 = ADVANCED_FACE ( 'NONE', ( #87 ), #120, .T. ) ;
#119 = AXIS2_PLACEMENT_3D ( 'NONE', #4, #170, #97 ) ;
#120 = CYLINDRICAL_SURFACE ( 'NONE', #88, 14.00000000000000000 ) ;
#121 = LOCAL_TIME ( 15, 57, 51.00000000000000000, #13 ) ;
#122 = APPROVAL_PERSON_ORGANIZATION ( #56, #157, #91 ) ;
#123 = ORIENTED_EDGE ( 'NONE', *, *, #175, .T. ) ;
#124 = APPROVAL ( #80, 'UNSPECIFIED' ) ;
#125 = UNCERTAINTY_MEASURE_WITH_UNIT (LENGTH_MEASURE( 1.000000000000000100E-005 ), #47, 'distance_accuracy_value', 'NONE');
#126 = PERSON_AND_ORGANIZATION ( #6, #86 ) ;
#127 = PERSON_AND_ORGANIZATION ( #6, #86 ) ;
#128 = VERTEX_POINT ( 'NONE', #110 ) ;
#129 = COORDINATED_UNIVERSAL_TIME_OFFSET ( 1, 0, .AHEAD. ) ;
#130 = ADVANCED_BREP_SHAPE_REPRESENTATION ( 'pitch_motor_rotor_Domyùlna_sldprt', ( #22, #14 ), #55 ) ;
#131 = CALENDAR_DATE ( 2018, 4, 11 ) ;
#132 = VECTOR ( 'NONE', #168, 1000.000000000000000 ) ;
#133 = PLANE ( 'NONE',  #146 ) ;
#134 = FACE_OUTER_BOUND ( 'NONE', #102, .T. ) ;
#135 = CC_DESIGN_PERSON_AND_ORGANIZATION_ASSIGNMENT ( #84, #18, ( #148 ) ) ;
#136 = PERSON_AND_ORGANIZATION ( #6, #86 ) ;
#137 = EDGE_LOOP ( 'NONE', ( #57, #71 ) ) ;
#138 = APPROVAL_DATE_TIME ( #21, #68 ) ;
#139 = APPROVAL_ROLE ( '' ) ;
#140 = APPLICATION_CONTEXT ( 'configuration controlled 3d designs of mechanical parts and assemblies' ) ;
#141 = CARTESIAN_POINT ( 'NONE',  ( 0.0000000000000000000, 0.0000000000000000000, 10.50000000000000000 ) ) ;
#142 = DIRECTION ( 'NONE',  ( 0.0000000000000000000, 0.0000000000000000000, 1.000000000000000000 ) ) ;
#143 = PRODUCT_DEFINITION_FORMATION_WITH_SPECIFIED_SOURCE ( 'ANY', '', #148, .NOT_KNOWN. ) ;
#144 = APPROVAL_DATE_TIME ( #40, #157 ) ;
#145 = DIRECTION ( 'NONE',  ( -0.0000000000000000000, -0.0000000000000000000, -1.000000000000000000 ) ) ;
#146 = AXIS2_PLACEMENT_3D ( 'NONE', #141, #109, #58 ) ;
#147 = SECURITY_CLASSIFICATION_LEVEL ( 'unclassified' ) ;
#148 = PRODUCT ( 'pitch_motor_rotor_Domyúlna_sldprt', 'pitch_motor_rotor_Domyúlna_sldprt', '', ( #17 ) ) ;
#149 = APPROVAL_STATUS ( 'not_yet_approved' ) ;
#150 = PRODUCT_DEFINITION_SHAPE ( 'NONE', 'NONE',  #8 ) ;
#151 = CIRCLE ( 'NONE', #2, 14.00000000000000000 ) ;
#152 = EDGE_CURVE ( 'NONE', #128, #171, #23, .T. ) ;
#153 = ORIENTED_EDGE ( 'NONE', *, *, #54, .T. ) ;
#154 = CC_DESIGN_DATE_AND_TIME_ASSIGNMENT ( #156, #3, ( #8 ) ) ;
#155 = APPROVAL_DATE_TIME ( #85, #124 ) ;
#156 = DATE_AND_TIME ( #61, #35 ) ;
#157 = APPROVAL ( #48, 'UNSPECIFIED' ) ;
#158 = ORIENTED_EDGE ( 'NONE', *, *, #165, .F. ) ;
#159 = ORIENTED_EDGE ( 'NONE', *, *, #72, .T. ) ;
#160 = DIRECTION ( 'NONE',  ( 0.0000000000000000000, 0.0000000000000000000, 1.000000000000000000 ) ) ;
#161 = LOCAL_TIME ( 15, 57, 51.00000000000000000, #26 ) ;
#162 = ORIENTED_EDGE ( 'NONE', *, *, #29, .T. ) ;
#163 = DIRECTION ( 'NONE',  ( 1.000000000000000000, 0.0000000000000000000, 0.0000000000000000000 ) ) ;
#164 =( NAMED_UNIT ( * ) SI_UNIT ( $, .STERADIAN. ) SOLID_ANGLE_UNIT ( ) );
#165 = EDGE_CURVE ( 'NONE', #99, #128, #11, .T. ) ;
#166 = PERSON_AND_ORGANIZATION_ROLE ( 'creator' ) ;
#167 = ORIENTED_EDGE ( 'NONE', *, *, #152, .T. ) ;
#168 = DIRECTION ( 'NONE',  ( -0.0000000000000000000, -0.0000000000000000000, -1.000000000000000000 ) ) ;
#169 = DIRECTION ( 'NONE',  ( -0.0000000000000000000, -0.0000000000000000000, -1.000000000000000000 ) ) ;
#170 = DIRECTION ( 'NONE',  ( 0.0000000000000000000, 0.0000000000000000000, 1.000000000000000000 ) ) ;
#171 = VERTEX_POINT ( 'NONE', #31 ) ;
#172 = CARTESIAN_POINT ( 'NONE',  ( 14.00000000000000000, 1.714505518806294200E-015, 10.50000000000000000 ) ) ;
#173 = CC_DESIGN_APPROVAL ( #124, ( #28 ) ) ;
#174 = DIRECTION ( 'NONE',  ( 0.0000000000000000000, 0.0000000000000000000, 1.000000000000000000 ) ) ;
#175 = EDGE_CURVE ( 'NONE', #19, #99, #32, .T. ) ;
ENDSEC;
END-ISO-10303-21;
