ISO-10303-21;
HEADER;
FILE_DESCRIPTION (( 'STEP AP203' ),
    '1' );
FILE_NAME ('pitch_motor_stator_Domyúlna_sldprt.STEP',
    '2018-11-04T14:57:52',
    ( '' ),
    ( '' ),
    'SwSTEP 2.0',
    'SolidWorks 2016',
    '' );
FILE_SCHEMA (( 'CONFIG_CONTROL_DESIGN' ));
ENDSEC;

DATA;
#1 = APPROVAL ( #146, 'UNSPECIFIED' ) ;
#2 = AXIS2_PLACEMENT_3D ( 'NONE', #169, #123, #104 ) ;
#3 = DIRECTION ( 'NONE',  ( 0.0000000000000000000, 0.0000000000000000000, 1.000000000000000000 ) ) ;
#4 = DIRECTION ( 'NONE',  ( 0.0000000000000000000, 0.0000000000000000000, 1.000000000000000000 ) ) ;
#5 = CC_DESIGN_DATE_AND_TIME_ASSIGNMENT ( #38, #43, ( #94 ) ) ;
#6 = ADVANCED_FACE ( 'NONE', ( #41 ), #13, .T. ) ;
#7 = CALENDAR_DATE ( 2018, 4, 11 ) ;
#8 = LOCAL_TIME ( 15, 57, 52.00000000000000000, #48 ) ;
#9 = ORIENTED_EDGE ( 'NONE', *, *, #142, .T. ) ;
#10 = EDGE_CURVE ( 'NONE', #147, #131, #65, .T. ) ;
#11 = DIRECTION ( 'NONE',  ( -0.0000000000000000000, -0.0000000000000000000, -1.000000000000000000 ) ) ;
#12 = CARTESIAN_POINT ( 'NONE',  ( 14.00000000000000000, 1.714505518806294600E-015, 4.000000000000000000 ) ) ;
#13 = CYLINDRICAL_SURFACE ( 'NONE', #79, 14.00000000000000000 ) ;
#14 = DIRECTION ( 'NONE',  ( 1.000000000000000000, 0.0000000000000000000, 0.0000000000000000000 ) ) ;
#15 = APPLICATION_PROTOCOL_DEFINITION ( 'international standard', 'config_control_design', 1994, #172 ) ;
#16 = CLOSED_SHELL ( 'NONE', ( #6, #71, #138, #93 ) ) ;
#17 = CIRCLE ( 'NONE', #137, 14.00000000000000000 ) ;
#18 = VERTEX_POINT ( 'NONE', #62 ) ;
#19 = DATE_AND_TIME ( #103, #130 ) ;
#20 = EDGE_LOOP ( 'NONE', ( #34, #60 ) ) ;
#21 = CC_DESIGN_SECURITY_CLASSIFICATION ( #94, ( #80 ) ) ;
#22 = AXIS2_PLACEMENT_3D ( 'NONE', #119, #139, #83 ) ;
#23 = DIRECTION ( 'NONE',  ( 1.000000000000000000, 0.0000000000000000000, 0.0000000000000000000 ) ) ;
#24 = DIRECTION ( 'NONE',  ( 1.000000000000000000, 0.0000000000000000000, -0.0000000000000000000 ) ) ;
#25 = COORDINATED_UNIVERSAL_TIME_OFFSET ( 1, 0, .AHEAD. ) ;
#26 = PLANE ( 'NONE',  #88 ) ;
#27 = ORIENTED_EDGE ( 'NONE', *, *, #49, .F. ) ;
#28 = ORIENTED_EDGE ( 'NONE', *, *, #61, .F. ) ;
#29 = APPLICATION_CONTEXT ( 'configuration controlled 3d designs of mechanical parts and assemblies' ) ;
#30 = CC_DESIGN_APPROVAL ( #151, ( #80 ) ) ;
#31 = DATE_TIME_ROLE ( 'creation_date' ) ;
#32 = APPROVAL_DATE_TIME ( #136, #151 ) ;
#33 = PERSON_AND_ORGANIZATION_ROLE ( 'design_supplier' ) ;
#34 = ORIENTED_EDGE ( 'NONE', *, *, #76, .F. ) ;
#35 = PERSON_AND_ORGANIZATION ( #163, #115 ) ;
#36 = CARTESIAN_POINT ( 'NONE',  ( 0.0000000000000000000, 0.0000000000000000000, 0.0000000000000000000 ) ) ;
#37 = APPROVAL_PERSON_ORGANIZATION ( #170, #64, #167 ) ;
#38 = DATE_AND_TIME ( #7, #90 ) ;
#39 = CARTESIAN_POINT ( 'NONE',  ( -14.00000000000000000, 0.0000000000000000000, 4.000000000000000000 ) ) ;
#40 = APPLICATION_PROTOCOL_DEFINITION ( 'international standard', 'config_control_design', 1994, #29 ) ;
#41 = FACE_OUTER_BOUND ( 'NONE', #74, .T. ) ;
#42 = DIRECTION ( 'NONE',  ( -0.0000000000000000000, -0.0000000000000000000, -1.000000000000000000 ) ) ;
#43 = DATE_TIME_ROLE ( 'classification_date' ) ;
#44 = SECURITY_CLASSIFICATION_LEVEL ( 'unclassified' ) ;
#45 = CC_DESIGN_PERSON_AND_ORGANIZATION_ASSIGNMENT ( #156, #160, ( #94 ) ) ;
#46 = VECTOR ( 'NONE', #82, 1000.000000000000000 ) ;
#47 = PRODUCT ( 'pitch_motor_stator_Domyúlna_sldprt', 'pitch_motor_stator_Domyúlna_sldprt', '', ( #174 ) ) ;
#48 = COORDINATED_UNIVERSAL_TIME_OFFSET ( 1, 0, .AHEAD. ) ;
#49 = EDGE_CURVE ( 'NONE', #154, #18, #157, .T. ) ;
#50 = PLANE ( 'NONE',  #22 ) ;
#51 = EDGE_LOOP ( 'NONE', ( #127, #105 ) ) ;
#52 = CARTESIAN_POINT ( 'NONE',  ( -14.00000000000000000, 0.0000000000000000000, 4.000000000000000000 ) ) ;
#53 = CC_DESIGN_APPROVAL ( #64, ( #94 ) ) ;
#54 = EDGE_CURVE ( 'NONE', #18, #154, #149, .T. ) ;
#55 = ORIENTED_EDGE ( 'NONE', *, *, #54, .F. ) ;
#56 = APPROVAL_PERSON_ORGANIZATION ( #77, #1, #134 ) ;
#57 =( NAMED_UNIT ( * ) PLANE_ANGLE_UNIT ( ) SI_UNIT ( $, .RADIAN. ) );
#58 = COORDINATED_UNIVERSAL_TIME_OFFSET ( 1, 0, .AHEAD. ) ;
#59 = APPROVAL_STATUS ( 'not_yet_approved' ) ;
#60 = ORIENTED_EDGE ( 'NONE', *, *, #10, .F. ) ;
#61 = EDGE_CURVE ( 'NONE', #18, #147, #120, .T. ) ;
#62 = CARTESIAN_POINT ( 'NONE',  ( 14.00000000000000000, 1.714505518806294600E-015, 4.000000000000000000 ) ) ;
#63 = SHAPE_DEFINITION_REPRESENTATION ( #100, #122 ) ;
#64 = APPROVAL ( #161, 'UNSPECIFIED' ) ;
#65 = CIRCLE ( 'NONE', #150, 14.00000000000000000 ) ;
#66 = AXIS2_PLACEMENT_3D ( 'NONE', #145, #3, #96 ) ;
#67 = PERSON_AND_ORGANIZATION ( #163, #115 ) ;
#68 = COORDINATED_UNIVERSAL_TIME_OFFSET ( 1, 0, .AHEAD. ) ;
#69 = CC_DESIGN_DATE_AND_TIME_ASSIGNMENT ( #19, #31, ( #86 ) ) ;
#70 = CARTESIAN_POINT ( 'NONE',  ( 14.00000000000000000, 1.714505518806294600E-015, 0.0000000000000000000 ) ) ;
#71 = ADVANCED_FACE ( 'NONE', ( #116 ), #84, .T. ) ;
#72 = CALENDAR_DATE ( 2018, 4, 11 ) ;
#73 = LOCAL_TIME ( 15, 57, 52.00000000000000000, #58 ) ;
#74 = EDGE_LOOP ( 'NONE', ( #55, #164, #99, #92 ) ) ;
#75 = DIRECTION ( 'NONE',  ( -1.000000000000000000, 0.0000000000000000000, 0.0000000000000000000 ) ) ;
#76 = EDGE_CURVE ( 'NONE', #131, #147, #17, .T. ) ;
#77 = PERSON_AND_ORGANIZATION ( #163, #115 ) ;
#78 = FACE_OUTER_BOUND ( 'NONE', #20, .T. ) ;
#79 = AXIS2_PLACEMENT_3D ( 'NONE', #173, #42, #102 ) ;
#80 = PRODUCT_DEFINITION_FORMATION_WITH_SPECIFIED_SOURCE ( 'ANY', '', #47, .NOT_KNOWN. ) ;
#81 = CC_DESIGN_PERSON_AND_ORGANIZATION_ASSIGNMENT ( #98, #113, ( #47 ) ) ;
#82 = DIRECTION ( 'NONE',  ( -0.0000000000000000000, -0.0000000000000000000, -1.000000000000000000 ) ) ;
#83 = DIRECTION ( 'NONE',  ( 1.000000000000000000, 0.0000000000000000000, -0.0000000000000000000 ) ) ;
#84 = CYLINDRICAL_SURFACE ( 'NONE', #101, 14.00000000000000000 ) ;
#85 = CARTESIAN_POINT ( 'NONE',  ( 0.0000000000000000000, 0.0000000000000000000, 4.000000000000000000 ) ) ;
#86 = PRODUCT_DEFINITION ( 'UNKNOWN', '', #80, #168 ) ;
#87 =( NAMED_UNIT ( * ) SI_UNIT ( $, .STERADIAN. ) SOLID_ANGLE_UNIT ( ) );
#88 = AXIS2_PLACEMENT_3D ( 'NONE', #111, #128, #24 ) ;
#89 = LINE ( 'NONE', #52, #171 ) ;
#90 = LOCAL_TIME ( 15, 57, 52.00000000000000000, #25 ) ;
#91 = CARTESIAN_POINT ( 'NONE',  ( 0.0000000000000000000, 0.0000000000000000000, 0.0000000000000000000 ) ) ;
#92 = ORIENTED_EDGE ( 'NONE', *, *, #142, .F. ) ;
#93 = ADVANCED_FACE ( 'NONE', ( #78 ), #26, .F. ) ;
#94 = SECURITY_CLASSIFICATION ( '', '', #44 ) ;
#95 = DIRECTION ( 'NONE',  ( 0.0000000000000000000, 0.0000000000000000000, 1.000000000000000000 ) ) ;
#96 = DIRECTION ( 'NONE',  ( 1.000000000000000000, 0.0000000000000000000, 0.0000000000000000000 ) ) ;
#97 = COORDINATED_UNIVERSAL_TIME_OFFSET ( 1, 0, .AHEAD. ) ;
#98 = PERSON_AND_ORGANIZATION ( #163, #115 ) ;
#99 = ORIENTED_EDGE ( 'NONE', *, *, #10, .T. ) ;
#100 = PRODUCT_DEFINITION_SHAPE ( 'NONE', 'NONE',  #86 ) ;
#101 = AXIS2_PLACEMENT_3D ( 'NONE', #85, #11, #75 ) ;
#102 = DIRECTION ( 'NONE',  ( -1.000000000000000000, 0.0000000000000000000, 0.0000000000000000000 ) ) ;
#103 = CALENDAR_DATE ( 2018, 4, 11 ) ;
#104 = DIRECTION ( 'NONE',  ( 1.000000000000000000, 0.0000000000000000000, 0.0000000000000000000 ) ) ;
#105 = ORIENTED_EDGE ( 'NONE', *, *, #54, .T. ) ;
#106 = PERSON_AND_ORGANIZATION_ROLE ( 'creator' ) ;
#107 = CC_DESIGN_PERSON_AND_ORGANIZATION_ASSIGNMENT ( #35, #106, ( #80 ) ) ;
#108 = APPROVAL_DATE_TIME ( #117, #1 ) ;
#109 = UNCERTAINTY_MEASURE_WITH_UNIT (LENGTH_MEASURE( 1.000000000000000100E-005 ), #158, 'distance_accuracy_value', 'NONE');
#110 = CARTESIAN_POINT ( 'NONE',  ( -14.00000000000000000, 0.0000000000000000000, 0.0000000000000000000 ) ) ;
#111 = CARTESIAN_POINT ( 'NONE',  ( 0.0000000000000000000, 0.0000000000000000000, 0.0000000000000000000 ) ) ;
#112 = CALENDAR_DATE ( 2018, 4, 11 ) ;
#113 = PERSON_AND_ORGANIZATION_ROLE ( 'design_owner' ) ;
#114 = PERSON_AND_ORGANIZATION_ROLE ( 'creator' ) ;
#115 = ORGANIZATION ( 'UNSPECIFIED', 'UNSPECIFIED', '' ) ;
#116 = FACE_OUTER_BOUND ( 'NONE', #132, .T. ) ;
#117 = DATE_AND_TIME ( #135, #8 ) ;
#118 = ORIENTED_EDGE ( 'NONE', *, *, #76, .T. ) ;
#119 = CARTESIAN_POINT ( 'NONE',  ( 0.0000000000000000000, 0.0000000000000000000, 4.000000000000000000 ) ) ;
#120 = LINE ( 'NONE', #12, #46 ) ;
#121 = PRODUCT_RELATED_PRODUCT_CATEGORY ( 'detail', '', ( #47 ) ) ;
#122 = ADVANCED_BREP_SHAPE_REPRESENTATION ( 'pitch_motor_stator_Domyùlna_sldprt', ( #133, #2 ), #165 ) ;
#123 = DIRECTION ( 'NONE',  ( 0.0000000000000000000, 0.0000000000000000000, 1.000000000000000000 ) ) ;
#124 = APPROVAL_DATE_TIME ( #162, #64 ) ;
#125 = APPROVAL_PERSON_ORGANIZATION ( #159, #151, #148 ) ;
#126 = CARTESIAN_POINT ( 'NONE',  ( 0.0000000000000000000, 0.0000000000000000000, 4.000000000000000000 ) ) ;
#127 = ORIENTED_EDGE ( 'NONE', *, *, #49, .T. ) ;
#128 = DIRECTION ( 'NONE',  ( 0.0000000000000000000, 0.0000000000000000000, 1.000000000000000000 ) ) ;
#129 = LOCAL_TIME ( 15, 57, 52.00000000000000000, #97 ) ;
#130 = LOCAL_TIME ( 15, 57, 52.00000000000000000, #68 ) ;
#131 = VERTEX_POINT ( 'NONE', #110 ) ;
#132 = EDGE_LOOP ( 'NONE', ( #28, #27, #9, #118 ) ) ;
#133 = MANIFOLD_SOLID_BREP ( 'Dodanie-wyciπgniÍcie1', #16 ) ;
#134 = APPROVAL_ROLE ( '' ) ;
#135 = CALENDAR_DATE ( 2018, 4, 11 ) ;
#136 = DATE_AND_TIME ( #112, #73 ) ;
#137 = AXIS2_PLACEMENT_3D ( 'NONE', #36, #95, #23 ) ;
#138 = ADVANCED_FACE ( 'NONE', ( #152 ), #50, .T. ) ;
#139 = DIRECTION ( 'NONE',  ( 0.0000000000000000000, 0.0000000000000000000, 1.000000000000000000 ) ) ;
#140 = DIRECTION ( 'NONE',  ( -0.0000000000000000000, -0.0000000000000000000, -1.000000000000000000 ) ) ;
#141 = CC_DESIGN_PERSON_AND_ORGANIZATION_ASSIGNMENT ( #67, #33, ( #80 ) ) ;
#142 = EDGE_CURVE ( 'NONE', #154, #131, #89, .T. ) ;
#143 = CC_DESIGN_PERSON_AND_ORGANIZATION_ASSIGNMENT ( #166, #114, ( #86 ) ) ;
#144 = DIRECTION ( 'NONE',  ( 1.000000000000000000, 0.0000000000000000000, 0.0000000000000000000 ) ) ;
#145 = CARTESIAN_POINT ( 'NONE',  ( 0.0000000000000000000, 0.0000000000000000000, 4.000000000000000000 ) ) ;
#146 = APPROVAL_STATUS ( 'not_yet_approved' ) ;
#147 = VERTEX_POINT ( 'NONE', #70 ) ;
#148 = APPROVAL_ROLE ( '' ) ;
#149 = CIRCLE ( 'NONE', #66, 14.00000000000000000 ) ;
#150 = AXIS2_PLACEMENT_3D ( 'NONE', #91, #153, #14 ) ;
#151 = APPROVAL ( #59, 'UNSPECIFIED' ) ;
#152 = FACE_OUTER_BOUND ( 'NONE', #51, .T. ) ;
#153 = DIRECTION ( 'NONE',  ( 0.0000000000000000000, 0.0000000000000000000, 1.000000000000000000 ) ) ;
#154 = VERTEX_POINT ( 'NONE', #39 ) ;
#155 = CC_DESIGN_APPROVAL ( #1, ( #86 ) ) ;
#156 = PERSON_AND_ORGANIZATION ( #163, #115 ) ;
#157 = CIRCLE ( 'NONE', #175, 14.00000000000000000 ) ;
#158 =( LENGTH_UNIT ( ) NAMED_UNIT ( * ) SI_UNIT ( .MILLI., .METRE. ) );
#159 = PERSON_AND_ORGANIZATION ( #163, #115 ) ;
#160 = PERSON_AND_ORGANIZATION_ROLE ( 'classification_officer' ) ;
#161 = APPROVAL_STATUS ( 'not_yet_approved' ) ;
#162 = DATE_AND_TIME ( #72, #129 ) ;
#163 = PERSON ( 'UNSPECIFIED', 'UNSPECIFIED', 'UNSPECIFIED', ('UNSPECIFIED'), ('UNSPECIFIED'), ('UNSPECIFIED') ) ;
#164 = ORIENTED_EDGE ( 'NONE', *, *, #61, .T. ) ;
#165 =( GEOMETRIC_REPRESENTATION_CONTEXT ( 3 ) GLOBAL_UNCERTAINTY_ASSIGNED_CONTEXT ( ( #109 ) ) GLOBAL_UNIT_ASSIGNED_CONTEXT ( ( #158, #57, #87 ) ) REPRESENTATION_CONTEXT ( 'NONE', 'WORKASPACE' ) );
#166 = PERSON_AND_ORGANIZATION ( #163, #115 ) ;
#167 = APPROVAL_ROLE ( '' ) ;
#168 = DESIGN_CONTEXT ( 'detailed design', #29, 'design' ) ;
#169 = CARTESIAN_POINT ( 'NONE',  ( 0.0000000000000000000, 0.0000000000000000000, 0.0000000000000000000 ) ) ;
#170 = PERSON_AND_ORGANIZATION ( #163, #115 ) ;
#171 = VECTOR ( 'NONE', #140, 1000.000000000000000 ) ;
#172 = APPLICATION_CONTEXT ( 'configuration controlled 3d designs of mechanical parts and assemblies' ) ;
#173 = CARTESIAN_POINT ( 'NONE',  ( 0.0000000000000000000, 0.0000000000000000000, 4.000000000000000000 ) ) ;
#174 = MECHANICAL_CONTEXT ( 'NONE', #172, 'mechanical' ) ;
#175 = AXIS2_PLACEMENT_3D ( 'NONE', #126, #4, #144 ) ;
ENDSEC;
END-ISO-10303-21;
