ISO-10303-21;
HEADER;
FILE_DESCRIPTION (( 'STEP AP203' ),
    '1' );
FILE_NAME ('roll_motor_stator_Domyúlna_sldprt.STEP',
    '2018-11-04T14:57:55',
    ( '' ),
    ( '' ),
    'SwSTEP 2.0',
    'SolidWorks 2016',
    '' );
FILE_SCHEMA (( 'CONFIG_CONTROL_DESIGN' ));
ENDSEC;

DATA;
#1 = DIRECTION ( 'NONE',  ( -0.0000000000000000000, -0.0000000000000000000, -1.000000000000000000 ) ) ;
#2 = CARTESIAN_POINT ( 'NONE',  ( 14.00000000000000000, 1.714505518806294600E-015, 4.000000000000000000 ) ) ;
#3 = DIRECTION ( 'NONE',  ( 1.000000000000000000, 0.0000000000000000000, 0.0000000000000000000 ) ) ;
#4 = PERSON_AND_ORGANIZATION ( #41, #28 ) ;
#5 =( LENGTH_UNIT ( ) NAMED_UNIT ( * ) SI_UNIT ( .MILLI., .METRE. ) );
#6 = LOCAL_TIME ( 15, 57, 55.00000000000000000, #107 ) ;
#7 = ORIENTED_EDGE ( 'NONE', *, *, #16, .F. ) ;
#8 = PLANE ( 'NONE',  #97 ) ;
#9 = APPROVAL ( #35, 'UNSPECIFIED' ) ;
#10 = ORIENTED_EDGE ( 'NONE', *, *, #172, .T. ) ;
#11 = ADVANCED_FACE ( 'NONE', ( #80 ), #66, .T. ) ;
#12 = CARTESIAN_POINT ( 'NONE',  ( 0.0000000000000000000, 0.0000000000000000000, 4.000000000000000000 ) ) ;
#13 = LOCAL_TIME ( 15, 57, 55.00000000000000000, #123 ) ;
#14 = CIRCLE ( 'NONE', #46, 14.00000000000000000 ) ;
#15 = CARTESIAN_POINT ( 'NONE',  ( -14.00000000000000000, 0.0000000000000000000, 4.000000000000000000 ) ) ;
#16 = EDGE_CURVE ( 'NONE', #149, #38, #96, .T. ) ;
#17 = DIRECTION ( 'NONE',  ( -0.0000000000000000000, -0.0000000000000000000, -1.000000000000000000 ) ) ;
#18 =( NAMED_UNIT ( * ) PLANE_ANGLE_UNIT ( ) SI_UNIT ( $, .RADIAN. ) );
#19 = APPROVAL_PERSON_ORGANIZATION ( #29, #108, #85 ) ;
#20 = CARTESIAN_POINT ( 'NONE',  ( 0.0000000000000000000, 0.0000000000000000000, 4.000000000000000000 ) ) ;
#21 = PERSON_AND_ORGANIZATION ( #41, #28 ) ;
#22 = FACE_OUTER_BOUND ( 'NONE', #121, .T. ) ;
#23 = APPROVAL ( #34, 'UNSPECIFIED' ) ;
#24 = ORIENTED_EDGE ( 'NONE', *, *, #75, .F. ) ;
#25 = LINE ( 'NONE', #164, #140 ) ;
#26 = AXIS2_PLACEMENT_3D ( 'NONE', #145, #73, #112 ) ;
#27 = DIRECTION ( 'NONE',  ( 0.0000000000000000000, 0.0000000000000000000, 1.000000000000000000 ) ) ;
#28 = ORGANIZATION ( 'UNSPECIFIED', 'UNSPECIFIED', '' ) ;
#29 = PERSON_AND_ORGANIZATION ( #41, #28 ) ;
#30 = EDGE_CURVE ( 'NONE', #38, #149, #50, .T. ) ;
#31 = CARTESIAN_POINT ( 'NONE',  ( 14.00000000000000000, 1.714505518806294600E-015, 0.0000000000000000000 ) ) ;
#32 = CARTESIAN_POINT ( 'NONE',  ( 14.00000000000000000, 1.714505518806294600E-015, 4.000000000000000000 ) ) ;
#33 = DIRECTION ( 'NONE',  ( 1.000000000000000000, 0.0000000000000000000, 0.0000000000000000000 ) ) ;
#34 = APPROVAL_STATUS ( 'not_yet_approved' ) ;
#35 = APPROVAL_STATUS ( 'not_yet_approved' ) ;
#36 = DIRECTION ( 'NONE',  ( -1.000000000000000000, 0.0000000000000000000, 0.0000000000000000000 ) ) ;
#37 = CC_DESIGN_APPROVAL ( #108, ( #76 ) ) ;
#38 = VERTEX_POINT ( 'NONE', #31 ) ;
#39 = DIRECTION ( 'NONE',  ( 1.000000000000000000, 0.0000000000000000000, 0.0000000000000000000 ) ) ;
#40 = ADVANCED_FACE ( 'NONE', ( #158 ), #126, .T. ) ;
#41 = PERSON ( 'UNSPECIFIED', 'UNSPECIFIED', 'UNSPECIFIED', ('UNSPECIFIED'), ('UNSPECIFIED'), ('UNSPECIFIED') ) ;
#42 = CALENDAR_DATE ( 2018, 4, 11 ) ;
#43 = MANIFOLD_SOLID_BREP ( 'Dodanie-wyciπgniÍcie1', #162 ) ;
#44 = CARTESIAN_POINT ( 'NONE',  ( 0.0000000000000000000, 0.0000000000000000000, 4.000000000000000000 ) ) ;
#45 = PERSON_AND_ORGANIZATION_ROLE ( 'design_supplier' ) ;
#46 = AXIS2_PLACEMENT_3D ( 'NONE', #105, #90, #39 ) ;
#47 = CARTESIAN_POINT ( 'NONE',  ( 0.0000000000000000000, 0.0000000000000000000, 0.0000000000000000000 ) ) ;
#48 = MECHANICAL_CONTEXT ( 'NONE', #128, 'mechanical' ) ;
#49 = PERSON_AND_ORGANIZATION_ROLE ( 'creator' ) ;
#50 = CIRCLE ( 'NONE', #92, 14.00000000000000000 ) ;
#51 = APPROVAL_STATUS ( 'not_yet_approved' ) ;
#52 = EDGE_CURVE ( 'NONE', #104, #106, #14, .T. ) ;
#53 = PERSON_AND_ORGANIZATION ( #41, #28 ) ;
#54 = FACE_OUTER_BOUND ( 'NONE', #157, .T. ) ;
#55 = AXIS2_PLACEMENT_3D ( 'NONE', #64, #60, #143 ) ;
#56 = ORIENTED_EDGE ( 'NONE', *, *, #52, .T. ) ;
#57 = DIRECTION ( 'NONE',  ( 1.000000000000000000, 0.0000000000000000000, -0.0000000000000000000 ) ) ;
#58 = PERSON_AND_ORGANIZATION ( #41, #28 ) ;
#59 = EDGE_CURVE ( 'NONE', #106, #104, #100, .T. ) ;
#60 = DIRECTION ( 'NONE',  ( 0.0000000000000000000, 0.0000000000000000000, 1.000000000000000000 ) ) ;
#61 = CC_DESIGN_SECURITY_CLASSIFICATION ( #76, ( #138 ) ) ;
#62 = APPROVAL_ROLE ( '' ) ;
#63 = DATE_AND_TIME ( #94, #99 ) ;
#64 = CARTESIAN_POINT ( 'NONE',  ( 0.0000000000000000000, 0.0000000000000000000, 4.000000000000000000 ) ) ;
#65 = PERSON_AND_ORGANIZATION_ROLE ( 'classification_officer' ) ;
#66 = CYLINDRICAL_SURFACE ( 'NONE', #135, 14.00000000000000000 ) ;
#67 = ADVANCED_BREP_SHAPE_REPRESENTATION ( 'roll_motor_stator_Domyùlna_sldprt', ( #43, #156 ), #103 ) ;
#68 = COORDINATED_UNIVERSAL_TIME_OFFSET ( 1, 0, .AHEAD. ) ;
#69 = SHAPE_DEFINITION_REPRESENTATION ( #88, #67 ) ;
#70 = PRODUCT_RELATED_PRODUCT_CATEGORY ( 'detail', '', ( #81 ) ) ;
#71 = PERSON_AND_ORGANIZATION ( #41, #28 ) ;
#72 = ADVANCED_FACE ( 'NONE', ( #54 ), #8, .F. ) ;
#73 = DIRECTION ( 'NONE',  ( 0.0000000000000000000, 0.0000000000000000000, 1.000000000000000000 ) ) ;
#74 = CC_DESIGN_APPROVAL ( #23, ( #138 ) ) ;
#75 = EDGE_CURVE ( 'NONE', #106, #149, #25, .T. ) ;
#76 = SECURITY_CLASSIFICATION ( '', '', #136 ) ;
#77 = AXIS2_PLACEMENT_3D ( 'NONE', #20, #84, #36 ) ;
#78 = ORIENTED_EDGE ( 'NONE', *, *, #59, .F. ) ;
#79 = CARTESIAN_POINT ( 'NONE',  ( 0.0000000000000000000, 0.0000000000000000000, 0.0000000000000000000 ) ) ;
#80 = FACE_OUTER_BOUND ( 'NONE', #155, .T. ) ;
#81 = PRODUCT ( 'roll_motor_stator_Domyúlna_sldprt', 'roll_motor_stator_Domyúlna_sldprt', '', ( #48 ) ) ;
#82 = CC_DESIGN_PERSON_AND_ORGANIZATION_ASSIGNMENT ( #53, #65, ( #76 ) ) ;
#83 = CARTESIAN_POINT ( 'NONE',  ( 0.0000000000000000000, 0.0000000000000000000, 0.0000000000000000000 ) ) ;
#84 = DIRECTION ( 'NONE',  ( -0.0000000000000000000, -0.0000000000000000000, -1.000000000000000000 ) ) ;
#85 = APPROVAL_ROLE ( '' ) ;
#86 = EDGE_LOOP ( 'NONE', ( #131, #56 ) ) ;
#87 = APPROVAL_DATE_TIME ( #141, #9 ) ;
#88 = PRODUCT_DEFINITION_SHAPE ( 'NONE', 'NONE',  #151 ) ;
#89 = ORIENTED_EDGE ( 'NONE', *, *, #30, .T. ) ;
#90 = DIRECTION ( 'NONE',  ( 0.0000000000000000000, 0.0000000000000000000, 1.000000000000000000 ) ) ;
#91 = APPROVAL_DATE_TIME ( #129, #23 ) ;
#92 = AXIS2_PLACEMENT_3D ( 'NONE', #47, #110, #33 ) ;
#93 = VECTOR ( 'NONE', #1, 1000.000000000000000 ) ;
#94 = CALENDAR_DATE ( 2018, 4, 11 ) ;
#95 = APPROVAL_DATE_TIME ( #154, #108 ) ;
#96 = CIRCLE ( 'NONE', #26, 14.00000000000000000 ) ;
#97 = AXIS2_PLACEMENT_3D ( 'NONE', #79, #175, #57 ) ;
#98 = CARTESIAN_POINT ( 'NONE',  ( -14.00000000000000000, 0.0000000000000000000, 0.0000000000000000000 ) ) ;
#99 = LOCAL_TIME ( 15, 57, 55.00000000000000000, #133 ) ;
#100 = CIRCLE ( 'NONE', #171, 14.00000000000000000 ) ;
#101 = APPLICATION_PROTOCOL_DEFINITION ( 'international standard', 'config_control_design', 1994, #128 ) ;
#102 = DESIGN_CONTEXT ( 'detailed design', #134, 'design' ) ;
#103 =( GEOMETRIC_REPRESENTATION_CONTEXT ( 3 ) GLOBAL_UNCERTAINTY_ASSIGNED_CONTEXT ( ( #174 ) ) GLOBAL_UNIT_ASSIGNED_CONTEXT ( ( #5, #18, #127 ) ) REPRESENTATION_CONTEXT ( 'NONE', 'WORKASPACE' ) );
#104 = VERTEX_POINT ( 'NONE', #2 ) ;
#105 = CARTESIAN_POINT ( 'NONE',  ( 0.0000000000000000000, 0.0000000000000000000, 4.000000000000000000 ) ) ;
#106 = VERTEX_POINT ( 'NONE', #15 ) ;
#107 = COORDINATED_UNIVERSAL_TIME_OFFSET ( 1, 0, .AHEAD. ) ;
#108 = APPROVAL ( #51, 'UNSPECIFIED' ) ;
#109 = CYLINDRICAL_SURFACE ( 'NONE', #77, 14.00000000000000000 ) ;
#110 = DIRECTION ( 'NONE',  ( 0.0000000000000000000, 0.0000000000000000000, 1.000000000000000000 ) ) ;
#111 = DATE_TIME_ROLE ( 'creation_date' ) ;
#112 = DIRECTION ( 'NONE',  ( 1.000000000000000000, 0.0000000000000000000, 0.0000000000000000000 ) ) ;
#113 = PERSON_AND_ORGANIZATION_ROLE ( 'design_owner' ) ;
#114 = APPROVAL_PERSON_ORGANIZATION ( #165, #9, #62 ) ;
#115 = CC_DESIGN_PERSON_AND_ORGANIZATION_ASSIGNMENT ( #170, #113, ( #81 ) ) ;
#116 = COORDINATED_UNIVERSAL_TIME_OFFSET ( 1, 0, .AHEAD. ) ;
#117 = ORIENTED_EDGE ( 'NONE', *, *, #172, .F. ) ;
#118 = DATE_AND_TIME ( #150, #13 ) ;
#119 = ORIENTED_EDGE ( 'NONE', *, *, #16, .T. ) ;
#120 = CC_DESIGN_PERSON_AND_ORGANIZATION_ASSIGNMENT ( #58, #49, ( #138 ) ) ;
#121 = EDGE_LOOP ( 'NONE', ( #144, #10, #89, #24 ) ) ;
#122 = DIRECTION ( 'NONE',  ( 1.000000000000000000, 0.0000000000000000000, 0.0000000000000000000 ) ) ;
#123 = COORDINATED_UNIVERSAL_TIME_OFFSET ( 1, 0, .AHEAD. ) ;
#124 = CC_DESIGN_APPROVAL ( #9, ( #151 ) ) ;
#125 = APPROVAL_ROLE ( '' ) ;
#126 = PLANE ( 'NONE',  #55 ) ;
#127 =( NAMED_UNIT ( * ) SI_UNIT ( $, .STERADIAN. ) SOLID_ANGLE_UNIT ( ) );
#128 = APPLICATION_CONTEXT ( 'configuration controlled 3d designs of mechanical parts and assemblies' ) ;
#129 = DATE_AND_TIME ( #153, #6 ) ;
#130 = LINE ( 'NONE', #32, #93 ) ;
#131 = ORIENTED_EDGE ( 'NONE', *, *, #59, .T. ) ;
#132 = CC_DESIGN_PERSON_AND_ORGANIZATION_ASSIGNMENT ( #71, #146, ( #151 ) ) ;
#133 = COORDINATED_UNIVERSAL_TIME_OFFSET ( 1, 0, .AHEAD. ) ;
#134 = APPLICATION_CONTEXT ( 'configuration controlled 3d designs of mechanical parts and assemblies' ) ;
#135 = AXIS2_PLACEMENT_3D ( 'NONE', #44, #17, #159 ) ;
#136 = SECURITY_CLASSIFICATION_LEVEL ( 'unclassified' ) ;
#137 = CC_DESIGN_DATE_AND_TIME_ASSIGNMENT ( #63, #111, ( #151 ) ) ;
#138 = PRODUCT_DEFINITION_FORMATION_WITH_SPECIFIED_SOURCE ( 'ANY', '', #81, .NOT_KNOWN. ) ;
#139 = APPROVAL_PERSON_ORGANIZATION ( #4, #23, #125 ) ;
#140 = VECTOR ( 'NONE', #163, 1000.000000000000000 ) ;
#141 = DATE_AND_TIME ( #42, #160 ) ;
#142 = CC_DESIGN_PERSON_AND_ORGANIZATION_ASSIGNMENT ( #21, #45, ( #138 ) ) ;
#143 = DIRECTION ( 'NONE',  ( 1.000000000000000000, 0.0000000000000000000, -0.0000000000000000000 ) ) ;
#144 = ORIENTED_EDGE ( 'NONE', *, *, #52, .F. ) ;
#145 = CARTESIAN_POINT ( 'NONE',  ( 0.0000000000000000000, 0.0000000000000000000, 0.0000000000000000000 ) ) ;
#146 = PERSON_AND_ORGANIZATION_ROLE ( 'creator' ) ;
#147 = APPLICATION_PROTOCOL_DEFINITION ( 'international standard', 'config_control_design', 1994, #134 ) ;
#148 = DIRECTION ( 'NONE',  ( 0.0000000000000000000, 0.0000000000000000000, 1.000000000000000000 ) ) ;
#149 = VERTEX_POINT ( 'NONE', #98 ) ;
#150 = CALENDAR_DATE ( 2018, 4, 11 ) ;
#151 = PRODUCT_DEFINITION ( 'UNKNOWN', '', #138, #102 ) ;
#152 = ORIENTED_EDGE ( 'NONE', *, *, #75, .T. ) ;
#153 = CALENDAR_DATE ( 2018, 4, 11 ) ;
#154 = DATE_AND_TIME ( #166, #161 ) ;
#155 = EDGE_LOOP ( 'NONE', ( #117, #78, #152, #119 ) ) ;
#156 = AXIS2_PLACEMENT_3D ( 'NONE', #83, #148, #3 ) ;
#157 = EDGE_LOOP ( 'NONE', ( #7, #167 ) ) ;
#158 = FACE_OUTER_BOUND ( 'NONE', #86, .T. ) ;
#159 = DIRECTION ( 'NONE',  ( -1.000000000000000000, 0.0000000000000000000, 0.0000000000000000000 ) ) ;
#160 = LOCAL_TIME ( 15, 57, 55.00000000000000000, #116 ) ;
#161 = LOCAL_TIME ( 15, 57, 55.00000000000000000, #68 ) ;
#162 = CLOSED_SHELL ( 'NONE', ( #173, #11, #40, #72 ) ) ;
#163 = DIRECTION ( 'NONE',  ( -0.0000000000000000000, -0.0000000000000000000, -1.000000000000000000 ) ) ;
#164 = CARTESIAN_POINT ( 'NONE',  ( -14.00000000000000000, 0.0000000000000000000, 4.000000000000000000 ) ) ;
#165 = PERSON_AND_ORGANIZATION ( #41, #28 ) ;
#166 = CALENDAR_DATE ( 2018, 4, 11 ) ;
#167 = ORIENTED_EDGE ( 'NONE', *, *, #30, .F. ) ;
#168 = DATE_TIME_ROLE ( 'classification_date' ) ;
#169 = CC_DESIGN_DATE_AND_TIME_ASSIGNMENT ( #118, #168, ( #76 ) ) ;
#170 = PERSON_AND_ORGANIZATION ( #41, #28 ) ;
#171 = AXIS2_PLACEMENT_3D ( 'NONE', #12, #27, #122 ) ;
#172 = EDGE_CURVE ( 'NONE', #104, #38, #130, .T. ) ;
#173 = ADVANCED_FACE ( 'NONE', ( #22 ), #109, .T. ) ;
#174 = UNCERTAINTY_MEASURE_WITH_UNIT (LENGTH_MEASURE( 1.000000000000000100E-005 ), #5, 'distance_accuracy_value', 'NONE');
#175 = DIRECTION ( 'NONE',  ( 0.0000000000000000000, 0.0000000000000000000, 1.000000000000000000 ) ) ;
ENDSEC;
END-ISO-10303-21;
