ISO-10303-21;
HEADER;
FILE_DESCRIPTION (( 'STEP AP203' ),
    '1' );
FILE_NAME ('roll_part_2_Domyúlna_sldprt.STEP',
    '2018-11-04T14:57:57',
    ( '' ),
    ( '' ),
    'SwSTEP 2.0',
    'SolidWorks 2016',
    '' );
FILE_SCHEMA (( 'CONFIG_CONTROL_DESIGN' ));
ENDSEC;

DATA;
#1 = DIRECTION ( 'NONE',  ( -1.927470528863120300E-016, 1.000000000000000000, -0.0000000000000000000 ) ) ;
#2 = AXIS2_PLACEMENT_3D ( 'NONE', #263, #391, #858 ) ;
#3 = CARTESIAN_POINT ( 'NONE',  ( 1.749999999999994700, 16.49999999999999600, 0.0000000000000000000 ) ) ;
#4 = FACE_OUTER_BOUND ( 'NONE', #102, .T. ) ;
#5 = ORIENTED_EDGE ( 'NONE', *, *, #165, .T. ) ;
#6 = ORIENTED_EDGE ( 'NONE', *, *, #255, .F. ) ;
#7 = CARTESIAN_POINT ( 'NONE',  ( 8.749999999999998200, 16.49999999999999600, 0.0000000000000000000 ) ) ;
#8 = EDGE_CURVE ( 'NONE', #240, #553, #744, .T. ) ;
#9 = CIRCLE ( 'NONE', #523, 3.499999999999999600 ) ;
#10 = DIRECTION ( 'NONE',  ( 0.0000000000000000000, 0.0000000000000000000, 1.000000000000000000 ) ) ;
#11 = CC_DESIGN_SECURITY_CLASSIFICATION ( #30, ( #392 ) ) ;
#12 = CARTESIAN_POINT ( 'NONE',  ( -1.750000000000000200, 13.99999999999999800, 4.000000000000000000 ) ) ;
#13 = VERTEX_POINT ( 'NONE', #401 ) ;
#14 = ORIENTED_EDGE ( 'NONE', *, *, #229, .T. ) ;
#15 = ORIENTED_EDGE ( 'NONE', *, *, #851, .T. ) ;
#16 = DIRECTION ( 'NONE',  ( 0.0000000000000000000, 0.0000000000000000000, 1.000000000000000000 ) ) ;
#17 = AXIS2_PLACEMENT_3D ( 'NONE', #738, #684, #681 ) ;
#18 = FACE_OUTER_BOUND ( 'NONE', #451, .T. ) ;
#19 = CARTESIAN_POINT ( 'NONE',  ( 0.0000000000000000000, 36.50000000000000000, 4.000000000000000000 ) ) ;
#20 = DIRECTION ( 'NONE',  ( 0.0000000000000000000, 0.0000000000000000000, 1.000000000000000000 ) ) ;
#21 = DATE_TIME_ROLE ( 'creation_date' ) ;
#22 = VECTOR ( 'NONE', #767, 1000.000000000000000 ) ;
#23 = EDGE_CURVE ( 'NONE', #167, #377, #383, .T. ) ;
#24 = DIRECTION ( 'NONE',  ( -0.0000000000000000000, -0.0000000000000000000, -1.000000000000000000 ) ) ;
#25 = APPLICATION_CONTEXT ( 'configuration controlled 3d designs of mechanical parts and assemblies' ) ;
#26 = ORIENTED_EDGE ( 'NONE', *, *, #315, .F. ) ;
#27 = ORIENTED_EDGE ( 'NONE', *, *, #315, .T. ) ;
#28 = CARTESIAN_POINT ( 'NONE',  ( -11.24999999999999300, 25.83756594393193100, 0.0000000000000000000 ) ) ;
#29 = ADVANCED_FACE ( 'NONE', ( #448 ), #203, .T. ) ;
#30 = SECURITY_CLASSIFICATION ( '', '', #222 ) ;
#31 = CARTESIAN_POINT ( 'NONE',  ( -8.750000000000000000, 25.57125350280280800, 4.000000000000000000 ) ) ;
#32 = LINE ( 'NONE', #755, #714 ) ;
#33 = VECTOR ( 'NONE', #182, 1000.000000000000000 ) ;
#34 = ADVANCED_FACE ( 'NONE', ( #40 ), #524, .T. ) ;
#35 = DIRECTION ( 'NONE',  ( 1.000000000000000000, 0.0000000000000000000, 0.0000000000000000000 ) ) ;
#36 = DIRECTION ( 'NONE',  ( -0.2982749931359470800, 0.9544799780350296000, 0.0000000000000000000 ) ) ;
#37 = AXIS2_PLACEMENT_3D ( 'NONE', #444, #306, #55 ) ;
#38 = DIRECTION ( 'NONE',  ( -0.0000000000000000000, -0.0000000000000000000, -1.000000000000000000 ) ) ;
#39 = DIRECTION ( 'NONE',  ( -0.0000000000000000000, -0.0000000000000000000, -1.000000000000000000 ) ) ;
#40 = FACE_OUTER_BOUND ( 'NONE', #825, .T. ) ;
#41 = ORIENTED_EDGE ( 'NONE', *, *, #349, .F. ) ;
#42 = EDGE_CURVE ( 'NONE', #61, #566, #258, .T. ) ;
#43 = ORIENTED_EDGE ( 'NONE', *, *, #380, .F. ) ;
#44 = CARTESIAN_POINT ( 'NONE',  ( -7.250000000000000000, 24.52346043299652200, 4.000000000000000000 ) ) ;
#45 = CYLINDRICAL_SURFACE ( 'NONE', #268, 13.99999999999999500 ) ;
#46 = PLANE ( 'NONE',  #399 ) ;
#47 = EDGE_CURVE ( 'NONE', #282, #584, #412, .T. ) ;
#48 = CARTESIAN_POINT ( 'NONE',  ( -7.249999999999999100, 16.87228132326901100, 0.0000000000000000000 ) ) ;
#49 = AXIS2_PLACEMENT_3D ( 'NONE', #277, #193, #466 ) ;
#50 = ORIENTED_EDGE ( 'NONE', *, *, #707, .F. ) ;
#51 = ORIENTED_EDGE ( 'NONE', *, *, #598, .F. ) ;
#52 = CARTESIAN_POINT ( 'NONE',  ( -7.250000000000000000, 24.52346043299652200, 0.0000000000000000000 ) ) ;
#53 = ORIENTED_EDGE ( 'NONE', *, *, #580, .F. ) ;
#54 = ORIENTED_EDGE ( 'NONE', *, *, #284, .F. ) ;
#55 = DIRECTION ( 'NONE',  ( -1.000000000000000000, -3.081487911019577400E-032, 0.0000000000000000000 ) ) ;
#56 = PERSON_AND_ORGANIZATION ( #545, #316 ) ;
#57 = VECTOR ( 'NONE', #108, 1000.000000000000000 ) ;
#58 = CARTESIAN_POINT ( 'NONE',  ( 12.50000000000000000, -1.530808498934190700E-015, 4.000000000000000000 ) ) ;
#59 = EDGE_CURVE ( 'NONE', #166, #449, #375, .T. ) ;
#60 = LINE ( 'NONE', #103, #173 ) ;
#61 = VERTEX_POINT ( 'NONE', #139 ) ;
#62 = ORIENTED_EDGE ( 'NONE', *, *, #165, .F. ) ;
#63 = VECTOR ( 'NONE', #112, 1000.000000000000000 ) ;
#64 = CARTESIAN_POINT ( 'NONE',  ( -8.749999999999998200, 13.99999999999999800, 0.0000000000000000000 ) ) ;
#65 = FACE_OUTER_BOUND ( 'NONE', #68, .T. ) ;
#66 = DIRECTION ( 'NONE',  ( -1.000000000000000000, 0.0000000000000000000, 0.0000000000000000000 ) ) ;
#67 = ORIENTED_EDGE ( 'NONE', *, *, #643, .T. ) ;
#68 = EDGE_LOOP ( 'NONE', ( #599, #116, #147, #177 ) ) ;
#69 = EDGE_CURVE ( 'NONE', #77, #342, #504, .T. ) ;
#70 = LINE ( 'NONE', #693, #462 ) ;
#71 = CIRCLE ( 'NONE', #202, 15.49999999999999800 ) ;
#72 = PRODUCT_RELATED_PRODUCT_CATEGORY ( 'detail', '', ( #148 ) ) ;
#73 = DIRECTION ( 'NONE',  ( -0.0000000000000000000, 1.000000000000000000, -0.0000000000000000000 ) ) ;
#74 = MANIFOLD_SOLID_BREP ( 'Dodanie-wyciπgniÍcie1', #196 ) ;
#75 = FACE_OUTER_BOUND ( 'NONE', #493, .T. ) ;
#76 = CIRCLE ( 'NONE', #361, 13.99999999999999500 ) ;
#77 = VERTEX_POINT ( 'NONE', #730 ) ;
#78 = AXIS2_PLACEMENT_3D ( 'NONE', #323, #719, #780 ) ;
#79 = EDGE_CURVE ( 'NONE', #290, #494, #427, .T. ) ;
#80 = CIRCLE ( 'NONE', #210, 3.500000000000000400 ) ;
#81 = DIRECTION ( 'NONE',  ( -0.0000000000000000000, -0.0000000000000000000, -1.000000000000000000 ) ) ;
#82 = CARTESIAN_POINT ( 'NONE',  ( 1.749999999999996400, 8.499999999999998200, 4.000000000000000000 ) ) ;
#83 = EDGE_CURVE ( 'NONE', #701, #339, #115, .T. ) ;
#84 = DIRECTION ( 'NONE',  ( 1.000000000000000000, 0.0000000000000000000, 0.0000000000000000000 ) ) ;
#85 = VECTOR ( 'NONE', #791, 1000.000000000000000 ) ;
#86 = ORIENTED_EDGE ( 'NONE', *, *, #136, .T. ) ;
#87 = EDGE_LOOP ( 'NONE', ( #623, #644, #665, #397 ) ) ;
#88 = CARTESIAN_POINT ( 'NONE',  ( -15.49999999999999800, 36.50000000000000000, 4.000000000000000000 ) ) ;
#89 = APPROVAL_ROLE ( '' ) ;
#90 = DATE_AND_TIME ( #265, #443 ) ;
#91 = DIRECTION ( 'NONE',  ( 0.0000000000000000000, 0.0000000000000000000, 1.000000000000000000 ) ) ;
#92 = CARTESIAN_POINT ( 'NONE',  ( -1.750000000000000200, 13.99999999999999800, 0.0000000000000000000 ) ) ;
#93 = DIRECTION ( 'NONE',  ( -0.0000000000000000000, -1.000000000000000000, -0.0000000000000000000 ) ) ;
#94 = DATE_TIME_ROLE ( 'classification_date' ) ;
#95 = DIRECTION ( 'NONE',  ( 0.0000000000000000000, 1.000000000000000000, 0.0000000000000000000 ) ) ;
#96 = CIRCLE ( 'NONE', #218, 3.500000000000000400 ) ;
#97 = EDGE_CURVE ( 'NONE', #584, #449, #300, .T. ) ;
#98 = DIRECTION ( 'NONE',  ( 0.0000000000000000000, 0.0000000000000000000, 1.000000000000000000 ) ) ;
#99 = DIRECTION ( 'NONE',  ( -0.0000000000000000000, -0.0000000000000000000, -1.000000000000000000 ) ) ;
#100 = FACE_OUTER_BOUND ( 'NONE', #379, .T. ) ;
#101 = VERTEX_POINT ( 'NONE', #491 ) ;
#102 = EDGE_LOOP ( 'NONE', ( #675, #601, #773, #855 ) ) ;
#103 = CARTESIAN_POINT ( 'NONE',  ( 11.25000000000000000, 6.999999999999994700, 4.000000000000000000 ) ) ;
#104 = DATE_AND_TIME ( #223, #274 ) ;
#105 = VECTOR ( 'NONE', #590, 1000.000000000000000 ) ;
#106 = CARTESIAN_POINT ( 'NONE',  ( -11.25000000000000000, 6.999999999999998200, 0.0000000000000000000 ) ) ;
#107 = AXIS2_PLACEMENT_3D ( 'NONE', #256, #852, #587 ) ;
#108 = DIRECTION ( 'NONE',  ( -0.0000000000000000000, -0.0000000000000000000, -1.000000000000000000 ) ) ;
#109 = CIRCLE ( 'NONE', #187, 15.49999999999999800 ) ;
#110 = ORIENTED_EDGE ( 'NONE', *, *, #558, .F. ) ;
#111 = ORIENTED_EDGE ( 'NONE', *, *, #531, .T. ) ;
#112 = DIRECTION ( 'NONE',  ( 1.000000000000000000, 3.081487911019577400E-032, -0.0000000000000000000 ) ) ;
#113 = CARTESIAN_POINT ( 'NONE',  ( -12.50000000000000000, 2.999999999999998200, 4.000000000000000000 ) ) ;
#114 = LINE ( 'NONE', #156, #354 ) ;
#115 = LINE ( 'NONE', #159, #143 ) ;
#116 = ORIENTED_EDGE ( 'NONE', *, *, #851, .F. ) ;
#117 = VERTEX_POINT ( 'NONE', #215 ) ;
#118 = FACE_OUTER_BOUND ( 'NONE', #534, .T. ) ;
#119 = CIRCLE ( 'NONE', #508, 3.499999999999999600 ) ;
#120 = CARTESIAN_POINT ( 'NONE',  ( 0.0000000000000000000, 36.50000000000000000, 0.0000000000000000000 ) ) ;
#121 = VECTOR ( 'NONE', #620, 1000.000000000000200 ) ;
#122 = CC_DESIGN_APPROVAL ( #302, ( #347 ) ) ;
#123 = ORIENTED_EDGE ( 'NONE', *, *, #47, .F. ) ;
#124 = ORIENTED_EDGE ( 'NONE', *, *, #841, .T. ) ;
#125 = EDGE_CURVE ( 'NONE', #449, #219, #653, .T. ) ;
#126 = ADVANCED_FACE ( 'NONE', ( #806 ), #285, .T. ) ;
#127 = DIRECTION ( 'NONE',  ( -0.0000000000000000000, -0.0000000000000000000, -1.000000000000000000 ) ) ;
#128 = FACE_BOUND ( 'NONE', #525, .T. ) ;
#129 = EDGE_CURVE ( 'NONE', #205, #494, #109, .T. ) ;
#130 = DIRECTION ( 'NONE',  ( -0.0000000000000000000, -0.0000000000000000000, -1.000000000000000000 ) ) ;
#131 = LINE ( 'NONE', #426, #818 ) ;
#132 = ORIENTED_EDGE ( 'NONE', *, *, #307, .T. ) ;
#133 = ORIENTED_EDGE ( 'NONE', *, *, #264, .F. ) ;
#134 = ORIENTED_EDGE ( 'NONE', *, *, #264, .T. ) ;
#135 = DIRECTION ( 'NONE',  ( -0.0000000000000000000, -0.0000000000000000000, -1.000000000000000000 ) ) ;
#136 = EDGE_CURVE ( 'NONE', #526, #668, #622, .T. ) ;
#137 = DATE_AND_TIME ( #536, #658 ) ;
#138 = LINE ( 'NONE', #439, #189 ) ;
#139 = CARTESIAN_POINT ( 'NONE',  ( 1.749999999999994700, 16.49999999999999600, 0.0000000000000000000 ) ) ;
#140 = CARTESIAN_POINT ( 'NONE',  ( -7.249999999999999100, 16.87228132326901100, 4.000000000000000000 ) ) ;
#141 = CARTESIAN_POINT ( 'NONE',  ( 0.0000000000000000000, 36.50000000000000000, 0.0000000000000000000 ) ) ;
#142 = ADVANCED_FACE ( 'NONE', ( #456 ), #573, .F. ) ;
#143 = VECTOR ( 'NONE', #810, 1000.000000000000000 ) ;
#144 = CARTESIAN_POINT ( 'NONE',  ( 12.50000000000000000, -1.530808498934190700E-015, 0.0000000000000000000 ) ) ;
#145 = ORIENTED_EDGE ( 'NONE', *, *, #260, .T. ) ;
#146 = AXIS2_PLACEMENT_3D ( 'NONE', #659, #718, #786 ) ;
#147 = ORIENTED_EDGE ( 'NONE', *, *, #629, .F. ) ;
#148 = PRODUCT ( 'roll_part_2_Domyúlna_sldprt', 'roll_part_2_Domyúlna_sldprt', '', ( #421 ) ) ;
#149 = DIRECTION ( 'NONE',  ( 1.000000000000000000, 0.0000000000000000000, 0.0000000000000000000 ) ) ;
#150 = CARTESIAN_POINT ( 'NONE',  ( 1.749999999999994700, 16.49999999999999600, 4.000000000000000000 ) ) ;
#151 = PERSON_AND_ORGANIZATION_ROLE ( 'design_supplier' ) ;
#152 = EDGE_CURVE ( 'NONE', #167, #476, #610, .T. ) ;
#153 = CARTESIAN_POINT ( 'NONE',  ( 15.49999999999999800, 36.50000000000000000, 0.0000000000000000000 ) ) ;
#154 = APPROVAL_STATUS ( 'not_yet_approved' ) ;
#155 = FACE_OUTER_BOUND ( 'NONE', #568, .T. ) ;
#156 = CARTESIAN_POINT ( 'NONE',  ( -7.250000000000000000, 24.52346043299652200, 4.000000000000000000 ) ) ;
#157 = EDGE_LOOP ( 'NONE', ( #438, #428, #716, #67 ) ) ;
#158 = ORIENTED_EDGE ( 'NONE', *, *, #833, .T. ) ;
#159 = CARTESIAN_POINT ( 'NONE',  ( -1.750000000000000200, 13.99999999999999800, 4.000000000000000000 ) ) ;
#160 = APPROVAL_ROLE ( '' ) ;
#161 = PLANE ( 'NONE',  #607 ) ;
#162 = FACE_OUTER_BOUND ( 'NONE', #835, .T. ) ;
#163 = LINE ( 'NONE', #332, #726 ) ;
#164 = PLANE ( 'NONE',  #711 ) ;
#165 = EDGE_CURVE ( 'NONE', #771, #566, #238, .T. ) ;
#166 = VERTEX_POINT ( 'NONE', #144 ) ;
#167 = VERTEX_POINT ( 'NONE', #748 ) ;
#168 = ORIENTED_EDGE ( 'NONE', *, *, #531, .F. ) ;
#169 = CC_DESIGN_PERSON_AND_ORGANIZATION_ASSIGNMENT ( #840, #555, ( #148 ) ) ;
#170 = CARTESIAN_POINT ( 'NONE',  ( 12.50000000000000000, -1.530808498934190700E-015, 4.000000000000000000 ) ) ;
#171 = VECTOR ( 'NONE', #445, 1000.000000000000000 ) ;
#172 = CARTESIAN_POINT ( 'NONE',  ( 0.0000000000000000000, 36.50000000000000000, 4.000000000000000000 ) ) ;
#173 = VECTOR ( 'NONE', #95, 1000.000000000000000 ) ;
#174 = VERTEX_POINT ( 'NONE', #608 ) ;
#175 = ORIENTED_EDGE ( 'NONE', *, *, #822, .T. ) ;
#176 = CARTESIAN_POINT ( 'NONE',  ( -12.50000000000000000, -1.530808498934191500E-015, 4.000000000000000000 ) ) ;
#177 = ORIENTED_EDGE ( 'NONE', *, *, #195, .T. ) ;
#178 = VECTOR ( 'NONE', #216, 1000.000000000000000 ) ;
#179 = PLANE ( 'NONE',  #37 ) ;
#180 = CIRCLE ( 'NONE', #600, 3.500000000000001300 ) ;
#181 = EDGE_CURVE ( 'NONE', #403, #303, #76, .T. ) ;
#182 = DIRECTION ( 'NONE',  ( 0.0000000000000000000, -1.000000000000000000, 0.0000000000000000000 ) ) ;
#183 = ORIENTED_EDGE ( 'NONE', *, *, #313, .T. ) ;
#184 = CARTESIAN_POINT ( 'NONE',  ( 11.25000000000000000, 6.999999999999994700, 0.0000000000000000000 ) ) ;
#185 = ORIENTED_EDGE ( 'NONE', *, *, #812, .T. ) ;
#186 = EDGE_LOOP ( 'NONE', ( #709, #514, #647, #175 ) ) ;
#187 = AXIS2_PLACEMENT_3D ( 'NONE', #616, #751, #149 ) ;
#188 = APPROVAL_PERSON_ORGANIZATION ( #740, #805, #160 ) ;
#189 = VECTOR ( 'NONE', #636, 1000.000000000000000 ) ;
#190 = ADVANCED_FACE ( 'NONE', ( #100 ), #269, .F. ) ;
#191 = ORIENTED_EDGE ( 'NONE', *, *, #763, .F. ) ;
#192 = ORIENTED_EDGE ( 'NONE', *, *, #822, .F. ) ;
#193 = DIRECTION ( 'NONE',  ( -0.0000000000000000000, -0.0000000000000000000, -1.000000000000000000 ) ) ;
#194 = ORIENTED_EDGE ( 'NONE', *, *, #207, .F. ) ;
#195 = EDGE_CURVE ( 'NONE', #329, #330, #664, .T. ) ;
#196 = CLOSED_SHELL ( 'NONE', ( #142, #676, #594, #34, #228, #793, #333, #320, #393, #463, #737, #652, #29, #200, #661, #527, #557, #857, #190, #211, #685, #126, #827, #798 ) ) ;
#197 = CIRCLE ( 'NONE', #648, 3.499999999999998700 ) ;
#198 = AXIS2_PLACEMENT_3D ( 'NONE', #363, #824, #500 ) ;
#199 = LINE ( 'NONE', #113, #171 ) ;
#200 = ADVANCED_FACE ( 'NONE', ( #65 ), #546, .F. ) ;
#201 = DIRECTION ( 'NONE',  ( 1.000000000000000000, 0.0000000000000000000, 0.0000000000000000000 ) ) ;
#202 = AXIS2_PLACEMENT_3D ( 'NONE', #172, #20, #549 ) ;
#203 = CYLINDRICAL_SURFACE ( 'NONE', #49, 15.49999999999999800 ) ;
#204 = ORIENTED_EDGE ( 'NONE', *, *, #772, .T. ) ;
#205 = VERTEX_POINT ( 'NONE', #153 ) ;
#206 = CARTESIAN_POINT ( 'NONE',  ( 8.749999999999998200, 16.49999999999999600, 4.000000000000000000 ) ) ;
#207 = EDGE_CURVE ( 'NONE', #303, #233, #425, .T. ) ;
#208 = LINE ( 'NONE', #455, #850 ) ;
#209 = DIRECTION ( 'NONE',  ( 0.0000000000000000000, 0.0000000000000000000, 1.000000000000000000 ) ) ;
#210 = AXIS2_PLACEMENT_3D ( 'NONE', #542, #10, #471 ) ;
#211 = ADVANCED_FACE ( 'NONE', ( #75 ), #230, .T. ) ;
#212 = DIRECTION ( 'NONE',  ( -1.000000000000000000, 0.0000000000000000000, 0.0000000000000000000 ) ) ;
#213 = CARTESIAN_POINT ( 'NONE',  ( 0.0000000000000000000, 36.50000000000000000, 4.000000000000000000 ) ) ;
#214 = VECTOR ( 'NONE', #662, 1000.000000000000000 ) ;
#215 = CARTESIAN_POINT ( 'NONE',  ( 11.25000000000000000, 25.83756594393193900, 0.0000000000000000000 ) ) ;
#216 = DIRECTION ( 'NONE',  ( -0.0000000000000000000, -0.0000000000000000000, -1.000000000000000000 ) ) ;
#217 = ORIENTED_EDGE ( 'NONE', *, *, #229, .F. ) ;
#218 = AXIS2_PLACEMENT_3D ( 'NONE', #699, #691, #434 ) ;
#219 = VERTEX_POINT ( 'NONE', #696 ) ;
#220 = VERTEX_POINT ( 'NONE', #293 ) ;
#221 = CARTESIAN_POINT ( 'NONE',  ( 12.50000000000000000, 2.999999999999996400, 0.0000000000000000000 ) ) ;
#222 = SECURITY_CLASSIFICATION_LEVEL ( 'unclassified' ) ;
#223 = CALENDAR_DATE ( 2018, 4, 11 ) ;
#224 = LINE ( 'NONE', #842, #859 ) ;
#225 = AXIS2_PLACEMENT_3D ( 'NONE', #298, #753, #570 ) ;
#226 = CARTESIAN_POINT ( 'NONE',  ( 1.749999999999994700, 16.49999999999999600, 4.000000000000000000 ) ) ;
#227 = CARTESIAN_POINT ( 'NONE',  ( -1.750000000000000200, 13.99999999999999800, 0.0000000000000000000 ) ) ;
#228 = ADVANCED_FACE ( 'NONE', ( #777, #287, #326 ), #288, .T. ) ;
#229 = EDGE_CURVE ( 'NONE', #233, #700, #757, .T. ) ;
#230 = PLANE ( 'NONE',  #550 ) ;
#231 = DIRECTION ( 'NONE',  ( 0.0000000000000000000, 0.0000000000000000000, 1.000000000000000000 ) ) ;
#232 = LINE ( 'NONE', #106, #571 ) ;
#233 = VERTEX_POINT ( 'NONE', #756 ) ;
#234 = ORIENTED_EDGE ( 'NONE', *, *, #42, .T. ) ;
#235 = CARTESIAN_POINT ( 'NONE',  ( -12.50000000000000000, 2.999999999999998200, 4.000000000000000000 ) ) ;
#236 = CARTESIAN_POINT ( 'NONE',  ( 11.25000000000000000, 25.83756594393193900, 4.000000000000000000 ) ) ;
#237 = CARTESIAN_POINT ( 'NONE',  ( 12.50000000000000000, 2.999999999999996400, 4.000000000000000000 ) ) ;
#238 = LINE ( 'NONE', #408, #249 ) ;
#239 = ORIENTED_EDGE ( 'NONE', *, *, #195, .F. ) ;
#240 = VERTEX_POINT ( 'NONE', #501 ) ;
#241 = CARTESIAN_POINT ( 'NONE',  ( 1.749999999999996400, 8.499999999999998200, 0.0000000000000000000 ) ) ;
#242 = DATE_AND_TIME ( #389, #406 ) ;
#243 = EDGE_CURVE ( 'NONE', #553, #526, #794, .T. ) ;
#244 = LINE ( 'NONE', #227, #813 ) ;
#245 = LINE ( 'NONE', #64, #33 ) ;
#246 = DIRECTION ( 'NONE',  ( -0.2982749931359470800, -0.9544799780350297100, -0.0000000000000000000 ) ) ;
#247 = CARTESIAN_POINT ( 'NONE',  ( -12.50000000000000000, 2.999999999999998200, 0.0000000000000000000 ) ) ;
#248 = LINE ( 'NONE', #633, #512 ) ;
#249 = VECTOR ( 'NONE', #344, 1000.000000000000000 ) ;
#250 = EDGE_LOOP ( 'NONE', ( #789, #440, #387, #468 ) ) ;
#251 = CARTESIAN_POINT ( 'NONE',  ( -1.749999999999999300, 9.500000000000001800, 4.000000000000000000 ) ) ;
#252 = ORIENTED_EDGE ( 'NONE', *, *, #803, .F. ) ;
#253 = AXIS2_PLACEMENT_3D ( 'NONE', #213, #271, #201 ) ;
#254 = PERSON_AND_ORGANIZATION ( #545, #316 ) ;
#255 = EDGE_CURVE ( 'NONE', #416, #117, #642, .T. ) ;
#256 = CARTESIAN_POINT ( 'NONE',  ( 0.0000000000000000000, 36.50000000000000000, 4.000000000000000000 ) ) ;
#257 = AXIS2_PLACEMENT_3D ( 'NONE', #414, #231, #749 ) ;
#258 = LINE ( 'NONE', #3, #85 ) ;
#259 = DIRECTION ( 'NONE',  ( -1.000000000000000000, 0.0000000000000000000, 0.0000000000000000000 ) ) ;
#260 = EDGE_CURVE ( 'NONE', #700, #735, #400, .T. ) ;
#261 = ORIENTED_EDGE ( 'NONE', *, *, #702, .F. ) ;
#262 = EDGE_LOOP ( 'NONE', ( #273, #51, #576, #505, #191, #217, #194, #690 ) ) ;
#263 = CARTESIAN_POINT ( 'NONE',  ( -5.249999999999998200, 13.99999999999999800, 4.000000000000000000 ) ) ;
#264 = EDGE_CURVE ( 'NONE', #476, #465, #131, .T. ) ;
#265 = CALENDAR_DATE ( 2018, 4, 11 ) ;
#266 = DIRECTION ( 'NONE',  ( -1.000000000000000000, 0.0000000000000000000, 0.0000000000000000000 ) ) ;
#267 = DIRECTION ( 'NONE',  ( -0.9544799780350297100, -0.2982749931359471300, 0.0000000000000000000 ) ) ;
#268 = AXIS2_PLACEMENT_3D ( 'NONE', #579, #769, #646 ) ;
#269 = CYLINDRICAL_SURFACE ( 'NONE', #386, 3.499999999999998700 ) ;
#270 = VECTOR ( 'NONE', #728, 1000.000000000000000 ) ;
#271 = DIRECTION ( 'NONE',  ( 0.0000000000000000000, 0.0000000000000000000, 1.000000000000000000 ) ) ;
#272 = ORIENTED_EDGE ( 'NONE', *, *, #328, .F. ) ;
#273 = ORIENTED_EDGE ( 'NONE', *, *, #304, .F. ) ;
#274 = LOCAL_TIME ( 15, 57, 57.00000000000000000, #452 ) ;
#275 = AXIS2_PLACEMENT_3D ( 'NONE', #358, #99, #353 ) ;
#276 = FACE_OUTER_BOUND ( 'NONE', #87, .T. ) ;
#277 = CARTESIAN_POINT ( 'NONE',  ( 0.0000000000000000000, 36.50000000000000000, 4.000000000000000000 ) ) ;
#278 = DIRECTION ( 'NONE',  ( -1.000000000000000000, 0.0000000000000000000, 0.0000000000000000000 ) ) ;
#279 = DIRECTION ( 'NONE',  ( 1.000000000000000000, 2.168404344971009400E-016, -0.0000000000000000000 ) ) ;
#280 = AXIS2_PLACEMENT_3D ( 'NONE', #679, #486, #687 ) ;
#281 = ORIENTED_EDGE ( 'NONE', *, *, #79, .F. ) ;
#282 = VERTEX_POINT ( 'NONE', #503 ) ;
#283 = ORIENTED_EDGE ( 'NONE', *, *, #152, .T. ) ;
#284 = EDGE_CURVE ( 'NONE', #668, #796, #532, .T. ) ;
#285 = PLANE ( 'NONE',  #459 ) ;
#286 = CARTESIAN_POINT ( 'NONE',  ( -12.50000000000000000, -1.530808498934191500E-015, 4.000000000000000000 ) ) ;
#287 = FACE_BOUND ( 'NONE', #262, .T. ) ;
#288 = PLANE ( 'NONE',  #338 ) ;
#289 = CARTESIAN_POINT ( 'NONE',  ( -8.749999999999998200, 9.500000000000001800, 4.000000000000000000 ) ) ;
#290 = VERTEX_POINT ( 'NONE', #832 ) ;
#291 = VERTEX_POINT ( 'NONE', #556 ) ;
#292 = ORIENTED_EDGE ( 'NONE', *, *, #59, .T. ) ;
#293 = CARTESIAN_POINT ( 'NONE',  ( -8.749999999999998200, 9.500000000000001800, 0.0000000000000000000 ) ) ;
#294 = APPLICATION_CONTEXT ( 'configuration controlled 3d designs of mechanical parts and assemblies' ) ;
#295 = DIRECTION ( 'NONE',  ( -1.133631464574738000E-016, 1.000000000000000000, -0.0000000000000000000 ) ) ;
#296 = PERSON_AND_ORGANIZATION ( #545, #316 ) ;
#297 = AXIS2_PLACEMENT_3D ( 'NONE', #429, #423, #625 ) ;
#298 = CARTESIAN_POINT ( 'NONE',  ( 0.0000000000000000000, 36.50000000000000000, 0.0000000000000000000 ) ) ;
#299 = DIRECTION ( 'NONE',  ( -0.0000000000000000000, -0.0000000000000000000, -1.000000000000000000 ) ) ;
#300 = LINE ( 'NONE', #410, #552 ) ;
#301 = ORIENTED_EDGE ( 'NONE', *, *, #97, .F. ) ;
#302 = APPROVAL ( #154, 'UNSPECIFIED' ) ;
#303 = VERTEX_POINT ( 'NONE', #764 ) ;
#304 = EDGE_CURVE ( 'NONE', #240, #403, #114, .T. ) ;
#305 = APPROVAL_PERSON_ORGANIZATION ( #334, #302, #351 ) ;
#306 = DIRECTION ( 'NONE',  ( -3.081487911019577400E-032, 1.000000000000000000, 0.0000000000000000000 ) ) ;
#307 = EDGE_CURVE ( 'NONE', #566, #377, #96, .T. ) ;
#308 = CARTESIAN_POINT ( 'NONE',  ( -12.50000000000000000, -1.530808498934191500E-015, 0.0000000000000000000 ) ) ;
#309 = LINE ( 'NONE', #235, #627 ) ;
#310 = ORIENTED_EDGE ( 'NONE', *, *, #569, .F. ) ;
#311 = CARTESIAN_POINT ( 'NONE',  ( 8.749999999999998200, 16.49999999999999600, 0.0000000000000000000 ) ) ;
#312 = ORIENTED_EDGE ( 'NONE', *, *, #441, .F. ) ;
#313 = EDGE_CURVE ( 'NONE', #584, #359, #708, .T. ) ;
#314 = CARTESIAN_POINT ( 'NONE',  ( -15.49999999999999800, 36.50000000000000000, 0.0000000000000000000 ) ) ;
#315 = EDGE_CURVE ( 'NONE', #359, #416, #60, .T. ) ;
#316 = ORGANIZATION ( 'UNSPECIFIED', 'UNSPECIFIED', '' ) ;
#317 = CC_DESIGN_APPROVAL ( #481, ( #392 ) ) ;
#318 = VECTOR ( 'NONE', #93, 1000.000000000000000 ) ;
#319 = EDGE_LOOP ( 'NONE', ( #746, #385, #398, #41 ) ) ;
#320 = ADVANCED_FACE ( 'NONE', ( #4 ), #815, .F. ) ;
#321 = EDGE_LOOP ( 'NONE', ( #292, #301, #123, #395 ) ) ;
#322 = AXIS2_PLACEMENT_3D ( 'NONE', #325, #666, #266 ) ;
#323 = CARTESIAN_POINT ( 'NONE',  ( 11.25000000000000000, 6.999999999999994700, 4.000000000000000000 ) ) ;
#324 = LINE ( 'NONE', #7, #800 ) ;
#325 = CARTESIAN_POINT ( 'NONE',  ( 0.0000000000000000000, 36.50000000000000000, 4.000000000000000000 ) ) ;
#326 = FACE_BOUND ( 'NONE', #595, .T. ) ;
#327 = CARTESIAN_POINT ( 'NONE',  ( 12.50000000000000000, -1.530808498934190700E-015, 0.0000000000000000000 ) ) ;
#328 = EDGE_CURVE ( 'NONE', #291, #61, #248, .T. ) ;
#329 = VERTEX_POINT ( 'NONE', #628 ) ;
#330 = VERTEX_POINT ( 'NONE', #28 ) ;
#331 = ORIENTED_EDGE ( 'NONE', *, *, #515, .T. ) ;
#332 = CARTESIAN_POINT ( 'NONE',  ( 13.99999999999999500, 36.50000000000000000, 4.000000000000000000 ) ) ;
#333 = ADVANCED_FACE ( 'NONE', ( #155 ), #161, .F. ) ;
#334 = PERSON_AND_ORGANIZATION ( #545, #316 ) ;
#335 = VECTOR ( 'NONE', #651, 1000.000000000000000 ) ;
#336 = CARTESIAN_POINT ( 'NONE',  ( -5.249999999999998200, 9.500000000000001800, 0.0000000000000000000 ) ) ;
#337 = DIRECTION ( 'NONE',  ( 2.168404344971009400E-016, -1.000000000000000000, 0.0000000000000000000 ) ) ;
#338 = AXIS2_PLACEMENT_3D ( 'NONE', #362, #98, #563 ) ;
#339 = VERTEX_POINT ( 'NONE', #92 ) ;
#340 = CARTESIAN_POINT ( 'NONE',  ( -5.249999999999998200, 9.500000000000001800, 4.000000000000000000 ) ) ;
#341 = PLANE ( 'NONE',  #437 ) ;
#342 = VERTEX_POINT ( 'NONE', #422 ) ;
#343 = ORIENTED_EDGE ( 'NONE', *, *, #715, .T. ) ;
#344 = DIRECTION ( 'NONE',  ( -0.0000000000000000000, -0.0000000000000000000, -1.000000000000000000 ) ) ;
#345 = DIRECTION ( 'NONE',  ( 0.0000000000000000000, 0.0000000000000000000, 1.000000000000000000 ) ) ;
#346 = DATE_AND_TIME ( #705, #694 ) ;
#347 = PRODUCT_DEFINITION ( 'UNKNOWN', '', #392, #826 ) ;
#348 = CIRCLE ( 'NONE', #799, 15.49999999999999800 ) ;
#349 = EDGE_CURVE ( 'NONE', #403, #526, #490, .T. ) ;
#350 = DIRECTION ( 'NONE',  ( -0.0000000000000000000, 1.000000000000000000, -0.0000000000000000000 ) ) ;
#351 = APPROVAL_ROLE ( '' ) ;
#352 = DIRECTION ( 'NONE',  ( 0.0000000000000000000, 0.0000000000000000000, 1.000000000000000000 ) ) ;
#353 = DIRECTION ( 'NONE',  ( -1.000000000000000000, 0.0000000000000000000, 0.0000000000000000000 ) ) ;
#354 = VECTOR ( 'NONE', #761, 1000.000000000000000 ) ;
#355 = ORIENTED_EDGE ( 'NONE', *, *, #615, .F. ) ;
#356 = ORIENTED_EDGE ( 'NONE', *, *, #125, .F. ) ;
#357 = CARTESIAN_POINT ( 'NONE',  ( 0.0000000000000000000, 36.50000000000000000, 4.000000000000000000 ) ) ;
#358 = CARTESIAN_POINT ( 'NONE',  ( 5.249999999999996400, 8.499999999999998200, 4.000000000000000000 ) ) ;
#359 = VERTEX_POINT ( 'NONE', #374 ) ;
#360 = DIRECTION ( 'NONE',  ( 0.0000000000000000000, 0.0000000000000000000, 1.000000000000000000 ) ) ;
#361 = AXIS2_PLACEMENT_3D ( 'NONE', #357, #352, #743 ) ;
#362 = CARTESIAN_POINT ( 'NONE',  ( 0.0000000000000000000, 36.50000000000000000, 4.000000000000000000 ) ) ;
#363 = CARTESIAN_POINT ( 'NONE',  ( 0.0000000000000000000, 36.50000000000000000, 0.0000000000000000000 ) ) ;
#364 = CIRCLE ( 'NONE', #107, 15.49999999999999800 ) ;
#365 = EDGE_CURVE ( 'NONE', #781, #77, #309, .T. ) ;
#366 = DIRECTION ( 'NONE',  ( 0.2982749931359470800, 0.9544799780350297100, 0.0000000000000000000 ) ) ;
#367 = ORIENTED_EDGE ( 'NONE', *, *, #69, .T. ) ;
#368 = ORIENTED_EDGE ( 'NONE', *, *, #692, .T. ) ;
#369 = CARTESIAN_POINT ( 'NONE',  ( 8.749999999999998200, 8.499999999999998200, 0.0000000000000000000 ) ) ;
#370 = EDGE_LOOP ( 'NONE', ( #53, #602, #506, #281 ) ) ;
#371 = PLANE ( 'NONE',  #638 ) ;
#372 = LINE ( 'NONE', #176, #57 ) ;
#373 = CARTESIAN_POINT ( 'NONE',  ( 12.50000000000000000, -1.530808498934190700E-015, 4.000000000000000000 ) ) ;
#374 = CARTESIAN_POINT ( 'NONE',  ( 11.25000000000000000, 6.999999999999994700, 4.000000000000000000 ) ) ;
#375 = LINE ( 'NONE', #327, #214 ) ;
#376 = ORIENTED_EDGE ( 'NONE', *, *, #540, .T. ) ;
#377 = VERTEX_POINT ( 'NONE', #369 ) ;
#378 = CARTESIAN_POINT ( 'NONE',  ( -7.250000000000000000, 24.52346043299652200, 4.000000000000000000 ) ) ;
#379 = EDGE_LOOP ( 'NONE', ( #50, #192, #331, #543 ) ) ;
#380 = EDGE_CURVE ( 'NONE', #330, #174, #232, .T. ) ;
#381 = FACE_OUTER_BOUND ( 'NONE', #736, .T. ) ;
#382 = CARTESIAN_POINT ( 'NONE',  ( -12.50000000000000000, 2.999999999999998200, 0.0000000000000000000 ) ) ;
#383 = LINE ( 'NONE', #606, #436 ) ;
#384 = DIRECTION ( 'NONE',  ( 0.0000000000000000000, 0.0000000000000000000, 1.000000000000000000 ) ) ;
#385 = ORIENTED_EDGE ( 'NONE', *, *, #729, .T. ) ;
#386 = AXIS2_PLACEMENT_3D ( 'NONE', #340, #816, #814 ) ;
#387 = ORIENTED_EDGE ( 'NONE', *, *, #598, .T. ) ;
#388 = CARTESIAN_POINT ( 'NONE',  ( -11.25000000000000000, 6.999999999999998200, 4.000000000000000000 ) ) ;
#389 = CALENDAR_DATE ( 2018, 4, 11 ) ;
#390 = FACE_OUTER_BOUND ( 'NONE', #370, .T. ) ;
#391 = DIRECTION ( 'NONE',  ( -0.0000000000000000000, -0.0000000000000000000, -1.000000000000000000 ) ) ;
#392 = PRODUCT_DEFINITION_FORMATION_WITH_SPECIFIED_SOURCE ( 'ANY', '', #148, .NOT_KNOWN. ) ;
#393 = ADVANCED_FACE ( 'NONE', ( #18 ), #179, .F. ) ;
#394 = EDGE_CURVE ( 'NONE', #174, #678, #547, .T. ) ;
#395 = ORIENTED_EDGE ( 'NONE', *, *, #569, .T. ) ;
#396 = ORIENTED_EDGE ( 'NONE', *, *, #739, .T. ) ;
#397 = ORIENTED_EDGE ( 'NONE', *, *, #349, .T. ) ;
#398 = ORIENTED_EDGE ( 'NONE', *, *, #136, .F. ) ;
#399 = AXIS2_PLACEMENT_3D ( 'NONE', #378, #511, #507 ) ;
#400 = LINE ( 'NONE', #31, #621 ) ;
#401 = CARTESIAN_POINT ( 'NONE',  ( 15.49999999999999800, 36.50000000000000000, 4.000000000000000000 ) ) ;
#402 = EDGE_CURVE ( 'NONE', #678, #101, #529, .T. ) ;
#403 = VERTEX_POINT ( 'NONE', #706 ) ;
#404 = ORIENTED_EDGE ( 'NONE', *, *, #365, .F. ) ;
#405 = DIRECTION ( 'NONE',  ( 1.000000000000000000, 0.0000000000000000000, 0.0000000000000000000 ) ) ;
#406 = LOCAL_TIME ( 15, 57, 57.00000000000000000, #518 ) ;
#407 = FACE_OUTER_BOUND ( 'NONE', #321, .T. ) ;
#408 = CARTESIAN_POINT ( 'NONE',  ( 1.749999999999996400, 8.499999999999998200, 4.000000000000000000 ) ) ;
#409 = DIRECTION ( 'NONE',  ( 0.2982749931359470800, -0.9544799780350296000, 0.0000000000000000000 ) ) ;
#410 = CARTESIAN_POINT ( 'NONE',  ( 12.50000000000000000, 2.999999999999996400, 4.000000000000000000 ) ) ;
#411 = CARTESIAN_POINT ( 'NONE',  ( 12.50000000000000000, 2.999999999999996400, 4.000000000000000000 ) ) ;
#412 = LINE ( 'NONE', #535, #270 ) ;
#413 = DIRECTION ( 'NONE',  ( -2.168404344971009400E-016, 1.000000000000000000, 0.0000000000000000000 ) ) ;
#414 = CARTESIAN_POINT ( 'NONE',  ( 0.0000000000000000000, 0.0000000000000000000, 0.0000000000000000000 ) ) ;
#415 = ORIENTED_EDGE ( 'NONE', *, *, #729, .F. ) ;
#416 = VERTEX_POINT ( 'NONE', #713 ) ;
#417 =( NAMED_UNIT ( * ) SI_UNIT ( $, .STERADIAN. ) SOLID_ANGLE_UNIT ( ) );
#418 = DIRECTION ( 'NONE',  ( -0.0000000000000000000, -0.0000000000000000000, -1.000000000000000000 ) ) ;
#419 = PERSON_AND_ORGANIZATION ( #545, #316 ) ;
#420 = FACE_OUTER_BOUND ( 'NONE', #541, .T. ) ;
#421 = MECHANICAL_CONTEXT ( 'NONE', #25, 'mechanical' ) ;
#422 = CARTESIAN_POINT ( 'NONE',  ( -12.50000000000000000, -1.530808498934191500E-015, 4.000000000000000000 ) ) ;
#423 = DIRECTION ( 'NONE',  ( 0.0000000000000000000, 0.0000000000000000000, 1.000000000000000000 ) ) ;
#424 = CARTESIAN_POINT ( 'NONE',  ( -8.749999999999998200, 13.99999999999999800, 4.000000000000000000 ) ) ;
#425 = CIRCLE ( 'NONE', #297, 13.99999999999999500 ) ;
#426 = CARTESIAN_POINT ( 'NONE',  ( 8.749999999999998200, 16.49999999999999600, 4.000000000000000000 ) ) ;
#427 = LINE ( 'NONE', #88, #770 ) ;
#428 = ORIENTED_EDGE ( 'NONE', *, *, #692, .F. ) ;
#429 = CARTESIAN_POINT ( 'NONE',  ( 0.0000000000000000000, 36.50000000000000000, 4.000000000000000000 ) ) ;
#430 = DIRECTION ( 'NONE',  ( -1.927470528863120300E-016, 1.000000000000000000, -0.0000000000000000000 ) ) ;
#431 = AXIS2_PLACEMENT_3D ( 'NONE', #722, #591, #66 ) ;
#432 = CYLINDRICAL_SURFACE ( 'NONE', #275, 3.500000000000000400 ) ;
#433 = CIRCLE ( 'NONE', #758, 3.499999999999998700 ) ;
#434 = DIRECTION ( 'NONE',  ( 1.000000000000000000, 0.0000000000000000000, 0.0000000000000000000 ) ) ;
#435 = DIRECTION ( 'NONE',  ( 0.0000000000000000000, 0.0000000000000000000, 1.000000000000000000 ) ) ;
#436 = VECTOR ( 'NONE', #130, 1000.000000000000000 ) ;
#437 = AXIS2_PLACEMENT_3D ( 'NONE', #411, #267, #409 ) ;
#438 = ORIENTED_EDGE ( 'NONE', *, *, #853, .F. ) ;
#439 = CARTESIAN_POINT ( 'NONE',  ( 12.50000000000000000, -1.530808498934190700E-015, 0.0000000000000000000 ) ) ;
#440 = ORIENTED_EDGE ( 'NONE', *, *, #83, .F. ) ;
#441 = EDGE_CURVE ( 'NONE', #101, #166, #138, .T. ) ;
#442 = DIRECTION ( 'NONE',  ( -0.0000000000000000000, -1.000000000000000000, -0.0000000000000000000 ) ) ;
#443 = LOCAL_TIME ( 15, 57, 57.00000000000000000, #617 ) ;
#444 = CARTESIAN_POINT ( 'NONE',  ( 12.50000000000000000, -1.530808498934190700E-015, 4.000000000000000000 ) ) ;
#445 = DIRECTION ( 'NONE',  ( -0.0000000000000000000, -0.0000000000000000000, -1.000000000000000000 ) ) ;
#446 = VECTOR ( 'NONE', #36, 1000.000000000000200 ) ;
#447 = AXIS2_PLACEMENT_3D ( 'NONE', #286, #497, #632 ) ;
#448 = FACE_OUTER_BOUND ( 'NONE', #157, .T. ) ;
#449 = VERTEX_POINT ( 'NONE', #578 ) ;
#450 = DIRECTION ( 'NONE',  ( -1.000000000000000000, 0.0000000000000000000, 0.0000000000000000000 ) ) ;
#451 = EDGE_LOOP ( 'NONE', ( #582, #310, #110, #376 ) ) ;
#452 = COORDINATED_UNIVERSAL_TIME_OFFSET ( 1, 0, .AHEAD. ) ;
#453 = DIRECTION ( 'NONE',  ( 1.000000000000000000, 0.0000000000000000000, 0.0000000000000000000 ) ) ;
#454 = CYLINDRICAL_SURFACE ( 'NONE', #474, 3.500000000000001300 ) ;
#455 = CARTESIAN_POINT ( 'NONE',  ( -1.750000000000000200, 13.99999999999999800, 4.000000000000000000 ) ) ;
#456 = FACE_OUTER_BOUND ( 'NONE', #319, .T. ) ;
#457 = DIRECTION ( 'NONE',  ( -0.0000000000000000000, -0.0000000000000000000, -1.000000000000000000 ) ) ;
#458 = ORIENTED_EDGE ( 'NONE', *, *, #394, .T. ) ;
#459 = AXIS2_PLACEMENT_3D ( 'NONE', #226, #279, #413 ) ;
#460 = ORIENTED_EDGE ( 'NONE', *, *, #833, .F. ) ;
#461 = CARTESIAN_POINT ( 'NONE',  ( -5.249999999999998200, 13.99999999999999800, 4.000000000000000000 ) ) ;
#462 = VECTOR ( 'NONE', #38, 1000.000000000000000 ) ;
#463 = ADVANCED_FACE ( 'NONE', ( #407 ), #371, .F. ) ;
#464 = VECTOR ( 'NONE', #24, 1000.000000000000000 ) ;
#465 = VERTEX_POINT ( 'NONE', #311 ) ;
#466 = DIRECTION ( 'NONE',  ( -1.000000000000000000, 0.0000000000000000000, 0.0000000000000000000 ) ) ;
#467 = DIRECTION ( 'NONE',  ( -1.499166426140970600E-016, -1.000000000000000000, -0.0000000000000000000 ) ) ;
#468 = ORIENTED_EDGE ( 'NONE', *, *, #8, .T. ) ;
#469 = CC_DESIGN_PERSON_AND_ORGANIZATION_ASSIGNMENT ( #56, #492, ( #30 ) ) ;
#470 = VERTEX_POINT ( 'NONE', #775 ) ;
#471 = DIRECTION ( 'NONE',  ( 1.000000000000000000, 0.0000000000000000000, 0.0000000000000000000 ) ) ;
#472 = APPROVAL_DATE_TIME ( #137, #302 ) ;
#473 = CARTESIAN_POINT ( 'NONE',  ( -8.749999999999998200, 9.500000000000001800, 4.000000000000000000 ) ) ;
#474 = AXIS2_PLACEMENT_3D ( 'NONE', #530, #849, #450 ) ;
#475 = DIRECTION ( 'NONE',  ( -0.0000000000000000000, -0.0000000000000000000, -1.000000000000000000 ) ) ;
#476 = VERTEX_POINT ( 'NONE', #836 ) ;
#477 = ORIENTED_EDGE ( 'NONE', *, *, #674, .T. ) ;
#478 = ORIENTED_EDGE ( 'NONE', *, *, #394, .F. ) ;
#479 = CARTESIAN_POINT ( 'NONE',  ( -12.50000000000000000, -1.530808498934191500E-015, 4.000000000000000000 ) ) ;
#480 = CARTESIAN_POINT ( 'NONE',  ( -5.249999999999998200, 13.99999999999999800, 0.0000000000000000000 ) ) ;
#481 = APPROVAL ( #485, 'UNSPECIFIED' ) ;
#482 = EDGE_CURVE ( 'NONE', #77, #678, #199, .T. ) ;
#483 = APPROVAL_PERSON_ORGANIZATION ( #254, #481, #89 ) ;
#484 = CARTESIAN_POINT ( 'NONE',  ( -11.24999999999999300, 25.83756594393193100, 4.000000000000000000 ) ) ;
#485 = APPROVAL_STATUS ( 'not_yet_approved' ) ;
#486 = DIRECTION ( 'NONE',  ( 1.000000000000000000, 0.0000000000000000000, 0.0000000000000000000 ) ) ;
#487 = APPLICATION_PROTOCOL_DEFINITION ( 'international standard', 'config_control_design', 1994, #294 ) ;
#488 = CC_DESIGN_PERSON_AND_ORGANIZATION_ASSIGNMENT ( #296, #811, ( #347 ) ) ;
#489 = DIRECTION ( 'NONE',  ( 0.9544799780350297100, -0.2982749931359470800, 0.0000000000000000000 ) ) ;
#490 = LINE ( 'NONE', #44, #686 ) ;
#491 = CARTESIAN_POINT ( 'NONE',  ( -12.50000000000000000, -1.530808498934191500E-015, 0.0000000000000000000 ) ) ;
#492 = PERSON_AND_ORGANIZATION_ROLE ( 'classification_officer' ) ;
#493 = EDGE_LOOP ( 'NONE', ( #252, #355, #655, #821 ) ) ;
#494 = VERTEX_POINT ( 'NONE', #314 ) ;
#495 = ORIENTED_EDGE ( 'NONE', *, *, #402, .F. ) ;
#496 = COORDINATED_UNIVERSAL_TIME_OFFSET ( 1, 0, .AHEAD. ) ;
#497 = DIRECTION ( 'NONE',  ( 1.000000000000000000, 0.0000000000000000000, 0.0000000000000000000 ) ) ;
#498 = SHAPE_DEFINITION_REPRESENTATION ( #768, #778 ) ;
#499 = FACE_OUTER_BOUND ( 'NONE', #645, .T. ) ;
#500 = DIRECTION ( 'NONE',  ( 1.000000000000000000, 0.0000000000000000000, 0.0000000000000000000 ) ) ;
#501 = CARTESIAN_POINT ( 'NONE',  ( -7.249999999999999100, 16.87228132326901100, 4.000000000000000000 ) ) ;
#502 = AXIS2_PLACEMENT_3D ( 'NONE', #206, #278, #345 ) ;
#503 = CARTESIAN_POINT ( 'NONE',  ( 12.50000000000000000, -1.530808498934190700E-015, 4.000000000000000000 ) ) ;
#504 = LINE ( 'NONE', #479, #318 ) ;
#505 = ORIENTED_EDGE ( 'NONE', *, *, #515, .F. ) ;
#506 = ORIENTED_EDGE ( 'NONE', *, *, #129, .T. ) ;
#507 = DIRECTION ( 'NONE',  ( 1.133631464574738000E-016, -1.000000000000000000, 0.0000000000000000000 ) ) ;
#508 = AXIS2_PLACEMENT_3D ( 'NONE', #847, #435, #517 ) ;
#509 = VECTOR ( 'NONE', #467, 1000.000000000000000 ) ;
#510 = DIRECTION ( 'NONE',  ( -0.0000000000000000000, -0.0000000000000000000, -1.000000000000000000 ) ) ;
#511 = DIRECTION ( 'NONE',  ( -1.000000000000000000, -1.133631464574738000E-016, 0.0000000000000000000 ) ) ;
#512 = VECTOR ( 'NONE', #418, 1000.000000000000000 ) ;
#513 = EDGE_LOOP ( 'NONE', ( #820, #677, #283, #134 ) ) ;
#514 = ORIENTED_EDGE ( 'NONE', *, *, #260, .F. ) ;
#515 = EDGE_CURVE ( 'NONE', #760, #689, #119, .T. ) ;
#516 = ORIENTED_EDGE ( 'NONE', *, *, #841, .F. ) ;
#517 = DIRECTION ( 'NONE',  ( 1.000000000000000000, 0.0000000000000000000, 0.0000000000000000000 ) ) ;
#518 = COORDINATED_UNIVERSAL_TIME_OFFSET ( 1, 0, .AHEAD. ) ;
#519 = LINE ( 'NONE', #804, #509 ) ;
#520 = CC_DESIGN_PERSON_AND_ORGANIZATION_ASSIGNMENT ( #596, #551, ( #392 ) ) ;
#521 = VECTOR ( 'NONE', #337, 1000.000000000000000 ) ;
#522 = PLANE ( 'NONE',  #78 ) ;
#523 = AXIS2_PLACEMENT_3D ( 'NONE', #336, #611, #84 ) ;
#524 = CYLINDRICAL_SURFACE ( 'NONE', #322, 15.49999999999999800 ) ;
#525 = EDGE_LOOP ( 'NONE', ( #762, #614, #86, #637, #710, #477, #725, #554 ) ) ;
#526 = VERTEX_POINT ( 'NONE', #52 ) ;
#527 = ADVANCED_FACE ( 'NONE', ( #276 ), #46, .T. ) ;
#528 = CARTESIAN_POINT ( 'NONE',  ( 13.99999999999999500, 36.50000000000000000, 0.0000000000000000000 ) ) ;
#529 = LINE ( 'NONE', #308, #597 ) ;
#530 = CARTESIAN_POINT ( 'NONE',  ( 5.249999999999995600, 16.49999999999999600, 4.000000000000000000 ) ) ;
#531 = EDGE_CURVE ( 'NONE', #359, #219, #224, .T. ) ;
#532 = CIRCLE ( 'NONE', #225, 13.99999999999999500 ) ;
#533 = EDGE_LOOP ( 'NONE', ( #733, #62, #712, #788 ) ) ;
#534 = EDGE_LOOP ( 'NONE', ( #612, #168, #779, #809 ) ) ;
#535 = CARTESIAN_POINT ( 'NONE',  ( 12.50000000000000000, -1.530808498934190700E-015, 4.000000000000000000 ) ) ;
#536 = CALENDAR_DATE ( 2018, 4, 11 ) ;
#537 = CIRCLE ( 'NONE', #253, 15.49999999999999800 ) ;
#538 = CARTESIAN_POINT ( 'NONE',  ( -11.25000000000000000, 6.999999999999998200, 4.000000000000000000 ) ) ;
#539 = CARTESIAN_POINT ( 'NONE',  ( -13.99999999999999500, 36.50000000000000000, 0.0000000000000000000 ) ) ;
#540 = EDGE_CURVE ( 'NONE', #342, #101, #372, .T. ) ;
#541 = EDGE_LOOP ( 'NONE', ( #415, #845, #185, #54 ) ) ;
#542 = CARTESIAN_POINT ( 'NONE',  ( 5.249999999999996400, 8.499999999999998200, 4.000000000000000000 ) ) ;
#543 = ORIENTED_EDGE ( 'NONE', *, *, #615, .T. ) ;
#544 = ORIENTED_EDGE ( 'NONE', *, *, #580, .T. ) ;
#545 = PERSON ( 'UNSPECIFIED', 'UNSPECIFIED', 'UNSPECIFIED', ('UNSPECIFIED'), ('UNSPECIFIED'), ('UNSPECIFIED') ) ;
#546 = PLANE ( 'NONE',  #280 ) ;
#547 = LINE ( 'NONE', #247, #605 ) ;
#548 = DIRECTION ( 'NONE',  ( -0.0000000000000000000, -0.0000000000000000000, -1.000000000000000000 ) ) ;
#549 = DIRECTION ( 'NONE',  ( 1.000000000000000000, 0.0000000000000000000, 0.0000000000000000000 ) ) ;
#550 = AXIS2_PLACEMENT_3D ( 'NONE', #754, #829, #823 ) ;
#551 = PERSON_AND_ORGANIZATION_ROLE ( 'creator' ) ;
#552 = VECTOR ( 'NONE', #81, 1000.000000000000000 ) ;
#553 = VERTEX_POINT ( 'NONE', #48 ) ;
#554 = ORIENTED_EDGE ( 'NONE', *, *, #803, .T. ) ;
#555 = PERSON_AND_ORGANIZATION_ROLE ( 'design_owner' ) ;
#556 = CARTESIAN_POINT ( 'NONE',  ( 1.749999999999994700, 16.49999999999999600, 4.000000000000000000 ) ) ;
#557 = ADVANCED_FACE ( 'NONE', ( #650 ), #45, .F. ) ;
#558 = EDGE_CURVE ( 'NONE', #342, #282, #801, .T. ) ;
#559 = FACE_BOUND ( 'NONE', #745, .T. ) ;
#560 = APPROVAL_STATUS ( 'not_yet_approved' ) ;
#561 = LINE ( 'NONE', #184, #335 ) ;
#562 = DIRECTION ( 'NONE',  ( -0.0000000000000000000, -0.0000000000000000000, -1.000000000000000000 ) ) ;
#563 = DIRECTION ( 'NONE',  ( 1.000000000000000000, 0.0000000000000000000, -0.0000000000000000000 ) ) ;
#564 = CARTESIAN_POINT ( 'NONE',  ( 0.0000000000000000000, 36.50000000000000000, 4.000000000000000000 ) ) ;
#565 = DIRECTION ( 'NONE',  ( -0.0000000000000000000, -0.0000000000000000000, -1.000000000000000000 ) ) ;
#566 = VERTEX_POINT ( 'NONE', #241 ) ;
#567 = ORIENTED_EDGE ( 'NONE', *, *, #59, .F. ) ;
#568 = EDGE_LOOP ( 'NONE', ( #458, #592, #404, #15 ) ) ;
#569 = EDGE_CURVE ( 'NONE', #282, #166, #631, .T. ) ;
#570 = DIRECTION ( 'NONE',  ( 1.000000000000000000, 0.0000000000000000000, 0.0000000000000000000 ) ) ;
#571 = VECTOR ( 'NONE', #442, 1000.000000000000000 ) ;
#572 = CC_DESIGN_DATE_AND_TIME_ASSIGNMENT ( #242, #94, ( #30 ) ) ;
#573 = CYLINDRICAL_SURFACE ( 'NONE', #624, 13.99999999999999500 ) ;
#574 = EDGE_CURVE ( 'NONE', #219, #117, #561, .T. ) ;
#575 = ORIENTED_EDGE ( 'NONE', *, *, #129, .F. ) ;
#576 = ORIENTED_EDGE ( 'NONE', *, *, #660, .F. ) ;
#577 = DIRECTION ( 'NONE',  ( -1.000000000000000000, 0.0000000000000000000, 0.0000000000000000000 ) ) ;
#578 = CARTESIAN_POINT ( 'NONE',  ( 12.50000000000000000, 2.999999999999996400, 0.0000000000000000000 ) ) ;
#579 = CARTESIAN_POINT ( 'NONE',  ( 0.0000000000000000000, 36.50000000000000000, 4.000000000000000000 ) ) ;
#580 = EDGE_CURVE ( 'NONE', #13, #290, #364, .T. ) ;
#581 = VECTOR ( 'NONE', #295, 1000.000000000000000 ) ;
#582 = ORIENTED_EDGE ( 'NONE', *, *, #441, .T. ) ;
#583 = DIRECTION ( 'NONE',  ( -0.0000000000000000000, -0.0000000000000000000, -1.000000000000000000 ) ) ;
#584 = VERTEX_POINT ( 'NONE', #237 ) ;
#585 = EDGE_CURVE ( 'NONE', #796, #735, #766, .T. ) ;
#586 = ORIENTED_EDGE ( 'NONE', *, *, #574, .F. ) ;
#587 = DIRECTION ( 'NONE',  ( 1.000000000000000000, 0.0000000000000000000, 0.0000000000000000000 ) ) ;
#588 = VECTOR ( 'NONE', #618, 1000.000000000000000 ) ;
#589 = VECTOR ( 'NONE', #457, 1000.000000000000000 ) ;
#590 = DIRECTION ( 'NONE',  ( -0.0000000000000000000, -1.000000000000000000, -0.0000000000000000000 ) ) ;
#591 = DIRECTION ( 'NONE',  ( -0.0000000000000000000, -0.0000000000000000000, -1.000000000000000000 ) ) ;
#592 = ORIENTED_EDGE ( 'NONE', *, *, #482, .F. ) ;
#593 = EDGE_LOOP ( 'NONE', ( #856, #14, #145, #635 ) ) ;
#594 = ADVANCED_FACE ( 'NONE', ( #390 ), #785, .T. ) ;
#595 = EDGE_LOOP ( 'NONE', ( #656, #834, #837, #724 ) ) ;
#596 = PERSON_AND_ORGANIZATION ( #545, #316 ) ;
#597 = VECTOR ( 'NONE', #641, 1000.000000000000000 ) ;
#598 = EDGE_CURVE ( 'NONE', #701, #240, #433, .T. ) ;
#599 = ORIENTED_EDGE ( 'NONE', *, *, #380, .T. ) ;
#600 = AXIS2_PLACEMENT_3D ( 'NONE', #731, #16, #673 ) ;
#601 = ORIENTED_EDGE ( 'NONE', *, *, #540, .F. ) ;
#602 = ORIENTED_EDGE ( 'NONE', *, *, #853, .T. ) ;
#603 = CARTESIAN_POINT ( 'NONE',  ( -8.750000000000000000, 25.57125350280280800, 4.000000000000000000 ) ) ;
#604 = FACE_OUTER_BOUND ( 'NONE', #513, .T. ) ;
#605 = VECTOR ( 'NONE', #838, 1000.000000000000000 ) ;
#606 = CARTESIAN_POINT ( 'NONE',  ( 8.749999999999998200, 8.499999999999998200, 4.000000000000000000 ) ) ;
#607 = AXIS2_PLACEMENT_3D ( 'NONE', #698, #489, #366 ) ;
#608 = CARTESIAN_POINT ( 'NONE',  ( -11.25000000000000000, 6.999999999999998200, 0.0000000000000000000 ) ) ;
#609 = CARTESIAN_POINT ( 'NONE',  ( -8.750000000000000000, 25.57125350280280800, 0.0000000000000000000 ) ) ;
#610 = LINE ( 'NONE', #807, #795 ) ;
#611 = DIRECTION ( 'NONE',  ( 0.0000000000000000000, 0.0000000000000000000, 1.000000000000000000 ) ) ;
#612 = ORIENTED_EDGE ( 'NONE', *, *, #125, .T. ) ;
#613 = CC_DESIGN_APPROVAL ( #805, ( #30 ) ) ;
#614 = ORIENTED_EDGE ( 'NONE', *, *, #243, .T. ) ;
#615 = EDGE_CURVE ( 'NONE', #689, #470, #672, .T. ) ;
#616 = CARTESIAN_POINT ( 'NONE',  ( 0.0000000000000000000, 36.50000000000000000, 0.0000000000000000000 ) ) ;
#617 = COORDINATED_UNIVERSAL_TIME_OFFSET ( 1, 0, .AHEAD. ) ;
#618 = DIRECTION ( 'NONE',  ( -0.0000000000000000000, -0.0000000000000000000, -1.000000000000000000 ) ) ;
#619 = DIRECTION ( 'NONE',  ( 1.000000000000000000, 0.0000000000000000000, 0.0000000000000000000 ) ) ;
#620 = DIRECTION ( 'NONE',  ( -0.2982749931359470800, 0.9544799780350296000, 0.0000000000000000000 ) ) ;
#621 = VECTOR ( 'NONE', #299, 1000.000000000000000 ) ;
#622 = CIRCLE ( 'NONE', #17, 13.99999999999999500 ) ;
#623 = ORIENTED_EDGE ( 'NONE', *, *, #243, .F. ) ;
#624 = AXIS2_PLACEMENT_3D ( 'NONE', #19, #548, #212 ) ;
#625 = DIRECTION ( 'NONE',  ( 1.000000000000000000, 0.0000000000000000000, 0.0000000000000000000 ) ) ;
#626 = CARTESIAN_POINT ( 'NONE',  ( 5.249999999999995600, 16.49999999999999600, 0.0000000000000000000 ) ) ;
#627 = VECTOR ( 'NONE', #246, 1000.000000000000000 ) ;
#628 = CARTESIAN_POINT ( 'NONE',  ( -11.24999999999999300, 25.83756594393193100, 4.000000000000000000 ) ) ;
#629 = EDGE_CURVE ( 'NONE', #329, #781, #727, .T. ) ;
#630 = DIRECTION ( 'NONE',  ( -0.0000000000000000000, 0.0000000000000000000, -1.000000000000000000 ) ) ;
#631 = LINE ( 'NONE', #170, #741 ) ;
#632 = DIRECTION ( 'NONE',  ( 0.0000000000000000000, 0.0000000000000000000, -1.000000000000000000 ) ) ;
#633 = CARTESIAN_POINT ( 'NONE',  ( 1.749999999999994700, 16.49999999999999600, 4.000000000000000000 ) ) ;
#634 = VECTOR ( 'NONE', #135, 1000.000000000000000 ) ;
#635 = ORIENTED_EDGE ( 'NONE', *, *, #585, .F. ) ;
#636 = DIRECTION ( 'NONE',  ( 1.000000000000000000, 3.081487911019577400E-032, -0.0000000000000000000 ) ) ;
#637 = ORIENTED_EDGE ( 'NONE', *, *, #284, .T. ) ;
#638 = AXIS2_PLACEMENT_3D ( 'NONE', #58, #577, #639 ) ;
#639 = DIRECTION ( 'NONE',  ( 0.0000000000000000000, 0.0000000000000000000, 1.000000000000000000 ) ) ;
#640 = FACE_OUTER_BOUND ( 'NONE', #533, .T. ) ;
#641 = DIRECTION ( 'NONE',  ( -0.0000000000000000000, -1.000000000000000000, -0.0000000000000000000 ) ) ;
#642 = LINE ( 'NONE', #236, #22 ) ;
#643 = EDGE_CURVE ( 'NONE', #117, #205, #348, .T. ) ;
#644 = ORIENTED_EDGE ( 'NONE', *, *, #8, .F. ) ;
#645 = EDGE_LOOP ( 'NONE', ( #703, #6, #26, #111 ) ) ;
#646 = DIRECTION ( 'NONE',  ( -1.000000000000000000, 0.0000000000000000000, 0.0000000000000000000 ) ) ;
#647 = ORIENTED_EDGE ( 'NONE', *, *, #763, .T. ) ;
#648 = AXIS2_PLACEMENT_3D ( 'NONE', #480, #734, #405 ) ;
#649 = FACE_OUTER_BOUND ( 'NONE', #186, .T. ) ;
#650 = FACE_OUTER_BOUND ( 'NONE', #593, .T. ) ;
#651 = DIRECTION ( 'NONE',  ( 0.0000000000000000000, 1.000000000000000000, 0.0000000000000000000 ) ) ;
#652 = ADVANCED_FACE ( 'NONE', ( #499 ), #522, .F. ) ;
#653 = LINE ( 'NONE', #221, #121 ) ;
#654 = DIRECTION ( 'NONE',  ( 0.0000000000000000000, 0.0000000000000000000, 1.000000000000000000 ) ) ;
#655 = ORIENTED_EDGE ( 'NONE', *, *, #660, .T. ) ;
#656 = ORIENTED_EDGE ( 'NONE', *, *, #715, .F. ) ;
#657 = CARTESIAN_POINT ( 'NONE',  ( 0.0000000000000000000, 36.50000000000000000, 4.000000000000000000 ) ) ;
#658 = LOCAL_TIME ( 15, 57, 57.00000000000000000, #792 ) ;
#659 = CARTESIAN_POINT ( 'NONE',  ( 0.0000000000000000000, 36.50000000000000000, 0.0000000000000000000 ) ) ;
#660 = EDGE_CURVE ( 'NONE', #689, #701, #208, .T. ) ;
#661 = ADVANCED_FACE ( 'NONE', ( #720 ), #752, .F. ) ;
#662 = DIRECTION ( 'NONE',  ( 0.0000000000000000000, 1.000000000000000000, 0.0000000000000000000 ) ) ;
#663 = AXIS2_PLACEMENT_3D ( 'NONE', #141, #209, #680 ) ;
#664 = LINE ( 'NONE', #484, #464 ) ;
#665 = ORIENTED_EDGE ( 'NONE', *, *, #304, .T. ) ;
#666 = DIRECTION ( 'NONE',  ( -0.0000000000000000000, -0.0000000000000000000, -1.000000000000000000 ) ) ;
#667 = ORIENTED_EDGE ( 'NONE', *, *, #47, .T. ) ;
#668 = VERTEX_POINT ( 'NONE', #528 ) ;
#669 = PLANE ( 'NONE',  #502 ) ;
#670 = AXIS2_PLACEMENT_3D ( 'NONE', #564, #360, #619 ) ;
#671 = CIRCLE ( 'NONE', #198, 15.49999999999999800 ) ;
#672 = LINE ( 'NONE', #784, #589 ) ;
#673 = DIRECTION ( 'NONE',  ( 1.000000000000000000, 0.0000000000000000000, 0.0000000000000000000 ) ) ;
#674 = EDGE_CURVE ( 'NONE', #735, #220, #245, .T. ) ;
#675 = ORIENTED_EDGE ( 'NONE', *, *, #402, .T. ) ;
#676 = ADVANCED_FACE ( 'NONE', ( #420 ), #831, .F. ) ;
#677 = ORIENTED_EDGE ( 'NONE', *, *, #23, .F. ) ;
#678 = VERTEX_POINT ( 'NONE', #382 ) ;
#679 = CARTESIAN_POINT ( 'NONE',  ( -11.25000000000000000, 6.999999999999998200, 4.000000000000000000 ) ) ;
#680 = DIRECTION ( 'NONE',  ( 1.000000000000000000, 0.0000000000000000000, -0.0000000000000000000 ) ) ;
#681 = DIRECTION ( 'NONE',  ( 1.000000000000000000, 0.0000000000000000000, 0.0000000000000000000 ) ) ;
#682 =( LENGTH_UNIT ( ) NAMED_UNIT ( * ) SI_UNIT ( .MILLI., .METRE. ) );
#683 = AXIS2_PLACEMENT_3D ( 'NONE', #657, #583, #259 ) ;
#684 = DIRECTION ( 'NONE',  ( 0.0000000000000000000, 0.0000000000000000000, 1.000000000000000000 ) ) ;
#685 = ADVANCED_FACE ( 'NONE', ( #381 ), #454, .F. ) ;
#686 = VECTOR ( 'NONE', #39, 1000.000000000000000 ) ;
#687 = DIRECTION ( 'NONE',  ( 0.0000000000000000000, 0.0000000000000000000, -1.000000000000000000 ) ) ;
#688 = CARTESIAN_POINT ( 'NONE',  ( -13.99999999999999500, 36.50000000000000000, 4.000000000000000000 ) ) ;
#689 = VERTEX_POINT ( 'NONE', #251 ) ;
#690 = ORIENTED_EDGE ( 'NONE', *, *, #181, .F. ) ;
#691 = DIRECTION ( 'NONE',  ( 0.0000000000000000000, 0.0000000000000000000, 1.000000000000000000 ) ) ;
#692 = EDGE_CURVE ( 'NONE', #416, #13, #71, .T. ) ;
#693 = CARTESIAN_POINT ( 'NONE',  ( -11.25000000000000000, 6.999999999999998200, 4.000000000000000000 ) ) ;
#694 = LOCAL_TIME ( 15, 57, 57.00000000000000000, #496 ) ;
#695 = LINE ( 'NONE', #150, #521 ) ;
#696 = CARTESIAN_POINT ( 'NONE',  ( 11.25000000000000000, 6.999999999999994700, 0.0000000000000000000 ) ) ;
#697 = AXIS2_PLACEMENT_3D ( 'NONE', #626, #91, #35 ) ;
#698 = CARTESIAN_POINT ( 'NONE',  ( -12.50000000000000000, 2.999999999999998200, 4.000000000000000000 ) ) ;
#699 = CARTESIAN_POINT ( 'NONE',  ( 5.249999999999996400, 8.499999999999998200, 0.0000000000000000000 ) ) ;
#700 = VERTEX_POINT ( 'NONE', #603 ) ;
#701 = VERTEX_POINT ( 'NONE', #12 ) ;
#702 = EDGE_CURVE ( 'NONE', #290, #329, #537, .T. ) ;
#703 = ORIENTED_EDGE ( 'NONE', *, *, #574, .T. ) ;
#704 = CARTESIAN_POINT ( 'NONE',  ( 12.50000000000000000, 2.999999999999996400, 4.000000000000000000 ) ) ;
#705 = CALENDAR_DATE ( 2018, 4, 11 ) ;
#706 = CARTESIAN_POINT ( 'NONE',  ( -7.250000000000000000, 24.52346043299652200, 4.000000000000000000 ) ) ;
#707 = EDGE_CURVE ( 'NONE', #220, #470, #9, .T. ) ;
#708 = LINE ( 'NONE', #704, #446 ) ;
#709 = ORIENTED_EDGE ( 'NONE', *, *, #674, .F. ) ;
#710 = ORIENTED_EDGE ( 'NONE', *, *, #585, .T. ) ;
#711 = AXIS2_PLACEMENT_3D ( 'NONE', #424, #759, #630 ) ;
#712 = ORIENTED_EDGE ( 'NONE', *, *, #776, .T. ) ;
#713 = CARTESIAN_POINT ( 'NONE',  ( 11.25000000000000000, 25.83756594393193900, 4.000000000000000000 ) ) ;
#714 = VECTOR ( 'NONE', #565, 1000.000000000000000 ) ;
#715 = EDGE_CURVE ( 'NONE', #291, #771, #695, .T. ) ;
#716 = ORIENTED_EDGE ( 'NONE', *, *, #255, .T. ) ;
#717 = ORIENTED_EDGE ( 'NONE', *, *, #79, .T. ) ;
#718 = DIRECTION ( 'NONE',  ( 0.0000000000000000000, 0.0000000000000000000, 1.000000000000000000 ) ) ;
#719 = DIRECTION ( 'NONE',  ( -1.000000000000000000, 0.0000000000000000000, 0.0000000000000000000 ) ) ;
#720 = FACE_OUTER_BOUND ( 'NONE', #250, .T. ) ;
#721 = ORIENTED_EDGE ( 'NONE', *, *, #365, .T. ) ;
#722 = CARTESIAN_POINT ( 'NONE',  ( 0.0000000000000000000, 36.50000000000000000, 4.000000000000000000 ) ) ;
#723 = ORIENTED_EDGE ( 'NONE', *, *, #558, .T. ) ;
#724 = ORIENTED_EDGE ( 'NONE', *, *, #776, .F. ) ;
#725 = ORIENTED_EDGE ( 'NONE', *, *, #707, .T. ) ;
#726 = VECTOR ( 'NONE', #802, 1000.000000000000000 ) ;
#727 = LINE ( 'NONE', #388, #105 ) ;
#728 = DIRECTION ( 'NONE',  ( 0.0000000000000000000, 1.000000000000000000, 0.0000000000000000000 ) ) ;
#729 = EDGE_CURVE ( 'NONE', #303, #668, #163, .T. ) ;
#730 = CARTESIAN_POINT ( 'NONE',  ( -12.50000000000000000, 2.999999999999998200, 4.000000000000000000 ) ) ;
#731 = CARTESIAN_POINT ( 'NONE',  ( 5.249999999999995600, 16.49999999999999600, 4.000000000000000000 ) ) ;
#732 =( GEOMETRIC_REPRESENTATION_CONTEXT ( 3 ) GLOBAL_UNCERTAINTY_ASSIGNED_CONTEXT ( ( #846 ) ) GLOBAL_UNIT_ASSIGNED_CONTEXT ( ( #682, #830, #417 ) ) REPRESENTATION_CONTEXT ( 'NONE', 'WORKASPACE' ) );
#733 = ORIENTED_EDGE ( 'NONE', *, *, #307, .F. ) ;
#734 = DIRECTION ( 'NONE',  ( 0.0000000000000000000, 0.0000000000000000000, 1.000000000000000000 ) ) ;
#735 = VERTEX_POINT ( 'NONE', #609 ) ;
#736 = EDGE_LOOP ( 'NONE', ( #460, #133, #396, #848 ) ) ;
#737 = ADVANCED_FACE ( 'NONE', ( #118 ), #341, .F. ) ;
#738 = CARTESIAN_POINT ( 'NONE',  ( 0.0000000000000000000, 36.50000000000000000, 0.0000000000000000000 ) ) ;
#739 = EDGE_CURVE ( 'NONE', #476, #291, #180, .T. ) ;
#740 = PERSON_AND_ORGANIZATION ( #545, #316 ) ;
#741 = VECTOR ( 'NONE', #127, 1000.000000000000000 ) ;
#742 = PLANE ( 'NONE',  #663 ) ;
#743 = DIRECTION ( 'NONE',  ( 1.000000000000000000, 0.0000000000000000000, 0.0000000000000000000 ) ) ;
#744 = LINE ( 'NONE', #140, #634 ) ;
#745 = EDGE_LOOP ( 'NONE', ( #158, #234, #132, #204 ) ) ;
#746 = ORIENTED_EDGE ( 'NONE', *, *, #181, .T. ) ;
#747 = EDGE_CURVE ( 'NONE', #339, #553, #197, .T. ) ;
#748 = CARTESIAN_POINT ( 'NONE',  ( 8.749999999999998200, 8.500000000000000000, 4.000000000000000000 ) ) ;
#749 = DIRECTION ( 'NONE',  ( 1.000000000000000000, 0.0000000000000000000, 0.0000000000000000000 ) ) ;
#750 = LINE ( 'NONE', #688, #178 ) ;
#751 = DIRECTION ( 'NONE',  ( 0.0000000000000000000, 0.0000000000000000000, 1.000000000000000000 ) ) ;
#752 = CYLINDRICAL_SURFACE ( 'NONE', #2, 3.499999999999998700 ) ;
#753 = DIRECTION ( 'NONE',  ( 0.0000000000000000000, 0.0000000000000000000, 1.000000000000000000 ) ) ;
#754 = CARTESIAN_POINT ( 'NONE',  ( -1.750000000000000200, 13.99999999999999800, 4.000000000000000000 ) ) ;
#755 = CARTESIAN_POINT ( 'NONE',  ( 15.49999999999999800, 36.50000000000000000, 4.000000000000000000 ) ) ;
#756 = CARTESIAN_POINT ( 'NONE',  ( -13.99999999999999500, 36.50000000000000000, 4.000000000000000000 ) ) ;
#757 = CIRCLE ( 'NONE', #670, 13.99999999999999500 ) ;
#758 = AXIS2_PLACEMENT_3D ( 'NONE', #461, #384, #453 ) ;
#759 = DIRECTION ( 'NONE',  ( 1.000000000000000000, 0.0000000000000000000, -0.0000000000000000000 ) ) ;
#760 = VERTEX_POINT ( 'NONE', #473 ) ;
#761 = DIRECTION ( 'NONE',  ( -1.133631464574738000E-016, 1.000000000000000000, -0.0000000000000000000 ) ) ;
#762 = ORIENTED_EDGE ( 'NONE', *, *, #747, .T. ) ;
#763 = EDGE_CURVE ( 'NONE', #700, #760, #519, .T. ) ;
#764 = CARTESIAN_POINT ( 'NONE',  ( 13.99999999999999500, 36.50000000000000000, 4.000000000000000000 ) ) ;
#765 = LINE ( 'NONE', #289, #588 ) ;
#766 = CIRCLE ( 'NONE', #146, 13.99999999999999500 ) ;
#767 = DIRECTION ( 'NONE',  ( -0.0000000000000000000, -0.0000000000000000000, -1.000000000000000000 ) ) ;
#768 = PRODUCT_DEFINITION_SHAPE ( 'NONE', 'NONE',  #347 ) ;
#769 = DIRECTION ( 'NONE',  ( -0.0000000000000000000, -0.0000000000000000000, -1.000000000000000000 ) ) ;
#770 = VECTOR ( 'NONE', #475, 1000.000000000000000 ) ;
#771 = VERTEX_POINT ( 'NONE', #82 ) ;
#772 = EDGE_CURVE ( 'NONE', #377, #465, #324, .T. ) ;
#773 = ORIENTED_EDGE ( 'NONE', *, *, #69, .F. ) ;
#774 = APPROVAL_DATE_TIME ( #90, #481 ) ;
#775 = CARTESIAN_POINT ( 'NONE',  ( -1.749999999999998900, 9.500000000000001800, 0.0000000000000000000 ) ) ;
#776 = EDGE_CURVE ( 'NONE', #771, #167, #80, .T. ) ;
#777 = FACE_OUTER_BOUND ( 'NONE', #854, .T. ) ;
#778 = ADVANCED_BREP_SHAPE_REPRESENTATION ( 'roll_part_2_Domyùlna_sldprt', ( #74, #257 ), #732 ) ;
#779 = ORIENTED_EDGE ( 'NONE', *, *, #313, .F. ) ;
#780 = DIRECTION ( 'NONE',  ( 0.0000000000000000000, 0.0000000000000000000, 1.000000000000000000 ) ) ;
#781 = VERTEX_POINT ( 'NONE', #538 ) ;
#782 = CC_DESIGN_DATE_AND_TIME_ASSIGNMENT ( #104, #21, ( #347 ) ) ;
#783 = ORIENTED_EDGE ( 'NONE', *, *, #702, .T. ) ;
#784 = CARTESIAN_POINT ( 'NONE',  ( -1.749999999999998900, 9.500000000000001800, 4.000000000000000000 ) ) ;
#785 = CYLINDRICAL_SURFACE ( 'NONE', #683, 15.49999999999999800 ) ;
#786 = DIRECTION ( 'NONE',  ( 1.000000000000000000, 0.0000000000000000000, 0.0000000000000000000 ) ) ;
#787 = DIRECTION ( 'NONE',  ( 1.000000000000000000, 0.0000000000000000000, 0.0000000000000000000 ) ) ;
#788 = ORIENTED_EDGE ( 'NONE', *, *, #23, .T. ) ;
#789 = ORIENTED_EDGE ( 'NONE', *, *, #747, .F. ) ;
#790 = ORIENTED_EDGE ( 'NONE', *, *, #643, .F. ) ;
#791 = DIRECTION ( 'NONE',  ( 2.168404344971009400E-016, -1.000000000000000000, 0.0000000000000000000 ) ) ;
#792 = COORDINATED_UNIVERSAL_TIME_OFFSET ( 1, 0, .AHEAD. ) ;
#793 = ADVANCED_FACE ( 'NONE', ( #128, #162, #559 ), #742, .F. ) ;
#794 = LINE ( 'NONE', #819, #581 ) ;
#795 = VECTOR ( 'NONE', #350, 1000.000000000000000 ) ;
#796 = VERTEX_POINT ( 'NONE', #539 ) ;
#797 = ORIENTED_EDGE ( 'NONE', *, *, #42, .F. ) ;
#798 = ADVANCED_FACE ( 'NONE', ( #604 ), #669, .T. ) ;
#799 = AXIS2_PLACEMENT_3D ( 'NONE', #120, #654, #787 ) ;
#800 = VECTOR ( 'NONE', #73, 1000.000000000000000 ) ;
#801 = LINE ( 'NONE', #373, #63 ) ;
#802 = DIRECTION ( 'NONE',  ( -0.0000000000000000000, -0.0000000000000000000, -1.000000000000000000 ) ) ;
#803 = EDGE_CURVE ( 'NONE', #470, #339, #244, .T. ) ;
#804 = CARTESIAN_POINT ( 'NONE',  ( -8.749999999999998200, 13.99999999999999800, 4.000000000000000000 ) ) ;
#805 = APPROVAL ( #560, 'UNSPECIFIED' ) ;
#806 = FACE_OUTER_BOUND ( 'NONE', #843, .T. ) ;
#807 = CARTESIAN_POINT ( 'NONE',  ( 8.749999999999998200, 16.49999999999999600, 4.000000000000000000 ) ) ;
#808 = ORIENTED_EDGE ( 'NONE', *, *, #629, .T. ) ;
#809 = ORIENTED_EDGE ( 'NONE', *, *, #97, .T. ) ;
#810 = DIRECTION ( 'NONE',  ( -0.0000000000000000000, -0.0000000000000000000, -1.000000000000000000 ) ) ;
#811 = PERSON_AND_ORGANIZATION_ROLE ( 'creator' ) ;
#812 = EDGE_CURVE ( 'NONE', #233, #796, #750, .T. ) ;
#813 = VECTOR ( 'NONE', #430, 1000.000000000000000 ) ;
#814 = DIRECTION ( 'NONE',  ( -1.000000000000000000, 0.0000000000000000000, 0.0000000000000000000 ) ) ;
#815 = PLANE ( 'NONE',  #447 ) ;
#816 = DIRECTION ( 'NONE',  ( -0.0000000000000000000, -0.0000000000000000000, -1.000000000000000000 ) ) ;
#817 = APPLICATION_PROTOCOL_DEFINITION ( 'international standard', 'config_control_design', 1994, #25 ) ;
#818 = VECTOR ( 'NONE', #562, 1000.000000000000000 ) ;
#819 = CARTESIAN_POINT ( 'NONE',  ( -7.250000000000000000, 24.52346043299652200, 0.0000000000000000000 ) ) ;
#820 = ORIENTED_EDGE ( 'NONE', *, *, #772, .F. ) ;
#821 = ORIENTED_EDGE ( 'NONE', *, *, #83, .T. ) ;
#822 = EDGE_CURVE ( 'NONE', #760, #220, #765, .T. ) ;
#823 = DIRECTION ( 'NONE',  ( 1.927470528863120300E-016, -1.000000000000000000, 0.0000000000000000000 ) ) ;
#824 = DIRECTION ( 'NONE',  ( 0.0000000000000000000, 0.0000000000000000000, 1.000000000000000000 ) ) ;
#825 = EDGE_LOOP ( 'NONE', ( #261, #717, #124, #239 ) ) ;
#826 = DESIGN_CONTEXT ( 'detailed design', #294, 'design' ) ;
#827 = ADVANCED_FACE ( 'NONE', ( #640 ), #432, .F. ) ;
#828 = CIRCLE ( 'NONE', #697, 3.500000000000001300 ) ;
#829 = DIRECTION ( 'NONE',  ( -1.000000000000000000, -1.927470528863120300E-016, 0.0000000000000000000 ) ) ;
#830 =( NAMED_UNIT ( * ) PLANE_ANGLE_UNIT ( ) SI_UNIT ( $, .RADIAN. ) );
#831 = CYLINDRICAL_SURFACE ( 'NONE', #431, 13.99999999999999500 ) ;
#832 = CARTESIAN_POINT ( 'NONE',  ( -15.49999999999999800, 36.50000000000000000, 4.000000000000000000 ) ) ;
#833 = EDGE_CURVE ( 'NONE', #465, #61, #828, .T. ) ;
#834 = ORIENTED_EDGE ( 'NONE', *, *, #739, .F. ) ;
#835 = EDGE_LOOP ( 'NONE', ( #478, #43, #516, #575, #790, #586, #356, #567, #312, #495 ) ) ;
#836 = CARTESIAN_POINT ( 'NONE',  ( 8.749999999999998200, 16.49999999999999600, 4.000000000000000000 ) ) ;
#837 = ORIENTED_EDGE ( 'NONE', *, *, #152, .F. ) ;
#838 = DIRECTION ( 'NONE',  ( -0.2982749931359470800, -0.9544799780350297100, -0.0000000000000000000 ) ) ;
#839 = APPROVAL_DATE_TIME ( #346, #805 ) ;
#840 = PERSON_AND_ORGANIZATION ( #545, #316 ) ;
#841 = EDGE_CURVE ( 'NONE', #494, #330, #671, .T. ) ;
#842 = CARTESIAN_POINT ( 'NONE',  ( 11.25000000000000000, 6.999999999999994700, 4.000000000000000000 ) ) ;
#843 = EDGE_LOOP ( 'NONE', ( #797, #272, #343, #5 ) ) ;
#844 = CC_DESIGN_PERSON_AND_ORGANIZATION_ASSIGNMENT ( #419, #151, ( #392 ) ) ;
#845 = ORIENTED_EDGE ( 'NONE', *, *, #207, .T. ) ;
#846 = UNCERTAINTY_MEASURE_WITH_UNIT (LENGTH_MEASURE( 1.000000000000000100E-005 ), #682, 'distance_accuracy_value', 'NONE');
#847 = CARTESIAN_POINT ( 'NONE',  ( -5.249999999999998200, 9.500000000000001800, 4.000000000000000000 ) ) ;
#848 = ORIENTED_EDGE ( 'NONE', *, *, #328, .T. ) ;
#849 = DIRECTION ( 'NONE',  ( -0.0000000000000000000, -0.0000000000000000000, -1.000000000000000000 ) ) ;
#850 = VECTOR ( 'NONE', #1, 1000.000000000000000 ) ;
#851 = EDGE_CURVE ( 'NONE', #781, #174, #70, .T. ) ;
#852 = DIRECTION ( 'NONE',  ( 0.0000000000000000000, 0.0000000000000000000, 1.000000000000000000 ) ) ;
#853 = EDGE_CURVE ( 'NONE', #13, #205, #32, .T. ) ;
#854 = EDGE_LOOP ( 'NONE', ( #721, #367, #723, #667, #183, #27, #368, #544, #783, #808 ) ) ;
#855 = ORIENTED_EDGE ( 'NONE', *, *, #482, .T. ) ;
#856 = ORIENTED_EDGE ( 'NONE', *, *, #812, .F. ) ;
#857 = ADVANCED_FACE ( 'NONE', ( #649 ), #164, .T. ) ;
#858 = DIRECTION ( 'NONE',  ( -1.000000000000000000, 0.0000000000000000000, 0.0000000000000000000 ) ) ;
#859 = VECTOR ( 'NONE', #510, 1000.000000000000000 ) ;
ENDSEC;
END-ISO-10303-21;
