ISO-10303-21;
HEADER;
FILE_DESCRIPTION (( 'STEP AP203' ),
    '1' );
FILE_NAME ('roll_motor_rotor_Domyúlna_sldprt.STEP',
    '2018-11-04T14:57:54',
    ( '' ),
    ( '' ),
    'SwSTEP 2.0',
    'SolidWorks 2016',
    '' );
FILE_SCHEMA (( 'CONFIG_CONTROL_DESIGN' ));
ENDSEC;

DATA;
#1 = APPLICATION_PROTOCOL_DEFINITION ( 'international standard', 'config_control_design', 1994, #110 ) ;
#2 = EDGE_CURVE ( 'NONE', #57, #155, #81, .T. ) ;
#3 = PERSON_AND_ORGANIZATION_ROLE ( 'classification_officer' ) ;
#4 = DIRECTION ( 'NONE',  ( -0.0000000000000000000, -0.0000000000000000000, -1.000000000000000000 ) ) ;
#5 = FACE_OUTER_BOUND ( 'NONE', #29, .T. ) ;
#6 = LOCAL_TIME ( 15, 57, 54.00000000000000000, #43 ) ;
#7 = PERSON_AND_ORGANIZATION ( #78, #16 ) ;
#8 = CYLINDRICAL_SURFACE ( 'NONE', #164, 14.00000000000000000 ) ;
#9 = PERSON_AND_ORGANIZATION ( #78, #16 ) ;
#10 = DIRECTION ( 'NONE',  ( 1.000000000000000000, 0.0000000000000000000, 0.0000000000000000000 ) ) ;
#11 = DIRECTION ( 'NONE',  ( 0.0000000000000000000, 0.0000000000000000000, 1.000000000000000000 ) ) ;
#12 = PERSON_AND_ORGANIZATION_ROLE ( 'creator' ) ;
#13 = AXIS2_PLACEMENT_3D ( 'NONE', #113, #27, #38 ) ;
#14 = CYLINDRICAL_SURFACE ( 'NONE', #173, 14.00000000000000000 ) ;
#15 = ORIENTED_EDGE ( 'NONE', *, *, #2, .F. ) ;
#16 = ORGANIZATION ( 'UNSPECIFIED', 'UNSPECIFIED', '' ) ;
#17 = AXIS2_PLACEMENT_3D ( 'NONE', #36, #160, #96 ) ;
#18 = COORDINATED_UNIVERSAL_TIME_OFFSET ( 1, 0, .AHEAD. ) ;
#19 = CARTESIAN_POINT ( 'NONE',  ( -14.00000000000000000, 0.0000000000000000000, 10.50000000000000000 ) ) ;
#20 = APPROVAL_DATE_TIME ( #134, #130 ) ;
#21 = PLANE ( 'NONE',  #39 ) ;
#22 = CARTESIAN_POINT ( 'NONE',  ( 0.0000000000000000000, 0.0000000000000000000, 0.0000000000000000000 ) ) ;
#23 = CARTESIAN_POINT ( 'NONE',  ( 14.00000000000000000, 1.714505518806294200E-015, 0.0000000000000000000 ) ) ;
#24 =( LENGTH_UNIT ( ) NAMED_UNIT ( * ) SI_UNIT ( .MILLI., .METRE. ) );
#25 = DIRECTION ( 'NONE',  ( 1.000000000000000000, 0.0000000000000000000, -0.0000000000000000000 ) ) ;
#26 = AXIS2_PLACEMENT_3D ( 'NONE', #156, #77, #37 ) ;
#27 = DIRECTION ( 'NONE',  ( 0.0000000000000000000, 0.0000000000000000000, 1.000000000000000000 ) ) ;
#28 = APPROVAL_STATUS ( 'not_yet_approved' ) ;
#29 = EDGE_LOOP ( 'NONE', ( #150, #161, #169, #15 ) ) ;
#30 = ADVANCED_FACE ( 'NONE', ( #103 ), #79, .F. ) ;
#31 = PRODUCT_DEFINITION_SHAPE ( 'NONE', 'NONE',  #159 ) ;
#32 = DATE_AND_TIME ( #102, #69 ) ;
#33 = AXIS2_PLACEMENT_3D ( 'NONE', #98, #40, #10 ) ;
#34 = APPROVAL_DATE_TIME ( #105, #147 ) ;
#35 = CARTESIAN_POINT ( 'NONE',  ( 0.0000000000000000000, 0.0000000000000000000, 10.50000000000000000 ) ) ;
#36 = CARTESIAN_POINT ( 'NONE',  ( 0.0000000000000000000, 0.0000000000000000000, 0.0000000000000000000 ) ) ;
#37 = DIRECTION ( 'NONE',  ( 1.000000000000000000, 0.0000000000000000000, 0.0000000000000000000 ) ) ;
#38 = DIRECTION ( 'NONE',  ( 1.000000000000000000, 0.0000000000000000000, 0.0000000000000000000 ) ) ;
#39 = AXIS2_PLACEMENT_3D ( 'NONE', #35, #111, #25 ) ;
#40 = DIRECTION ( 'NONE',  ( 0.0000000000000000000, 0.0000000000000000000, 1.000000000000000000 ) ) ;
#41 = LOCAL_TIME ( 15, 57, 54.00000000000000000, #18 ) ;
#42 = DIRECTION ( 'NONE',  ( -0.0000000000000000000, -0.0000000000000000000, -1.000000000000000000 ) ) ;
#43 = COORDINATED_UNIVERSAL_TIME_OFFSET ( 1, 0, .AHEAD. ) ;
#44 = CIRCLE ( 'NONE', #17, 14.00000000000000000 ) ;
#45 = VECTOR ( 'NONE', #93, 1000.000000000000000 ) ;
#46 = ORIENTED_EDGE ( 'NONE', *, *, #63, .F. ) ;
#47 = CC_DESIGN_PERSON_AND_ORGANIZATION_ASSIGNMENT ( #139, #148, ( #159 ) ) ;
#48 = PRODUCT ( 'roll_motor_rotor_Domyúlna_sldprt', 'roll_motor_rotor_Domyúlna_sldprt', '', ( #97 ) ) ;
#49 = CC_DESIGN_PERSON_AND_ORGANIZATION_ASSIGNMENT ( #7, #12, ( #127 ) ) ;
#50 = ORIENTED_EDGE ( 'NONE', *, *, #107, .F. ) ;
#51 = CARTESIAN_POINT ( 'NONE',  ( -14.00000000000000000, 0.0000000000000000000, 10.50000000000000000 ) ) ;
#52 = APPROVAL_PERSON_ORGANIZATION ( #90, #147, #54 ) ;
#53 = DIRECTION ( 'NONE',  ( 0.0000000000000000000, 0.0000000000000000000, 1.000000000000000000 ) ) ;
#54 = APPROVAL_ROLE ( '' ) ;
#55 = APPLICATION_PROTOCOL_DEFINITION ( 'international standard', 'config_control_design', 1994, #82 ) ;
#56 = CC_DESIGN_DATE_AND_TIME_ASSIGNMENT ( #143, #145, ( #159 ) ) ;
#57 = VERTEX_POINT ( 'NONE', #19 ) ;
#58 = ORIENTED_EDGE ( 'NONE', *, *, #88, .F. ) ;
#59 = APPROVAL_DATE_TIME ( #32, #85 ) ;
#60 = CC_DESIGN_PERSON_AND_ORGANIZATION_ASSIGNMENT ( #76, #3, ( #170 ) ) ;
#61 = CIRCLE ( 'NONE', #33, 14.00000000000000000 ) ;
#62 = PERSON_AND_ORGANIZATION_ROLE ( 'design_supplier' ) ;
#63 = EDGE_CURVE ( 'NONE', #57, #92, #142, .T. ) ;
#64 = APPROVAL_ROLE ( '' ) ;
#65 = CALENDAR_DATE ( 2018, 4, 11 ) ;
#66 = COORDINATED_UNIVERSAL_TIME_OFFSET ( 1, 0, .AHEAD. ) ;
#67 = CARTESIAN_POINT ( 'NONE',  ( 0.0000000000000000000, 0.0000000000000000000, 10.50000000000000000 ) ) ;
#68 = AXIS2_PLACEMENT_3D ( 'NONE', #22, #53, #121 ) ;
#69 = LOCAL_TIME ( 15, 57, 54.00000000000000000, #66 ) ;
#70 = EDGE_LOOP ( 'NONE', ( #50, #58 ) ) ;
#71 = SHAPE_DEFINITION_REPRESENTATION ( #31, #140 ) ;
#72 = CC_DESIGN_APPROVAL ( #130, ( #170 ) ) ;
#73 = DESIGN_CONTEXT ( 'detailed design', #110, 'design' ) ;
#74 = APPROVAL_PERSON_ORGANIZATION ( #114, #85, #64 ) ;
#75 = APPROVAL_PERSON_ORGANIZATION ( #9, #130, #84 ) ;
#76 = PERSON_AND_ORGANIZATION ( #78, #16 ) ;
#77 = DIRECTION ( 'NONE',  ( 0.0000000000000000000, 0.0000000000000000000, 1.000000000000000000 ) ) ;
#78 = PERSON ( 'UNSPECIFIED', 'UNSPECIFIED', 'UNSPECIFIED', ('UNSPECIFIED'), ('UNSPECIFIED'), ('UNSPECIFIED') ) ;
#79 = PLANE ( 'NONE',  #68 ) ;
#80 = LOCAL_TIME ( 15, 57, 54.00000000000000000, #87 ) ;
#81 = LINE ( 'NONE', #51, #45 ) ;
#82 = APPLICATION_CONTEXT ( 'configuration controlled 3d designs of mechanical parts and assemblies' ) ;
#83 = APPROVAL_STATUS ( 'not_yet_approved' ) ;
#84 = APPROVAL_ROLE ( '' ) ;
#85 = APPROVAL ( #122, 'UNSPECIFIED' ) ;
#86 = CARTESIAN_POINT ( 'NONE',  ( 14.00000000000000000, 1.714505518806294200E-015, 10.50000000000000000 ) ) ;
#87 = COORDINATED_UNIVERSAL_TIME_OFFSET ( 1, 0, .AHEAD. ) ;
#88 = EDGE_CURVE ( 'NONE', #95, #155, #44, .T. ) ;
#89 = ORIENTED_EDGE ( 'NONE', *, *, #63, .T. ) ;
#90 = PERSON_AND_ORGANIZATION ( #78, #16 ) ;
#91 = CC_DESIGN_APPROVAL ( #85, ( #127 ) ) ;
#92 = VERTEX_POINT ( 'NONE', #108 ) ;
#93 = DIRECTION ( 'NONE',  ( -0.0000000000000000000, -0.0000000000000000000, -1.000000000000000000 ) ) ;
#94 = PRODUCT_RELATED_PRODUCT_CATEGORY ( 'detail', '', ( #48 ) ) ;
#95 = VERTEX_POINT ( 'NONE', #23 ) ;
#96 = DIRECTION ( 'NONE',  ( 1.000000000000000000, 0.0000000000000000000, 0.0000000000000000000 ) ) ;
#97 = MECHANICAL_CONTEXT ( 'NONE', #82, 'mechanical' ) ;
#98 = CARTESIAN_POINT ( 'NONE',  ( 0.0000000000000000000, 0.0000000000000000000, 0.0000000000000000000 ) ) ;
#99 = AXIS2_PLACEMENT_3D ( 'NONE', #67, #11, #146 ) ;
#100 = CARTESIAN_POINT ( 'NONE',  ( 0.0000000000000000000, 0.0000000000000000000, 10.50000000000000000 ) ) ;
#101 = PERSON_AND_ORGANIZATION_ROLE ( 'design_owner' ) ;
#102 = CALENDAR_DATE ( 2018, 4, 11 ) ;
#103 = FACE_OUTER_BOUND ( 'NONE', #70, .T. ) ;
#104 = FACE_OUTER_BOUND ( 'NONE', #158, .T. ) ;
#105 = DATE_AND_TIME ( #120, #153 ) ;
#106 = UNCERTAINTY_MEASURE_WITH_UNIT (LENGTH_MEASURE( 1.000000000000000100E-005 ), #24, 'distance_accuracy_value', 'NONE');
#107 = EDGE_CURVE ( 'NONE', #155, #95, #61, .T. ) ;
#108 = CARTESIAN_POINT ( 'NONE',  ( 14.00000000000000000, 1.714505518806294200E-015, 10.50000000000000000 ) ) ;
#109 = CARTESIAN_POINT ( 'NONE',  ( -14.00000000000000000, 0.0000000000000000000, 0.0000000000000000000 ) ) ;
#110 = APPLICATION_CONTEXT ( 'configuration controlled 3d designs of mechanical parts and assemblies' ) ;
#111 = DIRECTION ( 'NONE',  ( 0.0000000000000000000, 0.0000000000000000000, 1.000000000000000000 ) ) ;
#112 = CC_DESIGN_PERSON_AND_ORGANIZATION_ASSIGNMENT ( #116, #62, ( #127 ) ) ;
#113 = CARTESIAN_POINT ( 'NONE',  ( 0.0000000000000000000, 0.0000000000000000000, 0.0000000000000000000 ) ) ;
#114 = PERSON_AND_ORGANIZATION ( #78, #16 ) ;
#115 = CC_DESIGN_PERSON_AND_ORGANIZATION_ASSIGNMENT ( #125, #101, ( #48 ) ) ;
#116 = PERSON_AND_ORGANIZATION ( #78, #16 ) ;
#117 = MANIFOLD_SOLID_BREP ( 'Dodanie-wyciπgniÍcie1', #126 ) ;
#118 =( GEOMETRIC_REPRESENTATION_CONTEXT ( 3 ) GLOBAL_UNCERTAINTY_ASSIGNED_CONTEXT ( ( #106 ) ) GLOBAL_UNIT_ASSIGNED_CONTEXT ( ( #24, #144, #162 ) ) REPRESENTATION_CONTEXT ( 'NONE', 'WORKASPACE' ) );
#119 = ORIENTED_EDGE ( 'NONE', *, *, #107, .T. ) ;
#120 = CALENDAR_DATE ( 2018, 4, 11 ) ;
#121 = DIRECTION ( 'NONE',  ( 1.000000000000000000, 0.0000000000000000000, -0.0000000000000000000 ) ) ;
#122 = APPROVAL_STATUS ( 'not_yet_approved' ) ;
#123 = CARTESIAN_POINT ( 'NONE',  ( 0.0000000000000000000, 0.0000000000000000000, 10.50000000000000000 ) ) ;
#124 = DATE_TIME_ROLE ( 'classification_date' ) ;
#125 = PERSON_AND_ORGANIZATION ( #78, #16 ) ;
#126 = CLOSED_SHELL ( 'NONE', ( #138, #151, #128, #30 ) ) ;
#127 = PRODUCT_DEFINITION_FORMATION_WITH_SPECIFIED_SOURCE ( 'ANY', '', #48, .NOT_KNOWN. ) ;
#128 = ADVANCED_FACE ( 'NONE', ( #104 ), #21, .T. ) ;
#129 = EDGE_CURVE ( 'NONE', #92, #57, #136, .T. ) ;
#130 = APPROVAL ( #28, 'UNSPECIFIED' ) ;
#131 = CALENDAR_DATE ( 2018, 4, 11 ) ;
#132 = DIRECTION ( 'NONE',  ( -1.000000000000000000, 0.0000000000000000000, 0.0000000000000000000 ) ) ;
#133 = DIRECTION ( 'NONE',  ( -1.000000000000000000, 0.0000000000000000000, 0.0000000000000000000 ) ) ;
#134 = DATE_AND_TIME ( #65, #41 ) ;
#135 = CC_DESIGN_DATE_AND_TIME_ASSIGNMENT ( #167, #124, ( #170 ) ) ;
#136 = CIRCLE ( 'NONE', #99, 14.00000000000000000 ) ;
#137 = ORIENTED_EDGE ( 'NONE', *, *, #129, .T. ) ;
#138 = ADVANCED_FACE ( 'NONE', ( #5 ), #8, .T. ) ;
#139 = PERSON_AND_ORGANIZATION ( #78, #16 ) ;
#140 = ADVANCED_BREP_SHAPE_REPRESENTATION ( 'roll_motor_rotor_Domyùlna_sldprt', ( #117, #13 ), #118 ) ;
#141 = CC_DESIGN_SECURITY_CLASSIFICATION ( #170, ( #127 ) ) ;
#142 = CIRCLE ( 'NONE', #26, 14.00000000000000000 ) ;
#143 = DATE_AND_TIME ( #131, #80 ) ;
#144 =( NAMED_UNIT ( * ) PLANE_ANGLE_UNIT ( ) SI_UNIT ( $, .RADIAN. ) );
#145 = DATE_TIME_ROLE ( 'creation_date' ) ;
#146 = DIRECTION ( 'NONE',  ( 1.000000000000000000, 0.0000000000000000000, 0.0000000000000000000 ) ) ;
#147 = APPROVAL ( #83, 'UNSPECIFIED' ) ;
#148 = PERSON_AND_ORGANIZATION_ROLE ( 'creator' ) ;
#149 = VECTOR ( 'NONE', #175, 1000.000000000000000 ) ;
#150 = ORIENTED_EDGE ( 'NONE', *, *, #129, .F. ) ;
#151 = ADVANCED_FACE ( 'NONE', ( #165 ), #14, .T. ) ;
#152 = EDGE_CURVE ( 'NONE', #92, #95, #157, .T. ) ;
#153 = LOCAL_TIME ( 15, 57, 54.00000000000000000, #171 ) ;
#154 = ORIENTED_EDGE ( 'NONE', *, *, #152, .F. ) ;
#155 = VERTEX_POINT ( 'NONE', #109 ) ;
#156 = CARTESIAN_POINT ( 'NONE',  ( 0.0000000000000000000, 0.0000000000000000000, 10.50000000000000000 ) ) ;
#157 = LINE ( 'NONE', #86, #149 ) ;
#158 = EDGE_LOOP ( 'NONE', ( #89, #137 ) ) ;
#159 = PRODUCT_DEFINITION ( 'UNKNOWN', '', #127, #73 ) ;
#160 = DIRECTION ( 'NONE',  ( 0.0000000000000000000, 0.0000000000000000000, 1.000000000000000000 ) ) ;
#161 = ORIENTED_EDGE ( 'NONE', *, *, #152, .T. ) ;
#162 =( NAMED_UNIT ( * ) SI_UNIT ( $, .STERADIAN. ) SOLID_ANGLE_UNIT ( ) );
#163 = SECURITY_CLASSIFICATION_LEVEL ( 'unclassified' ) ;
#164 = AXIS2_PLACEMENT_3D ( 'NONE', #123, #42, #133 ) ;
#165 = FACE_OUTER_BOUND ( 'NONE', #174, .T. ) ;
#166 = ORIENTED_EDGE ( 'NONE', *, *, #2, .T. ) ;
#167 = DATE_AND_TIME ( #172, #6 ) ;
#168 = CC_DESIGN_APPROVAL ( #147, ( #159 ) ) ;
#169 = ORIENTED_EDGE ( 'NONE', *, *, #88, .T. ) ;
#170 = SECURITY_CLASSIFICATION ( '', '', #163 ) ;
#171 = COORDINATED_UNIVERSAL_TIME_OFFSET ( 1, 0, .AHEAD. ) ;
#172 = CALENDAR_DATE ( 2018, 4, 11 ) ;
#173 = AXIS2_PLACEMENT_3D ( 'NONE', #100, #4, #132 ) ;
#174 = EDGE_LOOP ( 'NONE', ( #154, #46, #166, #119 ) ) ;
#175 = DIRECTION ( 'NONE',  ( -0.0000000000000000000, -0.0000000000000000000, -1.000000000000000000 ) ) ;
ENDSEC;
END-ISO-10303-21;
