ISO-10303-21;
HEADER;
FILE_DESCRIPTION (( 'STEP AP203' ),
    '1' );
FILE_NAME ('roll_part_1_Domyúlna_sldprt.STEP',
    '2018-11-04T14:57:56',
    ( '' ),
    ( '' ),
    'SwSTEP 2.0',
    'SolidWorks 2016',
    '' );
FILE_SCHEMA (( 'CONFIG_CONTROL_DESIGN' ));
ENDSEC;

DATA;
#1 = CIRCLE ( 'NONE', #541, 1.750000000000000400 ) ;
#2 = DIRECTION ( 'NONE',  ( 0.0000000000000000000, 1.000000000000000000, -0.0000000000000000000 ) ) ;
#3 = DIRECTION ( 'NONE',  ( 0.0000000000000000000, 0.0000000000000000000, 1.000000000000000000 ) ) ;
#4 = FACE_OUTER_BOUND ( 'NONE', #889, .T. ) ;
#5 = EDGE_CURVE ( 'NONE', #245, #872, #478, .T. ) ;
#6 = ORIENTED_EDGE ( 'NONE', *, *, #94, .T. ) ;
#7 = ORIENTED_EDGE ( 'NONE', *, *, #651, .T. ) ;
#8 = CARTESIAN_POINT ( 'NONE',  ( 5.500000000000000000, 7.500000000000016900, 2.500000000000000000 ) ) ;
#9 = DIRECTION ( 'NONE',  ( 0.0000000000000000000, 0.0000000000000000000, 1.000000000000000000 ) ) ;
#10 = EDGE_LOOP ( 'NONE', ( #79, #1047, #517, #288 ) ) ;
#11 = ORIENTED_EDGE ( 'NONE', *, *, #48, .F. ) ;
#12 = CARTESIAN_POINT ( 'NONE',  ( 12.50000000000000000, -1.530808498934191500E-015, 0.0000000000000000000 ) ) ;
#13 = CIRCLE ( 'NONE', #777, 12.00000000000000200 ) ;
#14 = DIRECTION ( 'NONE',  ( 0.0000000000000000000, 0.0000000000000000000, 1.000000000000000000 ) ) ;
#15 = DIRECTION ( 'NONE',  ( 0.0000000000000000000, 0.0000000000000000000, 1.000000000000000000 ) ) ;
#16 = FACE_OUTER_BOUND ( 'NONE', #718, .T. ) ;
#17 = CIRCLE ( 'NONE', #883, 12.00000000000000200 ) ;
#18 = CARTESIAN_POINT ( 'NONE',  ( 0.0000000000000000000, 35.50000000000000700, 2.500000000000000000 ) ) ;
#19 = EDGE_LOOP ( 'NONE', ( #968, #164, #927, #1082 ) ) ;
#20 = EDGE_LOOP ( 'NONE', ( #749, #255, #642, #166 ) ) ;
#21 = AXIS2_PLACEMENT_3D ( 'NONE', #946, #446, #523 ) ;
#22 = VERTEX_POINT ( 'NONE', #90 ) ;
#23 = ADVANCED_FACE ( 'NONE', ( #312 ), #561, .F. ) ;
#24 = EDGE_LOOP ( 'NONE', ( #100, #990 ) ) ;
#25 = PRODUCT_DEFINITION ( 'UNKNOWN', '', #551, #969 ) ;
#26 = CARTESIAN_POINT ( 'NONE',  ( 12.50000000000000000, -1.530808498934191500E-015, 0.0000000000000000000 ) ) ;
#27 = ORIENTED_EDGE ( 'NONE', *, *, #62, .T. ) ;
#28 = ORIENTED_EDGE ( 'NONE', *, *, #729, .T. ) ;
#29 = DIRECTION ( 'NONE',  ( -0.0000000000000000000, -0.0000000000000000000, -1.000000000000000000 ) ) ;
#30 = EDGE_CURVE ( 'NONE', #589, #157, #52, .T. ) ;
#31 = VECTOR ( 'NONE', #802, 1000.000000000000000 ) ;
#32 = AXIS2_PLACEMENT_3D ( 'NONE', #472, #392, #973 ) ;
#33 = DIRECTION ( 'NONE',  ( 1.000000000000000000, 0.0000000000000000000, 0.0000000000000000000 ) ) ;
#34 = CARTESIAN_POINT ( 'NONE',  ( 0.0000000000000000000, 35.50000000000000700, 2.500000000000000000 ) ) ;
#35 = PLANE ( 'NONE',  #637 ) ;
#36 = ORIENTED_EDGE ( 'NONE', *, *, #250, .T. ) ;
#37 = ORIENTED_EDGE ( 'NONE', *, *, #844, .T. ) ;
#38 = PLANE ( 'NONE',  #451 ) ;
#39 = VERTEX_POINT ( 'NONE', #917 ) ;
#40 = EDGE_LOOP ( 'NONE', ( #731, #573 ) ) ;
#41 = EDGE_CURVE ( 'NONE', #671, #346, #341, .T. ) ;
#42 = DIRECTION ( 'NONE',  ( -1.000000000000000000, 0.0000000000000000000, 0.0000000000000000000 ) ) ;
#43 = DIRECTION ( 'NONE',  ( -0.0000000000000000000, -0.0000000000000000000, -1.000000000000000000 ) ) ;
#44 = ADVANCED_FACE ( 'NONE', ( #884 ), #111, .F. ) ;
#45 = DIRECTION ( 'NONE',  ( 0.0000000000000000000, 0.0000000000000000000, 1.000000000000000000 ) ) ;
#46 = CARTESIAN_POINT ( 'NONE',  ( -2.999999999999981800, 26.00000000000000400, 2.500000000000000000 ) ) ;
#47 = LINE ( 'NONE', #296, #865 ) ;
#48 = EDGE_CURVE ( 'NONE', #532, #728, #528, .T. ) ;
#49 = CIRCLE ( 'NONE', #833, 2.500000000000000000 ) ;
#50 = CARTESIAN_POINT ( 'NONE',  ( 12.00000000000000200, 35.50000000000000700, 2.500000000000000000 ) ) ;
#51 = VECTOR ( 'NONE', #957, 1000.000000000000000 ) ;
#52 = CIRCLE ( 'NONE', #994, 12.00000000000000200 ) ;
#53 = VERTEX_POINT ( 'NONE', #165 ) ;
#54 = CARTESIAN_POINT ( 'NONE',  ( 5.500000000000000000, 7.500000000000016900, 0.0000000000000000000 ) ) ;
#55 = DIRECTION ( 'NONE',  ( -1.000000000000000000, 0.0000000000000000000, 0.0000000000000000000 ) ) ;
#56 = EDGE_CURVE ( 'NONE', #872, #399, #136, .T. ) ;
#57 = ORIENTED_EDGE ( 'NONE', *, *, #199, .T. ) ;
#58 = DIRECTION ( 'NONE',  ( -1.000000000000000000, 0.0000000000000000000, 0.0000000000000000000 ) ) ;
#59 = DIRECTION ( 'NONE',  ( 0.0000000000000000000, 0.0000000000000000000, 1.000000000000000000 ) ) ;
#60 = DIRECTION ( 'NONE',  ( -0.0000000000000000000, -0.0000000000000000000, -1.000000000000000000 ) ) ;
#61 = CARTESIAN_POINT ( 'NONE',  ( -5.500000000000000000, 7.500000000000016900, 2.500000000000000000 ) ) ;
#62 = EDGE_CURVE ( 'NONE', #382, #450, #254, .T. ) ;
#63 = VECTOR ( 'NONE', #998, 1000.000000000000100 ) ;
#64 = ADVANCED_FACE ( 'NONE', ( #999 ), #500, .F. ) ;
#65 = ORIENTED_EDGE ( 'NONE', *, *, #141, .F. ) ;
#66 = ORIENTED_EDGE ( 'NONE', *, *, #160, .T. ) ;
#67 = EDGE_LOOP ( 'NONE', ( #418, #992, #117, #757 ) ) ;
#68 = LINE ( 'NONE', #376, #678 ) ;
#69 = PERSON_AND_ORGANIZATION_ROLE ( 'creator' ) ;
#70 = LINE ( 'NONE', #423, #499 ) ;
#71 = DIRECTION ( 'NONE',  ( 0.0000000000000000000, 0.0000000000000000000, 1.000000000000000000 ) ) ;
#72 =( GEOMETRIC_REPRESENTATION_CONTEXT ( 3 ) GLOBAL_UNCERTAINTY_ASSIGNED_CONTEXT ( ( #412 ) ) GLOBAL_UNIT_ASSIGNED_CONTEXT ( ( #577, #158, #318 ) ) REPRESENTATION_CONTEXT ( 'NONE', 'WORKASPACE' ) );
#73 = LINE ( 'NONE', #293, #936 ) ;
#74 = ORIENTED_EDGE ( 'NONE', *, *, #190, .T. ) ;
#75 = APPLICATION_CONTEXT ( 'configuration controlled 3d designs of mechanical parts and assemblies' ) ;
#76 = ORIENTED_EDGE ( 'NONE', *, *, #645, .F. ) ;
#77 = DIRECTION ( 'NONE',  ( -1.000000000000000000, 0.0000000000000000000, 0.0000000000000000000 ) ) ;
#78 = CARTESIAN_POINT ( 'NONE',  ( 5.500000000000000000, 7.500000000000016900, 2.500000000000000000 ) ) ;
#79 = ORIENTED_EDGE ( 'NONE', *, *, #705, .T. ) ;
#80 = VERTEX_POINT ( 'NONE', #339 ) ;
#81 = CARTESIAN_POINT ( 'NONE',  ( -5.500000000000000900, 39.49999999999999300, 0.0000000000000000000 ) ) ;
#82 = EDGE_CURVE ( 'NONE', #206, #449, #965, .T. ) ;
#83 = APPROVAL ( #1068, 'UNSPECIFIED' ) ;
#84 = FACE_OUTER_BOUND ( 'NONE', #10, .T. ) ;
#85 = CARTESIAN_POINT ( 'NONE',  ( -2.999999999999999600, 23.50000000000000400, 0.0000000000000000000 ) ) ;
#86 = EDGE_CURVE ( 'NONE', #397, #562, #979, .T. ) ;
#87 = DIRECTION ( 'NONE',  ( -0.0000000000000000000, -0.0000000000000000000, -1.000000000000000000 ) ) ;
#88 = DIRECTION ( 'NONE',  ( -1.000000000000000000, 0.0000000000000000000, 0.0000000000000000000 ) ) ;
#89 = AXIS2_PLACEMENT_3D ( 'NONE', #1024, #934, #436 ) ;
#90 = CARTESIAN_POINT ( 'NONE',  ( -2.999999999999981800, 4.999999999999997300, 2.500000000000000000 ) ) ;
#91 = ORIENTED_EDGE ( 'NONE', *, *, #1013, .F. ) ;
#92 = ORIENTED_EDGE ( 'NONE', *, *, #811, .T. ) ;
#93 = CARTESIAN_POINT ( 'NONE',  ( 0.0000000000000000000, 35.50000000000000700, 2.500000000000000000 ) ) ;
#94 = EDGE_CURVE ( 'NONE', #352, #831, #804, .T. ) ;
#95 = DIRECTION ( 'NONE',  ( 0.0000000000000000000, 0.0000000000000000000, 1.000000000000000000 ) ) ;
#96 = CYLINDRICAL_SURFACE ( 'NONE', #720, 1.500000000000000400 ) ;
#97 = DIRECTION ( 'NONE',  ( 0.0000000000000000000, 0.0000000000000000000, 1.000000000000000000 ) ) ;
#98 = LINE ( 'NONE', #213, #174 ) ;
#99 = EDGE_CURVE ( 'NONE', #601, #483, #572, .T. ) ;
#100 = ORIENTED_EDGE ( 'NONE', *, *, #791, .F. ) ;
#101 = ADVANCED_FACE ( 'NONE', ( #768 ), #516, .F. ) ;
#102 = EDGE_LOOP ( 'NONE', ( #711, #197, #27, #303 ) ) ;
#103 = DIRECTION ( 'NONE',  ( -1.000000000000000000, 0.0000000000000000000, 0.0000000000000000000 ) ) ;
#104 = CARTESIAN_POINT ( 'NONE',  ( -5.500000000000000000, 7.500000000000016900, 2.500000000000000000 ) ) ;
#105 = DIRECTION ( 'NONE',  ( 2.168404344971008900E-016, -1.000000000000000000, 0.0000000000000000000 ) ) ;
#106 = AXIS2_PLACEMENT_3D ( 'NONE', #201, #14, #33 ) ;
#107 = CARTESIAN_POINT ( 'NONE',  ( -5.500000000000000000, 23.49999999999998600, 2.500000000000000000 ) ) ;
#108 = FACE_OUTER_BOUND ( 'NONE', #299, .T. ) ;
#109 = CIRCLE ( 'NONE', #338, 1.500000000000000400 ) ;
#110 = DIRECTION ( 'NONE',  ( 0.0000000000000000000, 0.0000000000000000000, 1.000000000000000000 ) ) ;
#111 = CYLINDRICAL_SURFACE ( 'NONE', #1069, 1.500000000000000400 ) ;
#112 = ORIENTED_EDGE ( 'NONE', *, *, #113, .T. ) ;
#113 = EDGE_CURVE ( 'NONE', #191, #562, #123, .T. ) ;
#114 = ORIENTED_EDGE ( 'NONE', *, *, #30, .T. ) ;
#115 = CALENDAR_DATE ( 2018, 4, 11 ) ;
#116 = DIRECTION ( 'NONE',  ( -0.5449883505954141700, 0.8384436163006370200, 0.0000000000000000000 ) ) ;
#117 = ORIENTED_EDGE ( 'NONE', *, *, #402, .F. ) ;
#118 = APPROVAL ( #902, 'UNSPECIFIED' ) ;
#119 = CIRCLE ( 'NONE', #325, 2.500000000000000000 ) ;
#120 = CARTESIAN_POINT ( 'NONE',  ( -12.49999999999999800, 7.999999999999998200, 2.500000000000000000 ) ) ;
#121 = CARTESIAN_POINT ( 'NONE',  ( 9.249999999999994700, 27.85555757428966600, 2.500000000000000000 ) ) ;
#122 = CIRCLE ( 'NONE', #21, 1.500000000000000400 ) ;
#123 = CIRCLE ( 'NONE', #785, 1.500000000000000400 ) ;
#124 = DIRECTION ( 'NONE',  ( 1.000000000000000000, 0.0000000000000000000, 0.0000000000000000000 ) ) ;
#125 = AXIS2_PLACEMENT_3D ( 'NONE', #510, #2, #171 ) ;
#126 = VERTEX_POINT ( 'NONE', #923 ) ;
#127 = DIRECTION ( 'NONE',  ( 0.0000000000000000000, 1.000000000000000000, 0.0000000000000000000 ) ) ;
#128 = CARTESIAN_POINT ( 'NONE',  ( -2.499999999999999600, 39.49999999999999300, 2.500000000000000000 ) ) ;
#129 = CARTESIAN_POINT ( 'NONE',  ( 2.999999999999981800, 4.999999999999999100, 2.500000000000000000 ) ) ;
#130 = CARTESIAN_POINT ( 'NONE',  ( 2.999999999999999600, 7.500000000000000000, 2.500000000000000000 ) ) ;
#131 = CARTESIAN_POINT ( 'NONE',  ( -12.00000000000000200, 35.50000000000000700, 2.500000000000000000 ) ) ;
#132 = EDGE_CURVE ( 'NONE', #153, #728, #216, .T. ) ;
#133 = CYLINDRICAL_SURFACE ( 'NONE', #559, 1.500000000000000400 ) ;
#134 = CARTESIAN_POINT ( 'NONE',  ( -4.000000000000000000, 39.49999999999999300, 2.500000000000000000 ) ) ;
#135 = CYLINDRICAL_SURFACE ( 'NONE', #579, 1.500000000000000400 ) ;
#136 = LINE ( 'NONE', #1012, #63 ) ;
#137 = ORIENTED_EDGE ( 'NONE', *, *, #673, .T. ) ;
#138 = ORIENTED_EDGE ( 'NONE', *, *, #205, .T. ) ;
#139 = DIRECTION ( 'NONE',  ( 0.0000000000000000000, 0.0000000000000000000, 1.000000000000000000 ) ) ;
#140 = CARTESIAN_POINT ( 'NONE',  ( -12.49999999999999800, 7.999999999999998200, 2.500000000000000000 ) ) ;
#141 = EDGE_CURVE ( 'NONE', #952, #126, #17, .T. ) ;
#142 = ORIENTED_EDGE ( 'NONE', *, *, #962, .T. ) ;
#143 = EDGE_LOOP ( 'NONE', ( #395, #431, #899, #905, #521, #1001, #769, #155 ) ) ;
#144 = AXIS2_PLACEMENT_3D ( 'NONE', #726, #971, #212 ) ;
#145 = PLANE ( 'NONE',  #467 ) ;
#146 = PERSON_AND_ORGANIZATION_ROLE ( 'classification_officer' ) ;
#147 = VECTOR ( 'NONE', #264, 1000.000000000000000 ) ;
#148 = CARTESIAN_POINT ( 'NONE',  ( 9.250000000000000000, 12.99999999999999800, 2.500000000000000000 ) ) ;
#149 = VECTOR ( 'NONE', #660, 1000.000000000000000 ) ;
#150 = EDGE_CURVE ( 'NONE', #342, #1032, #1045, .T. ) ;
#151 = VECTOR ( 'NONE', #951, 1000.000000000000000 ) ;
#152 = CARTESIAN_POINT ( 'NONE',  ( 2.500000000000006700, 31.50000000000001400, 2.500000000000000000 ) ) ;
#153 = VERTEX_POINT ( 'NONE', #107 ) ;
#154 = ORIENTED_EDGE ( 'NONE', *, *, #1000, .T. ) ;
#155 = ORIENTED_EDGE ( 'NONE', *, *, #1000, .F. ) ;
#156 = EDGE_CURVE ( 'NONE', #562, #191, #790, .T. ) ;
#157 = VERTEX_POINT ( 'NONE', #354 ) ;
#158 =( NAMED_UNIT ( * ) PLANE_ANGLE_UNIT ( ) SI_UNIT ( $, .RADIAN. ) );
#159 = CIRCLE ( 'NONE', #950, 1.500000000000000400 ) ;
#160 = EDGE_CURVE ( 'NONE', #153, #304, #681, .T. ) ;
#161 = AXIS2_PLACEMENT_3D ( 'NONE', #588, #246, #763 ) ;
#162 = EDGE_LOOP ( 'NONE', ( #274, #220 ) ) ;
#163 = ORIENTED_EDGE ( 'NONE', *, *, #918, .T. ) ;
#164 = ORIENTED_EDGE ( 'NONE', *, *, #218, .T. ) ;
#165 = CARTESIAN_POINT ( 'NONE',  ( -5.500000000000000000, 7.500000000000000000, 0.0000000000000000000 ) ) ;
#166 = ORIENTED_EDGE ( 'NONE', *, *, #113, .F. ) ;
#167 = ORIENTED_EDGE ( 'NONE', *, *, #758, .T. ) ;
#168 = CARTESIAN_POINT ( 'NONE',  ( 5.500000000000007100, 31.50000000000001400, 2.500000000000000000 ) ) ;
#169 = EDGE_CURVE ( 'NONE', #1020, #180, #228, .T. ) ;
#170 = LINE ( 'NONE', #380, #1041 ) ;
#171 = DIRECTION ( 'NONE',  ( 0.0000000000000000000, 0.0000000000000000000, 1.000000000000000000 ) ) ;
#172 = CARTESIAN_POINT ( 'NONE',  ( 2.999999999999999600, 23.50000000000000400, 0.0000000000000000000 ) ) ;
#173 = VECTOR ( 'NONE', #740, 1000.000000000000000 ) ;
#174 = VECTOR ( 'NONE', #870, 1000.000000000000000 ) ;
#175 = DIRECTION ( 'NONE',  ( -0.0000000000000000000, -0.0000000000000000000, -1.000000000000000000 ) ) ;
#176 = ORIENTED_EDGE ( 'NONE', *, *, #99, .F. ) ;
#177 = ORIENTED_EDGE ( 'NONE', *, *, #978, .T. ) ;
#178 = ORIENTED_EDGE ( 'NONE', *, *, #625, .T. ) ;
#179 = COORDINATED_UNIVERSAL_TIME_OFFSET ( 1, 0, .AHEAD. ) ;
#180 = VERTEX_POINT ( 'NONE', #935 ) ;
#181 = DIRECTION ( 'NONE',  ( -1.000000000000000000, 0.0000000000000000000, 0.0000000000000000000 ) ) ;
#182 = DIRECTION ( 'NONE',  ( 1.000000000000000000, 0.0000000000000000000, 0.0000000000000000000 ) ) ;
#183 = ADVANCED_FACE ( 'NONE', ( #428, #882, #696, #4, #468, #778, #238 ), #623, .T. ) ;
#184 = DIRECTION ( 'NONE',  ( -0.0000000000000000000, -0.0000000000000000000, -1.000000000000000000 ) ) ;
#185 = CARTESIAN_POINT ( 'NONE',  ( 5.500000000000000900, 39.49999999999999300, 0.0000000000000000000 ) ) ;
#186 = LINE ( 'NONE', #168, #949 ) ;
#187 = CARTESIAN_POINT ( 'NONE',  ( -5.500000000000007100, 31.50000000000001400, 2.500000000000000000 ) ) ;
#188 = CARTESIAN_POINT ( 'NONE',  ( -5.500000000000000000, 7.500000000000016900, 0.0000000000000000000 ) ) ;
#189 = CIRCLE ( 'NONE', #479, 1.500000000000000400 ) ;
#190 = EDGE_CURVE ( 'NONE', #180, #352, #653, .T. ) ;
#191 = VERTEX_POINT ( 'NONE', #185 ) ;
#192 = VERTEX_POINT ( 'NONE', #1038 ) ;
#193 = CARTESIAN_POINT ( 'NONE',  ( -2.999999999999999600, 7.500000000000000000, 0.0000000000000000000 ) ) ;
#194 = CC_DESIGN_PERSON_AND_ORGANIZATION_ASSIGNMENT ( #941, #403, ( #551 ) ) ;
#195 = DIRECTION ( 'NONE',  ( -1.000000000000000000, 0.0000000000000000000, 0.0000000000000000000 ) ) ;
#196 = DATE_AND_TIME ( #422, #1081 ) ;
#197 = ORIENTED_EDGE ( 'NONE', *, *, #853, .T. ) ;
#198 = DIRECTION ( 'NONE',  ( 0.0000000000000000000, 0.0000000000000000000, 1.000000000000000000 ) ) ;
#199 = EDGE_CURVE ( 'NONE', #223, #300, #122, .T. ) ;
#200 = AXIS2_PLACEMENT_3D ( 'NONE', #956, #799, #630 ) ;
#201 = CARTESIAN_POINT ( 'NONE',  ( 4.000000000000007100, 31.50000000000001400, 2.500000000000000000 ) ) ;
#202 = LINE ( 'NONE', #863, #147 ) ;
#203 = DIRECTION ( 'NONE',  ( -0.0000000000000000000, -0.0000000000000000000, -1.000000000000000000 ) ) ;
#204 = ORIENTED_EDGE ( 'NONE', *, *, #673, .F. ) ;
#205 = EDGE_CURVE ( 'NONE', #728, #53, #855, .T. ) ;
#206 = VERTEX_POINT ( 'NONE', #615 ) ;
#207 = DIRECTION ( 'NONE',  ( -1.000000000000000000, 0.0000000000000000000, 0.0000000000000000000 ) ) ;
#208 = ORIENTED_EDGE ( 'NONE', *, *, #550, .T. ) ;
#209 = CARTESIAN_POINT ( 'NONE',  ( 4.000000000000007100, 31.50000000000001400, 2.500000000000000000 ) ) ;
#210 = EDGE_CURVE ( 'NONE', #300, #223, #997, .T. ) ;
#211 = CIRCLE ( 'NONE', #600, 1.500000000000000400 ) ;
#212 = DIRECTION ( 'NONE',  ( 0.0000000000000000000, 0.0000000000000000000, -1.000000000000000000 ) ) ;
#213 = CARTESIAN_POINT ( 'NONE',  ( -2.500000000000006700, 31.50000000000001400, 2.500000000000000000 ) ) ;
#214 = ADVANCED_FACE ( 'NONE', ( #628 ), #135, .F. ) ;
#215 = VECTOR ( 'NONE', #116, 1000.000000000000100 ) ;
#216 = LINE ( 'NONE', #1025, #1079 ) ;
#217 = DIRECTION ( 'NONE',  ( -0.0000000000000000000, -0.0000000000000000000, -1.000000000000000000 ) ) ;
#218 = EDGE_CURVE ( 'NONE', #831, #157, #393, .T. ) ;
#219 = ORIENTED_EDGE ( 'NONE', *, *, #766, .F. ) ;
#220 = ORIENTED_EDGE ( 'NONE', *, *, #41, .F. ) ;
#221 = AXIS2_PLACEMENT_3D ( 'NONE', #947, #29, #103 ) ;
#222 = CARTESIAN_POINT ( 'NONE',  ( -12.50000000000000000, -1.530808498934191500E-015, 0.0000000000000000000 ) ) ;
#223 = VERTEX_POINT ( 'NONE', #536 ) ;
#224 = CARTESIAN_POINT ( 'NONE',  ( -12.50000000000000000, -1.530808498934191500E-015, 2.500000000000000000 ) ) ;
#225 = CARTESIAN_POINT ( 'NONE',  ( -2.999999999999999600, 7.500000000000000000, 2.500000000000000000 ) ) ;
#226 = EDGE_CURVE ( 'NONE', #585, #397, #544, .T. ) ;
#227 = LINE ( 'NONE', #807, #31 ) ;
#228 = LINE ( 'NONE', #798, #215 ) ;
#229 = CARTESIAN_POINT ( 'NONE',  ( 4.000000000000007100, 31.50000000000001400, 0.0000000000000000000 ) ) ;
#230 = ORIENTED_EDGE ( 'NONE', *, *, #972, .T. ) ;
#231 = ORIENTED_EDGE ( 'NONE', *, *, #926, .T. ) ;
#232 = DIRECTION ( 'NONE',  ( 0.0000000000000000000, 0.0000000000000000000, 1.000000000000000000 ) ) ;
#233 = DIRECTION ( 'NONE',  ( 0.0000000000000000000, 0.0000000000000000000, 1.000000000000000000 ) ) ;
#234 = APPROVAL_STATUS ( 'not_yet_approved' ) ;
#235 = VECTOR ( 'NONE', #445, 1000.000000000000000 ) ;
#236 = CARTESIAN_POINT ( 'NONE',  ( -2.999999999999981800, 26.00000000000000400, 2.500000000000000000 ) ) ;
#237 = VECTOR ( 'NONE', #277, 1000.000000000000000 ) ;
#238 = FACE_BOUND ( 'NONE', #1033, .T. ) ;
#239 = CARTESIAN_POINT ( 'NONE',  ( 0.0000000000000000000, 35.50000000000000700, 0.0000000000000000000 ) ) ;
#240 = ORIENTED_EDGE ( 'NONE', *, *, #41, .T. ) ;
#241 = ORIENTED_EDGE ( 'NONE', *, *, #141, .T. ) ;
#242 = EDGE_CURVE ( 'NONE', #952, #192, #640, .T. ) ;
#243 = VERTEX_POINT ( 'NONE', #46 ) ;
#244 = CC_DESIGN_DATE_AND_TIME_ASSIGNMENT ( #448, #658, ( #964 ) ) ;
#245 = VERTEX_POINT ( 'NONE', #291 ) ;
#246 = DIRECTION ( 'NONE',  ( -0.0000000000000000000, -0.0000000000000000000, -1.000000000000000000 ) ) ;
#247 = CARTESIAN_POINT ( 'NONE',  ( -2.500000000000006700, 31.50000000000001400, 2.500000000000000000 ) ) ;
#248 = DIRECTION ( 'NONE',  ( -1.000000000000000000, 0.0000000000000000000, 0.0000000000000000000 ) ) ;
#249 = CIRCLE ( 'NONE', #661, 2.500000000000000000 ) ;
#250 = EDGE_CURVE ( 'NONE', #671, #797, #98, .T. ) ;
#251 = CARTESIAN_POINT ( 'NONE',  ( -4.000000000000007100, 31.50000000000001400, 0.0000000000000000000 ) ) ;
#252 = AXIS2_PLACEMENT_3D ( 'NONE', #364, #515, #526 ) ;
#253 = CARTESIAN_POINT ( 'NONE',  ( -2.999999999999999600, 23.50000000000000400, 2.500000000000000000 ) ) ;
#254 = LINE ( 'NONE', #683, #697 ) ;
#255 = ORIENTED_EDGE ( 'NONE', *, *, #226, .T. ) ;
#256 = ORIENTED_EDGE ( 'NONE', *, *, #1035, .F. ) ;
#257 = DIRECTION ( 'NONE',  ( 1.000000000000000000, -0.0000000000000000000, -0.0000000000000000000 ) ) ;
#258 = DIRECTION ( 'NONE',  ( -0.0000000000000000000, -0.0000000000000000000, -1.000000000000000000 ) ) ;
#259 = ORIENTED_EDGE ( 'NONE', *, *, #748, .F. ) ;
#260 = EDGE_CURVE ( 'NONE', #599, #1020, #830, .T. ) ;
#261 = DIRECTION ( 'NONE',  ( -0.0000000000000000000, -0.0000000000000000000, -1.000000000000000000 ) ) ;
#262 = ADVANCED_FACE ( 'NONE', ( #1078 ), #963, .F. ) ;
#263 = FACE_BOUND ( 'NONE', #792, .T. ) ;
#264 = DIRECTION ( 'NONE',  ( -0.0000000000000000000, -1.000000000000000000, -0.0000000000000000000 ) ) ;
#265 = LINE ( 'NONE', #12, #416 ) ;
#266 = EDGE_CURVE ( 'NONE', #223, #269, #598, .T. ) ;
#267 = DIRECTION ( 'NONE',  ( -2.168404344971008900E-016, 1.000000000000000000, 0.0000000000000000000 ) ) ;
#268 = EDGE_LOOP ( 'NONE', ( #685, #36, #925, #1018 ) ) ;
#269 = VERTEX_POINT ( 'NONE', #390 ) ;
#270 = COORDINATED_UNIVERSAL_TIME_OFFSET ( 1, 0, .AHEAD. ) ;
#271 = CARTESIAN_POINT ( 'NONE',  ( -2.999999999999981800, 4.999999999999999100, 0.0000000000000000000 ) ) ;
#272 = CARTESIAN_POINT ( 'NONE',  ( 0.0000000000000000000, 35.50000000000000700, 2.500000000000000000 ) ) ;
#273 = EDGE_CURVE ( 'NONE', #480, #450, #189, .T. ) ;
#274 = ORIENTED_EDGE ( 'NONE', *, *, #314, .F. ) ;
#275 = CARTESIAN_POINT ( 'NONE',  ( 9.249999999999994700, 27.85555757428966600, 0.0000000000000000000 ) ) ;
#276 = AXIS2_PLACEMENT_3D ( 'NONE', #860, #360, #105 ) ;
#277 = DIRECTION ( 'NONE',  ( 1.000000000000000000, -0.0000000000000000000, -0.0000000000000000000 ) ) ;
#278 = CYLINDRICAL_SURFACE ( 'NONE', #854, 1.500000000000000400 ) ;
#279 = DIRECTION ( 'NONE',  ( -1.000000000000000000, 0.0000000000000000000, 0.0000000000000000000 ) ) ;
#280 = EDGE_CURVE ( 'NONE', #954, #206, #1031, .T. ) ;
#281 = VERTEX_POINT ( 'NONE', #881 ) ;
#282 = ORIENTED_EDGE ( 'NONE', *, *, #48, .T. ) ;
#283 = DIRECTION ( 'NONE',  ( -0.0000000000000000000, -0.0000000000000000000, -1.000000000000000000 ) ) ;
#284 = DIRECTION ( 'NONE',  ( -2.168404344971008900E-016, 1.000000000000000000, 0.0000000000000000000 ) ) ;
#285 = VERTEX_POINT ( 'NONE', #1052 ) ;
#286 = APPROVAL_PERSON_ORGANIZATION ( #665, #493, #322 ) ;
#287 = CARTESIAN_POINT ( 'NONE',  ( 5.500000000000000000, 7.500000000000016900, 2.500000000000000000 ) ) ;
#288 = ORIENTED_EDGE ( 'NONE', *, *, #150, .T. ) ;
#289 = ADVANCED_FACE ( 'NONE', ( #581 ), #351, .T. ) ;
#290 = CARTESIAN_POINT ( 'NONE',  ( 0.0000000000000000000, 35.50000000000000700, 0.0000000000000000000 ) ) ;
#291 = CARTESIAN_POINT ( 'NONE',  ( -9.250000000000000000, 12.99999999999999800, 2.500000000000000000 ) ) ;
#292 = DIRECTION ( 'NONE',  ( 0.0000000000000000000, 0.0000000000000000000, 1.000000000000000000 ) ) ;
#293 = CARTESIAN_POINT ( 'NONE',  ( -9.250000000000000000, 27.85555757428966900, 2.500000000000000000 ) ) ;
#294 = CIRCLE ( 'NONE', #1005, 1.750000000000000400 ) ;
#295 = VECTOR ( 'NONE', #765, 1000.000000000000000 ) ;
#296 = CARTESIAN_POINT ( 'NONE',  ( 12.49999999999999800, 7.999999999999998200, 0.0000000000000000000 ) ) ;
#297 = CARTESIAN_POINT ( 'NONE',  ( 4.000000000000000000, 39.49999999999999300, 2.500000000000000000 ) ) ;
#298 = CIRCLE ( 'NONE', #32, 1.500000000000000400 ) ;
#299 = EDGE_LOOP ( 'NONE', ( #7, #857, #1059, #783 ) ) ;
#300 = VERTEX_POINT ( 'NONE', #639 ) ;
#301 = CARTESIAN_POINT ( 'NONE',  ( 4.000000000000007100, 31.50000000000001400, 2.500000000000000000 ) ) ;
#302 = DIRECTION ( 'NONE',  ( 1.000000000000000000, 0.0000000000000000000, 0.0000000000000000000 ) ) ;
#303 = ORIENTED_EDGE ( 'NONE', *, *, #273, .F. ) ;
#304 = VERTEX_POINT ( 'NONE', #1040 ) ;
#305 = ORIENTED_EDGE ( 'NONE', *, *, #132, .T. ) ;
#306 = EDGE_CURVE ( 'NONE', #352, #589, #1057, .T. ) ;
#307 = CIRCLE ( 'NONE', #106, 1.500000000000000400 ) ;
#308 = DIRECTION ( 'NONE',  ( 1.000000000000000000, 0.0000000000000000000, -0.0000000000000000000 ) ) ;
#309 = CARTESIAN_POINT ( 'NONE',  ( -12.49999999999999800, 7.999999999999998200, 0.0000000000000000000 ) ) ;
#310 = CIRCLE ( 'NONE', #427, 12.00000000000000200 ) ;
#311 = ADVANCED_FACE ( 'NONE', ( #514 ), #38, .F. ) ;
#312 = FACE_OUTER_BOUND ( 'NONE', #822, .T. ) ;
#313 = DIRECTION ( 'NONE',  ( -0.0000000000000000000, -0.0000000000000000000, -1.000000000000000000 ) ) ;
#314 = EDGE_CURVE ( 'NONE', #346, #671, #298, .T. ) ;
#315 = ORIENTED_EDGE ( 'NONE', *, *, #280, .T. ) ;
#316 = ORIENTED_EDGE ( 'NONE', *, *, #913, .T. ) ;
#317 = AXIS2_PLACEMENT_3D ( 'NONE', #648, #824, #897 ) ;
#318 =( NAMED_UNIT ( * ) SI_UNIT ( $, .STERADIAN. ) SOLID_ANGLE_UNIT ( ) );
#319 = APPROVAL_DATE_TIME ( #519, #118 ) ;
#320 = EDGE_LOOP ( 'NONE', ( #370, #943, #914, #447 ) ) ;
#321 = CARTESIAN_POINT ( 'NONE',  ( -4.000000000000000000, 39.49999999999999300, 0.0000000000000000000 ) ) ;
#322 = APPROVAL_ROLE ( '' ) ;
#323 = CARTESIAN_POINT ( 'NONE',  ( 12.49999999999999800, 7.999999999999998200, 2.500000000000000000 ) ) ;
#324 = DIRECTION ( 'NONE',  ( -0.5449883505954141700, -0.8384436163006370200, -0.0000000000000000000 ) ) ;
#325 = AXIS2_PLACEMENT_3D ( 'NONE', #891, #649, #742 ) ;
#326 = LINE ( 'NONE', #187, #1014 ) ;
#327 = DIRECTION ( 'NONE',  ( 1.000000000000000000, 0.0000000000000000000, 0.0000000000000000000 ) ) ;
#328 = LINE ( 'NONE', #8, #813 ) ;
#329 = VECTOR ( 'NONE', #284, 1000.000000000000000 ) ;
#330 = ORIENTED_EDGE ( 'NONE', *, *, #438, .T. ) ;
#331 = ORIENTED_EDGE ( 'NONE', *, *, #840, .F. ) ;
#332 = AXIS2_PLACEMENT_3D ( 'NONE', #172, #9, #453 ) ;
#333 = SHAPE_DEFINITION_REPRESENTATION ( #735, #1037 ) ;
#334 = EDGE_LOOP ( 'NONE', ( #746, #204, #944, #316 ) ) ;
#335 = EDGE_CURVE ( 'NONE', #126, #1071, #73, .T. ) ;
#336 = FACE_OUTER_BOUND ( 'NONE', #953, .T. ) ;
#337 = DIRECTION ( 'NONE',  ( -1.000000000000000000, 0.0000000000000000000, 0.0000000000000000000 ) ) ;
#338 = AXIS2_PLACEMENT_3D ( 'NONE', #321, #894, #558 ) ;
#339 = CARTESIAN_POINT ( 'NONE',  ( 1.750000000000000400, 35.50000000000000700, 0.0000000000000000000 ) ) ;
#340 = FACE_OUTER_BOUND ( 'NONE', #832, .T. ) ;
#341 = CIRCLE ( 'NONE', #502, 1.500000000000000400 ) ;
#342 = VERTEX_POINT ( 'NONE', #224 ) ;
#343 = VERTEX_POINT ( 'NONE', #906 ) ;
#344 = COORDINATED_UNIVERSAL_TIME_OFFSET ( 1, 0, .AHEAD. ) ;
#345 = AXIS2_PLACEMENT_3D ( 'NONE', #253, #258, #424 ) ;
#346 = VERTEX_POINT ( 'NONE', #565 ) ;
#347 = CARTESIAN_POINT ( 'NONE',  ( -9.250000000000000000, 12.99999999999999800, 2.500000000000000000 ) ) ;
#348 = CIRCLE ( 'NONE', #487, 1.500000000000000400 ) ;
#349 = VECTOR ( 'NONE', #592, 1000.000000000000000 ) ;
#350 = CARTESIAN_POINT ( 'NONE',  ( 0.0000000000000000000, 35.50000000000000700, 0.0000000000000000000 ) ) ;
#351 = CYLINDRICAL_SURFACE ( 'NONE', #1029, 12.00000000000000200 ) ;
#352 = VERTEX_POINT ( 'NONE', #1066 ) ;
#353 = DIRECTION ( 'NONE',  ( -1.000000000000000000, 0.0000000000000000000, 0.0000000000000000000 ) ) ;
#354 = CARTESIAN_POINT ( 'NONE',  ( 12.00000000000000200, 35.50000000000000700, 0.0000000000000000000 ) ) ;
#355 = ORIENTED_EDGE ( 'NONE', *, *, #132, .F. ) ;
#356 = COORDINATED_UNIVERSAL_TIME_OFFSET ( 1, 0, .AHEAD. ) ;
#357 = ORIENTED_EDGE ( 'NONE', *, *, #169, .F. ) ;
#358 = ADVANCED_FACE ( 'NONE', ( #977 ), #145, .T. ) ;
#359 = DIRECTION ( 'NONE',  ( -0.0000000000000000000, -0.0000000000000000000, -1.000000000000000000 ) ) ;
#360 = DIRECTION ( 'NONE',  ( -1.000000000000000000, -2.168404344971008900E-016, 0.0000000000000000000 ) ) ;
#361 = FACE_OUTER_BOUND ( 'NONE', #503, .T. ) ;
#362 = AXIS2_PLACEMENT_3D ( 'NONE', #85, #591, #677 ) ;
#363 = VECTOR ( 'NONE', #694, 1000.000000000000000 ) ;
#364 = CARTESIAN_POINT ( 'NONE',  ( 4.000000000000000000, 39.49999999999999300, 2.500000000000000000 ) ) ;
#365 = VECTOR ( 'NONE', #929, 1000.000000000000000 ) ;
#366 = ORIENTED_EDGE ( 'NONE', *, *, #550, .F. ) ;
#367 = EDGE_LOOP ( 'NONE', ( #670, #868 ) ) ;
#368 = CARTESIAN_POINT ( 'NONE',  ( 12.00000000000000200, 35.50000000000000700, 2.500000000000000000 ) ) ;
#369 = DIRECTION ( 'NONE',  ( 1.000000000000000000, 0.0000000000000000000, 0.0000000000000000000 ) ) ;
#370 = ORIENTED_EDGE ( 'NONE', *, *, #840, .T. ) ;
#371 = ORIENTED_EDGE ( 'NONE', *, *, #791, .T. ) ;
#372 = AXIS2_PLACEMENT_3D ( 'NONE', #877, #462, #207 ) ;
#373 = DIRECTION ( 'NONE',  ( 0.0000000000000000000, 0.0000000000000000000, 1.000000000000000000 ) ) ;
#374 = VECTOR ( 'NONE', #464, 1000.000000000000000 ) ;
#375 = CIRCLE ( 'NONE', #676, 1.750000000000000400 ) ;
#376 = CARTESIAN_POINT ( 'NONE',  ( 12.50000000000000000, -1.530808498934191500E-015, 2.500000000000000000 ) ) ;
#377 = DIRECTION ( 'NONE',  ( 2.168404344971008900E-016, 1.000000000000000000, 0.0000000000000000000 ) ) ;
#378 = AXIS2_PLACEMENT_3D ( 'NONE', #251, #1086, #181 ) ;
#379 = ORIENTED_EDGE ( 'NONE', *, *, #242, .T. ) ;
#380 = CARTESIAN_POINT ( 'NONE',  ( -5.500000000000000000, 7.500000000000000000, 2.500000000000000000 ) ) ;
#381 = DIRECTION ( 'NONE',  ( 1.000000000000000000, -2.168404344971008900E-016, 0.0000000000000000000 ) ) ;
#382 = VERTEX_POINT ( 'NONE', #152 ) ;
#383 = CARTESIAN_POINT ( 'NONE',  ( -12.49999999999999800, 7.999999999999998200, 2.500000000000000000 ) ) ;
#384 = ORIENTED_EDGE ( 'NONE', *, *, #978, .F. ) ;
#385 = PERSON_AND_ORGANIZATION ( #1087, #801 ) ;
#386 = DIRECTION ( 'NONE',  ( 1.000000000000000000, 0.0000000000000000000, 0.0000000000000000000 ) ) ;
#387 = CARTESIAN_POINT ( 'NONE',  ( 5.500000000000000000, 7.500000000000016900, 0.0000000000000000000 ) ) ;
#388 = EDGE_CURVE ( 'NONE', #831, #952, #310, .T. ) ;
#389 = DIRECTION ( 'NONE',  ( 0.0000000000000000000, 0.0000000000000000000, 1.000000000000000000 ) ) ;
#390 = CARTESIAN_POINT ( 'NONE',  ( -2.499999999999999600, 39.49999999999999300, 0.0000000000000000000 ) ) ;
#391 = VECTOR ( 'NONE', #313, 1000.000000000000000 ) ;
#392 = DIRECTION ( 'NONE',  ( 0.0000000000000000000, 0.0000000000000000000, 1.000000000000000000 ) ) ;
#393 = LINE ( 'NONE', #50, #1070 ) ;
#394 = AXIS2_PLACEMENT_3D ( 'NONE', #723, #733, #42 ) ;
#395 = ORIENTED_EDGE ( 'NONE', *, *, #571, .F. ) ;
#396 = PLANE ( 'NONE',  #498 ) ;
#397 = VERTEX_POINT ( 'NONE', #407 ) ;
#398 = ADVANCED_FACE ( 'NONE', ( #560 ), #743, .F. ) ;
#399 = VERTEX_POINT ( 'NONE', #309 ) ;
#400 = ORIENTED_EDGE ( 'NONE', *, *, #582, .T. ) ;
#401 = PLANE ( 'NONE',  #433 ) ;
#402 = EDGE_CURVE ( 'NONE', #495, #269, #109, .T. ) ;
#403 = PERSON_AND_ORGANIZATION_ROLE ( 'design_supplier' ) ;
#404 = LINE ( 'NONE', #717, #374 ) ;
#405 = APPLICATION_CONTEXT ( 'configuration controlled 3d designs of mechanical parts and assemblies' ) ;
#406 = VECTOR ( 'NONE', #217, 1000.000000000000000 ) ;
#407 = CARTESIAN_POINT ( 'NONE',  ( 2.499999999999999600, 39.49999999999999300, 2.500000000000000000 ) ) ;
#408 = EDGE_CURVE ( 'NONE', #924, #342, #552, .T. ) ;
#409 = ORIENTED_EDGE ( 'NONE', *, *, #1035, .T. ) ;
#410 = EDGE_LOOP ( 'NONE', ( #469, #916, #760, #114 ) ) ;
#411 = APPROVAL_ROLE ( '' ) ;
#412 = UNCERTAINTY_MEASURE_WITH_UNIT (LENGTH_MEASURE( 1.000000000000000100E-005 ), #577, 'distance_accuracy_value', 'NONE');
#413 = EDGE_LOOP ( 'NONE', ( #1062, #112 ) ) ;
#414 = APPLICATION_PROTOCOL_DEFINITION ( 'international standard', 'config_control_design', 1994, #75 ) ;
#415 = CARTESIAN_POINT ( 'NONE',  ( -2.999999999999981800, 26.00000000000000400, 0.0000000000000000000 ) ) ;
#416 = VECTOR ( 'NONE', #257, 1000.000000000000000 ) ;
#417 = VECTOR ( 'NONE', #788, 1000.000000000000000 ) ;
#418 = ORIENTED_EDGE ( 'NONE', *, *, #210, .T. ) ;
#419 = EDGE_LOOP ( 'NONE', ( #817, #315, #805, #208, #282, #138, #167, #491 ) ) ;
#420 = CARTESIAN_POINT ( 'NONE',  ( 0.0000000000000000000, 35.50000000000000700, 0.0000000000000000000 ) ) ;
#421 = AXIS2_PLACEMENT_3D ( 'NONE', #34, #15, #606 ) ;
#422 = CALENDAR_DATE ( 2018, 4, 11 ) ;
#423 = CARTESIAN_POINT ( 'NONE',  ( -5.500000000000000900, 39.49999999999999300, 2.500000000000000000 ) ) ;
#424 = DIRECTION ( 'NONE',  ( -1.000000000000000000, 0.0000000000000000000, 0.0000000000000000000 ) ) ;
#425 = EDGE_CURVE ( 'NONE', #126, #245, #613, .T. ) ;
#426 = FACE_OUTER_BOUND ( 'NONE', #644, .T. ) ;
#427 = AXIS2_PLACEMENT_3D ( 'NONE', #655, #59, #643 ) ;
#428 = FACE_BOUND ( 'NONE', #24, .T. ) ;
#429 = CARTESIAN_POINT ( 'NONE',  ( -4.000000000000000000, 39.49999999999999300, 0.0000000000000000000 ) ) ;
#430 = ORIENTED_EDGE ( 'NONE', *, *, #666, .F. ) ;
#431 = ORIENTED_EDGE ( 'NONE', *, *, #862, .F. ) ;
#432 = ORIENTED_EDGE ( 'NONE', *, *, #169, .T. ) ;
#433 = AXIS2_PLACEMENT_3D ( 'NONE', #485, #232, #308 ) ;
#434 = ORIENTED_EDGE ( 'NONE', *, *, #156, .F. ) ;
#435 = CARTESIAN_POINT ( 'NONE',  ( 5.500000000000000000, 23.49999999999998600, 2.500000000000000000 ) ) ;
#436 = DIRECTION ( 'NONE',  ( 1.000000000000000000, 0.0000000000000000000, 0.0000000000000000000 ) ) ;
#437 = ADVANCED_FACE ( 'NONE', ( #340 ), #396, .T. ) ;
#438 = EDGE_CURVE ( 'NONE', #245, #924, #540, .T. ) ;
#439 = FACE_OUTER_BOUND ( 'NONE', #268, .T. ) ;
#440 = DIRECTION ( 'NONE',  ( 0.0000000000000000000, 0.0000000000000000000, 1.000000000000000000 ) ) ;
#441 = CARTESIAN_POINT ( 'NONE',  ( 12.50000000000000000, -1.530808498934191500E-015, 0.0000000000000000000 ) ) ;
#442 = VECTOR ( 'NONE', #267, 1000.000000000000000 ) ;
#443 = ADVANCED_FACE ( 'NONE', ( #525 ), #278, .F. ) ;
#444 = EDGE_LOOP ( 'NONE', ( #230, #1061 ) ) ;
#445 = DIRECTION ( 'NONE',  ( -0.0000000000000000000, -0.0000000000000000000, -1.000000000000000000 ) ) ;
#446 = DIRECTION ( 'NONE',  ( 0.0000000000000000000, 0.0000000000000000000, 1.000000000000000000 ) ) ;
#447 = ORIENTED_EDGE ( 'NONE', *, *, #335, .T. ) ;
#448 = DATE_AND_TIME ( #782, #1048 ) ;
#449 = VERTEX_POINT ( 'NONE', #986 ) ;
#450 = VERTEX_POINT ( 'NONE', #1073 ) ;
#451 = AXIS2_PLACEMENT_3D ( 'NONE', #874, #381, #377 ) ;
#452 = CARTESIAN_POINT ( 'NONE',  ( -12.50000000000000000, -1.530808498934191500E-015, 2.500000000000000000 ) ) ;
#453 = DIRECTION ( 'NONE',  ( 1.000000000000000000, 0.0000000000000000000, 0.0000000000000000000 ) ) ;
#454 = LINE ( 'NONE', #945, #235 ) ;
#455 = EDGE_CURVE ( 'NONE', #304, #22, #119, .T. ) ;
#456 = DIRECTION ( 'NONE',  ( -1.000000000000000000, 0.0000000000000000000, 0.0000000000000000000 ) ) ;
#457 = DIRECTION ( 'NONE',  ( 0.0000000000000000000, 1.000000000000000000, 0.0000000000000000000 ) ) ;
#458 = ORIENTED_EDGE ( 'NONE', *, *, #688, .F. ) ;
#459 = VERTEX_POINT ( 'NONE', #829 ) ;
#460 = ORIENTED_EDGE ( 'NONE', *, *, #82, .F. ) ;
#461 = DIRECTION ( 'NONE',  ( 1.000000000000000000, -0.0000000000000000000, -0.0000000000000000000 ) ) ;
#462 = DIRECTION ( 'NONE',  ( 0.0000000000000000000, 0.0000000000000000000, 1.000000000000000000 ) ) ;
#463 = EDGE_CURVE ( 'NONE', #180, #281, #776, .T. ) ;
#464 = DIRECTION ( 'NONE',  ( -0.0000000000000000000, -0.0000000000000000000, -1.000000000000000000 ) ) ;
#465 = FACE_BOUND ( 'NONE', #444, .T. ) ;
#466 = LINE ( 'NONE', #530, #237 ) ;
#467 = AXIS2_PLACEMENT_3D ( 'NONE', #984, #738, #233 ) ;
#468 = FACE_BOUND ( 'NONE', #780, .T. ) ;
#469 = ORIENTED_EDGE ( 'NONE', *, *, #218, .F. ) ;
#470 = CARTESIAN_POINT ( 'NONE',  ( 9.250000000000000000, 12.99999999999999800, 0.0000000000000000000 ) ) ;
#471 = EDGE_LOOP ( 'NONE', ( #770, #91, #939, #137 ) ) ;
#472 = CARTESIAN_POINT ( 'NONE',  ( -4.000000000000007100, 31.50000000000001400, 2.500000000000000000 ) ) ;
#473 = AXIS2_PLACEMENT_3D ( 'NONE', #543, #967, #124 ) ;
#474 = DIRECTION ( 'NONE',  ( -2.168404344971008900E-016, -1.000000000000000000, -0.0000000000000000000 ) ) ;
#475 = CYLINDRICAL_SURFACE ( 'NONE', #394, 12.00000000000000200 ) ;
#476 = CARTESIAN_POINT ( 'NONE',  ( -12.50000000000000000, -1.530808498934191500E-015, 0.0000000000000000000 ) ) ;
#477 = EDGE_CURVE ( 'NONE', #399, #1032, #580, .T. ) ;
#478 = LINE ( 'NONE', #347, #365 ) ;
#479 = AXIS2_PLACEMENT_3D ( 'NONE', #1056, #373, #555 ) ;
#480 = VERTEX_POINT ( 'NONE', #988 ) ;
#481 = EDGE_LOOP ( 'NONE', ( #847, #256, #641, #501 ) ) ;
#482 = DIRECTION ( 'NONE',  ( -0.0000000000000000000, -1.000000000000000000, -0.0000000000000000000 ) ) ;
#483 = VERTEX_POINT ( 'NONE', #574 ) ;
#484 = ORIENTED_EDGE ( 'NONE', *, *, #266, .F. ) ;
#485 = CARTESIAN_POINT ( 'NONE',  ( 0.0000000000000000000, 35.50000000000000700, 0.0000000000000000000 ) ) ;
#486 = DIRECTION ( 'NONE',  ( 0.0000000000000000000, 0.0000000000000000000, -1.000000000000000000 ) ) ;
#487 = AXIS2_PLACEMENT_3D ( 'NONE', #564, #762, #77 ) ;
#488 = CIRCLE ( 'NONE', #989, 1.500000000000000400 ) ;
#489 = LINE ( 'NONE', #1017, #349 ) ;
#490 = EDGE_CURVE ( 'NONE', #300, #495, #70, .T. ) ;
#491 = ORIENTED_EDGE ( 'NONE', *, *, #772, .T. ) ;
#492 = ORIENTED_EDGE ( 'NONE', *, *, #772, .F. ) ;
#493 = APPROVAL ( #234, 'UNSPECIFIED' ) ;
#494 = APPROVAL_PERSON_ORGANIZATION ( #970, #83, #664 ) ;
#495 = VERTEX_POINT ( 'NONE', #81 ) ;
#496 = ORIENTED_EDGE ( 'NONE', *, *, #818, .T. ) ;
#497 = CARTESIAN_POINT ( 'NONE',  ( 0.0000000000000000000, 35.50000000000000700, 2.500000000000000000 ) ) ;
#498 = AXIS2_PLACEMENT_3D ( 'NONE', #61, #976, #486 ) ;
#499 = VECTOR ( 'NONE', #674, 1000.000000000000000 ) ;
#500 = CYLINDRICAL_SURFACE ( 'NONE', #566, 2.500000000000000400 ) ;
#501 = ORIENTED_EDGE ( 'NONE', *, *, #5, .T. ) ;
#502 = AXIS2_PLACEMENT_3D ( 'NONE', #767, #3, #1006 ) ;
#503 = EDGE_LOOP ( 'NONE', ( #219, #92, #178, #1008 ) ) ;
#504 = CARTESIAN_POINT ( 'NONE',  ( 2.999999999999999600, 7.500000000000000000, 2.500000000000000000 ) ) ;
#505 = ORIENTED_EDGE ( 'NONE', *, *, #811, .F. ) ;
#506 = ORIENTED_EDGE ( 'NONE', *, *, #632, .T. ) ;
#507 = CARTESIAN_POINT ( 'NONE',  ( -4.000000000000000000, 39.49999999999999300, 2.500000000000000000 ) ) ;
#508 = EDGE_CURVE ( 'NONE', #686, #243, #569, .T. ) ;
#509 = CIRCLE ( 'NONE', #698, 2.500000000000000000 ) ;
#510 = CARTESIAN_POINT ( 'NONE',  ( 12.50000000000000000, -1.530808498934191500E-015, 2.500000000000000000 ) ) ;
#511 = CARTESIAN_POINT ( 'NONE',  ( 2.499999999999999600, 39.49999999999999300, 2.500000000000000000 ) ) ;
#512 = CYLINDRICAL_SURFACE ( 'NONE', #793, 1.750000000000000400 ) ;
#513 = ADVANCED_FACE ( 'NONE', ( #852 ), #960, .F. ) ;
#514 = FACE_OUTER_BOUND ( 'NONE', #744, .T. ) ;
#515 = DIRECTION ( 'NONE',  ( 0.0000000000000000000, 0.0000000000000000000, 1.000000000000000000 ) ) ;
#516 = PLANE ( 'NONE',  #835 ) ;
#517 = ORIENTED_EDGE ( 'NONE', *, *, #958, .F. ) ;
#518 = ORIENTED_EDGE ( 'NONE', *, *, #86, .F. ) ;
#519 = DATE_AND_TIME ( #533, #576 ) ;
#520 = CARTESIAN_POINT ( 'NONE',  ( -2.500000000000006700, 31.50000000000001400, 0.0000000000000000000 ) ) ;
#521 = ORIENTED_EDGE ( 'NONE', *, *, #160, .F. ) ;
#522 = CARTESIAN_POINT ( 'NONE',  ( 12.50000000000000000, -1.530808498934191500E-015, 2.500000000000000000 ) ) ;
#523 = DIRECTION ( 'NONE',  ( 1.000000000000000000, 0.0000000000000000000, 0.0000000000000000000 ) ) ;
#524 = EDGE_CURVE ( 'NONE', #80, #39, #1042, .T. ) ;
#525 = FACE_OUTER_BOUND ( 'NONE', #712, .T. ) ;
#526 = DIRECTION ( 'NONE',  ( -1.000000000000000000, 0.0000000000000000000, 0.0000000000000000000 ) ) ;
#527 = CARTESIAN_POINT ( 'NONE',  ( 12.49999999999999800, 7.999999999999998200, 2.500000000000000000 ) ) ;
#528 = CIRCLE ( 'NONE', #362, 2.500000000000000000 ) ;
#529 = ORIENTED_EDGE ( 'NONE', *, *, #758, .F. ) ;
#530 = CARTESIAN_POINT ( 'NONE',  ( 2.999999999999981800, 4.999999999999999100, 0.0000000000000000000 ) ) ;
#531 = CARTESIAN_POINT ( 'NONE',  ( 4.000000000000000000, 39.49999999999999300, 0.0000000000000000000 ) ) ;
#532 = VERTEX_POINT ( 'NONE', #911 ) ;
#533 = CALENDAR_DATE ( 2018, 4, 11 ) ;
#534 = EDGE_LOOP ( 'NONE', ( #890, #506 ) ) ;
#535 = AXIS2_PLACEMENT_3D ( 'NONE', #420, #71, #1084 ) ;
#536 = CARTESIAN_POINT ( 'NONE',  ( -2.499999999999999600, 39.49999999999999300, 2.500000000000000000 ) ) ;
#537 = DIRECTION ( 'NONE',  ( 1.000000000000000000, 0.0000000000000000000, 0.0000000000000000000 ) ) ;
#538 = CARTESIAN_POINT ( 'NONE',  ( 0.0000000000000000000, 35.50000000000000700, 2.500000000000000000 ) ) ;
#539 = CYLINDRICAL_SURFACE ( 'NONE', #875, 12.00000000000000200 ) ;
#540 = LINE ( 'NONE', #140, #739 ) ;
#541 = AXIS2_PLACEMENT_3D ( 'NONE', #18, #609, #706 ) ;
#542 = CARTESIAN_POINT ( 'NONE',  ( -2.999999999999999600, 23.50000000000000400, 2.500000000000000000 ) ) ;
#543 = CARTESIAN_POINT ( 'NONE',  ( -4.000000000000000000, 39.49999999999999300, 2.500000000000000000 ) ) ;
#544 = CIRCLE ( 'NONE', #372, 1.500000000000000400 ) ;
#545 = ADVANCED_FACE ( 'NONE', ( #439 ), #612, .F. ) ;
#546 = VERTEX_POINT ( 'NONE', #662 ) ;
#547 = EDGE_LOOP ( 'NONE', ( #65, #379, #633, #687 ) ) ;
#548 = DIRECTION ( 'NONE',  ( -0.0000000000000000000, -0.0000000000000000000, -1.000000000000000000 ) ) ;
#549 = LOCAL_TIME ( 15, 57, 56.00000000000000000, #344 ) ;
#550 = EDGE_CURVE ( 'NONE', #449, #532, #931, .T. ) ;
#551 = PRODUCT_DEFINITION_FORMATION_WITH_SPECIFIED_SOURCE ( 'ANY', '', #1009, .NOT_KNOWN. ) ;
#552 = LINE ( 'NONE', #752, #725 ) ;
#553 = CARTESIAN_POINT ( 'NONE',  ( -9.250000000000000000, 12.99999999999999800, 0.0000000000000000000 ) ) ;
#554 = MANIFOLD_SOLID_BREP ( 'Dodanie-wyciπgniÍcie1', #901 ) ;
#555 = DIRECTION ( 'NONE',  ( 1.000000000000000000, 0.0000000000000000000, 0.0000000000000000000 ) ) ;
#556 = CIRCLE ( 'NONE', #252, 1.500000000000000400 ) ;
#557 = CARTESIAN_POINT ( 'NONE',  ( 4.000000000000000000, 39.49999999999999300, 2.500000000000000000 ) ) ;
#558 = DIRECTION ( 'NONE',  ( 1.000000000000000000, 0.0000000000000000000, 0.0000000000000000000 ) ) ;
#559 = AXIS2_PLACEMENT_3D ( 'NONE', #590, #602, #1083 ) ;
#560 = FACE_OUTER_BOUND ( 'NONE', #675, .T. ) ;
#561 = CYLINDRICAL_SURFACE ( 'NONE', #345, 2.500000000000000000 ) ;
#562 = VERTEX_POINT ( 'NONE', #578 ) ;
#563 = ORIENTED_EDGE ( 'NONE', *, *, #56, .F. ) ;
#564 = CARTESIAN_POINT ( 'NONE',  ( -4.000000000000007100, 31.50000000000001400, 0.0000000000000000000 ) ) ;
#565 = CARTESIAN_POINT ( 'NONE',  ( -5.500000000000007100, 31.50000000000001400, 2.500000000000000000 ) ) ;
#566 = AXIS2_PLACEMENT_3D ( 'NONE', #504, #594, #248 ) ;
#567 = DIRECTION ( 'NONE',  ( -0.0000000000000000000, -0.0000000000000000000, -1.000000000000000000 ) ) ;
#568 = LINE ( 'NONE', #1039, #843 ) ;
#569 = LINE ( 'NONE', #236, #295 ) ;
#570 = CARTESIAN_POINT ( 'NONE',  ( -9.250000000000000000, 12.99999999999999800, 2.500000000000000000 ) ) ;
#571 = EDGE_CURVE ( 'NONE', #586, #669, #596, .T. ) ;
#572 = LINE ( 'NONE', #26, #442 ) ;
#573 = ORIENTED_EDGE ( 'NONE', *, *, #199, .F. ) ;
#574 = CARTESIAN_POINT ( 'NONE',  ( 12.49999999999999800, 7.999999999999998200, 0.0000000000000000000 ) ) ;
#575 = ORIENTED_EDGE ( 'NONE', *, *, #651, .F. ) ;
#576 = LOCAL_TIME ( 15, 57, 56.00000000000000000, #179 ) ;
#577 =( LENGTH_UNIT ( ) NAMED_UNIT ( * ) SI_UNIT ( .MILLI., .METRE. ) );
#578 = CARTESIAN_POINT ( 'NONE',  ( 2.499999999999999600, 39.49999999999999300, 0.0000000000000000000 ) ) ;
#579 = AXIS2_PLACEMENT_3D ( 'NONE', #301, #734, #961 ) ;
#580 = LINE ( 'NONE', #476, #149 ) ;
#581 = FACE_OUTER_BOUND ( 'NONE', #410, .T. ) ;
#582 = EDGE_CURVE ( 'NONE', #546, #480, #186, .T. ) ;
#583 = ORIENTED_EDGE ( 'NONE', *, *, #190, .F. ) ;
#584 = DIRECTION ( 'NONE',  ( -0.0000000000000000000, -0.0000000000000000000, -1.000000000000000000 ) ) ;
#585 = VERTEX_POINT ( 'NONE', #619 ) ;
#586 = VERTEX_POINT ( 'NONE', #691 ) ;
#587 = ORIENTED_EDGE ( 'NONE', *, *, #748, .T. ) ;
#588 = CARTESIAN_POINT ( 'NONE',  ( 2.999999999999999600, 23.50000000000000400, 2.500000000000000000 ) ) ;
#589 = VERTEX_POINT ( 'NONE', #275 ) ;
#590 = CARTESIAN_POINT ( 'NONE',  ( 4.000000000000007100, 31.50000000000001400, 2.500000000000000000 ) ) ;
#591 = DIRECTION ( 'NONE',  ( 0.0000000000000000000, 0.0000000000000000000, 1.000000000000000000 ) ) ;
#592 = DIRECTION ( 'NONE',  ( -0.0000000000000000000, -0.0000000000000000000, -1.000000000000000000 ) ) ;
#593 = AXIS2_PLACEMENT_3D ( 'NONE', #297, #1044, #810 ) ;
#594 = DIRECTION ( 'NONE',  ( -0.0000000000000000000, -0.0000000000000000000, -1.000000000000000000 ) ) ;
#595 = FACE_BOUND ( 'NONE', #367, .T. ) ;
#596 = LINE ( 'NONE', #78, #636 ) ;
#597 = DIRECTION ( 'NONE',  ( -1.000000000000000000, 0.0000000000000000000, 0.0000000000000000000 ) ) ;
#598 = LINE ( 'NONE', #128, #803 ) ;
#599 = VERTEX_POINT ( 'NONE', #522 ) ;
#600 = AXIS2_PLACEMENT_3D ( 'NONE', #229, #389, #302 ) ;
#601 = VERTEX_POINT ( 'NONE', #441 ) ;
#602 = DIRECTION ( 'NONE',  ( -0.0000000000000000000, -0.0000000000000000000, -1.000000000000000000 ) ) ;
#603 = ADVANCED_FACE ( 'NONE', ( #1028 ), #1021, .F. ) ;
#604 = DIRECTION ( 'NONE',  ( 0.0000000000000000000, 1.000000000000000000, 0.0000000000000000000 ) ) ;
#605 = DIRECTION ( 'NONE',  ( -0.0000000000000000000, -0.0000000000000000000, -1.000000000000000000 ) ) ;
#606 = DIRECTION ( 'NONE',  ( 1.000000000000000000, 0.0000000000000000000, -0.0000000000000000000 ) ) ;
#607 = EDGE_CURVE ( 'NONE', #450, #480, #211, .T. ) ;
#608 = ADVANCED_FACE ( 'NONE', ( #789 ), #35, .T. ) ;
#609 = DIRECTION ( 'NONE',  ( 0.0000000000000000000, 0.0000000000000000000, 1.000000000000000000 ) ) ;
#610 = CC_DESIGN_PERSON_AND_ORGANIZATION_ASSIGNMENT ( #879, #826, ( #1009 ) ) ;
#611 = CARTESIAN_POINT ( 'NONE',  ( 9.250000000000000000, 12.99999999999999800, 2.500000000000000000 ) ) ;
#612 = CYLINDRICAL_SURFACE ( 'NONE', #933, 1.500000000000000400 ) ;
#613 = LINE ( 'NONE', #570, #724 ) ;
#614 = CARTESIAN_POINT ( 'NONE',  ( 1.750000000000000400, 35.50000000000000700, 2.500000000000000000 ) ) ;
#615 = CARTESIAN_POINT ( 'NONE',  ( 5.500000000000000000, 23.49999999999998600, 0.0000000000000000000 ) ) ;
#616 = ORIENTED_EDGE ( 'NONE', *, *, #490, .T. ) ;
#617 = EDGE_CURVE ( 'NONE', #22, #285, #722, .T. ) ;
#618 = ORIENTED_EDGE ( 'NONE', *, *, #617, .T. ) ;
#619 = CARTESIAN_POINT ( 'NONE',  ( 5.500000000000000900, 39.49999999999999300, 2.500000000000000000 ) ) ;
#620 = AXIS2_PLACEMENT_3D ( 'NONE', #938, #1027, #786 ) ;
#621 = DATE_AND_TIME ( #888, #820 ) ;
#622 = CARTESIAN_POINT ( 'NONE',  ( 12.49999999999999800, 7.999999999999998200, 2.500000000000000000 ) ) ;
#623 = PLANE ( 'NONE',  #421 ) ;
#624 = ORIENTED_EDGE ( 'NONE', *, *, #666, .T. ) ;
#625 = EDGE_CURVE ( 'NONE', #887, #39, #974, .T. ) ;
#626 = LINE ( 'NONE', #470, #850 ) ;
#627 = DIRECTION ( 'NONE',  ( -0.0000000000000000000, -0.0000000000000000000, -1.000000000000000000 ) ) ;
#628 = FACE_OUTER_BOUND ( 'NONE', #713, .T. ) ;
#629 = ORIENTED_EDGE ( 'NONE', *, *, #1085, .F. ) ;
#630 = DIRECTION ( 'NONE',  ( 0.0000000000000000000, -0.0000000000000000000, -1.000000000000000000 ) ) ;
#631 = EDGE_LOOP ( 'NONE', ( #460, #716, #154, #142 ) ) ;
#632 = EDGE_CURVE ( 'NONE', #269, #495, #159, .T. ) ;
#633 = ORIENTED_EDGE ( 'NONE', *, *, #1085, .T. ) ;
#634 = CARTESIAN_POINT ( 'NONE',  ( 12.50000000000000000, -1.530808498934191500E-015, 2.500000000000000000 ) ) ;
#635 = CARTESIAN_POINT ( 'NONE',  ( -1.750000000000000400, 35.50000000000000700, 2.500000000000000000 ) ) ;
#636 = VECTOR ( 'NONE', #604, 1000.000000000000000 ) ;
#637 = AXIS2_PLACEMENT_3D ( 'NONE', #287, #1060, #1053 ) ;
#638 = CARTESIAN_POINT ( 'NONE',  ( 0.0000000000000000000, 35.50000000000000700, 2.500000000000000000 ) ) ;
#639 = CARTESIAN_POINT ( 'NONE',  ( -5.500000000000000900, 39.49999999999999300, 2.500000000000000000 ) ) ;
#640 = LINE ( 'NONE', #131, #406 ) ;
#641 = ORIENTED_EDGE ( 'NONE', *, *, #438, .F. ) ;
#642 = ORIENTED_EDGE ( 'NONE', *, *, #86, .T. ) ;
#643 = DIRECTION ( 'NONE',  ( 1.000000000000000000, 0.0000000000000000000, 0.0000000000000000000 ) ) ;
#644 = EDGE_LOOP ( 'NONE', ( #846, #240, #496, #458 ) ) ;
#645 = EDGE_CURVE ( 'NONE', #157, #192, #995, .T. ) ;
#646 = CARTESIAN_POINT ( 'NONE',  ( -1.750000000000000400, 35.50000000000000700, 2.500000000000000000 ) ) ;
#647 = ORIENTED_EDGE ( 'NONE', *, *, #918, .F. ) ;
#648 = CARTESIAN_POINT ( 'NONE',  ( 2.999999999999999600, 23.50000000000000400, 2.500000000000000000 ) ) ;
#649 = DIRECTION ( 'NONE',  ( 0.0000000000000000000, 0.0000000000000000000, 1.000000000000000000 ) ) ;
#650 = FACE_OUTER_BOUND ( 'NONE', #320, .T. ) ;
#651 = EDGE_CURVE ( 'NONE', #887, #459, #375, .T. ) ;
#652 = CC_DESIGN_APPROVAL ( #83, ( #964 ) ) ;
#653 = LINE ( 'NONE', #611, #417 ) ;
#654 = CARTESIAN_POINT ( 'NONE',  ( -12.49999999999999800, 7.999999999999998200, 2.500000000000000000 ) ) ;
#655 = CARTESIAN_POINT ( 'NONE',  ( 0.0000000000000000000, 35.50000000000000700, 2.500000000000000000 ) ) ;
#656 = ORIENTED_EDGE ( 'NONE', *, *, #958, .T. ) ;
#657 = ORIENTED_EDGE ( 'NONE', *, *, #425, .T. ) ;
#658 = DATE_TIME_ROLE ( 'classification_date' ) ;
#659 = ORIENTED_EDGE ( 'NONE', *, *, #607, .F. ) ;
#660 = DIRECTION ( 'NONE',  ( -2.168404344971008900E-016, -1.000000000000000000, -0.0000000000000000000 ) ) ;
#661 = AXIS2_PLACEMENT_3D ( 'NONE', #542, #45, #456 ) ;
#662 = CARTESIAN_POINT ( 'NONE',  ( 5.500000000000007100, 31.50000000000001400, 2.500000000000000000 ) ) ;
#663 = CIRCLE ( 'NONE', #317, 2.500000000000000000 ) ;
#664 = APPROVAL_ROLE ( '' ) ;
#665 = PERSON_AND_ORGANIZATION ( #1087, #801 ) ;
#666 = EDGE_CURVE ( 'NONE', #22, #730, #489, .T. ) ;
#667 = CC_DESIGN_DATE_AND_TIME_ASSIGNMENT ( #1023, #745, ( #25 ) ) ;
#668 = VECTOR ( 'NONE', #775, 1000.000000000000000 ) ;
#669 = VERTEX_POINT ( 'NONE', #435 ) ;
#670 = ORIENTED_EDGE ( 'NONE', *, *, #607, .T. ) ;
#671 = VERTEX_POINT ( 'NONE', #247 ) ;
#672 = ORIENTED_EDGE ( 'NONE', *, *, #306, .F. ) ;
#673 = EDGE_CURVE ( 'NONE', #586, #954, #328, .T. ) ;
#674 = DIRECTION ( 'NONE',  ( -0.0000000000000000000, -0.0000000000000000000, -1.000000000000000000 ) ) ;
#675 = EDGE_LOOP ( 'NONE', ( #529, #384, #937, #624 ) ) ;
#676 = AXIS2_PLACEMENT_3D ( 'NONE', #497, #97, #928 ) ;
#677 = DIRECTION ( 'NONE',  ( -1.000000000000000000, 0.0000000000000000000, 0.0000000000000000000 ) ) ;
#678 = VECTOR ( 'NONE', #461, 1000.000000000000000 ) ;
#679 = CARTESIAN_POINT ( 'NONE',  ( -5.500000000000000000, 23.49999999999998600, 0.0000000000000000000 ) ) ;
#680 = AXIS2_PLACEMENT_3D ( 'NONE', #272, #440, #851 ) ;
#681 = LINE ( 'NONE', #104, #151 ) ;
#682 = PLANE ( 'NONE',  #125 ) ;
#683 = CARTESIAN_POINT ( 'NONE',  ( 2.500000000000006700, 31.50000000000001400, 2.500000000000000000 ) ) ;
#684 = ORIENTED_EDGE ( 'NONE', *, *, #729, .F. ) ;
#685 = ORIENTED_EDGE ( 'NONE', *, *, #314, .T. ) ;
#686 = VERTEX_POINT ( 'NONE', #1004 ) ;
#687 = ORIENTED_EDGE ( 'NONE', *, *, #335, .F. ) ;
#688 = EDGE_CURVE ( 'NONE', #797, #703, #1016, .T. ) ;
#689 = DIRECTION ( 'NONE',  ( -0.0000000000000000000, -0.0000000000000000000, -1.000000000000000000 ) ) ;
#690 = DIRECTION ( 'NONE',  ( 0.0000000000000000000, 0.0000000000000000000, 1.000000000000000000 ) ) ;
#691 = CARTESIAN_POINT ( 'NONE',  ( 5.500000000000000000, 7.500000000000016900, 2.500000000000000000 ) ) ;
#692 = VECTOR ( 'NONE', #710, 1000.000000000000000 ) ;
#693 = CARTESIAN_POINT ( 'NONE',  ( -2.999999999999981800, 26.00000000000000400, 2.500000000000000000 ) ) ;
#694 = DIRECTION ( 'NONE',  ( -0.0000000000000000000, -1.000000000000000000, -0.0000000000000000000 ) ) ;
#695 = ADVANCED_FACE ( 'NONE', ( #84 ), #682, .F. ) ;
#696 = FACE_BOUND ( 'NONE', #143, .T. ) ;
#697 = VECTOR ( 'NONE', #175, 1000.000000000000000 ) ;
#698 = AXIS2_PLACEMENT_3D ( 'NONE', #130, #1051, #386 ) ;
#699 = EDGE_LOOP ( 'NONE', ( #28, #873, #434, #518 ) ) ;
#700 = DIRECTION ( 'NONE',  ( -0.0000000000000000000, -0.0000000000000000000, -1.000000000000000000 ) ) ;
#701 = ADVANCED_FACE ( 'NONE', ( #336 ), #773, .F. ) ;
#702 = DIRECTION ( 'NONE',  ( -0.0000000000000000000, -0.0000000000000000000, -1.000000000000000000 ) ) ;
#703 = VERTEX_POINT ( 'NONE', #920 ) ;
#704 = CARTESIAN_POINT ( 'NONE',  ( 4.000000000000000000, 39.49999999999999300, 0.0000000000000000000 ) ) ;
#705 = EDGE_CURVE ( 'NONE', #1032, #601, #265, .T. ) ;
#706 = DIRECTION ( 'NONE',  ( 1.000000000000000000, 0.0000000000000000000, 0.0000000000000000000 ) ) ;
#707 = CC_DESIGN_SECURITY_CLASSIFICATION ( #964, ( #551 ) ) ;
#708 = DIRECTION ( 'NONE',  ( -0.8384436163006371300, -0.5449883505954142800, 0.0000000000000000000 ) ) ;
#709 = VECTOR ( 'NONE', #184, 1000.000000000000000 ) ;
#710 = DIRECTION ( 'NONE',  ( -0.0000000000000000000, -0.0000000000000000000, -1.000000000000000000 ) ) ;
#711 = ORIENTED_EDGE ( 'NONE', *, *, #582, .F. ) ;
#712 = EDGE_LOOP ( 'NONE', ( #484, #57, #616, #771 ) ) ;
#713 = EDGE_LOOP ( 'NONE', ( #371, #400, #659, #756 ) ) ;
#714 = ADVANCED_FACE ( 'NONE', ( #361 ), #512, .F. ) ;
#715 = APPROVAL_DATE_TIME ( #196, #83 ) ;
#716 = ORIENTED_EDGE ( 'NONE', *, *, #913, .F. ) ;
#717 = CARTESIAN_POINT ( 'NONE',  ( 2.999999999999981800, 4.999999999999999100, 2.500000000000000000 ) ) ;
#718 = EDGE_LOOP ( 'NONE', ( #915, #259, #781, #231 ) ) ;
#719 = ADVANCED_FACE ( 'NONE', ( #1077 ), #133, .F. ) ;
#720 = AXIS2_PLACEMENT_3D ( 'NONE', #557, #567, #58 ) ;
#721 = FACE_BOUND ( 'NONE', #534, .T. ) ;
#722 = LINE ( 'NONE', #129, #173 ) ;
#723 = CARTESIAN_POINT ( 'NONE',  ( 0.0000000000000000000, 35.50000000000000700, 2.500000000000000000 ) ) ;
#724 = VECTOR ( 'NONE', #482, 1000.000000000000000 ) ;
#725 = VECTOR ( 'NONE', #474, 1000.000000000000000 ) ;
#726 = CARTESIAN_POINT ( 'NONE',  ( -9.250000000000000000, 12.99999999999999800, 2.500000000000000000 ) ) ;
#727 = DIRECTION ( 'NONE',  ( -0.0000000000000000000, -0.0000000000000000000, -1.000000000000000000 ) ) ;
#728 = VERTEX_POINT ( 'NONE', #679 ) ;
#729 = EDGE_CURVE ( 'NONE', #397, #585, #556, .T. ) ;
#730 = VERTEX_POINT ( 'NONE', #271 ) ;
#731 = ORIENTED_EDGE ( 'NONE', *, *, #210, .F. ) ;
#732 = CC_DESIGN_APPROVAL ( #118, ( #551 ) ) ;
#733 = DIRECTION ( 'NONE',  ( -0.0000000000000000000, -0.0000000000000000000, -1.000000000000000000 ) ) ;
#734 = DIRECTION ( 'NONE',  ( -0.0000000000000000000, -0.0000000000000000000, -1.000000000000000000 ) ) ;
#735 = PRODUCT_DEFINITION_SHAPE ( 'NONE', 'NONE',  #25 ) ;
#736 = ADVANCED_FACE ( 'NONE', ( #108 ), #764, .F. ) ;
#737 = ORIENTED_EDGE ( 'NONE', *, *, #900, .F. ) ;
#738 = DIRECTION ( 'NONE',  ( 0.0000000000000000000, 1.000000000000000000, -0.0000000000000000000 ) ) ;
#739 = VECTOR ( 'NONE', #324, 1000.000000000000100 ) ;
#740 = DIRECTION ( 'NONE',  ( 1.000000000000000000, -0.0000000000000000000, -0.0000000000000000000 ) ) ;
#741 = AXIS2_PLACEMENT_3D ( 'NONE', #350, #690, #848 ) ;
#742 = DIRECTION ( 'NONE',  ( -1.000000000000000000, 0.0000000000000000000, 0.0000000000000000000 ) ) ;
#743 = CYLINDRICAL_SURFACE ( 'NONE', #761, 2.500000000000000000 ) ;
#744 = EDGE_LOOP ( 'NONE', ( #1010, #819, #1034, #409 ) ) ;
#745 = DATE_TIME_ROLE ( 'creation_date' ) ;
#746 = ORIENTED_EDGE ( 'NONE', *, *, #280, .F. ) ;
#747 = PERSON_AND_ORGANIZATION ( #1087, #801 ) ;
#748 = EDGE_CURVE ( 'NONE', #1020, #483, #1055, .T. ) ;
#749 = ORIENTED_EDGE ( 'NONE', *, *, #867, .F. ) ;
#750 = DIRECTION ( 'NONE',  ( -0.0000000000000000000, -0.0000000000000000000, -1.000000000000000000 ) ) ;
#751 = CYLINDRICAL_SURFACE ( 'NONE', #221, 1.500000000000000400 ) ;
#752 = CARTESIAN_POINT ( 'NONE',  ( -12.50000000000000000, -1.530808498934191500E-015, 2.500000000000000000 ) ) ;
#753 = EDGE_CURVE ( 'NONE', #343, #954, #754, .T. ) ;
#754 = CIRCLE ( 'NONE', #89, 2.500000000000000000 ) ;
#755 = MECHANICAL_CONTEXT ( 'NONE', #405, 'mechanical' ) ;
#756 = ORIENTED_EDGE ( 'NONE', *, *, #62, .F. ) ;
#757 = ORIENTED_EDGE ( 'NONE', *, *, #490, .F. ) ;
#758 = EDGE_CURVE ( 'NONE', #53, #730, #49, .T. ) ;
#759 = ORIENTED_EDGE ( 'NONE', *, *, #205, .F. ) ;
#760 = ORIENTED_EDGE ( 'NONE', *, *, #306, .T. ) ;
#761 = AXIS2_PLACEMENT_3D ( 'NONE', #225, #816, #1063 ) ;
#762 = DIRECTION ( 'NONE',  ( 0.0000000000000000000, 0.0000000000000000000, 1.000000000000000000 ) ) ;
#763 = DIRECTION ( 'NONE',  ( -1.000000000000000000, 0.0000000000000000000, 0.0000000000000000000 ) ) ;
#764 = CYLINDRICAL_SURFACE ( 'NONE', #620, 1.750000000000000400 ) ;
#765 = DIRECTION ( 'NONE',  ( -1.000000000000000000, -0.0000000000000000000, -0.0000000000000000000 ) ) ;
#766 = EDGE_CURVE ( 'NONE', #459, #80, #910, .T. ) ;
#767 = CARTESIAN_POINT ( 'NONE',  ( -4.000000000000007100, 31.50000000000001400, 2.500000000000000000 ) ) ;
#768 = FACE_OUTER_BOUND ( 'NONE', #1058, .T. ) ;
#769 = ORIENTED_EDGE ( 'NONE', *, *, #508, .F. ) ;
#770 = ORIENTED_EDGE ( 'NONE', *, *, #753, .F. ) ;
#771 = ORIENTED_EDGE ( 'NONE', *, *, #632, .F. ) ;
#772 = EDGE_CURVE ( 'NONE', #730, #343, #466, .T. ) ;
#773 = PLANE ( 'NONE',  #812 ) ;
#774 = FACE_OUTER_BOUND ( 'NONE', #903, .T. ) ;
#775 = DIRECTION ( 'NONE',  ( -0.0000000000000000000, -0.0000000000000000000, -1.000000000000000000 ) ) ;
#776 = LINE ( 'NONE', #148, #391 ) ;
#777 = AXIS2_PLACEMENT_3D ( 'NONE', #239, #1075, #327 ) ;
#778 = FACE_BOUND ( 'NONE', #162, .T. ) ;
#779 = CARTESIAN_POINT ( 'NONE',  ( 9.250000000000000000, 12.99999999999999800, 2.500000000000000000 ) ) ;
#780 = EDGE_LOOP ( 'NONE', ( #575, #505 ) ) ;
#781 = ORIENTED_EDGE ( 'NONE', *, *, #260, .F. ) ;
#782 = CALENDAR_DATE ( 2018, 4, 11 ) ;
#783 = ORIENTED_EDGE ( 'NONE', *, *, #625, .F. ) ;
#784 = DIRECTION ( 'NONE',  ( 0.5449883505954141700, -0.8384436163006370200, 0.0000000000000000000 ) ) ;
#785 = AXIS2_PLACEMENT_3D ( 'NONE', #704, #110, #195 ) ;
#786 = DIRECTION ( 'NONE',  ( -1.000000000000000000, 0.0000000000000000000, 0.0000000000000000000 ) ) ;
#787 = CC_DESIGN_APPROVAL ( #493, ( #25 ) ) ;
#788 = DIRECTION ( 'NONE',  ( 0.0000000000000000000, 1.000000000000000000, 0.0000000000000000000 ) ) ;
#789 = FACE_OUTER_BOUND ( 'NONE', #334, .T. ) ;
#790 = CIRCLE ( 'NONE', #942, 1.500000000000000400 ) ;
#791 = EDGE_CURVE ( 'NONE', #382, #546, #307, .T. ) ;
#792 = EDGE_LOOP ( 'NONE', ( #821, #980 ) ) ;
#793 = AXIS2_PLACEMENT_3D ( 'NONE', #93, #838, #337 ) ;
#794 = CARTESIAN_POINT ( 'NONE',  ( 0.0000000000000000000, 35.50000000000000700, 2.500000000000000000 ) ) ;
#795 = EDGE_LOOP ( 'NONE', ( #366, #839, #885, #37 ) ) ;
#796 = DIRECTION ( 'NONE',  ( 0.5449883505954141700, 0.8384436163006370200, 0.0000000000000000000 ) ) ;
#797 = VERTEX_POINT ( 'NONE', #520 ) ;
#798 = CARTESIAN_POINT ( 'NONE',  ( 12.49999999999999800, 7.999999999999998200, 2.500000000000000000 ) ) ;
#799 = DIRECTION ( 'NONE',  ( 0.0000000000000000000, -1.000000000000000000, 0.0000000000000000000 ) ) ;
#800 = LINE ( 'NONE', #876, #893 ) ;
#801 = ORGANIZATION ( 'UNSPECIFIED', 'UNSPECIFIED', '' ) ;
#802 = DIRECTION ( 'NONE',  ( -0.0000000000000000000, -0.0000000000000000000, -1.000000000000000000 ) ) ;
#803 = VECTOR ( 'NONE', #727, 1000.000000000000000 ) ;
#804 = CIRCLE ( 'NONE', #680, 12.00000000000000200 ) ;
#805 = ORIENTED_EDGE ( 'NONE', *, *, #82, .T. ) ;
#806 = EDGE_LOOP ( 'NONE', ( #492, #430, #618, #841 ) ) ;
#807 = CARTESIAN_POINT ( 'NONE',  ( 5.500000000000000000, 23.49999999999998600, 2.500000000000000000 ) ) ;
#808 = ADVANCED_FACE ( 'NONE', ( #16 ), #856, .F. ) ;
#809 = CARTESIAN_POINT ( 'NONE',  ( -12.00000000000000200, 35.50000000000000700, 2.500000000000000000 ) ) ;
#810 = DIRECTION ( 'NONE',  ( -1.000000000000000000, 0.0000000000000000000, 0.0000000000000000000 ) ) ;
#811 = EDGE_CURVE ( 'NONE', #459, #887, #1, .T. ) ;
#812 = AXIS2_PLACEMENT_3D ( 'NONE', #779, #88, #1015 ) ;
#813 = VECTOR ( 'NONE', #261, 1000.000000000000000 ) ;
#814 = DIRECTION ( 'NONE',  ( -0.0000000000000000000, -0.0000000000000000000, -1.000000000000000000 ) ) ;
#815 = ORIENTED_EDGE ( 'NONE', *, *, #477, .F. ) ;
#816 = DIRECTION ( 'NONE',  ( -0.0000000000000000000, -0.0000000000000000000, -1.000000000000000000 ) ) ;
#817 = ORIENTED_EDGE ( 'NONE', *, *, #753, .T. ) ;
#818 = EDGE_CURVE ( 'NONE', #346, #703, #326, .T. ) ;
#819 = ORIENTED_EDGE ( 'NONE', *, *, #150, .F. ) ;
#820 = LOCAL_TIME ( 15, 57, 56.00000000000000000, #356 ) ;
#821 = ORIENTED_EDGE ( 'NONE', *, *, #1074, .T. ) ;
#822 = EDGE_LOOP ( 'NONE', ( #11, #1046, #1036, #305 ) ) ;
#823 = ADVANCED_FACE ( 'NONE', ( #426 ), #751, .F. ) ;
#824 = DIRECTION ( 'NONE',  ( 0.0000000000000000000, 0.0000000000000000000, 1.000000000000000000 ) ) ;
#825 = FACE_OUTER_BOUND ( 'NONE', #699, .T. ) ;
#826 = PERSON_AND_ORGANIZATION_ROLE ( 'design_owner' ) ;
#827 = VECTOR ( 'NONE', #993, 1000.000000000000000 ) ;
#828 = DIRECTION ( 'NONE',  ( -1.000000000000000000, 0.0000000000000000000, 0.0000000000000000000 ) ) ;
#829 = CARTESIAN_POINT ( 'NONE',  ( 1.750000000000000400, 35.50000000000000700, 2.500000000000000000 ) ) ;
#830 = LINE ( 'NONE', #634, #329 ) ;
#831 = VERTEX_POINT ( 'NONE', #368 ) ;
#832 = EDGE_LOOP ( 'NONE', ( #759, #355, #66, #177 ) ) ;
#833 = AXIS2_PLACEMENT_3D ( 'NONE', #193, #849, #353 ) ;
#834 = SECURITY_CLASSIFICATION_LEVEL ( 'unclassified' ) ;
#835 = AXIS2_PLACEMENT_3D ( 'NONE', #527, #708, #784 ) ;
#836 = VECTOR ( 'NONE', #702, 1000.000000000000000 ) ;
#837 = CC_DESIGN_PERSON_AND_ORGANIZATION_ASSIGNMENT ( #385, #69, ( #25 ) ) ;
#838 = DIRECTION ( 'NONE',  ( -0.0000000000000000000, -0.0000000000000000000, -1.000000000000000000 ) ) ;
#839 = ORIENTED_EDGE ( 'NONE', *, *, #962, .F. ) ;
#840 = EDGE_CURVE ( 'NONE', #1071, #872, #202, .T. ) ;
#841 = ORIENTED_EDGE ( 'NONE', *, *, #1013, .T. ) ;
#842 = CARTESIAN_POINT ( 'NONE',  ( 0.0000000000000000000, 35.50000000000000700, 0.0000000000000000000 ) ) ;
#843 = VECTOR ( 'NONE', #627, 1000.000000000000000 ) ;
#844 = EDGE_CURVE ( 'NONE', #243, #532, #919, .T. ) ;
#845 = VECTOR ( 'NONE', #457, 1000.000000000000000 ) ;
#846 = ORIENTED_EDGE ( 'NONE', *, *, #250, .F. ) ;
#847 = ORIENTED_EDGE ( 'NONE', *, *, #56, .T. ) ;
#848 = DIRECTION ( 'NONE',  ( 1.000000000000000000, 0.0000000000000000000, 0.0000000000000000000 ) ) ;
#849 = DIRECTION ( 'NONE',  ( 0.0000000000000000000, 0.0000000000000000000, 1.000000000000000000 ) ) ;
#850 = VECTOR ( 'NONE', #127, 1000.000000000000000 ) ;
#851 = DIRECTION ( 'NONE',  ( 1.000000000000000000, 0.0000000000000000000, 0.0000000000000000000 ) ) ;
#852 = FACE_OUTER_BOUND ( 'NONE', #631, .T. ) ;
#853 = EDGE_CURVE ( 'NONE', #546, #382, #488, .T. ) ;
#854 = AXIS2_PLACEMENT_3D ( 'NONE', #134, #814, #898 ) ;
#855 = LINE ( 'NONE', #188, #363 ) ;
#856 = PLANE ( 'NONE',  #276 ) ;
#857 = ORIENTED_EDGE ( 'NONE', *, *, #766, .T. ) ;
#858 = PERSON_AND_ORGANIZATION ( #1087, #801 ) ;
#859 = ORIENTED_EDGE ( 'NONE', *, *, #900, .T. ) ;
#860 = CARTESIAN_POINT ( 'NONE',  ( 12.50000000000000000, -1.530808498934191500E-015, 2.500000000000000000 ) ) ;
#861 = DIRECTION ( 'NONE',  ( 0.0000000000000000000, 0.0000000000000000000, 1.000000000000000000 ) ) ;
#862 = EDGE_CURVE ( 'NONE', #285, #586, #509, .T. ) ;
#863 = CARTESIAN_POINT ( 'NONE',  ( -9.250000000000000000, 12.99999999999999800, 0.0000000000000000000 ) ) ;
#864 = CC_DESIGN_PERSON_AND_ORGANIZATION_ASSIGNMENT ( #747, #146, ( #964 ) ) ;
#865 = VECTOR ( 'NONE', #866, 1000.000000000000100 ) ;
#866 = DIRECTION ( 'NONE',  ( -0.5449883505954141700, 0.8384436163006370200, 0.0000000000000000000 ) ) ;
#867 = EDGE_CURVE ( 'NONE', #585, #191, #454, .T. ) ;
#868 = ORIENTED_EDGE ( 'NONE', *, *, #273, .T. ) ;
#869 = DIRECTION ( 'NONE',  ( 1.000000000000000000, 0.0000000000000000000, 0.0000000000000000000 ) ) ;
#870 = DIRECTION ( 'NONE',  ( -0.0000000000000000000, -0.0000000000000000000, -1.000000000000000000 ) ) ;
#871 = ORIENTED_EDGE ( 'NONE', *, *, #226, .F. ) ;
#872 = VERTEX_POINT ( 'NONE', #553 ) ;
#873 = ORIENTED_EDGE ( 'NONE', *, *, #867, .T. ) ;
#874 = CARTESIAN_POINT ( 'NONE',  ( -12.50000000000000000, -1.530808498934191500E-015, 2.500000000000000000 ) ) ;
#875 = AXIS2_PLACEMENT_3D ( 'NONE', #638, #750, #828 ) ;
#876 = CARTESIAN_POINT ( 'NONE',  ( 12.50000000000000000, -1.530808498934191500E-015, 2.500000000000000000 ) ) ;
#877 = CARTESIAN_POINT ( 'NONE',  ( 4.000000000000000000, 39.49999999999999300, 2.500000000000000000 ) ) ;
#878 = VECTOR ( 'NONE', #60, 1000.000000000000000 ) ;
#879 = PERSON_AND_ORGANIZATION ( #1087, #801 ) ;
#880 = DIRECTION ( 'NONE',  ( 0.0000000000000000000, 0.0000000000000000000, 1.000000000000000000 ) ) ;
#881 = CARTESIAN_POINT ( 'NONE',  ( 9.250000000000000000, 12.99999999999999800, 0.0000000000000000000 ) ) ;
#882 = FACE_BOUND ( 'NONE', #40, .T. ) ;
#883 = AXIS2_PLACEMENT_3D ( 'NONE', #794, #861, #369 ) ;
#884 = FACE_OUTER_BOUND ( 'NONE', #67, .T. ) ;
#885 = ORIENTED_EDGE ( 'NONE', *, *, #508, .T. ) ;
#886 = PRODUCT_RELATED_PRODUCT_CATEGORY ( 'detail', '', ( #1009 ) ) ;
#887 = VERTEX_POINT ( 'NONE', #635 ) ;
#888 = CALENDAR_DATE ( 2018, 4, 11 ) ;
#889 = EDGE_LOOP ( 'NONE', ( #983, #432, #74, #6, #922, #241, #657, #330, #1049, #656 ) ) ;
#890 = ORIENTED_EDGE ( 'NONE', *, *, #402, .T. ) ;
#891 = CARTESIAN_POINT ( 'NONE',  ( -2.999999999999999600, 7.500000000000000000, 2.500000000000000000 ) ) ;
#892 = EDGE_CURVE ( 'NONE', #243, #153, #249, .T. ) ;
#893 = VECTOR ( 'NONE', #283, 1000.000000000000000 ) ;
#894 = DIRECTION ( 'NONE',  ( 0.0000000000000000000, 0.0000000000000000000, 1.000000000000000000 ) ) ;
#895 = ADVANCED_FACE ( 'NONE', ( #985 ), #475, .T. ) ;
#896 = PERSON_AND_ORGANIZATION_ROLE ( 'creator' ) ;
#897 = DIRECTION ( 'NONE',  ( 1.000000000000000000, 0.0000000000000000000, 0.0000000000000000000 ) ) ;
#898 = DIRECTION ( 'NONE',  ( -1.000000000000000000, 0.0000000000000000000, 0.0000000000000000000 ) ) ;
#899 = ORIENTED_EDGE ( 'NONE', *, *, #617, .F. ) ;
#900 = EDGE_CURVE ( 'NONE', #281, #589, #626, .T. ) ;
#901 = CLOSED_SHELL ( 'NONE', ( #1026, #214, #545, #44, #736, #895, #1019, #183, #1030, #808, #101, #701, #289, #932, #603, #311, #695, #64, #608, #513, #940, #23, #437, #398, #358, #714, #443, #823, #719, #262 ) ) ;
#902 = APPROVAL_STATUS ( 'not_yet_approved' ) ;
#903 = EDGE_LOOP ( 'NONE', ( #176, #1022, #815, #563, #331, #629, #76, #1072, #737, #647 ) ) ;
#904 = CARTESIAN_POINT ( 'NONE',  ( -9.250000000000000000, 27.85555757428966900, 0.0000000000000000000 ) ) ;
#905 = ORIENTED_EDGE ( 'NONE', *, *, #455, .F. ) ;
#906 = CARTESIAN_POINT ( 'NONE',  ( 2.999999999999981800, 4.999999999999997300, 0.0000000000000000000 ) ) ;
#907 = FACE_BOUND ( 'NONE', #413, .T. ) ;
#908 = CC_DESIGN_PERSON_AND_ORGANIZATION_ASSIGNMENT ( #955, #896, ( #551 ) ) ;
#909 = DIRECTION ( 'NONE',  ( 1.000000000000000000, 0.0000000000000000000, 0.0000000000000000000 ) ) ;
#910 = LINE ( 'NONE', #614, #692 ) ;
#911 = CARTESIAN_POINT ( 'NONE',  ( -2.999999999999981800, 26.00000000000000400, 0.0000000000000000000 ) ) ;
#912 = VECTOR ( 'NONE', #359, 1000.000000000000000 ) ;
#913 = EDGE_CURVE ( 'NONE', #669, #206, #227, .T. ) ;
#914 = ORIENTED_EDGE ( 'NONE', *, *, #425, .F. ) ;
#915 = ORIENTED_EDGE ( 'NONE', *, *, #99, .T. ) ;
#916 = ORIENTED_EDGE ( 'NONE', *, *, #94, .F. ) ;
#917 = CARTESIAN_POINT ( 'NONE',  ( -1.750000000000000400, 35.50000000000000700, 0.0000000000000000000 ) ) ;
#918 = EDGE_CURVE ( 'NONE', #483, #281, #47, .T. ) ;
#919 = LINE ( 'NONE', #693, #709 ) ;
#920 = CARTESIAN_POINT ( 'NONE',  ( -5.500000000000007100, 31.50000000000001400, 0.0000000000000000000 ) ) ;
#921 = AXIS2_PLACEMENT_3D ( 'NONE', #975, #139, #909 ) ;
#922 = ORIENTED_EDGE ( 'NONE', *, *, #388, .T. ) ;
#923 = CARTESIAN_POINT ( 'NONE',  ( -9.250000000000000000, 27.85555757428966900, 2.500000000000000000 ) ) ;
#924 = VERTEX_POINT ( 'NONE', #120 ) ;
#925 = ORIENTED_EDGE ( 'NONE', *, *, #1074, .F. ) ;
#926 = EDGE_CURVE ( 'NONE', #599, #601, #800, .T. ) ;
#927 = ORIENTED_EDGE ( 'NONE', *, *, #645, .T. ) ;
#928 = DIRECTION ( 'NONE',  ( 1.000000000000000000, 0.0000000000000000000, 0.0000000000000000000 ) ) ;
#929 = DIRECTION ( 'NONE',  ( -0.0000000000000000000, -0.0000000000000000000, -1.000000000000000000 ) ) ;
#930 = FACE_OUTER_BOUND ( 'NONE', #547, .T. ) ;
#931 = LINE ( 'NONE', #415, #827 ) ;
#932 = ADVANCED_FACE ( 'NONE', ( #650 ), #966, .F. ) ;
#933 = AXIS2_PLACEMENT_3D ( 'NONE', #1002, #87, #1076 ) ;
#934 = DIRECTION ( 'NONE',  ( 0.0000000000000000000, 0.0000000000000000000, 1.000000000000000000 ) ) ;
#935 = CARTESIAN_POINT ( 'NONE',  ( 9.250000000000000000, 12.99999999999999800, 2.500000000000000000 ) ) ;
#936 = VECTOR ( 'NONE', #981, 1000.000000000000000 ) ;
#937 = ORIENTED_EDGE ( 'NONE', *, *, #455, .T. ) ;
#938 = CARTESIAN_POINT ( 'NONE',  ( 0.0000000000000000000, 35.50000000000000700, 2.500000000000000000 ) ) ;
#939 = ORIENTED_EDGE ( 'NONE', *, *, #862, .T. ) ;
#940 = ADVANCED_FACE ( 'NONE', ( #1067 ), #1043, .T. ) ;
#941 = PERSON_AND_ORGANIZATION ( #1087, #801 ) ;
#942 = AXIS2_PLACEMENT_3D ( 'NONE', #531, #198, #279 ) ;
#943 = ORIENTED_EDGE ( 'NONE', *, *, #5, .F. ) ;
#944 = ORIENTED_EDGE ( 'NONE', *, *, #571, .T. ) ;
#945 = CARTESIAN_POINT ( 'NONE',  ( 5.500000000000000900, 39.49999999999999300, 2.500000000000000000 ) ) ;
#946 = CARTESIAN_POINT ( 'NONE',  ( -4.000000000000000000, 39.49999999999999300, 2.500000000000000000 ) ) ;
#947 = CARTESIAN_POINT ( 'NONE',  ( -4.000000000000007100, 31.50000000000001400, 2.500000000000000000 ) ) ;
#948 = DIRECTION ( 'NONE',  ( -0.0000000000000000000, -0.0000000000000000000, -1.000000000000000000 ) ) ;
#949 = VECTOR ( 'NONE', #689, 1000.000000000000000 ) ;
#950 = AXIS2_PLACEMENT_3D ( 'NONE', #429, #1011, #996 ) ;
#951 = DIRECTION ( 'NONE',  ( -0.0000000000000000000, -1.000000000000000000, -0.0000000000000000000 ) ) ;
#952 = VERTEX_POINT ( 'NONE', #809 ) ;
#953 = EDGE_LOOP ( 'NONE', ( #859, #672, #583, #1080 ) ) ;
#954 = VERTEX_POINT ( 'NONE', #54 ) ;
#955 = PERSON_AND_ORGANIZATION ( #1087, #801 ) ;
#956 = CARTESIAN_POINT ( 'NONE',  ( -2.999999999999981800, 26.00000000000000400, 2.500000000000000000 ) ) ;
#957 = DIRECTION ( 'NONE',  ( -0.0000000000000000000, -0.0000000000000000000, -1.000000000000000000 ) ) ;
#958 = EDGE_CURVE ( 'NONE', #342, #599, #68, .T. ) ;
#959 = FACE_BOUND ( 'NONE', #419, .T. ) ;
#960 = CYLINDRICAL_SURFACE ( 'NONE', #161, 2.499999999999999600 ) ;
#961 = DIRECTION ( 'NONE',  ( -1.000000000000000000, 0.0000000000000000000, 0.0000000000000000000 ) ) ;
#962 = EDGE_CURVE ( 'NONE', #686, #449, #568, .T. ) ;
#963 = CYLINDRICAL_SURFACE ( 'NONE', #593, 1.500000000000000400 ) ;
#964 = SECURITY_CLASSIFICATION ( '', '', #834 ) ;
#965 = CIRCLE ( 'NONE', #332, 2.500000000000000000 ) ;
#966 = PLANE ( 'NONE',  #144 ) ;
#967 = DIRECTION ( 'NONE',  ( 0.0000000000000000000, 0.0000000000000000000, 1.000000000000000000 ) ) ;
#968 = ORIENTED_EDGE ( 'NONE', *, *, #388, .F. ) ;
#969 = DESIGN_CONTEXT ( 'detailed design', #75, 'design' ) ;
#970 = PERSON_AND_ORGANIZATION ( #1087, #801 ) ;
#971 = DIRECTION ( 'NONE',  ( 1.000000000000000000, 0.0000000000000000000, 0.0000000000000000000 ) ) ;
#972 = EDGE_CURVE ( 'NONE', #39, #80, #294, .T. ) ;
#973 = DIRECTION ( 'NONE',  ( -1.000000000000000000, 0.0000000000000000000, 0.0000000000000000000 ) ) ;
#974 = LINE ( 'NONE', #646, #987 ) ;
#975 = CARTESIAN_POINT ( 'NONE',  ( 0.0000000000000000000, 0.0000000000000000000, 0.0000000000000000000 ) ) ;
#976 = DIRECTION ( 'NONE',  ( 1.000000000000000000, 0.0000000000000000000, 0.0000000000000000000 ) ) ;
#977 = FACE_OUTER_BOUND ( 'NONE', #806, .T. ) ;
#978 = EDGE_CURVE ( 'NONE', #304, #53, #170, .T. ) ;
#979 = LINE ( 'NONE', #511, #668 ) ;
#980 = ORIENTED_EDGE ( 'NONE', *, *, #688, .T. ) ;
#981 = DIRECTION ( 'NONE',  ( -0.0000000000000000000, -0.0000000000000000000, -1.000000000000000000 ) ) ;
#982 = APPROVAL_PERSON_ORGANIZATION ( #858, #118, #411 ) ;
#983 = ORIENTED_EDGE ( 'NONE', *, *, #260, .T. ) ;
#984 = CARTESIAN_POINT ( 'NONE',  ( 2.999999999999981800, 4.999999999999999100, 2.500000000000000000 ) ) ;
#985 = FACE_OUTER_BOUND ( 'NONE', #19, .T. ) ;
#986 = CARTESIAN_POINT ( 'NONE',  ( 2.999999999999981800, 26.00000000000000400, 0.0000000000000000000 ) ) ;
#987 = VECTOR ( 'NONE', #700, 1000.000000000000000 ) ;
#988 = CARTESIAN_POINT ( 'NONE',  ( 5.500000000000007100, 31.50000000000001400, 0.0000000000000000000 ) ) ;
#989 = AXIS2_PLACEMENT_3D ( 'NONE', #209, #880, #537 ) ;
#990 = ORIENTED_EDGE ( 'NONE', *, *, #853, .F. ) ;
#991 = COORDINATED_UNIVERSAL_TIME_OFFSET ( 1, 0, .AHEAD. ) ;
#992 = ORIENTED_EDGE ( 'NONE', *, *, #266, .T. ) ;
#993 = DIRECTION ( 'NONE',  ( -1.000000000000000000, -0.0000000000000000000, -0.0000000000000000000 ) ) ;
#994 = AXIS2_PLACEMENT_3D ( 'NONE', #842, #95, #182 ) ;
#995 = CIRCLE ( 'NONE', #741, 12.00000000000000200 ) ;
#996 = DIRECTION ( 'NONE',  ( 1.000000000000000000, 0.0000000000000000000, 0.0000000000000000000 ) ) ;
#997 = CIRCLE ( 'NONE', #473, 1.500000000000000400 ) ;
#998 = DIRECTION ( 'NONE',  ( -0.5449883505954141700, -0.8384436163006370200, -0.0000000000000000000 ) ) ;
#999 = FACE_OUTER_BOUND ( 'NONE', #471, .T. ) ;
#1000 = EDGE_CURVE ( 'NONE', #669, #686, #663, .T. ) ;
#1001 = ORIENTED_EDGE ( 'NONE', *, *, #892, .F. ) ;
#1002 = CARTESIAN_POINT ( 'NONE',  ( -4.000000000000007100, 31.50000000000001400, 2.500000000000000000 ) ) ;
#1003 = ORIENTED_EDGE ( 'NONE', *, *, #463, .F. ) ;
#1004 = CARTESIAN_POINT ( 'NONE',  ( 2.999999999999981800, 26.00000000000000400, 2.500000000000000000 ) ) ;
#1005 = AXIS2_PLACEMENT_3D ( 'NONE', #290, #292, #869 ) ;
#1006 = DIRECTION ( 'NONE',  ( -1.000000000000000000, 0.0000000000000000000, 0.0000000000000000000 ) ) ;
#1007 = APPROVAL_DATE_TIME ( #621, #493 ) ;
#1008 = ORIENTED_EDGE ( 'NONE', *, *, #524, .F. ) ;
#1009 = PRODUCT ( 'roll_part_1_Domyúlna_sldprt', 'roll_part_1_Domyúlna_sldprt', '', ( #755 ) ) ;
#1010 = ORIENTED_EDGE ( 'NONE', *, *, #477, .T. ) ;
#1011 = DIRECTION ( 'NONE',  ( 0.0000000000000000000, 0.0000000000000000000, 1.000000000000000000 ) ) ;
#1012 = CARTESIAN_POINT ( 'NONE',  ( -12.49999999999999800, 7.999999999999998200, 0.0000000000000000000 ) ) ;
#1013 = EDGE_CURVE ( 'NONE', #285, #343, #404, .T. ) ;
#1014 = VECTOR ( 'NONE', #605, 1000.000000000000000 ) ;
#1015 = DIRECTION ( 'NONE',  ( 0.0000000000000000000, 0.0000000000000000000, 1.000000000000000000 ) ) ;
#1016 = CIRCLE ( 'NONE', #378, 1.500000000000000400 ) ;
#1017 = CARTESIAN_POINT ( 'NONE',  ( -2.999999999999981800, 4.999999999999999100, 2.500000000000000000 ) ) ;
#1018 = ORIENTED_EDGE ( 'NONE', *, *, #818, .F. ) ;
#1019 = ADVANCED_FACE ( 'NONE', ( #930 ), #539, .T. ) ;
#1020 = VERTEX_POINT ( 'NONE', #323 ) ;
#1021 = PLANE ( 'NONE',  #1064 ) ;
#1022 = ORIENTED_EDGE ( 'NONE', *, *, #705, .F. ) ;
#1023 = DATE_AND_TIME ( #115, #549 ) ;
#1024 = CARTESIAN_POINT ( 'NONE',  ( 2.999999999999999600, 7.500000000000000000, 0.0000000000000000000 ) ) ;
#1025 = CARTESIAN_POINT ( 'NONE',  ( -5.500000000000000000, 23.49999999999998600, 2.500000000000000000 ) ) ;
#1026 = ADVANCED_FACE ( 'NONE', ( #825 ), #96, .F. ) ;
#1027 = DIRECTION ( 'NONE',  ( -0.0000000000000000000, -0.0000000000000000000, -1.000000000000000000 ) ) ;
#1028 = FACE_OUTER_BOUND ( 'NONE', #481, .T. ) ;
#1029 = AXIS2_PLACEMENT_3D ( 'NONE', #538, #43, #55 ) ;
#1030 = ADVANCED_FACE ( 'NONE', ( #774, #959, #465, #721, #263, #595, #907 ), #401, .F. ) ;
#1031 = LINE ( 'NONE', #387, #845 ) ;
#1032 = VERTEX_POINT ( 'NONE', #222 ) ;
#1033 = EDGE_LOOP ( 'NONE', ( #684, #871 ) ) ;
#1034 = ORIENTED_EDGE ( 'NONE', *, *, #408, .F. ) ;
#1035 = EDGE_CURVE ( 'NONE', #924, #399, #1054, .T. ) ;
#1036 = ORIENTED_EDGE ( 'NONE', *, *, #892, .T. ) ;
#1037 = ADVANCED_BREP_SHAPE_REPRESENTATION ( 'roll_part_1_Domyùlna_sldprt', ( #554, #921 ), #72 ) ;
#1038 = CARTESIAN_POINT ( 'NONE',  ( -12.00000000000000200, 35.50000000000000700, 0.0000000000000000000 ) ) ;
#1039 = CARTESIAN_POINT ( 'NONE',  ( 2.999999999999981800, 26.00000000000000400, 2.500000000000000000 ) ) ;
#1040 = CARTESIAN_POINT ( 'NONE',  ( -5.500000000000000000, 7.500000000000000000, 2.500000000000000000 ) ) ;
#1041 = VECTOR ( 'NONE', #548, 1000.000000000000000 ) ;
#1042 = CIRCLE ( 'NONE', #535, 1.750000000000000400 ) ;
#1043 = PLANE ( 'NONE',  #200 ) ;
#1044 = DIRECTION ( 'NONE',  ( -0.0000000000000000000, -0.0000000000000000000, -1.000000000000000000 ) ) ;
#1045 = LINE ( 'NONE', #452, #912 ) ;
#1046 = ORIENTED_EDGE ( 'NONE', *, *, #844, .F. ) ;
#1047 = ORIENTED_EDGE ( 'NONE', *, *, #926, .F. ) ;
#1048 = LOCAL_TIME ( 15, 57, 56.00000000000000000, #991 ) ;
#1049 = ORIENTED_EDGE ( 'NONE', *, *, #408, .T. ) ;
#1050 = DIRECTION ( 'NONE',  ( 0.8384436163006371300, -0.5449883505954142800, 0.0000000000000000000 ) ) ;
#1051 = DIRECTION ( 'NONE',  ( 0.0000000000000000000, 0.0000000000000000000, 1.000000000000000000 ) ) ;
#1052 = CARTESIAN_POINT ( 'NONE',  ( 2.999999999999981800, 4.999999999999999100, 2.500000000000000000 ) ) ;
#1053 = DIRECTION ( 'NONE',  ( 0.0000000000000000000, 0.0000000000000000000, 1.000000000000000000 ) ) ;
#1054 = LINE ( 'NONE', #654, #878 ) ;
#1055 = LINE ( 'NONE', #622, #836 ) ;
#1056 = CARTESIAN_POINT ( 'NONE',  ( 4.000000000000007100, 31.50000000000001400, 0.0000000000000000000 ) ) ;
#1057 = LINE ( 'NONE', #121, #51 ) ;
#1058 = EDGE_LOOP ( 'NONE', ( #163, #1003, #357, #587 ) ) ;
#1059 = ORIENTED_EDGE ( 'NONE', *, *, #972, .F. ) ;
#1060 = DIRECTION ( 'NONE',  ( -1.000000000000000000, 0.0000000000000000000, 0.0000000000000000000 ) ) ;
#1061 = ORIENTED_EDGE ( 'NONE', *, *, #524, .T. ) ;
#1062 = ORIENTED_EDGE ( 'NONE', *, *, #156, .T. ) ;
#1063 = DIRECTION ( 'NONE',  ( -1.000000000000000000, 0.0000000000000000000, 0.0000000000000000000 ) ) ;
#1064 = AXIS2_PLACEMENT_3D ( 'NONE', #383, #1050, #796 ) ;
#1065 = APPLICATION_PROTOCOL_DEFINITION ( 'international standard', 'config_control_design', 1994, #405 ) ;
#1066 = CARTESIAN_POINT ( 'NONE',  ( 9.249999999999994700, 27.85555757428966600, 2.500000000000000000 ) ) ;
#1067 = FACE_OUTER_BOUND ( 'NONE', #795, .T. ) ;
#1068 = APPROVAL_STATUS ( 'not_yet_approved' ) ;
#1069 = AXIS2_PLACEMENT_3D ( 'NONE', #507, #584, #597 ) ;
#1070 = VECTOR ( 'NONE', #203, 1000.000000000000000 ) ;
#1071 = VERTEX_POINT ( 'NONE', #904 ) ;
#1072 = ORIENTED_EDGE ( 'NONE', *, *, #30, .F. ) ;
#1073 = CARTESIAN_POINT ( 'NONE',  ( 2.500000000000006700, 31.50000000000001400, 0.0000000000000000000 ) ) ;
#1074 = EDGE_CURVE ( 'NONE', #703, #797, #348, .T. ) ;
#1075 = DIRECTION ( 'NONE',  ( 0.0000000000000000000, 0.0000000000000000000, 1.000000000000000000 ) ) ;
#1076 = DIRECTION ( 'NONE',  ( -1.000000000000000000, 0.0000000000000000000, 0.0000000000000000000 ) ) ;
#1077 = FACE_OUTER_BOUND ( 'NONE', #102, .T. ) ;
#1078 = FACE_OUTER_BOUND ( 'NONE', #20, .T. ) ;
#1079 = VECTOR ( 'NONE', #948, 1000.000000000000000 ) ;
#1080 = ORIENTED_EDGE ( 'NONE', *, *, #463, .T. ) ;
#1081 = LOCAL_TIME ( 15, 57, 56.00000000000000000, #270 ) ;
#1082 = ORIENTED_EDGE ( 'NONE', *, *, #242, .F. ) ;
#1083 = DIRECTION ( 'NONE',  ( -1.000000000000000000, 0.0000000000000000000, 0.0000000000000000000 ) ) ;
#1084 = DIRECTION ( 'NONE',  ( 1.000000000000000000, 0.0000000000000000000, 0.0000000000000000000 ) ) ;
#1085 = EDGE_CURVE ( 'NONE', #192, #1071, #13, .T. ) ;
#1086 = DIRECTION ( 'NONE',  ( 0.0000000000000000000, 0.0000000000000000000, 1.000000000000000000 ) ) ;
#1087 = PERSON ( 'UNSPECIFIED', 'UNSPECIFIED', 'UNSPECIFIED', ('UNSPECIFIED'), ('UNSPECIFIED'), ('UNSPECIFIED') ) ;
ENDSEC;
END-ISO-10303-21;
