ISO-10303-21;
HEADER;
FILE_DESCRIPTION (( 'STEP AP203' ),
    '1' );
FILE_NAME ('yaw_part_2_Domyúlna_sldprt.STEP',
    '2018-11-04T14:58:02',
    ( '' ),
    ( '' ),
    'SwSTEP 2.0',
    'SolidWorks 2016',
    '' );
FILE_SCHEMA (( 'CONFIG_CONTROL_DESIGN' ));
ENDSEC;

DATA;
#1 = ORIENTED_EDGE ( 'NONE', *, *, #405, .T. ) ;
#2 = LINE ( 'NONE', #20, #113 ) ;
#3 = ORIENTED_EDGE ( 'NONE', *, *, #144, .F. ) ;
#4 = CARTESIAN_POINT ( 'NONE',  ( 8.999999999999998200, 16.25000000000000000, 0.0000000000000000000 ) ) ;
#5 = LINE ( 'NONE', #753, #825 ) ;
#6 = EDGE_CURVE ( 'NONE', #600, #784, #288, .T. ) ;
#7 = CARTESIAN_POINT ( 'NONE',  ( -1.999999999999998700, 9.150000000000002100, 4.000000000000000000 ) ) ;
#8 = CARTESIAN_POINT ( 'NONE',  ( 0.0000000000000000000, 0.0000000000000000000, 0.0000000000000000000 ) ) ;
#9 = CARTESIAN_POINT ( 'NONE',  ( -12.75000000000000000, 2.999999999999998700, 0.0000000000000000000 ) ) ;
#10 = EDGE_CURVE ( 'NONE', #40, #491, #201, .T. ) ;
#11 = AXIS2_PLACEMENT_3D ( 'NONE', #735, #399, #339 ) ;
#12 = CARTESIAN_POINT ( 'NONE',  ( 2.499999999999995600, 8.249999999999996400, 4.000000000000000000 ) ) ;
#13 = DIRECTION ( 'NONE',  ( -2.168404344971007900E-016, 1.000000000000000000, -0.0000000000000000000 ) ) ;
#14 = FACE_OUTER_BOUND ( 'NONE', #635, .T. ) ;
#15 = APPLICATION_CONTEXT ( 'configuration controlled 3d designs of mechanical parts and assemblies' ) ;
#16 = LINE ( 'NONE', #19, #191 ) ;
#17 = VECTOR ( 'NONE', #611, 1000.000000000000000 ) ;
#18 = DIRECTION ( 'NONE',  ( 1.000000000000000000, 0.0000000000000000000, 0.0000000000000000000 ) ) ;
#19 = CARTESIAN_POINT ( 'NONE',  ( -12.75000000000000000, -1.352632321270019900E-015, 0.0000000000000000000 ) ) ;
#20 = CARTESIAN_POINT ( 'NONE',  ( 12.75000000000000000, 2.999999999999996900, 4.000000000000000000 ) ) ;
#21 = DIRECTION ( 'NONE',  ( -1.000000000000000000, 0.0000000000000000000, 0.0000000000000000000 ) ) ;
#22 = VERTEX_POINT ( 'NONE', #741 ) ;
#23 = CARTESIAN_POINT ( 'NONE',  ( 0.0000000000000000000, 36.50000000000000000, 4.000000000000000000 ) ) ;
#24 = EDGE_LOOP ( 'NONE', ( #510, #121, #447, #137, #612, #458, #29, #98 ) ) ;
#25 = ORIENTED_EDGE ( 'NONE', *, *, #224, .T. ) ;
#26 = DIRECTION ( 'NONE',  ( 1.000000000000000000, 0.0000000000000000000, 0.0000000000000000000 ) ) ;
#27 = EDGE_CURVE ( 'NONE', #824, #789, #555, .T. ) ;
#28 = LOCAL_TIME ( 15, 58, 2.000000000000000000, #552 ) ;
#29 = ORIENTED_EDGE ( 'NONE', *, *, #506, .T. ) ;
#30 = DIRECTION ( 'NONE',  ( -1.000000000000000000, -2.168404344971007900E-016, 0.0000000000000000000 ) ) ;
#31 = CYLINDRICAL_SURFACE ( 'NONE', #370, 14.00000000000000200 ) ;
#32 = VERTEX_POINT ( 'NONE', #685 ) ;
#33 = EDGE_LOOP ( 'NONE', ( #167, #149, #727, #475 ) ) ;
#34 = AXIS2_PLACEMENT_3D ( 'NONE', #163, #604, #93 ) ;
#35 = ORIENTED_EDGE ( 'NONE', *, *, #396, .F. ) ;
#36 = DIRECTION ( 'NONE',  ( -1.000000000000000000, 0.0000000000000000000, 0.0000000000000000000 ) ) ;
#37 = CARTESIAN_POINT ( 'NONE',  ( -7.000000000000000900, 16.88861278752583000, 4.000000000000000000 ) ) ;
#38 = EDGE_LOOP ( 'NONE', ( #250, #739, #731, #838 ) ) ;
#39 = FACE_OUTER_BOUND ( 'NONE', #487, .T. ) ;
#40 = VERTEX_POINT ( 'NONE', #352 ) ;
#41 = CARTESIAN_POINT ( 'NONE',  ( 11.50000000000000000, 6.749999999999996400, 4.000000000000000000 ) ) ;
#42 = EDGE_CURVE ( 'NONE', #816, #839, #105, .T. ) ;
#43 = DIRECTION ( 'NONE',  ( -2.602085213965211100E-016, 1.000000000000000000, -0.0000000000000000000 ) ) ;
#44 = PERSON_AND_ORGANIZATION ( #246, #505 ) ;
#45 = AXIS2_PLACEMENT_3D ( 'NONE', #248, #127, #438 ) ;
#46 = FACE_OUTER_BOUND ( 'NONE', #427, .T. ) ;
#47 = ORIENTED_EDGE ( 'NONE', *, *, #653, .T. ) ;
#48 = DIRECTION ( 'NONE',  ( 0.0000000000000000000, 0.0000000000000000000, 1.000000000000000000 ) ) ;
#49 = VERTEX_POINT ( 'NONE', #70 ) ;
#50 = ADVANCED_FACE ( 'NONE', ( #211 ), #31, .F. ) ;
#51 = CC_DESIGN_SECURITY_CLASSIFICATION ( #177, ( #820 ) ) ;
#52 = EDGE_CURVE ( 'NONE', #845, #750, #783, .T. ) ;
#53 = ORIENTED_EDGE ( 'NONE', *, *, #389, .F. ) ;
#54 = EDGE_CURVE ( 'NONE', #839, #824, #79, .T. ) ;
#55 = AXIS2_PLACEMENT_3D ( 'NONE', #37, #36, #174 ) ;
#56 = VECTOR ( 'NONE', #304, 1000.000000000000000 ) ;
#57 = VECTOR ( 'NONE', #13, 1000.000000000000000 ) ;
#58 = CC_DESIGN_DATE_AND_TIME_ASSIGNMENT ( #759, #547, ( #375 ) ) ;
#59 = CARTESIAN_POINT ( 'NONE',  ( 2.499999999999995600, 8.249999999999996400, 0.0000000000000000000 ) ) ;
#60 = EDGE_LOOP ( 'NONE', ( #764, #240, #152, #47 ) ) ;
#61 = ADVANCED_FACE ( 'NONE', ( #619 ), #265, .F. ) ;
#62 = LINE ( 'NONE', #676, #808 ) ;
#63 = LINE ( 'NONE', #607, #748 ) ;
#64 = ADVANCED_FACE ( 'NONE', ( #543, #834, #755 ), #726, .T. ) ;
#65 = EDGE_CURVE ( 'NONE', #32, #789, #418, .T. ) ;
#66 = DIRECTION ( 'NONE',  ( -0.0000000000000000000, -0.0000000000000000000, -1.000000000000000000 ) ) ;
#67 = VECTOR ( 'NONE', #75, 1000.000000000000100 ) ;
#68 = ORIENTED_EDGE ( 'NONE', *, *, #484, .T. ) ;
#69 = DIRECTION ( 'NONE',  ( -0.0000000000000000000, 0.0000000000000000000, -1.000000000000000000 ) ) ;
#70 = CARTESIAN_POINT ( 'NONE',  ( -1.999999999999998200, 9.150000000000000400, 0.0000000000000000000 ) ) ;
#71 = ORIENTED_EDGE ( 'NONE', *, *, #54, .F. ) ;
#72 = ORIENTED_EDGE ( 'NONE', *, *, #521, .F. ) ;
#73 =( GEOMETRIC_REPRESENTATION_CONTEXT ( 3 ) GLOBAL_UNCERTAINTY_ASSIGNED_CONTEXT ( ( #363 ) ) GLOBAL_UNIT_ASSIGNED_CONTEXT ( ( #794, #215, #225 ) ) REPRESENTATION_CONTEXT ( 'NONE', 'WORKASPACE' ) );
#74 = CARTESIAN_POINT ( 'NONE',  ( -8.500000000000000000, 14.14999999999999900, 0.0000000000000000000 ) ) ;
#75 = DIRECTION ( 'NONE',  ( -0.3162277660168378900, 0.9486832980505138800, 0.0000000000000000000 ) ) ;
#76 = DIRECTION ( 'NONE',  ( -1.000000000000000000, 0.0000000000000000000, 0.0000000000000000000 ) ) ;
#77 = FACE_OUTER_BOUND ( 'NONE', #855, .T. ) ;
#78 = AXIS2_PLACEMENT_3D ( 'NONE', #8, #740, #160 ) ;
#79 = LINE ( 'NONE', #268, #95 ) ;
#80 = CARTESIAN_POINT ( 'NONE',  ( 11.50000000000000000, 6.749999999999996400, 4.000000000000000000 ) ) ;
#81 = DIRECTION ( 'NONE',  ( 0.0000000000000000000, 1.000000000000000000, 0.0000000000000000000 ) ) ;
#82 = APPROVAL_STATUS ( 'not_yet_approved' ) ;
#83 = CARTESIAN_POINT ( 'NONE',  ( 0.0000000000000000000, 36.50000000000000000, 4.000000000000000000 ) ) ;
#84 = CARTESIAN_POINT ( 'NONE',  ( -1.999999999999998200, 9.150000000000000400, 4.000000000000000000 ) ) ;
#85 = EDGE_CURVE ( 'NONE', #279, #421, #574, .T. ) ;
#86 = AXIS2_PLACEMENT_3D ( 'NONE', #366, #562, #702 ) ;
#87 = APPROVAL_STATUS ( 'not_yet_approved' ) ;
#88 = VERTEX_POINT ( 'NONE', #7 ) ;
#89 = CALENDAR_DATE ( 2018, 4, 11 ) ;
#90 = DIRECTION ( 'NONE',  ( 1.084202172485503900E-016, -1.000000000000000000, 0.0000000000000000000 ) ) ;
#91 = CALENDAR_DATE ( 2018, 4, 11 ) ;
#92 = DIRECTION ( 'NONE',  ( 0.0000000000000000000, 0.0000000000000000000, 1.000000000000000000 ) ) ;
#93 = DIRECTION ( 'NONE',  ( 1.000000000000000000, 0.0000000000000000000, 0.0000000000000000000 ) ) ;
#94 = LINE ( 'NONE', #665, #416 ) ;
#95 = VECTOR ( 'NONE', #274, 1000.000000000000000 ) ;
#96 = ORIENTED_EDGE ( 'NONE', *, *, #629, .F. ) ;
#97 = CARTESIAN_POINT ( 'NONE',  ( 0.0000000000000000000, 36.50000000000000000, 4.000000000000000000 ) ) ;
#98 = ORIENTED_EDGE ( 'NONE', *, *, #641, .T. ) ;
#99 = VERTEX_POINT ( 'NONE', #793 ) ;
#100 = DIRECTION ( 'NONE',  ( 1.084202172485503900E-016, -1.000000000000000000, 0.0000000000000000000 ) ) ;
#101 = EDGE_CURVE ( 'NONE', #787, #229, #626, .T. ) ;
#102 = VECTOR ( 'NONE', #281, 1000.000000000000100 ) ;
#103 = CARTESIAN_POINT ( 'NONE',  ( -2.000000000000000000, 14.14999999999999500, 0.0000000000000000000 ) ) ;
#104 = LINE ( 'NONE', #41, #637 ) ;
#105 = CIRCLE ( 'NONE', #383, 3.250000000000002200 ) ;
#106 = EDGE_CURVE ( 'NONE', #709, #639, #116, .T. ) ;
#107 = AXIS2_PLACEMENT_3D ( 'NONE', #830, #425, #430 ) ;
#108 = DIRECTION ( 'NONE',  ( -0.0000000000000000000, -1.000000000000000000, -0.0000000000000000000 ) ) ;
#109 = DIRECTION ( 'NONE',  ( -1.000000000000000000, 0.0000000000000000000, 0.0000000000000000000 ) ) ;
#110 = CC_DESIGN_PERSON_AND_ORGANIZATION_ASSIGNMENT ( #493, #473, ( #177 ) ) ;
#111 = ORIENTED_EDGE ( 'NONE', *, *, #641, .F. ) ;
#112 = DIRECTION ( 'NONE',  ( 1.000000000000000000, 0.0000000000000000000, 0.0000000000000000000 ) ) ;
#113 = VECTOR ( 'NONE', #662, 1000.000000000000000 ) ;
#114 = EDGE_LOOP ( 'NONE', ( #193, #812, #819, #245 ) ) ;
#115 = FACE_OUTER_BOUND ( 'NONE', #33, .T. ) ;
#116 = LINE ( 'NONE', #471, #332 ) ;
#117 = PLANE ( 'NONE',  #45 ) ;
#118 = EDGE_CURVE ( 'NONE', #840, #750, #582, .T. ) ;
#119 = ORIENTED_EDGE ( 'NONE', *, *, #463, .T. ) ;
#120 = ORIENTED_EDGE ( 'NONE', *, *, #768, .F. ) ;
#121 = ORIENTED_EDGE ( 'NONE', *, *, #569, .T. ) ;
#122 = CARTESIAN_POINT ( 'NONE',  ( 0.0000000000000000000, 36.50000000000000000, 0.0000000000000000000 ) ) ;
#123 = APPROVAL_PERSON_ORGANIZATION ( #299, #640, #535 ) ;
#124 = AXIS2_PLACEMENT_3D ( 'NONE', #221, #278, #732 ) ;
#125 = ORIENTED_EDGE ( 'NONE', *, *, #165, .F. ) ;
#126 = CYLINDRICAL_SURFACE ( 'NONE', #761, 3.250000000000001300 ) ;
#127 = DIRECTION ( 'NONE',  ( 1.000000000000000000, 1.084202172485503900E-016, -0.0000000000000000000 ) ) ;
#128 = CC_DESIGN_DATE_AND_TIME_ASSIGNMENT ( #307, #610, ( #177 ) ) ;
#129 = ADVANCED_FACE ( 'NONE', ( #313 ), #386, .T. ) ;
#130 = ORIENTED_EDGE ( 'NONE', *, *, #729, .T. ) ;
#131 = EDGE_LOOP ( 'NONE', ( #835, #296, #1, #498 ) ) ;
#132 = COORDINATED_UNIVERSAL_TIME_OFFSET ( 1, 0, .AHEAD. ) ;
#133 = ADVANCED_FACE ( 'NONE', ( #437 ), #222, .F. ) ;
#134 = EDGE_CURVE ( 'NONE', #789, #648, #445, .T. ) ;
#135 = CARTESIAN_POINT ( 'NONE',  ( -11.50000000000000000, 6.750000000000000000, 4.000000000000000000 ) ) ;
#136 = CIRCLE ( 'NONE', #751, 3.250000000000002200 ) ;
#137 = ORIENTED_EDGE ( 'NONE', *, *, #85, .T. ) ;
#138 = CARTESIAN_POINT ( 'NONE',  ( -7.000000000000000900, 24.37564434701785700, 4.000000000000000000 ) ) ;
#139 = ORIENTED_EDGE ( 'NONE', *, *, #134, .T. ) ;
#140 = AXIS2_PLACEMENT_3D ( 'NONE', #853, #722, #449 ) ;
#141 = DIRECTION ( 'NONE',  ( 2.602085213965211100E-016, -1.000000000000000000, 0.0000000000000000000 ) ) ;
#142 = VERTEX_POINT ( 'NONE', #482 ) ;
#143 = ORIENTED_EDGE ( 'NONE', *, *, #823, .F. ) ;
#144 = EDGE_CURVE ( 'NONE', #318, #706, #260, .T. ) ;
#145 = LINE ( 'NONE', #423, #642 ) ;
#146 = DIRECTION ( 'NONE',  ( -0.0000000000000000000, -0.0000000000000000000, -1.000000000000000000 ) ) ;
#147 = DIRECTION ( 'NONE',  ( -0.0000000000000000000, -0.0000000000000000000, -1.000000000000000000 ) ) ;
#148 = DIRECTION ( 'NONE',  ( -0.0000000000000000000, -0.0000000000000000000, -1.000000000000000000 ) ) ;
#149 = ORIENTED_EDGE ( 'NONE', *, *, #559, .F. ) ;
#150 = DIRECTION ( 'NONE',  ( 0.0000000000000000000, 1.000000000000000000, 0.0000000000000000000 ) ) ;
#151 = EDGE_CURVE ( 'NONE', #162, #816, #271, .T. ) ;
#152 = ORIENTED_EDGE ( 'NONE', *, *, #529, .T. ) ;
#153 = PERSON_AND_ORGANIZATION_ROLE ( 'design_owner' ) ;
#154 = CARTESIAN_POINT ( 'NONE',  ( -5.249999999999999100, 9.150000000000000400, 4.000000000000000000 ) ) ;
#155 = COORDINATED_UNIVERSAL_TIME_OFFSET ( 1, 0, .AHEAD. ) ;
#156 = DIRECTION ( 'NONE',  ( -1.000000000000000000, 0.0000000000000000000, 0.0000000000000000000 ) ) ;
#157 = LINE ( 'NONE', #302, #443 ) ;
#158 = ORIENTED_EDGE ( 'NONE', *, *, #583, .F. ) ;
#159 = ORIENTED_EDGE ( 'NONE', *, *, #65, .F. ) ;
#160 = DIRECTION ( 'NONE',  ( 1.000000000000000000, 0.0000000000000000000, 0.0000000000000000000 ) ) ;
#161 = CARTESIAN_POINT ( 'NONE',  ( 15.50000000000000000, 36.50000000000000000, 0.0000000000000000000 ) ) ;
#162 = VERTEX_POINT ( 'NONE', #615 ) ;
#163 = CARTESIAN_POINT ( 'NONE',  ( 0.0000000000000000000, 36.50000000000000000, 4.000000000000000000 ) ) ;
#164 = DIRECTION ( 'NONE',  ( -0.0000000000000000000, -0.0000000000000000000, -1.000000000000000000 ) ) ;
#165 = EDGE_CURVE ( 'NONE', #816, #780, #182, .T. ) ;
#166 = ORIENTED_EDGE ( 'NONE', *, *, #849, .T. ) ;
#167 = ORIENTED_EDGE ( 'NONE', *, *, #295, .T. ) ;
#168 = APPROVAL_DATE_TIME ( #453, #640 ) ;
#169 = DIRECTION ( 'NONE',  ( -0.0000000000000000000, -0.0000000000000000000, -1.000000000000000000 ) ) ;
#170 = ORIENTED_EDGE ( 'NONE', *, *, #529, .F. ) ;
#171 = FACE_BOUND ( 'NONE', #24, .T. ) ;
#172 = AXIS2_PLACEMENT_3D ( 'NONE', #537, #551, #76 ) ;
#173 = ORIENTED_EDGE ( 'NONE', *, *, #326, .F. ) ;
#174 = DIRECTION ( 'NONE',  ( 0.0000000000000000000, 0.0000000000000000000, 1.000000000000000000 ) ) ;
#175 = VERTEX_POINT ( 'NONE', #541 ) ;
#176 = ORIENTED_EDGE ( 'NONE', *, *, #689, .T. ) ;
#177 = SECURITY_CLASSIFICATION ( '', '', #476 ) ;
#178 = CARTESIAN_POINT ( 'NONE',  ( 12.75000000000000000, -1.352632321270019100E-015, 4.000000000000000000 ) ) ;
#179 = CIRCLE ( 'NONE', #707, 3.250000000000000400 ) ;
#180 = VERTEX_POINT ( 'NONE', #798 ) ;
#181 = LINE ( 'NONE', #285, #810 ) ;
#182 = LINE ( 'NONE', #223, #851 ) ;
#183 = EDGE_LOOP ( 'NONE', ( #576, #293, #306, #431 ) ) ;
#184 = EDGE_CURVE ( 'NONE', #421, #809, #242, .T. ) ;
#185 = CARTESIAN_POINT ( 'NONE',  ( -7.000000000000000900, 24.37564434701785700, 0.0000000000000000000 ) ) ;
#186 = VERTEX_POINT ( 'NONE', #674 ) ;
#187 = ORIENTED_EDGE ( 'NONE', *, *, #42, .T. ) ;
#188 = CARTESIAN_POINT ( 'NONE',  ( 5.749999999999997300, 8.249999999999996400, 0.0000000000000000000 ) ) ;
#189 = EDGE_LOOP ( 'NONE', ( #334, #765, #71, #688 ) ) ;
#190 = VECTOR ( 'NONE', #66, 1000.000000000000000 ) ;
#191 = VECTOR ( 'NONE', #417, 1000.000000000000000 ) ;
#192 = CARTESIAN_POINT ( 'NONE',  ( -2.000000000000000000, 14.14999999999999900, 4.000000000000000000 ) ) ;
#193 = ORIENTED_EDGE ( 'NONE', *, *, #756, .F. ) ;
#194 = PRODUCT ( 'yaw_part_2_Domyúlna_sldprt', 'yaw_part_2_Domyúlna_sldprt', '', ( #470 ) ) ;
#195 = ADVANCED_FACE ( 'NONE', ( #698 ), #593, .F. ) ;
#196 = CARTESIAN_POINT ( 'NONE',  ( -5.249999999999999100, 9.150000000000000400, 4.000000000000000000 ) ) ;
#197 = EDGE_CURVE ( 'NONE', #186, #462, #519, .T. ) ;
#198 = AXIS2_PLACEMENT_3D ( 'NONE', #391, #514, #202 ) ;
#199 = CARTESIAN_POINT ( 'NONE',  ( -5.250000000000000000, 14.14999999999999900, 4.000000000000000000 ) ) ;
#200 = VECTOR ( 'NONE', #775, 1000.000000000000000 ) ;
#201 = LINE ( 'NONE', #536, #725 ) ;
#202 = DIRECTION ( 'NONE',  ( 0.3162277660168377200, 0.9486832980505138800, 0.0000000000000000000 ) ) ;
#203 = ORIENTED_EDGE ( 'NONE', *, *, #295, .F. ) ;
#204 = ORIENTED_EDGE ( 'NONE', *, *, #118, .T. ) ;
#205 = ADVANCED_FACE ( 'NONE', ( #220 ), #686, .T. ) ;
#206 = DIRECTION ( 'NONE',  ( 1.000000000000000000, 0.0000000000000000000, 0.0000000000000000000 ) ) ;
#207 = DIRECTION ( 'NONE',  ( 1.000000000000000000, 0.0000000000000000000, 0.0000000000000000000 ) ) ;
#208 = EDGE_CURVE ( 'NONE', #638, #40, #16, .T. ) ;
#209 = DIRECTION ( 'NONE',  ( 1.000000000000000000, 0.0000000000000000000, 0.0000000000000000000 ) ) ;
#210 = CYLINDRICAL_SURFACE ( 'NONE', #448, 15.50000000000000000 ) ;
#211 = FACE_OUTER_BOUND ( 'NONE', #599, .T. ) ;
#212 = ORIENTED_EDGE ( 'NONE', *, *, #804, .T. ) ;
#213 = DIRECTION ( 'NONE',  ( -1.000000000000000000, -2.602085213965211100E-016, 0.0000000000000000000 ) ) ;
#214 = EDGE_LOOP ( 'NONE', ( #159, #633, #298, #230 ) ) ;
#215 =( NAMED_UNIT ( * ) PLANE_ANGLE_UNIT ( ) SI_UNIT ( $, .RADIAN. ) );
#216 = COORDINATED_UNIVERSAL_TIME_OFFSET ( 1, 0, .AHEAD. ) ;
#217 = DIRECTION ( 'NONE',  ( -0.0000000000000000000, -0.0000000000000000000, -1.000000000000000000 ) ) ;
#218 = DIRECTION ( 'NONE',  ( 0.0000000000000000000, 0.0000000000000000000, 1.000000000000000000 ) ) ;
#219 = CIRCLE ( 'NONE', #828, 15.50000000000000000 ) ;
#220 = FACE_OUTER_BOUND ( 'NONE', #214, .T. ) ;
#221 = CARTESIAN_POINT ( 'NONE',  ( 0.0000000000000000000, 36.50000000000000000, 4.000000000000000000 ) ) ;
#222 = PLANE ( 'NONE',  #806 ) ;
#223 = CARTESIAN_POINT ( 'NONE',  ( 2.499999999999995600, 8.249999999999996400, 4.000000000000000000 ) ) ;
#224 = EDGE_CURVE ( 'NONE', #404, #591, #795, .T. ) ;
#225 =( NAMED_UNIT ( * ) SI_UNIT ( $, .STERADIAN. ) SOLID_ANGLE_UNIT ( ) );
#226 = DATE_AND_TIME ( #89, #452 ) ;
#227 = ORIENTED_EDGE ( 'NONE', *, *, #243, .T. ) ;
#228 = VECTOR ( 'NONE', #602, 1000.000000000000000 ) ;
#229 = VERTEX_POINT ( 'NONE', #161 ) ;
#230 = ORIENTED_EDGE ( 'NONE', *, *, #27, .T. ) ;
#231 = ORIENTED_EDGE ( 'NONE', *, *, #675, .F. ) ;
#232 = DIRECTION ( 'NONE',  ( -0.0000000000000000000, -0.0000000000000000000, -1.000000000000000000 ) ) ;
#233 = LINE ( 'NONE', #617, #712 ) ;
#234 = EDGE_CURVE ( 'NONE', #824, #162, #249, .T. ) ;
#235 = ORIENTED_EDGE ( 'NONE', *, *, #52, .F. ) ;
#236 = CARTESIAN_POINT ( 'NONE',  ( 5.749999999999997300, 16.25000000000000000, 4.000000000000000000 ) ) ;
#237 = CC_DESIGN_APPROVAL ( #324, ( #177 ) ) ;
#238 = EDGE_LOOP ( 'NONE', ( #111, #606, #119, #364 ) ) ;
#239 = VECTOR ( 'NONE', #791, 1000.000000000000000 ) ;
#240 = ORIENTED_EDGE ( 'NONE', *, *, #746, .F. ) ;
#241 = LINE ( 'NONE', #738, #228 ) ;
#242 = CIRCLE ( 'NONE', #815, 14.00000000000000200 ) ;
#243 = EDGE_CURVE ( 'NONE', #709, #491, #233, .T. ) ;
#244 = ADVANCED_FACE ( 'NONE', ( #736 ), #455, .T. ) ;
#245 = ORIENTED_EDGE ( 'NONE', *, *, #144, .T. ) ;
#246 = PERSON ( 'UNSPECIFIED', 'UNSPECIFIED', 'UNSPECIFIED', ('UNSPECIFIED'), ('UNSPECIFIED'), ('UNSPECIFIED') ) ;
#247 = AXIS2_PLACEMENT_3D ( 'NONE', #657, #343, #407 ) ;
#248 = CARTESIAN_POINT ( 'NONE',  ( 2.499999999999995100, 16.25000000000000000, 4.000000000000000000 ) ) ;
#249 = CIRCLE ( 'NONE', #424, 3.250000000000000400 ) ;
#250 = ORIENTED_EDGE ( 'NONE', *, *, #785, .F. ) ;
#251 = ORIENTED_EDGE ( 'NONE', *, *, #10, .T. ) ;
#252 = CARTESIAN_POINT ( 'NONE',  ( 12.75000000000000000, -1.352632321270019100E-015, 4.000000000000000000 ) ) ;
#253 = EDGE_LOOP ( 'NONE', ( #173, #379, #410, #655 ) ) ;
#254 = EDGE_CURVE ( 'NONE', #88, #49, #517, .T. ) ;
#255 = CARTESIAN_POINT ( 'NONE',  ( -5.250000000000000000, 14.14999999999999900, 0.0000000000000000000 ) ) ;
#256 = ORIENTED_EDGE ( 'NONE', *, *, #837, .F. ) ;
#257 = LOCAL_TIME ( 15, 58, 2.000000000000000000, #614 ) ;
#258 = VECTOR ( 'NONE', #150, 1000.000000000000000 ) ;
#259 = CARTESIAN_POINT ( 'NONE',  ( 2.499999999999995100, 16.25000000000000000, 0.0000000000000000000 ) ) ;
#260 = LINE ( 'NONE', #356, #17 ) ;
#261 = AXIS2_PLACEMENT_3D ( 'NONE', #122, #708, #577 ) ;
#262 = ORIENTED_EDGE ( 'NONE', *, *, #208, .F. ) ;
#263 = VERTEX_POINT ( 'NONE', #275 ) ;
#264 = CARTESIAN_POINT ( 'NONE',  ( 11.50000000000000000, 6.749999999999996400, 0.0000000000000000000 ) ) ;
#265 = PLANE ( 'NONE',  #247 ) ;
#266 = LINE ( 'NONE', #252, #309 ) ;
#267 = CARTESIAN_POINT ( 'NONE',  ( 9.000000000000000000, 8.250000000000000000, 4.000000000000000000 ) ) ;
#268 = CARTESIAN_POINT ( 'NONE',  ( 8.999999999999998200, 16.25000000000000000, 4.000000000000000000 ) ) ;
#269 = VECTOR ( 'NONE', #169, 1000.000000000000000 ) ;
#270 = CARTESIAN_POINT ( 'NONE',  ( 12.75000000000000000, -1.352632321270019100E-015, 0.0000000000000000000 ) ) ;
#271 = LINE ( 'NONE', #411, #566 ) ;
#272 = EDGE_LOOP ( 'NONE', ( #72, #441, #523, #96 ) ) ;
#273 = APPROVAL_ROLE ( '' ) ;
#274 = DIRECTION ( 'NONE',  ( -2.168404344971007900E-016, 1.000000000000000000, -0.0000000000000000000 ) ) ;
#275 = CARTESIAN_POINT ( 'NONE',  ( -15.50000000000000000, 36.50000000000000000, 0.0000000000000000000 ) ) ;
#276 = EDGE_CURVE ( 'NONE', #579, #40, #323, .T. ) ;
#277 = AXIS2_PLACEMENT_3D ( 'NONE', #199, #777, #207 ) ;
#278 = DIRECTION ( 'NONE',  ( -0.0000000000000000000, -0.0000000000000000000, -1.000000000000000000 ) ) ;
#279 = VERTEX_POINT ( 'NONE', #737 ) ;
#280 = CARTESIAN_POINT ( 'NONE',  ( -7.000000000000000900, 16.88861278752583000, 4.000000000000000000 ) ) ;
#281 = DIRECTION ( 'NONE',  ( -0.3162277660168377200, -0.9486832980505138800, -0.0000000000000000000 ) ) ;
#282 = APPROVAL_PERSON_ORGANIZATION ( #831, #324, #567 ) ;
#283 = DIRECTION ( 'NONE',  ( -1.000000000000000000, -3.021066579430959000E-032, 0.0000000000000000000 ) ) ;
#284 = FACE_OUTER_BOUND ( 'NONE', #440, .T. ) ;
#285 = CARTESIAN_POINT ( 'NONE',  ( -12.75000000000000000, 2.999999999999998700, 0.0000000000000000000 ) ) ;
#286 = ORIENTED_EDGE ( 'NONE', *, *, #381, .F. ) ;
#287 = FACE_BOUND ( 'NONE', #571, .T. ) ;
#288 = CIRCLE ( 'NONE', #361, 15.50000000000000000 ) ;
#289 = DIRECTION ( 'NONE',  ( 0.0000000000000000000, 0.0000000000000000000, 1.000000000000000000 ) ) ;
#290 = ORIENTED_EDGE ( 'NONE', *, *, #596, .T. ) ;
#291 = DIRECTION ( 'NONE',  ( 2.168404344971007900E-016, -1.000000000000000000, 0.0000000000000000000 ) ) ;
#292 = PRODUCT_DEFINITION_SHAPE ( 'NONE', 'NONE',  #375 ) ;
#293 = ORIENTED_EDGE ( 'NONE', *, *, #276, .F. ) ;
#294 = DIRECTION ( 'NONE',  ( -1.000000000000000000, 0.0000000000000000000, 0.0000000000000000000 ) ) ;
#295 = EDGE_CURVE ( 'NONE', #175, #638, #181, .T. ) ;
#296 = ORIENTED_EDGE ( 'NONE', *, *, #197, .T. ) ;
#297 = ADVANCED_FACE ( 'NONE', ( #39 ), #428, .F. ) ;
#298 = ORIENTED_EDGE ( 'NONE', *, *, #54, .T. ) ;
#299 = PERSON_AND_ORGANIZATION ( #246, #505 ) ;
#300 = ORIENTED_EDGE ( 'NONE', *, *, #446, .T. ) ;
#301 = AXIS2_PLACEMENT_3D ( 'NONE', #83, #146, #21 ) ;
#302 = CARTESIAN_POINT ( 'NONE',  ( -8.500000000000000000, 14.14999999999999900, 4.000000000000000000 ) ) ;
#303 = FACE_OUTER_BOUND ( 'NONE', #687, .T. ) ;
#304 = DIRECTION ( 'NONE',  ( -0.0000000000000000000, -0.0000000000000000000, -1.000000000000000000 ) ) ;
#305 = CARTESIAN_POINT ( 'NONE',  ( -14.00000000000000200, 36.50000000000000000, 0.0000000000000000000 ) ) ;
#306 = ORIENTED_EDGE ( 'NONE', *, *, #804, .F. ) ;
#307 = DATE_AND_TIME ( #515, #613 ) ;
#308 = CARTESIAN_POINT ( 'NONE',  ( -14.00000000000000200, 36.50000000000000000, 4.000000000000000000 ) ) ;
#309 = VECTOR ( 'NONE', #530, 1000.000000000000000 ) ;
#310 = ORIENTED_EDGE ( 'NONE', *, *, #243, .F. ) ;
#311 = LINE ( 'NONE', #695, #565 ) ;
#312 = EDGE_CURVE ( 'NONE', #461, #279, #848, .T. ) ;
#313 = FACE_OUTER_BOUND ( 'NONE', #38, .T. ) ;
#314 = CARTESIAN_POINT ( 'NONE',  ( 0.0000000000000000000, 36.50000000000000000, 4.000000000000000000 ) ) ;
#315 = ORIENTED_EDGE ( 'NONE', *, *, #106, .F. ) ;
#316 = CARTESIAN_POINT ( 'NONE',  ( -2.000000000000000000, 14.14999999999999900, 4.000000000000000000 ) ) ;
#317 = ORIENTED_EDGE ( 'NONE', *, *, #569, .F. ) ;
#318 = VERTEX_POINT ( 'NONE', #564 ) ;
#319 = DIRECTION ( 'NONE',  ( 1.000000000000000000, 0.0000000000000000000, 0.0000000000000000000 ) ) ;
#320 = FACE_OUTER_BOUND ( 'NONE', #238, .T. ) ;
#321 = ADVANCED_FACE ( 'NONE', ( #616 ), #699, .F. ) ;
#322 = CARTESIAN_POINT ( 'NONE',  ( 14.00000000000000200, 36.50000000000000000, 4.000000000000000000 ) ) ;
#323 = LINE ( 'NONE', #811, #269 ) ;
#324 = APPROVAL ( #82, 'UNSPECIFIED' ) ;
#325 = CARTESIAN_POINT ( 'NONE',  ( -12.75000000000000000, 2.999999999999998700, 4.000000000000000000 ) ) ;
#326 = EDGE_CURVE ( 'NONE', #784, #229, #5, .T. ) ;
#327 = AXIS2_PLACEMENT_3D ( 'NONE', #680, #289, #814 ) ;
#328 = EDGE_LOOP ( 'NONE', ( #549, #125, #187, #359 ) ) ;
#329 = DIRECTION ( 'NONE',  ( -0.0000000000000000000, -0.0000000000000000000, -1.000000000000000000 ) ) ;
#330 = VECTOR ( 'NONE', #331, 1000.000000000000000 ) ;
#331 = DIRECTION ( 'NONE',  ( -0.0000000000000000000, -0.0000000000000000000, -1.000000000000000000 ) ) ;
#332 = VECTOR ( 'NONE', #81, 1000.000000000000000 ) ;
#333 = DIRECTION ( 'NONE',  ( 0.0000000000000000000, 0.0000000000000000000, 1.000000000000000000 ) ) ;
#334 = ORIENTED_EDGE ( 'NONE', *, *, #151, .F. ) ;
#335 = ADVANCED_FACE ( 'NONE', ( #77 ), #826, .T. ) ;
#336 = EDGE_CURVE ( 'NONE', #839, #32, #403, .T. ) ;
#337 = CARTESIAN_POINT ( 'NONE',  ( -11.50000000000000000, 6.750000000000000000, 4.000000000000000000 ) ) ;
#338 = LINE ( 'NONE', #660, #190 ) ;
#339 = DIRECTION ( 'NONE',  ( 1.000000000000000000, 0.0000000000000000000, -0.0000000000000000000 ) ) ;
#340 = VERTEX_POINT ( 'NONE', #103 ) ;
#341 = CARTESIAN_POINT ( 'NONE',  ( 2.499999999999995100, 16.25000000000000000, 4.000000000000000000 ) ) ;
#342 = VECTOR ( 'NONE', #43, 1000.000000000000000 ) ;
#343 = DIRECTION ( 'NONE',  ( 1.000000000000000000, 0.0000000000000000000, 0.0000000000000000000 ) ) ;
#344 = ORIENTED_EDGE ( 'NONE', *, *, #596, .F. ) ;
#345 = PERSON_AND_ORGANIZATION_ROLE ( 'creator' ) ;
#346 = DIRECTION ( 'NONE',  ( 1.000000000000000000, 0.0000000000000000000, 0.0000000000000000000 ) ) ;
#347 = VECTOR ( 'NONE', #743, 1000.000000000000000 ) ;
#348 = CARTESIAN_POINT ( 'NONE',  ( 0.0000000000000000000, 36.50000000000000000, 0.0000000000000000000 ) ) ;
#349 = LINE ( 'NONE', #325, #330 ) ;
#350 = VECTOR ( 'NONE', #422, 1000.000000000000000 ) ;
#351 = CARTESIAN_POINT ( 'NONE',  ( 0.0000000000000000000, 36.50000000000000000, 4.000000000000000000 ) ) ;
#352 = CARTESIAN_POINT ( 'NONE',  ( -12.75000000000000000, -1.352632321270019900E-015, 0.0000000000000000000 ) ) ;
#353 = EDGE_CURVE ( 'NONE', #648, #780, #311, .T. ) ;
#354 = CARTESIAN_POINT ( 'NONE',  ( 8.999999999999998200, 16.25000000000000000, 0.0000000000000000000 ) ) ;
#355 = ORIENTED_EDGE ( 'NONE', *, *, #653, .F. ) ;
#356 = CARTESIAN_POINT ( 'NONE',  ( -8.500000000000000000, 9.150000000000000400, 4.000000000000000000 ) ) ;
#357 = ORIENTED_EDGE ( 'NONE', *, *, #134, .F. ) ;
#358 = CARTESIAN_POINT ( 'NONE',  ( 0.0000000000000000000, 36.50000000000000000, 0.0000000000000000000 ) ) ;
#359 = ORIENTED_EDGE ( 'NONE', *, *, #336, .T. ) ;
#360 = VECTOR ( 'NONE', #724, 1000.000000000000000 ) ;
#361 = AXIS2_PLACEMENT_3D ( 'NONE', #681, #408, #18 ) ;
#362 = CARTESIAN_POINT ( 'NONE',  ( 5.749999999999997300, 16.25000000000000000, 4.000000000000000000 ) ) ;
#363 = UNCERTAINTY_MEASURE_WITH_UNIT (LENGTH_MEASURE( 1.000000000000000100E-005 ), #794, 'distance_accuracy_value', 'NONE');
#364 = ORIENTED_EDGE ( 'NONE', *, *, #746, .T. ) ;
#365 = CIRCLE ( 'NONE', #107, 15.50000000000000000 ) ;
#366 = CARTESIAN_POINT ( 'NONE',  ( 0.0000000000000000000, 36.50000000000000000, 0.0000000000000000000 ) ) ;
#367 = CARTESIAN_POINT ( 'NONE',  ( 12.75000000000000000, 2.999999999999996900, 4.000000000000000000 ) ) ;
#368 = CARTESIAN_POINT ( 'NONE',  ( 0.0000000000000000000, 36.50000000000000000, 0.0000000000000000000 ) ) ;
#369 = EDGE_CURVE ( 'NONE', #186, #421, #624, .T. ) ;
#370 = AXIS2_PLACEMENT_3D ( 'NONE', #672, #148, #156 ) ;
#371 = CIRCLE ( 'NONE', #622, 3.250000000000001300 ) ;
#372 = ORIENTED_EDGE ( 'NONE', *, *, #353, .T. ) ;
#373 = DIRECTION ( 'NONE',  ( -0.9486832980505138800, -0.3162277660168378900, 0.0000000000000000000 ) ) ;
#374 = ORIENTED_EDGE ( 'NONE', *, *, #369, .T. ) ;
#375 = PRODUCT_DEFINITION ( 'UNKNOWN', '', #820, #632 ) ;
#376 = EDGE_LOOP ( 'NONE', ( #598, #170, #621, #758, #35, #656, #256, #477 ) ) ;
#377 = VERTEX_POINT ( 'NONE', #432 ) ;
#378 = LINE ( 'NONE', #801, #347 ) ;
#379 = ORIENTED_EDGE ( 'NONE', *, *, #6, .F. ) ;
#380 = VECTOR ( 'NONE', #776, 1000.000000000000000 ) ;
#381 = EDGE_CURVE ( 'NONE', #377, #22, #145, .T. ) ;
#382 = ORIENTED_EDGE ( 'NONE', *, *, #618, .F. ) ;
#383 = AXIS2_PLACEMENT_3D ( 'NONE', #663, #601, #346 ) ;
#384 = DIRECTION ( 'NONE',  ( -0.0000000000000000000, -0.0000000000000000000, -1.000000000000000000 ) ) ;
#385 = VECTOR ( 'NONE', #435, 1000.000000000000000 ) ;
#386 = CYLINDRICAL_SURFACE ( 'NONE', #301, 15.50000000000000000 ) ;
#387 = CARTESIAN_POINT ( 'NONE',  ( 12.75000000000000000, 2.999999999999996900, 4.000000000000000000 ) ) ;
#388 = ADVANCED_FACE ( 'NONE', ( #303 ), #126, .F. ) ;
#389 = EDGE_CURVE ( 'NONE', #263, #180, #365, .T. ) ;
#390 = DIRECTION ( 'NONE',  ( 1.000000000000000000, 0.0000000000000000000, -0.0000000000000000000 ) ) ;
#391 = CARTESIAN_POINT ( 'NONE',  ( -12.75000000000000000, 2.999999999999998700, 4.000000000000000000 ) ) ;
#392 = CARTESIAN_POINT ( 'NONE',  ( -12.75000000000000000, 2.999999999999998700, 4.000000000000000000 ) ) ;
#393 = LINE ( 'NONE', #720, #723 ) ;
#394 = DIRECTION ( 'NONE',  ( -0.0000000000000000000, -0.0000000000000000000, -1.000000000000000000 ) ) ;
#395 = VECTOR ( 'NONE', #217, 1000.000000000000000 ) ;
#396 = EDGE_CURVE ( 'NONE', #462, #318, #157, .T. ) ;
#397 = CARTESIAN_POINT ( 'NONE',  ( -11.50000000000000400, 26.10769515458674000, 4.000000000000000000 ) ) ;
#398 = CARTESIAN_POINT ( 'NONE',  ( -2.000000000000000000, 14.14999999999999900, 4.000000000000000000 ) ) ;
#399 = DIRECTION ( 'NONE',  ( 0.0000000000000000000, 0.0000000000000000000, 1.000000000000000000 ) ) ;
#400 = ORIENTED_EDGE ( 'NONE', *, *, #827, .T. ) ;
#401 = APPLICATION_CONTEXT ( 'configuration controlled 3d designs of mechanical parts and assemblies' ) ;
#402 = CARTESIAN_POINT ( 'NONE',  ( 0.0000000000000000000, 36.50000000000000000, 0.0000000000000000000 ) ) ;
#403 = LINE ( 'NONE', #495, #56 ) ;
#404 = VERTEX_POINT ( 'NONE', #627 ) ;
#405 = EDGE_CURVE ( 'NONE', #462, #809, #690, .T. ) ;
#406 = AXIS2_PLACEMENT_3D ( 'NONE', #719, #384, #595 ) ;
#407 = DIRECTION ( 'NONE',  ( 0.0000000000000000000, 0.0000000000000000000, -1.000000000000000000 ) ) ;
#408 = DIRECTION ( 'NONE',  ( 0.0000000000000000000, 0.0000000000000000000, 1.000000000000000000 ) ) ;
#409 = DIRECTION ( 'NONE',  ( -1.000000000000000000, 0.0000000000000000000, 0.0000000000000000000 ) ) ;
#410 = ORIENTED_EDGE ( 'NONE', *, *, #823, .T. ) ;
#411 = CARTESIAN_POINT ( 'NONE',  ( 2.499999999999995100, 16.25000000000000000, 4.000000000000000000 ) ) ;
#412 = CC_DESIGN_PERSON_AND_ORGANIZATION_ASSIGNMENT ( #44, #797, ( #820 ) ) ;
#413 = ORIENTED_EDGE ( 'NONE', *, *, #772, .T. ) ;
#414 = APPROVAL_PERSON_ORGANIZATION ( #488, #429, #273 ) ;
#415 = ORIENTED_EDGE ( 'NONE', *, *, #420, .F. ) ;
#416 = VECTOR ( 'NONE', #733, 1000.000000000000000 ) ;
#417 = DIRECTION ( 'NONE',  ( -0.0000000000000000000, -1.000000000000000000, -0.0000000000000000000 ) ) ;
#418 = LINE ( 'NONE', #4, #57 ) ;
#419 = DIRECTION ( 'NONE',  ( -0.0000000000000000000, -0.0000000000000000000, -1.000000000000000000 ) ) ;
#420 = EDGE_CURVE ( 'NONE', #229, #263, #497, .T. ) ;
#421 = VERTEX_POINT ( 'NONE', #305 ) ;
#422 = DIRECTION ( 'NONE',  ( -0.0000000000000000000, -0.0000000000000000000, -1.000000000000000000 ) ) ;
#423 = CARTESIAN_POINT ( 'NONE',  ( -11.50000000000000000, 6.750000000000000000, 4.000000000000000000 ) ) ;
#424 = AXIS2_PLACEMENT_3D ( 'NONE', #362, #609, #26 ) ;
#425 = DIRECTION ( 'NONE',  ( 0.0000000000000000000, 0.0000000000000000000, 1.000000000000000000 ) ) ;
#426 = LINE ( 'NONE', #270, #258 ) ;
#427 = EDGE_LOOP ( 'NONE', ( #528, #143, #818, #805 ) ) ;
#428 = PLANE ( 'NONE',  #512 ) ;
#429 = APPROVAL ( #666, 'UNSPECIFIED' ) ;
#430 = DIRECTION ( 'NONE',  ( 1.000000000000000000, 0.0000000000000000000, 0.0000000000000000000 ) ) ;
#431 = ORIENTED_EDGE ( 'NONE', *, *, #559, .T. ) ;
#432 = CARTESIAN_POINT ( 'NONE',  ( -11.50000000000000400, 26.10769515458674000, 4.000000000000000000 ) ) ;
#433 = ORIENTED_EDGE ( 'NONE', *, *, #849, .F. ) ;
#434 = EDGE_CURVE ( 'NONE', #845, #600, #104, .T. ) ;
#435 = DIRECTION ( 'NONE',  ( -0.0000000000000000000, -0.0000000000000000000, -1.000000000000000000 ) ) ;
#436 = FACE_OUTER_BOUND ( 'NONE', #272, .T. ) ;
#437 = FACE_OUTER_BOUND ( 'NONE', #796, .T. ) ;
#438 = DIRECTION ( 'NONE',  ( -1.084202172485503900E-016, 1.000000000000000000, 0.0000000000000000000 ) ) ;
#439 = AXIS2_PLACEMENT_3D ( 'NONE', #154, #558, #294 ) ;
#440 = EDGE_LOOP ( 'NONE', ( #516, #711, #286, #176 ) ) ;
#441 = ORIENTED_EDGE ( 'NONE', *, *, #326, .T. ) ;
#442 = PERSON_AND_ORGANIZATION ( #246, #505 ) ;
#443 = VECTOR ( 'NONE', #108, 1000.000000000000000 ) ;
#444 = DIRECTION ( 'NONE',  ( 0.0000000000000000000, 0.0000000000000000000, 1.000000000000000000 ) ) ;
#445 = CIRCLE ( 'NONE', #327, 3.250000000000000400 ) ;
#446 = EDGE_CURVE ( 'NONE', #142, #279, #469, .T. ) ;
#447 = ORIENTED_EDGE ( 'NONE', *, *, #312, .T. ) ;
#448 = AXIS2_PLACEMENT_3D ( 'NONE', #518, #716, #524 ) ;
#449 = DIRECTION ( 'NONE',  ( 1.000000000000000000, 0.0000000000000000000, 0.0000000000000000000 ) ) ;
#450 = CARTESIAN_POINT ( 'NONE',  ( 8.999999999999998200, 16.25000000000000000, 4.000000000000000000 ) ) ;
#451 = ORIENTED_EDGE ( 'NONE', *, *, #768, .T. ) ;
#452 = LOCAL_TIME ( 15, 58, 2.000000000000000000, #155 ) ;
#453 = DATE_AND_TIME ( #634, #721 ) ;
#454 = CARTESIAN_POINT ( 'NONE',  ( -12.75000000000000000, -1.352632321270019900E-015, 4.000000000000000000 ) ) ;
#455 = CYLINDRICAL_SURFACE ( 'NONE', #603, 15.50000000000000000 ) ;
#456 = CC_DESIGN_APPROVAL ( #429, ( #820 ) ) ;
#457 = CARTESIAN_POINT ( 'NONE',  ( 11.50000000000000000, 6.749999999999996400, 4.000000000000000000 ) ) ;
#458 = ORIENTED_EDGE ( 'NONE', *, *, #756, .T. ) ;
#459 = DIRECTION ( 'NONE',  ( -1.000000000000000000, 0.0000000000000000000, 0.0000000000000000000 ) ) ;
#460 = CARTESIAN_POINT ( 'NONE',  ( -2.000000000000000000, 14.14999999999999900, 4.000000000000000000 ) ) ;
#461 = VERTEX_POINT ( 'NONE', #185 ) ;
#462 = VERTEX_POINT ( 'NONE', #752 ) ;
#463 = EDGE_CURVE ( 'NONE', #88, #557, #509, .T. ) ;
#464 = DIRECTION ( 'NONE',  ( -0.0000000000000000000, -0.0000000000000000000, -1.000000000000000000 ) ) ;
#465 = DIRECTION ( 'NONE',  ( 1.000000000000000000, 0.0000000000000000000, 0.0000000000000000000 ) ) ;
#466 = ORIENTED_EDGE ( 'NONE', *, *, #151, .T. ) ;
#467 = CYLINDRICAL_SURFACE ( 'NONE', #124, 14.00000000000000200 ) ;
#468 = PLANE ( 'NONE',  #544 ) ;
#469 = LINE ( 'NONE', #322, #385 ) ;
#470 = MECHANICAL_CONTEXT ( 'NONE', #401, 'mechanical' ) ;
#471 = CARTESIAN_POINT ( 'NONE',  ( 12.75000000000000000, -1.352632321270019100E-015, 4.000000000000000000 ) ) ;
#472 = CARTESIAN_POINT ( 'NONE',  ( 12.75000000000000000, 2.999999999999996900, 4.000000000000000000 ) ) ;
#473 = PERSON_AND_ORGANIZATION_ROLE ( 'classification_officer' ) ;
#474 = DIRECTION ( 'NONE',  ( 0.0000000000000000000, 0.0000000000000000000, 1.000000000000000000 ) ) ;
#475 = ORIENTED_EDGE ( 'NONE', *, *, #714, .T. ) ;
#476 = SECURITY_CLASSIFICATION_LEVEL ( 'unclassified' ) ;
#477 = ORIENTED_EDGE ( 'NONE', *, *, #542, .F. ) ;
#478 = LINE ( 'NONE', #337, #589 ) ;
#479 = ORIENTED_EDGE ( 'NONE', *, *, #27, .F. ) ;
#480 = LINE ( 'NONE', #587, #200 ) ;
#481 = ORIENTED_EDGE ( 'NONE', *, *, #434, .T. ) ;
#482 = CARTESIAN_POINT ( 'NONE',  ( 14.00000000000000200, 36.50000000000000000, 4.000000000000000000 ) ) ;
#483 = CARTESIAN_POINT ( 'NONE',  ( 8.999999999999998200, 16.25000000000000000, 4.000000000000000000 ) ) ;
#484 = EDGE_CURVE ( 'NONE', #780, #32, #136, .T. ) ;
#485 = CARTESIAN_POINT ( 'NONE',  ( 12.75000000000000000, 2.999999999999996900, 0.0000000000000000000 ) ) ;
#486 = ORIENTED_EDGE ( 'NONE', *, *, #353, .F. ) ;
#487 = EDGE_LOOP ( 'NONE', ( #290, #433, #315, #227 ) ) ;
#488 = PERSON_AND_ORGANIZATION ( #246, #505 ) ;
#489 = DIRECTION ( 'NONE',  ( -0.0000000000000000000, -1.000000000000000000, -0.0000000000000000000 ) ) ;
#490 = VECTOR ( 'NONE', #232, 1000.000000000000000 ) ;
#491 = VERTEX_POINT ( 'NONE', #502 ) ;
#492 = EDGE_CURVE ( 'NONE', #318, #88, #771, .T. ) ;
#493 = PERSON_AND_ORGANIZATION ( #246, #505 ) ;
#494 = AXIS2_PLACEMENT_3D ( 'NONE', #847, #394, #459 ) ;
#495 = CARTESIAN_POINT ( 'NONE',  ( 9.000000000000000000, 8.249999999999996400, 4.000000000000000000 ) ) ;
#496 = CYLINDRICAL_SURFACE ( 'NONE', #172, 14.00000000000000200 ) ;
#497 = CIRCLE ( 'NONE', #86, 15.50000000000000000 ) ;
#498 = ORIENTED_EDGE ( 'NONE', *, *, #184, .F. ) ;
#499 = DIRECTION ( 'NONE',  ( -1.000000000000000000, 0.0000000000000000000, 0.0000000000000000000 ) ) ;
#500 = ORIENTED_EDGE ( 'NONE', *, *, #276, .T. ) ;
#501 = ORIENTED_EDGE ( 'NONE', *, *, #583, .T. ) ;
#502 = CARTESIAN_POINT ( 'NONE',  ( 12.75000000000000000, -1.352632321270019100E-015, 0.0000000000000000000 ) ) ;
#503 = ADVANCED_FACE ( 'NONE', ( #605 ), #117, .T. ) ;
#504 = CC_DESIGN_PERSON_AND_ORGANIZATION_ASSIGNMENT ( #442, #345, ( #820 ) ) ;
#505 = ORGANIZATION ( 'UNSPECIFIED', 'UNSPECIFIED', '' ) ;
#506 = EDGE_CURVE ( 'NONE', #706, #49, #371, .T. ) ;
#507 = ORIENTED_EDGE ( 'NONE', *, *, #6, .T. ) ;
#508 = DIRECTION ( 'NONE',  ( 1.000000000000000000, 0.0000000000000000000, 0.0000000000000000000 ) ) ;
#509 = LINE ( 'NONE', #316, #342 ) ;
#510 = ORIENTED_EDGE ( 'NONE', *, *, #701, .T. ) ;
#511 = ADVANCED_FACE ( 'NONE', ( #171, #677, #287 ), #766, .F. ) ;
#512 = AXIS2_PLACEMENT_3D ( 'NONE', #178, #109, #822 ) ;
#513 = EDGE_LOOP ( 'NONE', ( #204, #235, #158, #166 ) ) ;
#514 = DIRECTION ( 'NONE',  ( 0.9486832980505138800, -0.3162277660168377200, 0.0000000000000000000 ) ) ;
#515 = CALENDAR_DATE ( 2018, 4, 11 ) ;
#516 = ORIENTED_EDGE ( 'NONE', *, *, #618, .T. ) ;
#517 = LINE ( 'NONE', #84, #581 ) ;
#518 = CARTESIAN_POINT ( 'NONE',  ( 0.0000000000000000000, 36.50000000000000000, 4.000000000000000000 ) ) ;
#519 = CIRCLE ( 'NONE', #561, 14.00000000000000200 ) ;
#520 = PLANE ( 'NONE',  #841 ) ;
#521 = EDGE_CURVE ( 'NONE', #784, #658, #219, .T. ) ;
#522 = DIRECTION ( 'NONE',  ( 0.0000000000000000000, 0.0000000000000000000, 1.000000000000000000 ) ) ;
#523 = ORIENTED_EDGE ( 'NONE', *, *, #420, .T. ) ;
#524 = DIRECTION ( 'NONE',  ( -1.000000000000000000, 0.0000000000000000000, 0.0000000000000000000 ) ) ;
#525 = PLANE ( 'NONE',  #790 ) ;
#526 = ORIENTED_EDGE ( 'NONE', *, *, #446, .F. ) ;
#527 = APPROVAL_DATE_TIME ( #704, #429 ) ;
#528 = ORIENTED_EDGE ( 'NONE', *, *, #675, .T. ) ;
#529 = EDGE_CURVE ( 'NONE', #557, #404, #833, .T. ) ;
#530 = DIRECTION ( 'NONE',  ( 1.000000000000000000, 3.021066579430958400E-032, -0.0000000000000000000 ) ) ;
#531 = CYLINDRICAL_SURFACE ( 'NONE', #494, 3.250000000000000400 ) ;
#532 = ORIENTED_EDGE ( 'NONE', *, *, #101, .F. ) ;
#533 = CARTESIAN_POINT ( 'NONE',  ( 12.75000000000000000, -1.352632321270019100E-015, 4.000000000000000000 ) ) ;
#534 = CLOSED_SHELL ( 'NONE', ( #844, #50, #594, #129, #64, #511, #61, #133, #297, #321, #650, #244, #782, #563, #586, #335, #843, #692, #195, #770, #388, #503, #580, #205 ) ) ;
#535 = APPROVAL_ROLE ( '' ) ;
#536 = CARTESIAN_POINT ( 'NONE',  ( 12.75000000000000000, -1.352632321270019100E-015, 0.0000000000000000000 ) ) ;
#537 = CARTESIAN_POINT ( 'NONE',  ( 0.0000000000000000000, 36.50000000000000000, 4.000000000000000000 ) ) ;
#538 = DIRECTION ( 'NONE',  ( 1.000000000000000000, 0.0000000000000000000, 0.0000000000000000000 ) ) ;
#539 = VECTOR ( 'NONE', #636, 1000.000000000000000 ) ;
#540 = CARTESIAN_POINT ( 'NONE',  ( 8.999999999999998200, 16.25000000000000000, 4.000000000000000000 ) ) ;
#541 = CARTESIAN_POINT ( 'NONE',  ( -11.50000000000000000, 6.750000000000000000, 0.0000000000000000000 ) ) ;
#542 = EDGE_CURVE ( 'NONE', #591, #142, #697, .T. ) ;
#543 = FACE_OUTER_BOUND ( 'NONE', #713, .T. ) ;
#544 = AXIS2_PLACEMENT_3D ( 'NONE', #597, #390, #69 ) ;
#545 = CARTESIAN_POINT ( 'NONE',  ( -12.75000000000000000, 2.999999999999998700, 4.000000000000000000 ) ) ;
#546 = DIRECTION ( 'NONE',  ( 0.0000000000000000000, 1.000000000000000000, 0.0000000000000000000 ) ) ;
#547 = DATE_TIME_ROLE ( 'creation_date' ) ;
#548 = DIRECTION ( 'NONE',  ( -3.021066579430959000E-032, 1.000000000000000000, 0.0000000000000000000 ) ) ;
#549 = ORIENTED_EDGE ( 'NONE', *, *, #484, .F. ) ;
#550 = ORIENTED_EDGE ( 'NONE', *, *, #492, .T. ) ;
#551 = DIRECTION ( 'NONE',  ( -0.0000000000000000000, -0.0000000000000000000, -1.000000000000000000 ) ) ;
#552 = COORDINATED_UNIVERSAL_TIME_OFFSET ( 1, 0, .AHEAD. ) ;
#553 = ORIENTED_EDGE ( 'NONE', *, *, #772, .F. ) ;
#554 = DIRECTION ( 'NONE',  ( -0.0000000000000000000, -0.0000000000000000000, -1.000000000000000000 ) ) ;
#555 = LINE ( 'NONE', #540, #350 ) ;
#556 = CC_DESIGN_PERSON_AND_ORGANIZATION_ASSIGNMENT ( #647, #153, ( #194 ) ) ;
#557 = VERTEX_POINT ( 'NONE', #192 ) ;
#558 = DIRECTION ( 'NONE',  ( -0.0000000000000000000, -0.0000000000000000000, -1.000000000000000000 ) ) ;
#559 = EDGE_CURVE ( 'NONE', #767, #638, #349, .T. ) ;
#560 = DIRECTION ( 'NONE',  ( 0.0000000000000000000, 0.0000000000000000000, 1.000000000000000000 ) ) ;
#561 = AXIS2_PLACEMENT_3D ( 'NONE', #23, #745, #742 ) ;
#562 = DIRECTION ( 'NONE',  ( 0.0000000000000000000, 0.0000000000000000000, 1.000000000000000000 ) ) ;
#563 = ADVANCED_FACE ( 'NONE', ( #115 ), #645, .F. ) ;
#564 = CARTESIAN_POINT ( 'NONE',  ( -8.500000000000000000, 9.150000000000000400, 4.000000000000000000 ) ) ;
#565 = VECTOR ( 'NONE', #100, 1000.000000000000000 ) ;
#566 = VECTOR ( 'NONE', #90, 1000.000000000000000 ) ;
#567 = APPROVAL_ROLE ( '' ) ;
#568 = DIRECTION ( 'NONE',  ( 0.3162277660168378900, -0.9486832980505138800, 0.0000000000000000000 ) ) ;
#569 = EDGE_CURVE ( 'NONE', #99, #461, #480, .T. ) ;
#570 = FACE_OUTER_BOUND ( 'NONE', #131, .T. ) ;
#571 = EDGE_LOOP ( 'NONE', ( #139, #372, #68, #857 ) ) ;
#572 = MANIFOLD_SOLID_BREP ( 'Dodanie-wyciπgniÍcie1', #534 ) ;
#573 = LINE ( 'NONE', #397, #380 ) ;
#574 = CIRCLE ( 'NONE', #715, 14.00000000000000200 ) ;
#575 = DIRECTION ( 'NONE',  ( 0.0000000000000000000, 0.0000000000000000000, 1.000000000000000000 ) ) ;
#576 = ORIENTED_EDGE ( 'NONE', *, *, #208, .T. ) ;
#577 = DIRECTION ( 'NONE',  ( 1.000000000000000000, 0.0000000000000000000, -0.0000000000000000000 ) ) ;
#578 = ORIENTED_EDGE ( 'NONE', *, *, #254, .T. ) ;
#579 = VERTEX_POINT ( 'NONE', #454 ) ;
#580 = ADVANCED_FACE ( 'NONE', ( #649 ), #661, .F. ) ;
#581 = VECTOR ( 'NONE', #620, 1000.000000000000000 ) ;
#582 = LINE ( 'NONE', #667, #67 ) ;
#583 = EDGE_CURVE ( 'NONE', #639, #845, #781, .T. ) ;
#584 = AXIS2_PLACEMENT_3D ( 'NONE', #457, #585, #333 ) ;
#585 = DIRECTION ( 'NONE',  ( -1.000000000000000000, 0.0000000000000000000, 0.0000000000000000000 ) ) ;
#586 = ADVANCED_FACE ( 'NONE', ( #760 ), #531, .F. ) ;
#587 = CARTESIAN_POINT ( 'NONE',  ( -7.000000000000000900, 16.88861278752583000, 0.0000000000000000000 ) ) ;
#588 = ORIENTED_EDGE ( 'NONE', *, *, #521, .T. ) ;
#589 = VECTOR ( 'NONE', #850, 1000.000000000000000 ) ;
#590 = CARTESIAN_POINT ( 'NONE',  ( -15.50000000000000000, 36.50000000000000000, 4.000000000000000000 ) ) ;
#591 = VERTEX_POINT ( 'NONE', #138 ) ;
#592 = LINE ( 'NONE', #264, #678 ) ;
#593 = CYLINDRICAL_SURFACE ( 'NONE', #439, 3.250000000000001300 ) ;
#594 = ADVANCED_FACE ( 'NONE', ( #436 ), #210, .T. ) ;
#595 = DIRECTION ( 'NONE',  ( -1.000000000000000000, 0.0000000000000000000, 0.0000000000000000000 ) ) ;
#596 = EDGE_CURVE ( 'NONE', #491, #840, #426, .T. ) ;
#597 = CARTESIAN_POINT ( 'NONE',  ( -8.500000000000000000, 14.14999999999999900, 4.000000000000000000 ) ) ;
#598 = ORIENTED_EDGE ( 'NONE', *, *, #224, .F. ) ;
#599 = EDGE_LOOP ( 'NONE', ( #526, #703, #374, #683 ) ) ;
#600 = VERTEX_POINT ( 'NONE', #799 ) ;
#601 = DIRECTION ( 'NONE',  ( 0.0000000000000000000, 0.0000000000000000000, 1.000000000000000000 ) ) ;
#602 = DIRECTION ( 'NONE',  ( -2.602085213965211100E-016, 1.000000000000000000, -0.0000000000000000000 ) ) ;
#603 = AXIS2_PLACEMENT_3D ( 'NONE', #97, #164, #409 ) ;
#604 = DIRECTION ( 'NONE',  ( 0.0000000000000000000, 0.0000000000000000000, 1.000000000000000000 ) ) ;
#605 = FACE_OUTER_BOUND ( 'NONE', #652, .T. ) ;
#606 = ORIENTED_EDGE ( 'NONE', *, *, #254, .F. ) ;
#607 = CARTESIAN_POINT ( 'NONE',  ( -15.50000000000000000, 36.50000000000000000, 4.000000000000000000 ) ) ;
#608 = APPLICATION_PROTOCOL_DEFINITION ( 'international standard', 'config_control_design', 1994, #15 ) ;
#609 = DIRECTION ( 'NONE',  ( 0.0000000000000000000, 0.0000000000000000000, 1.000000000000000000 ) ) ;
#610 = DATE_TIME_ROLE ( 'classification_date' ) ;
#611 = DIRECTION ( 'NONE',  ( -0.0000000000000000000, -0.0000000000000000000, -1.000000000000000000 ) ) ;
#612 = ORIENTED_EDGE ( 'NONE', *, *, #184, .T. ) ;
#613 = LOCAL_TIME ( 15, 58, 2.000000000000000000, #216 ) ;
#614 = COORDINATED_UNIVERSAL_TIME_OFFSET ( 1, 0, .AHEAD. ) ;
#615 = CARTESIAN_POINT ( 'NONE',  ( 2.499999999999995100, 16.25000000000000000, 4.000000000000000000 ) ) ;
#616 = FACE_OUTER_BOUND ( 'NONE', #513, .T. ) ;
#617 = CARTESIAN_POINT ( 'NONE',  ( 12.75000000000000000, -1.352632321270019100E-015, 4.000000000000000000 ) ) ;
#618 = EDGE_CURVE ( 'NONE', #180, #175, #94, .T. ) ;
#619 = FACE_OUTER_BOUND ( 'NONE', #183, .T. ) ;
#620 = DIRECTION ( 'NONE',  ( -0.0000000000000000000, -0.0000000000000000000, -1.000000000000000000 ) ) ;
#621 = ORIENTED_EDGE ( 'NONE', *, *, #463, .F. ) ;
#622 = AXIS2_PLACEMENT_3D ( 'NONE', #705, #769, #319 ) ;
#623 = LINE ( 'NONE', #460, #659 ) ;
#624 = LINE ( 'NONE', #308, #490 ) ;
#625 = CC_DESIGN_PERSON_AND_ORGANIZATION_ASSIGNMENT ( #779, #734, ( #375 ) ) ;
#626 = CIRCLE ( 'NONE', #757, 15.50000000000000000 ) ;
#627 = CARTESIAN_POINT ( 'NONE',  ( -7.000000000000000900, 16.88861278752583000, 4.000000000000000000 ) ) ;
#628 = CARTESIAN_POINT ( 'NONE',  ( -8.499999999999991100, 25.37570226935649500, 4.000000000000000000 ) ) ;
#629 = EDGE_CURVE ( 'NONE', #658, #263, #63, .T. ) ;
#630 = AXIS2_PLACEMENT_3D ( 'NONE', #351, #218, #813 ) ;
#631 = DIRECTION ( 'NONE',  ( -0.3162277660168377200, -0.9486832980505138800, -0.0000000000000000000 ) ) ;
#632 = DESIGN_CONTEXT ( 'detailed design', #15, 'design' ) ;
#633 = ORIENTED_EDGE ( 'NONE', *, *, #336, .F. ) ;
#634 = CALENDAR_DATE ( 2018, 4, 11 ) ;
#635 = EDGE_LOOP ( 'NONE', ( #778, #300, #747, #120 ) ) ;
#636 = DIRECTION ( 'NONE',  ( -0.0000000000000000000, -0.0000000000000000000, -1.000000000000000000 ) ) ;
#637 = VECTOR ( 'NONE', #700, 1000.000000000000000 ) ;
#638 = VERTEX_POINT ( 'NONE', #9 ) ;
#639 = VERTEX_POINT ( 'NONE', #472 ) ;
#640 = APPROVAL ( #87, 'UNSPECIFIED' ) ;
#641 = EDGE_CURVE ( 'NONE', #49, #340, #241, .T. ) ;
#642 = VECTOR ( 'NONE', #489, 1000.000000000000000 ) ;
#643 = AXIS2_PLACEMENT_3D ( 'NONE', #368, #560, #112 ) ;
#644 = ORIENTED_EDGE ( 'NONE', *, *, #234, .T. ) ;
#645 = PLANE ( 'NONE',  #198 ) ;
#646 = CC_DESIGN_APPROVAL ( #640, ( #375 ) ) ;
#647 = PERSON_AND_ORGANIZATION ( #246, #505 ) ;
#648 = VERTEX_POINT ( 'NONE', #259 ) ;
#649 = FACE_OUTER_BOUND ( 'NONE', #328, .T. ) ;
#650 = ADVANCED_FACE ( 'NONE', ( #46 ), #786, .F. ) ;
#651 = DIRECTION ( 'NONE',  ( 0.0000000000000000000, 0.0000000000000000000, -1.000000000000000000 ) ) ;
#652 = EDGE_LOOP ( 'NONE', ( #486, #773, #466, #679 ) ) ;
#653 = EDGE_CURVE ( 'NONE', #404, #99, #393, .T. ) ;
#654 = DIRECTION ( 'NONE',  ( 0.0000000000000000000, 1.000000000000000000, 0.0000000000000000000 ) ) ;
#655 = ORIENTED_EDGE ( 'NONE', *, *, #101, .T. ) ;
#656 = ORIENTED_EDGE ( 'NONE', *, *, #197, .F. ) ;
#657 = CARTESIAN_POINT ( 'NONE',  ( -12.75000000000000000, -1.352632321270019900E-015, 4.000000000000000000 ) ) ;
#658 = VERTEX_POINT ( 'NONE', #590 ) ;
#659 = VECTOR ( 'NONE', #464, 1000.000000000000000 ) ;
#660 = CARTESIAN_POINT ( 'NONE',  ( -7.000000000000000900, 24.37564434701785700, 4.000000000000000000 ) ) ;
#661 = CYLINDRICAL_SURFACE ( 'NONE', #406, 3.250000000000001800 ) ;
#662 = DIRECTION ( 'NONE',  ( -0.0000000000000000000, -0.0000000000000000000, -1.000000000000000000 ) ) ;
#663 = CARTESIAN_POINT ( 'NONE',  ( 5.749999999999997300, 8.249999999999996400, 4.000000000000000000 ) ) ;
#664 = PRODUCT_RELATED_PRODUCT_CATEGORY ( 'detail', '', ( #194 ) ) ;
#665 = CARTESIAN_POINT ( 'NONE',  ( -11.50000000000000000, 6.750000000000000000, 0.0000000000000000000 ) ) ;
#666 = APPROVAL_STATUS ( 'not_yet_approved' ) ;
#667 = CARTESIAN_POINT ( 'NONE',  ( 12.75000000000000000, 2.999999999999996900, 0.0000000000000000000 ) ) ;
#668 = ORIENTED_EDGE ( 'NONE', *, *, #506, .F. ) ;
#669 = DIRECTION ( 'NONE',  ( -0.0000000000000000000, -0.0000000000000000000, -1.000000000000000000 ) ) ;
#670 = CARTESIAN_POINT ( 'NONE',  ( -8.499999999999991100, 25.37570226935649500, 0.0000000000000000000 ) ) ;
#671 = APPROVAL_DATE_TIME ( #226, #324 ) ;
#672 = CARTESIAN_POINT ( 'NONE',  ( 0.0000000000000000000, 36.50000000000000000, 4.000000000000000000 ) ) ;
#673 = CIRCLE ( 'NONE', #34, 14.00000000000000200 ) ;
#674 = CARTESIAN_POINT ( 'NONE',  ( -14.00000000000000200, 36.50000000000000000, 4.000000000000000000 ) ) ;
#675 = EDGE_CURVE ( 'NONE', #750, #787, #592, .T. ) ;
#676 = CARTESIAN_POINT ( 'NONE',  ( 11.50000000000000000, 26.10769515458673600, 4.000000000000000000 ) ) ;
#677 = FACE_OUTER_BOUND ( 'NONE', #728, .T. ) ;
#678 = VECTOR ( 'NONE', #654, 1000.000000000000000 ) ;
#679 = ORIENTED_EDGE ( 'NONE', *, *, #165, .T. ) ;
#680 = CARTESIAN_POINT ( 'NONE',  ( 5.749999999999997300, 16.25000000000000000, 0.0000000000000000000 ) ) ;
#681 = CARTESIAN_POINT ( 'NONE',  ( 0.0000000000000000000, 36.50000000000000000, 4.000000000000000000 ) ) ;
#682 = APPLICATION_PROTOCOL_DEFINITION ( 'international standard', 'config_control_design', 1994, #401 ) ;
#683 = ORIENTED_EDGE ( 'NONE', *, *, #85, .F. ) ;
#684 = CARTESIAN_POINT ( 'NONE',  ( 12.75000000000000000, -1.352632321270019100E-015, 4.000000000000000000 ) ) ;
#685 = CARTESIAN_POINT ( 'NONE',  ( 9.000000000000000000, 8.249999999999996400, 0.0000000000000000000 ) ) ;
#686 = PLANE ( 'NONE',  #852 ) ;
#687 = EDGE_LOOP ( 'NONE', ( #357, #479, #644, #130 ) ) ;
#688 = ORIENTED_EDGE ( 'NONE', *, *, #42, .F. ) ;
#689 = EDGE_CURVE ( 'NONE', #377, #180, #573, .T. ) ;
#690 = LINE ( 'NONE', #628, #539 ) ;
#691 = ORIENTED_EDGE ( 'NONE', *, *, #785, .T. ) ;
#692 = ADVANCED_FACE ( 'NONE', ( #762 ), #468, .T. ) ;
#693 = AXIS2_PLACEMENT_3D ( 'NONE', #367, #373, #568 ) ;
#694 = DIRECTION ( 'NONE',  ( -0.0000000000000000000, -0.0000000000000000000, -1.000000000000000000 ) ) ;
#695 = CARTESIAN_POINT ( 'NONE',  ( 2.499999999999995100, 16.25000000000000000, 0.0000000000000000000 ) ) ;
#696 = LINE ( 'NONE', #74, #360 ) ;
#697 = CIRCLE ( 'NONE', #140, 14.00000000000000200 ) ;
#698 = FACE_OUTER_BOUND ( 'NONE', #774, .T. ) ;
#699 = PLANE ( 'NONE',  #693 ) ;
#700 = DIRECTION ( 'NONE',  ( 0.0000000000000000000, 1.000000000000000000, 0.0000000000000000000 ) ) ;
#701 = EDGE_CURVE ( 'NONE', #340, #99, #179, .T. ) ;
#702 = DIRECTION ( 'NONE',  ( 1.000000000000000000, 0.0000000000000000000, 0.0000000000000000000 ) ) ;
#703 = ORIENTED_EDGE ( 'NONE', *, *, #837, .T. ) ;
#704 = DATE_AND_TIME ( #821, #28 ) ;
#705 = CARTESIAN_POINT ( 'NONE',  ( -5.249999999999999100, 9.150000000000000400, 0.0000000000000000000 ) ) ;
#706 = VERTEX_POINT ( 'NONE', #854 ) ;
#707 = AXIS2_PLACEMENT_3D ( 'NONE', #255, #522, #209 ) ;
#708 = DIRECTION ( 'NONE',  ( 0.0000000000000000000, 0.0000000000000000000, 1.000000000000000000 ) ) ;
#709 = VERTEX_POINT ( 'NONE', #533 ) ;
#710 = DIRECTION ( 'NONE',  ( 1.000000000000000000, 0.0000000000000000000, 0.0000000000000000000 ) ) ;
#711 = ORIENTED_EDGE ( 'NONE', *, *, #714, .F. ) ;
#712 = VECTOR ( 'NONE', #554, 1000.000000000000000 ) ;
#713 = EDGE_LOOP ( 'NONE', ( #212, #413, #836, #501, #481, #507, #588, #691, #749, #400 ) ) ;
#714 = EDGE_CURVE ( 'NONE', #22, #175, #478, .T. ) ;
#715 = AXIS2_PLACEMENT_3D ( 'NONE', #348, #474, #465 ) ;
#716 = DIRECTION ( 'NONE',  ( -0.0000000000000000000, -0.0000000000000000000, -1.000000000000000000 ) ) ;
#717 = ORIENTED_EDGE ( 'NONE', *, *, #10, .F. ) ;
#718 = CARTESIAN_POINT ( 'NONE',  ( 11.50000000000000000, 6.749999999999996400, 0.0000000000000000000 ) ) ;
#719 = CARTESIAN_POINT ( 'NONE',  ( 5.749999999999997300, 8.249999999999996400, 4.000000000000000000 ) ) ;
#720 = CARTESIAN_POINT ( 'NONE',  ( -7.000000000000000900, 16.88861278752583000, 4.000000000000000000 ) ) ;
#721 = LOCAL_TIME ( 15, 58, 2.000000000000000000, #132 ) ;
#722 = DIRECTION ( 'NONE',  ( 0.0000000000000000000, 0.0000000000000000000, 1.000000000000000000 ) ) ;
#723 = VECTOR ( 'NONE', #329, 1000.000000000000000 ) ;
#724 = DIRECTION ( 'NONE',  ( 0.0000000000000000000, -1.000000000000000000, 0.0000000000000000000 ) ) ;
#725 = VECTOR ( 'NONE', #802, 1000.000000000000000 ) ;
#726 = PLANE ( 'NONE',  #11 ) ;
#727 = ORIENTED_EDGE ( 'NONE', *, *, #827, .F. ) ;
#728 = EDGE_LOOP ( 'NONE', ( #262, #203, #382, #53, #415, #532, #231, #800, #344, #717 ) ) ;
#729 = EDGE_CURVE ( 'NONE', #162, #648, #744, .T. ) ;
#730 = CARTESIAN_POINT ( 'NONE',  ( 11.50000000000000000, 6.749999999999996400, 4.000000000000000000 ) ) ;
#731 = ORIENTED_EDGE ( 'NONE', *, *, #389, .T. ) ;
#732 = DIRECTION ( 'NONE',  ( -1.000000000000000000, 0.0000000000000000000, 0.0000000000000000000 ) ) ;
#733 = DIRECTION ( 'NONE',  ( -0.0000000000000000000, -1.000000000000000000, -0.0000000000000000000 ) ) ;
#734 = PERSON_AND_ORGANIZATION_ROLE ( 'creator' ) ;
#735 = CARTESIAN_POINT ( 'NONE',  ( 0.0000000000000000000, 36.50000000000000000, 4.000000000000000000 ) ) ;
#736 = FACE_OUTER_BOUND ( 'NONE', #253, .T. ) ;
#737 = CARTESIAN_POINT ( 'NONE',  ( 14.00000000000000200, 36.50000000000000000, 0.0000000000000000000 ) ) ;
#738 = CARTESIAN_POINT ( 'NONE',  ( -2.000000000000000000, 14.14999999999999900, 0.0000000000000000000 ) ) ;
#739 = ORIENTED_EDGE ( 'NONE', *, *, #629, .T. ) ;
#740 = DIRECTION ( 'NONE',  ( 0.0000000000000000000, 0.0000000000000000000, 1.000000000000000000 ) ) ;
#741 = CARTESIAN_POINT ( 'NONE',  ( -11.50000000000000000, 6.750000000000000000, 4.000000000000000000 ) ) ;
#742 = DIRECTION ( 'NONE',  ( 1.000000000000000000, 0.0000000000000000000, 0.0000000000000000000 ) ) ;
#743 = DIRECTION ( 'NONE',  ( -0.0000000000000000000, -1.000000000000000000, -0.0000000000000000000 ) ) ;
#744 = LINE ( 'NONE', #341, #239 ) ;
#745 = DIRECTION ( 'NONE',  ( 0.0000000000000000000, 0.0000000000000000000, 1.000000000000000000 ) ) ;
#746 = EDGE_CURVE ( 'NONE', #557, #340, #623, .T. ) ;
#747 = ORIENTED_EDGE ( 'NONE', *, *, #312, .F. ) ;
#748 = VECTOR ( 'NONE', #669, 1000.000000000000000 ) ;
#749 = ORIENTED_EDGE ( 'NONE', *, *, #381, .T. ) ;
#750 = VERTEX_POINT ( 'NONE', #718 ) ;
#751 = AXIS2_PLACEMENT_3D ( 'NONE', #188, #48, #508 ) ;
#752 = CARTESIAN_POINT ( 'NONE',  ( -8.499999999999991100, 25.37570226935649500, 4.000000000000000000 ) ) ;
#753 = CARTESIAN_POINT ( 'NONE',  ( 15.50000000000000000, 36.50000000000000000, 4.000000000000000000 ) ) ;
#754 = VECTOR ( 'NONE', #546, 1000.000000000000000 ) ;
#755 = FACE_BOUND ( 'NONE', #189, .T. ) ;
#756 = EDGE_CURVE ( 'NONE', #809, #706, #696, .T. ) ;
#757 = AXIS2_PLACEMENT_3D ( 'NONE', #402, #788, #538 ) ;
#758 = ORIENTED_EDGE ( 'NONE', *, *, #492, .F. ) ;
#759 = DATE_AND_TIME ( #91, #257 ) ;
#760 = FACE_OUTER_BOUND ( 'NONE', #60, .T. ) ;
#761 = AXIS2_PLACEMENT_3D ( 'NONE', #236, #694, #499 ) ;
#762 = FACE_OUTER_BOUND ( 'NONE', #114, .T. ) ;
#763 = DIRECTION ( 'NONE',  ( 1.000000000000000000, 0.0000000000000000000, 0.0000000000000000000 ) ) ;
#764 = ORIENTED_EDGE ( 'NONE', *, *, #701, .F. ) ;
#765 = ORIENTED_EDGE ( 'NONE', *, *, #234, .F. ) ;
#766 = PLANE ( 'NONE',  #261 ) ;
#767 = VERTEX_POINT ( 'NONE', #392 ) ;
#768 = EDGE_CURVE ( 'NONE', #591, #461, #338, .T. ) ;
#769 = DIRECTION ( 'NONE',  ( 0.0000000000000000000, 0.0000000000000000000, 1.000000000000000000 ) ) ;
#770 = ADVANCED_FACE ( 'NONE', ( #320 ), #525, .T. ) ;
#771 = CIRCLE ( 'NONE', #858, 3.250000000000001300 ) ;
#772 = EDGE_CURVE ( 'NONE', #579, #709, #266, .T. ) ;
#773 = ORIENTED_EDGE ( 'NONE', *, *, #729, .F. ) ;
#774 = EDGE_LOOP ( 'NONE', ( #668, #3, #550, #578 ) ) ;
#775 = DIRECTION ( 'NONE',  ( 0.0000000000000000000, 1.000000000000000000, 0.0000000000000000000 ) ) ;
#776 = DIRECTION ( 'NONE',  ( -0.0000000000000000000, -0.0000000000000000000, -1.000000000000000000 ) ) ;
#777 = DIRECTION ( 'NONE',  ( 0.0000000000000000000, 0.0000000000000000000, 1.000000000000000000 ) ) ;
#778 = ORIENTED_EDGE ( 'NONE', *, *, #542, .T. ) ;
#779 = PERSON_AND_ORGANIZATION ( #246, #505 ) ;
#780 = VERTEX_POINT ( 'NONE', #59 ) ;
#781 = LINE ( 'NONE', #387, #842 ) ;
#782 = ADVANCED_FACE ( 'NONE', ( #284 ), #520, .F. ) ;
#783 = LINE ( 'NONE', #730, #395 ) ;
#784 = VERTEX_POINT ( 'NONE', #859 ) ;
#785 = EDGE_CURVE ( 'NONE', #658, #377, #846, .T. ) ;
#786 = PLANE ( 'NONE',  #584 ) ;
#787 = VERTEX_POINT ( 'NONE', #807 ) ;
#788 = DIRECTION ( 'NONE',  ( 0.0000000000000000000, 0.0000000000000000000, 1.000000000000000000 ) ) ;
#789 = VERTEX_POINT ( 'NONE', #354 ) ;
#790 = AXIS2_PLACEMENT_3D ( 'NONE', #398, #213, #141 ) ;
#791 = DIRECTION ( 'NONE',  ( -0.0000000000000000000, -0.0000000000000000000, -1.000000000000000000 ) ) ;
#792 = LINE ( 'NONE', #545, #102 ) ;
#793 = CARTESIAN_POINT ( 'NONE',  ( -7.000000000000000900, 16.88861278752583000, 0.0000000000000000000 ) ) ;
#794 =( LENGTH_UNIT ( ) NAMED_UNIT ( * ) SI_UNIT ( .MILLI., .METRE. ) );
#795 = LINE ( 'NONE', #280, #754 ) ;
#796 = EDGE_LOOP ( 'NONE', ( #251, #310, #553, #500 ) ) ;
#797 = PERSON_AND_ORGANIZATION_ROLE ( 'design_supplier' ) ;
#798 = CARTESIAN_POINT ( 'NONE',  ( -11.50000000000000400, 26.10769515458674000, 0.0000000000000000000 ) ) ;
#799 = CARTESIAN_POINT ( 'NONE',  ( 11.50000000000000000, 26.10769515458673600, 4.000000000000000000 ) ) ;
#800 = ORIENTED_EDGE ( 'NONE', *, *, #118, .F. ) ;
#801 = CARTESIAN_POINT ( 'NONE',  ( -12.75000000000000000, -1.352632321270019900E-015, 4.000000000000000000 ) ) ;
#802 = DIRECTION ( 'NONE',  ( 1.000000000000000000, 3.021066579430958400E-032, -0.0000000000000000000 ) ) ;
#803 = DIRECTION ( 'NONE',  ( 1.000000000000000000, 0.0000000000000000000, 0.0000000000000000000 ) ) ;
#804 = EDGE_CURVE ( 'NONE', #767, #579, #378, .T. ) ;
#805 = ORIENTED_EDGE ( 'NONE', *, *, #52, .T. ) ;
#806 = AXIS2_PLACEMENT_3D ( 'NONE', #684, #548, #283 ) ;
#807 = CARTESIAN_POINT ( 'NONE',  ( 11.50000000000000000, 26.10769515458673600, 0.0000000000000000000 ) ) ;
#808 = VECTOR ( 'NONE', #147, 1000.000000000000000 ) ;
#809 = VERTEX_POINT ( 'NONE', #670 ) ;
#810 = VECTOR ( 'NONE', #631, 1000.000000000000100 ) ;
#811 = CARTESIAN_POINT ( 'NONE',  ( -12.75000000000000000, -1.352632321270019900E-015, 4.000000000000000000 ) ) ;
#812 = ORIENTED_EDGE ( 'NONE', *, *, #405, .F. ) ;
#813 = DIRECTION ( 'NONE',  ( 1.000000000000000000, 0.0000000000000000000, 0.0000000000000000000 ) ) ;
#814 = DIRECTION ( 'NONE',  ( 1.000000000000000000, 0.0000000000000000000, 0.0000000000000000000 ) ) ;
#815 = AXIS2_PLACEMENT_3D ( 'NONE', #358, #92, #803 ) ;
#816 = VERTEX_POINT ( 'NONE', #12 ) ;
#817 = ADVANCED_BREP_SHAPE_REPRESENTATION ( 'yaw_part_2_Domyùlna_sldprt', ( #572, #78 ), #73 ) ;
#818 = ORIENTED_EDGE ( 'NONE', *, *, #434, .F. ) ;
#819 = ORIENTED_EDGE ( 'NONE', *, *, #396, .T. ) ;
#820 = PRODUCT_DEFINITION_FORMATION_WITH_SPECIFIED_SOURCE ( 'ANY', '', #194, .NOT_KNOWN. ) ;
#821 = CALENDAR_DATE ( 2018, 4, 11 ) ;
#822 = DIRECTION ( 'NONE',  ( 0.0000000000000000000, 0.0000000000000000000, 1.000000000000000000 ) ) ;
#823 = EDGE_CURVE ( 'NONE', #600, #787, #62, .T. ) ;
#824 = VERTEX_POINT ( 'NONE', #450 ) ;
#825 = VECTOR ( 'NONE', #829, 1000.000000000000000 ) ;
#826 = PLANE ( 'NONE',  #55 ) ;
#827 = EDGE_CURVE ( 'NONE', #22, #767, #792, .T. ) ;
#828 = AXIS2_PLACEMENT_3D ( 'NONE', #314, #444, #710 ) ;
#829 = DIRECTION ( 'NONE',  ( -0.0000000000000000000, -0.0000000000000000000, -1.000000000000000000 ) ) ;
#830 = CARTESIAN_POINT ( 'NONE',  ( 0.0000000000000000000, 36.50000000000000000, 0.0000000000000000000 ) ) ;
#831 = PERSON_AND_ORGANIZATION ( #246, #505 ) ;
#832 = SHAPE_DEFINITION_REPRESENTATION ( #292, #817 ) ;
#833 = CIRCLE ( 'NONE', #277, 3.250000000000000400 ) ;
#834 = FACE_BOUND ( 'NONE', #376, .T. ) ;
#835 = ORIENTED_EDGE ( 'NONE', *, *, #369, .F. ) ;
#836 = ORIENTED_EDGE ( 'NONE', *, *, #106, .T. ) ;
#837 = EDGE_CURVE ( 'NONE', #142, #186, #673, .T. ) ;
#838 = ORIENTED_EDGE ( 'NONE', *, *, #689, .F. ) ;
#839 = VERTEX_POINT ( 'NONE', #267 ) ;
#840 = VERTEX_POINT ( 'NONE', #485 ) ;
#841 = AXIS2_PLACEMENT_3D ( 'NONE', #135, #206, #651 ) ;
#842 = VECTOR ( 'NONE', #856, 1000.000000000000100 ) ;
#843 = ADVANCED_FACE ( 'NONE', ( #570 ), #496, .F. ) ;
#844 = ADVANCED_FACE ( 'NONE', ( #14 ), #467, .F. ) ;
#845 = VERTEX_POINT ( 'NONE', #80 ) ;
#846 = CIRCLE ( 'NONE', #630, 15.50000000000000000 ) ;
#847 = CARTESIAN_POINT ( 'NONE',  ( -5.250000000000000000, 14.14999999999999900, 4.000000000000000000 ) ) ;
#848 = CIRCLE ( 'NONE', #643, 14.00000000000000200 ) ;
#849 = EDGE_CURVE ( 'NONE', #639, #840, #2, .T. ) ;
#850 = DIRECTION ( 'NONE',  ( -0.0000000000000000000, -0.0000000000000000000, -1.000000000000000000 ) ) ;
#851 = VECTOR ( 'NONE', #419, 1000.000000000000000 ) ;
#852 = AXIS2_PLACEMENT_3D ( 'NONE', #483, #30, #291 ) ;
#853 = CARTESIAN_POINT ( 'NONE',  ( 0.0000000000000000000, 36.50000000000000000, 4.000000000000000000 ) ) ;
#854 = CARTESIAN_POINT ( 'NONE',  ( -8.500000000000000000, 9.150000000000000400, 0.0000000000000000000 ) ) ;
#855 = EDGE_LOOP ( 'NONE', ( #317, #355, #25, #451 ) ) ;
#856 = DIRECTION ( 'NONE',  ( -0.3162277660168378900, 0.9486832980505138800, 0.0000000000000000000 ) ) ;
#857 = ORIENTED_EDGE ( 'NONE', *, *, #65, .T. ) ;
#858 = AXIS2_PLACEMENT_3D ( 'NONE', #196, #575, #763 ) ;
#859 = CARTESIAN_POINT ( 'NONE',  ( 15.50000000000000000, 36.50000000000000000, 4.000000000000000000 ) ) ;
ENDSEC;
END-ISO-10303-21;
