ISO-10303-21;
HEADER;
FILE_DESCRIPTION (( 'STEP AP203' ),
    '1' );
FILE_NAME ('yaw_part_1_Domyúlna_sldprt.STEP',
    '2018-11-04T14:58:00',
    ( '' ),
    ( '' ),
    'SwSTEP 2.0',
    'SolidWorks 2016',
    '' );
FILE_SCHEMA (( 'CONFIG_CONTROL_DESIGN' ));
ENDSEC;

DATA;
#1 = CARTESIAN_POINT ( 'NONE',  ( 3.000000000000003600, 23.00000000000000000, 0.0000000000000000000 ) ) ;
#2 = CYLINDRICAL_SURFACE ( 'NONE', #421, 0.7500000000000006700 ) ;
#3 = DIRECTION ( 'NONE',  ( -1.000000000000000000, 0.0000000000000000000, 0.0000000000000000000 ) ) ;
#4 = ORIENTED_EDGE ( 'NONE', *, *, #246, .T. ) ;
#5 = ADVANCED_FACE ( 'NONE', ( #565 ), #101, .F. ) ;
#6 = AXIS2_PLACEMENT_3D ( 'NONE', #351, #360, #706 ) ;
#7 = EDGE_CURVE ( 'NONE', #306, #267, #622, .T. ) ;
#8 = ORIENTED_EDGE ( 'NONE', *, *, #806, .T. ) ;
#9 = DIRECTION ( 'NONE',  ( 1.000000000000000000, 1.530638361156006700E-016, -0.0000000000000000000 ) ) ;
#10 = DIRECTION ( 'NONE',  ( 1.000000000000000000, 0.0000000000000000000, 0.0000000000000000000 ) ) ;
#11 = ORIENTED_EDGE ( 'NONE', *, *, #582, .T. ) ;
#12 = ORIENTED_EDGE ( 'NONE', *, *, #127, .F. ) ;
#13 = AXIS2_PLACEMENT_3D ( 'NONE', #624, #215, #83 ) ;
#14 = CARTESIAN_POINT ( 'NONE',  ( -6.406854249492381500, 33.99999999999998600, 2.500000000000000000 ) ) ;
#15 = DIRECTION ( 'NONE',  ( -0.0000000000000000000, -0.0000000000000000000, -1.000000000000000000 ) ) ;
#16 = EDGE_CURVE ( 'NONE', #257, #816, #472, .T. ) ;
#17 = CARTESIAN_POINT ( 'NONE',  ( -12.49999999999999600, 0.0000000000000000000, 0.0000000000000000000 ) ) ;
#18 = EDGE_CURVE ( 'NONE', #541, #508, #824, .T. ) ;
#19 = VERTEX_POINT ( 'NONE', #632 ) ;
#20 = DIRECTION ( 'NONE',  ( 1.000000000000000000, 0.0000000000000000000, -0.0000000000000000000 ) ) ;
#21 = CARTESIAN_POINT ( 'NONE',  ( 12.50000000000000200, 33.99999999999998600, 2.500000000000000000 ) ) ;
#22 = ORIENTED_EDGE ( 'NONE', *, *, #480, .T. ) ;
#23 = FACE_OUTER_BOUND ( 'NONE', #530, .T. ) ;
#24 = CARTESIAN_POINT ( 'NONE',  ( 10.00000000000000200, 8.000000000000000000, 2.500000000000000000 ) ) ;
#25 = ORIENTED_EDGE ( 'NONE', *, *, #321, .F. ) ;
#26 = DIRECTION ( 'NONE',  ( 1.000000000000000000, 0.0000000000000000000, 0.0000000000000000000 ) ) ;
#27 = CIRCLE ( 'NONE', #703, 0.7500000000000006700 ) ;
#28 = VECTOR ( 'NONE', #836, 1000.000000000000000 ) ;
#29 = DIRECTION ( 'NONE',  ( -1.156482317317871500E-016, 1.000000000000000000, 0.0000000000000000000 ) ) ;
#30 = VERTEX_POINT ( 'NONE', #356 ) ;
#31 =( NAMED_UNIT ( * ) PLANE_ANGLE_UNIT ( ) SI_UNIT ( $, .RADIAN. ) );
#32 = CARTESIAN_POINT ( 'NONE',  ( -12.50000000000000200, 33.99999999999998600, 0.0000000000000000000 ) ) ;
#33 = ORIENTED_EDGE ( 'NONE', *, *, #763, .T. ) ;
#34 = AXIS2_PLACEMENT_3D ( 'NONE', #278, #770, #20 ) ;
#35 = VECTOR ( 'NONE', #454, 1000.000000000000000 ) ;
#36 = CARTESIAN_POINT ( 'NONE',  ( 0.0000000000000000000, 33.99999999999998600, 0.0000000000000000000 ) ) ;
#37 = ORIENTED_EDGE ( 'NONE', *, *, #568, .T. ) ;
#38 = CARTESIAN_POINT ( 'NONE',  ( -3.000000000000001800, 8.000000000000000000, 2.500000000000000000 ) ) ;
#39 = EDGE_CURVE ( 'NONE', #687, #204, #518, .T. ) ;
#40 = CARTESIAN_POINT ( 'NONE',  ( 9.999999999999998200, 8.000000000000000000, 0.0000000000000000000 ) ) ;
#41 = ORIENTED_EDGE ( 'NONE', *, *, #831, .T. ) ;
#42 = CARTESIAN_POINT ( 'NONE',  ( -10.00000000000000400, 23.00000000000000000, 2.500000000000000000 ) ) ;
#43 = PERSON ( 'UNSPECIFIED', 'UNSPECIFIED', 'UNSPECIFIED', ('UNSPECIFIED'), ('UNSPECIFIED'), ('UNSPECIFIED') ) ;
#44 = CARTESIAN_POINT ( 'NONE',  ( -10.00000000000000400, 23.00000000000000000, 0.0000000000000000000 ) ) ;
#45 = ORIENTED_EDGE ( 'NONE', *, *, #439, .F. ) ;
#46 = FACE_BOUND ( 'NONE', #194, .T. ) ;
#47 = VERTEX_POINT ( 'NONE', #497 ) ;
#48 = CARTESIAN_POINT ( 'NONE',  ( 2.500000000000000900, 33.99999999999998600, 2.500000000000000000 ) ) ;
#49 = CC_DESIGN_PERSON_AND_ORGANIZATION_ASSIGNMENT ( #785, #104, ( #190 ) ) ;
#50 = DIRECTION ( 'NONE',  ( -0.0000000000000000000, -0.0000000000000000000, -1.000000000000000000 ) ) ;
#51 = VERTEX_POINT ( 'NONE', #87 ) ;
#52 = VECTOR ( 'NONE', #729, 1000.000000000000000 ) ;
#53 = AXIS2_PLACEMENT_3D ( 'NONE', #303, #367, #182 ) ;
#54 = CARTESIAN_POINT ( 'NONE',  ( 0.0000000000000000000, 33.99999999999998600, 2.500000000000000000 ) ) ;
#55 = CALENDAR_DATE ( 2018, 4, 11 ) ;
#56 = CYLINDRICAL_SURFACE ( 'NONE', #342, 2.500000000000000900 ) ;
#57 = ORIENTED_EDGE ( 'NONE', *, *, #198, .F. ) ;
#58 = CARTESIAN_POINT ( 'NONE',  ( 12.50000000000000200, 33.99999999999998600, 0.0000000000000000000 ) ) ;
#59 = ORIENTED_EDGE ( 'NONE', *, *, #580, .F. ) ;
#60 = EDGE_CURVE ( 'NONE', #306, #810, #599, .T. ) ;
#61 = CARTESIAN_POINT ( 'NONE',  ( 12.50000000000000200, 33.99999999999998600, 2.500000000000000000 ) ) ;
#62 = EDGE_CURVE ( 'NONE', #816, #872, #79, .T. ) ;
#63 = DIRECTION ( 'NONE',  ( 1.000000000000000000, 0.0000000000000000000, -0.0000000000000000000 ) ) ;
#64 = ADVANCED_FACE ( 'NONE', ( #868 ), #629, .T. ) ;
#65 = DIRECTION ( 'NONE',  ( 1.000000000000000000, 0.0000000000000000000, 0.0000000000000000000 ) ) ;
#66 = VERTEX_POINT ( 'NONE', #280 ) ;
#67 = VECTOR ( 'NONE', #349, 1000.000000000000000 ) ;
#68 = DIRECTION ( 'NONE',  ( -0.0000000000000000000, -0.0000000000000000000, -1.000000000000000000 ) ) ;
#69 = EDGE_LOOP ( 'NONE', ( #352, #532, #245, #406 ) ) ;
#70 = CARTESIAN_POINT ( 'NONE',  ( -12.50000000000000200, 33.99999999999998600, 2.500000000000000000 ) ) ;
#71 = DIRECTION ( 'NONE',  ( -1.000000000000000000, 0.0000000000000000000, 0.0000000000000000000 ) ) ;
#72 = ADVANCED_FACE ( 'NONE', ( #450 ), #188, .F. ) ;
#73 = VERTEX_POINT ( 'NONE', #24 ) ;
#74 = ADVANCED_FACE ( 'NONE', ( #358 ), #227, .T. ) ;
#75 = CARTESIAN_POINT ( 'NONE',  ( 6.927648449883514400E-016, 28.34314575050760600, 2.500000000000000000 ) ) ;
#76 = CIRCLE ( 'NONE', #579, 0.7500000000000032200 ) ;
#77 = ORIENTED_EDGE ( 'NONE', *, *, #745, .T. ) ;
#78 = APPROVAL_PERSON_ORGANIZATION ( #240, #389, #171 ) ;
#79 = CIRCLE ( 'NONE', #270, 12.50000000000000200 ) ;
#80 = ORIENTED_EDGE ( 'NONE', *, *, #435, .T. ) ;
#81 = DIRECTION ( 'NONE',  ( -0.0000000000000000000, -0.0000000000000000000, -1.000000000000000000 ) ) ;
#82 = ADVANCED_FACE ( 'NONE', ( #708 ), #363, .T. ) ;
#83 = DIRECTION ( 'NONE',  ( 0.0000000000000000000, -0.0000000000000000000, 1.000000000000000000 ) ) ;
#84 = DIRECTION ( 'NONE',  ( -0.0000000000000000000, -0.0000000000000000000, -1.000000000000000000 ) ) ;
#85 = EDGE_CURVE ( 'NONE', #692, #681, #803, .T. ) ;
#86 = DIRECTION ( 'NONE',  ( -1.000000000000000000, 0.0000000000000000000, 0.0000000000000000000 ) ) ;
#87 = CARTESIAN_POINT ( 'NONE',  ( -4.906854249492375300, 33.99999999999998600, 0.0000000000000000000 ) ) ;
#88 = DATE_AND_TIME ( #757, #153 ) ;
#89 = EDGE_LOOP ( 'NONE', ( #254, #196, #276, #382 ) ) ;
#90 = CYLINDRICAL_SURFACE ( 'NONE', #111, 0.7500000000000032200 ) ;
#91 = DIRECTION ( 'NONE',  ( 1.530638361156006700E-016, 1.000000000000000000, -0.0000000000000000000 ) ) ;
#92 = DIRECTION ( 'NONE',  ( 1.000000000000000000, 0.0000000000000000000, 0.0000000000000000000 ) ) ;
#93 = FACE_OUTER_BOUND ( 'NONE', #444, .T. ) ;
#94 = DIRECTION ( 'NONE',  ( 1.000000000000000000, 0.0000000000000000000, 0.0000000000000000000 ) ) ;
#95 = EDGE_LOOP ( 'NONE', ( #859, #385, #778, #585 ) ) ;
#96 = CARTESIAN_POINT ( 'NONE',  ( -0.7500000000000006700, 39.65685424949237600, 0.0000000000000000000 ) ) ;
#97 = MECHANICAL_CONTEXT ( 'NONE', #639, 'mechanical' ) ;
#98 = VECTOR ( 'NONE', #552, 1000.000000000000000 ) ;
#99 = DIRECTION ( 'NONE',  ( 1.530638361156006700E-016, -1.000000000000000000, 0.0000000000000000000 ) ) ;
#100 = COORDINATED_UNIVERSAL_TIME_OFFSET ( 1, 0, .AHEAD. ) ;
#101 = CYLINDRICAL_SURFACE ( 'NONE', #348, 3.500000000000000400 ) ;
#102 = EDGE_LOOP ( 'NONE', ( #45, #556, #879, #143 ) ) ;
#103 = AXIS2_PLACEMENT_3D ( 'NONE', #238, #301, #793 ) ;
#104 = PERSON_AND_ORGANIZATION_ROLE ( 'design_owner' ) ;
#105 = DIRECTION ( 'NONE',  ( 1.000000000000000000, 0.0000000000000000000, 0.0000000000000000000 ) ) ;
#106 = DIRECTION ( 'NONE',  ( -1.000000000000000000, 0.0000000000000000000, 0.0000000000000000000 ) ) ;
#107 = VERTEX_POINT ( 'NONE', #96 ) ;
#108 = EDGE_CURVE ( 'NONE', #204, #310, #296, .T. ) ;
#109 = ORIENTED_EDGE ( 'NONE', *, *, #39, .T. ) ;
#110 = CARTESIAN_POINT ( 'NONE',  ( 5.656854249492378800, 33.99999999999997200, 2.500000000000000000 ) ) ;
#111 = AXIS2_PLACEMENT_3D ( 'NONE', #711, #501, #156 ) ;
#112 = VECTOR ( 'NONE', #99, 1000.000000000000000 ) ;
#113 = DIRECTION ( 'NONE',  ( 1.156482317317871500E-016, 1.000000000000000000, -0.0000000000000000000 ) ) ;
#114 = VERTEX_POINT ( 'NONE', #287 ) ;
#115 = CARTESIAN_POINT ( 'NONE',  ( 12.50000000000000200, 33.99999999999998600, 2.500000000000000000 ) ) ;
#116 = ORIENTED_EDGE ( 'NONE', *, *, #745, .F. ) ;
#117 = CIRCLE ( 'NONE', #103, 2.500000000000000900 ) ;
#118 = CIRCLE ( 'NONE', #369, 3.500000000000000000 ) ;
#119 = LINE ( 'NONE', #881, #431 ) ;
#120 = COORDINATED_UNIVERSAL_TIME_OFFSET ( 1, 0, .AHEAD. ) ;
#121 = FACE_OUTER_BOUND ( 'NONE', #794, .T. ) ;
#122 = ORIENTED_EDGE ( 'NONE', *, *, #177, .F. ) ;
#123 = DIRECTION ( 'NONE',  ( -0.0000000000000000000, -0.0000000000000000000, -1.000000000000000000 ) ) ;
#124 = AXIS2_PLACEMENT_3D ( 'NONE', #333, #81, #71 ) ;
#125 = ORIENTED_EDGE ( 'NONE', *, *, #580, .T. ) ;
#126 = DIRECTION ( 'NONE',  ( -0.0000000000000000000, -0.0000000000000000000, -1.000000000000000000 ) ) ;
#127 = EDGE_CURVE ( 'NONE', #511, #692, #460, .T. ) ;
#128 = PLANE ( 'NONE',  #796 ) ;
#129 = ADVANCED_FACE ( 'NONE', ( #633 ), #647, .T. ) ;
#130 = ORIENTED_EDGE ( 'NONE', *, *, #441, .T. ) ;
#131 = EDGE_LOOP ( 'NONE', ( #341, #671, #804, #207 ) ) ;
#132 = CARTESIAN_POINT ( 'NONE',  ( 2.500000000000000900, 33.99999999999998600, 2.500000000000000000 ) ) ;
#133 = ADVANCED_FACE ( 'NONE', ( #422 ), #90, .F. ) ;
#134 = LINE ( 'NONE', #648, #837 ) ;
#135 = ORIENTED_EDGE ( 'NONE', *, *, #503, .F. ) ;
#136 = EDGE_CURVE ( 'NONE', #612, #66, #134, .T. ) ;
#137 = EDGE_CURVE ( 'NONE', #819, #257, #795, .T. ) ;
#138 = CARTESIAN_POINT ( 'NONE',  ( -12.50000000000000200, 33.99999999999998600, 2.500000000000000000 ) ) ;
#139 = LINE ( 'NONE', #861, #146 ) ;
#140 = AXIS2_PLACEMENT_3D ( 'NONE', #478, #700, #494 ) ;
#141 = CIRCLE ( 'NONE', #505, 0.7500000000000002200 ) ;
#142 = FACE_BOUND ( 'NONE', #637, .T. ) ;
#143 = ORIENTED_EDGE ( 'NONE', *, *, #438, .T. ) ;
#144 = ADVANCED_FACE ( 'NONE', ( #442 ), #654, .F. ) ;
#145 = DIRECTION ( 'NONE',  ( 1.000000000000000000, 0.0000000000000000000, 0.0000000000000000000 ) ) ;
#146 = VECTOR ( 'NONE', #434, 1000.000000000000000 ) ;
#147 = EDGE_CURVE ( 'NONE', #181, #107, #244, .T. ) ;
#148 = ORIENTED_EDGE ( 'NONE', *, *, #337, .F. ) ;
#149 = ORIENTED_EDGE ( 'NONE', *, *, #805, .T. ) ;
#150 = CARTESIAN_POINT ( 'NONE',  ( -12.50000000000000200, 33.99999999999998600, 2.500000000000000000 ) ) ;
#151 = ORIENTED_EDGE ( 'NONE', *, *, #763, .F. ) ;
#152 = CC_DESIGN_DATE_AND_TIME_ASSIGNMENT ( #305, #298, ( #436 ) ) ;
#153 = LOCAL_TIME ( 15, 58, 0.0000000000000000000, #100 ) ;
#154 = ORIENTED_EDGE ( 'NONE', *, *, #755, .F. ) ;
#155 = ORIENTED_EDGE ( 'NONE', *, *, #321, .T. ) ;
#156 = DIRECTION ( 'NONE',  ( -1.000000000000000000, 0.0000000000000000000, 0.0000000000000000000 ) ) ;
#157 = DIRECTION ( 'NONE',  ( 0.0000000000000000000, 0.0000000000000000000, 1.000000000000000000 ) ) ;
#158 = AXIS2_PLACEMENT_3D ( 'NONE', #777, #425, #29 ) ;
#159 = CYLINDRICAL_SURFACE ( 'NONE', #242, 0.7500000000000032200 ) ;
#160 = CARTESIAN_POINT ( 'NONE',  ( -5.656854249492378800, 33.99999999999998600, 0.0000000000000000000 ) ) ;
#161 = ORIENTED_EDGE ( 'NONE', *, *, #659, .F. ) ;
#162 = APPROVAL_STATUS ( 'not_yet_approved' ) ;
#163 = DIRECTION ( 'NONE',  ( 1.000000000000000000, 0.0000000000000000000, 0.0000000000000000000 ) ) ;
#164 = LINE ( 'NONE', #175, #312 ) ;
#165 = DIRECTION ( 'NONE',  ( 0.0000000000000000000, 0.0000000000000000000, 1.000000000000000000 ) ) ;
#166 = VECTOR ( 'NONE', #113, 1000.000000000000000 ) ;
#167 = LINE ( 'NONE', #636, #534 ) ;
#168 = DIRECTION ( 'NONE',  ( 1.000000000000000000, 0.0000000000000000000, 0.0000000000000000000 ) ) ;
#169 = LINE ( 'NONE', #61, #609 ) ;
#170 = CYLINDRICAL_SURFACE ( 'NONE', #427, 2.500000000000000900 ) ;
#171 = APPROVAL_ROLE ( '' ) ;
#172 = ORIENTED_EDGE ( 'NONE', *, *, #435, .F. ) ;
#173 = ORIENTED_EDGE ( 'NONE', *, *, #441, .F. ) ;
#174 = CARTESIAN_POINT ( 'NONE',  ( 6.406854249492377900, 33.99999999999997200, 2.500000000000000000 ) ) ;
#175 = CARTESIAN_POINT ( 'NONE',  ( -12.49999999999999600, 0.0000000000000000000, 2.500000000000000000 ) ) ;
#176 = VERTEX_POINT ( 'NONE', #581 ) ;
#177 = EDGE_CURVE ( 'NONE', #826, #181, #259, .T. ) ;
#178 = EDGE_LOOP ( 'NONE', ( #551, #882, #155, #184 ) ) ;
#179 = ORIENTED_EDGE ( 'NONE', *, *, #60, .F. ) ;
#180 = DIRECTION ( 'NONE',  ( 1.000000000000000000, 0.0000000000000000000, 0.0000000000000000000 ) ) ;
#181 = VERTEX_POINT ( 'NONE', #854 ) ;
#182 = DIRECTION ( 'NONE',  ( 1.000000000000000000, 0.0000000000000000000, 0.0000000000000000000 ) ) ;
#183 = CIRCLE ( 'NONE', #208, 3.500000000000000000 ) ;
#184 = ORIENTED_EDGE ( 'NONE', *, *, #345, .T. ) ;
#185 = CIRCLE ( 'NONE', #405, 0.7499999999999997800 ) ;
#186 = DIRECTION ( 'NONE',  ( -1.000000000000000000, 0.0000000000000000000, 0.0000000000000000000 ) ) ;
#187 = LINE ( 'NONE', #412, #800 ) ;
#188 = CYLINDRICAL_SURFACE ( 'NONE', #851, 3.500000000000000000 ) ;
#189 = AXIS2_PLACEMENT_3D ( 'NONE', #550, #841, #92 ) ;
#190 = PRODUCT ( 'yaw_part_1_Domyúlna_sldprt', 'yaw_part_1_Domyúlna_sldprt', '', ( #97 ) ) ;
#191 = DIRECTION ( 'NONE',  ( -0.0000000000000000000, -0.0000000000000000000, -1.000000000000000000 ) ) ;
#192 = DIRECTION ( 'NONE',  ( -1.000000000000000000, 1.530638361156006700E-016, 0.0000000000000000000 ) ) ;
#193 = ORIENTED_EDGE ( 'NONE', *, *, #246, .F. ) ;
#194 = EDGE_LOOP ( 'NONE', ( #787, #799, #623, #8 ) ) ;
#195 = DIRECTION ( 'NONE',  ( 1.530638361156006700E-016, 1.000000000000000000, -0.0000000000000000000 ) ) ;
#196 = ORIENTED_EDGE ( 'NONE', *, *, #479, .F. ) ;
#197 = DIRECTION ( 'NONE',  ( -1.000000000000000000, 0.0000000000000000000, 0.0000000000000000000 ) ) ;
#198 = EDGE_CURVE ( 'NONE', #522, #669, #117, .T. ) ;
#199 = EDGE_CURVE ( 'NONE', #375, #541, #183, .T. ) ;
#200 = CARTESIAN_POINT ( 'NONE',  ( -0.7499999999999995600, 28.34314575050760600, 0.0000000000000000000 ) ) ;
#201 = EDGE_LOOP ( 'NONE', ( #869, #179, #740, #608 ) ) ;
#202 = AXIS2_PLACEMENT_3D ( 'NONE', #110, #239, #180 ) ;
#203 = FACE_BOUND ( 'NONE', #281, .T. ) ;
#204 = VERTEX_POINT ( 'NONE', #42 ) ;
#205 = LINE ( 'NONE', #344, #98 ) ;
#206 = VECTOR ( 'NONE', #91, 1000.000000000000000 ) ;
#207 = ORIENTED_EDGE ( 'NONE', *, *, #439, .T. ) ;
#208 = AXIS2_PLACEMENT_3D ( 'NONE', #506, #721, #376 ) ;
#209 = CARTESIAN_POINT ( 'NONE',  ( 0.0000000000000000000, 33.99999999999998600, 0.0000000000000000000 ) ) ;
#210 = ORIENTED_EDGE ( 'NONE', *, *, #547, .F. ) ;
#211 = DIRECTION ( 'NONE',  ( 1.000000000000000000, 0.0000000000000000000, 0.0000000000000000000 ) ) ;
#212 = CIRCLE ( 'NONE', #304, 3.500000000000000000 ) ;
#213 = MANIFOLD_SOLID_BREP ( 'Dodanie-wyciπgniÍcie1', #317 ) ;
#214 = CC_DESIGN_SECURITY_CLASSIFICATION ( #436, ( #684 ) ) ;
#215 = DIRECTION ( 'NONE',  ( 0.0000000000000000000, 1.000000000000000000, 0.0000000000000000000 ) ) ;
#216 = CARTESIAN_POINT ( 'NONE',  ( 5.656854249492378800, 33.99999999999997200, 2.500000000000000000 ) ) ;
#217 = DIRECTION ( 'NONE',  ( 0.0000000000000000000, 0.0000000000000000000, 1.000000000000000000 ) ) ;
#218 = AXIS2_PLACEMENT_3D ( 'NONE', #437, #656, #576 ) ;
#219 = CARTESIAN_POINT ( 'NONE',  ( 6.927648449883514400E-016, 28.34314575050760600, 2.500000000000000000 ) ) ;
#220 = APPROVAL_DATE_TIME ( #744, #553 ) ;
#221 = CARTESIAN_POINT ( 'NONE',  ( -6.500000000000002700, 23.00000000000000000, 2.500000000000000000 ) ) ;
#222 = ORIENTED_EDGE ( 'NONE', *, *, #670, .T. ) ;
#223 = VECTOR ( 'NONE', #889, 1000.000000000000000 ) ;
#224 = VERTEX_POINT ( 'NONE', #174 ) ;
#225 = DIRECTION ( 'NONE',  ( -0.0000000000000000000, -0.0000000000000000000, -1.000000000000000000 ) ) ;
#226 = DIRECTION ( 'NONE',  ( 0.0000000000000000000, 0.0000000000000000000, 1.000000000000000000 ) ) ;
#227 = PLANE ( 'NONE',  #6 ) ;
#228 = ORIENTED_EDGE ( 'NONE', *, *, #801, .T. ) ;
#229 = AXIS2_PLACEMENT_3D ( 'NONE', #546, #880, #258 ) ;
#230 = ORIENTED_EDGE ( 'NONE', *, *, #355, .T. ) ;
#231 = PERSON_AND_ORGANIZATION_ROLE ( 'design_supplier' ) ;
#232 = CARTESIAN_POINT ( 'NONE',  ( -10.00000000000000400, 23.00000000000000000, 2.500000000000000000 ) ) ;
#233 = AXIS2_PLACEMENT_3D ( 'NONE', #461, #878, #812 ) ;
#234 = VECTOR ( 'NONE', #459, 1000.000000000000000 ) ;
#235 = COORDINATED_UNIVERSAL_TIME_OFFSET ( 1, 0, .AHEAD. ) ;
#236 = FACE_OUTER_BOUND ( 'NONE', #89, .T. ) ;
#237 = ORIENTED_EDGE ( 'NONE', *, *, #16, .T. ) ;
#238 = CARTESIAN_POINT ( 'NONE',  ( 0.0000000000000000000, 33.99999999999998600, 2.500000000000000000 ) ) ;
#239 = DIRECTION ( 'NONE',  ( 0.0000000000000000000, 0.0000000000000000000, 1.000000000000000000 ) ) ;
#240 = PERSON_AND_ORGANIZATION ( #43, #802 ) ;
#241 = EDGE_LOOP ( 'NONE', ( #862, #77 ) ) ;
#242 = AXIS2_PLACEMENT_3D ( 'NONE', #318, #731, #387 ) ;
#243 = VECTOR ( 'NONE', #761, 1000.000000000000000 ) ;
#244 = LINE ( 'NONE', #653, #486 ) ;
#245 = ORIENTED_EDGE ( 'NONE', *, *, #16, .F. ) ;
#246 = EDGE_CURVE ( 'NONE', #698, #323, #289, .T. ) ;
#247 = EDGE_LOOP ( 'NONE', ( #473, #22 ) ) ;
#248 = CARTESIAN_POINT ( 'NONE',  ( 10.00000000000000400, 23.00000000000000000, 2.500000000000000000 ) ) ;
#249 = CYLINDRICAL_SURFACE ( 'NONE', #610, 0.7500000000000002200 ) ;
#250 = CIRCLE ( 'NONE', #362, 2.500000000000000900 ) ;
#251 = FACE_OUTER_BOUND ( 'NONE', #483, .T. ) ;
#252 = EDGE_LOOP ( 'NONE', ( #716, #663, #849, #423 ) ) ;
#253 = AXIS2_PLACEMENT_3D ( 'NONE', #260, #407, #815 ) ;
#254 = ORIENTED_EDGE ( 'NONE', *, *, #85, .T. ) ;
#255 = AXIS2_PLACEMENT_3D ( 'NONE', #635, #559, #699 ) ;
#256 = CARTESIAN_POINT ( 'NONE',  ( 12.49999999999999600, 0.0000000000000000000, 2.500000000000000000 ) ) ;
#257 = VERTEX_POINT ( 'NONE', #370 ) ;
#258 = DIRECTION ( 'NONE',  ( -1.000000000000000000, 0.0000000000000000000, 0.0000000000000000000 ) ) ;
#259 = CIRCLE ( 'NONE', #53, 0.7500000000000006700 ) ;
#260 = CARTESIAN_POINT ( 'NONE',  ( 6.927648449883514400E-016, 28.34314575050760600, 2.500000000000000000 ) ) ;
#261 = EDGE_LOOP ( 'NONE', ( #4, #515 ) ) ;
#262 = AXIS2_PLACEMENT_3D ( 'NONE', #75, #533, #211 ) ;
#263 = FACE_BOUND ( 'NONE', #807, .T. ) ;
#264 = ORIENTED_EDGE ( 'NONE', *, *, #664, .F. ) ;
#265 = PLANE ( 'NONE',  #13 ) ;
#266 = SHAPE_DEFINITION_REPRESENTATION ( #739, #392 ) ;
#267 = VERTEX_POINT ( 'NONE', #38 ) ;
#268 = ORIENTED_EDGE ( 'NONE', *, *, #638, .T. ) ;
#269 = DIRECTION ( 'NONE',  ( -1.156482317317871500E-016, -1.000000000000000000, 0.0000000000000000000 ) ) ;
#270 = AXIS2_PLACEMENT_3D ( 'NONE', #694, #417, #163 ) ;
#271 = CARTESIAN_POINT ( 'NONE',  ( -4.930380657631323800E-029, 39.65685424949237600, 2.500000000000000000 ) ) ;
#272 = ORIENTED_EDGE ( 'NONE', *, *, #18, .T. ) ;
#273 = CARTESIAN_POINT ( 'NONE',  ( 4.906854249492378800, 33.99999999999997200, 2.500000000000000000 ) ) ;
#274 = CARTESIAN_POINT ( 'NONE',  ( 10.00000000000000400, 23.00000000000000000, 2.500000000000000000 ) ) ;
#275 = DIRECTION ( 'NONE',  ( 1.156482317317871500E-016, -1.000000000000000000, 0.0000000000000000000 ) ) ;
#276 = ORIENTED_EDGE ( 'NONE', *, *, #137, .F. ) ;
#277 = ORIENTED_EDGE ( 'NONE', *, *, #411, .T. ) ;
#278 = CARTESIAN_POINT ( 'NONE',  ( 0.0000000000000000000, 33.99999999999998600, 0.0000000000000000000 ) ) ;
#279 = AXIS2_PLACEMENT_3D ( 'NONE', #747, #330, #737 ) ;
#280 = CARTESIAN_POINT ( 'NONE',  ( 0.7500000000000008900, 28.34314575050760600, 0.0000000000000000000 ) ) ;
#281 = EDGE_LOOP ( 'NONE', ( #59, #350, #25, #466 ) ) ;
#282 = CARTESIAN_POINT ( 'NONE',  ( 12.49999999999999600, 0.0000000000000000000, 0.0000000000000000000 ) ) ;
#283 = DIRECTION ( 'NONE',  ( -1.000000000000000000, 0.0000000000000000000, 0.0000000000000000000 ) ) ;
#284 = CIRCLE ( 'NONE', #279, 0.7499999999999997800 ) ;
#285 = PERSON_AND_ORGANIZATION_ROLE ( 'creator' ) ;
#286 = ORIENTED_EDGE ( 'NONE', *, *, #755, .T. ) ;
#287 = CARTESIAN_POINT ( 'NONE',  ( 12.50000000000000200, 33.99999999999998600, 0.0000000000000000000 ) ) ;
#288 = EDGE_CURVE ( 'NONE', #267, #687, #884, .T. ) ;
#289 = CIRCLE ( 'NONE', #377, 2.500000000000000900 ) ;
#290 = APPROVAL_STATUS ( 'not_yet_approved' ) ;
#291 = CIRCLE ( 'NONE', #750, 0.7500000000000002200 ) ;
#292 = DIRECTION ( 'NONE',  ( -0.0000000000000000000, -0.0000000000000000000, -1.000000000000000000 ) ) ;
#293 = CYLINDRICAL_SURFACE ( 'NONE', #327, 0.7499999999999997800 ) ;
#294 = PERSON_AND_ORGANIZATION ( #43, #802 ) ;
#295 = CYLINDRICAL_SURFACE ( 'NONE', #514, 3.500000000000000000 ) ;
#296 = LINE ( 'NONE', #232, #644 ) ;
#297 = EDGE_LOOP ( 'NONE', ( #723, #366 ) ) ;
#298 = DATE_TIME_ROLE ( 'classification_date' ) ;
#299 = EDGE_LOOP ( 'NONE', ( #364, #748, #566, #621 ) ) ;
#300 = AXIS2_PLACEMENT_3D ( 'NONE', #498, #572, #588 ) ;
#301 = DIRECTION ( 'NONE',  ( 0.0000000000000000000, 0.0000000000000000000, 1.000000000000000000 ) ) ;
#302 = EDGE_CURVE ( 'NONE', #176, #224, #660, .T. ) ;
#303 = CARTESIAN_POINT ( 'NONE',  ( -4.930380657631323800E-029, 39.65685424949237600, 2.500000000000000000 ) ) ;
#304 = AXIS2_PLACEMENT_3D ( 'NONE', #445, #443, #186 ) ;
#305 = DATE_AND_TIME ( #346, #371 ) ;
#306 = VERTEX_POINT ( 'NONE', #784 ) ;
#307 = EDGE_CURVE ( 'NONE', #819, #692, #164, .T. ) ;
#308 = CIRCLE ( 'NONE', #233, 0.7500000000000032200 ) ;
#309 = CARTESIAN_POINT ( 'NONE',  ( -3.000000000000003600, 23.00000000000000000, 2.500000000000000000 ) ) ;
#310 = VERTEX_POINT ( 'NONE', #44 ) ;
#311 = VERTEX_POINT ( 'NONE', #40 ) ;
#312 = VECTOR ( 'NONE', #720, 1000.000000000000000 ) ;
#313 = EDGE_LOOP ( 'NONE', ( #451, #57 ) ) ;
#314 = CIRCLE ( 'NONE', #573, 0.7499999999999997800 ) ;
#315 = FACE_BOUND ( 'NONE', #642, .T. ) ;
#316 = VECTOR ( 'NONE', #540, 1000.000000000000000 ) ;
#317 = CLOSED_SHELL ( 'NONE', ( #394, #688, #476, #603, #326, #809, #749, #613, #618, #814, #343, #144, #82, #5, #74, #888, #332, #463, #538, #133, #72, #64, #675, #129 ) ) ;
#318 = CARTESIAN_POINT ( 'NONE',  ( -5.656854249492378800, 33.99999999999998600, 2.500000000000000000 ) ) ;
#319 = AXIS2_PLACEMENT_3D ( 'NONE', #271, #825, #760 ) ;
#320 = VERTEX_POINT ( 'NONE', #717 ) ;
#321 = EDGE_CURVE ( 'NONE', #73, #375, #139, .T. ) ;
#322 = APPROVAL_PERSON_ORGANIZATION ( #791, #553, #634 ) ;
#323 = VERTEX_POINT ( 'NONE', #510 ) ;
#324 = EDGE_LOOP ( 'NONE', ( #268, #754, #562, #658 ) ) ;
#325 = DIRECTION ( 'NONE',  ( 1.000000000000000000, 0.0000000000000000000, 0.0000000000000000000 ) ) ;
#326 = ADVANCED_FACE ( 'NONE', ( #502 ), #170, .F. ) ;
#327 = AXIS2_PLACEMENT_3D ( 'NONE', #465, #527, #197 ) ;
#328 = ORIENTED_EDGE ( 'NONE', *, *, #198, .T. ) ;
#329 = DIRECTION ( 'NONE',  ( -0.0000000000000000000, -0.0000000000000000000, -1.000000000000000000 ) ) ;
#330 = DIRECTION ( 'NONE',  ( 0.0000000000000000000, 0.0000000000000000000, 1.000000000000000000 ) ) ;
#331 = FACE_BOUND ( 'NONE', #247, .T. ) ;
#332 = ADVANCED_FACE ( 'NONE', ( #475 ), #2, .F. ) ;
#333 = CARTESIAN_POINT ( 'NONE',  ( 0.0000000000000000000, 33.99999999999998600, 2.500000000000000000 ) ) ;
#334 = CIRCLE ( 'NONE', #415, 2.500000000000000900 ) ;
#335 = ORIENTED_EDGE ( 'NONE', *, *, #873, .F. ) ;
#336 = ORIENTED_EDGE ( 'NONE', *, *, #384, .T. ) ;
#337 = EDGE_CURVE ( 'NONE', #681, #114, #730, .T. ) ;
#338 = CARTESIAN_POINT ( 'NONE',  ( 6.927648449883514400E-016, 28.34314575050760600, 0.0000000000000000000 ) ) ;
#339 = ORIENTED_EDGE ( 'NONE', *, *, #724, .F. ) ;
#340 = CARTESIAN_POINT ( 'NONE',  ( 4.906854249492378800, 33.99999999999997200, 0.0000000000000000000 ) ) ;
#341 = ORIENTED_EDGE ( 'NONE', *, *, #709, .T. ) ;
#342 = AXIS2_PLACEMENT_3D ( 'NONE', #850, #574, #359 ) ;
#343 = ADVANCED_FACE ( 'NONE', ( #852 ), #874, .F. ) ;
#344 = CARTESIAN_POINT ( 'NONE',  ( 3.000000000000001800, 8.000000000000000000, 2.500000000000000000 ) ) ;
#345 = EDGE_CURVE ( 'NONE', #375, #372, #545, .T. ) ;
#346 = CALENDAR_DATE ( 2018, 4, 11 ) ;
#347 = ORIENTED_EDGE ( 'NONE', *, *, #722, .F. ) ;
#348 = AXIS2_PLACEMENT_3D ( 'NONE', #702, #225, #283 ) ;
#349 = DIRECTION ( 'NONE',  ( -0.0000000000000000000, -0.0000000000000000000, -1.000000000000000000 ) ) ;
#350 = ORIENTED_EDGE ( 'NONE', *, *, #199, .F. ) ;
#351 = CARTESIAN_POINT ( 'NONE',  ( -3.000000000000003600, 23.00000000000000000, 2.500000000000000000 ) ) ;
#352 = ORIENTED_EDGE ( 'NONE', *, *, #337, .T. ) ;
#353 = EDGE_LOOP ( 'NONE', ( #426, #590, #830, #272 ) ) ;
#354 = CIRCLE ( 'NONE', #229, 3.500000000000000000 ) ;
#355 = EDGE_CURVE ( 'NONE', #631, #51, #781, .T. ) ;
#356 = CARTESIAN_POINT ( 'NONE',  ( -6.406854249492381500, 33.99999999999998600, 2.500000000000000000 ) ) ;
#357 = LINE ( 'NONE', #555, #67 ) ;
#358 = FACE_OUTER_BOUND ( 'NONE', #102, .T. ) ;
#359 = DIRECTION ( 'NONE',  ( -1.000000000000000000, 0.0000000000000000000, 0.0000000000000000000 ) ) ;
#360 = DIRECTION ( 'NONE',  ( -1.000000000000000000, -1.156482317317871500E-016, 0.0000000000000000000 ) ) ;
#361 = LINE ( 'NONE', #256, #683 ) ;
#362 = AXIS2_PLACEMENT_3D ( 'NONE', #209, #676, #491 ) ;
#363 = PLANE ( 'NONE',  #158 ) ;
#364 = ORIENTED_EDGE ( 'NONE', *, *, #355, .F. ) ;
#365 =( LENGTH_UNIT ( ) NAMED_UNIT ( * ) SI_UNIT ( .MILLI., .METRE. ) );
#366 = ORIENTED_EDGE ( 'NONE', *, *, #557, .F. ) ;
#367 = DIRECTION ( 'NONE',  ( 0.0000000000000000000, 0.0000000000000000000, 1.000000000000000000 ) ) ;
#368 = DESIGN_CONTEXT ( 'detailed design', #710, 'design' ) ;
#369 = AXIS2_PLACEMENT_3D ( 'NONE', #611, #396, #325 ) ;
#370 = CARTESIAN_POINT ( 'NONE',  ( 12.49999999999999600, 0.0000000000000000000, 2.500000000000000000 ) ) ;
#371 = LOCAL_TIME ( 15, 58, 0.0000000000000000000, #235 ) ;
#372 = VERTEX_POINT ( 'NONE', #524 ) ;
#373 = DIRECTION ( 'NONE',  ( -0.0000000000000000000, -0.0000000000000000000, -1.000000000000000000 ) ) ;
#374 = ORIENTED_EDGE ( 'NONE', *, *, #384, .F. ) ;
#375 = VERTEX_POINT ( 'NONE', #595 ) ;
#376 = DIRECTION ( 'NONE',  ( -1.000000000000000000, 0.0000000000000000000, 0.0000000000000000000 ) ) ;
#377 = AXIS2_PLACEMENT_3D ( 'NONE', #36, #504, #105 ) ;
#378 = EDGE_LOOP ( 'NONE', ( #526, #651, #645, #237 ) ) ;
#379 = APPROVAL_DATE_TIME ( #525, #389 ) ;
#380 = VECTOR ( 'NONE', #404, 1000.000000000000000 ) ;
#381 = VECTOR ( 'NONE', #269, 1000.000000000000000 ) ;
#382 = ORIENTED_EDGE ( 'NONE', *, *, #307, .T. ) ;
#383 = ORIENTED_EDGE ( 'NONE', *, *, #136, .F. ) ;
#384 = EDGE_CURVE ( 'NONE', #522, #323, #756, .T. ) ;
#385 = ORIENTED_EDGE ( 'NONE', *, *, #767, .F. ) ;
#386 = ORIENTED_EDGE ( 'NONE', *, *, #828, .F. ) ;
#387 = DIRECTION ( 'NONE',  ( -1.000000000000000000, 0.0000000000000000000, 0.0000000000000000000 ) ) ;
#388 = DIRECTION ( 'NONE',  ( 0.0000000000000000000, 0.0000000000000000000, 1.000000000000000000 ) ) ;
#389 = APPROVAL ( #162, 'UNSPECIFIED' ) ;
#390 = LOCAL_TIME ( 15, 58, 0.0000000000000000000, #120 ) ;
#391 = EDGE_CURVE ( 'NONE', #589, #73, #212, .T. ) ;
#392 = ADVANCED_BREP_SHAPE_REPRESENTATION ( 'yaw_part_1_Domyùlna_sldprt', ( #213, #626 ), #509 ) ;
#393 = DIRECTION ( 'NONE',  ( -1.000000000000000000, 0.0000000000000000000, 0.0000000000000000000 ) ) ;
#394 = ADVANCED_FACE ( 'NONE', ( #818 ), #159, .F. ) ;
#395 = AXIS2_PLACEMENT_3D ( 'NONE', #808, #666, #393 ) ;
#396 = DIRECTION ( 'NONE',  ( 0.0000000000000000000, 0.0000000000000000000, 1.000000000000000000 ) ) ;
#397 = APPROVAL_DATE_TIME ( #584, #605 ) ;
#398 = ORIENTED_EDGE ( 'NONE', *, *, #828, .T. ) ;
#399 = LINE ( 'NONE', #14, #243 ) ;
#400 = EDGE_LOOP ( 'NONE', ( #264, #575, #125, #578 ) ) ;
#401 = CARTESIAN_POINT ( 'NONE',  ( 0.7500000000000008900, 28.34314575050760600, 2.500000000000000000 ) ) ;
#402 = DIRECTION ( 'NONE',  ( -1.156482317317871500E-016, 1.000000000000000000, -0.0000000000000000000 ) ) ;
#403 = CARTESIAN_POINT ( 'NONE',  ( 3.000000000000001800, 8.000000000000000000, 2.500000000000000000 ) ) ;
#404 = DIRECTION ( 'NONE',  ( 1.530638361156006700E-016, -1.000000000000000000, 0.0000000000000000000 ) ) ;
#405 = AXIS2_PLACEMENT_3D ( 'NONE', #695, #165, #26 ) ;
#406 = ORIENTED_EDGE ( 'NONE', *, *, #479, .T. ) ;
#407 = DIRECTION ( 'NONE',  ( 0.0000000000000000000, 0.0000000000000000000, 1.000000000000000000 ) ) ;
#408 = LINE ( 'NONE', #273, #564 ) ;
#409 = DIRECTION ( 'NONE',  ( 1.000000000000000000, 0.0000000000000000000, 0.0000000000000000000 ) ) ;
#410 = VECTOR ( 'NONE', #817, 1000.000000000000000 ) ;
#411 = EDGE_CURVE ( 'NONE', #224, #549, #798, .T. ) ;
#412 = CARTESIAN_POINT ( 'NONE',  ( -10.00000000000000400, 23.00000000000000000, 2.500000000000000000 ) ) ;
#413 = CARTESIAN_POINT ( 'NONE',  ( 3.000000000000003600, 23.00000000000000000, 2.500000000000000000 ) ) ;
#414 = DIRECTION ( 'NONE',  ( 1.000000000000000000, 0.0000000000000000000, 0.0000000000000000000 ) ) ;
#415 = AXIS2_PLACEMENT_3D ( 'NONE', #876, #455, #453 ) ;
#416 = DIRECTION ( 'NONE',  ( -0.0000000000000000000, -0.0000000000000000000, -1.000000000000000000 ) ) ;
#417 = DIRECTION ( 'NONE',  ( 0.0000000000000000000, 0.0000000000000000000, 1.000000000000000000 ) ) ;
#418 = ORIENTED_EDGE ( 'NONE', *, *, #85, .F. ) ;
#419 = EDGE_LOOP ( 'NONE', ( #686, #432, #228, #719 ) ) ;
#420 = DIRECTION ( 'NONE',  ( 1.000000000000000000, 0.0000000000000000000, 0.0000000000000000000 ) ) ;
#421 = AXIS2_PLACEMENT_3D ( 'NONE', #591, #601, #866 ) ;
#422 = FACE_OUTER_BOUND ( 'NONE', #299, .T. ) ;
#423 = ORIENTED_EDGE ( 'NONE', *, *, #147, .F. ) ;
#424 = APPLICATION_PROTOCOL_DEFINITION ( 'international standard', 'config_control_design', 1994, #710 ) ;
#425 = DIRECTION ( 'NONE',  ( 1.000000000000000000, 1.156482317317871500E-016, -0.0000000000000000000 ) ) ;
#426 = ORIENTED_EDGE ( 'NONE', *, *, #602, .F. ) ;
#427 = AXIS2_PLACEMENT_3D ( 'NONE', #789, #373, #106 ) ;
#428 = CARTESIAN_POINT ( 'NONE',  ( -9.999999999999998200, 8.000000000000000000, 2.500000000000000000 ) ) ;
#429 = UNCERTAINTY_MEASURE_WITH_UNIT (LENGTH_MEASURE( 1.000000000000000100E-005 ), #365, 'distance_accuracy_value', 'NONE');
#430 = LINE ( 'NONE', #673, #223 ) ;
#431 = VECTOR ( 'NONE', #402, 1000.000000000000000 ) ;
#432 = ORIENTED_EDGE ( 'NONE', *, *, #108, .F. ) ;
#433 = APPROVAL_ROLE ( '' ) ;
#434 = DIRECTION ( 'NONE',  ( 1.156482317317871500E-016, 1.000000000000000000, -0.0000000000000000000 ) ) ;
#435 = EDGE_CURVE ( 'NONE', #669, #698, #701, .T. ) ;
#436 = SECURITY_CLASSIFICATION ( '', '', #646 ) ;
#437 = CARTESIAN_POINT ( 'NONE',  ( -6.500000000000002700, 23.00000000000000000, 2.500000000000000000 ) ) ;
#438 = EDGE_CURVE ( 'NONE', #687, #630, #467, .T. ) ;
#439 = EDGE_CURVE ( 'NONE', #320, #630, #119, .T. ) ;
#440 = ORIENTED_EDGE ( 'NONE', *, *, #177, .T. ) ;
#441 = EDGE_CURVE ( 'NONE', #864, #549, #284, .T. ) ;
#442 = FACE_OUTER_BOUND ( 'NONE', #834, .T. ) ;
#443 = DIRECTION ( 'NONE',  ( 0.0000000000000000000, 0.0000000000000000000, 1.000000000000000000 ) ) ;
#444 = EDGE_LOOP ( 'NONE', ( #713, #544, #286, #339 ) ) ;
#445 = CARTESIAN_POINT ( 'NONE',  ( 6.499999999999998200, 8.000000000000000000, 2.500000000000000000 ) ) ;
#446 = PRODUCT_DEFINITION ( 'UNKNOWN', '', #684, #368 ) ;
#447 = CIRCLE ( 'NONE', #189, 0.7500000000000032200 ) ;
#448 = ORIENTED_EDGE ( 'NONE', *, *, #7, .F. ) ;
#449 = LINE ( 'NONE', #821, #410 ) ;
#450 = FACE_OUTER_BOUND ( 'NONE', #353, .T. ) ;
#451 = ORIENTED_EDGE ( 'NONE', *, *, #805, .F. ) ;
#452 = AXIS2_PLACEMENT_3D ( 'NONE', #823, #543, #685 ) ;
#453 = DIRECTION ( 'NONE',  ( 1.000000000000000000, 0.0000000000000000000, 0.0000000000000000000 ) ) ;
#454 = DIRECTION ( 'NONE',  ( -0.0000000000000000000, -0.0000000000000000000, -1.000000000000000000 ) ) ;
#455 = DIRECTION ( 'NONE',  ( 0.0000000000000000000, 0.0000000000000000000, 1.000000000000000000 ) ) ;
#456 = AXIS2_PLACEMENT_3D ( 'NONE', #625, #329, #3 ) ;
#457 = APPROVAL_PERSON_ORGANIZATION ( #771, #605, #433 ) ;
#458 = ORIENTED_EDGE ( 'NONE', *, *, #667, .F. ) ;
#459 = DIRECTION ( 'NONE',  ( -0.0000000000000000000, -0.0000000000000000000, -1.000000000000000000 ) ) ;
#460 = LINE ( 'NONE', #32, #112 ) ;
#461 = CARTESIAN_POINT ( 'NONE',  ( -5.656854249492378800, 33.99999999999998600, 0.0000000000000000000 ) ) ;
#462 = CC_DESIGN_PERSON_AND_ORGANIZATION_ASSIGNMENT ( #561, #779, ( #446 ) ) ;
#463 = ADVANCED_FACE ( 'NONE', ( #93 ), #293, .F. ) ;
#464 = DIRECTION ( 'NONE',  ( -1.156482317317871500E-016, -1.000000000000000000, 0.0000000000000000000 ) ) ;
#465 = CARTESIAN_POINT ( 'NONE',  ( 5.656854249492378800, 33.99999999999997200, 2.500000000000000000 ) ) ;
#466 = ORIENTED_EDGE ( 'NONE', *, *, #391, .F. ) ;
#467 = LINE ( 'NONE', #871, #234 ) ;
#468 = CARTESIAN_POINT ( 'NONE',  ( -12.50000000000000200, 33.99999999999998600, 0.0000000000000000000 ) ) ;
#469 = CYLINDRICAL_SURFACE ( 'NONE', #124, 12.50000000000000200 ) ;
#470 = AXIS2_PLACEMENT_3D ( 'NONE', #115, #192, #733 ) ;
#471 = FACE_BOUND ( 'NONE', #297, .T. ) ;
#472 = LINE ( 'NONE', #21, #206 ) ;
#473 = ORIENTED_EDGE ( 'NONE', *, *, #712, .T. ) ;
#474 = PLANE ( 'NONE',  #523 ) ;
#475 = FACE_OUTER_BOUND ( 'NONE', #877, .T. ) ;
#476 = ADVANCED_FACE ( 'NONE', ( #251 ), #863, .F. ) ;
#477 = CC_DESIGN_PERSON_AND_ORGANIZATION_ASSIGNMENT ( #482, #714, ( #436 ) ) ;
#478 = CARTESIAN_POINT ( 'NONE',  ( -4.930380657631323800E-029, 39.65685424949237600, 0.0000000000000000000 ) ) ;
#479 = EDGE_CURVE ( 'NONE', #257, #681, #361, .T. ) ;
#480 = EDGE_CURVE ( 'NONE', #51, #19, #308, .T. ) ;
#481 = CARTESIAN_POINT ( 'NONE',  ( -6.500000000000002700, 23.00000000000000000, 0.0000000000000000000 ) ) ;
#482 = PERSON_AND_ORGANIZATION ( #43, #802 ) ;
#483 = EDGE_LOOP ( 'NONE', ( #718, #277, #173, #154 ) ) ;
#484 = EDGE_CURVE ( 'NONE', #872, #819, #735, .T. ) ;
#485 = CARTESIAN_POINT ( 'NONE',  ( -3.000000000000003600, 23.00000000000000000, 2.500000000000000000 ) ) ;
#486 = VECTOR ( 'NONE', #715, 1000.000000000000000 ) ;
#487 = EDGE_LOOP ( 'NONE', ( #149, #336, #193, #172 ) ) ;
#488 = CARTESIAN_POINT ( 'NONE',  ( -4.930380657631323800E-029, 39.65685424949237600, 0.0000000000000000000 ) ) ;
#489 = EDGE_CURVE ( 'NONE', #310, #810, #620, .T. ) ;
#490 = CARTESIAN_POINT ( 'NONE',  ( -6.499999999999998200, 8.000000000000000000, 2.500000000000000000 ) ) ;
#491 = DIRECTION ( 'NONE',  ( 1.000000000000000000, 0.0000000000000000000, 0.0000000000000000000 ) ) ;
#492 = VERTEX_POINT ( 'NONE', #742 ) ;
#493 = DIRECTION ( 'NONE',  ( 1.000000000000000000, 0.0000000000000000000, 0.0000000000000000000 ) ) ;
#494 = DIRECTION ( 'NONE',  ( 1.000000000000000000, 0.0000000000000000000, 0.0000000000000000000 ) ) ;
#495 = VECTOR ( 'NONE', #191, 1000.000000000000000 ) ;
#496 = LINE ( 'NONE', #820, #726 ) ;
#497 = CARTESIAN_POINT ( 'NONE',  ( 3.000000000000001800, 8.000000000000000000, 0.0000000000000000000 ) ) ;
#498 = CARTESIAN_POINT ( 'NONE',  ( 6.499999999999998200, 8.000000000000000000, 0.0000000000000000000 ) ) ;
#499 = FACE_OUTER_BOUND ( 'NONE', #378, .T. ) ;
#500 = CC_DESIGN_APPROVAL ( #553, ( #446 ) ) ;
#501 = DIRECTION ( 'NONE',  ( -0.0000000000000000000, -0.0000000000000000000, -1.000000000000000000 ) ) ;
#502 = FACE_OUTER_BOUND ( 'NONE', #487, .T. ) ;
#503 = EDGE_CURVE ( 'NONE', #181, #826, #844, .T. ) ;
#504 = DIRECTION ( 'NONE',  ( 0.0000000000000000000, 0.0000000000000000000, 1.000000000000000000 ) ) ;
#505 = AXIS2_PLACEMENT_3D ( 'NONE', #338, #883, #65 ) ;
#506 = CARTESIAN_POINT ( 'NONE',  ( 6.500000000000002700, 23.00000000000000000, 2.500000000000000000 ) ) ;
#507 = CALENDAR_DATE ( 2018, 4, 11 ) ;
#508 = VERTEX_POINT ( 'NONE', #1 ) ;
#509 =( GEOMETRIC_REPRESENTATION_CONTEXT ( 3 ) GLOBAL_UNCERTAINTY_ASSIGNED_CONTEXT ( ( #429 ) ) GLOBAL_UNIT_ASSIGNED_CONTEXT ( ( #365, #31, #853 ) ) REPRESENTATION_CONTEXT ( 'NONE', 'WORKASPACE' ) );
#510 = CARTESIAN_POINT ( 'NONE',  ( 2.500000000000000900, 33.99999999999998600, 0.0000000000000000000 ) ) ;
#511 = VERTEX_POINT ( 'NONE', #468 ) ;
#512 = DIRECTION ( 'NONE',  ( -0.0000000000000000000, -0.0000000000000000000, -1.000000000000000000 ) ) ;
#513 = ORIENTED_EDGE ( 'NONE', *, *, #712, .F. ) ;
#514 = AXIS2_PLACEMENT_3D ( 'NONE', #759, #832, #86 ) ;
#515 = ORIENTED_EDGE ( 'NONE', *, *, #873, .T. ) ;
#516 = FACE_BOUND ( 'NONE', #569, .T. ) ;
#517 = FACE_BOUND ( 'NONE', #241, .T. ) ;
#518 = CIRCLE ( 'NONE', #736, 3.500000000000000000 ) ;
#519 = CARTESIAN_POINT ( 'NONE',  ( 6.406854249492377900, 33.99999999999997200, 2.500000000000000000 ) ) ;
#520 = AXIS2_PLACEMENT_3D ( 'NONE', #274, #764, #554 ) ;
#521 = VERTEX_POINT ( 'NONE', #200 ) ;
#522 = VERTEX_POINT ( 'NONE', #132 ) ;
#523 = AXIS2_PLACEMENT_3D ( 'NONE', #535, #9, #615 ) ;
#524 = CARTESIAN_POINT ( 'NONE',  ( 10.00000000000000400, 23.00000000000000000, 0.0000000000000000000 ) ) ;
#525 = DATE_AND_TIME ( #858, #390 ) ;
#526 = ORIENTED_EDGE ( 'NONE', *, *, #62, .T. ) ;
#527 = DIRECTION ( 'NONE',  ( -0.0000000000000000000, -0.0000000000000000000, -1.000000000000000000 ) ) ;
#528 = EDGE_CURVE ( 'NONE', #816, #114, #169, .T. ) ;
#529 = CARTESIAN_POINT ( 'NONE',  ( 12.50000000000000200, 33.99999999999998600, 2.500000000000000000 ) ) ;
#530 = EDGE_LOOP ( 'NONE', ( #383, #855, #398, #116 ) ) ;
#531 = CARTESIAN_POINT ( 'NONE',  ( -10.00000000000000400, 23.00000000000000000, 0.0000000000000000000 ) ) ;
#532 = ORIENTED_EDGE ( 'NONE', *, *, #528, .F. ) ;
#533 = DIRECTION ( 'NONE',  ( 0.0000000000000000000, 0.0000000000000000000, 1.000000000000000000 ) ) ;
#534 = VECTOR ( 'NONE', #416, 1000.000000000000000 ) ;
#535 = CARTESIAN_POINT ( 'NONE',  ( -12.50000000000000200, 33.99999999999998600, 2.500000000000000000 ) ) ;
#536 = FACE_OUTER_BOUND ( 'NONE', #252, .T. ) ;
#537 = VECTOR ( 'NONE', #776, 1000.000000000000000 ) ;
#538 = ADVANCED_FACE ( 'NONE', ( #23 ), #746, .F. ) ;
#539 = VECTOR ( 'NONE', #195, 1000.000000000000000 ) ;
#540 = DIRECTION ( 'NONE',  ( 1.156482317317871500E-016, -1.000000000000000000, 0.0000000000000000000 ) ) ;
#541 = VERTEX_POINT ( 'NONE', #413 ) ;
#542 = CC_DESIGN_APPROVAL ( #389, ( #684 ) ) ;
#543 = DIRECTION ( 'NONE',  ( 0.0000000000000000000, 0.0000000000000000000, 1.000000000000000000 ) ) ;
#544 = ORIENTED_EDGE ( 'NONE', *, *, #557, .T. ) ;
#545 = LINE ( 'NONE', #248, #594 ) ;
#546 = CARTESIAN_POINT ( 'NONE',  ( 6.500000000000002700, 23.00000000000000000, 0.0000000000000000000 ) ) ;
#547 = EDGE_CURVE ( 'NONE', #30, #19, #399, .T. ) ;
#548 = CARTESIAN_POINT ( 'NONE',  ( 0.7500000000000006700, 39.65685424949237600, 2.500000000000000000 ) ) ;
#549 = VERTEX_POINT ( 'NONE', #627 ) ;
#550 = CARTESIAN_POINT ( 'NONE',  ( -5.656854249492378800, 33.99999999999998600, 2.500000000000000000 ) ) ;
#551 = ORIENTED_EDGE ( 'NONE', *, *, #806, .F. ) ;
#552 = DIRECTION ( 'NONE',  ( -0.0000000000000000000, -0.0000000000000000000, -1.000000000000000000 ) ) ;
#553 = APPROVAL ( #290, 'UNSPECIFIED' ) ;
#554 = DIRECTION ( 'NONE',  ( -1.156482317317871500E-016, -1.000000000000000000, 0.0000000000000000000 ) ) ;
#555 = CARTESIAN_POINT ( 'NONE',  ( 0.7500000000000006700, 39.65685424949237600, 2.500000000000000000 ) ) ;
#556 = ORIENTED_EDGE ( 'NONE', *, *, #690, .F. ) ;
#557 = EDGE_CURVE ( 'NONE', #224, #176, #314, .T. ) ;
#558 = EDGE_CURVE ( 'NONE', #810, #320, #118, .T. ) ;
#559 = DIRECTION ( 'NONE',  ( 1.000000000000000000, -1.156482317317871500E-016, 0.0000000000000000000 ) ) ;
#560 = DIRECTION ( 'NONE',  ( 0.0000000000000000000, 0.0000000000000000000, 1.000000000000000000 ) ) ;
#561 = PERSON_AND_ORGANIZATION ( #43, #802 ) ;
#562 = ORIENTED_EDGE ( 'NONE', *, *, #62, .F. ) ;
#563 = AXIS2_PLACEMENT_3D ( 'NONE', #752, #827, #409 ) ;
#564 = VECTOR ( 'NONE', #15, 1000.000000000000000 ) ;
#565 = FACE_OUTER_BOUND ( 'NONE', #201, .T. ) ;
#566 = ORIENTED_EDGE ( 'NONE', *, *, #547, .T. ) ;
#567 = DATE_TIME_ROLE ( 'creation_date' ) ;
#568 = EDGE_CURVE ( 'NONE', #30, #631, #679, .T. ) ;
#569 = EDGE_LOOP ( 'NONE', ( #655, #347 ) ) ;
#570 = CARTESIAN_POINT ( 'NONE',  ( -12.49999999999999600, 0.0000000000000000000, 0.0000000000000000000 ) ) ;
#571 = ORIENTED_EDGE ( 'NONE', *, *, #438, .F. ) ;
#572 = DIRECTION ( 'NONE',  ( 0.0000000000000000000, 0.0000000000000000000, 1.000000000000000000 ) ) ;
#573 = AXIS2_PLACEMENT_3D ( 'NONE', #216, #811, #145 ) ;
#574 = DIRECTION ( 'NONE',  ( -0.0000000000000000000, -0.0000000000000000000, -1.000000000000000000 ) ) ;
#575 = ORIENTED_EDGE ( 'NONE', *, *, #18, .F. ) ;
#576 = DIRECTION ( 'NONE',  ( -1.000000000000000000, 0.0000000000000000000, 0.0000000000000000000 ) ) ;
#577 = EDGE_CURVE ( 'NONE', #521, #66, #141, .T. ) ;
#578 = ORIENTED_EDGE ( 'NONE', *, *, #767, .T. ) ;
#579 = AXIS2_PLACEMENT_3D ( 'NONE', #160, #838, #10 ) ;
#580 = EDGE_CURVE ( 'NONE', #541, #589, #496, .T. ) ;
#581 = CARTESIAN_POINT ( 'NONE',  ( 4.906854249492378800, 33.99999999999997200, 2.500000000000000000 ) ) ;
#582 = EDGE_CURVE ( 'NONE', #492, #612, #596, .T. ) ;
#583 = CARTESIAN_POINT ( 'NONE',  ( 10.00000000000000400, 23.00000000000000000, 0.0000000000000000000 ) ) ;
#584 = DATE_AND_TIME ( #55, #597 ) ;
#585 = ORIENTED_EDGE ( 'NONE', *, *, #649, .T. ) ;
#586 = CIRCLE ( 'NONE', #563, 12.50000000000000200 ) ;
#587 = ORIENTED_EDGE ( 'NONE', *, *, #709, .F. ) ;
#588 = DIRECTION ( 'NONE',  ( -1.000000000000000000, 0.0000000000000000000, 0.0000000000000000000 ) ) ;
#589 = VERTEX_POINT ( 'NONE', #403 ) ;
#590 = ORIENTED_EDGE ( 'NONE', *, *, #345, .F. ) ;
#591 = CARTESIAN_POINT ( 'NONE',  ( -4.930380657631323800E-029, 39.65685424949237600, 2.500000000000000000 ) ) ;
#592 = ORIENTED_EDGE ( 'NONE', *, *, #136, .T. ) ;
#593 = CC_DESIGN_PERSON_AND_ORGANIZATION_ASSIGNMENT ( #668, #285, ( #684 ) ) ;
#594 = VECTOR ( 'NONE', #123, 1000.000000000000000 ) ;
#595 = CARTESIAN_POINT ( 'NONE',  ( 10.00000000000000400, 23.00000000000000000, 2.500000000000000000 ) ) ;
#596 = CIRCLE ( 'NONE', #253, 0.7500000000000002200 ) ;
#597 = LOCAL_TIME ( 15, 58, 0.0000000000000000000, #650 ) ;
#598 = VECTOR ( 'NONE', #672, 1000.000000000000000 ) ;
#599 = LINE ( 'NONE', #428, #28 ) ;
#600 = ORIENTED_EDGE ( 'NONE', *, *, #288, .F. ) ;
#601 = DIRECTION ( 'NONE',  ( -0.0000000000000000000, -0.0000000000000000000, -1.000000000000000000 ) ) ;
#602 = EDGE_CURVE ( 'NONE', #372, #508, #354, .T. ) ;
#603 = ADVANCED_FACE ( 'NONE', ( #536 ), #846, .F. ) ;
#604 = CARTESIAN_POINT ( 'NONE',  ( -9.999999999999998200, 8.000000000000000000, 0.0000000000000000000 ) ) ;
#605 = APPROVAL ( #782, 'UNSPECIFIED' ) ;
#606 = ORIENTED_EDGE ( 'NONE', *, *, #147, .T. ) ;
#607 = CARTESIAN_POINT ( 'NONE',  ( -12.49999999999999600, 0.0000000000000000000, 2.500000000000000000 ) ) ;
#608 = ORIENTED_EDGE ( 'NONE', *, *, #690, .T. ) ;
#609 = VECTOR ( 'NONE', #126, 1000.000000000000000 ) ;
#610 = AXIS2_PLACEMENT_3D ( 'NONE', #766, #84, #835 ) ;
#611 = CARTESIAN_POINT ( 'NONE',  ( -6.499999999999998200, 8.000000000000000000, 0.0000000000000000000 ) ) ;
#612 = VERTEX_POINT ( 'NONE', #401 ) ;
#613 = ADVANCED_FACE ( 'NONE', ( #617 ), #469, .T. ) ;
#614 = ORIENTED_EDGE ( 'NONE', *, *, #484, .F. ) ;
#615 = DIRECTION ( 'NONE',  ( -1.530638361156006700E-016, 1.000000000000000000, 0.0000000000000000000 ) ) ;
#616 = AXIS2_PLACEMENT_3D ( 'NONE', #219, #693, #765 ) ;
#617 = FACE_OUTER_BOUND ( 'NONE', #324, .T. ) ;
#618 = ADVANCED_FACE ( 'NONE', ( #822 ), #474, .F. ) ;
#619 = CARTESIAN_POINT ( 'NONE',  ( -4.906854249492375300, 33.99999999999998600, 2.500000000000000000 ) ) ;
#620 = LINE ( 'NONE', #531, #316 ) ;
#621 = ORIENTED_EDGE ( 'NONE', *, *, #480, .F. ) ;
#622 = CIRCLE ( 'NONE', #875, 3.500000000000000000 ) ;
#623 = ORIENTED_EDGE ( 'NONE', *, *, #769, .T. ) ;
#624 = CARTESIAN_POINT ( 'NONE',  ( -12.49999999999999600, 0.0000000000000000000, 2.500000000000000000 ) ) ;
#625 = CARTESIAN_POINT ( 'NONE',  ( -4.930380657631323800E-029, 39.65685424949237600, 2.500000000000000000 ) ) ;
#626 = AXIS2_PLACEMENT_3D ( 'NONE', #842, #226, #94 ) ;
#627 = CARTESIAN_POINT ( 'NONE',  ( 6.406854249492377900, 33.99999999999997200, 0.0000000000000000000 ) ) ;
#628 = PLANE ( 'NONE',  #34 ) ;
#629 = PLANE ( 'NONE',  #255 ) ;
#630 = VERTEX_POINT ( 'NONE', #741 ) ;
#631 = VERTEX_POINT ( 'NONE', #619 ) ;
#632 = CARTESIAN_POINT ( 'NONE',  ( -6.406854249492381500, 33.99999999999998600, 0.0000000000000000000 ) ) ;
#633 = FACE_OUTER_BOUND ( 'NONE', #178, .T. ) ;
#634 = APPROVAL_ROLE ( '' ) ;
#635 = CARTESIAN_POINT ( 'NONE',  ( 3.000000000000003600, 23.00000000000000000, 2.500000000000000000 ) ) ;
#636 = CARTESIAN_POINT ( 'NONE',  ( -3.000000000000001800, 8.000000000000000000, 2.500000000000000000 ) ) ;
#637 = EDGE_LOOP ( 'NONE', ( #758, #678, #600, #448 ) ) ;
#638 = EDGE_CURVE ( 'NONE', #114, #511, #586, .T. ) ;
#639 = APPLICATION_CONTEXT ( 'configuration controlled 3d designs of mechanical parts and assemblies' ) ;
#640 = DIRECTION ( 'NONE',  ( -0.0000000000000000000, -0.0000000000000000000, -1.000000000000000000 ) ) ;
#641 = CIRCLE ( 'NONE', #140, 0.7500000000000006700 ) ;
#642 = EDGE_LOOP ( 'NONE', ( #848, #161 ) ) ;
#643 = PRODUCT_RELATED_PRODUCT_CATEGORY ( 'detail', '', ( #190 ) ) ;
#644 = VECTOR ( 'NONE', #292, 1000.000000000000000 ) ;
#645 = ORIENTED_EDGE ( 'NONE', *, *, #137, .T. ) ;
#646 = SECURITY_CLASSIFICATION_LEVEL ( 'unclassified' ) ;
#647 = PLANE ( 'NONE',  #520 ) ;
#648 = CARTESIAN_POINT ( 'NONE',  ( 0.7500000000000008900, 28.34314575050760600, 2.500000000000000000 ) ) ;
#649 = EDGE_CURVE ( 'NONE', #73, #311, #430, .T. ) ;
#650 = COORDINATED_UNIVERSAL_TIME_OFFSET ( 1, 0, .AHEAD. ) ;
#651 = ORIENTED_EDGE ( 'NONE', *, *, #484, .T. ) ;
#652 = CC_DESIGN_APPROVAL ( #605, ( #436 ) ) ;
#653 = CARTESIAN_POINT ( 'NONE',  ( -0.7500000000000006700, 39.65685424949237600, 2.500000000000000000 ) ) ;
#654 = CYLINDRICAL_SURFACE ( 'NONE', #218, 3.499999999999999600 ) ;
#655 = ORIENTED_EDGE ( 'NONE', *, *, #568, .F. ) ;
#656 = DIRECTION ( 'NONE',  ( -0.0000000000000000000, -0.0000000000000000000, -1.000000000000000000 ) ) ;
#657 = AXIS2_PLACEMENT_3D ( 'NONE', #481, #157, #414 ) ;
#658 = ORIENTED_EDGE ( 'NONE', *, *, #528, .T. ) ;
#659 = EDGE_CURVE ( 'NONE', #612, #492, #662, .T. ) ;
#660 = CIRCLE ( 'NONE', #202, 0.7499999999999997800 ) ;
#661 = LINE ( 'NONE', #682, #381 ) ;
#662 = CIRCLE ( 'NONE', #262, 0.7500000000000002200 ) ;
#663 = ORIENTED_EDGE ( 'NONE', *, *, #667, .T. ) ;
#664 = EDGE_CURVE ( 'NONE', #508, #47, #661, .T. ) ;
#665 = CC_DESIGN_DATE_AND_TIME_ASSIGNMENT ( #88, #567, ( #446 ) ) ;
#666 = DIRECTION ( 'NONE',  ( -0.0000000000000000000, -0.0000000000000000000, -1.000000000000000000 ) ) ;
#667 = EDGE_CURVE ( 'NONE', #826, #870, #357, .T. ) ;
#668 = PERSON_AND_ORGANIZATION ( #43, #802 ) ;
#669 = VERTEX_POINT ( 'NONE', #753 ) ;
#670 = EDGE_CURVE ( 'NONE', #107, #870, #641, .T. ) ;
#671 = ORIENTED_EDGE ( 'NONE', *, *, #489, .T. ) ;
#672 = DIRECTION ( 'NONE',  ( -0.0000000000000000000, -0.0000000000000000000, -1.000000000000000000 ) ) ;
#673 = CARTESIAN_POINT ( 'NONE',  ( 9.999999999999998200, 8.000000000000000000, 2.500000000000000000 ) ) ;
#674 = EDGE_LOOP ( 'NONE', ( #773, #148, #418, #12 ) ) ;
#675 = ADVANCED_FACE ( 'NONE', ( #886 ), #295, .F. ) ;
#676 = DIRECTION ( 'NONE',  ( 0.0000000000000000000, 0.0000000000000000000, 1.000000000000000000 ) ) ;
#677 = VECTOR ( 'NONE', #790, 1000.000000000000000 ) ;
#678 = ORIENTED_EDGE ( 'NONE', *, *, #39, .F. ) ;
#679 = CIRCLE ( 'NONE', #452, 0.7500000000000032200 ) ;
#680 = LINE ( 'NONE', #583, #166 ) ;
#681 = VERTEX_POINT ( 'NONE', #282 ) ;
#682 = CARTESIAN_POINT ( 'NONE',  ( 3.000000000000003600, 23.00000000000000000, 0.0000000000000000000 ) ) ;
#683 = VECTOR ( 'NONE', #68, 1000.000000000000000 ) ;
#684 = PRODUCT_DEFINITION_FORMATION_WITH_SPECIFIED_SOURCE ( 'ANY', '', #190, .NOT_KNOWN. ) ;
#685 = DIRECTION ( 'NONE',  ( 1.000000000000000000, 0.0000000000000000000, 0.0000000000000000000 ) ) ;
#686 = ORIENTED_EDGE ( 'NONE', *, *, #489, .F. ) ;
#687 = VERTEX_POINT ( 'NONE', #485 ) ;
#688 = ADVANCED_FACE ( 'NONE', ( #865 ), #249, .F. ) ;
#689 = CARTESIAN_POINT ( 'NONE',  ( -2.500000000000000900, 33.99999999999998600, 0.0000000000000000000 ) ) ;
#690 = EDGE_CURVE ( 'NONE', #267, #320, #167, .T. ) ;
#691 = EDGE_LOOP ( 'NONE', ( #738, #839, #614, #41 ) ) ;
#692 = VERTEX_POINT ( 'NONE', #17 ) ;
#693 = DIRECTION ( 'NONE',  ( -0.0000000000000000000, -0.0000000000000000000, -1.000000000000000000 ) ) ;
#694 = CARTESIAN_POINT ( 'NONE',  ( 0.0000000000000000000, 33.99999999999998600, 2.500000000000000000 ) ) ;
#695 = CARTESIAN_POINT ( 'NONE',  ( 5.656854249492378800, 33.99999999999997200, 0.0000000000000000000 ) ) ;
#696 = VECTOR ( 'NONE', #50, 1000.000000000000000 ) ;
#697 = DIRECTION ( 'NONE',  ( 0.0000000000000000000, 0.0000000000000000000, 1.000000000000000000 ) ) ;
#698 = VERTEX_POINT ( 'NONE', #689 ) ;
#699 = DIRECTION ( 'NONE',  ( 1.156482317317871500E-016, 1.000000000000000000, 0.0000000000000000000 ) ) ;
#700 = DIRECTION ( 'NONE',  ( 0.0000000000000000000, 0.0000000000000000000, 1.000000000000000000 ) ) ;
#701 = LINE ( 'NONE', #725, #495 ) ;
#702 = CARTESIAN_POINT ( 'NONE',  ( -6.499999999999998200, 8.000000000000000000, 2.500000000000000000 ) ) ;
#703 = AXIS2_PLACEMENT_3D ( 'NONE', #488, #560, #845 ) ;
#704 = APPLICATION_PROTOCOL_DEFINITION ( 'international standard', 'config_control_design', 1994, #639 ) ;
#705 = FACE_BOUND ( 'NONE', #261, .T. ) ;
#706 = DIRECTION ( 'NONE',  ( 1.156482317317871500E-016, -1.000000000000000000, 0.0000000000000000000 ) ) ;
#707 = CIRCLE ( 'NONE', #657, 3.500000000000000000 ) ;
#708 = FACE_OUTER_BOUND ( 'NONE', #419, .T. ) ;
#709 = EDGE_CURVE ( 'NONE', #630, #310, #707, .T. ) ;
#710 = APPLICATION_CONTEXT ( 'configuration controlled 3d designs of mechanical parts and assemblies' ) ;
#711 = CARTESIAN_POINT ( 'NONE',  ( -5.656854249492378800, 33.99999999999998600, 2.500000000000000000 ) ) ;
#712 = EDGE_CURVE ( 'NONE', #19, #51, #76, .T. ) ;
#713 = ORIENTED_EDGE ( 'NONE', *, *, #411, .F. ) ;
#714 = PERSON_AND_ORGANIZATION_ROLE ( 'classification_officer' ) ;
#715 = DIRECTION ( 'NONE',  ( -0.0000000000000000000, -0.0000000000000000000, -1.000000000000000000 ) ) ;
#716 = ORIENTED_EDGE ( 'NONE', *, *, #503, .T. ) ;
#717 = CARTESIAN_POINT ( 'NONE',  ( -3.000000000000001800, 8.000000000000000000, 0.0000000000000000000 ) ) ;
#718 = ORIENTED_EDGE ( 'NONE', *, *, #302, .T. ) ;
#719 = ORIENTED_EDGE ( 'NONE', *, *, #60, .T. ) ;
#720 = DIRECTION ( 'NONE',  ( -0.0000000000000000000, -0.0000000000000000000, -1.000000000000000000 ) ) ;
#721 = DIRECTION ( 'NONE',  ( 0.0000000000000000000, 0.0000000000000000000, 1.000000000000000000 ) ) ;
#722 = EDGE_CURVE ( 'NONE', #631, #30, #447, .T. ) ;
#723 = ORIENTED_EDGE ( 'NONE', *, *, #302, .F. ) ;
#724 = EDGE_CURVE ( 'NONE', #549, #864, #185, .T. ) ;
#725 = CARTESIAN_POINT ( 'NONE',  ( -2.500000000000000900, 33.99999999999998600, 2.500000000000000000 ) ) ;
#726 = VECTOR ( 'NONE', #464, 1000.000000000000000 ) ;
#727 = FACE_BOUND ( 'NONE', #780, .T. ) ;
#728 = EDGE_LOOP ( 'NONE', ( #130, #860 ) ) ;
#729 = DIRECTION ( 'NONE',  ( -0.0000000000000000000, -0.0000000000000000000, -1.000000000000000000 ) ) ;
#730 = LINE ( 'NONE', #58, #539 ) ;
#731 = DIRECTION ( 'NONE',  ( -0.0000000000000000000, -0.0000000000000000000, -1.000000000000000000 ) ) ;
#732 = CC_DESIGN_PERSON_AND_ORGANIZATION_ASSIGNMENT ( #294, #231, ( #684 ) ) ;
#733 = DIRECTION ( 'NONE',  ( -1.530638361156006700E-016, -1.000000000000000000, 0.0000000000000000000 ) ) ;
#734 = COORDINATED_UNIVERSAL_TIME_OFFSET ( 1, 0, .AHEAD. ) ;
#735 = LINE ( 'NONE', #138, #380 ) ;
#736 = AXIS2_PLACEMENT_3D ( 'NONE', #221, #768, #493 ) ;
#737 = DIRECTION ( 'NONE',  ( 1.000000000000000000, 0.0000000000000000000, 0.0000000000000000000 ) ) ;
#738 = ORIENTED_EDGE ( 'NONE', *, *, #127, .T. ) ;
#739 = PRODUCT_DEFINITION_SHAPE ( 'NONE', 'NONE',  #446 ) ;
#740 = ORIENTED_EDGE ( 'NONE', *, *, #7, .T. ) ;
#741 = CARTESIAN_POINT ( 'NONE',  ( -3.000000000000003600, 23.00000000000000000, 0.0000000000000000000 ) ) ;
#742 = CARTESIAN_POINT ( 'NONE',  ( -0.7499999999999995600, 28.34314575050760600, 2.500000000000000000 ) ) ;
#743 = ORIENTED_EDGE ( 'NONE', *, *, #108, .T. ) ;
#744 = DATE_AND_TIME ( #507, #833 ) ;
#745 = EDGE_CURVE ( 'NONE', #66, #521, #291, .T. ) ;
#746 = CYLINDRICAL_SURFACE ( 'NONE', #616, 0.7500000000000002200 ) ;
#747 = CARTESIAN_POINT ( 'NONE',  ( 5.656854249492378800, 33.99999999999997200, 0.0000000000000000000 ) ) ;
#748 = ORIENTED_EDGE ( 'NONE', *, *, #722, .T. ) ;
#749 = ADVANCED_FACE ( 'NONE', ( #331, #517, #885, #263, #705, #783, #867, #46 ), #628, .F. ) ;
#750 = AXIS2_PLACEMENT_3D ( 'NONE', #762, #217, #829 ) ;
#751 = CARTESIAN_POINT ( 'NONE',  ( 0.7500000000000006700, 39.65685424949237600, 0.0000000000000000000 ) ) ;
#752 = CARTESIAN_POINT ( 'NONE',  ( 0.0000000000000000000, 33.99999999999998600, 0.0000000000000000000 ) ) ;
#753 = CARTESIAN_POINT ( 'NONE',  ( -2.500000000000000900, 33.99999999999998600, 2.500000000000000000 ) ) ;
#754 = ORIENTED_EDGE ( 'NONE', *, *, #831, .F. ) ;
#755 = EDGE_CURVE ( 'NONE', #176, #864, #408, .T. ) ;
#756 = LINE ( 'NONE', #48, #35 ) ;
#757 = CALENDAR_DATE ( 2018, 4, 11 ) ;
#758 = ORIENTED_EDGE ( 'NONE', *, *, #801, .F. ) ;
#759 = CARTESIAN_POINT ( 'NONE',  ( 6.499999999999998200, 8.000000000000000000, 2.500000000000000000 ) ) ;
#760 = DIRECTION ( 'NONE',  ( 1.000000000000000000, 0.0000000000000000000, 0.0000000000000000000 ) ) ;
#761 = DIRECTION ( 'NONE',  ( -0.0000000000000000000, -0.0000000000000000000, -1.000000000000000000 ) ) ;
#762 = CARTESIAN_POINT ( 'NONE',  ( 6.927648449883514400E-016, 28.34314575050760600, 0.0000000000000000000 ) ) ;
#763 = EDGE_CURVE ( 'NONE', #870, #107, #27, .T. ) ;
#764 = DIRECTION ( 'NONE',  ( -1.000000000000000000, 1.156482317317871500E-016, 0.0000000000000000000 ) ) ;
#765 = DIRECTION ( 'NONE',  ( -1.000000000000000000, 0.0000000000000000000, 0.0000000000000000000 ) ) ;
#766 = CARTESIAN_POINT ( 'NONE',  ( 6.927648449883514400E-016, 28.34314575050760600, 2.500000000000000000 ) ) ;
#767 = EDGE_CURVE ( 'NONE', #589, #47, #205, .T. ) ;
#768 = DIRECTION ( 'NONE',  ( 0.0000000000000000000, 0.0000000000000000000, 1.000000000000000000 ) ) ;
#769 = EDGE_CURVE ( 'NONE', #47, #311, #774, .T. ) ;
#770 = DIRECTION ( 'NONE',  ( 0.0000000000000000000, 0.0000000000000000000, 1.000000000000000000 ) ) ;
#771 = PERSON_AND_ORGANIZATION ( #43, #802 ) ;
#772 = CARTESIAN_POINT ( 'NONE',  ( 3.000000000000003600, 23.00000000000000000, 2.500000000000000000 ) ) ;
#773 = ORIENTED_EDGE ( 'NONE', *, *, #638, .F. ) ;
#774 = CIRCLE ( 'NONE', #300, 3.500000000000000000 ) ;
#775 = ORIENTED_EDGE ( 'NONE', *, *, #577, .F. ) ;
#776 = DIRECTION ( 'NONE',  ( -0.0000000000000000000, -0.0000000000000000000, -1.000000000000000000 ) ) ;
#777 = CARTESIAN_POINT ( 'NONE',  ( -10.00000000000000400, 23.00000000000000000, 2.500000000000000000 ) ) ;
#778 = ORIENTED_EDGE ( 'NONE', *, *, #391, .T. ) ;
#779 = PERSON_AND_ORGANIZATION_ROLE ( 'creator' ) ;
#780 = EDGE_LOOP ( 'NONE', ( #135, #122 ) ) ;
#781 = LINE ( 'NONE', #797, #52 ) ;
#782 = APPROVAL_STATUS ( 'not_yet_approved' ) ;
#783 = FACE_BOUND ( 'NONE', #131, .T. ) ;
#784 = CARTESIAN_POINT ( 'NONE',  ( -9.999999999999998200, 8.000000000000000000, 2.500000000000000000 ) ) ;
#785 = PERSON_AND_ORGANIZATION ( #43, #802 ) ;
#786 = LINE ( 'NONE', #150, #598 ) ;
#787 = ORIENTED_EDGE ( 'NONE', *, *, #602, .T. ) ;
#788 = DIRECTION ( 'NONE',  ( 1.000000000000000000, 0.0000000000000000000, 0.0000000000000000000 ) ) ;
#789 = CARTESIAN_POINT ( 'NONE',  ( 0.0000000000000000000, 33.99999999999998600, 2.500000000000000000 ) ) ;
#790 = DIRECTION ( 'NONE',  ( -1.156482317317871500E-016, 1.000000000000000000, -0.0000000000000000000 ) ) ;
#791 = PERSON_AND_ORGANIZATION ( #43, #802 ) ;
#792 = EDGE_LOOP ( 'NONE', ( #37, #230, #513, #210 ) ) ;
#793 = DIRECTION ( 'NONE',  ( 1.000000000000000000, 0.0000000000000000000, 0.0000000000000000000 ) ) ;
#794 = EDGE_LOOP ( 'NONE', ( #374, #328, #80, #335 ) ) ;
#795 = LINE ( 'NONE', #857, #813 ) ;
#796 = AXIS2_PLACEMENT_3D ( 'NONE', #54, #388, #63 ) ;
#797 = CARTESIAN_POINT ( 'NONE',  ( -4.906854249492375300, 33.99999999999998600, 2.500000000000000000 ) ) ;
#798 = LINE ( 'NONE', #519, #696 ) ;
#799 = ORIENTED_EDGE ( 'NONE', *, *, #664, .T. ) ;
#800 = VECTOR ( 'NONE', #275, 1000.000000000000000 ) ;
#801 = EDGE_CURVE ( 'NONE', #204, #306, #187, .T. ) ;
#802 = ORGANIZATION ( 'UNSPECIFIED', 'UNSPECIFIED', '' ) ;
#803 = LINE ( 'NONE', #570, #887 ) ;
#804 = ORIENTED_EDGE ( 'NONE', *, *, #558, .T. ) ;
#805 = EDGE_CURVE ( 'NONE', #669, #522, #334, .T. ) ;
#806 = EDGE_CURVE ( 'NONE', #311, #372, #680, .T. ) ;
#807 = EDGE_LOOP ( 'NONE', ( #222, #33 ) ) ;
#808 = CARTESIAN_POINT ( 'NONE',  ( 5.656854249492378800, 33.99999999999997200, 2.500000000000000000 ) ) ;
#809 = ADVANCED_FACE ( 'NONE', ( #315, #727, #142, #499, #847, #471, #516, #203 ), #128, .T. ) ;
#810 = VERTEX_POINT ( 'NONE', #604 ) ;
#811 = DIRECTION ( 'NONE',  ( 0.0000000000000000000, 0.0000000000000000000, 1.000000000000000000 ) ) ;
#812 = DIRECTION ( 'NONE',  ( 1.000000000000000000, 0.0000000000000000000, 0.0000000000000000000 ) ) ;
#813 = VECTOR ( 'NONE', #788, 1000.000000000000000 ) ;
#814 = ADVANCED_FACE ( 'NONE', ( #236 ), #265, .F. ) ;
#815 = DIRECTION ( 'NONE',  ( 1.000000000000000000, 0.0000000000000000000, 0.0000000000000000000 ) ) ;
#816 = VERTEX_POINT ( 'NONE', #529 ) ;
#817 = DIRECTION ( 'NONE',  ( -0.0000000000000000000, -0.0000000000000000000, -1.000000000000000000 ) ) ;
#818 = FACE_OUTER_BOUND ( 'NONE', #792, .T. ) ;
#819 = VERTEX_POINT ( 'NONE', #607 ) ;
#820 = CARTESIAN_POINT ( 'NONE',  ( 3.000000000000003600, 23.00000000000000000, 2.500000000000000000 ) ) ;
#821 = CARTESIAN_POINT ( 'NONE',  ( -0.7499999999999995600, 28.34314575050760600, 2.500000000000000000 ) ) ;
#822 = FACE_OUTER_BOUND ( 'NONE', #691, .T. ) ;
#823 = CARTESIAN_POINT ( 'NONE',  ( -5.656854249492378800, 33.99999999999998600, 2.500000000000000000 ) ) ;
#824 = LINE ( 'NONE', #772, #537 ) ;
#825 = DIRECTION ( 'NONE',  ( 0.0000000000000000000, 0.0000000000000000000, 1.000000000000000000 ) ) ;
#826 = VERTEX_POINT ( 'NONE', #548 ) ;
#827 = DIRECTION ( 'NONE',  ( 0.0000000000000000000, 0.0000000000000000000, 1.000000000000000000 ) ) ;
#828 = EDGE_CURVE ( 'NONE', #492, #521, #449, .T. ) ;
#829 = DIRECTION ( 'NONE',  ( 1.000000000000000000, 0.0000000000000000000, 0.0000000000000000000 ) ) ;
#830 = ORIENTED_EDGE ( 'NONE', *, *, #199, .T. ) ;
#831 = EDGE_CURVE ( 'NONE', #872, #511, #786, .T. ) ;
#832 = DIRECTION ( 'NONE',  ( -0.0000000000000000000, -0.0000000000000000000, -1.000000000000000000 ) ) ;
#833 = LOCAL_TIME ( 15, 58, 0.0000000000000000000, #734 ) ;
#834 = EDGE_LOOP ( 'NONE', ( #587, #571, #109, #743 ) ) ;
#835 = DIRECTION ( 'NONE',  ( -1.000000000000000000, 0.0000000000000000000, 0.0000000000000000000 ) ) ;
#836 = DIRECTION ( 'NONE',  ( -0.0000000000000000000, -0.0000000000000000000, -1.000000000000000000 ) ) ;
#837 = VECTOR ( 'NONE', #512, 1000.000000000000000 ) ;
#838 = DIRECTION ( 'NONE',  ( 0.0000000000000000000, 0.0000000000000000000, 1.000000000000000000 ) ) ;
#839 = ORIENTED_EDGE ( 'NONE', *, *, #307, .F. ) ;
#840 = CARTESIAN_POINT ( 'NONE',  ( 6.500000000000002700, 23.00000000000000000, 2.500000000000000000 ) ) ;
#841 = DIRECTION ( 'NONE',  ( 0.0000000000000000000, 0.0000000000000000000, 1.000000000000000000 ) ) ;
#842 = CARTESIAN_POINT ( 'NONE',  ( 0.0000000000000000000, 0.0000000000000000000, 0.0000000000000000000 ) ) ;
#843 = DIRECTION ( 'NONE',  ( -1.000000000000000000, 0.0000000000000000000, 0.0000000000000000000 ) ) ;
#844 = CIRCLE ( 'NONE', #319, 0.7500000000000006700 ) ;
#845 = DIRECTION ( 'NONE',  ( 1.000000000000000000, 0.0000000000000000000, 0.0000000000000000000 ) ) ;
#846 = CYLINDRICAL_SURFACE ( 'NONE', #456, 0.7500000000000006700 ) ;
#847 = FACE_BOUND ( 'NONE', #313, .T. ) ;
#848 = ORIENTED_EDGE ( 'NONE', *, *, #582, .F. ) ;
#849 = ORIENTED_EDGE ( 'NONE', *, *, #670, .F. ) ;
#850 = CARTESIAN_POINT ( 'NONE',  ( 0.0000000000000000000, 33.99999999999998600, 2.500000000000000000 ) ) ;
#851 = AXIS2_PLACEMENT_3D ( 'NONE', #840, #640, #843 ) ;
#852 = FACE_OUTER_BOUND ( 'NONE', #69, .T. ) ;
#853 =( NAMED_UNIT ( * ) SI_UNIT ( $, .STERADIAN. ) SOLID_ANGLE_UNIT ( ) );
#854 = CARTESIAN_POINT ( 'NONE',  ( -0.7500000000000006700, 39.65685424949237600, 2.500000000000000000 ) ) ;
#855 = ORIENTED_EDGE ( 'NONE', *, *, #659, .T. ) ;
#856 = EDGE_LOOP ( 'NONE', ( #11, #592, #775, #386 ) ) ;
#857 = CARTESIAN_POINT ( 'NONE',  ( -12.49999999999999600, 0.0000000000000000000, 2.500000000000000000 ) ) ;
#858 = CALENDAR_DATE ( 2018, 4, 11 ) ;
#859 = ORIENTED_EDGE ( 'NONE', *, *, #769, .F. ) ;
#860 = ORIENTED_EDGE ( 'NONE', *, *, #724, .T. ) ;
#861 = CARTESIAN_POINT ( 'NONE',  ( 10.00000000000000400, 23.00000000000000000, 2.500000000000000000 ) ) ;
#862 = ORIENTED_EDGE ( 'NONE', *, *, #577, .T. ) ;
#863 = CYLINDRICAL_SURFACE ( 'NONE', #395, 0.7499999999999997800 ) ;
#864 = VERTEX_POINT ( 'NONE', #340 ) ;
#865 = FACE_OUTER_BOUND ( 'NONE', #856, .T. ) ;
#866 = DIRECTION ( 'NONE',  ( -1.000000000000000000, 0.0000000000000000000, 0.0000000000000000000 ) ) ;
#867 = FACE_OUTER_BOUND ( 'NONE', #674, .T. ) ;
#868 = FACE_OUTER_BOUND ( 'NONE', #400, .T. ) ;
#869 = ORIENTED_EDGE ( 'NONE', *, *, #558, .F. ) ;
#870 = VERTEX_POINT ( 'NONE', #751 ) ;
#871 = CARTESIAN_POINT ( 'NONE',  ( -3.000000000000003600, 23.00000000000000000, 2.500000000000000000 ) ) ;
#872 = VERTEX_POINT ( 'NONE', #70 ) ;
#873 = EDGE_CURVE ( 'NONE', #323, #698, #250, .T. ) ;
#874 = PLANE ( 'NONE',  #470 ) ;
#875 = AXIS2_PLACEMENT_3D ( 'NONE', #490, #697, #420 ) ;
#876 = CARTESIAN_POINT ( 'NONE',  ( 0.0000000000000000000, 33.99999999999998600, 2.500000000000000000 ) ) ;
#877 = EDGE_LOOP ( 'NONE', ( #458, #440, #606, #151 ) ) ;
#878 = DIRECTION ( 'NONE',  ( 0.0000000000000000000, 0.0000000000000000000, 1.000000000000000000 ) ) ;
#879 = ORIENTED_EDGE ( 'NONE', *, *, #288, .T. ) ;
#880 = DIRECTION ( 'NONE',  ( 0.0000000000000000000, 0.0000000000000000000, 1.000000000000000000 ) ) ;
#881 = CARTESIAN_POINT ( 'NONE',  ( -3.000000000000003600, 23.00000000000000000, 0.0000000000000000000 ) ) ;
#882 = ORIENTED_EDGE ( 'NONE', *, *, #649, .F. ) ;
#883 = DIRECTION ( 'NONE',  ( 0.0000000000000000000, 0.0000000000000000000, 1.000000000000000000 ) ) ;
#884 = LINE ( 'NONE', #309, #677 ) ;
#885 = FACE_BOUND ( 'NONE', #728, .T. ) ;
#886 = FACE_OUTER_BOUND ( 'NONE', #95, .T. ) ;
#887 = VECTOR ( 'NONE', #168, 1000.000000000000000 ) ;
#888 = ADVANCED_FACE ( 'NONE', ( #121 ), #56, .F. ) ;
#889 = DIRECTION ( 'NONE',  ( -0.0000000000000000000, -0.0000000000000000000, -1.000000000000000000 ) ) ;
ENDSEC;
END-ISO-10303-21;
