ISO-10303-21;
HEADER;
FILE_DESCRIPTION (( 'STEP AP203' ),
    '1' );
FILE_NAME ('yaw_motor_1_stator_Domyúlna_sldprt.STEP',
    '2018-11-04T14:57:59',
    ( '' ),
    ( '' ),
    'SwSTEP 2.0',
    'SolidWorks 2016',
    '' );
FILE_SCHEMA (( 'CONFIG_CONTROL_DESIGN' ));
ENDSEC;

DATA;
#1 = EDGE_CURVE ( 'NONE', #15, #92, #62, .T. ) ;
#2 = CARTESIAN_POINT ( 'NONE',  ( 0.0000000000000000000, 0.0000000000000000000, 3.000000000000000000 ) ) ;
#3 = DIRECTION ( 'NONE',  ( 0.0000000000000000000, 0.0000000000000000000, 1.000000000000000000 ) ) ;
#4 = PERSON_AND_ORGANIZATION_ROLE ( 'creator' ) ;
#5 = DIRECTION ( 'NONE',  ( -1.000000000000000000, 0.0000000000000000000, 0.0000000000000000000 ) ) ;
#6 = DATE_TIME_ROLE ( 'creation_date' ) ;
#7 = PERSON_AND_ORGANIZATION ( #19, #91 ) ;
#8 = APPLICATION_CONTEXT ( 'configuration controlled 3d designs of mechanical parts and assemblies' ) ;
#9 = AXIS2_PLACEMENT_3D ( 'NONE', #53, #75, #102 ) ;
#10 = CARTESIAN_POINT ( 'NONE',  ( 0.0000000000000000000, 0.0000000000000000000, 0.0000000000000000000 ) ) ;
#11 = PERSON_AND_ORGANIZATION ( #19, #91 ) ;
#12 = PRODUCT_RELATED_PRODUCT_CATEGORY ( 'detail', '', ( #16 ) ) ;
#13 = EDGE_LOOP ( 'NONE', ( #119, #164 ) ) ;
#14 = APPROVAL_DATE_TIME ( #52, #37 ) ;
#15 = VERTEX_POINT ( 'NONE', #64 ) ;
#16 = PRODUCT ( 'yaw_motor_1_stator_Domyúlna_sldprt', 'yaw_motor_1_stator_Domyúlna_sldprt', '', ( #32 ) ) ;
#17 = SHAPE_DEFINITION_REPRESENTATION ( #79, #42 ) ;
#18 = FACE_OUTER_BOUND ( 'NONE', #77, .T. ) ;
#19 = PERSON ( 'UNSPECIFIED', 'UNSPECIFIED', 'UNSPECIFIED', ('UNSPECIFIED'), ('UNSPECIFIED'), ('UNSPECIFIED') ) ;
#20 = DIRECTION ( 'NONE',  ( 0.0000000000000000000, 0.0000000000000000000, 1.000000000000000000 ) ) ;
#21 =( NAMED_UNIT ( * ) PLANE_ANGLE_UNIT ( ) SI_UNIT ( $, .RADIAN. ) );
#22 = UNCERTAINTY_MEASURE_WITH_UNIT (LENGTH_MEASURE( 1.000000000000000100E-005 ), #41, 'distance_accuracy_value', 'NONE');
#23 = LOCAL_TIME ( 15, 57, 59.00000000000000000, #88 ) ;
#24 = SECURITY_CLASSIFICATION_LEVEL ( 'unclassified' ) ;
#25 = AXIS2_PLACEMENT_3D ( 'NONE', #170, #20, #168 ) ;
#26 = DIRECTION ( 'NONE',  ( 0.0000000000000000000, 0.0000000000000000000, 1.000000000000000000 ) ) ;
#27 = APPLICATION_PROTOCOL_DEFINITION ( 'international standard', 'config_control_design', 1994, #124 ) ;
#28 = LOCAL_TIME ( 15, 57, 59.00000000000000000, #117 ) ;
#29 = CLOSED_SHELL ( 'NONE', ( #40, #148, #78, #103 ) ) ;
#30 = PLANE ( 'NONE',  #139 ) ;
#31 = DIRECTION ( 'NONE',  ( -0.0000000000000000000, -0.0000000000000000000, -1.000000000000000000 ) ) ;
#32 = MECHANICAL_CONTEXT ( 'NONE', #8, 'mechanical' ) ;
#33 = DIRECTION ( 'NONE',  ( -0.0000000000000000000, -0.0000000000000000000, -1.000000000000000000 ) ) ;
#34 = APPROVAL_STATUS ( 'not_yet_approved' ) ;
#35 = DESIGN_CONTEXT ( 'detailed design', #124, 'design' ) ;
#36 = CARTESIAN_POINT ( 'NONE',  ( -17.00000000000000000, 0.0000000000000000000, 0.0000000000000000000 ) ) ;
#37 = APPROVAL ( #44, 'UNSPECIFIED' ) ;
#38 = APPROVAL ( #43, 'UNSPECIFIED' ) ;
#39 = VERTEX_POINT ( 'NONE', #73 ) ;
#40 = ADVANCED_FACE ( 'NONE', ( #18 ), #156, .T. ) ;
#41 =( LENGTH_UNIT ( ) NAMED_UNIT ( * ) SI_UNIT ( .MILLI., .METRE. ) );
#42 = ADVANCED_BREP_SHAPE_REPRESENTATION ( 'yaw_motor_1_stator_Domyùlna_sldprt', ( #173, #129 ), #57 ) ;
#43 = APPROVAL_STATUS ( 'not_yet_approved' ) ;
#44 = APPROVAL_STATUS ( 'not_yet_approved' ) ;
#45 = DATE_AND_TIME ( #63, #74 ) ;
#46 = DIRECTION ( 'NONE',  ( 1.000000000000000000, 0.0000000000000000000, 0.0000000000000000000 ) ) ;
#47 = APPROVAL ( #34, 'UNSPECIFIED' ) ;
#48 = FACE_OUTER_BOUND ( 'NONE', #13, .T. ) ;
#49 = EDGE_CURVE ( 'NONE', #107, #92, #51, .T. ) ;
#50 = APPROVAL_ROLE ( '' ) ;
#51 = CIRCLE ( 'NONE', #111, 17.00000000000000000 ) ;
#52 = DATE_AND_TIME ( #159, #23 ) ;
#53 = CARTESIAN_POINT ( 'NONE',  ( 0.0000000000000000000, 0.0000000000000000000, 0.0000000000000000000 ) ) ;
#54 = PERSON_AND_ORGANIZATION ( #19, #91 ) ;
#55 = ORIENTED_EDGE ( 'NONE', *, *, #152, .T. ) ;
#56 = ORIENTED_EDGE ( 'NONE', *, *, #1, .F. ) ;
#57 =( GEOMETRIC_REPRESENTATION_CONTEXT ( 3 ) GLOBAL_UNCERTAINTY_ASSIGNED_CONTEXT ( ( #22 ) ) GLOBAL_UNIT_ASSIGNED_CONTEXT ( ( #41, #21, #151 ) ) REPRESENTATION_CONTEXT ( 'NONE', 'WORKASPACE' ) );
#58 = DIRECTION ( 'NONE',  ( 0.0000000000000000000, 0.0000000000000000000, 1.000000000000000000 ) ) ;
#59 = PERSON_AND_ORGANIZATION_ROLE ( 'creator' ) ;
#60 = DIRECTION ( 'NONE',  ( -0.0000000000000000000, -0.0000000000000000000, -1.000000000000000000 ) ) ;
#61 = LOCAL_TIME ( 15, 57, 59.00000000000000000, #155 ) ;
#62 = LINE ( 'NONE', #143, #83 ) ;
#63 = CALENDAR_DATE ( 2018, 4, 11 ) ;
#64 = CARTESIAN_POINT ( 'NONE',  ( 17.00000000000000000, 2.081899558550500300E-015, 3.000000000000000000 ) ) ;
#65 = DIRECTION ( 'NONE',  ( 0.0000000000000000000, 0.0000000000000000000, 1.000000000000000000 ) ) ;
#66 = PRODUCT_DEFINITION_FORMATION_WITH_SPECIFIED_SOURCE ( 'ANY', '', #16, .NOT_KNOWN. ) ;
#67 = COORDINATED_UNIVERSAL_TIME_OFFSET ( 1, 0, .AHEAD. ) ;
#68 = PRODUCT_DEFINITION ( 'UNKNOWN', '', #66, #35 ) ;
#69 = PLANE ( 'NONE',  #76 ) ;
#70 = AXIS2_PLACEMENT_3D ( 'NONE', #144, #33, #5 ) ;
#71 = PERSON_AND_ORGANIZATION ( #19, #91 ) ;
#72 = CC_DESIGN_DATE_AND_TIME_ASSIGNMENT ( #45, #6, ( #68 ) ) ;
#73 = CARTESIAN_POINT ( 'NONE',  ( -17.00000000000000000, 0.0000000000000000000, 3.000000000000000000 ) ) ;
#74 = LOCAL_TIME ( 15, 57, 59.00000000000000000, #67 ) ;
#75 = DIRECTION ( 'NONE',  ( 0.0000000000000000000, 0.0000000000000000000, 1.000000000000000000 ) ) ;
#76 = AXIS2_PLACEMENT_3D ( 'NONE', #98, #26, #100 ) ;
#77 = EDGE_LOOP ( 'NONE', ( #174, #126, #133, #167 ) ) ;
#78 = ADVANCED_FACE ( 'NONE', ( #160 ), #69, .T. ) ;
#79 = PRODUCT_DEFINITION_SHAPE ( 'NONE', 'NONE',  #68 ) ;
#80 = APPROVAL_PERSON_ORGANIZATION ( #146, #47, #50 ) ;
#81 = ORIENTED_EDGE ( 'NONE', *, *, #49, .T. ) ;
#82 = APPROVAL_DATE_TIME ( #163, #38 ) ;
#83 = VECTOR ( 'NONE', #112, 1000.000000000000000 ) ;
#84 = CC_DESIGN_DATE_AND_TIME_ASSIGNMENT ( #113, #130, ( #132 ) ) ;
#85 = APPLICATION_PROTOCOL_DEFINITION ( 'international standard', 'config_control_design', 1994, #8 ) ;
#86 = CARTESIAN_POINT ( 'NONE',  ( 0.0000000000000000000, 0.0000000000000000000, 3.000000000000000000 ) ) ;
#87 = EDGE_CURVE ( 'NONE', #92, #107, #114, .T. ) ;
#88 = COORDINATED_UNIVERSAL_TIME_OFFSET ( 1, 0, .AHEAD. ) ;
#89 = VECTOR ( 'NONE', #60, 1000.000000000000000 ) ;
#90 = ORIENTED_EDGE ( 'NONE', *, *, #145, .F. ) ;
#91 = ORGANIZATION ( 'UNSPECIFIED', 'UNSPECIFIED', '' ) ;
#92 = VERTEX_POINT ( 'NONE', #127 ) ;
#93 = APPROVAL_PERSON_ORGANIZATION ( #71, #37, #138 ) ;
#94 = PERSON_AND_ORGANIZATION ( #19, #91 ) ;
#95 = FACE_OUTER_BOUND ( 'NONE', #104, .T. ) ;
#96 = CC_DESIGN_PERSON_AND_ORGANIZATION_ASSIGNMENT ( #118, #4, ( #68 ) ) ;
#97 = ORIENTED_EDGE ( 'NONE', *, *, #109, .T. ) ;
#98 = CARTESIAN_POINT ( 'NONE',  ( 0.0000000000000000000, 0.0000000000000000000, 3.000000000000000000 ) ) ;
#99 = DIRECTION ( 'NONE',  ( 1.000000000000000000, 0.0000000000000000000, 0.0000000000000000000 ) ) ;
#100 = DIRECTION ( 'NONE',  ( 1.000000000000000000, 0.0000000000000000000, -0.0000000000000000000 ) ) ;
#101 = CC_DESIGN_APPROVAL ( #37, ( #66 ) ) ;
#102 = DIRECTION ( 'NONE',  ( 1.000000000000000000, 0.0000000000000000000, 0.0000000000000000000 ) ) ;
#103 = ADVANCED_FACE ( 'NONE', ( #48 ), #30, .F. ) ;
#104 = EDGE_LOOP ( 'NONE', ( #56, #90, #55, #81 ) ) ;
#105 = CALENDAR_DATE ( 2018, 4, 11 ) ;
#106 = CC_DESIGN_PERSON_AND_ORGANIZATION_ASSIGNMENT ( #7, #59, ( #66 ) ) ;
#107 = VERTEX_POINT ( 'NONE', #36 ) ;
#108 = PERSON_AND_ORGANIZATION_ROLE ( 'design_owner' ) ;
#109 = EDGE_CURVE ( 'NONE', #15, #39, #131, .T. ) ;
#110 = PERSON_AND_ORGANIZATION_ROLE ( 'classification_officer' ) ;
#111 = AXIS2_PLACEMENT_3D ( 'NONE', #10, #3, #140 ) ;
#112 = DIRECTION ( 'NONE',  ( -0.0000000000000000000, -0.0000000000000000000, -1.000000000000000000 ) ) ;
#113 = DATE_AND_TIME ( #141, #61 ) ;
#114 = CIRCLE ( 'NONE', #9, 17.00000000000000000 ) ;
#115 = DIRECTION ( 'NONE',  ( 1.000000000000000000, 0.0000000000000000000, -0.0000000000000000000 ) ) ;
#116 = AXIS2_PLACEMENT_3D ( 'NONE', #86, #31, #169 ) ;
#117 = COORDINATED_UNIVERSAL_TIME_OFFSET ( 1, 0, .AHEAD. ) ;
#118 = PERSON_AND_ORGANIZATION ( #19, #91 ) ;
#119 = ORIENTED_EDGE ( 'NONE', *, *, #49, .F. ) ;
#120 = CC_DESIGN_APPROVAL ( #38, ( #68 ) ) ;
#121 = LINE ( 'NONE', #125, #89 ) ;
#122 = PERSON_AND_ORGANIZATION ( #19, #91 ) ;
#123 = CC_DESIGN_PERSON_AND_ORGANIZATION_ASSIGNMENT ( #94, #154, ( #66 ) ) ;
#124 = APPLICATION_CONTEXT ( 'configuration controlled 3d designs of mechanical parts and assemblies' ) ;
#125 = CARTESIAN_POINT ( 'NONE',  ( -17.00000000000000000, 0.0000000000000000000, 3.000000000000000000 ) ) ;
#126 = ORIENTED_EDGE ( 'NONE', *, *, #1, .T. ) ;
#127 = CARTESIAN_POINT ( 'NONE',  ( 17.00000000000000000, 2.081899558550500300E-015, 0.0000000000000000000 ) ) ;
#128 = CARTESIAN_POINT ( 'NONE',  ( 0.0000000000000000000, 0.0000000000000000000, 0.0000000000000000000 ) ) ;
#129 = AXIS2_PLACEMENT_3D ( 'NONE', #128, #58, #99 ) ;
#130 = DATE_TIME_ROLE ( 'classification_date' ) ;
#131 = CIRCLE ( 'NONE', #134, 17.00000000000000000 ) ;
#132 = SECURITY_CLASSIFICATION ( '', '', #24 ) ;
#133 = ORIENTED_EDGE ( 'NONE', *, *, #87, .T. ) ;
#134 = AXIS2_PLACEMENT_3D ( 'NONE', #2, #137, #46 ) ;
#135 = APPROVAL_DATE_TIME ( #150, #47 ) ;
#136 = LOCAL_TIME ( 15, 57, 59.00000000000000000, #175 ) ;
#137 = DIRECTION ( 'NONE',  ( 0.0000000000000000000, 0.0000000000000000000, 1.000000000000000000 ) ) ;
#138 = APPROVAL_ROLE ( '' ) ;
#139 = AXIS2_PLACEMENT_3D ( 'NONE', #161, #65, #115 ) ;
#140 = DIRECTION ( 'NONE',  ( 1.000000000000000000, 0.0000000000000000000, 0.0000000000000000000 ) ) ;
#141 = CALENDAR_DATE ( 2018, 4, 11 ) ;
#142 = CC_DESIGN_APPROVAL ( #47, ( #132 ) ) ;
#143 = CARTESIAN_POINT ( 'NONE',  ( 17.00000000000000000, 2.081899558550500300E-015, 3.000000000000000000 ) ) ;
#144 = CARTESIAN_POINT ( 'NONE',  ( 0.0000000000000000000, 0.0000000000000000000, 3.000000000000000000 ) ) ;
#145 = EDGE_CURVE ( 'NONE', #39, #15, #158, .T. ) ;
#146 = PERSON_AND_ORGANIZATION ( #19, #91 ) ;
#147 = EDGE_LOOP ( 'NONE', ( #166, #97 ) ) ;
#148 = ADVANCED_FACE ( 'NONE', ( #95 ), #171, .T. ) ;
#149 = CC_DESIGN_PERSON_AND_ORGANIZATION_ASSIGNMENT ( #122, #108, ( #16 ) ) ;
#150 = DATE_AND_TIME ( #105, #136 ) ;
#151 =( NAMED_UNIT ( * ) SI_UNIT ( $, .STERADIAN. ) SOLID_ANGLE_UNIT ( ) );
#152 = EDGE_CURVE ( 'NONE', #39, #107, #121, .T. ) ;
#153 = APPROVAL_ROLE ( '' ) ;
#154 = PERSON_AND_ORGANIZATION_ROLE ( 'design_supplier' ) ;
#155 = COORDINATED_UNIVERSAL_TIME_OFFSET ( 1, 0, .AHEAD. ) ;
#156 = CYLINDRICAL_SURFACE ( 'NONE', #70, 17.00000000000000000 ) ;
#157 = APPROVAL_PERSON_ORGANIZATION ( #54, #38, #153 ) ;
#158 = CIRCLE ( 'NONE', #25, 17.00000000000000000 ) ;
#159 = CALENDAR_DATE ( 2018, 4, 11 ) ;
#160 = FACE_OUTER_BOUND ( 'NONE', #147, .T. ) ;
#161 = CARTESIAN_POINT ( 'NONE',  ( 0.0000000000000000000, 0.0000000000000000000, 0.0000000000000000000 ) ) ;
#162 = CALENDAR_DATE ( 2018, 4, 11 ) ;
#163 = DATE_AND_TIME ( #162, #28 ) ;
#164 = ORIENTED_EDGE ( 'NONE', *, *, #87, .F. ) ;
#165 = CC_DESIGN_SECURITY_CLASSIFICATION ( #132, ( #66 ) ) ;
#166 = ORIENTED_EDGE ( 'NONE', *, *, #145, .T. ) ;
#167 = ORIENTED_EDGE ( 'NONE', *, *, #152, .F. ) ;
#168 = DIRECTION ( 'NONE',  ( 1.000000000000000000, 0.0000000000000000000, 0.0000000000000000000 ) ) ;
#169 = DIRECTION ( 'NONE',  ( -1.000000000000000000, 0.0000000000000000000, 0.0000000000000000000 ) ) ;
#170 = CARTESIAN_POINT ( 'NONE',  ( 0.0000000000000000000, 0.0000000000000000000, 3.000000000000000000 ) ) ;
#171 = CYLINDRICAL_SURFACE ( 'NONE', #116, 17.00000000000000000 ) ;
#172 = CC_DESIGN_PERSON_AND_ORGANIZATION_ASSIGNMENT ( #11, #110, ( #132 ) ) ;
#173 = MANIFOLD_SOLID_BREP ( 'Dodanie-wyciπgniÍcie1', #29 ) ;
#174 = ORIENTED_EDGE ( 'NONE', *, *, #109, .F. ) ;
#175 = COORDINATED_UNIVERSAL_TIME_OFFSET ( 1, 0, .AHEAD. ) ;
ENDSEC;
END-ISO-10303-21;
