ISO-10303-21;
HEADER;
FILE_DESCRIPTION (( 'STEP AP203' ),
    '1' );
FILE_NAME ('yaw_motor_1_rotor_Domyúlna_sldprt.STEP',
    '2018-11-04T14:57:58',
    ( '' ),
    ( '' ),
    'SwSTEP 2.0',
    'SolidWorks 2016',
    '' );
FILE_SCHEMA (( 'CONFIG_CONTROL_DESIGN' ));
ENDSEC;

DATA;
#1 = DATE_TIME_ROLE ( 'creation_date' ) ;
#2 = PRODUCT_DEFINITION_SHAPE ( 'NONE', 'NONE',  #126 ) ;
#3 = LOCAL_TIME ( 15, 57, 58.00000000000000000, #17 ) ;
#4 = CC_DESIGN_APPROVAL ( #101, ( #50 ) ) ;
#5 = CIRCLE ( 'NONE', #150, 17.00000000000000000 ) ;
#6 = AXIS2_PLACEMENT_3D ( 'NONE', #75, #172, #168 ) ;
#7 =( GEOMETRIC_REPRESENTATION_CONTEXT ( 3 ) GLOBAL_UNCERTAINTY_ASSIGNED_CONTEXT ( ( #160 ) ) GLOBAL_UNIT_ASSIGNED_CONTEXT ( ( #135, #52, #137 ) ) REPRESENTATION_CONTEXT ( 'NONE', 'WORKASPACE' ) );
#8 = CARTESIAN_POINT ( 'NONE',  ( 0.0000000000000000000, 0.0000000000000000000, 10.00000000000000000 ) ) ;
#9 = PERSON_AND_ORGANIZATION ( #70, #127 ) ;
#10 = AXIS2_PLACEMENT_3D ( 'NONE', #97, #112, #62 ) ;
#11 = DIRECTION ( 'NONE',  ( -1.000000000000000000, 0.0000000000000000000, 0.0000000000000000000 ) ) ;
#12 = VECTOR ( 'NONE', #61, 1000.000000000000000 ) ;
#13 = DIRECTION ( 'NONE',  ( 0.0000000000000000000, 0.0000000000000000000, 1.000000000000000000 ) ) ;
#14 = CARTESIAN_POINT ( 'NONE',  ( 0.0000000000000000000, 0.0000000000000000000, 10.00000000000000000 ) ) ;
#15 = EDGE_LOOP ( 'NONE', ( #69, #147, #167, #29 ) ) ;
#16 = MANIFOLD_SOLID_BREP ( 'Dodanie-wyciπgniÍcie1', #117 ) ;
#17 = COORDINATED_UNIVERSAL_TIME_OFFSET ( 1, 0, .AHEAD. ) ;
#18 = DATE_AND_TIME ( #155, #121 ) ;
#19 = CALENDAR_DATE ( 2018, 4, 11 ) ;
#20 = PERSON_AND_ORGANIZATION ( #70, #127 ) ;
#21 = DIRECTION ( 'NONE',  ( 1.000000000000000000, 0.0000000000000000000, 0.0000000000000000000 ) ) ;
#22 = LOCAL_TIME ( 15, 57, 58.00000000000000000, #45 ) ;
#23 = VERTEX_POINT ( 'NONE', #122 ) ;
#24 = CIRCLE ( 'NONE', #6, 17.00000000000000000 ) ;
#25 = SECURITY_CLASSIFICATION_LEVEL ( 'unclassified' ) ;
#26 = CARTESIAN_POINT ( 'NONE',  ( 0.0000000000000000000, 0.0000000000000000000, 0.0000000000000000000 ) ) ;
#27 = PRODUCT_DEFINITION_FORMATION_WITH_SPECIFIED_SOURCE ( 'ANY', '', #55, .NOT_KNOWN. ) ;
#28 = APPROVAL_STATUS ( 'not_yet_approved' ) ;
#29 = ORIENTED_EDGE ( 'NONE', *, *, #102, .T. ) ;
#30 = COORDINATED_UNIVERSAL_TIME_OFFSET ( 1, 0, .AHEAD. ) ;
#31 = DATE_AND_TIME ( #142, #171 ) ;
#32 = PERSON_AND_ORGANIZATION ( #70, #127 ) ;
#33 = CARTESIAN_POINT ( 'NONE',  ( 0.0000000000000000000, 0.0000000000000000000, 10.00000000000000000 ) ) ;
#34 = APPROVAL_DATE_TIME ( #31, #101 ) ;
#35 = DIRECTION ( 'NONE',  ( 1.000000000000000000, 0.0000000000000000000, 0.0000000000000000000 ) ) ;
#36 = APPLICATION_CONTEXT ( 'configuration controlled 3d designs of mechanical parts and assemblies' ) ;
#37 = PERSON_AND_ORGANIZATION_ROLE ( 'classification_officer' ) ;
#38 = APPROVAL_STATUS ( 'not_yet_approved' ) ;
#39 = DIRECTION ( 'NONE',  ( 0.0000000000000000000, 0.0000000000000000000, 1.000000000000000000 ) ) ;
#40 = ORIENTED_EDGE ( 'NONE', *, *, #102, .F. ) ;
#41 = ADVANCED_FACE ( 'NONE', ( #140 ), #100, .T. ) ;
#42 = PLANE ( 'NONE',  #143 ) ;
#43 = CC_DESIGN_SECURITY_CLASSIFICATION ( #50, ( #27 ) ) ;
#44 = AXIS2_PLACEMENT_3D ( 'NONE', #26, #13, #109 ) ;
#45 = COORDINATED_UNIVERSAL_TIME_OFFSET ( 1, 0, .AHEAD. ) ;
#46 = ORIENTED_EDGE ( 'NONE', *, *, #104, .F. ) ;
#47 = DESIGN_CONTEXT ( 'detailed design', #36, 'design' ) ;
#48 = APPROVAL_DATE_TIME ( #18, #145 ) ;
#49 = PERSON_AND_ORGANIZATION ( #70, #127 ) ;
#50 = SECURITY_CLASSIFICATION ( '', '', #25 ) ;
#51 = APPLICATION_PROTOCOL_DEFINITION ( 'international standard', 'config_control_design', 1994, #36 ) ;
#52 =( NAMED_UNIT ( * ) PLANE_ANGLE_UNIT ( ) SI_UNIT ( $, .RADIAN. ) );
#53 = CYLINDRICAL_SURFACE ( 'NONE', #157, 17.00000000000000000 ) ;
#54 = EDGE_LOOP ( 'NONE', ( #40, #82 ) ) ;
#55 = PRODUCT ( 'yaw_motor_1_rotor_Domyúlna_sldprt', 'yaw_motor_1_rotor_Domyúlna_sldprt', '', ( #149 ) ) ;
#56 = CALENDAR_DATE ( 2018, 4, 11 ) ;
#57 = FACE_OUTER_BOUND ( 'NONE', #54, .T. ) ;
#58 = CC_DESIGN_APPROVAL ( #133, ( #126 ) ) ;
#59 = APPROVAL_DATE_TIME ( #96, #133 ) ;
#60 = CC_DESIGN_DATE_AND_TIME_ASSIGNMENT ( #165, #161, ( #50 ) ) ;
#61 = DIRECTION ( 'NONE',  ( -0.0000000000000000000, -0.0000000000000000000, -1.000000000000000000 ) ) ;
#62 = DIRECTION ( 'NONE',  ( 1.000000000000000000, 0.0000000000000000000, 0.0000000000000000000 ) ) ;
#63 = DATE_AND_TIME ( #103, #174 ) ;
#64 = EDGE_LOOP ( 'NONE', ( #153, #87, #162, #46 ) ) ;
#65 = PRODUCT_RELATED_PRODUCT_CATEGORY ( 'detail', '', ( #55 ) ) ;
#66 = APPLICATION_PROTOCOL_DEFINITION ( 'international standard', 'config_control_design', 1994, #78 ) ;
#67 = ADVANCED_FACE ( 'NONE', ( #141 ), #53, .T. ) ;
#68 = APPROVAL_ROLE ( '' ) ;
#69 = ORIENTED_EDGE ( 'NONE', *, *, #98, .F. ) ;
#70 = PERSON ( 'UNSPECIFIED', 'UNSPECIFIED', 'UNSPECIFIED', ('UNSPECIFIED'), ('UNSPECIFIED'), ('UNSPECIFIED') ) ;
#71 = CC_DESIGN_PERSON_AND_ORGANIZATION_ASSIGNMENT ( #130, #173, ( #55 ) ) ;
#72 = PERSON_AND_ORGANIZATION ( #70, #127 ) ;
#73 = CARTESIAN_POINT ( 'NONE',  ( 0.0000000000000000000, 0.0000000000000000000, 0.0000000000000000000 ) ) ;
#74 = LINE ( 'NONE', #105, #12 ) ;
#75 = CARTESIAN_POINT ( 'NONE',  ( 0.0000000000000000000, 0.0000000000000000000, 10.00000000000000000 ) ) ;
#76 = DIRECTION ( 'NONE',  ( -1.000000000000000000, 0.0000000000000000000, 0.0000000000000000000 ) ) ;
#77 = LINE ( 'NONE', #132, #166 ) ;
#78 = APPLICATION_CONTEXT ( 'configuration controlled 3d designs of mechanical parts and assemblies' ) ;
#79 = APPROVAL_ROLE ( '' ) ;
#80 = APPROVAL_ROLE ( '' ) ;
#81 = CIRCLE ( 'NONE', #164, 17.00000000000000000 ) ;
#82 = ORIENTED_EDGE ( 'NONE', *, *, #131, .F. ) ;
#83 = CC_DESIGN_PERSON_AND_ORGANIZATION_ASSIGNMENT ( #32, #175, ( #126 ) ) ;
#84 = DIRECTION ( 'NONE',  ( 1.000000000000000000, 0.0000000000000000000, -0.0000000000000000000 ) ) ;
#85 = APPROVAL_PERSON_ORGANIZATION ( #72, #101, #80 ) ;
#86 = PERSON_AND_ORGANIZATION ( #70, #127 ) ;
#87 = ORIENTED_EDGE ( 'NONE', *, *, #98, .T. ) ;
#88 = SHAPE_DEFINITION_REPRESENTATION ( #2, #99 ) ;
#89 = APPROVAL_PERSON_ORGANIZATION ( #20, #145, #68 ) ;
#90 = CC_DESIGN_PERSON_AND_ORGANIZATION_ASSIGNMENT ( #86, #37, ( #50 ) ) ;
#91 = DIRECTION ( 'NONE',  ( -0.0000000000000000000, -0.0000000000000000000, -1.000000000000000000 ) ) ;
#92 = CARTESIAN_POINT ( 'NONE',  ( 17.00000000000000000, 2.081899558550500300E-015, 0.0000000000000000000 ) ) ;
#93 = APPROVAL_PERSON_ORGANIZATION ( #49, #133, #79 ) ;
#94 = DIRECTION ( 'NONE',  ( -0.0000000000000000000, -0.0000000000000000000, -1.000000000000000000 ) ) ;
#95 = CARTESIAN_POINT ( 'NONE',  ( 0.0000000000000000000, 0.0000000000000000000, 0.0000000000000000000 ) ) ;
#96 = DATE_AND_TIME ( #19, #3 ) ;
#97 = CARTESIAN_POINT ( 'NONE',  ( 0.0000000000000000000, 0.0000000000000000000, 0.0000000000000000000 ) ) ;
#98 = EDGE_CURVE ( 'NONE', #138, #115, #74, .T. ) ;
#99 = ADVANCED_BREP_SHAPE_REPRESENTATION ( 'yaw_motor_1_rotor_Domyùlna_sldprt', ( #16, #44 ), #7 ) ;
#100 = CYLINDRICAL_SURFACE ( 'NONE', #113, 17.00000000000000000 ) ;
#101 = APPROVAL ( #38, 'UNSPECIFIED' ) ;
#102 = EDGE_CURVE ( 'NONE', #119, #115, #5, .T. ) ;
#103 = CALENDAR_DATE ( 2018, 4, 11 ) ;
#104 = EDGE_CURVE ( 'NONE', #23, #119, #77, .T. ) ;
#105 = CARTESIAN_POINT ( 'NONE',  ( 17.00000000000000000, 2.081899558550500300E-015, 10.00000000000000000 ) ) ;
#106 = EDGE_LOOP ( 'NONE', ( #134, #163 ) ) ;
#107 = DIRECTION ( 'NONE',  ( 0.0000000000000000000, 0.0000000000000000000, 1.000000000000000000 ) ) ;
#108 = AXIS2_PLACEMENT_3D ( 'NONE', #95, #39, #84 ) ;
#109 = DIRECTION ( 'NONE',  ( 1.000000000000000000, 0.0000000000000000000, 0.0000000000000000000 ) ) ;
#110 = DIRECTION ( 'NONE',  ( 1.000000000000000000, 0.0000000000000000000, -0.0000000000000000000 ) ) ;
#111 = DIRECTION ( 'NONE',  ( 0.0000000000000000000, 0.0000000000000000000, 1.000000000000000000 ) ) ;
#112 = DIRECTION ( 'NONE',  ( 0.0000000000000000000, 0.0000000000000000000, 1.000000000000000000 ) ) ;
#113 = AXIS2_PLACEMENT_3D ( 'NONE', #33, #91, #11 ) ;
#114 = CIRCLE ( 'NONE', #10, 17.00000000000000000 ) ;
#115 = VERTEX_POINT ( 'NONE', #92 ) ;
#116 = EDGE_CURVE ( 'NONE', #23, #138, #24, .T. ) ;
#117 = CLOSED_SHELL ( 'NONE', ( #41, #67, #151, #139 ) ) ;
#118 = COORDINATED_UNIVERSAL_TIME_OFFSET ( 1, 0, .AHEAD. ) ;
#119 = VERTEX_POINT ( 'NONE', #146 ) ;
#120 = PLANE ( 'NONE',  #108 ) ;
#121 = LOCAL_TIME ( 15, 57, 58.00000000000000000, #30 ) ;
#122 = CARTESIAN_POINT ( 'NONE',  ( -17.00000000000000000, 0.0000000000000000000, 10.00000000000000000 ) ) ;
#123 = PERSON_AND_ORGANIZATION_ROLE ( 'creator' ) ;
#124 = CC_DESIGN_APPROVAL ( #145, ( #27 ) ) ;
#125 = PERSON_AND_ORGANIZATION_ROLE ( 'design_supplier' ) ;
#126 = PRODUCT_DEFINITION ( 'UNKNOWN', '', #27, #47 ) ;
#127 = ORGANIZATION ( 'UNSPECIFIED', 'UNSPECIFIED', '' ) ;
#128 = COORDINATED_UNIVERSAL_TIME_OFFSET ( 1, 0, .AHEAD. ) ;
#129 = EDGE_CURVE ( 'NONE', #138, #23, #81, .T. ) ;
#130 = PERSON_AND_ORGANIZATION ( #70, #127 ) ;
#131 = EDGE_CURVE ( 'NONE', #115, #119, #114, .T. ) ;
#132 = CARTESIAN_POINT ( 'NONE',  ( -17.00000000000000000, 0.0000000000000000000, 10.00000000000000000 ) ) ;
#133 = APPROVAL ( #148, 'UNSPECIFIED' ) ;
#134 = ORIENTED_EDGE ( 'NONE', *, *, #116, .T. ) ;
#135 =( LENGTH_UNIT ( ) NAMED_UNIT ( * ) SI_UNIT ( .MILLI., .METRE. ) );
#136 = CC_DESIGN_DATE_AND_TIME_ASSIGNMENT ( #63, #1, ( #126 ) ) ;
#137 =( NAMED_UNIT ( * ) SI_UNIT ( $, .STERADIAN. ) SOLID_ANGLE_UNIT ( ) );
#138 = VERTEX_POINT ( 'NONE', #144 ) ;
#139 = ADVANCED_FACE ( 'NONE', ( #57 ), #120, .F. ) ;
#140 = FACE_OUTER_BOUND ( 'NONE', #64, .T. ) ;
#141 = FACE_OUTER_BOUND ( 'NONE', #15, .T. ) ;
#142 = CALENDAR_DATE ( 2018, 4, 11 ) ;
#143 = AXIS2_PLACEMENT_3D ( 'NONE', #14, #111, #110 ) ;
#144 = CARTESIAN_POINT ( 'NONE',  ( 17.00000000000000000, 2.081899558550500300E-015, 10.00000000000000000 ) ) ;
#145 = APPROVAL ( #28, 'UNSPECIFIED' ) ;
#146 = CARTESIAN_POINT ( 'NONE',  ( -17.00000000000000000, 0.0000000000000000000, 0.0000000000000000000 ) ) ;
#147 = ORIENTED_EDGE ( 'NONE', *, *, #116, .F. ) ;
#148 = APPROVAL_STATUS ( 'not_yet_approved' ) ;
#149 = MECHANICAL_CONTEXT ( 'NONE', #78, 'mechanical' ) ;
#150 = AXIS2_PLACEMENT_3D ( 'NONE', #73, #169, #21 ) ;
#151 = ADVANCED_FACE ( 'NONE', ( #156 ), #42, .T. ) ;
#152 = PERSON_AND_ORGANIZATION ( #70, #127 ) ;
#153 = ORIENTED_EDGE ( 'NONE', *, *, #129, .F. ) ;
#154 = CC_DESIGN_PERSON_AND_ORGANIZATION_ASSIGNMENT ( #9, #123, ( #27 ) ) ;
#155 = CALENDAR_DATE ( 2018, 4, 11 ) ;
#156 = FACE_OUTER_BOUND ( 'NONE', #106, .T. ) ;
#157 = AXIS2_PLACEMENT_3D ( 'NONE', #159, #94, #76 ) ;
#158 = DIRECTION ( 'NONE',  ( -0.0000000000000000000, -0.0000000000000000000, -1.000000000000000000 ) ) ;
#159 = CARTESIAN_POINT ( 'NONE',  ( 0.0000000000000000000, 0.0000000000000000000, 10.00000000000000000 ) ) ;
#160 = UNCERTAINTY_MEASURE_WITH_UNIT (LENGTH_MEASURE( 1.000000000000000100E-005 ), #135, 'distance_accuracy_value', 'NONE');
#161 = DATE_TIME_ROLE ( 'classification_date' ) ;
#162 = ORIENTED_EDGE ( 'NONE', *, *, #131, .T. ) ;
#163 = ORIENTED_EDGE ( 'NONE', *, *, #129, .T. ) ;
#164 = AXIS2_PLACEMENT_3D ( 'NONE', #8, #107, #35 ) ;
#165 = DATE_AND_TIME ( #56, #22 ) ;
#166 = VECTOR ( 'NONE', #158, 1000.000000000000000 ) ;
#167 = ORIENTED_EDGE ( 'NONE', *, *, #104, .T. ) ;
#168 = DIRECTION ( 'NONE',  ( 1.000000000000000000, 0.0000000000000000000, 0.0000000000000000000 ) ) ;
#169 = DIRECTION ( 'NONE',  ( 0.0000000000000000000, 0.0000000000000000000, 1.000000000000000000 ) ) ;
#170 = CC_DESIGN_PERSON_AND_ORGANIZATION_ASSIGNMENT ( #152, #125, ( #27 ) ) ;
#171 = LOCAL_TIME ( 15, 57, 58.00000000000000000, #128 ) ;
#172 = DIRECTION ( 'NONE',  ( 0.0000000000000000000, 0.0000000000000000000, 1.000000000000000000 ) ) ;
#173 = PERSON_AND_ORGANIZATION_ROLE ( 'design_owner' ) ;
#174 = LOCAL_TIME ( 15, 57, 58.00000000000000000, #118 ) ;
#175 = PERSON_AND_ORGANIZATION_ROLE ( 'creator' ) ;
ENDSEC;
END-ISO-10303-21;
